<svg width="71" height="71" viewBox="0 0 71 71" fill="none" xmlns="http://www.w3.org/2000/svg">
<path d="M33.8223 15.1172C35.4032 12.594 39.0793 12.5938 40.6602 15.1172L42.1074 17.4277C43.6712 19.9237 46.6543 21.1426 49.5186 20.4561L52.2314 19.8057C55.1959 19.0951 57.8478 21.803 57.0752 24.752L56.5859 26.6182C55.801 29.615 57.1228 32.7661 59.8105 34.3066L61.5352 35.2949C64.2394 36.845 64.2394 40.7459 61.5352 42.2959L59.8105 43.2852C57.1227 44.8258 55.8008 47.9767 56.5859 50.9736L57.0752 52.8398C57.8478 55.7888 55.1959 58.4967 52.2314 57.7861L49.5186 57.1348C46.6542 56.4482 43.6712 57.6679 42.1074 60.1641L40.6602 62.4736C39.0793 64.9971 35.4032 64.9971 33.8223 62.4736L32.375 60.1641C30.8113 57.668 27.8281 56.4484 24.9639 57.1348L22.25 57.7861C19.2855 58.4967 16.6338 55.7887 17.4062 52.8398L17.8955 50.9736C18.6806 47.9769 17.3594 44.8259 14.6719 43.2852L12.9463 42.2959C10.2421 40.7458 10.242 36.845 12.9463 35.2949L14.6719 34.3066C17.3595 32.766 18.6805 29.6149 17.8955 26.6182L17.4062 24.752C16.6337 21.803 19.2855 19.0951 22.25 19.8057L24.9639 20.4561C27.8282 21.1425 30.8113 19.9238 32.375 17.4277L33.8223 15.1172Z" fill="black" stroke="black" stroke-width="2.82416"/>
<path d="M29.8223 8.11719C31.4032 5.59398 35.0793 5.5938 36.6602 8.11719L38.1074 10.4277C39.6712 12.9237 42.6543 14.1426 45.5186 13.4561L48.2314 12.8057C51.1959 12.0951 53.8478 14.803 53.0752 17.752L52.5859 19.6182C51.801 22.615 53.1228 25.7661 55.8105 27.3066L57.5352 28.2949C60.2394 29.845 60.2394 33.7459 57.5352 35.2959L55.8105 36.2852C53.1227 37.8258 51.8008 40.9767 52.5859 43.9736L53.0752 45.8398C53.8478 48.7888 51.1959 51.4967 48.2314 50.7861L45.5186 50.1348C42.6542 49.4482 39.6712 50.6679 38.1074 53.1641L36.6602 55.4736C35.0793 57.9971 31.4032 57.9971 29.8223 55.4736L28.375 53.1641C26.8113 50.668 23.8281 49.4484 20.9639 50.1348L18.25 50.7861C15.2855 51.4967 12.6338 48.7887 13.4062 45.8398L13.8955 43.9736C14.6806 40.9769 13.3594 37.8259 10.6719 36.2852L8.94629 35.2959C6.24209 33.7458 6.24203 29.845 8.94629 28.2949L10.6719 27.3066C13.3595 25.766 14.6805 22.6149 13.8955 19.6182L13.4062 17.752C12.6337 14.803 15.2855 12.0951 18.25 12.8057L20.9639 13.4561C23.8282 14.1425 26.8113 12.9238 28.375 10.4277L29.8223 8.11719Z" fill="#8D83FF" stroke="black" stroke-width="2.82416"/>
<path d="M28.1095 37.9563C28.1095 36.962 28.2482 36.0948 28.5257 35.3548C28.8032 34.6033 29.2715 33.9211 29.9305 33.3084C30.5895 32.684 31.4798 32.077 32.6013 31.4873C33.1563 31.1867 33.6014 30.9208 33.9367 30.6895C34.272 30.4583 34.5148 30.2213 34.6652 29.9785C34.8155 29.7241 34.8906 29.4235 34.8906 29.0766C34.8906 28.7298 34.8155 28.4292 34.6652 28.1748C34.5148 27.9089 34.2894 27.7008 33.9888 27.5504C33.6997 27.4001 33.3355 27.325 32.8962 27.325C32.1909 27.325 31.6301 27.5273 31.2139 27.932C30.8092 28.3251 30.5606 28.8916 30.4681 29.6316L28.1442 29.4929C28.2598 28.2095 28.728 27.2036 29.5489 26.4752C30.3814 25.7352 31.4972 25.3652 32.8962 25.3652C33.798 25.3652 34.5727 25.5213 35.2201 25.8335C35.8676 26.1341 36.359 26.5619 36.6943 27.1169C37.0412 27.6719 37.2146 28.3135 37.2146 29.042C37.2146 29.6663 37.1047 30.2039 36.8851 30.6549C36.677 31.1058 36.3301 31.522 35.8445 31.9036C35.3704 32.2735 34.7287 32.6724 33.9194 33.1002C32.9019 33.6437 32.1388 34.1697 31.6301 34.6785C31.1214 35.1756 30.8497 35.615 30.815 35.9965H37.2146V37.9563H28.1095Z" fill="black"/>
</svg>
