<svg width="67" height="68" viewBox="0 0 67 68" fill="none" xmlns="http://www.w3.org/2000/svg">
<g filter="url(#filter0_d_54_1086)">
<path d="M28.6253 7.36767C30.7595 3.96098 35.7224 3.96098 37.8566 7.36768L39.3039 9.67792C40.5457 11.6601 42.9145 12.6281 45.1891 12.0829L47.9028 11.4324C51.9048 10.4731 55.4842 14.1283 54.4412 18.1093L53.9522 19.9757C53.3287 22.3556 54.378 24.858 56.5125 26.0814L58.2376 27.0702C61.8884 29.1628 61.8884 34.4285 58.2376 36.5211L56.5125 37.5099C54.378 38.7333 53.3287 41.2357 53.9522 43.6156L54.4412 45.482C55.4842 49.463 51.9048 53.1182 47.9028 52.1589L45.1891 51.5084C42.9145 50.9632 40.5457 51.9312 39.3039 53.9134L37.8566 56.2236C35.7224 59.6303 30.7595 59.6303 28.6253 56.2236L27.178 53.9134C25.9361 51.9312 23.5674 50.9632 21.2927 51.5084L18.579 52.1589C14.577 53.1182 10.9977 49.463 12.0407 45.482L12.5296 43.6156C13.1531 41.2357 12.1038 38.7333 9.96934 37.5099L8.24417 36.521C4.59338 34.4285 4.59338 29.1628 8.24417 27.0702L9.96934 26.0814C12.1038 24.858 13.1531 22.3556 12.5296 19.9757L12.0407 18.1093C10.9977 14.1283 14.577 10.4731 18.579 11.4324L21.2927 12.0829C23.5674 12.6281 25.9361 11.6601 27.178 9.67791L28.6253 7.36767Z" fill="#8D83FF"/>
<path d="M29.8223 8.11719C31.4032 5.59398 35.0793 5.5938 36.6602 8.11719L38.1074 10.4277C39.6712 12.9237 42.6543 14.1426 45.5186 13.4561L48.2314 12.8057C51.1959 12.0951 53.8478 14.803 53.0752 17.752L52.5859 19.6182C51.801 22.615 53.1228 25.7661 55.8105 27.3066L57.5352 28.2949C60.2394 29.845 60.2394 33.7459 57.5352 35.2959L55.8105 36.2852C53.1227 37.8258 51.8008 40.9767 52.5859 43.9736L53.0752 45.8398C53.8478 48.7888 51.1959 51.4967 48.2314 50.7861L45.5186 50.1348C42.6542 49.4482 39.6712 50.6679 38.1074 53.1641L36.6602 55.4736C35.0793 57.9971 31.4032 57.9971 29.8223 55.4736L28.375 53.1641C26.8113 50.668 23.8281 49.4484 20.9639 50.1348L18.25 50.7861C15.2855 51.4967 12.6338 48.7887 13.4062 45.8398L13.8955 43.9736C14.6806 40.9769 13.3594 37.8259 10.6719 36.2852L8.94629 35.2959C6.24209 33.7458 6.24203 29.845 8.94629 28.2949L10.6719 27.3066C13.3595 25.766 14.6805 22.6149 13.8955 19.6182L13.4062 17.752C12.6337 14.803 15.2855 12.0951 18.25 12.8057L20.9639 13.4561C23.8282 14.1425 26.8113 12.9238 28.375 10.4277L29.8223 8.11719Z" stroke="black" stroke-width="2.82416"/>
</g>
<path d="M28.1095 37.9563C28.1095 36.9619 28.2482 36.0948 28.5257 35.3548C28.8032 34.6033 29.2715 33.9211 29.9305 33.3083C30.5895 32.684 31.4798 32.077 32.6013 31.4873C33.1563 31.1867 33.6014 30.9207 33.9367 30.6895C34.272 30.4583 34.5148 30.2212 34.6652 29.9784C34.8155 29.7241 34.8906 29.4235 34.8906 29.0766C34.8906 28.7297 34.8155 28.4291 34.6652 28.1748C34.5148 27.9088 34.2894 27.7007 33.9888 27.5504C33.6997 27.4001 33.3355 27.325 32.8962 27.325C32.1909 27.325 31.6301 27.5273 31.2139 27.932C30.8092 28.3251 30.5606 28.8916 30.4681 29.6316L28.1442 29.4928C28.2598 28.2094 28.728 27.2035 29.5489 26.4751C30.3814 25.7352 31.4972 25.3652 32.8962 25.3652C33.798 25.3652 34.5727 25.5213 35.2201 25.8334C35.8676 26.1341 36.359 26.5619 36.6943 27.1168C37.0412 27.6718 37.2146 28.3135 37.2146 29.0419C37.2146 29.6663 37.1047 30.2039 36.8851 30.6548C36.677 31.1057 36.3301 31.522 35.8445 31.9035C35.3704 32.2735 34.7287 32.6724 33.9194 33.1002C32.9019 33.6436 32.1388 34.1697 31.6301 34.6784C31.1214 35.1756 30.8497 35.6149 30.815 35.9965H37.2146V37.9563H28.1095Z" fill="black"/>
<defs>
<filter id="filter0_d_54_1086" x="5.50586" y="4.81265" width="59.9077" height="63.0437" filterUnits="userSpaceOnUse" color-interpolation-filters="sRGB">
<feFlood flood-opacity="0" result="BackgroundImageFix"/>
<feColorMatrix in="SourceAlpha" type="matrix" values="0 0 0 0 0 0 0 0 0 0 0 0 0 0 0 0 0 0 127 0" result="hardAlpha"/>
<feOffset dx="4.43797" dy="9.07766"/>
<feComposite in2="hardAlpha" operator="out"/>
<feColorMatrix type="matrix" values="0 0 0 0 0 0 0 0 0 0 0 0 0 0 0 0 0 0 1 0"/>
<feBlend mode="normal" in2="BackgroundImageFix" result="effect1_dropShadow_54_1086"/>
<feBlend mode="normal" in="SourceGraphic" in2="effect1_dropShadow_54_1086" result="shape"/>
</filter>
</defs>
</svg>
