<svg width="56" height="59" viewBox="0 0 56 59" fill="none" xmlns="http://www.w3.org/2000/svg">
<g filter="url(#filter0_dd_54_1124)">
<path d="M35.1974 47.831C46.3458 43.6799 52.023 31.2899 47.8777 20.1573C43.7324 9.02476 31.3344 3.36522 20.186 7.5164C9.03758 11.6676 3.36042 24.0575 7.50571 35.1901C11.651 46.3227 24.049 51.9822 35.1974 47.831Z" fill="#FFEB79"/>
<path d="M20.3554 7.97122C31.2531 3.91346 43.3717 9.44645 47.4231 20.327C51.4743 31.2075 45.9255 43.3182 35.028 47.376C24.1305 51.4338 12.0123 45.9015 7.96069 35.0211C3.90923 24.1405 9.45777 12.029 20.3554 7.97122Z" stroke="#111827" stroke-width="0.971391"/>
</g>
<path d="M39.6055 21.6965C39.7108 21.6334 39.8282 21.5931 39.9499 21.5776C40.2012 21.5505 40.4545 21.6163 40.6618 21.7627C40.8664 21.9072 41.0113 22.121 41.0723 22.3643C41.5914 25.6991 40.9631 29.1092 39.2891 32.0328C37.6123 34.9613 34.9876 37.2263 31.8491 38.4535C28.7105 39.6806 25.2453 39.7971 22.0271 38.7824C19.0101 37.8311 16.3794 35.9388 14.5132 33.3906L14.1504 32.8724C14.0218 32.6666 13.9775 32.4191 14.0266 32.1817C14.0763 31.9418 14.2174 31.7308 14.4197 31.5946L14.429 31.589L14.4377 31.5816C14.5383 31.5044 14.6544 31.449 14.7776 31.4196C14.9009 31.3902 15.0291 31.3875 15.1536 31.4109C15.2784 31.4343 15.397 31.4841 15.5017 31.5564C15.6064 31.6288 15.6951 31.7227 15.7615 31.8317L15.7664 31.8392L15.771 31.8459C17.4167 34.2716 19.8345 36.0672 22.6284 36.9381C25.4223 37.809 28.427 37.7039 31.1496 36.6392C33.8721 35.5745 36.151 33.6133 37.6133 31.078C39.0756 28.5428 39.6349 25.5834 39.1992 22.6846L39.1966 22.672L39.1943 22.6603C39.1669 22.5381 39.1652 22.4115 39.1894 22.2891C39.2138 22.1666 39.2637 22.0501 39.3355 21.9481C39.4072 21.8463 39.4989 21.7603 39.6055 21.6965Z" fill="#111827" stroke="#111827" stroke-width="0.693851"/>
<path d="M18.4267 18.9241C18.9654 18.7235 19.5626 18.7422 20.0928 18.9769C20.6195 19.2101 21.0384 19.6394 21.2632 20.175C21.4436 20.7273 21.4074 21.3259 21.1615 21.8469C20.9139 22.3712 20.4744 22.7758 19.9356 22.9765C19.3968 23.1771 18.7989 23.1589 18.2686 22.924C17.742 22.6907 17.3229 22.2615 17.0982 21.7259C16.9179 21.1738 16.9541 20.5749 17.1999 20.054C17.4475 19.5296 17.8879 19.1247 18.4267 18.9241Z" fill="#111827" stroke="#111827" stroke-width="0.693851"/>
<path d="M28.598 15.1374L28.609 15.1333C28.88 15.0271 29.1696 14.9744 29.4605 14.9799C29.7514 14.9854 30.0384 15.0484 30.3046 15.1647C30.5708 15.281 30.8115 15.4485 31.0124 15.6577C31.2108 15.8644 31.3661 16.1084 31.4711 16.3747C31.6521 16.9254 31.6135 17.5247 31.3617 18.0484C31.1089 18.5741 30.6617 18.9822 30.1139 19.1862C29.5662 19.3901 28.9609 19.3739 28.4258 19.1416C27.8929 18.9101 27.4707 18.4823 27.2475 17.9474C27.1524 17.6774 27.1109 17.3911 27.1256 17.105C27.1405 16.8155 27.2126 16.5315 27.3376 16.2695C27.4627 16.0074 27.639 15.772 27.8553 15.5776C28.0714 15.3835 28.3239 15.2342 28.598 15.1374Z" fill="#111827" stroke="#111827" stroke-width="0.693851"/>
<defs>
<filter id="filter0_dd_54_1124" x="6.14941" y="6.15479" width="46.468" height="52.0608" filterUnits="userSpaceOnUse" color-interpolation-filters="sRGB">
<feFlood flood-opacity="0" result="BackgroundImageFix"/>
<feColorMatrix in="SourceAlpha" type="matrix" values="0 0 0 0 0 0 0 0 0 0 0 0 0 0 0 0 0 0 127 0" result="hardAlpha"/>
<feOffset dx="1.52647" dy="3.12233"/>
<feComposite in2="hardAlpha" operator="out"/>
<feColorMatrix type="matrix" values="0 0 0 0 0.0666667 0 0 0 0 0.0941176 0 0 0 0 0.152941 0 0 0 1 0"/>
<feBlend mode="normal" in2="BackgroundImageFix" result="effect1_dropShadow_54_1124"/>
<feColorMatrix in="SourceAlpha" type="matrix" values="0 0 0 0 0 0 0 0 0 0 0 0 0 0 0 0 0 0 127 0" result="hardAlpha"/>
<feOffset dx="3.38358" dy="9.02287"/>
<feComposite in2="hardAlpha" operator="out"/>
<feColorMatrix type="matrix" values="0 0 0 0 0.0666667 0 0 0 0 0.0941176 0 0 0 0 0.152941 0 0 0 1 0"/>
<feBlend mode="normal" in2="effect1_dropShadow_54_1124" result="effect2_dropShadow_54_1124"/>
<feBlend mode="normal" in="SourceGraphic" in2="effect2_dropShadow_54_1124" result="shape"/>
</filter>
</defs>
</svg>
