<svg width="64" height="64" viewBox="0 0 64 64" fill="none" xmlns="http://www.w3.org/2000/svg">
<path d="M31.5 48C31.5 56.5603 24.5604 63.5 16 63.5C7.4396 63.5 0.5 56.5603 0.5 48C0.5 39.4397 7.4396 32.5 16 32.5C24.5604 32.5 31.5 39.4397 31.5 48ZM31.5 16C31.5 24.5604 24.5604 31.5 16 31.5C7.4396 31.5 0.5 24.5604 0.5 16C0.5 7.4396 7.4396 0.5 16 0.5C24.5604 0.5 31.5 7.4396 31.5 16ZM32.5 48C32.5 39.4397 39.4397 32.5 48 32.5C56.5603 32.5 63.5 39.4397 63.5 48C63.5 56.5603 56.5603 63.5 48 63.5C39.4397 63.5 32.5 56.5603 32.5 48ZM32.5 16C32.5 7.4396 39.4397 0.5 48 0.5C56.5603 0.5 63.5 7.4396 63.5 16C63.5 24.5604 56.5603 31.5 48 31.5C39.4397 31.5 32.5 24.5604 32.5 16Z" fill="#C9B6FE" stroke="#201E3A"/>
</svg>
