<svg width="223" height="84" viewBox="0 0 223 84" fill="none" xmlns="http://www.w3.org/2000/svg">
<path d="M9 11V32C9 36.4183 12.5817 40 17 40H40" stroke="black"/>
<rect x="30.5" y="28.5" width="18" height="18" rx="4.10606" fill="#F2F4FF" stroke="black"/>
<path d="M44.9696 37.7879C44.9696 37.9024 44.9241 38.0122 44.8431 38.0932C44.7621 38.1742 44.6523 38.2197 44.5378 38.2197H40.2196V42.5379C40.2196 42.6524 40.1741 42.7622 40.0931 42.8432C40.0121 42.9242 39.9023 42.9697 39.7878 42.9697C39.6732 42.9697 39.5634 42.9242 39.4824 42.8432C39.4015 42.7622 39.356 42.6524 39.356 42.5379V38.2197H35.0378C34.9232 38.2197 34.8134 38.1742 34.7324 38.0932C34.6515 38.0122 34.606 37.9024 34.606 37.7879C34.606 37.6734 34.6515 37.5635 34.7324 37.4825C34.8134 37.4016 34.9232 37.3561 35.0378 37.3561H39.356V33.0379C39.356 32.9234 39.4015 32.8135 39.4824 32.7325C39.5634 32.6516 39.6732 32.6061 39.7878 32.6061C39.9023 32.6061 40.0121 32.6516 40.0931 32.7325C40.1741 32.8135 40.2196 32.9234 40.2196 33.0379V37.3561H44.5378C44.6523 37.3561 44.7621 37.4016 44.8431 37.4825C44.9241 37.5635 44.9696 37.6734 44.9696 37.7879Z" fill="black"/>
<path d="M9 31.0001V68.0001C9 72.4183 12.5817 76.0001 17 76.0001H49" stroke="black"/>
<path d="M67.92 36.4961C67.92 37.6161 67.7653 38.6054 67.456 39.4641C67.1467 40.3227 66.6853 40.9947 66.072 41.4801C65.464 41.9601 64.7067 42.2001 63.8 42.2001C62.8987 42.2001 62.1413 41.9654 61.528 41.4961C60.9147 41.0214 60.4533 40.3574 60.144 39.5041C59.8347 38.6507 59.68 37.6534 59.68 36.5121C59.68 35.3867 59.8347 34.3947 60.144 33.5361C60.4533 32.6721 60.9147 31.9974 61.528 31.5121C62.1413 31.0214 62.8987 30.7761 63.8 30.7761C64.7067 30.7761 65.464 31.0134 66.072 31.4881C66.6853 31.9627 67.1467 32.6294 67.456 33.4881C67.7653 34.3414 67.92 35.3441 67.92 36.4961ZM66.264 36.4961C66.264 35.0454 66.072 33.9441 65.688 33.1921C65.3093 32.4401 64.68 32.0641 63.8 32.0641C62.92 32.0641 62.288 32.4427 61.904 33.2001C61.5253 33.9574 61.336 35.0614 61.336 36.5121C61.336 37.9574 61.5333 39.0534 61.928 39.8001C62.3227 40.5414 62.9467 40.9121 63.8 40.9121C64.68 40.9121 65.3093 40.5387 65.688 39.7921C66.072 39.0454 66.264 37.9467 66.264 36.4961ZM74.0418 33.3681C74.7884 33.3681 75.3858 33.5521 75.8338 33.9201C76.2818 34.2827 76.6044 34.7947 76.8018 35.4561C76.9991 36.1121 77.0978 36.8854 77.0978 37.7761C77.0978 38.6294 76.9778 39.3894 76.7378 40.0561C76.4978 40.7227 76.1378 41.2481 75.6578 41.6321C75.1778 42.0107 74.5751 42.2001 73.8498 42.2001C72.9378 42.2001 72.2071 41.8801 71.6578 41.2401V45.2321L70.1218 45.4161V33.5681H71.4418L71.5538 34.7041C71.8684 34.2721 72.2391 33.9414 72.6658 33.7121C73.0924 33.4827 73.5511 33.3681 74.0418 33.3681ZM73.6498 34.5761C73.2124 34.5761 72.8258 34.7094 72.4898 34.9761C72.1538 35.2374 71.8764 35.5361 71.6578 35.8721V39.9521C71.8711 40.2667 72.1324 40.5147 72.4418 40.6961C72.7511 40.8721 73.0951 40.9601 73.4738 40.9601C74.1351 40.9601 74.6338 40.7041 74.9698 40.1921C75.3058 39.6747 75.4738 38.8694 75.4738 37.7761C75.4738 37.0454 75.4071 36.4454 75.2738 35.9761C75.1404 35.5014 74.9378 35.1494 74.6658 34.9201C74.3991 34.6907 74.0604 34.5761 73.6498 34.5761ZM80.9555 38.3041C80.9875 38.9227 81.1128 39.4294 81.3315 39.8241C81.5502 40.2134 81.8355 40.5014 82.1875 40.6881C82.5395 40.8694 82.9288 40.9601 83.3555 40.9601C83.7768 40.9601 84.1635 40.8961 84.5155 40.7681C84.8675 40.6401 85.2248 40.4534 85.5875 40.2081L86.2835 41.1761C85.8888 41.4907 85.4328 41.7414 84.9155 41.9281C84.3982 42.1094 83.8622 42.2001 83.3075 42.2001C82.4648 42.2001 81.7475 42.0161 81.1555 41.6481C80.5688 41.2747 80.1208 40.7574 79.8115 40.0961C79.5075 39.4347 79.3555 38.6667 79.3555 37.7921C79.3555 36.9441 79.5075 36.1867 79.8115 35.5201C80.1208 34.8534 80.5555 34.3281 81.1155 33.9441C81.6755 33.5601 82.3422 33.3681 83.1155 33.3681C83.8408 33.3681 84.4648 33.5361 84.9875 33.8721C85.5155 34.2081 85.9208 34.6881 86.2035 35.3121C86.4862 35.9307 86.6275 36.6721 86.6275 37.5361C86.6275 37.6801 86.6248 37.8187 86.6195 37.9521C86.6142 38.0854 86.6062 38.2027 86.5955 38.3041H80.9555ZM83.1315 34.5681C82.5342 34.5681 82.0355 34.7814 81.6355 35.2081C81.2408 35.6347 81.0142 36.2934 80.9555 37.1841H85.1475C85.1315 36.3307 84.9448 35.6827 84.5875 35.2401C84.2355 34.7921 83.7502 34.5681 83.1315 34.5681ZM89.3093 42.0001V33.5681H90.6293L90.7413 34.7041C91.0879 34.2721 91.5093 33.9414 92.0052 33.7121C92.5066 33.4827 93.0053 33.3681 93.5013 33.3681C94.3119 33.3681 94.9093 33.5894 95.2933 34.0321C95.6773 34.4694 95.8693 35.0801 95.8693 35.8641V42.0001H94.3333V36.8081C94.3333 36.2747 94.3013 35.8427 94.2373 35.5121C94.1786 35.1761 94.0533 34.9334 93.8613 34.7841C93.6693 34.6347 93.3786 34.5601 92.9893 34.5601C92.6853 34.5601 92.3973 34.6267 92.1253 34.7601C91.8533 34.8934 91.6079 35.0614 91.3893 35.2641C91.1759 35.4667 90.9946 35.6774 90.8453 35.8961V42.0001H89.3093ZM104.223 39.2561H100.047L99.215 42.0001H97.623L101.175 30.9761H103.175L106.735 42.0001H105.055L104.223 39.2561ZM100.415 37.9841H103.855L102.143 32.2561L100.415 37.9841ZM112.417 33.3681C113.163 33.3681 113.761 33.5521 114.209 33.9201C114.657 34.2827 114.979 34.7947 115.177 35.4561C115.374 36.1121 115.473 36.8854 115.473 37.7761C115.473 38.6294 115.353 39.3894 115.113 40.0561C114.873 40.7227 114.513 41.2481 114.033 41.6321C113.553 42.0107 112.95 42.2001 112.225 42.2001C111.313 42.2001 110.582 41.8801 110.033 41.2401V45.2321L108.497 45.4161V33.5681H109.817L109.929 34.7041C110.243 34.2721 110.614 33.9414 111.041 33.7121C111.467 33.4827 111.926 33.3681 112.417 33.3681ZM112.025 34.5761C111.587 34.5761 111.201 34.7094 110.865 34.9761C110.529 35.2374 110.251 35.5361 110.033 35.8721V39.9521C110.246 40.2667 110.507 40.5147 110.817 40.6961C111.126 40.8721 111.47 40.9601 111.849 40.9601C112.51 40.9601 113.009 40.7041 113.345 40.1921C113.681 39.6747 113.849 38.8694 113.849 37.7761C113.849 37.0454 113.782 36.4454 113.649 35.9761C113.515 35.5014 113.313 35.1494 113.041 34.9201C112.774 34.6907 112.435 34.5761 112.025 34.5761ZM122.507 33.5681V40.8321H124.851V42.0001H118.403V40.8321H120.97V34.7361H118.483V33.5681H122.507ZM121.363 29.5361C121.683 29.5361 121.939 29.6347 122.131 29.8321C122.328 30.0294 122.427 30.2694 122.427 30.5521C122.427 30.8454 122.328 31.0934 122.131 31.2961C121.939 31.4934 121.683 31.5921 121.363 31.5921C121.048 31.5921 120.792 31.4934 120.595 31.2961C120.403 31.0934 120.307 30.8454 120.307 30.5521C120.307 30.2694 120.403 30.0294 120.595 29.8321C120.792 29.6347 121.048 29.5361 121.363 29.5361ZM133.372 36.4321C133.372 35.5041 133.276 34.7627 133.084 34.2081C132.892 33.6481 132.639 33.2267 132.324 32.9441C132.015 32.6614 131.671 32.4721 131.292 32.3761C130.919 32.2801 130.546 32.2321 130.172 32.2321H128.996V40.7601H130.188C130.578 40.7601 130.962 40.6987 131.34 40.5761C131.719 40.4534 132.06 40.2347 132.364 39.9201C132.668 39.6054 132.911 39.1654 133.092 38.6001C133.279 38.0347 133.372 37.3121 133.372 36.4321ZM135.052 36.4321C135.052 37.3494 134.954 38.1307 134.756 38.7761C134.564 39.4214 134.298 39.9547 133.956 40.3761C133.62 40.7974 133.236 41.1281 132.804 41.3681C132.372 41.6027 131.916 41.7681 131.436 41.8641C130.956 41.9547 130.482 42.0001 130.012 42.0001H127.412V30.9761H129.836C130.487 30.9761 131.122 31.0481 131.74 31.1921C132.364 31.3307 132.924 31.5947 133.42 31.9841C133.922 32.3734 134.319 32.9254 134.612 33.6401C134.906 34.3547 135.052 35.2854 135.052 36.4321ZM140.566 33.3681C141.371 33.3681 142.046 33.5494 142.59 33.9121C143.139 34.2747 143.553 34.7867 143.83 35.4481C144.113 36.1041 144.254 36.8801 144.254 37.7761C144.254 38.6454 144.11 39.4134 143.822 40.0801C143.539 40.7414 143.123 41.2614 142.574 41.6401C142.025 42.0134 141.35 42.2001 140.55 42.2001C139.75 42.2001 139.073 42.0187 138.518 41.6561C137.969 41.2934 137.553 40.7814 137.27 40.1201C136.987 39.4587 136.846 38.6827 136.846 37.7921C136.846 36.9174 136.987 36.1494 137.27 35.4881C137.558 34.8214 137.979 34.3014 138.534 33.9281C139.089 33.5547 139.766 33.3681 140.566 33.3681ZM140.566 34.5921C139.873 34.5921 139.35 34.8534 138.998 35.3761C138.646 35.8934 138.47 36.6987 138.47 37.7921C138.47 38.8747 138.643 39.6774 138.99 40.2001C139.337 40.7174 139.857 40.9761 140.55 40.9761C141.243 40.9761 141.763 40.7174 142.11 40.2001C142.457 39.6774 142.63 38.8694 142.63 37.7761C142.63 36.6881 142.457 35.8854 142.11 35.3681C141.769 34.8507 141.254 34.5921 140.566 34.5921ZM150.792 40.9041C151.202 40.9041 151.584 40.8347 151.936 40.6961C152.293 40.5574 152.626 40.3814 152.936 40.1681L153.672 41.1681C153.304 41.4827 152.858 41.7334 152.336 41.9201C151.813 42.1067 151.29 42.2001 150.768 42.2001C149.92 42.2001 149.194 42.0187 148.592 41.6561C147.994 41.2934 147.538 40.7841 147.224 40.1281C146.909 39.4721 146.752 38.7041 146.752 37.8241C146.752 36.9707 146.909 36.2081 147.224 35.5361C147.544 34.8641 148.005 34.3361 148.608 33.9521C149.21 33.5627 149.938 33.3681 150.792 33.3681C151.346 33.3681 151.861 33.4534 152.336 33.6241C152.816 33.7894 153.256 34.0347 153.656 34.3601L152.928 35.3601C152.581 35.1201 152.232 34.9387 151.88 34.8161C151.528 34.6881 151.168 34.6241 150.8 34.6241C150.096 34.6241 149.52 34.8854 149.072 35.4081C148.624 35.9307 148.4 36.7361 148.4 37.8241C148.4 38.5494 148.501 39.1387 148.704 39.5921C148.912 40.0454 149.197 40.3787 149.56 40.5921C149.922 40.8001 150.333 40.9041 150.792 40.9041ZM158.266 40.7201C158.266 40.4481 158.33 40.2027 158.458 39.9841C158.586 39.7601 158.759 39.5841 158.977 39.4561C159.202 39.3281 159.45 39.2641 159.722 39.2641C160.004 39.2641 160.258 39.3281 160.482 39.4561C160.706 39.5841 160.882 39.7601 161.01 39.9841C161.138 40.2027 161.202 40.4481 161.202 40.7201C161.202 40.9921 161.138 41.2427 161.01 41.4721C160.882 41.6961 160.706 41.8721 160.482 42.0001C160.258 42.1334 160.004 42.2001 159.722 42.2001C159.45 42.2001 159.202 42.1334 158.977 42.0001C158.759 41.8721 158.586 41.6961 158.458 41.4721C158.33 41.2427 158.266 40.9921 158.266 40.7201ZM171.723 33.5681V40.4641C171.723 41.4507 171.507 42.2721 171.075 42.9281C170.649 43.5894 170.027 44.1174 169.211 44.5121C168.395 44.9121 167.406 45.2134 166.243 45.4161L165.995 44.2321C166.827 44.0827 167.558 43.8694 168.187 43.5921C168.817 43.3147 169.307 42.9307 169.659 42.4401C170.011 41.9547 170.187 41.3307 170.187 40.5681V34.7361H166.755V33.5681H171.723ZM170.403 29.5361C170.723 29.5361 170.982 29.6347 171.179 29.8321C171.377 30.0294 171.475 30.2694 171.475 30.5521C171.475 30.8454 171.377 31.0934 171.179 31.2961C170.982 31.4934 170.723 31.5921 170.403 31.5921C170.094 31.5921 169.841 31.4934 169.643 31.2961C169.451 31.0934 169.355 30.8454 169.355 30.5521C169.355 30.2694 169.451 30.0294 169.643 29.8321C169.841 29.6347 170.094 29.5361 170.403 29.5361ZM178.605 40.9761C179.218 40.9761 179.701 40.8641 180.053 40.6401C180.41 40.4161 180.589 40.1121 180.589 39.7281C180.589 39.4827 180.541 39.2721 180.445 39.0961C180.354 38.9201 180.162 38.7601 179.869 38.6161C179.581 38.4721 179.144 38.3254 178.557 38.1761C177.986 38.0321 177.488 37.8641 177.061 37.6721C176.634 37.4801 176.304 37.2294 176.069 36.9201C175.84 36.6107 175.725 36.2107 175.725 35.7201C175.725 35.2401 175.858 34.8241 176.125 34.4721C176.397 34.1201 176.778 33.8481 177.269 33.6561C177.765 33.4641 178.341 33.3681 178.997 33.3681C179.69 33.3681 180.293 33.4614 180.805 33.6481C181.322 33.8294 181.76 34.0534 182.117 34.3201L181.461 35.3201C181.136 35.1014 180.778 34.9227 180.389 34.7841C180.005 34.6454 179.552 34.5761 179.029 34.5761C178.405 34.5761 177.96 34.6721 177.693 34.8641C177.432 35.0507 177.301 35.2987 177.301 35.6081C177.301 35.8374 177.365 36.0294 177.493 36.1841C177.626 36.3334 177.853 36.4721 178.173 36.6001C178.493 36.7281 178.936 36.8694 179.501 37.0241C180.05 37.1734 180.53 37.3494 180.941 37.5521C181.352 37.7547 181.669 38.0214 181.893 38.3521C182.122 38.6774 182.237 39.1067 182.237 39.6401C182.237 40.2427 182.064 40.7334 181.717 41.1121C181.37 41.4854 180.92 41.7601 180.365 41.9361C179.816 42.1121 179.229 42.2001 178.605 42.2001C177.837 42.2001 177.176 42.0881 176.621 41.8641C176.072 41.6401 175.61 41.3654 175.237 41.0401L176.085 40.0641C176.416 40.3361 176.794 40.5574 177.221 40.7281C177.648 40.8934 178.109 40.9761 178.605 40.9761ZM188.535 33.3681C189.34 33.3681 190.015 33.5494 190.559 33.9121C191.108 34.2747 191.521 34.7867 191.799 35.4481C192.081 36.1041 192.223 36.8801 192.223 37.7761C192.223 38.6454 192.079 39.4134 191.791 40.0801C191.508 40.7414 191.092 41.2614 190.543 41.6401C189.993 42.0134 189.319 42.2001 188.519 42.2001C187.719 42.2001 187.041 42.0187 186.487 41.6561C185.937 41.2934 185.521 40.7814 185.239 40.1201C184.956 39.4587 184.815 38.6827 184.815 37.7921C184.815 36.9174 184.956 36.1494 185.239 35.4881C185.527 34.8214 185.948 34.3014 186.503 33.9281C187.057 33.5547 187.735 33.3681 188.535 33.3681ZM188.535 34.5921C187.841 34.5921 187.319 34.8534 186.967 35.3761C186.615 35.8934 186.439 36.6987 186.439 37.7921C186.439 38.8747 186.612 39.6774 186.959 40.2001C187.305 40.7174 187.825 40.9761 188.519 40.9761C189.212 40.9761 189.732 40.7174 190.079 40.2001C190.425 39.6774 190.599 38.8694 190.599 37.7761C190.599 36.6881 190.425 35.8854 190.079 35.3681C189.737 34.8507 189.223 34.5921 188.535 34.5921ZM194.841 42.0001V33.5681H196.161L196.273 34.7041C196.619 34.2721 197.041 33.9414 197.536 33.7121C198.038 33.4827 198.537 33.3681 199.033 33.3681C199.843 33.3681 200.441 33.5894 200.825 34.0321C201.209 34.4694 201.401 35.0801 201.401 35.8641V42.0001H199.865V36.8081C199.865 36.2747 199.833 35.8427 199.769 35.5121C199.71 35.1761 199.585 34.9334 199.393 34.7841C199.201 34.6347 198.91 34.5601 198.521 34.5601C198.217 34.5601 197.929 34.6267 197.657 34.7601C197.385 34.8934 197.139 35.0614 196.921 35.2641C196.707 35.4667 196.526 35.6774 196.377 35.8961V42.0001H194.841Z" fill="black"/>
<path d="M62.424 77.7281H67.04L66.856 79.0001H60.56V77.8561L65.16 71.8481H60.928V70.5681H66.992V71.7201L62.424 77.7281ZM71.6578 70.5681V76.5041C71.6578 77.0374 71.7671 77.4214 71.9858 77.6561C72.2044 77.8854 72.5378 78.0001 72.9858 78.0001C73.4178 78.0001 73.8284 77.8747 74.2178 77.6241C74.6071 77.3734 74.9111 77.0747 75.1298 76.7281V70.5681H76.6658V79.0001H75.3458L75.2338 77.8881C74.9138 78.3094 74.5111 78.6347 74.0258 78.8641C73.5404 79.0881 73.0498 79.2001 72.5538 79.2001C71.7378 79.2001 71.1271 78.9787 70.7218 78.5361C70.3218 78.0934 70.1218 77.4801 70.1218 76.6961V70.5681H71.6578ZM84.7235 66.9921L86.2595 67.1761V79.0001H84.9075L84.7795 77.9201C84.4808 78.3467 84.1288 78.6667 83.7235 78.8801C83.3182 79.0934 82.8755 79.2001 82.3955 79.2001C81.6702 79.2001 81.0702 79.0161 80.5955 78.6481C80.1262 78.2747 79.7768 77.7574 79.5475 77.0961C79.3182 76.4347 79.2035 75.6667 79.2035 74.7921C79.2035 73.9387 79.3342 73.1814 79.5955 72.5201C79.8622 71.8534 80.2408 71.3281 80.7315 70.9441C81.2275 70.5601 81.8248 70.3681 82.5235 70.3681C82.9875 70.3681 83.4008 70.4507 83.7635 70.6161C84.1262 70.7761 84.4462 71.0134 84.7235 71.3281V66.9921ZM82.9235 71.5761C82.2675 71.5761 81.7582 71.8401 81.3955 72.3681C81.0328 72.8961 80.8515 73.7041 80.8515 74.7921C80.8515 75.5121 80.9262 76.1094 81.0755 76.5841C81.2248 77.0587 81.4408 77.4107 81.7235 77.6401C82.0062 77.8694 82.3528 77.9841 82.7635 77.9841C83.2062 77.9841 83.5875 77.8561 83.9075 77.6001C84.2328 77.3441 84.5048 77.0481 84.7235 76.7121V72.5921C84.5048 72.2721 84.2408 72.0241 83.9315 71.8481C83.6275 71.6667 83.2915 71.5761 82.9235 71.5761ZM92.5973 70.3681C93.4026 70.3681 94.0773 70.5494 94.6213 70.9121C95.1706 71.2747 95.5839 71.7867 95.8612 72.4481C96.1439 73.1041 96.2853 73.8801 96.2853 74.7761C96.2853 75.6454 96.1413 76.4134 95.8533 77.0801C95.5706 77.7414 95.1546 78.2614 94.6053 78.6401C94.0559 79.0134 93.3813 79.2001 92.5813 79.2001C91.7813 79.2001 91.1039 79.0187 90.5493 78.6561C89.9999 78.2934 89.5839 77.7814 89.3013 77.1201C89.0186 76.4587 88.8773 75.6827 88.8773 74.7921C88.8773 73.9174 89.0186 73.1494 89.3013 72.4881C89.5893 71.8214 90.0106 71.3014 90.5653 70.9281C91.1199 70.5547 91.7973 70.3681 92.5973 70.3681ZM92.5973 71.5921C91.9039 71.5921 91.3813 71.8534 91.0293 72.3761C90.6773 72.8934 90.5013 73.6987 90.5013 74.7921C90.5013 75.8747 90.6746 76.6774 91.0213 77.2001C91.3679 77.7174 91.8879 77.9761 92.5813 77.9761C93.2746 77.9761 93.7946 77.7174 94.1413 77.2001C94.4879 76.6774 94.6613 75.8694 94.6613 74.7761C94.6613 73.6881 94.4879 72.8854 94.1413 72.3681C93.7999 71.8507 93.2853 71.5921 92.5973 71.5921ZM106.127 70.5681L102.495 74.3521L106.527 79.0001H104.583L100.655 74.3921L104.231 70.5681H106.127ZM100.511 66.9921V79.0001H98.975V67.1761L100.511 66.9921ZM110.033 70.5681V76.5041C110.033 77.0374 110.142 77.4214 110.361 77.6561C110.579 77.8854 110.913 78.0001 111.361 78.0001C111.793 78.0001 112.203 77.8747 112.593 77.6241C112.982 77.3734 113.286 77.0747 113.505 76.7281V70.5681H115.041V79.0001H113.721L113.609 77.8881C113.289 78.3094 112.886 78.6347 112.401 78.8641C111.915 79.0881 111.425 79.2001 110.929 79.2001C110.113 79.2001 109.502 78.9787 109.097 78.5361C108.697 78.0934 108.497 77.4801 108.497 76.6961V70.5681H110.033ZM119.891 77.7201C119.891 77.4481 119.955 77.2027 120.083 76.9841C120.211 76.7601 120.384 76.5841 120.602 76.4561C120.827 76.3281 121.075 76.2641 121.347 76.2641C121.629 76.2641 121.883 76.3281 122.107 76.4561C122.331 76.5841 122.507 76.7601 122.635 76.9841C122.763 77.2027 122.827 77.4481 122.827 77.7201C122.827 77.9921 122.763 78.2427 122.635 78.4721C122.507 78.6961 122.331 78.8721 122.107 79.0001C121.883 79.1334 121.629 79.2001 121.347 79.2001C121.075 79.2001 120.827 79.1334 120.602 79.0001C120.384 78.8721 120.211 78.6961 120.083 78.4721C119.955 78.2427 119.891 77.9921 119.891 77.7201ZM131.604 77.9041C132.015 77.9041 132.396 77.8347 132.748 77.6961C133.106 77.5574 133.439 77.3814 133.748 77.1681L134.484 78.1681C134.116 78.4827 133.671 78.7334 133.148 78.9201C132.626 79.1067 132.103 79.2001 131.58 79.2001C130.732 79.2001 130.007 79.0187 129.404 78.6561C128.807 78.2934 128.351 77.7841 128.036 77.1281C127.722 76.4721 127.564 75.7041 127.564 74.8241C127.564 73.9707 127.722 73.2081 128.036 72.5361C128.356 71.8641 128.818 71.3361 129.42 70.9521C130.023 70.5627 130.751 70.3681 131.604 70.3681C132.159 70.3681 132.674 70.4534 133.148 70.6241C133.628 70.7894 134.068 71.0347 134.468 71.3601L133.74 72.3601C133.394 72.1201 133.044 71.9387 132.692 71.8161C132.34 71.6881 131.98 71.6241 131.612 71.6241C130.908 71.6241 130.332 71.8854 129.884 72.4081C129.436 72.9307 129.212 73.7361 129.212 74.8241C129.212 75.5494 129.314 76.1387 129.516 76.5921C129.724 77.0454 130.01 77.3787 130.372 77.5921C130.735 77.8001 131.146 77.9041 131.604 77.9041ZM140.566 70.3681C141.371 70.3681 142.046 70.5494 142.59 70.9121C143.139 71.2747 143.553 71.7867 143.83 72.4481C144.113 73.1041 144.254 73.8801 144.254 74.7761C144.254 75.6454 144.11 76.4134 143.822 77.0801C143.539 77.7414 143.123 78.2614 142.574 78.6401C142.025 79.0134 141.35 79.2001 140.55 79.2001C139.75 79.2001 139.073 79.0187 138.518 78.6561C137.969 78.2934 137.553 77.7814 137.27 77.1201C136.987 76.4587 136.846 75.6827 136.846 74.7921C136.846 73.9174 136.987 73.1494 137.27 72.4881C137.558 71.8214 137.979 71.3014 138.534 70.9281C139.089 70.5547 139.766 70.3681 140.566 70.3681ZM140.566 71.5921C139.873 71.5921 139.35 71.8534 138.998 72.3761C138.646 72.8934 138.47 73.6987 138.47 74.7921C138.47 75.8747 138.643 76.6774 138.99 77.2001C139.337 77.7174 139.857 77.9761 140.55 77.9761C141.243 77.9761 141.763 77.7174 142.11 77.2001C142.457 76.6774 142.63 75.8694 142.63 74.7761C142.63 73.6881 142.457 72.8854 142.11 72.3681C141.769 71.8507 141.254 71.5921 140.566 71.5921ZM146.872 79.0001V70.5681H148.192L148.304 71.7041C148.65 71.2721 149.072 70.9414 149.568 70.7121C150.069 70.4827 150.568 70.3681 151.064 70.3681C151.874 70.3681 152.472 70.5894 152.856 71.0321C153.24 71.4694 153.432 72.0801 153.432 72.8641V79.0001H151.896V73.8081C151.896 73.2747 151.864 72.8427 151.8 72.5121C151.741 72.1761 151.616 71.9334 151.424 71.7841C151.232 71.6347 150.941 71.5601 150.552 71.5601C150.248 71.5601 149.96 71.6267 149.688 71.7601C149.416 71.8934 149.17 72.0614 148.952 72.2641C148.738 72.4667 148.557 72.6774 148.408 72.8961V79.0001H146.872ZM161.514 66.9921C161.994 66.9921 162.426 67.0347 162.81 67.1201C163.194 67.2001 163.556 67.3147 163.898 67.4641L163.418 68.5681C163.146 68.4507 162.855 68.3627 162.546 68.3041C162.242 68.2454 161.93 68.2161 161.61 68.2161C161.034 68.2161 160.604 68.3281 160.322 68.5521C160.039 68.7761 159.898 69.1201 159.898 69.5841V71.2001H162.746L162.578 72.3681H159.898V79.0001H158.37V72.3681H156.394V71.2001H158.37V69.5921C158.37 69.0641 158.503 68.6054 158.77 68.2161C159.042 67.8267 159.412 67.5254 159.882 67.3121C160.356 67.0987 160.9 66.9921 161.514 66.9921ZM170.475 71.2001V77.8321H172.819V79.0001H166.371V77.8321H168.939V72.3681H166.451V71.2001H170.475ZM169.331 67.0881C169.651 67.0881 169.907 67.1867 170.099 67.3841C170.297 67.5814 170.395 67.8214 170.395 68.1041C170.395 68.4027 170.297 68.6507 170.099 68.8481C169.907 69.0454 169.651 69.1441 169.331 69.1441C169.017 69.1441 168.761 69.0454 168.563 68.8481C168.371 68.6507 168.275 68.4027 168.275 68.1041C168.275 67.8214 168.371 67.5814 168.563 67.3841C168.761 67.1867 169.017 67.0881 169.331 67.0881ZM182.613 69.5921L183.061 70.9521C182.709 71.0641 182.33 71.1361 181.925 71.1681C181.525 71.2001 181.082 71.2161 180.597 71.2161C181.093 71.4401 181.466 71.7281 181.717 72.0801C181.968 72.4321 182.093 72.8534 182.093 73.3441C182.093 73.8987 181.962 74.3921 181.701 74.8241C181.445 75.2561 181.074 75.5947 180.589 75.8401C180.109 76.0854 179.53 76.2081 178.853 76.2081C178.586 76.2081 178.36 76.1974 178.173 76.1761C177.992 76.1494 177.813 76.1094 177.637 76.0561C177.52 76.1361 177.421 76.2454 177.341 76.3841C177.266 76.5227 177.229 76.6694 177.229 76.8241C177.229 77.0107 177.304 77.1707 177.453 77.3041C177.602 77.4321 177.893 77.4961 178.325 77.4961H179.821C180.402 77.4961 180.92 77.5974 181.373 77.8001C181.832 78.0027 182.192 78.2774 182.453 78.6241C182.714 78.9707 182.845 79.3654 182.845 79.8081C182.845 80.6454 182.488 81.2881 181.773 81.7361C181.058 82.1894 180.045 82.4161 178.733 82.4161C177.805 82.4161 177.074 82.3201 176.541 82.1281C176.013 81.9361 175.637 81.6507 175.413 81.2721C175.194 80.8934 175.085 80.4187 175.085 79.8481H176.469C176.469 80.1627 176.53 80.4214 176.653 80.6241C176.776 80.8267 177 80.9787 177.325 81.0801C177.65 81.1814 178.12 81.2321 178.733 81.2321C179.341 81.2321 179.832 81.1814 180.205 81.0801C180.578 80.9787 180.853 80.8294 181.029 80.6321C181.205 80.4347 181.293 80.1947 181.293 79.9121C181.293 79.5387 181.125 79.2534 180.789 79.0561C180.453 78.8587 180.024 78.7601 179.501 78.7601H178.021C177.264 78.7601 176.706 78.6001 176.349 78.2801C175.997 77.9547 175.821 77.5814 175.821 77.1601C175.821 76.8827 175.898 76.6134 176.053 76.3521C176.213 76.0907 176.445 75.8614 176.749 75.6641C176.258 75.4027 175.896 75.0827 175.661 74.7041C175.432 74.3254 175.317 73.8641 175.317 73.3201C175.317 72.7387 175.461 72.2267 175.749 71.7841C176.042 71.3414 176.448 70.9947 176.965 70.7441C177.482 70.4934 178.077 70.3681 178.749 70.3681C179.448 70.3681 180.018 70.3361 180.461 70.2721C180.909 70.2027 181.296 70.1121 181.621 70.0001C181.952 69.8827 182.282 69.7467 182.613 69.5921ZM178.757 71.4561C178.128 71.4561 177.658 71.6321 177.349 71.9841C177.04 72.3307 176.885 72.7761 176.885 73.3201C176.885 73.8694 177.042 74.3201 177.357 74.6721C177.672 75.0187 178.149 75.1921 178.789 75.1921C179.354 75.1921 179.786 75.0294 180.085 74.7041C180.384 74.3734 180.533 73.9067 180.533 73.3041C180.533 72.6961 180.384 72.2374 180.085 71.9281C179.786 71.6134 179.344 71.4561 178.757 71.4561ZM187.047 77.7201C187.047 77.4481 187.111 77.2027 187.239 76.9841C187.367 76.7601 187.54 76.5841 187.759 76.4561C187.983 76.3281 188.231 76.2641 188.503 76.2641C188.785 76.2641 189.039 76.3281 189.263 76.4561C189.487 76.5841 189.663 76.7601 189.791 76.9841C189.919 77.2027 189.983 77.4481 189.983 77.7201C189.983 77.9921 189.919 78.2427 189.791 78.4721C189.663 78.6961 189.487 78.8721 189.263 79.0001C189.039 79.1334 188.785 79.2001 188.503 79.2001C188.231 79.2001 187.983 79.1334 187.759 79.0001C187.54 78.8721 187.367 78.6961 187.239 78.4721C187.111 78.2427 187.047 77.9921 187.047 77.7201ZM201.689 78.5681C201.39 78.7601 201.03 78.9121 200.609 79.0241C200.187 79.1414 199.766 79.2001 199.345 79.2001C198.406 79.2001 197.686 78.9547 197.185 78.4641C196.689 77.9734 196.441 77.3361 196.441 76.5521V71.7201H194.529V70.5681H196.441V68.6641L197.977 68.4801V70.5681H200.857L200.681 71.7201H197.977V76.5361C197.977 77.0001 198.094 77.3494 198.329 77.5841C198.569 77.8187 198.966 77.9361 199.521 77.9361C199.835 77.9361 200.123 77.8987 200.385 77.8241C200.646 77.7494 200.889 77.6534 201.113 77.5361L201.689 78.5681ZM207.386 77.9761C208 77.9761 208.482 77.8641 208.834 77.6401C209.192 77.4161 209.37 77.1121 209.37 76.7281C209.37 76.4827 209.322 76.2721 209.226 76.0961C209.136 75.9201 208.944 75.7601 208.65 75.6161C208.362 75.4721 207.925 75.3254 207.338 75.1761C206.768 75.0321 206.269 74.8641 205.842 74.6721C205.416 74.4801 205.085 74.2294 204.85 73.9201C204.621 73.6107 204.506 73.2107 204.506 72.7201C204.506 72.2401 204.64 71.8241 204.906 71.4721C205.178 71.1201 205.56 70.8481 206.05 70.6561C206.546 70.4641 207.122 70.3681 207.778 70.3681C208.472 70.3681 209.074 70.4614 209.586 70.6481C210.104 70.8294 210.541 71.0534 210.898 71.3201L210.242 72.3201C209.917 72.1014 209.56 71.9227 209.17 71.7841C208.786 71.6454 208.333 71.5761 207.81 71.5761C207.186 71.5761 206.741 71.6721 206.474 71.8641C206.213 72.0507 206.082 72.2987 206.082 72.6081C206.082 72.8374 206.146 73.0294 206.274 73.1841C206.408 73.3334 206.634 73.4721 206.954 73.6001C207.274 73.7281 207.717 73.8694 208.282 74.0241C208.832 74.1734 209.312 74.3494 209.722 74.5521C210.133 74.7547 210.45 75.0214 210.674 75.3521C210.904 75.6774 211.018 76.1067 211.018 76.6401C211.018 77.2427 210.845 77.7334 210.498 78.1121C210.152 78.4854 209.701 78.7601 209.146 78.9361C208.597 79.1121 208.01 79.2001 207.386 79.2001C206.618 79.2001 205.957 79.0881 205.402 78.8641C204.853 78.6401 204.392 78.3654 204.018 78.0401L204.866 77.0641C205.197 77.3361 205.576 77.5574 206.002 77.7281C206.429 77.8934 206.89 77.9761 207.386 77.9761ZM215.028 79.0001H213.3L216.38 74.5521L213.668 70.5681H215.46L217.316 73.6321L219.188 70.5681H220.908L218.22 74.4881L221.3 79.0001H219.452L217.252 75.4561L215.028 79.0001Z" fill="black"/>
<rect x="8.83887" y="17.6777" width="12.5" height="12.5" rx="2.84982" transform="rotate(-135 8.83887 17.6777)" fill="black"/>
</svg>
