<svg width="382" height="156" viewBox="0 0 382 156" fill="none" xmlns="http://www.w3.org/2000/svg">
<path d="M388 190H376.864V178.85H388V190Z" fill="white"/>
<path d="M388 178.85H376.864V167.7H388V178.85Z" fill="white"/>
<path d="M388 167.7H376.864V156.55H388V167.7Z" fill="white"/>
<path d="M388 156.55H376.864V145.4H388V156.55Z" fill="white"/>
<path d="M388 145.4H376.864V134.25H388V145.4Z" fill="white"/>
<path d="M388 134.25H376.864V123.1H388V134.25Z" fill="white"/>
<path d="M388 123.1H376.864V111.95H388V123.1Z" fill="white"/>
<path d="M388 111.95H376.864V100.8H388V111.95Z" fill="white"/>
<path d="M388 100.8H376.864V89.65H388V100.8Z" fill="white"/>
<path d="M388 89.65H376.864V78.5H388V89.65Z" fill="white"/>
<path d="M388 78.5H376.864V67.35H388V78.5Z" fill="white"/>
<path d="M388 67.35H376.864V56.2H388V67.35Z" fill="white"/>
<path d="M388 56.2H376.864V45.05H388V56.2Z" fill="white"/>
<path d="M388 45.05H376.864V33.9H388V45.05Z" fill="white"/>
<path d="M388 33.9H376.864V22.75H388V33.9Z" fill="white"/>
<path d="M388 22.75H376.864V11.6H388V22.75Z" fill="white"/>
<path d="M388 11.6H376.864V0.449997H388V11.6Z" fill="white"/>
<path d="M388 0.449997H376.864V-10.7H388V0.449997Z" fill="white"/>
<path d="M388 -10.7H376.864V-21.85H388V-10.7Z" fill="white"/>
<path d="M388 -21.85H376.864V-33H388V-21.85Z" fill="white"/>
<path d="M376.864 190H365.727V178.85H376.864V190Z" fill="white"/>
<path d="M376.864 178.85H365.727V167.7H376.864V178.85Z" fill="white"/>
<path d="M376.864 167.7H365.727V156.55H376.864V167.7Z" fill="white"/>
<path d="M376.864 156.55H365.727V145.4H376.864V156.55Z" fill="white"/>
<path d="M376.864 145.4H365.727V134.25H376.864V145.4Z" fill="white"/>
<path d="M376.864 134.25H365.727V123.1H376.864V134.25Z" fill="white"/>
<path d="M376.864 123.1H365.727V111.95H376.864V123.1Z" fill="white"/>
<path d="M376.864 111.95H365.727V100.8H376.864V111.95Z" fill="white"/>
<path d="M376.864 100.8H365.727V89.65H376.864V100.8Z" fill="white"/>
<path d="M376.864 89.65H365.727V78.5H376.864V89.65Z" fill="white"/>
<path d="M376.864 78.5H365.727V67.35H376.864V78.5Z" fill="white"/>
<path d="M376.864 67.35H365.727V56.2H376.864V67.35Z" fill="white"/>
<path d="M376.864 56.2H365.727V45.05H376.864V56.2Z" fill="white"/>
<path d="M376.864 45.05H365.727V33.9H376.864V45.05Z" fill="white"/>
<path d="M376.864 33.9H365.727V22.75H376.864V33.9Z" fill="white"/>
<path d="M376.864 22.75H365.727V11.6H376.864V22.75Z" fill="white"/>
<path d="M376.864 11.6H365.727V0.449997H376.864V11.6Z" fill="white"/>
<path d="M376.864 0.449997H365.727V-10.7H376.864V0.449997Z" fill="white"/>
<path d="M376.864 -10.7H365.727V-21.85H376.864V-10.7Z" fill="white"/>
<path d="M376.864 -21.85H365.727V-33H376.864V-21.85Z" fill="white"/>
<path d="M365.727 190H354.591V178.85H365.727V190Z" fill="white"/>
<path d="M365.727 178.85H354.591V167.7H365.727V178.85Z" fill="white"/>
<path d="M365.727 167.7H354.591V156.55H365.727V167.7Z" fill="white"/>
<path d="M365.727 156.55H354.591V145.4H365.727V156.55Z" fill="white"/>
<path d="M365.727 145.4H354.591V134.25H365.727V145.4Z" fill="white"/>
<path d="M365.727 134.25H354.591V123.1H365.727V134.25Z" fill="white"/>
<path d="M365.727 123.1H354.591V111.95H365.727V123.1Z" fill="white"/>
<path d="M365.727 111.95H354.591V100.8H365.727V111.95Z" fill="white"/>
<path d="M365.727 100.8H354.591V89.65H365.727V100.8Z" fill="white"/>
<path d="M365.727 89.65H354.591V78.5H365.727V89.65Z" fill="white"/>
<path d="M365.727 78.5H354.591V67.35H365.727V78.5Z" fill="white"/>
<path d="M365.727 67.35H354.591V56.2H365.727V67.35Z" fill="white"/>
<path d="M365.727 56.2H354.591V45.05H365.727V56.2Z" fill="white"/>
<path d="M365.727 45.05H354.591V33.9H365.727V45.05Z" fill="white"/>
<path d="M365.727 33.9H354.591V22.75H365.727V33.9Z" fill="white"/>
<path d="M365.727 22.75H354.591V11.6H365.727V22.75Z" fill="white"/>
<path d="M365.727 11.6H354.591V0.449997H365.727V11.6Z" fill="white"/>
<path d="M365.727 0.449997H354.591V-10.7H365.727V0.449997Z" fill="white"/>
<path d="M365.727 -10.7H354.591V-21.85H365.727V-10.7Z" fill="white"/>
<path d="M365.727 -21.85H354.591V-33H365.727V-21.85Z" fill="white"/>
<path d="M354.591 190H343.455V178.85H354.591V190Z" fill="white"/>
<path d="M354.591 178.85H343.455V167.7H354.591V178.85Z" fill="white"/>
<path d="M354.591 167.7H343.455V156.55H354.591V167.7Z" fill="white"/>
<path d="M354.591 156.55H343.455V145.4H354.591V156.55Z" fill="white"/>
<path d="M354.591 145.4H343.455V134.25H354.591V145.4Z" fill="white"/>
<path d="M354.591 134.25H343.455V123.1H354.591V134.25Z" fill="white"/>
<path d="M354.591 123.1H343.455V111.95H354.591V123.1Z" fill="white"/>
<path d="M354.591 111.95H343.455V100.8H354.591V111.95Z" fill="white"/>
<path d="M354.591 100.8H343.455V89.65H354.591V100.8Z" fill="white"/>
<path d="M354.591 89.65H343.455V78.5H354.591V89.65Z" fill="white"/>
<path d="M354.591 78.5H343.455V67.35H354.591V78.5Z" fill="white"/>
<path d="M354.591 67.35H343.455V56.2H354.591V67.35Z" fill="white"/>
<path d="M354.591 56.2H343.455V45.05H354.591V56.2Z" fill="white"/>
<path d="M354.591 45.05H343.455V33.9H354.591V45.05Z" fill="white"/>
<path d="M354.591 33.9H343.455V22.75H354.591V33.9Z" fill="white"/>
<path d="M354.591 22.75H343.455V11.6H354.591V22.75Z" fill="white"/>
<path d="M354.591 11.6H343.455V0.449997H354.591V11.6Z" fill="white"/>
<path d="M354.591 0.449997H343.455V-10.7H354.591V0.449997Z" fill="white"/>
<path d="M354.591 -10.7H343.455V-21.85H354.591V-10.7Z" fill="white"/>
<path d="M354.591 -21.85H343.455V-33H354.591V-21.85Z" fill="white"/>
<path d="M343.455 190H332.318V178.85H343.455V190Z" fill="white"/>
<path d="M343.455 178.85H332.318V167.7H343.455V178.85Z" fill="white"/>
<path d="M343.455 167.7H332.318V156.55H343.455V167.7Z" fill="white"/>
<path d="M343.455 156.55H332.318V145.4H343.455V156.55Z" fill="white"/>
<path d="M343.455 145.4H332.318V134.25H343.455V145.4Z" fill="white"/>
<path d="M343.455 134.25H332.318V123.1H343.455V134.25Z" fill="white"/>
<path d="M343.455 123.1H332.318V111.95H343.455V123.1Z" fill="white"/>
<path d="M343.455 111.95H332.318V100.8H343.455V111.95Z" fill="white"/>
<path d="M343.455 100.8H332.318V89.65H343.455V100.8Z" fill="white"/>
<path d="M343.455 89.65H332.318V78.5H343.455V89.65Z" fill="white"/>
<path d="M343.455 78.5H332.318V67.35H343.455V78.5Z" fill="white"/>
<path d="M343.455 67.35H332.318V56.2H343.455V67.35Z" fill="white"/>
<path d="M343.455 56.2H332.318V45.05H343.455V56.2Z" fill="white"/>
<path d="M343.455 45.05H332.318V33.9H343.455V45.05Z" fill="white"/>
<path d="M343.455 33.9H332.318V22.75H343.455V33.9Z" fill="white"/>
<path d="M343.455 22.75H332.318V11.6H343.455V22.75Z" fill="white"/>
<path d="M343.455 11.6H332.318V0.449997H343.455V11.6Z" fill="white"/>
<path d="M343.455 0.449997H332.318V-10.7H343.455V0.449997Z" fill="white"/>
<path d="M343.455 -10.7H332.318V-21.85H343.455V-10.7Z" fill="white"/>
<path d="M343.455 -21.85H332.318V-33H343.455V-21.85Z" fill="white"/>
<path d="M332.318 190H321.182V178.85H332.318V190Z" fill="white"/>
<path d="M332.318 178.85H321.182V167.7H332.318V178.85Z" fill="white"/>
<path d="M332.318 167.7H321.182V156.55H332.318V167.7Z" fill="white"/>
<path d="M332.318 156.55H321.182V145.4H332.318V156.55Z" fill="white"/>
<path d="M332.318 145.4H321.182V134.25H332.318V145.4Z" fill="white"/>
<path d="M332.318 134.25H321.182V123.1H332.318V134.25Z" fill="white"/>
<path d="M332.318 123.1H321.182V111.95H332.318V123.1Z" fill="white"/>
<path d="M332.318 111.95H321.182V100.8H332.318V111.95Z" fill="white"/>
<path d="M332.318 100.8H321.182V89.65H332.318V100.8Z" fill="white"/>
<path d="M332.318 89.65H321.182V78.5H332.318V89.65Z" fill="white"/>
<path d="M332.318 78.5H321.182V67.35H332.318V78.5Z" fill="white"/>
<path d="M332.318 67.35H321.182V56.2H332.318V67.35Z" fill="white"/>
<path d="M332.318 56.2H321.182V45.05H332.318V56.2Z" fill="white"/>
<path d="M332.318 45.05H321.182V33.9H332.318V45.05Z" fill="white"/>
<path d="M332.318 33.9H321.182V22.75H332.318V33.9Z" fill="white"/>
<path d="M332.318 22.75H321.182V11.6H332.318V22.75Z" fill="white"/>
<path d="M332.318 11.6H321.182V0.449997H332.318V11.6Z" fill="white"/>
<path d="M332.318 0.449997H321.182V-10.7H332.318V0.449997Z" fill="white"/>
<path d="M332.318 -10.7H321.182V-21.85H332.318V-10.7Z" fill="white"/>
<path d="M332.318 -21.85H321.182V-33H332.318V-21.85Z" fill="white"/>
<path d="M321.182 190H310.045V178.85H321.182V190Z" fill="white"/>
<path d="M321.182 178.85H310.045V167.7H321.182V178.85Z" fill="white"/>
<path d="M321.182 167.7H310.045V156.55H321.182V167.7Z" fill="white"/>
<path d="M321.182 156.55H310.045V145.4H321.182V156.55Z" fill="white"/>
<path d="M321.182 145.4H310.045V134.25H321.182V145.4Z" fill="white"/>
<path d="M321.182 134.25H310.045V123.1H321.182V134.25Z" fill="white"/>
<path d="M321.182 123.1H310.045V111.95H321.182V123.1Z" fill="white"/>
<path d="M321.182 100.8H310.045V89.65H321.182V100.8Z" fill="white"/>
<path d="M321.182 89.65H310.045V78.5H321.182V89.65Z" fill="white"/>
<path d="M321.182 78.5H310.045V67.35H321.182V78.5Z" fill="white"/>
<path d="M321.182 67.35H310.045V56.2H321.182V67.35Z" fill="white"/>
<path d="M321.182 56.2H310.045V45.05H321.182V56.2Z" fill="white"/>
<path d="M321.182 45.05H310.045V33.9H321.182V45.05Z" fill="white"/>
<path d="M321.182 33.9H310.045V22.75H321.182V33.9Z" fill="white"/>
<path d="M321.182 22.75H310.045V11.6H321.182V22.75Z" fill="white"/>
<path d="M321.182 11.6H310.045V0.449997H321.182V11.6Z" fill="white"/>
<path d="M321.182 0.449997H310.045V-10.7H321.182V0.449997Z" fill="white"/>
<path d="M321.182 -10.7H310.045V-21.85H321.182V-10.7Z" fill="white"/>
<path d="M321.182 -21.85H310.045V-33H321.182V-21.85Z" fill="white"/>
<path d="M310.045 190H298.909V178.85H310.045V190Z" fill="white"/>
<path d="M310.045 178.85H298.909V167.7H310.045V178.85Z" fill="white"/>
<path d="M310.045 167.7H298.909V156.55H310.045V167.7Z" fill="white"/>
<path d="M310.045 156.55H298.909V145.4H310.045V156.55Z" fill="white"/>
<path d="M310.045 145.4H298.909V134.25H310.045V145.4Z" fill="white"/>
<path d="M310.045 134.25H298.909V123.1H310.045V134.25Z" fill="white"/>
<path d="M310.045 123.1H298.909V111.95H310.045V123.1Z" fill="white"/>
<path d="M310.045 100.8H298.909V89.65H310.045V100.8Z" fill="white"/>
<path d="M310.045 89.65H298.909V78.5H310.045V89.65Z" fill="white"/>
<path d="M310.045 78.5H298.909V67.35H310.045V78.5Z" fill="white"/>
<path d="M310.045 67.35H298.909V56.2H310.045V67.35Z" fill="white"/>
<path d="M310.045 56.2H298.909V45.05H310.045V56.2Z" fill="white"/>
<path d="M310.045 45.05H298.909V33.9H310.045V45.05Z" fill="white"/>
<path d="M310.045 33.9H298.909V22.75H310.045V33.9Z" fill="white"/>
<path d="M310.045 22.75H298.909V11.6H310.045V22.75Z" fill="white"/>
<path d="M310.045 11.6H298.909V0.449997H310.045V11.6Z" fill="white"/>
<path d="M310.045 0.449997H298.909V-10.7H310.045V0.449997Z" fill="white"/>
<path d="M310.045 -10.7H298.909V-21.85H310.045V-10.7Z" fill="white"/>
<path d="M310.045 -21.85H298.909V-33H310.045V-21.85Z" fill="white"/>
<path d="M298.909 190H287.773V178.85H298.909V190Z" fill="white"/>
<path d="M298.909 178.85H287.773V167.7H298.909V178.85Z" fill="white"/>
<path d="M298.909 167.7H287.773V156.55H298.909V167.7Z" fill="white"/>
<path d="M298.909 156.55H287.773V145.4H298.909V156.55Z" fill="white"/>
<path d="M298.909 145.4H287.773V134.25H298.909V145.4Z" fill="white"/>
<path d="M298.909 134.25H287.773V123.1H298.909V134.25Z" fill="white"/>
<path d="M298.909 123.1H287.773V111.95H298.909V123.1Z" fill="white"/>
<path d="M298.909 111.95H287.773V100.8H298.909V111.95Z" fill="white"/>
<path d="M298.909 100.8H287.773V89.65H298.909V100.8Z" fill="white"/>
<path d="M298.909 89.65H287.773V78.5H298.909V89.65Z" fill="white"/>
<path d="M298.909 78.5H287.773V67.35H298.909V78.5Z" fill="white"/>
<path d="M298.909 67.35H287.773V56.2H298.909V67.35Z" fill="white"/>
<path d="M298.909 56.2H287.773C287.773 56.2 287.773 49.4043 287.773 45.05C292.122 45.05 298.909 45.05 298.909 45.05V56.2Z" fill="white"/>
<path d="M298.909 45.05C298.909 45.05 292.122 45.05 287.773 45.05C287.773 40.6957 287.773 33.9 287.773 33.9H298.909V45.05Z" fill="white"/>
<path d="M298.909 33.9H287.773V22.75H298.909V33.9Z" fill="white"/>
<path d="M298.909 22.75H287.773V11.6H298.909V22.75Z" fill="white"/>
<path d="M298.909 11.6H287.773V0.449997H298.909V11.6Z" fill="white"/>
<path d="M298.909 0.449997H287.773V-10.7H298.909V0.449997Z" fill="white"/>
<path d="M298.909 -10.7H287.773V-21.85H298.909V-10.7Z" fill="white"/>
<path d="M298.909 -21.85H287.773V-33H298.909V-21.85Z" fill="white"/>
<path d="M287.773 190H276.636V178.85H287.773V190Z" fill="white"/>
<path d="M287.773 178.85H276.636V167.7H287.773V178.85Z" fill="white"/>
<path d="M287.773 167.7H276.636V156.55H287.773V167.7Z" fill="white"/>
<path d="M287.773 156.55H276.636V145.4H287.773V156.55Z" fill="white"/>
<path d="M287.773 145.4H276.636V134.25H287.773V145.4Z" fill="white"/>
<path d="M287.773 134.25H276.636V123.1H287.773V134.25Z" fill="white"/>
<path d="M287.773 123.1H276.636V111.95H287.773V123.1Z" fill="white"/>
<path d="M287.773 111.95H276.636V100.8H287.773V111.95Z" fill="white"/>
<path d="M287.773 100.8H276.636V89.65H287.773V100.8Z" fill="white"/>
<path d="M287.773 89.65H276.636V78.5H287.773V89.65Z" fill="white"/>
<path d="M287.773 78.5H276.636V67.35H287.773V78.5Z" fill="white"/>
<path d="M287.773 67.35H276.636V56.2H287.773V67.35Z" fill="white"/>
<path d="M287.773 56.2H276.636V45.05C276.636 45.05 283.424 45.05 287.773 45.05C287.773 49.4043 287.773 56.2 287.773 56.2Z" fill="white"/>
<path d="M287.773 45.05C283.424 45.05 276.636 45.05 276.636 45.05V33.9H287.773C287.773 33.9 287.773 40.6957 287.773 45.05Z" fill="white"/>
<path d="M287.773 33.9H276.636V22.75H287.773V33.9Z" fill="white"/>
<path d="M287.773 22.75H276.636V11.6H287.773V22.75Z" fill="white"/>
<path d="M287.773 11.6H276.636V0.449997H287.773V11.6Z" fill="white"/>
<path d="M287.773 0.449997H276.636V-10.7H287.773V0.449997Z" fill="white"/>
<path d="M287.773 -10.7H276.636V-21.85H287.773V-10.7Z" fill="white"/>
<path d="M287.773 -21.85H276.636V-33H287.773V-21.85Z" fill="white"/>
<path d="M276.636 190H265.5V178.85H276.636V190Z" fill="white"/>
<path d="M276.636 178.85H265.5V167.7H276.636V178.85Z" fill="white"/>
<path d="M276.636 167.7H265.5V156.55H276.636V167.7Z" fill="white"/>
<path d="M276.636 156.55H265.5V145.4H276.636V156.55Z" fill="white"/>
<path d="M276.636 145.4H265.5V134.25H276.636V145.4Z" fill="white"/>
<path d="M276.636 134.25H265.5V123.1H276.636V134.25Z" fill="white"/>
<path d="M276.636 123.1H265.5V111.95H276.636V123.1Z" fill="white"/>
<path d="M276.636 111.95H265.5V100.8H276.636V111.95Z" fill="white"/>
<path d="M276.636 100.8H265.5V89.65H276.636V100.8Z" fill="white"/>
<path d="M276.636 89.65H265.5V78.5H276.636V89.65Z" fill="white"/>
<path d="M276.636 78.5H265.5V67.35H276.636V78.5Z" fill="white"/>
<path d="M276.636 67.35H265.5V56.2H276.636V67.35Z" fill="white"/>
<path d="M276.636 56.2H265.5V45.05H276.636V56.2Z" fill="white"/>
<path d="M276.636 45.05H265.5V33.9H276.636V45.05Z" fill="white"/>
<path d="M276.636 33.9H265.5V22.75H276.636V33.9Z" fill="white"/>
<path d="M276.636 22.75H265.5V11.6H276.636V22.75Z" fill="white"/>
<path d="M276.636 11.6H265.5V0.449997H276.636V11.6Z" fill="white"/>
<path d="M276.636 0.449997H265.5V-10.7H276.636V0.449997Z" fill="white"/>
<path d="M276.636 -10.7H265.5V-21.85H276.636V-10.7Z" fill="white"/>
<path d="M276.636 -21.85H265.5V-33H276.636V-21.85Z" fill="white"/>
<path d="M265.5 190H254.364V178.85H265.5V190Z" fill="white"/>
<path d="M265.5 178.85H254.364V167.7H265.5V178.85Z" fill="white"/>
<path d="M265.5 167.7H254.364V156.55H265.5V167.7Z" fill="white"/>
<path d="M265.5 123.1H254.364V111.95H265.5V123.1Z" fill="white"/>
<path d="M265.5 111.95H254.364V100.8H265.5V111.95Z" fill="white"/>
<path d="M265.5 100.8H254.364V89.65H265.5V100.8Z" fill="white"/>
<path d="M265.5 89.65H254.364V78.5H265.5V89.65Z" fill="white"/>
<path d="M265.5 78.5H254.364V67.35H265.5V78.5Z" fill="white"/>
<path d="M265.5 67.35H254.364V56.2H265.5V67.35Z" fill="white"/>
<path d="M265.5 56.2H254.364V45.05H265.5V56.2Z" fill="white"/>
<path d="M265.5 45.05H254.364V33.9H265.5V45.05Z" fill="white"/>
<path d="M265.5 33.9H254.364V22.75H265.5V33.9Z" fill="white"/>
<path d="M265.5 22.75H254.364V11.6H265.5V22.75Z" fill="white"/>
<path d="M265.5 11.6H254.364V0.449997H265.5V11.6Z" fill="white"/>
<path d="M265.5 0.449997H254.364V-10.7H265.5V0.449997Z" fill="white"/>
<path d="M265.5 -10.7H254.364V-21.85H265.5V-10.7Z" fill="white"/>
<path d="M265.5 -21.85H254.364V-33H265.5V-21.85Z" fill="white"/>
<path d="M254.364 190H243.227V178.85H254.364V190Z" fill="white"/>
<path d="M254.364 178.85H243.227V167.7H254.364V178.85Z" fill="white"/>
<path d="M254.364 167.7H243.227V156.55H254.364V167.7Z" fill="white"/>
<path d="M254.364 123.1H243.227V111.95H254.364V123.1Z" fill="white"/>
<path d="M254.364 111.95H243.227V100.8H254.364V111.95Z" fill="white"/>
<path d="M254.364 100.8H243.227V89.65H254.364V100.8Z" fill="white"/>
<path d="M254.364 89.65H243.227V78.5H254.364V89.65Z" fill="white"/>
<path d="M254.364 78.5H243.227V67.35H254.364V78.5Z" fill="white"/>
<path d="M254.364 67.35H243.227V56.2H254.364V67.35Z" fill="white"/>
<path d="M254.364 56.2H243.227V45.05H254.364V56.2Z" fill="white"/>
<path d="M254.364 45.05H243.227V33.9H254.364V45.05Z" fill="white"/>
<path d="M254.364 33.9H243.227V22.75H254.364V33.9Z" fill="white"/>
<path d="M254.364 22.75H243.227V11.6H254.364V22.75Z" fill="white"/>
<path d="M254.364 11.6H243.227V0.449997H254.364V11.6Z" fill="white"/>
<path d="M254.364 0.449997H243.227V-10.7H254.364V0.449997Z" fill="white"/>
<path d="M254.364 -10.7H243.227V-21.85H254.364V-10.7Z" fill="white"/>
<path d="M254.364 -21.85H243.227V-33H254.364V-21.85Z" fill="white"/>
<path d="M243.227 190H232.091V178.85H243.227V190Z" fill="white"/>
<path d="M243.227 178.85H232.091V167.7H243.227V178.85Z" fill="white"/>
<path d="M243.227 167.7H232.091V156.55H243.227V167.7Z" fill="white"/>
<path d="M243.227 123.1H232.091V111.95H243.227V123.1Z" fill="white"/>
<path d="M243.227 111.95H232.091V100.8H243.227V111.95Z" fill="white"/>
<path d="M243.227 100.8H232.091V89.65H243.227V100.8Z" fill="white"/>
<path d="M243.227 89.65H232.091V78.5H243.227V89.65Z" fill="white"/>
<path d="M243.227 78.5H232.091V67.35H243.227V78.5Z" fill="white"/>
<path d="M243.227 67.35H232.091V56.2H243.227V67.35Z" fill="white"/>
<path d="M243.227 56.2H232.091V45.05H243.227V56.2Z" fill="white"/>
<path d="M243.227 45.05H232.091V33.9H243.227V45.05Z" fill="white"/>
<path d="M243.227 33.9H232.091V22.75H243.227V33.9Z" fill="white"/>
<path d="M243.227 22.75H232.091V11.6H243.227V22.75Z" fill="white"/>
<path d="M243.227 11.6H232.091V0.449997H243.227V11.6Z" fill="white"/>
<path d="M243.227 0.449997H232.091V-10.7H243.227V0.449997Z" fill="white"/>
<path d="M243.227 -10.7H232.091V-21.85H243.227V-10.7Z" fill="white"/>
<path d="M243.227 -21.85H232.091V-33H243.227V-21.85Z" fill="white"/>
<path d="M232.091 190H220.955V178.85H232.091V190Z" fill="white"/>
<path d="M232.091 178.85H220.955V167.7H232.091V178.85Z" fill="white"/>
<path d="M232.091 167.7H220.955V156.55H232.091V167.7Z" fill="white"/>
<path d="M232.091 100.8H220.955V89.65H232.091V100.8Z" fill="white"/>
<path d="M232.091 89.65H220.955V78.5H232.091V89.65Z" fill="white"/>
<path d="M232.091 78.5H220.955V67.35H232.091V78.5Z" fill="white"/>
<path d="M232.091 67.35H220.955V56.2H232.091V67.35Z" fill="white"/>
<path d="M232.091 56.2H220.955V45.05H232.091V56.2Z" fill="white"/>
<path d="M232.091 45.05H220.955V33.9H232.091V45.05Z" fill="white"/>
<path d="M232.091 33.9H220.955V22.75H232.091V33.9Z" fill="white"/>
<path d="M232.091 22.75H220.955V11.6H232.091V22.75Z" fill="white"/>
<path d="M232.091 11.6H220.955V0.449997H232.091V11.6Z" fill="white"/>
<path d="M232.091 0.449997H220.955V-10.7H232.091V0.449997Z" fill="white"/>
<path d="M232.091 -10.7H220.955V-21.85H232.091V-10.7Z" fill="white"/>
<path d="M232.091 -21.85H220.955V-33H232.091V-21.85Z" fill="white"/>
<path d="M220.955 190H209.818V178.85H220.955V190Z" fill="white"/>
<path d="M220.955 178.85H209.818V167.7H220.955V178.85Z" fill="white"/>
<path d="M220.955 167.7H209.818V156.55H220.955V167.7Z" fill="white"/>
<path d="M220.955 100.8H209.818V89.65H220.955V100.8Z" fill="white"/>
<path d="M220.955 89.65H209.818V78.5H220.955V89.65Z" fill="white"/>
<path d="M220.955 78.5H209.818V67.35H220.955V78.5Z" fill="white"/>
<path d="M220.955 67.35H209.818V56.2H220.955V67.35Z" fill="white"/>
<path d="M220.955 56.2H209.818V45.05H220.955V56.2Z" fill="white"/>
<path d="M220.955 45.05H209.818V33.9H220.955V45.05Z" fill="white"/>
<path d="M220.955 33.9H209.818V22.75H220.955V33.9Z" fill="white"/>
<path d="M220.955 22.75H209.818V11.6H220.955V22.75Z" fill="white"/>
<path d="M220.955 11.6H209.818V0.449997H220.955V11.6Z" fill="white"/>
<path d="M220.955 0.449997H209.818V-10.7H220.955V0.449997Z" fill="white"/>
<path d="M220.955 -10.7H209.818V-21.85H220.955V-10.7Z" fill="white"/>
<path d="M220.955 -21.85H209.818V-33H220.955V-21.85Z" fill="white"/>
<path d="M209.818 190H198.682V178.85H209.818V190Z" fill="white"/>
<path d="M209.818 178.85H198.682V167.7H209.818V178.85Z" fill="white"/>
<path d="M209.818 167.7H198.682V156.55H209.818V167.7Z" fill="white"/>
<path d="M209.818 100.8H198.682V89.65H209.818V100.8Z" fill="white"/>
<path d="M209.818 89.65H198.682V78.5H209.818V89.65Z" fill="white"/>
<path d="M209.818 78.5H198.682V67.35H209.818V78.5Z" fill="white"/>
<path d="M209.818 67.35H198.682V56.2H209.818V67.35Z" fill="white"/>
<path d="M209.818 56.2H198.682V45.05H209.818V56.2Z" fill="white"/>
<path d="M209.818 45.05H198.682V33.9H209.818V45.05Z" fill="white"/>
<path d="M209.818 33.9H198.682V22.75H209.818V33.9Z" fill="white"/>
<path d="M209.818 22.75H198.682V11.6H209.818V22.75Z" fill="white"/>
<path d="M209.818 11.6H198.682V0.449997H209.818V11.6Z" fill="white"/>
<path d="M209.818 0.449997H198.682V-10.7H209.818V0.449997Z" fill="white"/>
<path d="M209.818 -10.7H198.682V-21.85H209.818V-10.7Z" fill="white"/>
<path d="M209.818 -21.85H198.682V-33H209.818V-21.85Z" fill="white"/>
<path d="M198.682 190H187.545V178.85H198.682V190Z" fill="white"/>
<path d="M198.682 178.85H187.545V167.7H198.682V178.85Z" fill="white"/>
<path d="M198.682 167.7H187.545V156.55H198.682V167.7Z" fill="white"/>
<path d="M198.682 100.8H187.545V89.65H198.682V100.8Z" fill="white"/>
<path d="M198.682 89.65H187.545V78.5H198.682V89.65Z" fill="white"/>
<path d="M198.682 78.5H187.545V67.35H198.682V78.5Z" fill="white"/>
<path d="M198.682 67.35H187.545V56.2H198.682V67.35Z" fill="white"/>
<path d="M198.682 56.2H187.545V45.05H198.682V56.2Z" fill="white"/>
<path d="M198.682 45.05H187.545V33.9H198.682V45.05Z" fill="white"/>
<path d="M198.682 33.9H187.545V22.75H198.682V33.9Z" fill="white"/>
<path d="M198.682 22.75H187.545V11.6H198.682V22.75Z" fill="white"/>
<path d="M198.682 11.6H187.545V0.449997H198.682V11.6Z" fill="white"/>
<path d="M198.682 0.449997H187.545V-10.7H198.682V0.449997Z" fill="white"/>
<path d="M198.682 -10.7H187.545V-21.85H198.682V-10.7Z" fill="white"/>
<path d="M198.682 -21.85H187.545V-33H198.682V-21.85Z" fill="white"/>
<path d="M187.545 190H176.409V178.85H187.545V190Z" fill="white"/>
<path d="M187.545 178.85H176.409V167.7H187.545V178.85Z" fill="white"/>
<path d="M187.545 167.7H176.409V156.55H187.545V167.7Z" fill="white"/>
<path d="M187.545 100.8H176.409V89.65H187.545V100.8Z" fill="white"/>
<path d="M187.545 89.65H176.409V78.5H187.545V89.65Z" fill="white"/>
<path d="M187.545 78.5H176.409V67.35H187.545V78.5Z" fill="white"/>
<path d="M187.545 67.35H176.409V56.2H187.545V67.35Z" fill="white"/>
<path d="M187.545 56.2H176.409V45.05H187.545V56.2Z" fill="white"/>
<path d="M187.545 45.05H176.409V33.9H187.545V45.05Z" fill="white"/>
<path d="M187.545 33.9H176.409V22.75H187.545V33.9Z" fill="white"/>
<path d="M187.545 22.75H176.409V11.6H187.545V22.75Z" fill="white"/>
<path d="M187.545 11.6H176.409V0.449997H187.545V11.6Z" fill="white"/>
<path d="M187.545 0.449997H176.409V-10.7H187.545V0.449997Z" fill="white"/>
<path d="M187.545 -10.7H176.409V-21.85H187.545V-10.7Z" fill="white"/>
<path d="M187.545 -21.85H176.409V-33H187.545V-21.85Z" fill="white"/>
<path d="M176.409 190H165.273V178.85H176.409V190Z" fill="white"/>
<path d="M176.409 178.85H165.273V167.7H176.409V178.85Z" fill="white"/>
<path d="M176.409 167.7H165.273V156.55H176.409V167.7Z" fill="white"/>
<path d="M176.409 100.8H165.273V89.65H176.409V100.8Z" fill="white"/>
<path d="M176.409 89.65H165.273V78.5H176.409V89.65Z" fill="white"/>
<path d="M176.409 78.5H165.273V67.35H176.409V78.5Z" fill="white"/>
<path d="M176.409 67.35H165.273V56.2H176.409V67.35Z" fill="white"/>
<path d="M176.409 56.2H165.273V45.05H176.409V56.2Z" fill="white"/>
<path d="M176.409 45.05H165.273V33.9H176.409V45.05Z" fill="white"/>
<path d="M176.409 33.9H165.273V22.75H176.409V33.9Z" fill="white"/>
<path d="M176.409 22.75H165.273V11.6H176.409V22.75Z" fill="white"/>
<path d="M176.409 11.6H165.273V0.449997H176.409V11.6Z" fill="white"/>
<path d="M176.409 0.449997H165.273V-10.7H176.409V0.449997Z" fill="white"/>
<path d="M176.409 -10.7H165.273V-21.85H176.409V-10.7Z" fill="white"/>
<path d="M176.409 -21.85H165.273V-33H176.409V-21.85Z" fill="white"/>
<path d="M165.273 190H154.136V178.85H165.273V190Z" fill="white"/>
<path d="M165.273 167.7H154.136V156.55H165.273V167.7Z" fill="white"/>
<path d="M165.273 100.8H154.136V89.65H165.273V100.8Z" fill="white"/>
<path d="M165.273 89.65H154.136V78.5H165.273V89.65Z" fill="white"/>
<path d="M165.273 78.5H154.136V67.35H165.273V78.5Z" fill="white"/>
<path d="M165.273 67.35H154.136V56.2H165.273V67.35Z" fill="white"/>
<path d="M165.273 56.2H154.136V45.05H165.273V56.2Z" fill="white"/>
<path d="M165.273 45.05H154.136V33.9H165.273V45.05Z" fill="white"/>
<path d="M165.273 33.9H154.136V22.75H165.273V33.9Z" fill="white"/>
<path d="M165.273 22.75H154.136V11.6H165.273V22.75Z" fill="white"/>
<path d="M165.273 11.6H154.136V0.449997H165.273V11.6Z" fill="white"/>
<path d="M165.273 0.449997H154.136V-10.7H165.273V0.449997Z" fill="white"/>
<path d="M165.273 -10.7H154.136V-21.85H165.273V-10.7Z" fill="white"/>
<path d="M165.273 -21.85H154.136V-33H165.273V-21.85Z" fill="white"/>
<path d="M154.136 190H143V178.85H154.136V190Z" fill="white"/>
<path d="M154.136 167.7H143V156.55H154.136V167.7Z" fill="white"/>
<path d="M154.136 100.8H143V89.65H154.136V100.8Z" fill="white"/>
<path d="M154.136 89.65H143V78.5H154.136V89.65Z" fill="white"/>
<path d="M154.136 78.5H143V67.35H154.136V78.5Z" fill="white"/>
<path d="M154.136 67.35H143V56.2H154.136V67.35Z" fill="white"/>
<path d="M154.136 56.2H143V45.05H154.136V56.2Z" fill="white"/>
<path d="M154.136 45.05H143V33.9H154.136V45.05Z" fill="white"/>
<path d="M154.136 33.9H143V22.75H154.136V33.9Z" fill="white"/>
<path d="M154.136 22.75H143V11.6H154.136V22.75Z" fill="white"/>
<path d="M154.136 11.6H143V0.449997H154.136V11.6Z" fill="white"/>
<path d="M154.136 0.449997H143V-10.7H154.136V0.449997Z" fill="white"/>
<path d="M154.136 -10.7H143V-21.85H154.136V-10.7Z" fill="white"/>
<path d="M154.136 -21.85H143V-33H154.136V-21.85Z" fill="white"/>
<path d="M143 190H131.864V178.85H143V190Z" fill="white"/>
<path d="M143 167.7H131.864V156.55H143V167.7Z" fill="white"/>
<path d="M143 100.8H131.864V89.65H143V100.8Z" fill="white"/>
<path d="M143 89.65H131.864V78.5H143V89.65Z" fill="white"/>
<path d="M143 78.5H131.864V67.35H143V78.5Z" fill="white"/>
<path d="M143 67.35H131.864V56.2H143V67.35Z" fill="white"/>
<path d="M143 56.2H131.864V45.05H143V56.2Z" fill="white"/>
<path d="M143 45.05H131.864V33.9H143V45.05Z" fill="white"/>
<path d="M143 33.9H131.864V22.75H143V33.9Z" fill="white"/>
<path d="M143 22.75H131.864V11.6H143V22.75Z" fill="white"/>
<path d="M143 11.6H131.864V0.449997H143V11.6Z" fill="white"/>
<path d="M143 0.449997H131.864V-10.7H143V0.449997Z" fill="white"/>
<path d="M143 -10.7H131.864V-21.85H143V-10.7Z" fill="white"/>
<path d="M143 -21.85H131.864V-33H143V-21.85Z" fill="white"/>
<path d="M131.864 190H120.727V178.85H131.864V190Z" fill="white"/>
<path d="M131.864 167.7H120.727V156.55H131.864V167.7Z" fill="white"/>
<path d="M131.864 100.8H120.727V89.65H131.864V100.8Z" fill="white"/>
<path d="M131.864 89.65H120.727V78.5H131.864V89.65Z" fill="white"/>
<path d="M131.864 78.5H120.727V67.35H131.864V78.5Z" fill="white"/>
<path d="M131.864 67.35H120.727V56.2H131.864V67.35Z" fill="white"/>
<path d="M131.864 56.2H120.727V45.05H131.864V56.2Z" fill="white"/>
<path d="M131.864 45.05H120.727V33.9H131.864V45.05Z" fill="white"/>
<path d="M131.864 33.9H120.727V22.75H131.864V33.9Z" fill="white"/>
<path d="M131.864 22.75H120.727V11.6H131.864V22.75Z" fill="white"/>
<path d="M131.864 11.6H120.727V0.449997H131.864V11.6Z" fill="white"/>
<path d="M131.864 0.449997H120.727V-10.7H131.864V0.449997Z" fill="white"/>
<path d="M131.864 -10.7H120.727V-21.85H131.864V-10.7Z" fill="white"/>
<path d="M131.864 -21.85H120.727V-33H131.864V-21.85Z" fill="white"/>
<path d="M120.727 190H109.591V178.85H120.727V190Z" fill="white"/>
<path d="M120.727 167.7H109.591V156.55H120.727V167.7Z" fill="white"/>
<path d="M120.727 100.8H109.591V89.65H120.727V100.8Z" fill="white"/>
<path d="M120.727 89.65H109.591V78.5H120.727V89.65Z" fill="white"/>
<path d="M120.727 78.5H109.591V67.35H120.727V78.5Z" fill="white"/>
<path d="M120.727 67.35H109.591V56.2H120.727V67.35Z" fill="white"/>
<path d="M120.727 56.2H109.591V45.05H120.727V56.2Z" fill="white"/>
<path d="M120.727 45.05H109.591V33.9H120.727V45.05Z" fill="white"/>
<path d="M120.727 33.9H109.591V22.75H120.727V33.9Z" fill="white"/>
<path d="M120.727 22.75H109.591V11.6H120.727V22.75Z" fill="white"/>
<path d="M120.727 11.6H109.591V0.449997H120.727V11.6Z" fill="white"/>
<path d="M120.727 0.449997H109.591V-10.7H120.727V0.449997Z" fill="white"/>
<path d="M120.727 -10.7H109.591V-21.85H120.727V-10.7Z" fill="white"/>
<path d="M120.727 -21.85H109.591V-33H120.727V-21.85Z" fill="white"/>
<path d="M109.591 190H98.4545V178.85H109.591V190Z" fill="white"/>
<path d="M109.591 178.85H98.4545V167.7H109.591V178.85Z" fill="white"/>
<path d="M109.591 167.7H98.4545V156.55H109.591V167.7Z" fill="white"/>
<path d="M109.591 100.8H98.4545V89.65H109.591V100.8Z" fill="white"/>
<path d="M109.591 89.65H98.4545V78.5H109.591V89.65Z" fill="white"/>
<path d="M109.591 78.5H98.4545V67.35H109.591V78.5Z" fill="white"/>
<path d="M109.591 67.35H98.4545V56.2H109.591V67.35Z" fill="white"/>
<path d="M109.591 56.2H98.4545V45.05H109.591V56.2Z" fill="white"/>
<path d="M109.591 45.05H98.4545V33.9H109.591V45.05Z" fill="white"/>
<path d="M109.591 33.9H98.4545V22.75H109.591V33.9Z" fill="white"/>
<path d="M109.591 22.75H98.4545V11.6H109.591V22.75Z" fill="white"/>
<path d="M109.591 11.6H98.4545V0.449997H109.591V11.6Z" fill="white"/>
<path d="M109.591 0.449997H98.4545V-10.7H109.591V0.449997Z" fill="white"/>
<path d="M109.591 -10.7H98.4545V-21.85H109.591V-10.7Z" fill="white"/>
<path d="M109.591 -21.85H98.4545V-33H109.591V-21.85Z" fill="white"/>
<path d="M98.4545 190H87.3182V178.85H98.4545V190Z" fill="white"/>
<path d="M98.4545 178.85H87.3182V167.7H98.4545V178.85Z" fill="white"/>
<path d="M98.4545 167.7H87.3182V156.55H98.4545V167.7Z" fill="white"/>
<path d="M98.4545 100.8H87.3182V89.65H98.4545V100.8Z" fill="white"/>
<path d="M98.4545 89.65H87.3182V78.5H98.4545V89.65Z" fill="white"/>
<path d="M98.4545 78.5H87.3182V67.35H98.4545V78.5Z" fill="white"/>
<path d="M98.4545 67.35H87.3182V56.2H98.4545V67.35Z" fill="white"/>
<path d="M98.4545 56.2H87.3182V45.05H98.4545V56.2Z" fill="white"/>
<path d="M98.4545 45.05H87.3182V33.9H98.4545V45.05Z" fill="white"/>
<path d="M98.4545 33.9H87.3182V22.75H98.4545V33.9Z" fill="white"/>
<path d="M98.4545 22.75H87.3182V11.6H98.4545V22.75Z" fill="white"/>
<path d="M98.4545 11.6H87.3182V0.449997H98.4545V11.6Z" fill="white"/>
<path d="M98.4545 0.449997H87.3182V-10.7H98.4545V0.449997Z" fill="white"/>
<path d="M98.4545 -10.7H87.3182V-21.85H98.4545V-10.7Z" fill="white"/>
<path d="M98.4545 -21.85H87.3182V-33H98.4545V-21.85Z" fill="white"/>
<path d="M87.3182 190H76.1818V178.85H87.3182V190Z" fill="white"/>
<path d="M87.3182 178.85H76.1818V167.7H87.3182V178.85Z" fill="white"/>
<path d="M87.3182 167.7H76.1818V156.55H87.3182V167.7Z" fill="white"/>
<path d="M87.3182 100.8H76.1818V89.65H87.3182V100.8Z" fill="white"/>
<path d="M87.3182 89.65H76.1818V78.5H87.3182V89.65Z" fill="white"/>
<path d="M87.3182 78.5H76.1818V67.35H87.3182V78.5Z" fill="white"/>
<path d="M87.3182 67.35H76.1818V56.2H87.3182V67.35Z" fill="white"/>
<path d="M87.3182 56.2H76.1818V45.05H87.3182V56.2Z" fill="white"/>
<path d="M87.3182 45.05H76.1818V33.9H87.3182V45.05Z" fill="white"/>
<path d="M87.3182 33.9H76.1818V22.75H87.3182V33.9Z" fill="white"/>
<path d="M87.3182 22.75H76.1818V11.6H87.3182V22.75Z" fill="white"/>
<path d="M87.3182 11.6H76.1818V0.449997H87.3182V11.6Z" fill="white"/>
<path d="M87.3182 0.449997H76.1818V-10.7H87.3182V0.449997Z" fill="white"/>
<path d="M87.3182 -10.7H76.1818V-21.85H87.3182V-10.7Z" fill="white"/>
<path d="M87.3182 -21.85H76.1818V-33H87.3182V-21.85Z" fill="white"/>
<path d="M76.1818 190H65.0454V178.85H76.1818V190Z" fill="white"/>
<path d="M76.1818 178.85H65.0454V167.7H76.1818V178.85Z" fill="white"/>
<path d="M76.1818 167.7H65.0454V156.55H76.1818V167.7Z" fill="white"/>
<path d="M76.1818 100.8H65.0454V89.65H76.1818V100.8Z" fill="white"/>
<path d="M76.1818 89.65H65.0454V78.5H76.1818V89.65Z" fill="white"/>
<path d="M76.1818 78.5H65.0454V67.35H76.1818V78.5Z" fill="white"/>
<path d="M76.1818 67.35H65.0454V56.2H76.1818V67.35Z" fill="white"/>
<path d="M76.1818 56.2H65.0454V45.05H76.1818V56.2Z" fill="white"/>
<path d="M76.1818 45.05H65.0454V33.9H76.1818V45.05Z" fill="white"/>
<path d="M76.1818 33.9H65.0454V22.75H76.1818V33.9Z" fill="white"/>
<path d="M76.1818 22.75H65.0454V11.6H76.1818V22.75Z" fill="white"/>
<path d="M76.1818 11.6H65.0454V0.449997H76.1818V11.6Z" fill="white"/>
<path d="M76.1818 0.449997H65.0454V-10.7H76.1818V0.449997Z" fill="white"/>
<path d="M76.1818 -10.7H65.0454V-21.85H76.1818V-10.7Z" fill="white"/>
<path d="M76.1818 -21.85H65.0454V-33H76.1818V-21.85Z" fill="white"/>
<path d="M65.0454 190H53.9091V178.85H65.0454V190Z" fill="white"/>
<path d="M65.0454 178.85H53.9091V167.7H65.0454V178.85Z" fill="white"/>
<path d="M65.0454 167.7H53.9091V156.55H65.0454V167.7Z" fill="white"/>
<path d="M65.0454 100.8H53.9091V89.65H65.0454V100.8Z" fill="white"/>
<path d="M65.0454 89.65H53.9091V78.5H65.0454V89.65Z" fill="white"/>
<path d="M65.0454 78.5H53.9091V67.35H65.0454V78.5Z" fill="white"/>
<path d="M65.0454 67.35H53.9091V56.2H65.0454V67.35Z" fill="white"/>
<path d="M65.0454 56.2H53.9091V45.05H65.0454V56.2Z" fill="white"/>
<path d="M65.0454 45.05H53.9091V33.9H65.0454V45.05Z" fill="white"/>
<path d="M65.0454 33.9H53.9091V22.75H65.0454V33.9Z" fill="white"/>
<path d="M65.0454 22.75H53.9091V11.6H65.0454V22.75Z" fill="white"/>
<path d="M65.0454 11.6H53.9091V0.449997H65.0454V11.6Z" fill="white"/>
<path d="M65.0454 0.449997H53.9091V-10.7H65.0454V0.449997Z" fill="white"/>
<path d="M65.0454 -10.7H53.9091V-21.85H65.0454V-10.7Z" fill="white"/>
<path d="M65.0454 -21.85H53.9091V-33H65.0454V-21.85Z" fill="white"/>
<path d="M53.9091 190H42.7727V178.85H53.9091V190Z" fill="white"/>
<path d="M53.9091 178.85H42.7727V167.7H53.9091V178.85Z" fill="white"/>
<path d="M53.9091 167.7H42.7727V156.55H53.9091V167.7Z" fill="white"/>
<path d="M53.9091 123.1H42.7727V111.95H53.9091V123.1Z" fill="white"/>
<path d="M53.9091 111.95H42.7727V100.8H53.9091V111.95Z" fill="white"/>
<path d="M53.9091 100.8H42.7727V89.65H53.9091V100.8Z" fill="white"/>
<path d="M53.9091 89.65H42.7727V78.5H53.9091V89.65Z" fill="white"/>
<path d="M53.9091 78.5H42.7727V67.35H53.9091V78.5Z" fill="white"/>
<path d="M53.9091 67.35H42.7727V56.2H53.9091V67.35Z" fill="white"/>
<path d="M53.9091 56.2H42.7727V45.05H53.9091V56.2Z" fill="white"/>
<path d="M53.9091 45.05H42.7727V33.9H53.9091V45.05Z" fill="white"/>
<path d="M53.9091 33.9H42.7727V22.75H53.9091V33.9Z" fill="white"/>
<path d="M53.9091 22.75H42.7727V11.6H53.9091V22.75Z" fill="white"/>
<path d="M53.9091 11.6H42.7727V0.449997H53.9091V11.6Z" fill="white"/>
<path d="M53.9091 0.449997H42.7727V-10.7H53.9091V0.449997Z" fill="white"/>
<path d="M53.9091 -10.7H42.7727V-21.85H53.9091V-10.7Z" fill="white"/>
<path d="M53.9091 -21.85H42.7727V-33H53.9091V-21.85Z" fill="white"/>
<path d="M42.7727 190H31.6364V178.85H42.7727V190Z" fill="white"/>
<path d="M42.7727 178.85H31.6364V167.7H42.7727V178.85Z" fill="white"/>
<path d="M42.7727 167.7H31.6364V156.55H42.7727V167.7Z" fill="white"/>
<path d="M42.7727 123.1H31.6364V111.95H42.7727V123.1Z" fill="white"/>
<path d="M42.7727 111.95H31.6364V100.8H42.7727V111.95Z" fill="white"/>
<path d="M42.7727 100.8H31.6364V89.65H42.7727V100.8Z" fill="white"/>
<path d="M42.7727 89.65H31.6364V78.5H42.7727V89.65Z" fill="white"/>
<path d="M42.7727 78.5H31.6364V67.35H42.7727V78.5Z" fill="white"/>
<path d="M42.7727 67.35H31.6364V56.2H42.7727V67.35Z" fill="white"/>
<path d="M42.7727 56.2H31.6364V45.05H42.7727V56.2Z" fill="white"/>
<path d="M42.7727 45.05H31.6364V33.9H42.7727V45.05Z" fill="white"/>
<path d="M42.7727 33.9H31.6364V22.75H42.7727V33.9Z" fill="white"/>
<path d="M42.7727 22.75H31.6364V11.6H42.7727V22.75Z" fill="white"/>
<path d="M42.7727 11.6H31.6364V0.449997H42.7727V11.6Z" fill="white"/>
<path d="M42.7727 0.449997H31.6364V-10.7H42.7727V0.449997Z" fill="white"/>
<path d="M42.7727 -10.7H31.6364V-21.85H42.7727V-10.7Z" fill="white"/>
<path d="M42.7727 -21.85H31.6364V-33H42.7727V-21.85Z" fill="white"/>
<path d="M31.6364 190H20.5V178.85H31.6364V190Z" fill="white"/>
<path d="M31.6364 178.85H20.5V167.7H31.6364V178.85Z" fill="white"/>
<path d="M31.6364 167.7H20.5V156.55H31.6364V167.7Z" fill="white"/>
<path d="M31.6364 123.1H20.5V111.95H31.6364V123.1Z" fill="white"/>
<path d="M31.6364 111.95H20.5V100.8H31.6364V111.95Z" fill="white"/>
<path d="M31.6364 100.8H20.5V89.65H31.6364V100.8Z" fill="white"/>
<path d="M31.6364 89.65H20.5V78.5H31.6364V89.65Z" fill="white"/>
<path d="M31.6364 78.5H20.5V67.35H31.6364V78.5Z" fill="white"/>
<path d="M31.6364 67.35H20.5V56.2H31.6364V67.35Z" fill="white"/>
<path d="M31.6364 56.2H20.5V45.05H31.6364V56.2Z" fill="white"/>
<path d="M31.6364 45.05H20.5V33.9H31.6364V45.05Z" fill="white"/>
<path d="M31.6364 33.9H20.5V22.75H31.6364V33.9Z" fill="white"/>
<path d="M31.6364 22.75H20.5V11.6H31.6364V22.75Z" fill="white"/>
<path d="M31.6364 11.6H20.5V0.449997H31.6364V11.6Z" fill="white"/>
<path d="M31.6364 0.449997H20.5V-10.7H31.6364V0.449997Z" fill="white"/>
<path d="M31.6364 -10.7H20.5V-21.85H31.6364V-10.7Z" fill="white"/>
<path d="M31.6364 -21.85H20.5V-33H31.6364V-21.85Z" fill="white"/>
<path d="M20.5 190H9.36365V178.85H20.5V190Z" fill="white"/>
<path d="M20.5 178.85H9.36365V167.7H20.5V178.85Z" fill="white"/>
<path d="M20.5 167.7H9.36365V156.55H20.5V167.7Z" fill="white"/>
<path d="M20.5 156.55H9.36365V145.4H20.5V156.55Z" fill="white"/>
<path d="M20.5 145.4H9.36365V134.25H20.5V145.4Z" fill="white"/>
<path d="M20.5 134.25H9.36365V123.1H20.5V134.25Z" fill="white"/>
<path d="M20.5 123.1H9.36365V111.95H20.5V123.1Z" fill="white"/>
<path d="M20.5 111.95H9.36365V100.8H20.5V111.95Z" fill="white"/>
<path d="M20.5 100.8H9.36365V89.65H20.5V100.8Z" fill="white"/>
<path d="M20.5 89.65H9.36365V78.5H20.5V89.65Z" fill="white"/>
<path d="M20.5 78.5H9.36365V67.35H20.5V78.5Z" fill="white"/>
<path d="M20.5 67.35H9.36365V56.2H20.5V67.35Z" fill="white"/>
<path d="M20.5 56.2H9.36365V45.05H20.5V56.2Z" fill="white"/>
<path d="M20.5 45.05H9.36365V33.9H20.5V45.05Z" fill="white"/>
<path d="M20.5 33.9H9.36365V22.75H20.5V33.9Z" fill="white"/>
<path d="M20.5 22.75H9.36365V11.6H20.5V22.75Z" fill="white"/>
<path d="M20.5 11.6H9.36365V0.449997H20.5V11.6Z" fill="white"/>
<path d="M20.5 0.449997H9.36365V-10.7H20.5V0.449997Z" fill="white"/>
<path d="M20.5 -10.7H9.36365V-21.85H20.5V-10.7Z" fill="white"/>
<path d="M20.5 -21.85H9.36365V-33H20.5V-21.85Z" fill="white"/>
<path d="M9.36365 190H-1.77274V178.85H9.36365V190Z" fill="white"/>
<path d="M9.36365 178.85H-1.77274V167.7H9.36365V178.85Z" fill="white"/>
<path d="M9.36365 167.7H-1.77274V156.55H9.36365V167.7Z" fill="white"/>
<path d="M9.36365 156.55H-1.77274V145.4H9.36365V156.55Z" fill="white"/>
<path d="M9.36365 145.4H-1.77274V134.25H9.36365V145.4Z" fill="white"/>
<path d="M9.36365 134.25H-1.77274V123.1H9.36365V134.25Z" fill="white"/>
<path d="M9.36365 123.1H-1.77274V111.95H9.36365V123.1Z" fill="white"/>
<path d="M9.36365 111.95H-1.77274V100.8H9.36365V111.95Z" fill="white"/>
<path d="M9.36365 100.8H-1.77274V89.65H9.36365V100.8Z" fill="white"/>
<path d="M9.36365 89.65H-1.77274V78.5H9.36365V89.65Z" fill="white"/>
<path d="M9.36365 78.5H-1.77274V67.35H9.36365V78.5Z" fill="white"/>
<path d="M9.36365 67.35H-1.77274V56.2H9.36365V67.35Z" fill="white"/>
<path d="M9.36365 56.2H-1.77274V45.05H9.36365V56.2Z" fill="white"/>
<path d="M9.36365 45.05H-1.77274V33.9H9.36365V45.05Z" fill="white"/>
<path d="M9.36365 33.9H-1.77274V22.75H9.36365V33.9Z" fill="white"/>
<path d="M9.36365 22.75H-1.77274V11.6H9.36365V22.75Z" fill="white"/>
<path d="M9.36365 11.6H-1.77274V0.449997H9.36365V11.6Z" fill="white"/>
<path d="M9.36365 0.449997H-1.77274V-10.7H9.36365V0.449997Z" fill="white"/>
<path d="M9.36365 -10.7H-1.77274V-21.85H9.36365V-10.7Z" fill="white"/>
<path d="M9.36365 -21.85H-1.77274V-33H9.36365V-21.85Z" fill="white"/>
<path d="M-1.77274 190H-12.9091V178.85H-1.77274V190Z" fill="white"/>
<path d="M-1.77274 178.85H-12.9091V167.7H-1.77274V178.85Z" fill="white"/>
<path d="M-1.77274 167.7H-12.9091V156.55H-1.77274V167.7Z" fill="white"/>
<path d="M-1.77274 156.55H-12.9091V145.4H-1.77274V156.55Z" fill="white"/>
<path d="M-1.77274 145.4H-12.9091V134.25H-1.77274V145.4Z" fill="white"/>
<path d="M-1.77274 134.25H-12.9091V123.1H-1.77274V134.25Z" fill="white"/>
<path d="M-1.77274 123.1H-12.9091V111.95H-1.77274V123.1Z" fill="white"/>
<path d="M-1.77274 111.95H-12.9091V100.8H-1.77274V111.95Z" fill="white"/>
<path d="M-1.77274 100.8H-12.9091V89.65H-1.77274V100.8Z" fill="white"/>
<path d="M-1.77274 89.65H-12.9091V78.5H-1.77274V89.65Z" fill="white"/>
<path d="M-1.77274 78.5H-12.9091V67.35H-1.77274V78.5Z" fill="white"/>
<path d="M-1.77274 67.35H-12.9091V56.2H-1.77274V67.35Z" fill="white"/>
<path d="M-1.77274 56.2H-12.9091V45.05H-1.77274V56.2Z" fill="white"/>
<path d="M-1.77274 45.05H-12.9091V33.9H-1.77274V45.05Z" fill="white"/>
<path d="M-1.77274 33.9H-12.9091V22.75H-1.77274V33.9Z" fill="white"/>
<path d="M-1.77274 22.75H-12.9091V11.6H-1.77274V22.75Z" fill="white"/>
<path d="M-1.77274 11.6H-12.9091V0.449997H-1.77274V11.6Z" fill="white"/>
<path d="M-1.77274 0.449997H-12.9091V-10.7H-1.77274V0.449997Z" fill="white"/>
<path d="M-1.77274 -10.7H-12.9091V-21.85H-1.77274V-10.7Z" fill="white"/>
<path d="M-1.77274 -21.85H-12.9091V-33H-1.77274V-21.85Z" fill="white"/>
<path d="M-12.9091 190H-24.0455V178.85H-12.9091V190Z" fill="white"/>
<path d="M-12.9091 178.85H-24.0455V167.7H-12.9091V178.85Z" fill="white"/>
<path d="M-12.9091 167.7H-24.0455V156.55H-12.9091V167.7Z" fill="white"/>
<path d="M-12.9091 156.55H-24.0455V145.4H-12.9091V156.55Z" fill="white"/>
<path d="M-12.9091 145.4H-24.0455V134.25H-12.9091V145.4Z" fill="white"/>
<path d="M-12.9091 134.25H-24.0455V123.1H-12.9091V134.25Z" fill="white"/>
<path d="M-12.9091 123.1H-24.0455V111.95H-12.9091V123.1Z" fill="white"/>
<path d="M-12.9091 100.8H-24.0455V89.65H-12.9091V100.8Z" fill="white"/>
<path d="M-12.9091 89.65H-24.0455V78.5H-12.9091V89.65Z" fill="white"/>
<path d="M-12.9091 78.5H-24.0455V67.35H-12.9091V78.5Z" fill="white"/>
<path d="M-12.9091 67.35H-24.0455V56.2H-12.9091V67.35Z" fill="white"/>
<path d="M-12.9091 56.2H-24.0455V45.05H-12.9091V56.2Z" fill="white"/>
<path d="M-12.9091 45.05H-24.0455V33.9H-12.9091V45.05Z" fill="white"/>
<path d="M-12.9091 33.9H-24.0455V22.75H-12.9091V33.9Z" fill="white"/>
<path d="M-12.9091 22.75H-24.0455V11.6H-12.9091V22.75Z" fill="white"/>
<path d="M-12.9091 11.6H-24.0455V0.449997H-12.9091V11.6Z" fill="white"/>
<path d="M-12.9091 0.449997H-24.0455V-10.7H-12.9091V0.449997Z" fill="white"/>
<path d="M-12.9091 -10.7H-24.0455V-21.85H-12.9091V-10.7Z" fill="white"/>
<path d="M-12.9091 -21.85H-24.0455V-33H-12.9091V-21.85Z" fill="white"/>
<path d="M-24.0455 190H-35.1818V178.85H-24.0455V190Z" fill="white"/>
<path d="M-24.0455 178.85H-35.1818V167.7H-24.0455V178.85Z" fill="white"/>
<path d="M-24.0455 167.7H-35.1818V156.55H-24.0455V167.7Z" fill="white"/>
<path d="M-24.0455 156.55H-35.1818V145.4H-24.0455V156.55Z" fill="white"/>
<path d="M-24.0455 145.4H-35.1818V134.25H-24.0455V145.4Z" fill="white"/>
<path d="M-24.0455 134.25H-35.1818V123.1H-24.0455V134.25Z" fill="white"/>
<path d="M-24.0455 123.1H-35.1818V111.95H-24.0455V123.1Z" fill="white"/>
<path d="M-24.0455 100.8H-35.1818V89.65H-24.0455V100.8Z" fill="white"/>
<path d="M-24.0455 89.65H-35.1818V78.5H-24.0455V89.65Z" fill="white"/>
<path d="M-24.0455 78.5H-35.1818V67.35H-24.0455V78.5Z" fill="white"/>
<path d="M-24.0455 67.35H-35.1818V56.2H-24.0455V67.35Z" fill="white"/>
<path d="M-24.0455 56.2H-35.1818V45.05H-24.0455V56.2Z" fill="white"/>
<path d="M-24.0455 45.05H-35.1818V33.9H-24.0455V45.05Z" fill="white"/>
<path d="M-24.0455 33.9H-35.1818V22.75H-24.0455V33.9Z" fill="white"/>
<path d="M-24.0455 22.75H-35.1818V11.6H-24.0455V22.75Z" fill="white"/>
<path d="M-24.0455 11.6H-35.1818V0.449997H-24.0455V11.6Z" fill="white"/>
<path d="M-24.0455 0.449997H-35.1818V-10.7H-24.0455V0.449997Z" fill="white"/>
<path d="M-24.0455 -10.7H-35.1818V-21.85H-24.0455V-10.7Z" fill="white"/>
<path d="M-24.0455 -21.85H-35.1818V-33H-24.0455V-21.85Z" fill="white"/>
<path d="M-35.1818 190H-46.3182V178.85H-35.1818V190Z" fill="white"/>
<path d="M-35.1818 178.85H-46.3182V167.7H-35.1818V178.85Z" fill="white"/>
<path d="M-35.1818 167.7H-46.3182V156.55H-35.1818V167.7Z" fill="white"/>
<path d="M-35.1818 156.55H-46.3182V145.4H-35.1818V156.55Z" fill="white"/>
<path d="M-35.1818 145.4H-46.3182V134.25H-35.1818V145.4Z" fill="white"/>
<path d="M-35.1818 134.25H-46.3182V123.1H-35.1818V134.25Z" fill="white"/>
<path d="M-35.1818 123.1H-46.3182V111.95H-35.1818V123.1Z" fill="white"/>
<path d="M-35.1818 111.95H-46.3182V100.8H-35.1818V111.95Z" fill="white"/>
<path d="M-35.1818 100.8H-46.3182V89.65H-35.1818V100.8Z" fill="white"/>
<path d="M-35.1818 89.65H-46.3182V78.5H-35.1818V89.65Z" fill="white"/>
<path d="M-35.1818 78.5H-46.3182V67.35H-35.1818V78.5Z" fill="white"/>
<path d="M-35.1818 67.35H-46.3182V56.2H-35.1818V67.35Z" fill="white"/>
<path d="M-35.1818 56.2H-46.3182V45.05H-35.1818V56.2Z" fill="white"/>
<path d="M-35.1818 45.05H-46.3182V33.9H-35.1818V45.05Z" fill="white"/>
<path d="M-35.1818 33.9H-46.3182V22.75H-35.1818V33.9Z" fill="white"/>
<path d="M-35.1818 22.75H-46.3182V11.6H-35.1818V22.75Z" fill="white"/>
<path d="M-35.1818 11.6H-46.3182V0.449997H-35.1818V11.6Z" fill="white"/>
<path d="M-35.1818 0.449997H-46.3182V-10.7H-35.1818V0.449997Z" fill="white"/>
<path d="M-35.1818 -10.7H-46.3182V-21.85H-35.1818V-10.7Z" fill="white"/>
<path d="M-35.1818 -21.85H-46.3182V-33H-35.1818V-21.85Z" fill="white"/>
<path d="M-46.3182 190H-57.4546V178.85H-46.3182V190Z" fill="white"/>
<path d="M-46.3182 178.85H-57.4546V167.7H-46.3182V178.85Z" fill="white"/>
<path d="M-46.3182 167.7H-57.4546V156.55H-46.3182V167.7Z" fill="white"/>
<path d="M-46.3182 156.55H-57.4546V145.4H-46.3182V156.55Z" fill="white"/>
<path d="M-46.3182 145.4H-57.4546V134.25H-46.3182V145.4Z" fill="white"/>
<path d="M-46.3182 134.25H-57.4546V123.1H-46.3182V134.25Z" fill="white"/>
<path d="M-46.3182 123.1H-57.4546V111.95H-46.3182V123.1Z" fill="white"/>
<path d="M-46.3182 111.95H-57.4546V100.8H-46.3182V111.95Z" fill="white"/>
<path d="M-46.3182 100.8H-57.4546V89.65H-46.3182V100.8Z" fill="white"/>
<path d="M-46.3182 89.65H-57.4546V78.5H-46.3182V89.65Z" fill="white"/>
<path d="M-46.3182 78.5H-57.4546V67.35H-46.3182V78.5Z" fill="white"/>
<path d="M-46.3182 67.35H-57.4546V56.2H-46.3182V67.35Z" fill="white"/>
<path d="M-46.3182 56.2H-57.4546V45.05H-46.3182V56.2Z" fill="white"/>
<path d="M-46.3182 45.05H-57.4546V33.9H-46.3182V45.05Z" fill="white"/>
<path d="M-46.3182 33.9H-57.4546V22.75H-46.3182V33.9Z" fill="white"/>
<path d="M-46.3182 22.75H-57.4546V11.6H-46.3182V22.75Z" fill="white"/>
<path d="M-46.3182 11.6H-57.4546V0.449997H-46.3182V11.6Z" fill="white"/>
<path d="M-46.3182 0.449997H-57.4546V-10.7H-46.3182V0.449997Z" fill="white"/>
<path d="M-46.3182 -10.7H-57.4546V-21.85H-46.3182V-10.7Z" fill="white"/>
<path d="M-46.3182 -21.85H-57.4546V-33H-46.3182V-21.85Z" fill="white"/>
<path d="M-57.4546 190H-68.5909V178.85H-57.4546V190Z" fill="white"/>
<path d="M-57.4546 178.85H-68.5909V167.7H-57.4546V178.85Z" fill="white"/>
<path d="M-57.4546 167.7H-68.5909V156.55H-57.4546V167.7Z" fill="white"/>
<path d="M-57.4546 156.55H-68.5909V145.4H-57.4546V156.55Z" fill="white"/>
<path d="M-57.4546 145.4H-68.5909V134.25H-57.4546V145.4Z" fill="white"/>
<path d="M-57.4546 134.25H-68.5909V123.1H-57.4546V134.25Z" fill="white"/>
<path d="M-57.4546 123.1H-68.5909V111.95H-57.4546V123.1Z" fill="white"/>
<path d="M-57.4546 111.95H-68.5909V100.8H-57.4546V111.95Z" fill="white"/>
<path d="M-57.4546 100.8H-68.5909V89.65H-57.4546V100.8Z" fill="white"/>
<path d="M-57.4546 89.65H-68.5909V78.5H-57.4546V89.65Z" fill="white"/>
<path d="M-57.4546 78.5H-68.5909V67.35H-57.4546V78.5Z" fill="white"/>
<path d="M-57.4546 67.35H-68.5909V56.2H-57.4546V67.35Z" fill="white"/>
<path d="M-57.4546 56.2H-68.5909V45.05H-57.4546V56.2Z" fill="white"/>
<path d="M-57.4546 45.05H-68.5909V33.9H-57.4546V45.05Z" fill="white"/>
<path d="M-57.4546 33.9H-68.5909V22.75H-57.4546V33.9Z" fill="white"/>
<path d="M-57.4546 22.75H-68.5909V11.6H-57.4546V22.75Z" fill="white"/>
<path d="M-57.4546 11.6H-68.5909V0.449997H-57.4546V11.6Z" fill="white"/>
<path d="M-57.4546 0.449997H-68.5909V-10.7H-57.4546V0.449997Z" fill="white"/>
<path d="M-57.4546 -10.7H-68.5909V-21.85H-57.4546V-10.7Z" fill="white"/>
<path d="M-57.4546 -21.85H-68.5909V-33H-57.4546V-21.85Z" fill="white"/>
<path d="M-68.5909 190H-79.7273V178.85H-68.5909V190Z" fill="white"/>
<path d="M-68.5909 178.85H-79.7273V167.7H-68.5909V178.85Z" fill="white"/>
<path d="M-68.5909 167.7H-79.7273V156.55H-68.5909V167.7Z" fill="white"/>
<path d="M-68.5909 156.55H-79.7273V145.4H-68.5909V156.55Z" fill="white"/>
<path d="M-68.5909 145.4H-79.7273V134.25H-68.5909V145.4Z" fill="white"/>
<path d="M-68.5909 134.25H-79.7273V123.1H-68.5909V134.25Z" fill="white"/>
<path d="M-68.5909 123.1H-79.7273V111.95H-68.5909V123.1Z" fill="white"/>
<path d="M-68.5909 111.95H-79.7273V100.8H-68.5909V111.95Z" fill="white"/>
<path d="M-68.5909 100.8H-79.7273V89.65H-68.5909V100.8Z" fill="white"/>
<path d="M-68.5909 89.65H-79.7273V78.5H-68.5909V89.65Z" fill="white"/>
<path d="M-68.5909 78.5H-79.7273V67.35H-68.5909V78.5Z" fill="white"/>
<path d="M-68.5909 67.35H-79.7273V56.2H-68.5909V67.35Z" fill="white"/>
<path d="M-68.5909 56.2H-79.7273V45.05H-68.5909V56.2Z" fill="white"/>
<path d="M-68.5909 45.05H-79.7273V33.9H-68.5909V45.05Z" fill="white"/>
<path d="M-68.5909 33.9H-79.7273V22.75H-68.5909V33.9Z" fill="white"/>
<path d="M-68.5909 22.75H-79.7273V11.6H-68.5909V22.75Z" fill="white"/>
<path d="M-68.5909 11.6H-79.7273V0.449997H-68.5909V11.6Z" fill="white"/>
<path d="M-68.5909 0.449997H-79.7273V-10.7H-68.5909V0.449997Z" fill="white"/>
<path d="M-68.5909 -10.7H-79.7273V-21.85H-68.5909V-10.7Z" fill="white"/>
<path d="M-68.5909 -21.85H-79.7273V-33H-68.5909V-21.85Z" fill="white"/>
<path d="M-79.7273 190H-90.8636V178.85H-79.7273V190Z" fill="white"/>
<path d="M-79.7273 178.85H-90.8636V167.7H-79.7273V178.85Z" fill="white"/>
<path d="M-79.7273 167.7H-90.8636V156.55H-79.7273V167.7Z" fill="white"/>
<path d="M-79.7273 156.55H-90.8636V145.4H-79.7273V156.55Z" fill="white"/>
<path d="M-79.7273 145.4H-90.8636V134.25H-79.7273V145.4Z" fill="white"/>
<path d="M-79.7273 134.25H-90.8636V123.1H-79.7273V134.25Z" fill="white"/>
<path d="M-79.7273 123.1H-90.8636V111.95H-79.7273V123.1Z" fill="white"/>
<path d="M-79.7273 111.95H-90.8636V100.8H-79.7273V111.95Z" fill="white"/>
<path d="M-79.7273 100.8H-90.8636V89.65H-79.7273V100.8Z" fill="white"/>
<path d="M-79.7273 89.65H-90.8636V78.5H-79.7273V89.65Z" fill="white"/>
<path d="M-79.7273 78.5H-90.8636V67.35H-79.7273V78.5Z" fill="white"/>
<path d="M-79.7273 67.35H-90.8636V56.2H-79.7273V67.35Z" fill="white"/>
<path d="M-79.7273 56.2H-90.8636V45.05H-79.7273V56.2Z" fill="white"/>
<path d="M-79.7273 45.05H-90.8636V33.9H-79.7273V45.05Z" fill="white"/>
<path d="M-79.7273 33.9H-90.8636V22.75H-79.7273V33.9Z" fill="white"/>
<path d="M-79.7273 22.75H-90.8636V11.6H-79.7273V22.75Z" fill="white"/>
<path d="M-79.7273 11.6H-90.8636V0.449997H-79.7273V11.6Z" fill="white"/>
<path d="M-79.7273 0.449997H-90.8636V-10.7H-79.7273V0.449997Z" fill="white"/>
<path d="M-79.7273 -10.7H-90.8636V-21.85H-79.7273V-10.7Z" fill="white"/>
<path d="M-79.7273 -21.85H-90.8636V-33H-79.7273V-21.85Z" fill="white"/>
<path d="M-90.8636 190H-102V178.85H-90.8636V190Z" fill="white"/>
<path d="M-90.8636 178.85H-102V167.7H-90.8636V178.85Z" fill="white"/>
<path d="M-90.8636 167.7H-102V156.55H-90.8636V167.7Z" fill="white"/>
<path d="M-90.8636 156.55H-102V145.4H-90.8636V156.55Z" fill="white"/>
<path d="M-90.8636 145.4H-102V134.25H-90.8636V145.4Z" fill="white"/>
<path d="M-90.8636 134.25H-102V123.1H-90.8636V134.25Z" fill="white"/>
<path d="M-90.8636 123.1H-102V111.95H-90.8636V123.1Z" fill="white"/>
<path d="M-90.8636 111.95H-102V100.8H-90.8636V111.95Z" fill="white"/>
<path d="M-90.8636 100.8H-102V89.65H-90.8636V100.8Z" fill="white"/>
<path d="M-90.8636 89.65H-102V78.5H-90.8636V89.65Z" fill="white"/>
<path d="M-90.8636 78.5H-102V67.35H-90.8636V78.5Z" fill="white"/>
<path d="M-90.8636 67.35H-102V56.2H-90.8636V67.35Z" fill="white"/>
<path d="M-90.8636 56.2H-102V45.05H-90.8636V56.2Z" fill="white"/>
<path d="M-90.8636 45.05H-102V33.9H-90.8636V45.05Z" fill="white"/>
<path d="M-90.8636 33.9H-102V22.75H-90.8636V33.9Z" fill="white"/>
<path d="M-90.8636 22.75H-102V11.6H-90.8636V22.75Z" fill="white"/>
<path d="M-90.8636 11.6H-102V0.449997H-90.8636V11.6Z" fill="white"/>
<path d="M-90.8636 0.449997H-102V-10.7H-90.8636V0.449997Z" fill="white"/>
<path d="M-90.8636 -10.7H-102V-21.85H-90.8636V-10.7Z" fill="white"/>
<path d="M-90.8636 -21.85H-102V-33H-90.8636V-21.85Z" fill="white"/>
<path d="M376.864 190H388V178.85M376.864 190V178.85M376.864 190H365.727M376.864 178.85H388M376.864 178.85V167.7M376.864 178.85H365.727M388 178.85V167.7M376.864 167.7H388M376.864 167.7V156.55M376.864 167.7H365.727M388 167.7V156.55M376.864 156.55H388M376.864 156.55V145.4M376.864 156.55H365.727M388 156.55V145.4M376.864 145.4H388M376.864 145.4V134.25M376.864 145.4H365.727M388 145.4V134.25M376.864 134.25H388M376.864 134.25V123.1M376.864 134.25H365.727M388 134.25V123.1M376.864 123.1H388M376.864 123.1V111.95M376.864 123.1H365.727M388 123.1V111.95M376.864 111.95H388M376.864 111.95V100.8M376.864 111.95H365.727M388 111.95V100.8M376.864 100.8H388M376.864 100.8V89.65M376.864 100.8H365.727M388 100.8V89.65M376.864 89.65H388M376.864 89.65V78.5M376.864 89.65H365.727M388 89.65V78.5M376.864 78.5H388M376.864 78.5V67.35M376.864 78.5H365.727M388 78.5V67.35M376.864 67.35H388M376.864 67.35V56.2M376.864 67.35H365.727M388 67.35V56.2M376.864 56.2H388M376.864 56.2V45.05M376.864 56.2H365.727M388 56.2V45.05M376.864 45.05H388M376.864 45.05V33.9M376.864 45.05H365.727M388 45.05V33.9M376.864 33.9H388M376.864 33.9V22.75M376.864 33.9H365.727M388 33.9V22.75M376.864 22.75H388M376.864 22.75V11.6M376.864 22.75H365.727M388 22.75V11.6M376.864 11.6H388M376.864 11.6V0.449997M376.864 11.6H365.727M388 11.6V0.449997M376.864 0.449997H388M376.864 0.449997V-10.7M376.864 0.449997H365.727M388 0.449997V-10.7M376.864 -10.7H388M376.864 -10.7V-21.85M376.864 -10.7H365.727M388 -10.7V-21.85M376.864 -21.85H388M376.864 -21.85V-33M376.864 -21.85H365.727M388 -21.85V-33H376.864M376.864 -33H365.727M365.727 190V178.85M365.727 190H354.591M365.727 178.85V167.7M365.727 178.85H354.591M365.727 167.7V156.55M365.727 167.7H354.591M365.727 156.55V145.4M365.727 156.55H354.591M365.727 145.4V134.25M365.727 145.4H354.591M365.727 134.25V123.1M365.727 134.25H354.591M365.727 123.1V111.95M365.727 123.1H354.591M365.727 111.95V100.8M365.727 111.95H354.591M365.727 100.8V89.65M365.727 100.8H354.591M365.727 89.65V78.5M365.727 89.65H354.591M365.727 78.5V67.35M365.727 78.5H354.591M365.727 67.35V56.2M365.727 67.35H354.591M365.727 56.2V45.05M365.727 56.2H354.591M365.727 45.05V33.9M365.727 45.05H354.591M365.727 33.9V22.75M365.727 33.9H354.591M365.727 22.75V11.6M365.727 22.75H354.591M365.727 11.6V0.449997M365.727 11.6H354.591M365.727 0.449997V-10.7M365.727 0.449997H354.591M365.727 -10.7V-21.85M365.727 -10.7H354.591M365.727 -21.85V-33M365.727 -21.85H354.591M365.727 -33H354.591M354.591 190V178.85M354.591 190H343.455M354.591 178.85V167.7M354.591 178.85H343.455M354.591 167.7V156.55M354.591 167.7H343.455M354.591 156.55V145.4M354.591 156.55H343.455M354.591 145.4V134.25M354.591 145.4H343.455M354.591 134.25V123.1M354.591 134.25H343.455M354.591 123.1V111.95M354.591 123.1H343.455M354.591 111.95V100.8M354.591 111.95H343.455M354.591 100.8V89.65M354.591 100.8H343.455M354.591 89.65V78.5M354.591 89.65H343.455M354.591 78.5V67.35M354.591 78.5H343.455M354.591 67.35V56.2M354.591 67.35H343.455M354.591 56.2V45.05M354.591 56.2H343.455M354.591 45.05V33.9M354.591 45.05H343.455M354.591 33.9V22.75M354.591 33.9H343.455M354.591 22.75V11.6M354.591 22.75H343.455M354.591 11.6V0.449997M354.591 11.6H343.455M354.591 0.449997V-10.7M354.591 0.449997H343.455M354.591 -10.7V-21.85M354.591 -10.7H343.455M354.591 -21.85V-33M354.591 -21.85H343.455M354.591 -33H343.455M343.455 190V178.85M343.455 190H332.318M343.455 178.85V167.7M343.455 178.85H332.318M343.455 167.7V156.55M343.455 167.7H332.318M343.455 156.55V145.4M343.455 156.55H332.318M343.455 145.4V134.25M343.455 145.4H332.318M343.455 134.25V123.1M343.455 134.25H332.318M343.455 123.1V111.95M343.455 123.1H332.318M343.455 111.95V100.8M343.455 111.95H332.318M343.455 100.8V89.65M343.455 100.8H332.318M343.455 89.65V78.5M343.455 89.65H332.318M343.455 78.5V67.35M343.455 78.5H332.318M343.455 67.35V56.2M343.455 67.35H332.318M343.455 56.2V45.05M343.455 56.2H332.318M343.455 45.05V33.9M343.455 45.05H332.318M343.455 33.9V22.75M343.455 33.9H332.318M343.455 22.75V11.6M343.455 22.75H332.318M343.455 11.6V0.449997M343.455 11.6H332.318M343.455 0.449997V-10.7M343.455 0.449997H332.318M343.455 -10.7V-21.85M343.455 -10.7H332.318M343.455 -21.85V-33M343.455 -21.85H332.318M343.455 -33H332.318M332.318 190V178.85M332.318 190H321.182M332.318 178.85V167.7M332.318 178.85H321.182M332.318 167.7V156.55M332.318 167.7H321.182M332.318 156.55V145.4M332.318 156.55H321.182M332.318 145.4V134.25M332.318 145.4H321.182M332.318 134.25V123.1M332.318 134.25H321.182M332.318 123.1V111.95M332.318 123.1H321.182M332.318 111.95V100.8M332.318 111.95H321.182M332.318 100.8V89.65M332.318 100.8H321.182M332.318 89.65V78.5M332.318 89.65H321.182M332.318 78.5V67.35M332.318 78.5H321.182M332.318 67.35V56.2M332.318 67.35H321.182M332.318 56.2V45.05M332.318 56.2H321.182M332.318 45.05V33.9M332.318 45.05H321.182M332.318 33.9V22.75M332.318 33.9H321.182M332.318 22.75V11.6M332.318 22.75H321.182M332.318 11.6V0.449997M332.318 11.6H321.182M332.318 0.449997V-10.7M332.318 0.449997H321.182M332.318 -10.7V-21.85M332.318 -10.7H321.182M332.318 -21.85V-33M332.318 -21.85H321.182M332.318 -33H321.182M321.182 190V178.85M321.182 190H310.045M321.182 178.85V167.7M321.182 178.85H310.045M321.182 167.7V156.55M321.182 167.7H310.045M321.182 156.55V145.4M321.182 156.55H310.045M321.182 145.4V134.25M321.182 145.4H310.045M321.182 134.25V123.1M321.182 134.25H310.045M321.182 123.1V111.95M321.182 123.1H310.045M321.182 111.95V100.8M321.182 111.95H310.045M321.182 100.8V89.65M321.182 100.8H310.045M321.182 89.65V78.5M321.182 89.65H310.045M321.182 78.5V67.35M321.182 78.5H310.045M321.182 67.35V56.2M321.182 67.35H310.045M321.182 56.2V45.05M321.182 56.2H310.045M321.182 45.05V33.9M321.182 45.05H310.045M321.182 33.9V22.75M321.182 33.9H310.045M321.182 22.75V11.6M321.182 22.75H310.045M321.182 11.6V0.449997M321.182 11.6H310.045M321.182 0.449997V-10.7M321.182 0.449997H310.045M321.182 -10.7V-21.85M321.182 -10.7H310.045M321.182 -21.85V-33M321.182 -21.85H310.045M321.182 -33H310.045M310.045 190V178.85M310.045 190H298.909M310.045 178.85V167.7M310.045 178.85H298.909M310.045 167.7V156.55M310.045 167.7H298.909M310.045 156.55V145.4M310.045 156.55H298.909M310.045 145.4V134.25M310.045 145.4H298.909M310.045 134.25V123.1M310.045 134.25H298.909M310.045 123.1V111.95M310.045 123.1H298.909M310.045 111.95H298.909M310.045 111.95V100.8M310.045 100.8V89.65M310.045 100.8H298.909M310.045 89.65V78.5M310.045 89.65H298.909M310.045 78.5V67.35M310.045 78.5H298.909M310.045 67.35V56.2M310.045 67.35H298.909M310.045 56.2V45.05M310.045 56.2H298.909M310.045 45.05V33.9M310.045 45.05H298.909M310.045 33.9V22.75M310.045 33.9H298.909M310.045 22.75V11.6M310.045 22.75H298.909M310.045 11.6V0.449997M310.045 11.6H298.909M310.045 0.449997V-10.7M310.045 0.449997H298.909M310.045 -10.7V-21.85M310.045 -10.7H298.909M310.045 -21.85V-33M310.045 -21.85H298.909M310.045 -33H298.909M298.909 190V178.85M298.909 190H287.773M298.909 178.85V167.7M298.909 178.85H287.773M298.909 167.7V156.55M298.909 167.7H287.773M298.909 156.55V145.4M298.909 156.55H287.773M298.909 145.4V134.25M298.909 145.4H287.773M298.909 134.25V123.1M298.909 134.25H287.773M298.909 123.1V111.95M298.909 123.1H287.773M298.909 111.95V100.8M298.909 111.95H287.773M298.909 100.8V89.65M298.909 100.8H287.773M298.909 89.65V78.5M298.909 89.65H287.773M298.909 78.5V67.35M298.909 78.5H287.773M298.909 67.35V56.2M298.909 67.35H287.773M298.909 56.2V45.05M298.909 56.2H287.773M298.909 45.05V33.9M298.909 45.05C298.909 45.05 292.122 45.05 287.773 45.05M298.909 33.9V22.75M298.909 33.9H287.773M298.909 22.75V11.6M298.909 22.75H287.773M298.909 11.6V0.449997M298.909 11.6H287.773M298.909 0.449997V-10.7M298.909 0.449997H287.773M298.909 -10.7V-21.85M298.909 -10.7H287.773M298.909 -21.85V-33M298.909 -21.85H287.773M298.909 -33H287.773M287.773 190V178.85M287.773 190H276.636M287.773 178.85V167.7M287.773 178.85H276.636M287.773 167.7V156.55M287.773 167.7H276.636M287.773 156.55V145.4M287.773 156.55H276.636M287.773 145.4V134.25M287.773 145.4H276.636M287.773 134.25V123.1M287.773 134.25H276.636M287.773 123.1V111.95M287.773 123.1H276.636M287.773 111.95V100.8M287.773 111.95H276.636M287.773 100.8V89.65M287.773 100.8H276.636M287.773 89.65V78.5M287.773 89.65H276.636M287.773 78.5V67.35M287.773 78.5H276.636M287.773 67.35V56.2M287.773 67.35H276.636M287.773 56.2C287.773 56.2 287.773 49.4043 287.773 45.05M287.773 56.2H276.636M287.773 45.05C287.773 40.6957 287.773 33.9 287.773 33.9M287.773 45.05C283.424 45.05 276.636 45.05 276.636 45.05M287.773 33.9V22.75M287.773 33.9H276.636M287.773 22.75V11.6M287.773 22.75H276.636M287.773 11.6V0.449997M287.773 11.6H276.636M287.773 0.449997V-10.7M287.773 0.449997H276.636M287.773 -10.7V-21.85M287.773 -10.7H276.636M287.773 -21.85V-33M287.773 -21.85H276.636M287.773 -33H276.636M276.636 190V178.85M276.636 190H265.5M276.636 178.85V167.7M276.636 178.85H265.5M276.636 167.7V156.55M276.636 167.7H265.5M276.636 156.55V145.4M276.636 156.55H265.5M276.636 145.4V134.25M276.636 145.4H265.5M276.636 134.25V123.1M276.636 134.25H265.5M276.636 123.1V111.95M276.636 123.1H265.5M276.636 111.95V100.8M276.636 111.95H265.5M276.636 100.8V89.65M276.636 100.8H265.5M276.636 89.65V78.5M276.636 89.65H265.5M276.636 78.5V67.35M276.636 78.5H265.5M276.636 67.35V56.2M276.636 67.35H265.5M276.636 56.2V45.05M276.636 56.2H265.5M276.636 45.05V33.9M276.636 45.05H265.5M276.636 33.9V22.75M276.636 33.9H265.5M276.636 22.75V11.6M276.636 22.75H265.5M276.636 11.6V0.449997M276.636 11.6H265.5M276.636 0.449997V-10.7M276.636 0.449997H265.5M276.636 -10.7V-21.85M276.636 -10.7H265.5M276.636 -21.85V-33M276.636 -21.85H265.5M276.636 -33H265.5M265.5 190V178.85M265.5 190H254.364M265.5 178.85V167.7M265.5 178.85H254.364M265.5 167.7V156.55M265.5 167.7H254.364M265.5 156.55V145.4M265.5 156.55H254.364M265.5 145.4V134.25M265.5 145.4H20.5M265.5 134.25V123.1M265.5 134.25H20.5M265.5 123.1V111.95M265.5 123.1H254.364M265.5 111.95V100.8M265.5 111.95H254.364M265.5 100.8V89.65M265.5 100.8H254.364M265.5 89.65V78.5M265.5 89.65H254.364M265.5 78.5V67.35M265.5 78.5H254.364M265.5 67.35V56.2M265.5 67.35H254.364M265.5 56.2V45.05M265.5 56.2H254.364M265.5 45.05V33.9M265.5 45.05H254.364M265.5 33.9V22.75M265.5 33.9H254.364M265.5 22.75V11.6M265.5 22.75H254.364M265.5 11.6V0.449997M265.5 11.6H254.364M265.5 0.449997V-10.7M265.5 0.449997H254.364M265.5 -10.7V-21.85M265.5 -10.7H254.364M265.5 -21.85V-33M265.5 -21.85H254.364M265.5 -33H254.364M254.364 190V178.85M254.364 190H243.227M254.364 178.85V167.7M254.364 178.85H243.227M254.364 167.7V156.55M254.364 167.7H243.227M254.364 156.55H243.227M254.364 156.55V123.1M254.364 123.1V111.95M254.364 123.1H243.227M254.364 111.95V100.8M254.364 111.95H243.227M254.364 100.8V89.65M254.364 100.8H243.227M254.364 89.65V78.5M254.364 89.65H243.227M254.364 78.5V67.35M254.364 78.5H243.227M254.364 67.35V56.2M254.364 67.35H243.227M254.364 56.2V45.05M254.364 56.2H243.227M254.364 45.05V33.9M254.364 45.05H243.227M254.364 33.9V22.75M254.364 33.9H243.227M254.364 22.75V11.6M254.364 22.75H243.227M254.364 11.6V0.449997M254.364 11.6H243.227M254.364 0.449997V-10.7M254.364 0.449997H243.227M254.364 -10.7V-21.85M254.364 -10.7H243.227M254.364 -21.85V-33M254.364 -21.85H243.227M254.364 -33H243.227M243.227 190V178.85M243.227 190H232.091M243.227 178.85V167.7M243.227 178.85H232.091M243.227 167.7V156.55M243.227 167.7H232.091M243.227 156.55H232.091M243.227 156.55V123.1M243.227 123.1V111.95M243.227 123.1H232.091M243.227 111.95V100.8M243.227 111.95H232.091M243.227 100.8V89.65M243.227 100.8H232.091M243.227 89.65V78.5M243.227 89.65H232.091M243.227 78.5V67.35M243.227 78.5H232.091M243.227 67.35V56.2M243.227 67.35H232.091M243.227 56.2V45.05M243.227 56.2H232.091M243.227 45.05V33.9M243.227 45.05H232.091M243.227 33.9V22.75M243.227 33.9H232.091M243.227 22.75V11.6M243.227 22.75H232.091M243.227 11.6V0.449997M243.227 11.6H232.091M243.227 0.449997V-10.7M243.227 0.449997H232.091M243.227 -10.7V-21.85M243.227 -10.7H232.091M243.227 -21.85V-33M243.227 -21.85H232.091M243.227 -33H232.091M232.091 190V178.85M232.091 190H220.955M232.091 178.85V167.7M232.091 178.85H220.955M232.091 167.7V156.55M232.091 167.7H220.955M232.091 156.55H220.955M232.091 156.55V123.1M232.091 123.1V111.95M232.091 123.1H53.9091M232.091 111.95V100.8M232.091 111.95H53.9091M232.091 100.8V89.65M232.091 100.8H220.955M232.091 89.65V78.5M232.091 89.65H220.955M232.091 78.5V67.35M232.091 78.5H220.955M232.091 67.35V56.2M232.091 67.35H220.955M232.091 56.2V45.05M232.091 56.2H220.955M232.091 45.05V33.9M232.091 45.05H220.955M232.091 33.9V22.75M232.091 33.9H220.955M232.091 22.75V11.6M232.091 22.75H220.955M232.091 11.6V0.449997M232.091 11.6H220.955M232.091 0.449997V-10.7M232.091 0.449997H220.955M232.091 -10.7V-21.85M232.091 -10.7H220.955M232.091 -21.85V-33M232.091 -21.85H220.955M232.091 -33H220.955M220.955 190V178.85M220.955 190H209.818M220.955 178.85V167.7M220.955 178.85H209.818M220.955 167.7V156.55M220.955 167.7H209.818M220.955 156.55H209.818M220.955 156.55V100.8M220.955 100.8V89.65M220.955 100.8H209.818M220.955 89.65V78.5M220.955 89.65H209.818M220.955 78.5V67.35M220.955 78.5H209.818M220.955 67.35V56.2M220.955 67.35H209.818M220.955 56.2V45.05M220.955 56.2H209.818M220.955 45.05V33.9M220.955 45.05H209.818M220.955 33.9V22.75M220.955 33.9H209.818M220.955 22.75V11.6M220.955 22.75H209.818M220.955 11.6V0.449997M220.955 11.6H209.818M220.955 0.449997V-10.7M220.955 0.449997H209.818M220.955 -10.7V-21.85M220.955 -10.7H209.818M220.955 -21.85V-33M220.955 -21.85H209.818M220.955 -33H209.818M209.818 190V178.85M209.818 190H198.682M209.818 178.85V167.7M209.818 178.85H198.682M209.818 167.7V156.55M209.818 167.7H198.682M209.818 156.55H198.682M209.818 156.55V100.8M209.818 100.8V89.65M209.818 100.8H198.682M209.818 89.65V78.5M209.818 89.65H198.682M209.818 78.5V67.35M209.818 78.5H198.682M209.818 67.35V56.2M209.818 67.35H198.682M209.818 56.2V45.05M209.818 56.2H198.682M209.818 45.05V33.9M209.818 45.05H198.682M209.818 33.9V22.75M209.818 33.9H198.682M209.818 22.75V11.6M209.818 22.75H198.682M209.818 11.6V0.449997M209.818 11.6H198.682M209.818 0.449997V-10.7M209.818 0.449997H198.682M209.818 -10.7V-21.85M209.818 -10.7H198.682M209.818 -21.85V-33M209.818 -21.85H198.682M209.818 -33H198.682M198.682 190V178.85M198.682 190H187.545M198.682 178.85V167.7M198.682 178.85H187.545M198.682 167.7V156.55M198.682 167.7H187.545M198.682 156.55H187.545M198.682 156.55V100.8M198.682 100.8V89.65M198.682 100.8H187.545M198.682 89.65V78.5M198.682 89.65H187.545M198.682 78.5V67.35M198.682 78.5H187.545M198.682 67.35V56.2M198.682 67.35H187.545M198.682 56.2V45.05M198.682 56.2H187.545M198.682 45.05V33.9M198.682 45.05H187.545M198.682 33.9V22.75M198.682 33.9H187.545M198.682 22.75V11.6M198.682 22.75H187.545M198.682 11.6V0.449997M198.682 11.6H187.545M198.682 0.449997V-10.7M198.682 0.449997H187.545M198.682 -10.7V-21.85M198.682 -10.7H187.545M198.682 -21.85V-33M198.682 -21.85H187.545M198.682 -33H187.545M187.545 190V178.85M187.545 190H176.409M187.545 178.85V167.7M187.545 178.85H176.409M187.545 167.7V156.55M187.545 167.7H176.409M187.545 156.55H176.409M187.545 156.55V100.8M187.545 100.8V89.65M187.545 100.8H176.409M187.545 89.65V78.5M187.545 89.65H176.409M187.545 78.5V67.35M187.545 78.5H176.409M187.545 67.35V56.2M187.545 67.35H176.409M187.545 56.2V45.05M187.545 56.2H176.409M187.545 45.05V33.9M187.545 45.05H176.409M187.545 33.9V22.75M187.545 33.9H176.409M187.545 22.75V11.6M187.545 22.75H176.409M187.545 11.6V0.449997M187.545 11.6H176.409M187.545 0.449997V-10.7M187.545 0.449997H176.409M187.545 -10.7V-21.85M187.545 -10.7H176.409M187.545 -21.85V-33M187.545 -21.85H176.409M187.545 -33H176.409M176.409 190V178.85M176.409 190H165.273M176.409 178.85V167.7M176.409 178.85H165.273M176.409 167.7V156.55M176.409 167.7H165.273M176.409 156.55H165.273M176.409 156.55V100.8M176.409 100.8V89.65M176.409 100.8H165.273M176.409 89.65V78.5M176.409 89.65H165.273M176.409 78.5V67.35M176.409 78.5H165.273M176.409 67.35V56.2M176.409 67.35H165.273M176.409 56.2V45.05M176.409 56.2H165.273M176.409 45.05V33.9M176.409 45.05H165.273M176.409 33.9V22.75M176.409 33.9H165.273M176.409 22.75V11.6M176.409 22.75H165.273M176.409 11.6V0.449997M176.409 11.6H165.273M176.409 0.449997V-10.7M176.409 0.449997H165.273M176.409 -10.7V-21.85M176.409 -10.7H165.273M176.409 -21.85V-33M176.409 -21.85H165.273M176.409 -33H165.273M165.273 190V178.85M165.273 190H154.136M165.273 178.85V167.7M165.273 178.85H154.136M165.273 167.7V156.55M165.273 167.7H154.136M165.273 156.55H154.136M165.273 156.55V100.8M165.273 100.8V89.65M165.273 100.8H154.136M165.273 89.65V78.5M165.273 89.65H154.136M165.273 78.5V67.35M165.273 78.5H154.136M165.273 67.35V56.2M165.273 67.35H154.136M165.273 56.2V45.05M165.273 56.2H154.136M165.273 45.05V33.9M165.273 45.05H154.136M165.273 33.9V22.75M165.273 33.9H154.136M165.273 22.75V11.6M165.273 22.75H154.136M165.273 11.6V0.449997M165.273 11.6H154.136M165.273 0.449997V-10.7M165.273 0.449997H154.136M165.273 -10.7V-21.85M165.273 -10.7H154.136M165.273 -21.85V-33M165.273 -21.85H154.136M165.273 -33H154.136M154.136 190V178.85M154.136 190H143M154.136 178.85H143M154.136 178.85V167.7M154.136 167.7V156.55M154.136 167.7H143M154.136 156.55H143M154.136 156.55V100.8M154.136 100.8V89.65M154.136 100.8H143M154.136 89.65V78.5M154.136 89.65H143M154.136 78.5V67.35M154.136 78.5H143M154.136 67.35V56.2M154.136 67.35H143M154.136 56.2V45.05M154.136 56.2H143M154.136 45.05V33.9M154.136 45.05H143M154.136 33.9V22.75M154.136 33.9H143M154.136 22.75V11.6M154.136 22.75H143M154.136 11.6V0.449997M154.136 11.6H143M154.136 0.449997V-10.7M154.136 0.449997H143M154.136 -10.7V-21.85M154.136 -10.7H143M154.136 -21.85V-33M154.136 -21.85H143M154.136 -33H143M143 190V178.85M143 190H131.864M143 178.85H131.864M143 178.85V167.7M143 167.7V156.55M143 167.7H131.864M143 156.55H131.864M143 156.55V100.8M143 100.8V89.65M143 100.8H131.864M143 89.65V78.5M143 89.65H131.864M143 78.5V67.35M143 78.5H131.864M143 67.35V56.2M143 67.35H131.864M143 56.2V45.05M143 56.2H131.864M143 45.05V33.9M143 45.05H131.864M143 33.9V22.75M143 33.9H131.864M143 22.75V11.6M143 22.75H131.864M143 11.6V0.449997M143 11.6H131.864M143 0.449997V-10.7M143 0.449997H131.864M143 -10.7V-21.85M143 -10.7H131.864M143 -21.85V-33M143 -21.85H131.864M143 -33H131.864M131.864 190V178.85M131.864 190H120.727M131.864 178.85H120.727M131.864 178.85V167.7M131.864 167.7V156.55M131.864 167.7H120.727M131.864 156.55H120.727M131.864 156.55V100.8M131.864 100.8V89.65M131.864 100.8H120.727M131.864 89.65V78.5M131.864 89.65H120.727M131.864 78.5V67.35M131.864 78.5H120.727M131.864 67.35V56.2M131.864 67.35H120.727M131.864 56.2V45.05M131.864 56.2H120.727M131.864 45.05V33.9M131.864 45.05H120.727M131.864 33.9V22.75M131.864 33.9H120.727M131.864 22.75V11.6M131.864 22.75H120.727M131.864 11.6V0.449997M131.864 11.6H120.727M131.864 0.449997V-10.7M131.864 0.449997H120.727M131.864 -10.7V-21.85M131.864 -10.7H120.727M131.864 -21.85V-33M131.864 -21.85H120.727M131.864 -33H120.727M120.727 190V178.85M120.727 190H109.591M120.727 178.85H109.591M120.727 178.85V167.7M120.727 167.7V156.55M120.727 167.7H109.591M120.727 156.55H109.591M120.727 156.55V100.8M120.727 100.8V89.65M120.727 100.8H109.591M120.727 89.65V78.5M120.727 89.65H109.591M120.727 78.5V67.35M120.727 78.5H109.591M120.727 67.35V56.2M120.727 67.35H109.591M120.727 56.2V45.05M120.727 56.2H109.591M120.727 45.05V33.9M120.727 45.05H109.591M120.727 33.9V22.75M120.727 33.9H109.591M120.727 22.75V11.6M120.727 22.75H109.591M120.727 11.6V0.449997M120.727 11.6H109.591M120.727 0.449997V-10.7M120.727 0.449997H109.591M120.727 -10.7V-21.85M120.727 -10.7H109.591M120.727 -21.85V-33M120.727 -21.85H109.591M120.727 -33H109.591M109.591 190V178.85M109.591 190H98.4545M109.591 178.85V167.7M109.591 178.85H98.4545M109.591 167.7V156.55M109.591 167.7H98.4545M109.591 156.55H98.4545M109.591 156.55V100.8M109.591 100.8V89.65M109.591 100.8H98.4545M109.591 89.65V78.5M109.591 89.65H98.4545M109.591 78.5V67.35M109.591 78.5H98.4545M109.591 67.35V56.2M109.591 67.35H98.4545M109.591 56.2V45.05M109.591 56.2H98.4545M109.591 45.05V33.9M109.591 45.05H98.4545M109.591 33.9V22.75M109.591 33.9H98.4545M109.591 22.75V11.6M109.591 22.75H98.4545M109.591 11.6V0.449997M109.591 11.6H98.4545M109.591 0.449997V-10.7M109.591 0.449997H98.4545M109.591 -10.7V-21.85M109.591 -10.7H98.4545M109.591 -21.85V-33M109.591 -21.85H98.4545M109.591 -33H98.4545M98.4545 190V178.85M98.4545 190H87.3182M98.4545 178.85V167.7M98.4545 178.85H87.3182M98.4545 167.7V156.55M98.4545 167.7H87.3182M98.4545 156.55H87.3182M98.4545 156.55V100.8M98.4545 100.8V89.65M98.4545 100.8H87.3182M98.4545 89.65V78.5M98.4545 89.65H87.3182M98.4545 78.5V67.35M98.4545 78.5H87.3182M98.4545 67.35V56.2M98.4545 67.35H87.3182M98.4545 56.2V45.05M98.4545 56.2H87.3182M98.4545 45.05V33.9M98.4545 45.05H87.3182M98.4545 33.9V22.75M98.4545 33.9H87.3182M98.4545 22.75V11.6M98.4545 22.75H87.3182M98.4545 11.6V0.449997M98.4545 11.6H87.3182M98.4545 0.449997V-10.7M98.4545 0.449997H87.3182M98.4545 -10.7V-21.85M98.4545 -10.7H87.3182M98.4545 -21.85V-33M98.4545 -21.85H87.3182M98.4545 -33H87.3182M87.3182 190V178.85M87.3182 190H76.1818M87.3182 178.85V167.7M87.3182 178.85H76.1818M87.3182 167.7V156.55M87.3182 167.7H76.1818M87.3182 156.55H76.1818M87.3182 156.55V100.8M87.3182 100.8V89.65M87.3182 100.8H76.1818M87.3182 89.65V78.5M87.3182 89.65H76.1818M87.3182 78.5V67.35M87.3182 78.5H76.1818M87.3182 67.35V56.2M87.3182 67.35H76.1818M87.3182 56.2V45.05M87.3182 56.2H76.1818M87.3182 45.05V33.9M87.3182 45.05H76.1818M87.3182 33.9V22.75M87.3182 33.9H76.1818M87.3182 22.75V11.6M87.3182 22.75H76.1818M87.3182 11.6V0.449997M87.3182 11.6H76.1818M87.3182 0.449997V-10.7M87.3182 0.449997H76.1818M87.3182 -10.7V-21.85M87.3182 -10.7H76.1818M87.3182 -21.85V-33M87.3182 -21.85H76.1818M87.3182 -33H76.1818M76.1818 190V178.85M76.1818 190H65.0454M76.1818 178.85V167.7M76.1818 178.85H65.0454M76.1818 167.7V156.55M76.1818 167.7H65.0454M76.1818 156.55H65.0454M76.1818 156.55V100.8M76.1818 100.8V89.65M76.1818 100.8H65.0454M76.1818 89.65V78.5M76.1818 89.65H65.0454M76.1818 78.5V67.35M76.1818 78.5H65.0454M76.1818 67.35V56.2M76.1818 67.35H65.0454M76.1818 56.2V45.05M76.1818 56.2H65.0454M76.1818 45.05V33.9M76.1818 45.05H65.0454M76.1818 33.9V22.75M76.1818 33.9H65.0454M76.1818 22.75V11.6M76.1818 22.75H65.0454M76.1818 11.6V0.449997M76.1818 11.6H65.0454M76.1818 0.449997V-10.7M76.1818 0.449997H65.0454M76.1818 -10.7V-21.85M76.1818 -10.7H65.0454M76.1818 -21.85V-33M76.1818 -21.85H65.0454M76.1818 -33H65.0454M65.0454 190V178.85M65.0454 190H53.9091M65.0454 178.85V167.7M65.0454 178.85H53.9091M65.0454 167.7V156.55M65.0454 167.7H53.9091M65.0454 156.55H53.9091M65.0454 156.55V100.8M65.0454 100.8V89.65M65.0454 100.8H53.9091M65.0454 89.65V78.5M65.0454 89.65H53.9091M65.0454 78.5V67.35M65.0454 78.5H53.9091M65.0454 67.35V56.2M65.0454 67.35H53.9091M65.0454 56.2V45.05M65.0454 56.2H53.9091M65.0454 45.05V33.9M65.0454 45.05H53.9091M65.0454 33.9V22.75M65.0454 33.9H53.9091M65.0454 22.75V11.6M65.0454 22.75H53.9091M65.0454 11.6V0.449997M65.0454 11.6H53.9091M65.0454 0.449997V-10.7M65.0454 0.449997H53.9091M65.0454 -10.7V-21.85M65.0454 -10.7H53.9091M65.0454 -21.85V-33M65.0454 -21.85H53.9091M65.0454 -33H53.9091M53.9091 190V178.85M53.9091 190H42.7727M53.9091 178.85V167.7M53.9091 178.85H42.7727M53.9091 167.7V156.55M53.9091 167.7H42.7727M53.9091 156.55H42.7727M53.9091 156.55V123.1M53.9091 123.1V111.95M53.9091 123.1H42.7727M53.9091 111.95V100.8M53.9091 111.95H42.7727M53.9091 100.8V89.65M53.9091 100.8H42.7727M53.9091 89.65V78.5M53.9091 89.65H42.7727M53.9091 78.5V67.35M53.9091 78.5H42.7727M53.9091 67.35V56.2M53.9091 67.35H42.7727M53.9091 56.2V45.05M53.9091 56.2H42.7727M53.9091 45.05V33.9M53.9091 45.05H42.7727M53.9091 33.9V22.75M53.9091 33.9H42.7727M53.9091 22.75V11.6M53.9091 22.75H42.7727M53.9091 11.6V0.449997M53.9091 11.6H42.7727M53.9091 0.449997V-10.7M53.9091 0.449997H42.7727M53.9091 -10.7V-21.85M53.9091 -10.7H42.7727M53.9091 -21.85V-33M53.9091 -21.85H42.7727M53.9091 -33H42.7727M42.7727 190V178.85M42.7727 190H31.6364M42.7727 178.85V167.7M42.7727 178.85H31.6364M42.7727 167.7V156.55M42.7727 167.7H31.6364M42.7727 156.55H31.6364M42.7727 156.55V123.1M42.7727 123.1V111.95M42.7727 123.1H31.6364M42.7727 111.95V100.8M42.7727 111.95H31.6364M42.7727 100.8V89.65M42.7727 100.8H31.6364M42.7727 89.65V78.5M42.7727 89.65H31.6364M42.7727 78.5V67.35M42.7727 78.5H31.6364M42.7727 67.35V56.2M42.7727 67.35H31.6364M42.7727 56.2V45.05M42.7727 56.2H31.6364M42.7727 45.05V33.9M42.7727 45.05H31.6364M42.7727 33.9V22.75M42.7727 33.9H31.6364M42.7727 22.75V11.6M42.7727 22.75H31.6364M42.7727 11.6V0.449997M42.7727 11.6H31.6364M42.7727 0.449997V-10.7M42.7727 0.449997H31.6364M42.7727 -10.7V-21.85M42.7727 -10.7H31.6364M42.7727 -21.85V-33M42.7727 -21.85H31.6364M42.7727 -33H31.6364M31.6364 190V178.85M31.6364 190H20.5M31.6364 178.85V167.7M31.6364 178.85H20.5M31.6364 167.7V156.55M31.6364 167.7H20.5M31.6364 156.55H20.5M31.6364 156.55V123.1M31.6364 123.1V111.95M31.6364 123.1H20.5M31.6364 111.95V100.8M31.6364 111.95H20.5M31.6364 100.8V89.65M31.6364 100.8H20.5M31.6364 89.65V78.5M31.6364 89.65H20.5M31.6364 78.5V67.35M31.6364 78.5H20.5M31.6364 67.35V56.2M31.6364 67.35H20.5M31.6364 56.2V45.05M31.6364 56.2H20.5M31.6364 45.05V33.9M31.6364 45.05H20.5M31.6364 33.9V22.75M31.6364 33.9H20.5M31.6364 22.75V11.6M31.6364 22.75H20.5M31.6364 11.6V0.449997M31.6364 11.6H20.5M31.6364 0.449997V-10.7M31.6364 0.449997H20.5M31.6364 -10.7V-21.85M31.6364 -10.7H20.5M31.6364 -21.85V-33M31.6364 -21.85H20.5M31.6364 -33H20.5M20.5 190V178.85M20.5 190H9.36365M20.5 178.85V167.7M20.5 178.85H9.36365M20.5 167.7V156.55M20.5 167.7H9.36365M20.5 156.55V145.4M20.5 156.55H9.36365M20.5 145.4V134.25M20.5 145.4H9.36365M20.5 134.25V123.1M20.5 134.25H9.36365M20.5 123.1V111.95M20.5 123.1H9.36365M20.5 111.95V100.8M20.5 111.95H9.36365M20.5 100.8V89.65M20.5 100.8H9.36365M20.5 89.65V78.5M20.5 89.65H9.36365M20.5 78.5V67.35M20.5 78.5H9.36365M20.5 67.35V56.2M20.5 67.35H9.36365M20.5 56.2V45.05M20.5 56.2H9.36365M20.5 45.05V33.9M20.5 45.05H9.36365M20.5 33.9V22.75M20.5 33.9H9.36365M20.5 22.75V11.6M20.5 22.75H9.36365M20.5 11.6V0.449997M20.5 11.6H9.36365M20.5 0.449997V-10.7M20.5 0.449997H9.36365M20.5 -10.7V-21.85M20.5 -10.7H9.36365M20.5 -21.85V-33M20.5 -21.85H9.36365M20.5 -33H9.36365M9.36365 190V178.85M9.36365 190H-1.77274M9.36365 178.85V167.7M9.36365 178.85H-1.77274M9.36365 167.7V156.55M9.36365 167.7H-1.77274M9.36365 156.55V145.4M9.36365 156.55H-1.77274M9.36365 145.4V134.25M9.36365 145.4H-1.77274M9.36365 134.25V123.1M9.36365 134.25H-1.77274M9.36365 123.1V111.95M9.36365 123.1H-1.77274M9.36365 111.95V100.8M9.36365 111.95H-1.77274M9.36365 100.8V89.65M9.36365 100.8H-1.77274M9.36365 89.65V78.5M9.36365 89.65H-1.77274M9.36365 78.5V67.35M9.36365 78.5H-1.77274M9.36365 67.35V56.2M9.36365 67.35H-1.77274M9.36365 56.2V45.05M9.36365 56.2H-1.77274M9.36365 45.05V33.9M9.36365 45.05H-1.77274M9.36365 33.9V22.75M9.36365 33.9H-1.77274M9.36365 22.75V11.6M9.36365 22.75H-1.77274M9.36365 11.6V0.449997M9.36365 11.6H-1.77274M9.36365 0.449997V-10.7M9.36365 0.449997H-1.77274M9.36365 -10.7V-21.85M9.36365 -10.7H-1.77274M9.36365 -21.85V-33M9.36365 -21.85H-1.77274M9.36365 -33H-1.77274M-1.77274 190V178.85M-1.77274 190H-12.9091M-1.77274 178.85V167.7M-1.77274 178.85H-12.9091M-1.77274 167.7V156.55M-1.77274 167.7H-12.9091M-1.77274 156.55V145.4M-1.77274 156.55H-12.9091M-1.77274 145.4V134.25M-1.77274 145.4H-12.9091M-1.77274 134.25V123.1M-1.77274 134.25H-12.9091M-1.77274 123.1V111.95M-1.77274 123.1H-12.9091M-1.77274 111.95V100.8M-1.77274 111.95H-12.9091M-1.77274 100.8V89.65M-1.77274 100.8H-12.9091M-1.77274 89.65V78.5M-1.77274 89.65H-12.9091M-1.77274 78.5V67.35M-1.77274 78.5H-12.9091M-1.77274 67.35V56.2M-1.77274 67.35H-12.9091M-1.77274 56.2V45.05M-1.77274 56.2H-12.9091M-1.77274 45.05V33.9M-1.77274 45.05H-12.9091M-1.77274 33.9V22.75M-1.77274 33.9H-12.9091M-1.77274 22.75V11.6M-1.77274 22.75H-12.9091M-1.77274 11.6V0.449997M-1.77274 11.6H-12.9091M-1.77274 0.449997V-10.7M-1.77274 0.449997H-12.9091M-1.77274 -10.7V-21.85M-1.77274 -10.7H-12.9091M-1.77274 -21.85V-33M-1.77274 -21.85H-12.9091M-1.77274 -33H-12.9091M-12.9091 190V178.85M-12.9091 190H-24.0455M-12.9091 178.85V167.7M-12.9091 178.85H-24.0455M-12.9091 167.7V156.55M-12.9091 167.7H-24.0455M-12.9091 156.55V145.4M-12.9091 156.55H-24.0455M-12.9091 145.4V134.25M-12.9091 145.4H-24.0455M-12.9091 134.25V123.1M-12.9091 134.25H-24.0455M-12.9091 123.1V111.95M-12.9091 123.1H-24.0455M-12.9091 111.95V100.8M-12.9091 111.95H-24.0455M-12.9091 100.8V89.65M-12.9091 100.8H-24.0455M-12.9091 89.65V78.5M-12.9091 89.65H-24.0455M-12.9091 78.5V67.35M-12.9091 78.5H-24.0455M-12.9091 67.35V56.2M-12.9091 67.35H-24.0455M-12.9091 56.2V45.05M-12.9091 56.2H-24.0455M-12.9091 45.05V33.9M-12.9091 45.05H-24.0455M-12.9091 33.9V22.75M-12.9091 33.9H-24.0455M-12.9091 22.75V11.6M-12.9091 22.75H-24.0455M-12.9091 11.6V0.449997M-12.9091 11.6H-24.0455M-12.9091 0.449997V-10.7M-12.9091 0.449997H-24.0455M-12.9091 -10.7V-21.85M-12.9091 -10.7H-24.0455M-12.9091 -21.85V-33M-12.9091 -21.85H-24.0455M-12.9091 -33H-24.0455M-24.0455 190V178.85M-24.0455 190H-35.1818M-24.0455 178.85V167.7M-24.0455 178.85H-35.1818M-24.0455 167.7V156.55M-24.0455 167.7H-35.1818M-24.0455 156.55V145.4M-24.0455 156.55H-35.1818M-24.0455 145.4V134.25M-24.0455 145.4H-35.1818M-24.0455 134.25V123.1M-24.0455 134.25H-35.1818M-24.0455 123.1V111.95M-24.0455 123.1H-35.1818M-24.0455 111.95H-35.1818M-24.0455 111.95V100.8M-24.0455 100.8V89.65M-24.0455 100.8H-35.1818M-24.0455 89.65V78.5M-24.0455 89.65H-35.1818M-24.0455 78.5V67.35M-24.0455 78.5H-35.1818M-24.0455 67.35V56.2M-24.0455 67.35H-35.1818M-24.0455 56.2V45.05M-24.0455 56.2H-35.1818M-24.0455 45.05V33.9M-24.0455 45.05H-35.1818M-24.0455 33.9V22.75M-24.0455 33.9H-35.1818M-24.0455 22.75V11.6M-24.0455 22.75H-35.1818M-24.0455 11.6V0.449997M-24.0455 11.6H-35.1818M-24.0455 0.449997V-10.7M-24.0455 0.449997H-35.1818M-24.0455 -10.7V-21.85M-24.0455 -10.7H-35.1818M-24.0455 -21.85V-33M-24.0455 -21.85H-35.1818M-24.0455 -33H-35.1818M-35.1818 190V178.85M-35.1818 190H-46.3182M-35.1818 178.85V167.7M-35.1818 178.85H-46.3182M-35.1818 167.7V156.55M-35.1818 167.7H-46.3182M-35.1818 156.55V145.4M-35.1818 156.55H-46.3182M-35.1818 145.4V134.25M-35.1818 145.4H-46.3182M-35.1818 134.25V123.1M-35.1818 134.25H-46.3182M-35.1818 123.1V111.95M-35.1818 123.1H-46.3182M-35.1818 111.95V100.8M-35.1818 111.95H-46.3182M-35.1818 100.8V89.65M-35.1818 100.8H-46.3182M-35.1818 89.65V78.5M-35.1818 89.65H-46.3182M-35.1818 78.5V67.35M-35.1818 78.5H-46.3182M-35.1818 67.35V56.2M-35.1818 67.35H-46.3182M-35.1818 56.2V45.05M-35.1818 56.2H-46.3182M-35.1818 45.05V33.9M-35.1818 45.05H-46.3182M-35.1818 33.9V22.75M-35.1818 33.9H-46.3182M-35.1818 22.75V11.6M-35.1818 22.75H-46.3182M-35.1818 11.6V0.449997M-35.1818 11.6H-46.3182M-35.1818 0.449997V-10.7M-35.1818 0.449997H-46.3182M-35.1818 -10.7V-21.85M-35.1818 -10.7H-46.3182M-35.1818 -21.85V-33M-35.1818 -21.85H-46.3182M-35.1818 -33H-46.3182M-46.3182 190V178.85M-46.3182 190H-57.4546M-46.3182 178.85V167.7M-46.3182 178.85H-57.4546M-46.3182 167.7V156.55M-46.3182 167.7H-57.4546M-46.3182 156.55V145.4M-46.3182 156.55H-57.4546M-46.3182 145.4V134.25M-46.3182 145.4H-57.4546M-46.3182 134.25V123.1M-46.3182 134.25H-57.4546M-46.3182 123.1V111.95M-46.3182 123.1H-57.4546M-46.3182 111.95V100.8M-46.3182 111.95H-57.4546M-46.3182 100.8V89.65M-46.3182 100.8H-57.4546M-46.3182 89.65V78.5M-46.3182 89.65H-57.4546M-46.3182 78.5V67.35M-46.3182 78.5H-57.4546M-46.3182 67.35V56.2M-46.3182 67.35H-57.4546M-46.3182 56.2V45.05M-46.3182 56.2H-57.4546M-46.3182 45.05V33.9M-46.3182 45.05H-57.4546M-46.3182 33.9V22.75M-46.3182 33.9H-57.4546M-46.3182 22.75V11.6M-46.3182 22.75H-57.4546M-46.3182 11.6V0.449997M-46.3182 11.6H-57.4546M-46.3182 0.449997V-10.7M-46.3182 0.449997H-57.4546M-46.3182 -10.7V-21.85M-46.3182 -10.7H-57.4546M-46.3182 -21.85V-33M-46.3182 -21.85H-57.4546M-46.3182 -33H-57.4546M-57.4546 190V178.85M-57.4546 190H-68.5909M-57.4546 178.85V167.7M-57.4546 178.85H-68.5909M-57.4546 167.7V156.55M-57.4546 167.7H-68.5909M-57.4546 156.55V145.4M-57.4546 156.55H-68.5909M-57.4546 145.4V134.25M-57.4546 145.4H-68.5909M-57.4546 134.25V123.1M-57.4546 134.25H-68.5909M-57.4546 123.1V111.95M-57.4546 123.1H-68.5909M-57.4546 111.95V100.8M-57.4546 111.95H-68.5909M-57.4546 100.8V89.65M-57.4546 100.8H-68.5909M-57.4546 89.65V78.5M-57.4546 89.65H-68.5909M-57.4546 78.5V67.35M-57.4546 78.5H-68.5909M-57.4546 67.35V56.2M-57.4546 67.35H-68.5909M-57.4546 56.2V45.05M-57.4546 56.2H-68.5909M-57.4546 45.05V33.9M-57.4546 45.05H-68.5909M-57.4546 33.9V22.75M-57.4546 33.9H-68.5909M-57.4546 22.75V11.6M-57.4546 22.75H-68.5909M-57.4546 11.6V0.449997M-57.4546 11.6H-68.5909M-57.4546 0.449997V-10.7M-57.4546 0.449997H-68.5909M-57.4546 -10.7V-21.85M-57.4546 -10.7H-68.5909M-57.4546 -21.85V-33M-57.4546 -21.85H-68.5909M-57.4546 -33H-68.5909M-68.5909 190V178.85M-68.5909 190H-79.7273M-68.5909 178.85V167.7M-68.5909 178.85H-79.7273M-68.5909 167.7V156.55M-68.5909 167.7H-79.7273M-68.5909 156.55V145.4M-68.5909 156.55H-79.7273M-68.5909 145.4V134.25M-68.5909 145.4H-79.7273M-68.5909 134.25V123.1M-68.5909 134.25H-79.7273M-68.5909 123.1V111.95M-68.5909 123.1H-79.7273M-68.5909 111.95V100.8M-68.5909 111.95H-79.7273M-68.5909 100.8V89.65M-68.5909 100.8H-79.7273M-68.5909 89.65V78.5M-68.5909 89.65H-79.7273M-68.5909 78.5V67.35M-68.5909 78.5H-79.7273M-68.5909 67.35V56.2M-68.5909 67.35H-79.7273M-68.5909 56.2V45.05M-68.5909 56.2H-79.7273M-68.5909 45.05V33.9M-68.5909 45.05H-79.7273M-68.5909 33.9V22.75M-68.5909 33.9H-79.7273M-68.5909 22.75V11.6M-68.5909 22.75H-79.7273M-68.5909 11.6V0.449997M-68.5909 11.6H-79.7273M-68.5909 0.449997V-10.7M-68.5909 0.449997H-79.7273M-68.5909 -10.7V-21.85M-68.5909 -10.7H-79.7273M-68.5909 -21.85V-33M-68.5909 -21.85H-79.7273M-68.5909 -33H-79.7273M-79.7273 190V178.85M-79.7273 190H-90.8636M-79.7273 178.85V167.7M-79.7273 178.85H-90.8636M-79.7273 167.7V156.55M-79.7273 167.7H-90.8636M-79.7273 156.55V145.4M-79.7273 156.55H-90.8636M-79.7273 145.4V134.25M-79.7273 145.4H-90.8636M-79.7273 134.25V123.1M-79.7273 134.25H-90.8636M-79.7273 123.1V111.95M-79.7273 123.1H-90.8636M-79.7273 111.95V100.8M-79.7273 111.95H-90.8636M-79.7273 100.8V89.65M-79.7273 100.8H-90.8636M-79.7273 89.65V78.5M-79.7273 89.65H-90.8636M-79.7273 78.5V67.35M-79.7273 78.5H-90.8636M-79.7273 67.35V56.2M-79.7273 67.35H-90.8636M-79.7273 56.2V45.05M-79.7273 56.2H-90.8636M-79.7273 45.05V33.9M-79.7273 45.05H-90.8636M-79.7273 33.9V22.75M-79.7273 33.9H-90.8636M-79.7273 22.75V11.6M-79.7273 22.75H-90.8636M-79.7273 11.6V0.449997M-79.7273 11.6H-90.8636M-79.7273 0.449997V-10.7M-79.7273 0.449997H-90.8636M-79.7273 -10.7V-21.85M-79.7273 -10.7H-90.8636M-79.7273 -21.85V-33M-79.7273 -21.85H-90.8636M-79.7273 -33H-90.8636M-90.8636 190V178.85M-90.8636 190H-102V178.85M-90.8636 178.85V167.7M-90.8636 178.85H-102M-90.8636 167.7V156.55M-90.8636 167.7H-102M-90.8636 156.55V145.4M-90.8636 156.55H-102M-90.8636 145.4V134.25M-90.8636 145.4H-102M-90.8636 134.25V123.1M-90.8636 134.25H-102M-90.8636 123.1V111.95M-90.8636 123.1H-102M-90.8636 111.95V100.8M-90.8636 111.95H-102M-90.8636 100.8V89.65M-90.8636 100.8H-102M-90.8636 89.65V78.5M-90.8636 89.65H-102M-90.8636 78.5V67.35M-90.8636 78.5H-102M-90.8636 67.35V56.2M-90.8636 67.35H-102M-90.8636 56.2V45.05M-90.8636 56.2H-102M-90.8636 45.05V33.9M-90.8636 45.05H-102M-90.8636 33.9V22.75M-90.8636 33.9H-102M-90.8636 22.75V11.6M-90.8636 22.75H-102M-90.8636 11.6V0.449997M-90.8636 11.6H-102M-90.8636 0.449997V-10.7M-90.8636 0.449997H-102M-90.8636 -10.7V-21.85M-90.8636 -10.7H-102M-90.8636 -21.85V-33M-90.8636 -21.85H-102M-90.8636 -33H-102V-21.85M-102 178.85V167.7M-102 167.7V156.55M-102 156.55V145.4M-102 145.4V134.25M-102 134.25V123.1M-102 123.1V111.95M-102 111.95V100.8M-102 100.8V89.65M-102 89.65V78.5M-102 78.5V67.35M-102 67.35V56.2M-102 56.2V45.05M-102 45.05V33.9M-102 33.9V22.75M-102 22.75V11.6M-102 11.6V0.449997M-102 0.449997V-10.7M-102 -10.7V-21.85" stroke="url(#paint0_linear_2047_20)"/>
<defs>
<linearGradient id="paint0_linear_2047_20" x1="143" y1="124.215" x2="143" y2="-87.7744" gradientUnits="userSpaceOnUse">
<stop stop-color="#B4B9C9" stop-opacity="0.15"/>
<stop offset="1" stop-color="#B4B9C9" stop-opacity="0"/>
</linearGradient>
</defs>
</svg>
