<svg width="352" height="310" viewBox="0 0 352 310" fill="none" xmlns="http://www.w3.org/2000/svg">
<path d="M578.667 0H563.257V15.45H578.667V0Z" fill="white"/>
<path d="M578.667 15.45H563.257V30.9H578.667V15.45Z" fill="white"/>
<path d="M578.667 30.9H563.257V46.35H578.667V30.9Z" fill="white"/>
<path d="M578.667 46.35H563.257V61.8H578.667V46.35Z" fill="white"/>
<path d="M578.667 61.8H563.257V77.25H578.667V61.8Z" fill="white"/>
<path d="M578.667 77.25H563.257V92.7H578.667V77.25Z" fill="white"/>
<path d="M578.667 92.7H563.257V108.15H578.667V92.7Z" fill="white"/>
<path d="M578.667 108.15H563.257V123.6H578.667V108.15Z" fill="white"/>
<path d="M578.667 123.6H563.257V139.05H578.667V123.6Z" fill="white"/>
<path d="M578.667 139.05H563.257V154.5H578.667V139.05Z" fill="white"/>
<path d="M578.667 154.5H563.257V169.95H578.667V154.5Z" fill="white"/>
<path d="M578.667 169.95H563.257V185.4H578.667V169.95Z" fill="white"/>
<path d="M578.667 185.4H563.257V200.85H578.667V185.4Z" fill="white"/>
<path d="M578.667 200.85H563.257V216.3H578.667V200.85Z" fill="white"/>
<path d="M578.667 216.3H563.257V231.75H578.667V216.3Z" fill="white"/>
<path d="M578.667 231.75H563.257V247.2H578.667V231.75Z" fill="white"/>
<path d="M578.667 247.2H563.257V262.65H578.667V247.2Z" fill="white"/>
<path d="M578.667 262.65H563.257V278.1H578.667V262.65Z" fill="white"/>
<path d="M578.667 278.1H563.257V293.55H578.667V278.1Z" fill="white"/>
<path d="M578.667 293.55H563.257V309H578.667V293.55Z" fill="white"/>
<path d="M563.257 0H547.848V15.45H563.257V0Z" fill="white"/>
<path d="M563.257 15.45H547.848V30.9H563.257V15.45Z" fill="white"/>
<path d="M563.257 30.9H547.848V46.35H563.257V30.9Z" fill="white"/>
<path d="M563.257 46.35H547.848V61.8H563.257V46.35Z" fill="white"/>
<path d="M563.257 61.8H547.848V77.25H563.257V61.8Z" fill="white"/>
<path d="M563.257 77.25H547.848V92.7H563.257V77.25Z" fill="white"/>
<path d="M563.257 92.7H547.848V108.15H563.257V92.7Z" fill="white"/>
<path d="M563.257 108.15H547.848V123.6H563.257V108.15Z" fill="white"/>
<path d="M563.257 123.6H547.848V139.05H563.257V123.6Z" fill="white"/>
<path d="M563.257 139.05H547.848V154.5H563.257V139.05Z" fill="white"/>
<path d="M563.257 154.5H547.848V169.95H563.257V154.5Z" fill="white"/>
<path d="M563.257 169.95H547.848V185.4H563.257V169.95Z" fill="white"/>
<path d="M563.257 185.4H547.848V200.85H563.257V185.4Z" fill="white"/>
<path d="M563.257 200.85H547.848V216.3H563.257V200.85Z" fill="white"/>
<path d="M563.257 216.3H547.848V231.75H563.257V216.3Z" fill="white"/>
<path d="M563.257 231.75H547.848V247.2H563.257V231.75Z" fill="white"/>
<path d="M563.257 247.2H547.848V262.65H563.257V247.2Z" fill="white"/>
<path d="M563.257 262.65H547.848V278.1H563.257V262.65Z" fill="white"/>
<path d="M563.257 278.1H547.848V293.55H563.257V278.1Z" fill="white"/>
<path d="M563.257 293.55H547.848V309H563.257V293.55Z" fill="white"/>
<path d="M547.848 0H532.439V15.45H547.848V0Z" fill="white"/>
<path d="M547.848 15.45H532.439V30.9H547.848V15.45Z" fill="white"/>
<path d="M547.848 30.9H532.439V46.35H547.848V30.9Z" fill="white"/>
<path d="M547.848 46.35H532.439V61.8H547.848V46.35Z" fill="white"/>
<path d="M547.848 61.8H532.439V77.25H547.848V61.8Z" fill="white"/>
<path d="M547.848 77.25H532.439V92.7H547.848V77.25Z" fill="white"/>
<path d="M547.848 92.7H532.439V108.15H547.848V92.7Z" fill="white"/>
<path d="M547.848 108.15H532.439V123.6H547.848V108.15Z" fill="white"/>
<path d="M547.848 123.6H532.439V139.05H547.848V123.6Z" fill="white"/>
<path d="M547.848 139.05H532.439V154.5H547.848V139.05Z" fill="white"/>
<path d="M547.848 154.5H532.439V169.95H547.848V154.5Z" fill="white"/>
<path d="M547.848 169.95H532.439V185.4H547.848V169.95Z" fill="white"/>
<path d="M547.848 185.4H532.439V200.85H547.848V185.4Z" fill="white"/>
<path d="M547.848 200.85H532.439V216.3H547.848V200.85Z" fill="white"/>
<path d="M547.848 216.3H532.439V231.75H547.848V216.3Z" fill="white"/>
<path d="M547.848 231.75H532.439V247.2H547.848V231.75Z" fill="white"/>
<path d="M547.848 247.2H532.439V262.65H547.848V247.2Z" fill="white"/>
<path d="M547.848 262.65H532.439V278.1H547.848V262.65Z" fill="white"/>
<path d="M547.848 278.1H532.439V293.55H547.848V278.1Z" fill="white"/>
<path d="M547.848 293.55H532.439V309H547.848V293.55Z" fill="white"/>
<path d="M532.439 0H517.03V15.45H532.439V0Z" fill="white"/>
<path d="M532.439 15.45H517.03V30.9H532.439V15.45Z" fill="white"/>
<path d="M532.439 30.9H517.03V46.35H532.439V30.9Z" fill="white"/>
<path d="M532.439 46.35H517.03V61.8H532.439V46.35Z" fill="white"/>
<path d="M532.439 61.8H517.03V77.25H532.439V61.8Z" fill="white"/>
<path d="M532.439 77.25H517.03V92.7H532.439V77.25Z" fill="white"/>
<path d="M532.439 92.7H517.03V108.15H532.439V92.7Z" fill="white"/>
<path d="M532.439 108.15H517.03V123.6H532.439V108.15Z" fill="white"/>
<path d="M532.439 123.6H517.03V139.05H532.439V123.6Z" fill="white"/>
<path d="M532.439 139.05H517.03V154.5H532.439V139.05Z" fill="white"/>
<path d="M532.439 154.5H517.03V169.95H532.439V154.5Z" fill="white"/>
<path d="M532.439 169.95H517.03V185.4H532.439V169.95Z" fill="white"/>
<path d="M532.439 185.4H517.03V200.85H532.439V185.4Z" fill="white"/>
<path d="M532.439 200.85H517.03V216.3H532.439V200.85Z" fill="white"/>
<path d="M532.439 216.3H517.03V231.75H532.439V216.3Z" fill="white"/>
<path d="M532.439 231.75H517.03V247.2H532.439V231.75Z" fill="white"/>
<path d="M532.439 247.2H517.03V262.65H532.439V247.2Z" fill="white"/>
<path d="M532.439 262.65H517.03V278.1H532.439V262.65Z" fill="white"/>
<path d="M532.439 278.1H517.03V293.55H532.439V278.1Z" fill="white"/>
<path d="M532.439 293.55H517.03V309H532.439V293.55Z" fill="white"/>
<path d="M517.03 0H501.621V15.45H517.03V0Z" fill="white"/>
<path d="M517.03 15.45H501.621V30.9H517.03V15.45Z" fill="white"/>
<path d="M517.03 30.9H501.621V46.35H517.03V30.9Z" fill="white"/>
<path d="M517.03 46.35H501.621V61.8H517.03V46.35Z" fill="white"/>
<path d="M517.03 61.8H501.621V77.25H517.03V61.8Z" fill="white"/>
<path d="M517.03 77.25H501.621V92.7H517.03V77.25Z" fill="white"/>
<path d="M517.03 92.7H501.621V108.15H517.03V92.7Z" fill="white"/>
<path d="M517.03 108.15H501.621V123.6H517.03V108.15Z" fill="white"/>
<path d="M517.03 123.6H501.621V139.05H517.03V123.6Z" fill="white"/>
<path d="M517.03 139.05H501.621V154.5H517.03V139.05Z" fill="white"/>
<path d="M517.03 154.5H501.621V169.95H517.03V154.5Z" fill="white"/>
<path d="M517.03 169.95H501.621V185.4H517.03V169.95Z" fill="white"/>
<path d="M517.03 185.4H501.621V200.85H517.03V185.4Z" fill="white"/>
<path d="M517.03 200.85H501.621V216.3H517.03V200.85Z" fill="white"/>
<path d="M517.03 216.3H501.621V231.75H517.03V216.3Z" fill="white"/>
<path d="M517.03 231.75H501.621V247.2H517.03V231.75Z" fill="white"/>
<path d="M517.03 247.2H501.621V262.65H517.03V247.2Z" fill="white"/>
<path d="M517.03 262.65H501.621V278.1H517.03V262.65Z" fill="white"/>
<path d="M517.03 278.1H501.621V293.55H517.03V278.1Z" fill="white"/>
<path d="M517.03 293.55H501.621V309H517.03V293.55Z" fill="white"/>
<path d="M501.621 0H486.212V15.45H501.621V0Z" fill="white"/>
<path d="M501.621 15.45H486.212V30.9H501.621V15.45Z" fill="white"/>
<path d="M501.621 30.9H486.212V46.35H501.621V30.9Z" fill="white"/>
<path d="M501.621 46.35H486.212V61.8H501.621V46.35Z" fill="white"/>
<path d="M501.621 61.8H486.212V77.25H501.621V61.8Z" fill="white"/>
<path d="M501.621 77.25H486.212V92.7H501.621V77.25Z" fill="white"/>
<path d="M501.621 92.7H486.212V108.15H501.621V92.7Z" fill="white"/>
<path d="M501.621 108.15H486.212V123.6H501.621V108.15Z" fill="white"/>
<path d="M501.621 123.6H486.212V139.05H501.621V123.6Z" fill="white"/>
<path d="M501.621 139.05H486.212V154.5H501.621V139.05Z" fill="white"/>
<path d="M501.621 154.5H486.212V169.95H501.621V154.5Z" fill="white"/>
<path d="M501.621 169.95H486.212V185.4H501.621V169.95Z" fill="white"/>
<path d="M501.621 185.4H486.212V200.85H501.621V185.4Z" fill="white"/>
<path d="M501.621 200.85H486.212V216.3H501.621V200.85Z" fill="white"/>
<path d="M501.621 216.3H486.212V231.75H501.621V216.3Z" fill="white"/>
<path d="M501.621 231.75H486.212V247.2H501.621V231.75Z" fill="white"/>
<path d="M501.621 247.2H486.212V262.65H501.621V247.2Z" fill="white"/>
<path d="M501.621 262.65H486.212V278.1H501.621V262.65Z" fill="white"/>
<path d="M501.621 278.1H486.212V293.55H501.621V278.1Z" fill="white"/>
<path d="M501.621 293.55H486.212V309H501.621V293.55Z" fill="white"/>
<path d="M486.212 0H470.803V15.45H486.212V0Z" fill="white"/>
<path d="M486.212 15.45H470.803V30.9H486.212V15.45Z" fill="white"/>
<path d="M486.212 30.9H470.803V46.35H486.212V30.9Z" fill="white"/>
<path d="M486.212 46.35H470.803V61.8H486.212V46.35Z" fill="white"/>
<path d="M486.212 61.8H470.803V77.25H486.212V61.8Z" fill="white"/>
<path d="M486.212 77.25H470.803V92.7H486.212V77.25Z" fill="white"/>
<path d="M486.212 92.7H470.803V108.15H486.212V92.7Z" fill="white"/>
<path d="M486.212 123.6H470.803V139.05H486.212V123.6Z" fill="white"/>
<path d="M486.212 139.05H470.803V154.5H486.212V139.05Z" fill="white"/>
<path d="M486.212 154.5H470.803V169.95H486.212V154.5Z" fill="white"/>
<path d="M486.212 169.95H470.803V185.4H486.212V169.95Z" fill="white"/>
<path d="M486.212 185.4H470.803V200.85H486.212V185.4Z" fill="white"/>
<path d="M486.212 200.85H470.803V216.3H486.212V200.85Z" fill="white"/>
<path d="M486.212 216.3H470.803V231.75H486.212V216.3Z" fill="white"/>
<path d="M486.212 231.75H470.803V247.2H486.212V231.75Z" fill="white"/>
<path d="M486.212 247.2H470.803V262.65H486.212V247.2Z" fill="white"/>
<path d="M486.212 262.65H470.803V278.1H486.212V262.65Z" fill="white"/>
<path d="M486.212 278.1H470.803V293.55H486.212V278.1Z" fill="white"/>
<path d="M486.212 293.55H470.803V309H486.212V293.55Z" fill="white"/>
<path d="M470.803 0H455.394V15.45H470.803V0Z" fill="white"/>
<path d="M470.803 15.45H455.394V30.9H470.803V15.45Z" fill="white"/>
<path d="M470.803 30.9H455.394V46.35H470.803V30.9Z" fill="white"/>
<path d="M470.803 46.35H455.394V61.8H470.803V46.35Z" fill="white"/>
<path d="M470.803 61.8H455.394V77.25H470.803V61.8Z" fill="white"/>
<path d="M470.803 77.25H455.394V92.7H470.803V77.25Z" fill="white"/>
<path d="M470.803 92.7H455.394V108.15H470.803V92.7Z" fill="white"/>
<path d="M470.803 123.6H455.394V139.05H470.803V123.6Z" fill="white"/>
<path d="M470.803 139.05H455.394V154.5H470.803V139.05Z" fill="white"/>
<path d="M470.803 154.5H455.394V169.95H470.803V154.5Z" fill="white"/>
<path d="M470.803 169.95H455.394V185.4H470.803V169.95Z" fill="white"/>
<path d="M470.803 185.4H455.394V200.85H470.803V185.4Z" fill="white"/>
<path d="M470.803 200.85H455.394V216.3H470.803V200.85Z" fill="white"/>
<path d="M470.803 216.3H455.394V231.75H470.803V216.3Z" fill="white"/>
<path d="M470.803 231.75H455.394V247.2H470.803V231.75Z" fill="white"/>
<path d="M470.803 247.2H455.394V262.65H470.803V247.2Z" fill="white"/>
<path d="M470.803 262.65H455.394V278.1H470.803V262.65Z" fill="white"/>
<path d="M470.803 278.1H455.394V293.55H470.803V278.1Z" fill="white"/>
<path d="M470.803 293.55H455.394V309H470.803V293.55Z" fill="white"/>
<path d="M455.394 0H439.985V15.45H455.394V0Z" fill="white"/>
<path d="M455.394 15.45H439.985V30.9H455.394V15.45Z" fill="white"/>
<path d="M455.394 30.9H439.985V46.35H455.394V30.9Z" fill="white"/>
<path d="M455.394 46.35H439.985V61.8H455.394V46.35Z" fill="white"/>
<path d="M455.394 61.8H439.985V77.25H455.394V61.8Z" fill="white"/>
<path d="M455.394 77.25H439.985V92.7H455.394V77.25Z" fill="white"/>
<path d="M455.394 92.7H439.985V108.15H455.394V92.7Z" fill="white"/>
<path d="M455.394 108.15H439.985V123.6H455.394V108.15Z" fill="white"/>
<path d="M455.394 123.6H439.985V139.05H455.394V123.6Z" fill="white"/>
<path d="M455.394 139.05H439.985V154.5H455.394V139.05Z" fill="white"/>
<path d="M455.394 154.5H439.985V169.95H455.394V154.5Z" fill="white"/>
<path d="M455.394 169.95H439.985V185.4H455.394V169.95Z" fill="white"/>
<path d="M455.394 185.4H439.985C439.985 185.4 439.985 194.816 439.985 200.85C446.002 200.85 455.394 200.85 455.394 200.85V185.4Z" fill="white"/>
<path d="M455.394 200.85C455.394 200.85 446.002 200.85 439.985 200.85C439.985 206.884 439.985 216.3 439.985 216.3H455.394V200.85Z" fill="white"/>
<path d="M455.394 216.3H439.985V231.75H455.394V216.3Z" fill="white"/>
<path d="M455.394 231.75H439.985V247.2H455.394V231.75Z" fill="white"/>
<path d="M455.394 247.2H439.985V262.65H455.394V247.2Z" fill="white"/>
<path d="M455.394 262.65H439.985V278.1H455.394V262.65Z" fill="white"/>
<path d="M455.394 278.1H439.985V293.55H455.394V278.1Z" fill="white"/>
<path d="M455.394 293.55H439.985V309H455.394V293.55Z" fill="white"/>
<path d="M439.985 0H424.576V15.45H439.985V0Z" fill="white"/>
<path d="M439.985 15.45H424.576V30.9H439.985V15.45Z" fill="white"/>
<path d="M439.985 30.9H424.576V46.35H439.985V30.9Z" fill="white"/>
<path d="M439.985 46.35H424.576V61.8H439.985V46.35Z" fill="white"/>
<path d="M439.985 61.8H424.576V77.25H439.985V61.8Z" fill="white"/>
<path d="M439.985 77.25H424.576V92.7H439.985V77.25Z" fill="white"/>
<path d="M439.985 92.7H424.576V108.15H439.985V92.7Z" fill="white"/>
<path d="M439.985 108.15H424.576V123.6H439.985V108.15Z" fill="white"/>
<path d="M439.985 123.6H424.576V139.05H439.985V123.6Z" fill="white"/>
<path d="M439.985 139.05H424.576V154.5H439.985V139.05Z" fill="white"/>
<path d="M439.985 154.5H424.576V169.95H439.985V154.5Z" fill="white"/>
<path d="M439.985 169.95H424.576V185.4H439.985V169.95Z" fill="white"/>
<path d="M439.985 185.4H424.576V200.85C424.576 200.85 433.967 200.85 439.985 200.85C439.985 194.816 439.985 185.4 439.985 185.4Z" fill="white"/>
<path d="M439.985 200.85C433.967 200.85 424.576 200.85 424.576 200.85V216.3H439.985C439.985 216.3 439.985 206.884 439.985 200.85Z" fill="white"/>
<path d="M439.985 216.3H424.576V231.75H439.985V216.3Z" fill="white"/>
<path d="M439.985 231.75H424.576V247.2H439.985V231.75Z" fill="white"/>
<path d="M439.985 247.2H424.576V262.65H439.985V247.2Z" fill="white"/>
<path d="M439.985 262.65H424.576V278.1H439.985V262.65Z" fill="white"/>
<path d="M439.985 278.1H424.576V293.55H439.985V278.1Z" fill="white"/>
<path d="M439.985 293.55H424.576V309H439.985V293.55Z" fill="white"/>
<path d="M424.576 0H409.167V15.45H424.576V0Z" fill="white"/>
<path d="M424.576 15.45H409.167V30.9H424.576V15.45Z" fill="white"/>
<path d="M424.576 30.9H409.167V46.35H424.576V30.9Z" fill="white"/>
<path d="M424.576 46.35H409.167V61.8H424.576V46.35Z" fill="white"/>
<path d="M424.576 61.8H409.167V77.25H424.576V61.8Z" fill="white"/>
<path d="M424.576 77.25H409.167V92.7H424.576V77.25Z" fill="white"/>
<path d="M424.576 92.7H409.167V108.15H424.576V92.7Z" fill="white"/>
<path d="M424.576 108.15H409.167V123.6H424.576V108.15Z" fill="white"/>
<path d="M424.576 123.6H409.167V139.05H424.576V123.6Z" fill="white"/>
<path d="M424.576 139.05H409.167V154.5H424.576V139.05Z" fill="white"/>
<path d="M424.576 154.5H409.167V169.95H424.576V154.5Z" fill="white"/>
<path d="M424.576 169.95H409.167V185.4H424.576V169.95Z" fill="white"/>
<path d="M424.576 185.4H409.167V200.85H424.576V185.4Z" fill="white"/>
<path d="M424.576 200.85H409.167V216.3H424.576V200.85Z" fill="white"/>
<path d="M424.576 216.3H409.167V231.75H424.576V216.3Z" fill="white"/>
<path d="M424.576 231.75H409.167V247.2H424.576V231.75Z" fill="white"/>
<path d="M424.576 247.2H409.167V262.65H424.576V247.2Z" fill="white"/>
<path d="M424.576 262.65H409.167V278.1H424.576V262.65Z" fill="white"/>
<path d="M424.576 278.1H409.167V293.55H424.576V278.1Z" fill="white"/>
<path d="M424.576 293.55H409.167V309H424.576V293.55Z" fill="white"/>
<path d="M409.167 0H393.757V15.45H409.167V0Z" fill="white"/>
<path d="M409.167 15.45H393.757V30.9H409.167V15.45Z" fill="white"/>
<path d="M409.167 30.9H393.757V46.35H409.167V30.9Z" fill="white"/>
<path d="M409.167 92.7H393.757V108.15H409.167V92.7Z" fill="white"/>
<path d="M409.167 108.15H393.757V123.6H409.167V108.15Z" fill="white"/>
<path d="M409.167 123.6H393.757V139.05H409.167V123.6Z" fill="white"/>
<path d="M409.167 139.05H393.757V154.5H409.167V139.05Z" fill="white"/>
<path d="M409.167 154.5H393.757V169.95H409.167V154.5Z" fill="white"/>
<path d="M409.167 169.95H393.757V185.4H409.167V169.95Z" fill="white"/>
<path d="M409.167 185.4H393.757V200.85H409.167V185.4Z" fill="white"/>
<path d="M409.167 200.85H393.757V216.3H409.167V200.85Z" fill="white"/>
<path d="M409.167 216.3H393.757V231.75H409.167V216.3Z" fill="white"/>
<path d="M409.167 231.75H393.757V247.2H409.167V231.75Z" fill="white"/>
<path d="M409.167 247.2H393.757V262.65H409.167V247.2Z" fill="white"/>
<path d="M409.167 262.65H393.757V278.1H409.167V262.65Z" fill="white"/>
<path d="M409.167 278.1H393.757V293.55H409.167V278.1Z" fill="white"/>
<path d="M409.167 293.55H393.757V309H409.167V293.55Z" fill="white"/>
<path d="M393.757 0H378.348V15.45H393.757V0Z" fill="white"/>
<path d="M393.757 15.45H378.348V30.9H393.757V15.45Z" fill="white"/>
<path d="M393.757 30.9H378.348V46.35H393.757V30.9Z" fill="white"/>
<path d="M393.757 92.7H378.348V108.15H393.757V92.7Z" fill="white"/>
<path d="M393.757 108.15H378.348V123.6H393.757V108.15Z" fill="white"/>
<path d="M393.757 123.6H378.348V139.05H393.757V123.6Z" fill="white"/>
<path d="M393.757 139.05H378.348V154.5H393.757V139.05Z" fill="white"/>
<path d="M393.757 154.5H378.348V169.95H393.757V154.5Z" fill="white"/>
<path d="M393.757 169.95H378.348V185.4H393.757V169.95Z" fill="white"/>
<path d="M393.757 185.4H378.348V200.85H393.757V185.4Z" fill="white"/>
<path d="M393.757 200.85H378.348V216.3H393.757V200.85Z" fill="white"/>
<path d="M393.757 216.3H378.348V231.75H393.757V216.3Z" fill="white"/>
<path d="M393.757 231.75H378.348V247.2H393.757V231.75Z" fill="white"/>
<path d="M393.757 247.2H378.348V262.65H393.757V247.2Z" fill="white"/>
<path d="M393.757 262.65H378.348V278.1H393.757V262.65Z" fill="white"/>
<path d="M393.757 278.1H378.348V293.55H393.757V278.1Z" fill="white"/>
<path d="M393.757 293.55H378.348V309H393.757V293.55Z" fill="white"/>
<path d="M378.348 0H362.939V15.45H378.348V0Z" fill="white"/>
<path d="M378.348 15.45H362.939V30.9H378.348V15.45Z" fill="white"/>
<path d="M378.348 30.9H362.939V46.35H378.348V30.9Z" fill="white"/>
<path d="M378.348 92.7H362.939V108.15H378.348V92.7Z" fill="white"/>
<path d="M378.348 108.15H362.939V123.6H378.348V108.15Z" fill="white"/>
<path d="M378.348 123.6H362.939V139.05H378.348V123.6Z" fill="white"/>
<path d="M378.348 139.05H362.939V154.5H378.348V139.05Z" fill="white"/>
<path d="M378.348 154.5H362.939V169.95H378.348V154.5Z" fill="white"/>
<path d="M378.348 169.95H362.939V185.4H378.348V169.95Z" fill="white"/>
<path d="M378.348 185.4H362.939V200.85H378.348V185.4Z" fill="white"/>
<path d="M378.348 200.85H362.939V216.3H378.348V200.85Z" fill="white"/>
<path d="M378.348 216.3H362.939V231.75H378.348V216.3Z" fill="white"/>
<path d="M378.348 231.75H362.939V247.2H378.348V231.75Z" fill="white"/>
<path d="M378.348 247.2H362.939V262.65H378.348V247.2Z" fill="white"/>
<path d="M378.348 262.65H362.939V278.1H378.348V262.65Z" fill="white"/>
<path d="M378.348 278.1H362.939V293.55H378.348V278.1Z" fill="white"/>
<path d="M378.348 293.55H362.939V309H378.348V293.55Z" fill="white"/>
<path d="M362.939 0H347.53V15.45H362.939V0Z" fill="white"/>
<path d="M362.939 15.45H347.53V30.9H362.939V15.45Z" fill="white"/>
<path d="M362.939 30.9H347.53V46.35H362.939V30.9Z" fill="white"/>
<path d="M362.939 123.6H347.53V139.05H362.939V123.6Z" fill="white"/>
<path d="M362.939 139.05H347.53V154.5H362.939V139.05Z" fill="white"/>
<path d="M362.939 154.5H347.53V169.95H362.939V154.5Z" fill="white"/>
<path d="M362.939 169.95H347.53V185.4H362.939V169.95Z" fill="white"/>
<path d="M362.939 185.4H347.53V200.85H362.939V185.4Z" fill="white"/>
<path d="M362.939 200.85H347.53V216.3H362.939V200.85Z" fill="white"/>
<path d="M362.939 216.3H347.53V231.75H362.939V216.3Z" fill="white"/>
<path d="M362.939 231.75H347.53V247.2H362.939V231.75Z" fill="white"/>
<path d="M362.939 247.2H347.53V262.65H362.939V247.2Z" fill="white"/>
<path d="M362.939 262.65H347.53V278.1H362.939V262.65Z" fill="white"/>
<path d="M362.939 278.1H347.53V293.55H362.939V278.1Z" fill="white"/>
<path d="M362.939 293.55H347.53V309H362.939V293.55Z" fill="white"/>
<path d="M347.53 0H332.121V15.45H347.53V0Z" fill="white"/>
<path d="M347.53 15.45H332.121V30.9H347.53V15.45Z" fill="white"/>
<path d="M347.53 30.9H332.121V46.35H347.53V30.9Z" fill="white"/>
<path d="M347.53 123.6H332.121V139.05H347.53V123.6Z" fill="white"/>
<path d="M347.53 139.05H332.121V154.5H347.53V139.05Z" fill="white"/>
<path d="M347.53 154.5H332.121V169.95H347.53V154.5Z" fill="white"/>
<path d="M347.53 169.95H332.121V185.4H347.53V169.95Z" fill="white"/>
<path d="M347.53 185.4H332.121V200.85H347.53V185.4Z" fill="white"/>
<path d="M347.53 200.85H332.121V216.3H347.53V200.85Z" fill="white"/>
<path d="M347.53 216.3H332.121V231.75H347.53V216.3Z" fill="white"/>
<path d="M347.53 231.75H332.121V247.2H347.53V231.75Z" fill="white"/>
<path d="M347.53 247.2H332.121V262.65H347.53V247.2Z" fill="white"/>
<path d="M347.53 262.65H332.121V278.1H347.53V262.65Z" fill="white"/>
<path d="M347.53 278.1H332.121V293.55H347.53V278.1Z" fill="white"/>
<path d="M347.53 293.55H332.121V309H347.53V293.55Z" fill="white"/>
<path d="M332.121 0H316.712V15.45H332.121V0Z" fill="white"/>
<path d="M332.121 15.45H316.712V30.9H332.121V15.45Z" fill="white"/>
<path d="M332.121 30.9H316.712V46.35H332.121V30.9Z" fill="white"/>
<path d="M332.121 123.6H316.712V139.05H332.121V123.6Z" fill="white"/>
<path d="M332.121 139.05H316.712V154.5H332.121V139.05Z" fill="white"/>
<path d="M332.121 154.5H316.712V169.95H332.121V154.5Z" fill="white"/>
<path d="M332.121 169.95H316.712V185.4H332.121V169.95Z" fill="white"/>
<path d="M332.121 185.4H316.712V200.85H332.121V185.4Z" fill="white"/>
<path d="M332.121 200.85H316.712V216.3H332.121V200.85Z" fill="white"/>
<path d="M332.121 216.3H316.712V231.75H332.121V216.3Z" fill="white"/>
<path d="M332.121 231.75H316.712V247.2H332.121V231.75Z" fill="white"/>
<path d="M332.121 247.2H316.712V262.65H332.121V247.2Z" fill="white"/>
<path d="M332.121 262.65H316.712V278.1H332.121V262.65Z" fill="white"/>
<path d="M332.121 278.1H316.712V293.55H332.121V278.1Z" fill="white"/>
<path d="M332.121 293.55H316.712V309H332.121V293.55Z" fill="white"/>
<path d="M316.712 0H301.303V15.45H316.712V0Z" fill="white"/>
<path d="M316.712 15.45H301.303V30.9H316.712V15.45Z" fill="white"/>
<path d="M316.712 30.9H301.303V46.35H316.712V30.9Z" fill="white"/>
<path d="M316.712 123.6H301.303V139.05H316.712V123.6Z" fill="white"/>
<path d="M316.712 139.05H301.303V154.5H316.712V139.05Z" fill="white"/>
<path d="M316.712 154.5H301.303V169.95H316.712V154.5Z" fill="white"/>
<path d="M316.712 169.95H301.303V185.4H316.712V169.95Z" fill="white"/>
<path d="M316.712 185.4H301.303V200.85H316.712V185.4Z" fill="white"/>
<path d="M316.712 200.85H301.303V216.3H316.712V200.85Z" fill="white"/>
<path d="M316.712 216.3H301.303V231.75H316.712V216.3Z" fill="white"/>
<path d="M316.712 231.75H301.303V247.2H316.712V231.75Z" fill="white"/>
<path d="M316.712 247.2H301.303V262.65H316.712V247.2Z" fill="white"/>
<path d="M316.712 262.65H301.303V278.1H316.712V262.65Z" fill="white"/>
<path d="M316.712 278.1H301.303V293.55H316.712V278.1Z" fill="white"/>
<path d="M316.712 293.55H301.303V309H316.712V293.55Z" fill="white"/>
<path d="M301.303 0H285.894V15.45H301.303V0Z" fill="white"/>
<path d="M301.303 15.45H285.894V30.9H301.303V15.45Z" fill="white"/>
<path d="M301.303 30.9H285.894V46.35H301.303V30.9Z" fill="white"/>
<path d="M301.303 123.6H285.894V139.05H301.303V123.6Z" fill="white"/>
<path d="M301.303 139.05H285.894V154.5H301.303V139.05Z" fill="white"/>
<path d="M301.303 154.5H285.894V169.95H301.303V154.5Z" fill="white"/>
<path d="M301.303 169.95H285.894V185.4H301.303V169.95Z" fill="white"/>
<path d="M301.303 185.4H285.894V200.85H301.303V185.4Z" fill="white"/>
<path d="M301.303 200.85H285.894V216.3H301.303V200.85Z" fill="white"/>
<path d="M301.303 216.3H285.894V231.75H301.303V216.3Z" fill="white"/>
<path d="M301.303 231.75H285.894V247.2H301.303V231.75Z" fill="white"/>
<path d="M301.303 247.2H285.894V262.65H301.303V247.2Z" fill="white"/>
<path d="M301.303 262.65H285.894V278.1H301.303V262.65Z" fill="white"/>
<path d="M301.303 278.1H285.894V293.55H301.303V278.1Z" fill="white"/>
<path d="M301.303 293.55H285.894V309H301.303V293.55Z" fill="white"/>
<path d="M285.894 0H270.485V15.45H285.894V0Z" fill="white"/>
<path d="M285.894 15.45H270.485V30.9H285.894V15.45Z" fill="white"/>
<path d="M285.894 30.9H270.485V46.35H285.894V30.9Z" fill="white"/>
<path d="M285.894 123.6H270.485V139.05H285.894V123.6Z" fill="white"/>
<path d="M285.894 139.05H270.485V154.5H285.894V139.05Z" fill="white"/>
<path d="M285.894 154.5H270.485V169.95H285.894V154.5Z" fill="white"/>
<path d="M285.894 169.95H270.485V185.4H285.894V169.95Z" fill="white"/>
<path d="M285.894 185.4H270.485V200.85H285.894V185.4Z" fill="white"/>
<path d="M285.894 200.85H270.485V216.3H285.894V200.85Z" fill="white"/>
<path d="M285.894 216.3H270.485V231.75H285.894V216.3Z" fill="white"/>
<path d="M285.894 231.75H270.485V247.2H285.894V231.75Z" fill="white"/>
<path d="M285.894 247.2H270.485V262.65H285.894V247.2Z" fill="white"/>
<path d="M285.894 262.65H270.485V278.1H285.894V262.65Z" fill="white"/>
<path d="M285.894 278.1H270.485V293.55H285.894V278.1Z" fill="white"/>
<path d="M285.894 293.55H270.485V309H285.894V293.55Z" fill="white"/>
<path d="M270.485 0H255.076V15.45H270.485V0Z" fill="white"/>
<path d="M270.485 30.9H255.076V46.35H270.485V30.9Z" fill="white"/>
<path d="M270.485 123.6H255.076V139.05H270.485V123.6Z" fill="white"/>
<path d="M270.485 139.05H255.076V154.5H270.485V139.05Z" fill="white"/>
<path d="M270.485 154.5H255.076V169.95H270.485V154.5Z" fill="white"/>
<path d="M270.485 169.95H255.076V185.4H270.485V169.95Z" fill="white"/>
<path d="M270.485 185.4H255.076V200.85H270.485V185.4Z" fill="white"/>
<path d="M270.485 200.85H255.076V216.3H270.485V200.85Z" fill="white"/>
<path d="M270.485 216.3H255.076V231.75H270.485V216.3Z" fill="white"/>
<path d="M270.485 231.75H255.076V247.2H270.485V231.75Z" fill="white"/>
<path d="M270.485 247.2H255.076V262.65H270.485V247.2Z" fill="white"/>
<path d="M270.485 262.65H255.076V278.1H270.485V262.65Z" fill="white"/>
<path d="M270.485 278.1H255.076V293.55H270.485V278.1Z" fill="white"/>
<path d="M270.485 293.55H255.076V309H270.485V293.55Z" fill="white"/>
<path d="M255.076 0H239.667V15.45H255.076V0Z" fill="white"/>
<path d="M255.076 30.9H239.667V46.35H255.076V30.9Z" fill="white"/>
<path d="M255.076 123.6H239.667V139.05H255.076V123.6Z" fill="white"/>
<path d="M255.076 139.05H239.667V154.5H255.076V139.05Z" fill="white"/>
<path d="M255.076 154.5H239.667V169.95H255.076V154.5Z" fill="white"/>
<path d="M255.076 169.95H239.667V185.4H255.076V169.95Z" fill="white"/>
<path d="M255.076 185.4H239.667V200.85H255.076V185.4Z" fill="white"/>
<path d="M255.076 200.85H239.667V216.3H255.076V200.85Z" fill="white"/>
<path d="M255.076 216.3H239.667V231.75H255.076V216.3Z" fill="white"/>
<path d="M255.076 231.75H239.667V247.2H255.076V231.75Z" fill="white"/>
<path d="M255.076 247.2H239.667V262.65H255.076V247.2Z" fill="white"/>
<path d="M255.076 262.65H239.667V278.1H255.076V262.65Z" fill="white"/>
<path d="M255.076 278.1H239.667V293.55H255.076V278.1Z" fill="white"/>
<path d="M255.076 293.55H239.667V309H255.076V293.55Z" fill="white"/>
<path d="M239.667 0H224.257V15.45H239.667V0Z" fill="white"/>
<path d="M239.667 30.9H224.257V46.35H239.667V30.9Z" fill="white"/>
<path d="M239.667 123.6H224.257V139.05H239.667V123.6Z" fill="white"/>
<path d="M239.667 139.05H224.257V154.5H239.667V139.05Z" fill="white"/>
<path d="M239.667 154.5H224.257V169.95H239.667V154.5Z" fill="white"/>
<path d="M239.667 169.95H224.257V185.4H239.667V169.95Z" fill="white"/>
<path d="M239.667 185.4H224.257V200.85H239.667V185.4Z" fill="white"/>
<path d="M239.667 200.85H224.257V216.3H239.667V200.85Z" fill="white"/>
<path d="M239.667 216.3H224.257V231.75H239.667V216.3Z" fill="white"/>
<path d="M239.667 231.75H224.257V247.2H239.667V231.75Z" fill="white"/>
<path d="M239.667 247.2H224.257V262.65H239.667V247.2Z" fill="white"/>
<path d="M239.667 262.65H224.257V278.1H239.667V262.65Z" fill="white"/>
<path d="M239.667 278.1H224.257V293.55H239.667V278.1Z" fill="white"/>
<path d="M239.667 293.55H224.257V309H239.667V293.55Z" fill="white"/>
<path d="M224.257 0H208.848V15.45H224.257V0Z" fill="white"/>
<path d="M224.257 30.9H208.848V46.35H224.257V30.9Z" fill="white"/>
<path d="M224.257 123.6H208.848V139.05H224.257V123.6Z" fill="white"/>
<path d="M224.257 139.05H208.848V154.5H224.257V139.05Z" fill="white"/>
<path d="M224.257 154.5H208.848V169.95H224.257V154.5Z" fill="white"/>
<path d="M224.257 169.95H208.848V185.4H224.257V169.95Z" fill="white"/>
<path d="M224.257 185.4H208.848V200.85H224.257V185.4Z" fill="white"/>
<path d="M224.257 200.85H208.848V216.3H224.257V200.85Z" fill="white"/>
<path d="M224.257 216.3H208.848V231.75H224.257V216.3Z" fill="white"/>
<path d="M224.257 231.75H208.848V247.2H224.257V231.75Z" fill="white"/>
<path d="M224.257 247.2H208.848V262.65H224.257V247.2Z" fill="white"/>
<path d="M224.257 262.65H208.848V278.1H224.257V262.65Z" fill="white"/>
<path d="M224.257 278.1H208.848V293.55H224.257V278.1Z" fill="white"/>
<path d="M224.257 293.55H208.848V309H224.257V293.55Z" fill="white"/>
<path d="M208.848 0H193.439V15.45H208.848V0Z" fill="white"/>
<path d="M208.848 30.9H193.439V46.35H208.848V30.9Z" fill="white"/>
<path d="M208.848 123.6H193.439V139.05H208.848V123.6Z" fill="white"/>
<path d="M208.848 139.05H193.439V154.5H208.848V139.05Z" fill="white"/>
<path d="M208.848 154.5H193.439V169.95H208.848V154.5Z" fill="white"/>
<path d="M208.848 169.95H193.439V185.4H208.848V169.95Z" fill="white"/>
<path d="M208.848 185.4H193.439V200.85H208.848V185.4Z" fill="white"/>
<path d="M208.848 200.85H193.439V216.3H208.848V200.85Z" fill="white"/>
<path d="M208.848 216.3H193.439V231.75H208.848V216.3Z" fill="white"/>
<path d="M208.848 231.75H193.439V247.2H208.848V231.75Z" fill="white"/>
<path d="M208.848 247.2H193.439V262.65H208.848V247.2Z" fill="white"/>
<path d="M208.848 262.65H193.439V278.1H208.848V262.65Z" fill="white"/>
<path d="M208.848 278.1H193.439V293.55H208.848V278.1Z" fill="white"/>
<path d="M208.848 293.55H193.439V309H208.848V293.55Z" fill="white"/>
<path d="M193.439 0H178.03V15.45H193.439V0Z" fill="white"/>
<path d="M193.439 15.45H178.03V30.9H193.439V15.45Z" fill="white"/>
<path d="M193.439 30.9H178.03V46.35H193.439V30.9Z" fill="white"/>
<path d="M193.439 123.6H178.03V139.05H193.439V123.6Z" fill="white"/>
<path d="M193.439 139.05H178.03V154.5H193.439V139.05Z" fill="white"/>
<path d="M193.439 154.5H178.03V169.95H193.439V154.5Z" fill="white"/>
<path d="M193.439 169.95H178.03V185.4H193.439V169.95Z" fill="white"/>
<path d="M193.439 185.4H178.03V200.85H193.439V185.4Z" fill="white"/>
<path d="M193.439 200.85H178.03V216.3H193.439V200.85Z" fill="white"/>
<path d="M193.439 216.3H178.03V231.75H193.439V216.3Z" fill="white"/>
<path d="M193.439 231.75H178.03V247.2H193.439V231.75Z" fill="white"/>
<path d="M193.439 247.2H178.03V262.65H193.439V247.2Z" fill="white"/>
<path d="M193.439 262.65H178.03V278.1H193.439V262.65Z" fill="white"/>
<path d="M193.439 278.1H178.03V293.55H193.439V278.1Z" fill="white"/>
<path d="M193.439 293.55H178.03V309H193.439V293.55Z" fill="white"/>
<path d="M178.03 0H162.621V15.45H178.03V0Z" fill="white"/>
<path d="M178.03 15.45H162.621V30.9H178.03V15.45Z" fill="white"/>
<path d="M178.03 30.9H162.621V46.35H178.03V30.9Z" fill="white"/>
<path d="M178.03 123.6H162.621V139.05H178.03V123.6Z" fill="white"/>
<path d="M178.03 139.05H162.621V154.5H178.03V139.05Z" fill="white"/>
<path d="M178.03 154.5H162.621V169.95H178.03V154.5Z" fill="white"/>
<path d="M178.03 169.95H162.621V185.4H178.03V169.95Z" fill="white"/>
<path d="M178.03 185.4H162.621V200.85H178.03V185.4Z" fill="white"/>
<path d="M178.03 200.85H162.621V216.3H178.03V200.85Z" fill="white"/>
<path d="M178.03 216.3H162.621V231.75H178.03V216.3Z" fill="white"/>
<path d="M178.03 231.75H162.621V247.2H178.03V231.75Z" fill="white"/>
<path d="M178.03 247.2H162.621V262.65H178.03V247.2Z" fill="white"/>
<path d="M178.03 262.65H162.621V278.1H178.03V262.65Z" fill="white"/>
<path d="M178.03 278.1H162.621V293.55H178.03V278.1Z" fill="white"/>
<path d="M178.03 293.55H162.621V309H178.03V293.55Z" fill="white"/>
<path d="M162.621 0H147.212V15.45H162.621V0Z" fill="white"/>
<path d="M162.621 15.45H147.212V30.9H162.621V15.45Z" fill="white"/>
<path d="M162.621 30.9H147.212V46.35H162.621V30.9Z" fill="white"/>
<path d="M162.621 123.6H147.212V139.05H162.621V123.6Z" fill="white"/>
<path d="M162.621 139.05H147.212V154.5H162.621V139.05Z" fill="white"/>
<path d="M162.621 154.5H147.212V169.95H162.621V154.5Z" fill="white"/>
<path d="M162.621 169.95H147.212V185.4H162.621V169.95Z" fill="white"/>
<path d="M162.621 185.4H147.212V200.85H162.621V185.4Z" fill="white"/>
<path d="M162.621 200.85H147.212V216.3H162.621V200.85Z" fill="white"/>
<path d="M162.621 216.3H147.212V231.75H162.621V216.3Z" fill="white"/>
<path d="M162.621 231.75H147.212V247.2H162.621V231.75Z" fill="white"/>
<path d="M162.621 247.2H147.212V262.65H162.621V247.2Z" fill="white"/>
<path d="M162.621 262.65H147.212V278.1H162.621V262.65Z" fill="white"/>
<path d="M162.621 278.1H147.212V293.55H162.621V278.1Z" fill="white"/>
<path d="M162.621 293.55H147.212V309H162.621V293.55Z" fill="white"/>
<path d="M147.212 0H131.803V15.45H147.212V0Z" fill="white"/>
<path d="M147.212 15.45H131.803V30.9H147.212V15.45Z" fill="white"/>
<path d="M147.212 30.9H131.803V46.35H147.212V30.9Z" fill="white"/>
<path d="M147.212 123.6H131.803V139.05H147.212V123.6Z" fill="white"/>
<path d="M147.212 139.05H131.803V154.5H147.212V139.05Z" fill="white"/>
<path d="M147.212 154.5H131.803V169.95H147.212V154.5Z" fill="white"/>
<path d="M147.212 169.95H131.803V185.4H147.212V169.95Z" fill="white"/>
<path d="M147.212 185.4H131.803V200.85H147.212V185.4Z" fill="white"/>
<path d="M147.212 200.85H131.803V216.3H147.212V200.85Z" fill="white"/>
<path d="M147.212 216.3H131.803V231.75H147.212V216.3Z" fill="white"/>
<path d="M147.212 231.75H131.803V247.2H147.212V231.75Z" fill="white"/>
<path d="M147.212 247.2H131.803V262.65H147.212V247.2Z" fill="white"/>
<path d="M147.212 262.65H131.803V278.1H147.212V262.65Z" fill="white"/>
<path d="M147.212 278.1H131.803V293.55H147.212V278.1Z" fill="white"/>
<path d="M147.212 293.55H131.803V309H147.212V293.55Z" fill="white"/>
<path d="M131.803 0H116.394V15.45H131.803V0Z" fill="white"/>
<path d="M131.803 15.45H116.394V30.9H131.803V15.45Z" fill="white"/>
<path d="M131.803 30.9H116.394V46.35H131.803V30.9Z" fill="white"/>
<path d="M131.803 123.6H116.394V139.05H131.803V123.6Z" fill="white"/>
<path d="M131.803 139.05H116.394V154.5H131.803V139.05Z" fill="white"/>
<path d="M131.803 154.5H116.394V169.95H131.803V154.5Z" fill="white"/>
<path d="M131.803 169.95H116.394V185.4H131.803V169.95Z" fill="white"/>
<path d="M131.803 185.4H116.394V200.85H131.803V185.4Z" fill="white"/>
<path d="M131.803 200.85H116.394V216.3H131.803V200.85Z" fill="white"/>
<path d="M131.803 216.3H116.394V231.75H131.803V216.3Z" fill="white"/>
<path d="M131.803 231.75H116.394V247.2H131.803V231.75Z" fill="white"/>
<path d="M131.803 247.2H116.394V262.65H131.803V247.2Z" fill="white"/>
<path d="M131.803 262.65H116.394V278.1H131.803V262.65Z" fill="white"/>
<path d="M131.803 278.1H116.394V293.55H131.803V278.1Z" fill="white"/>
<path d="M131.803 293.55H116.394V309H131.803V293.55Z" fill="white"/>
<path d="M116.394 0H100.985V15.45H116.394V0Z" fill="white"/>
<path d="M116.394 15.45H100.985V30.9H116.394V15.45Z" fill="white"/>
<path d="M116.394 30.9H100.985V46.35H116.394V30.9Z" fill="white"/>
<path d="M116.394 92.7H100.985V108.15H116.394V92.7Z" fill="white"/>
<path d="M116.394 108.15H100.985V123.6H116.394V108.15Z" fill="white"/>
<path d="M116.394 123.6H100.985V139.05H116.394V123.6Z" fill="white"/>
<path d="M116.394 139.05H100.985V154.5H116.394V139.05Z" fill="white"/>
<path d="M116.394 154.5H100.985V169.95H116.394V154.5Z" fill="white"/>
<path d="M116.394 169.95H100.985V185.4H116.394V169.95Z" fill="white"/>
<path d="M116.394 185.4H100.985V200.85H116.394V185.4Z" fill="white"/>
<path d="M116.394 200.85H100.985V216.3H116.394V200.85Z" fill="white"/>
<path d="M116.394 216.3H100.985V231.75H116.394V216.3Z" fill="white"/>
<path d="M116.394 231.75H100.985V247.2H116.394V231.75Z" fill="white"/>
<path d="M116.394 247.2H100.985V262.65H116.394V247.2Z" fill="white"/>
<path d="M116.394 262.65H100.985V278.1H116.394V262.65Z" fill="white"/>
<path d="M116.394 278.1H100.985V293.55H116.394V278.1Z" fill="white"/>
<path d="M116.394 293.55H100.985V309H116.394V293.55Z" fill="white"/>
<path d="M100.985 0H85.5756V15.45H100.985V0Z" fill="white"/>
<path d="M100.985 15.45H85.5756V30.9H100.985V15.45Z" fill="white"/>
<path d="M100.985 30.9H85.5756V46.35H100.985V30.9Z" fill="white"/>
<path d="M100.985 92.7H85.5756V108.15H100.985V92.7Z" fill="white"/>
<path d="M100.985 108.15H85.5756V123.6H100.985V108.15Z" fill="white"/>
<path d="M100.985 123.6H85.5756V139.05H100.985V123.6Z" fill="white"/>
<path d="M100.985 139.05H85.5756V154.5H100.985V139.05Z" fill="white"/>
<path d="M100.985 154.5H85.5756V169.95H100.985V154.5Z" fill="white"/>
<path d="M100.985 169.95H85.5756V185.4H100.985V169.95Z" fill="white"/>
<path d="M100.985 185.4H85.5756V200.85H100.985V185.4Z" fill="white"/>
<path d="M100.985 200.85H85.5756V216.3H100.985V200.85Z" fill="white"/>
<path d="M100.985 216.3H85.5756V231.75H100.985V216.3Z" fill="white"/>
<path d="M100.985 231.75H85.5756V247.2H100.985V231.75Z" fill="white"/>
<path d="M100.985 247.2H85.5756V262.65H100.985V247.2Z" fill="white"/>
<path d="M100.985 262.65H85.5756V278.1H100.985V262.65Z" fill="white"/>
<path d="M100.985 278.1H85.5756V293.55H100.985V278.1Z" fill="white"/>
<path d="M100.985 293.55H85.5756V309H100.985V293.55Z" fill="white"/>
<path d="M85.5756 0H70.1665V15.45H85.5756V0Z" fill="white"/>
<path d="M85.5756 15.45H70.1665V30.9H85.5756V15.45Z" fill="white"/>
<path d="M85.5756 30.9H70.1665V46.35H85.5756V30.9Z" fill="white"/>
<path d="M85.5756 92.7H70.1665V108.15H85.5756V92.7Z" fill="white"/>
<path d="M85.5756 108.15H70.1665V123.6H85.5756V108.15Z" fill="white"/>
<path d="M85.5756 123.6H70.1665V139.05H85.5756V123.6Z" fill="white"/>
<path d="M85.5756 139.05H70.1665V154.5H85.5756V139.05Z" fill="white"/>
<path d="M85.5756 154.5H70.1665V169.95H85.5756V154.5Z" fill="white"/>
<path d="M85.5756 169.95H70.1665V185.4H85.5756V169.95Z" fill="white"/>
<path d="M85.5756 185.4H70.1665V200.85H85.5756V185.4Z" fill="white"/>
<path d="M85.5756 200.85H70.1665V216.3H85.5756V200.85Z" fill="white"/>
<path d="M85.5756 216.3H70.1665V231.75H85.5756V216.3Z" fill="white"/>
<path d="M85.5756 231.75H70.1665V247.2H85.5756V231.75Z" fill="white"/>
<path d="M85.5756 247.2H70.1665V262.65H85.5756V247.2Z" fill="white"/>
<path d="M85.5756 262.65H70.1665V278.1H85.5756V262.65Z" fill="white"/>
<path d="M85.5756 278.1H70.1665V293.55H85.5756V278.1Z" fill="white"/>
<path d="M85.5756 293.55H70.1665V309H85.5756V293.55Z" fill="white"/>
<path d="M70.1665 0H54.7574V15.45H70.1665V0Z" fill="white"/>
<path d="M70.1665 15.45H54.7574V30.9H70.1665V15.45Z" fill="white"/>
<path d="M70.1665 30.9H54.7574V46.35H70.1665V30.9Z" fill="white"/>
<path d="M70.1665 46.35H54.7574V61.8H70.1665V46.35Z" fill="white"/>
<path d="M70.1665 61.8H54.7574V77.25H70.1665V61.8Z" fill="white"/>
<path d="M70.1665 77.25H54.7574V92.7H70.1665V77.25Z" fill="white"/>
<path d="M70.1665 92.7H54.7574V108.15H70.1665V92.7Z" fill="white"/>
<path d="M70.1665 108.15H54.7574V123.6H70.1665V108.15Z" fill="white"/>
<path d="M70.1665 123.6H54.7574V139.05H70.1665V123.6Z" fill="white"/>
<path d="M70.1665 139.05H54.7574V154.5H70.1665V139.05Z" fill="white"/>
<path d="M70.1665 154.5H54.7574V169.95H70.1665V154.5Z" fill="white"/>
<path d="M70.1665 169.95H54.7574V185.4H70.1665V169.95Z" fill="white"/>
<path d="M70.1665 185.4H54.7574V200.85H70.1665V185.4Z" fill="white"/>
<path d="M70.1665 200.85H54.7574V216.3H70.1665V200.85Z" fill="white"/>
<path d="M70.1665 216.3H54.7574V231.75H70.1665V216.3Z" fill="white"/>
<path d="M70.1665 231.75H54.7574V247.2H70.1665V231.75Z" fill="white"/>
<path d="M70.1665 247.2H54.7574V262.65H70.1665V247.2Z" fill="white"/>
<path d="M70.1665 262.65H54.7574V278.1H70.1665V262.65Z" fill="white"/>
<path d="M70.1665 278.1H54.7574V293.55H70.1665V278.1Z" fill="white"/>
<path d="M70.1665 293.55H54.7574V309H70.1665V293.55Z" fill="white"/>
<path d="M54.7574 0H39.3483V15.45H54.7574V0Z" fill="white"/>
<path d="M54.7574 15.45H39.3483V30.9H54.7574V15.45Z" fill="white"/>
<path d="M54.7574 30.9H39.3483V46.35H54.7574V30.9Z" fill="white"/>
<path d="M54.7574 46.35H39.3483V61.8H54.7574V46.35Z" fill="white"/>
<path d="M54.7574 61.8H39.3483V77.25H54.7574V61.8Z" fill="white"/>
<path d="M54.7574 77.25H39.3483V92.7H54.7574V77.25Z" fill="white"/>
<path d="M54.7574 92.7H39.3483V108.15H54.7574V92.7Z" fill="white"/>
<path d="M54.7574 108.15H39.3483V123.6H54.7574V108.15Z" fill="white"/>
<path d="M54.7574 123.6H39.3483V139.05H54.7574V123.6Z" fill="white"/>
<path d="M54.7574 139.05H39.3483V154.5H54.7574V139.05Z" fill="white"/>
<path d="M54.7574 154.5H39.3483V169.95H54.7574V154.5Z" fill="white"/>
<path d="M54.7574 169.95H39.3483V185.4H54.7574V169.95Z" fill="white"/>
<path d="M54.7574 185.4H39.3483V200.85H54.7574V185.4Z" fill="white"/>
<path d="M54.7574 200.85H39.3483V216.3H54.7574V200.85Z" fill="white"/>
<path d="M54.7574 216.3H39.3483V231.75H54.7574V216.3Z" fill="white"/>
<path d="M54.7574 231.75H39.3483V247.2H54.7574V231.75Z" fill="white"/>
<path d="M54.7574 247.2H39.3483V262.65H54.7574V247.2Z" fill="white"/>
<path d="M54.7574 262.65H39.3483V278.1H54.7574V262.65Z" fill="white"/>
<path d="M54.7574 278.1H39.3483V293.55H54.7574V278.1Z" fill="white"/>
<path d="M54.7574 293.55H39.3483V309H54.7574V293.55Z" fill="white"/>
<path d="M39.3483 0H23.9393V15.45H39.3483V0Z" fill="white"/>
<path d="M39.3483 15.45H23.9393V30.9H39.3483V15.45Z" fill="white"/>
<path d="M39.3483 30.9H23.9393V46.35H39.3483V30.9Z" fill="white"/>
<path d="M39.3483 46.35H23.9393V61.8H39.3483V46.35Z" fill="white"/>
<path d="M39.3483 61.8H23.9393V77.25H39.3483V61.8Z" fill="white"/>
<path d="M39.3483 77.25H23.9393V92.7H39.3483V77.25Z" fill="white"/>
<path d="M39.3483 92.7H23.9393V108.15H39.3483V92.7Z" fill="white"/>
<path d="M39.3483 108.15H23.9393V123.6H39.3483V108.15Z" fill="white"/>
<path d="M39.3483 123.6H23.9393V139.05H39.3483V123.6Z" fill="white"/>
<path d="M39.3483 139.05H23.9393V154.5H39.3483V139.05Z" fill="white"/>
<path d="M39.3483 154.5H23.9393V169.95H39.3483V154.5Z" fill="white"/>
<path d="M39.3483 169.95H23.9393V185.4H39.3483V169.95Z" fill="white"/>
<path d="M39.3483 185.4H23.9393V200.85H39.3483V185.4Z" fill="white"/>
<path d="M39.3483 200.85H23.9393V216.3H39.3483V200.85Z" fill="white"/>
<path d="M39.3483 216.3H23.9393V231.75H39.3483V216.3Z" fill="white"/>
<path d="M39.3483 231.75H23.9393V247.2H39.3483V231.75Z" fill="white"/>
<path d="M39.3483 247.2H23.9393V262.65H39.3483V247.2Z" fill="white"/>
<path d="M39.3483 262.65H23.9393V278.1H39.3483V262.65Z" fill="white"/>
<path d="M39.3483 278.1H23.9393V293.55H39.3483V278.1Z" fill="white"/>
<path d="M39.3483 293.55H23.9393V309H39.3483V293.55Z" fill="white"/>
<path d="M23.9393 0H8.53015V15.45H23.9393V0Z" fill="white"/>
<path d="M23.9393 15.45H8.53015V30.9H23.9393V15.45Z" fill="white"/>
<path d="M23.9393 30.9H8.53015V46.35H23.9393V30.9Z" fill="white"/>
<path d="M23.9393 46.35H8.53015V61.8H23.9393V46.35Z" fill="white"/>
<path d="M23.9393 61.8H8.53015V77.25H23.9393V61.8Z" fill="white"/>
<path d="M23.9393 77.25H8.53015V92.7H23.9393V77.25Z" fill="white"/>
<path d="M23.9393 92.7H8.53015V108.15H23.9393V92.7Z" fill="white"/>
<path d="M23.9393 123.6H8.53015V139.05H23.9393V123.6Z" fill="white"/>
<path d="M23.9393 139.05H8.53015V154.5H23.9393V139.05Z" fill="white"/>
<path d="M23.9393 154.5H8.53015V169.95H23.9393V154.5Z" fill="white"/>
<path d="M23.9393 169.95H8.53015V185.4H23.9393V169.95Z" fill="white"/>
<path d="M23.9393 185.4H8.53015V200.85H23.9393V185.4Z" fill="white"/>
<path d="M23.9393 200.85H8.53015V216.3H23.9393V200.85Z" fill="white"/>
<path d="M23.9393 216.3H8.53015V231.75H23.9393V216.3Z" fill="white"/>
<path d="M23.9393 231.75H8.53015V247.2H23.9393V231.75Z" fill="white"/>
<path d="M23.9393 247.2H8.53015V262.65H23.9393V247.2Z" fill="white"/>
<path d="M23.9393 262.65H8.53015V278.1H23.9393V262.65Z" fill="white"/>
<path d="M23.9393 278.1H8.53015V293.55H23.9393V278.1Z" fill="white"/>
<path d="M23.9393 293.55H8.53015V309H23.9393V293.55Z" fill="white"/>
<path d="M8.53015 0H-6.87891V15.45H8.53015V0Z" fill="white"/>
<path d="M8.53015 15.45H-6.87891V30.9H8.53015V15.45Z" fill="white"/>
<path d="M8.53015 30.9H-6.87891V46.35H8.53015V30.9Z" fill="white"/>
<path d="M8.53015 46.35H-6.87891V61.8H8.53015V46.35Z" fill="white"/>
<path d="M8.53015 61.8H-6.87891V77.25H8.53015V61.8Z" fill="white"/>
<path d="M8.53015 77.25H-6.87891V92.7H8.53015V77.25Z" fill="white"/>
<path d="M8.53015 92.7H-6.87891V108.15H8.53015V92.7Z" fill="white"/>
<path d="M8.53015 123.6H-6.87891V139.05H8.53015V123.6Z" fill="white"/>
<path d="M8.53015 139.05H-6.87891V154.5H8.53015V139.05Z" fill="white"/>
<path d="M8.53015 154.5H-6.87891V169.95H8.53015V154.5Z" fill="white"/>
<path d="M8.53015 169.95H-6.87891V185.4H8.53015V169.95Z" fill="white"/>
<path d="M8.53015 185.4H-6.87891V200.85H8.53015V185.4Z" fill="white"/>
<path d="M8.53015 200.85H-6.87891V216.3H8.53015V200.85Z" fill="white"/>
<path d="M8.53015 216.3H-6.87891V231.75H8.53015V216.3Z" fill="white"/>
<path d="M8.53015 231.75H-6.87891V247.2H8.53015V231.75Z" fill="white"/>
<path d="M8.53015 247.2H-6.87891V262.65H8.53015V247.2Z" fill="white"/>
<path d="M8.53015 262.65H-6.87891V278.1H8.53015V262.65Z" fill="white"/>
<path d="M8.53015 278.1H-6.87891V293.55H8.53015V278.1Z" fill="white"/>
<path d="M8.53015 293.55H-6.87891V309H8.53015V293.55Z" fill="white"/>
<path d="M-6.87891 0H-22.288V15.45H-6.87891V0Z" fill="white"/>
<path d="M-6.87891 15.45H-22.288V30.9H-6.87891V15.45Z" fill="white"/>
<path d="M-6.87891 30.9H-22.288V46.35H-6.87891V30.9Z" fill="white"/>
<path d="M-6.87891 46.35H-22.288V61.8H-6.87891V46.35Z" fill="white"/>
<path d="M-6.87891 61.8H-22.288V77.25H-6.87891V61.8Z" fill="white"/>
<path d="M-6.87891 77.25H-22.288V92.7H-6.87891V77.25Z" fill="white"/>
<path d="M-6.87891 92.7H-22.288V108.15H-6.87891V92.7Z" fill="white"/>
<path d="M-6.87891 108.15H-22.288V123.6H-6.87891V108.15Z" fill="white"/>
<path d="M-6.87891 123.6H-22.288V139.05H-6.87891V123.6Z" fill="white"/>
<path d="M-6.87891 139.05H-22.288V154.5H-6.87891V139.05Z" fill="white"/>
<path d="M-6.87891 154.5H-22.288V169.95H-6.87891V154.5Z" fill="white"/>
<path d="M-6.87891 169.95H-22.288V185.4H-6.87891V169.95Z" fill="white"/>
<path d="M-6.87891 185.4H-22.288V200.85H-6.87891V185.4Z" fill="white"/>
<path d="M-6.87891 200.85H-22.288V216.3H-6.87891V200.85Z" fill="white"/>
<path d="M-6.87891 216.3H-22.288V231.75H-6.87891V216.3Z" fill="white"/>
<path d="M-6.87891 231.75H-22.288V247.2H-6.87891V231.75Z" fill="white"/>
<path d="M-6.87891 247.2H-22.288V262.65H-6.87891V247.2Z" fill="white"/>
<path d="M-6.87891 262.65H-22.288V278.1H-6.87891V262.65Z" fill="white"/>
<path d="M-6.87891 278.1H-22.288V293.55H-6.87891V278.1Z" fill="white"/>
<path d="M-6.87891 293.55H-22.288V309H-6.87891V293.55Z" fill="white"/>
<path d="M-22.288 0H-37.6971V15.45H-22.288V0Z" fill="white"/>
<path d="M-22.288 15.45H-37.6971V30.9H-22.288V15.45Z" fill="white"/>
<path d="M-22.288 30.9H-37.6971V46.35H-22.288V30.9Z" fill="white"/>
<path d="M-22.288 46.35H-37.6971V61.8H-22.288V46.35Z" fill="white"/>
<path d="M-22.288 61.8H-37.6971V77.25H-22.288V61.8Z" fill="white"/>
<path d="M-22.288 77.25H-37.6971V92.7H-22.288V77.25Z" fill="white"/>
<path d="M-22.288 92.7H-37.6971V108.15H-22.288V92.7Z" fill="white"/>
<path d="M-22.288 108.15H-37.6971V123.6H-22.288V108.15Z" fill="white"/>
<path d="M-22.288 123.6H-37.6971V139.05H-22.288V123.6Z" fill="white"/>
<path d="M-22.288 139.05H-37.6971V154.5H-22.288V139.05Z" fill="white"/>
<path d="M-22.288 154.5H-37.6971V169.95H-22.288V154.5Z" fill="white"/>
<path d="M-22.288 169.95H-37.6971V185.4H-22.288V169.95Z" fill="white"/>
<path d="M-22.288 185.4H-37.6971V200.85H-22.288V185.4Z" fill="white"/>
<path d="M-22.288 200.85H-37.6971V216.3H-22.288V200.85Z" fill="white"/>
<path d="M-22.288 216.3H-37.6971V231.75H-22.288V216.3Z" fill="white"/>
<path d="M-22.288 231.75H-37.6971V247.2H-22.288V231.75Z" fill="white"/>
<path d="M-22.288 247.2H-37.6971V262.65H-22.288V247.2Z" fill="white"/>
<path d="M-22.288 262.65H-37.6971V278.1H-22.288V262.65Z" fill="white"/>
<path d="M-22.288 278.1H-37.6971V293.55H-22.288V278.1Z" fill="white"/>
<path d="M-22.288 293.55H-37.6971V309H-22.288V293.55Z" fill="white"/>
<path d="M-37.6971 0H-53.1062V15.45H-37.6971V0Z" fill="white"/>
<path d="M-37.6971 15.45H-53.1062V30.9H-37.6971V15.45Z" fill="white"/>
<path d="M-37.6971 30.9H-53.1062V46.35H-37.6971V30.9Z" fill="white"/>
<path d="M-37.6971 46.35H-53.1062V61.8H-37.6971V46.35Z" fill="white"/>
<path d="M-37.6971 61.8H-53.1062V77.25H-37.6971V61.8Z" fill="white"/>
<path d="M-37.6971 77.25H-53.1062V92.7H-37.6971V77.25Z" fill="white"/>
<path d="M-37.6971 92.7H-53.1062V108.15H-37.6971V92.7Z" fill="white"/>
<path d="M-37.6971 108.15H-53.1062V123.6H-37.6971V108.15Z" fill="white"/>
<path d="M-37.6971 123.6H-53.1062V139.05H-37.6971V123.6Z" fill="white"/>
<path d="M-37.6971 139.05H-53.1062V154.5H-37.6971V139.05Z" fill="white"/>
<path d="M-37.6971 154.5H-53.1062V169.95H-37.6971V154.5Z" fill="white"/>
<path d="M-37.6971 169.95H-53.1062V185.4H-37.6971V169.95Z" fill="white"/>
<path d="M-37.6971 185.4H-53.1062V200.85H-37.6971V185.4Z" fill="white"/>
<path d="M-37.6971 200.85H-53.1062V216.3H-37.6971V200.85Z" fill="white"/>
<path d="M-37.6971 216.3H-53.1062V231.75H-37.6971V216.3Z" fill="white"/>
<path d="M-37.6971 231.75H-53.1062V247.2H-37.6971V231.75Z" fill="white"/>
<path d="M-37.6971 247.2H-53.1062V262.65H-37.6971V247.2Z" fill="white"/>
<path d="M-37.6971 262.65H-53.1062V278.1H-37.6971V262.65Z" fill="white"/>
<path d="M-37.6971 278.1H-53.1062V293.55H-37.6971V278.1Z" fill="white"/>
<path d="M-37.6971 293.55H-53.1062V309H-37.6971V293.55Z" fill="white"/>
<path d="M-53.1062 0H-68.5153V15.45H-53.1062V0Z" fill="white"/>
<path d="M-53.1062 15.45H-68.5153V30.9H-53.1062V15.45Z" fill="white"/>
<path d="M-53.1062 30.9H-68.5153V46.35H-53.1062V30.9Z" fill="white"/>
<path d="M-53.1062 46.35H-68.5153V61.8H-53.1062V46.35Z" fill="white"/>
<path d="M-53.1062 61.8H-68.5153V77.25H-53.1062V61.8Z" fill="white"/>
<path d="M-53.1062 77.25H-68.5153V92.7H-53.1062V77.25Z" fill="white"/>
<path d="M-53.1062 92.7H-68.5153V108.15H-53.1062V92.7Z" fill="white"/>
<path d="M-53.1062 108.15H-68.5153V123.6H-53.1062V108.15Z" fill="white"/>
<path d="M-53.1062 123.6H-68.5153V139.05H-53.1062V123.6Z" fill="white"/>
<path d="M-53.1062 139.05H-68.5153V154.5H-53.1062V139.05Z" fill="white"/>
<path d="M-53.1062 154.5H-68.5153V169.95H-53.1062V154.5Z" fill="white"/>
<path d="M-53.1062 169.95H-68.5153V185.4H-53.1062V169.95Z" fill="white"/>
<path d="M-53.1062 185.4H-68.5153V200.85H-53.1062V185.4Z" fill="white"/>
<path d="M-53.1062 200.85H-68.5153V216.3H-53.1062V200.85Z" fill="white"/>
<path d="M-53.1062 216.3H-68.5153V231.75H-53.1062V216.3Z" fill="white"/>
<path d="M-53.1062 231.75H-68.5153V247.2H-53.1062V231.75Z" fill="white"/>
<path d="M-53.1062 247.2H-68.5153V262.65H-53.1062V247.2Z" fill="white"/>
<path d="M-53.1062 262.65H-68.5153V278.1H-53.1062V262.65Z" fill="white"/>
<path d="M-53.1062 278.1H-68.5153V293.55H-53.1062V278.1Z" fill="white"/>
<path d="M-53.1062 293.55H-68.5153V309H-53.1062V293.55Z" fill="white"/>
<path d="M-68.5153 0H-83.9244V15.45H-68.5153V0Z" fill="white"/>
<path d="M-68.5153 15.45H-83.9244V30.9H-68.5153V15.45Z" fill="white"/>
<path d="M-68.5153 30.9H-83.9244V46.35H-68.5153V30.9Z" fill="white"/>
<path d="M-68.5153 46.35H-83.9244V61.8H-68.5153V46.35Z" fill="white"/>
<path d="M-68.5153 61.8H-83.9244V77.25H-68.5153V61.8Z" fill="white"/>
<path d="M-68.5153 77.25H-83.9244V92.7H-68.5153V77.25Z" fill="white"/>
<path d="M-68.5153 92.7H-83.9244V108.15H-68.5153V92.7Z" fill="white"/>
<path d="M-68.5153 108.15H-83.9244V123.6H-68.5153V108.15Z" fill="white"/>
<path d="M-68.5153 123.6H-83.9244V139.05H-68.5153V123.6Z" fill="white"/>
<path d="M-68.5153 139.05H-83.9244V154.5H-68.5153V139.05Z" fill="white"/>
<path d="M-68.5153 154.5H-83.9244V169.95H-68.5153V154.5Z" fill="white"/>
<path d="M-68.5153 169.95H-83.9244V185.4H-68.5153V169.95Z" fill="white"/>
<path d="M-68.5153 185.4H-83.9244V200.85H-68.5153V185.4Z" fill="white"/>
<path d="M-68.5153 200.85H-83.9244V216.3H-68.5153V200.85Z" fill="white"/>
<path d="M-68.5153 216.3H-83.9244V231.75H-68.5153V216.3Z" fill="white"/>
<path d="M-68.5153 231.75H-83.9244V247.2H-68.5153V231.75Z" fill="white"/>
<path d="M-68.5153 247.2H-83.9244V262.65H-68.5153V247.2Z" fill="white"/>
<path d="M-68.5153 262.65H-83.9244V278.1H-68.5153V262.65Z" fill="white"/>
<path d="M-68.5153 278.1H-83.9244V293.55H-68.5153V278.1Z" fill="white"/>
<path d="M-68.5153 293.55H-83.9244V309H-68.5153V293.55Z" fill="white"/>
<path d="M-83.9244 0H-99.3335V15.45H-83.9244V0Z" fill="white"/>
<path d="M-83.9244 15.45H-99.3335V30.9H-83.9244V15.45Z" fill="white"/>
<path d="M-83.9244 30.9H-99.3335V46.35H-83.9244V30.9Z" fill="white"/>
<path d="M-83.9244 46.35H-99.3335V61.8H-83.9244V46.35Z" fill="white"/>
<path d="M-83.9244 61.8H-99.3335V77.25H-83.9244V61.8Z" fill="white"/>
<path d="M-83.9244 77.25H-99.3335V92.7H-83.9244V77.25Z" fill="white"/>
<path d="M-83.9244 92.7H-99.3335V108.15H-83.9244V92.7Z" fill="white"/>
<path d="M-83.9244 108.15H-99.3335V123.6H-83.9244V108.15Z" fill="white"/>
<path d="M-83.9244 123.6H-99.3335V139.05H-83.9244V123.6Z" fill="white"/>
<path d="M-83.9244 139.05H-99.3335V154.5H-83.9244V139.05Z" fill="white"/>
<path d="M-83.9244 154.5H-99.3335V169.95H-83.9244V154.5Z" fill="white"/>
<path d="M-83.9244 169.95H-99.3335V185.4H-83.9244V169.95Z" fill="white"/>
<path d="M-83.9244 185.4H-99.3335V200.85H-83.9244V185.4Z" fill="white"/>
<path d="M-83.9244 200.85H-99.3335V216.3H-83.9244V200.85Z" fill="white"/>
<path d="M-83.9244 216.3H-99.3335V231.75H-83.9244V216.3Z" fill="white"/>
<path d="M-83.9244 231.75H-99.3335V247.2H-83.9244V231.75Z" fill="white"/>
<path d="M-83.9244 247.2H-99.3335V262.65H-83.9244V247.2Z" fill="white"/>
<path d="M-83.9244 262.65H-99.3335V278.1H-83.9244V262.65Z" fill="white"/>
<path d="M-83.9244 278.1H-99.3335V293.55H-83.9244V278.1Z" fill="white"/>
<path d="M-83.9244 293.55H-99.3335V309H-83.9244V293.55Z" fill="white"/>
<path d="M563.257 0H578.667V15.45M563.257 0V15.45M563.257 0H547.848M563.257 15.45H578.667M563.257 15.45V30.9M563.257 15.45H547.848M578.667 15.45V30.9M563.257 30.9H578.667M563.257 30.9V46.35M563.257 30.9H547.848M578.667 30.9V46.35M563.257 46.35H578.667M563.257 46.35V61.8M563.257 46.35H547.848M578.667 46.35V61.8M563.257 61.8H578.667M563.257 61.8V77.25M563.257 61.8H547.848M578.667 61.8V77.25M563.257 77.25H578.667M563.257 77.25V92.7M563.257 77.25H547.848M578.667 77.25V92.7M563.257 92.7H578.667M563.257 92.7V108.15M563.257 92.7H547.848M578.667 92.7V108.15M563.257 108.15H578.667M563.257 108.15V123.6M563.257 108.15H547.848M578.667 108.15V123.6M563.257 123.6H578.667M563.257 123.6V139.05M563.257 123.6H547.848M578.667 123.6V139.05M563.257 139.05H578.667M563.257 139.05V154.5M563.257 139.05H547.848M578.667 139.05V154.5M563.257 154.5H578.667M563.257 154.5V169.95M563.257 154.5H547.848M578.667 154.5V169.95M563.257 169.95H578.667M563.257 169.95V185.4M563.257 169.95H547.848M578.667 169.95V185.4M563.257 185.4H578.667M563.257 185.4V200.85M563.257 185.4H547.848M578.667 185.4V200.85M563.257 200.85H578.667M563.257 200.85V216.3M563.257 200.85H547.848M578.667 200.85V216.3M563.257 216.3H578.667M563.257 216.3V231.75M563.257 216.3H547.848M578.667 216.3V231.75M563.257 231.75H578.667M563.257 231.75V247.2M563.257 231.75H547.848M578.667 231.75V247.2M563.257 247.2H578.667M563.257 247.2V262.65M563.257 247.2H547.848M578.667 247.2V262.65M563.257 262.65H578.667M563.257 262.65V278.1M563.257 262.65H547.848M578.667 262.65V278.1M563.257 278.1H578.667M563.257 278.1V293.55M563.257 278.1H547.848M578.667 278.1V293.55M563.257 293.55H578.667M563.257 293.55V309M563.257 293.55H547.848M578.667 293.55V309H563.257M563.257 309H547.848M547.848 0V15.45M547.848 0H532.439M547.848 15.45V30.9M547.848 15.45H532.439M547.848 30.9V46.35M547.848 30.9H532.439M547.848 46.35V61.8M547.848 46.35H532.439M547.848 61.8V77.25M547.848 61.8H532.439M547.848 77.25V92.7M547.848 77.25H532.439M547.848 92.7V108.15M547.848 92.7H532.439M547.848 108.15V123.6M547.848 108.15H532.439M547.848 123.6V139.05M547.848 123.6H532.439M547.848 139.05V154.5M547.848 139.05H532.439M547.848 154.5V169.95M547.848 154.5H532.439M547.848 169.95V185.4M547.848 169.95H532.439M547.848 185.4V200.85M547.848 185.4H532.439M547.848 200.85V216.3M547.848 200.85H532.439M547.848 216.3V231.75M547.848 216.3H532.439M547.848 231.75V247.2M547.848 231.75H532.439M547.848 247.2V262.65M547.848 247.2H532.439M547.848 262.65V278.1M547.848 262.65H532.439M547.848 278.1V293.55M547.848 278.1H532.439M547.848 293.55V309M547.848 293.55H532.439M547.848 309H532.439M532.439 0V15.45M532.439 0H517.03M532.439 15.45V30.9M532.439 15.45H517.03M532.439 30.9V46.35M532.439 30.9H517.03M532.439 46.35V61.8M532.439 46.35H517.03M532.439 61.8V77.25M532.439 61.8H517.03M532.439 77.25V92.7M532.439 77.25H517.03M532.439 92.7V108.15M532.439 92.7H517.03M532.439 108.15V123.6M532.439 108.15H517.03M532.439 123.6V139.05M532.439 123.6H517.03M532.439 139.05V154.5M532.439 139.05H517.03M532.439 154.5V169.95M532.439 154.5H517.03M532.439 169.95V185.4M532.439 169.95H517.03M532.439 185.4V200.85M532.439 185.4H517.03M532.439 200.85V216.3M532.439 200.85H517.03M532.439 216.3V231.75M532.439 216.3H517.03M532.439 231.75V247.2M532.439 231.75H517.03M532.439 247.2V262.65M532.439 247.2H517.03M532.439 262.65V278.1M532.439 262.65H517.03M532.439 278.1V293.55M532.439 278.1H517.03M532.439 293.55V309M532.439 293.55H517.03M532.439 309H517.03M517.03 0V15.45M517.03 0H501.621M517.03 15.45V30.9M517.03 15.45H501.621M517.03 30.9V46.35M517.03 30.9H501.621M517.03 46.35V61.8M517.03 46.35H501.621M517.03 61.8V77.25M517.03 61.8H501.621M517.03 77.25V92.7M517.03 77.25H501.621M517.03 92.7V108.15M517.03 92.7H501.621M517.03 108.15V123.6M517.03 108.15H501.621M517.03 123.6V139.05M517.03 123.6H501.621M517.03 139.05V154.5M517.03 139.05H501.621M517.03 154.5V169.95M517.03 154.5H501.621M517.03 169.95V185.4M517.03 169.95H501.621M517.03 185.4V200.85M517.03 185.4H501.621M517.03 200.85V216.3M517.03 200.85H501.621M517.03 216.3V231.75M517.03 216.3H501.621M517.03 231.75V247.2M517.03 231.75H501.621M517.03 247.2V262.65M517.03 247.2H501.621M517.03 262.65V278.1M517.03 262.65H501.621M517.03 278.1V293.55M517.03 278.1H501.621M517.03 293.55V309M517.03 293.55H501.621M517.03 309H501.621M501.621 0V15.45M501.621 0H486.212M501.621 15.45V30.9M501.621 15.45H486.212M501.621 30.9V46.35M501.621 30.9H486.212M501.621 46.35V61.8M501.621 46.35H486.212M501.621 61.8V77.25M501.621 61.8H486.212M501.621 77.25V92.7M501.621 77.25H486.212M501.621 92.7V108.15M501.621 92.7H486.212M501.621 108.15V123.6M501.621 108.15H486.212M501.621 123.6V139.05M501.621 123.6H486.212M501.621 139.05V154.5M501.621 139.05H486.212M501.621 154.5V169.95M501.621 154.5H486.212M501.621 169.95V185.4M501.621 169.95H486.212M501.621 185.4V200.85M501.621 185.4H486.212M501.621 200.85V216.3M501.621 200.85H486.212M501.621 216.3V231.75M501.621 216.3H486.212M501.621 231.75V247.2M501.621 231.75H486.212M501.621 247.2V262.65M501.621 247.2H486.212M501.621 262.65V278.1M501.621 262.65H486.212M501.621 278.1V293.55M501.621 278.1H486.212M501.621 293.55V309M501.621 293.55H486.212M501.621 309H486.212M486.212 0V15.45M486.212 0H470.803M486.212 15.45V30.9M486.212 15.45H470.803M486.212 30.9V46.35M486.212 30.9H470.803M486.212 46.35V61.8M486.212 46.35H470.803M486.212 61.8V77.25M486.212 61.8H470.803M486.212 77.25V92.7M486.212 77.25H470.803M486.212 92.7V108.15M486.212 92.7H470.803M486.212 108.15V123.6M486.212 108.15H470.803M486.212 123.6V139.05M486.212 123.6H470.803M486.212 139.05V154.5M486.212 139.05H470.803M486.212 154.5V169.95M486.212 154.5H470.803M486.212 169.95V185.4M486.212 169.95H470.803M486.212 185.4V200.85M486.212 185.4H470.803M486.212 200.85V216.3M486.212 200.85H470.803M486.212 216.3V231.75M486.212 216.3H470.803M486.212 231.75V247.2M486.212 231.75H470.803M486.212 247.2V262.65M486.212 247.2H470.803M486.212 262.65V278.1M486.212 262.65H470.803M486.212 278.1V293.55M486.212 278.1H470.803M486.212 293.55V309M486.212 293.55H470.803M486.212 309H470.803M470.803 0V15.45M470.803 0H455.394M470.803 15.45V30.9M470.803 15.45H455.394M470.803 30.9V46.35M470.803 30.9H455.394M470.803 46.35V61.8M470.803 46.35H455.394M470.803 61.8V77.25M470.803 61.8H455.394M470.803 77.25V92.7M470.803 77.25H455.394M470.803 92.7V108.15M470.803 92.7H455.394M470.803 108.15H455.394M470.803 108.15V123.6M470.803 123.6V139.05M470.803 123.6H455.394M470.803 139.05V154.5M470.803 139.05H455.394M470.803 154.5V169.95M470.803 154.5H455.394M470.803 169.95V185.4M470.803 169.95H455.394M470.803 185.4V200.85M470.803 185.4H455.394M470.803 200.85V216.3M470.803 200.85H455.394M470.803 216.3V231.75M470.803 216.3H455.394M470.803 231.75V247.2M470.803 231.75H455.394M470.803 247.2V262.65M470.803 247.2H455.394M470.803 262.65V278.1M470.803 262.65H455.394M470.803 278.1V293.55M470.803 278.1H455.394M470.803 293.55V309M470.803 293.55H455.394M470.803 309H455.394M455.394 0V15.45M455.394 0H439.985M455.394 15.45V30.9M455.394 15.45H439.985M455.394 30.9V46.35M455.394 30.9H439.985M455.394 46.35V61.8M455.394 46.35H439.985M455.394 61.8V77.25M455.394 61.8H439.985M455.394 77.25V92.7M455.394 77.25H439.985M455.394 92.7V108.15M455.394 92.7H439.985M455.394 108.15V123.6M455.394 108.15H439.985M455.394 123.6V139.05M455.394 123.6H439.985M455.394 139.05V154.5M455.394 139.05H439.985M455.394 154.5V169.95M455.394 154.5H439.985M455.394 169.95V185.4M455.394 169.95H439.985M455.394 185.4V200.85M455.394 185.4H439.985M455.394 200.85V216.3M455.394 200.85C455.394 200.85 446.002 200.85 439.985 200.85M455.394 216.3V231.75M455.394 216.3H439.985M455.394 231.75V247.2M455.394 231.75H439.985M455.394 247.2V262.65M455.394 247.2H439.985M455.394 262.65V278.1M455.394 262.65H439.985M455.394 278.1V293.55M455.394 278.1H439.985M455.394 293.55V309M455.394 293.55H439.985M455.394 309H439.985M439.985 0V15.45M439.985 0H424.576M439.985 15.45V30.9M439.985 15.45H424.576M439.985 30.9V46.35M439.985 30.9H424.576M439.985 46.35V61.8M439.985 46.35H424.576M439.985 61.8V77.25M439.985 61.8H424.576M439.985 77.25V92.7M439.985 77.25H424.576M439.985 92.7V108.15M439.985 92.7H424.576M439.985 108.15V123.6M439.985 108.15H424.576M439.985 123.6V139.05M439.985 123.6H424.576M439.985 139.05V154.5M439.985 139.05H424.576M439.985 154.5V169.95M439.985 154.5H424.576M439.985 169.95V185.4M439.985 169.95H424.576M439.985 185.4C439.985 185.4 439.985 194.816 439.985 200.85M439.985 185.4H424.576M439.985 200.85C439.985 206.884 439.985 216.3 439.985 216.3M439.985 200.85C433.967 200.85 424.576 200.85 424.576 200.85M439.985 216.3V231.75M439.985 216.3H424.576M439.985 231.75V247.2M439.985 231.75H424.576M439.985 247.2V262.65M439.985 247.2H424.576M439.985 262.65V278.1M439.985 262.65H424.576M439.985 278.1V293.55M439.985 278.1H424.576M439.985 293.55V309M439.985 293.55H424.576M439.985 309H424.576M424.576 0V15.45M424.576 0H409.167M424.576 15.45V30.9M424.576 15.45H409.167M424.576 30.9V46.35M424.576 30.9H409.167M424.576 46.35V61.8M424.576 46.35H409.167M424.576 61.8V77.25M424.576 61.8H409.167M424.576 77.25V92.7M424.576 77.25H409.167M424.576 92.7V108.15M424.576 92.7H409.167M424.576 108.15V123.6M424.576 108.15H409.167M424.576 123.6V139.05M424.576 123.6H409.167M424.576 139.05V154.5M424.576 139.05H409.167M424.576 154.5V169.95M424.576 154.5H409.167M424.576 169.95V185.4M424.576 169.95H409.167M424.576 185.4V200.85M424.576 185.4H409.167M424.576 200.85V216.3M424.576 200.85H409.167M424.576 216.3V231.75M424.576 216.3H409.167M424.576 231.75V247.2M424.576 231.75H409.167M424.576 247.2V262.65M424.576 247.2H409.167M424.576 262.65V278.1M424.576 262.65H409.167M424.576 278.1V293.55M424.576 278.1H409.167M424.576 293.55V309M424.576 293.55H409.167M424.576 309H409.167M409.167 0V15.45M409.167 0H393.757M409.167 15.45V30.9M409.167 15.45H393.757M409.167 30.9V46.35M409.167 30.9H393.757M409.167 46.35V61.8M409.167 46.35H393.757M409.167 61.8V77.25M409.167 61.8H70.1665M409.167 77.25V92.7M409.167 77.25H70.1665M409.167 92.7V108.15M409.167 92.7H393.757M409.167 108.15V123.6M409.167 108.15H393.757M409.167 123.6V139.05M409.167 123.6H393.757M409.167 139.05V154.5M409.167 139.05H393.757M409.167 154.5V169.95M409.167 154.5H393.757M409.167 169.95V185.4M409.167 169.95H393.757M409.167 185.4V200.85M409.167 185.4H393.757M409.167 200.85V216.3M409.167 200.85H393.757M409.167 216.3V231.75M409.167 216.3H393.757M409.167 231.75V247.2M409.167 231.75H393.757M409.167 247.2V262.65M409.167 247.2H393.757M409.167 262.65V278.1M409.167 262.65H393.757M409.167 278.1V293.55M409.167 278.1H393.757M409.167 293.55V309M409.167 293.55H393.757M409.167 309H393.757M393.757 0V15.45M393.757 0H378.348M393.757 15.45V30.9M393.757 15.45H378.348M393.757 30.9V46.35M393.757 30.9H378.348M393.757 46.35H378.348M393.757 46.35V92.7M393.757 92.7V108.15M393.757 92.7H378.348M393.757 108.15V123.6M393.757 108.15H378.348M393.757 123.6V139.05M393.757 123.6H378.348M393.757 139.05V154.5M393.757 139.05H378.348M393.757 154.5V169.95M393.757 154.5H378.348M393.757 169.95V185.4M393.757 169.95H378.348M393.757 185.4V200.85M393.757 185.4H378.348M393.757 200.85V216.3M393.757 200.85H378.348M393.757 216.3V231.75M393.757 216.3H378.348M393.757 231.75V247.2M393.757 231.75H378.348M393.757 247.2V262.65M393.757 247.2H378.348M393.757 262.65V278.1M393.757 262.65H378.348M393.757 278.1V293.55M393.757 278.1H378.348M393.757 293.55V309M393.757 293.55H378.348M393.757 309H378.348M378.348 0V15.45M378.348 0H362.939M378.348 15.45V30.9M378.348 15.45H362.939M378.348 30.9V46.35M378.348 30.9H362.939M378.348 46.35H362.939M378.348 46.35V92.7M378.348 92.7V108.15M378.348 92.7H362.939M378.348 108.15V123.6M378.348 108.15H362.939M378.348 123.6V139.05M378.348 123.6H362.939M378.348 139.05V154.5M378.348 139.05H362.939M378.348 154.5V169.95M378.348 154.5H362.939M378.348 169.95V185.4M378.348 169.95H362.939M378.348 185.4V200.85M378.348 185.4H362.939M378.348 200.85V216.3M378.348 200.85H362.939M378.348 216.3V231.75M378.348 216.3H362.939M378.348 231.75V247.2M378.348 231.75H362.939M378.348 247.2V262.65M378.348 247.2H362.939M378.348 262.65V278.1M378.348 262.65H362.939M378.348 278.1V293.55M378.348 278.1H362.939M378.348 293.55V309M378.348 293.55H362.939M378.348 309H362.939M362.939 0V15.45M362.939 0H347.53M362.939 15.45V30.9M362.939 15.45H347.53M362.939 30.9V46.35M362.939 30.9H347.53M362.939 46.35H347.53M362.939 46.35V92.7M362.939 92.7V108.15M362.939 92.7H116.394M362.939 108.15V123.6M362.939 108.15H116.394M362.939 123.6V139.05M362.939 123.6H347.53M362.939 139.05V154.5M362.939 139.05H347.53M362.939 154.5V169.95M362.939 154.5H347.53M362.939 169.95V185.4M362.939 169.95H347.53M362.939 185.4V200.85M362.939 185.4H347.53M362.939 200.85V216.3M362.939 200.85H347.53M362.939 216.3V231.75M362.939 216.3H347.53M362.939 231.75V247.2M362.939 231.75H347.53M362.939 247.2V262.65M362.939 247.2H347.53M362.939 262.65V278.1M362.939 262.65H347.53M362.939 278.1V293.55M362.939 278.1H347.53M362.939 293.55V309M362.939 293.55H347.53M362.939 309H347.53M347.53 0V15.45M347.53 0H332.121M347.53 15.45V30.9M347.53 15.45H332.121M347.53 30.9V46.35M347.53 30.9H332.121M347.53 46.35H332.121M347.53 46.35V123.6M347.53 123.6V139.05M347.53 123.6H332.121M347.53 139.05V154.5M347.53 139.05H332.121M347.53 154.5V169.95M347.53 154.5H332.121M347.53 169.95V185.4M347.53 169.95H332.121M347.53 185.4V200.85M347.53 185.4H332.121M347.53 200.85V216.3M347.53 200.85H332.121M347.53 216.3V231.75M347.53 216.3H332.121M347.53 231.75V247.2M347.53 231.75H332.121M347.53 247.2V262.65M347.53 247.2H332.121M347.53 262.65V278.1M347.53 262.65H332.121M347.53 278.1V293.55M347.53 278.1H332.121M347.53 293.55V309M347.53 293.55H332.121M347.53 309H332.121M332.121 0V15.45M332.121 0H316.712M332.121 15.45V30.9M332.121 15.45H316.712M332.121 30.9V46.35M332.121 30.9H316.712M332.121 46.35H316.712M332.121 46.35V123.6M332.121 123.6V139.05M332.121 123.6H316.712M332.121 139.05V154.5M332.121 139.05H316.712M332.121 154.5V169.95M332.121 154.5H316.712M332.121 169.95V185.4M332.121 169.95H316.712M332.121 185.4V200.85M332.121 185.4H316.712M332.121 200.85V216.3M332.121 200.85H316.712M332.121 216.3V231.75M332.121 216.3H316.712M332.121 231.75V247.2M332.121 231.75H316.712M332.121 247.2V262.65M332.121 247.2H316.712M332.121 262.65V278.1M332.121 262.65H316.712M332.121 278.1V293.55M332.121 278.1H316.712M332.121 293.55V309M332.121 293.55H316.712M332.121 309H316.712M316.712 0V15.45M316.712 0H301.303M316.712 15.45V30.9M316.712 15.45H301.303M316.712 30.9V46.35M316.712 30.9H301.303M316.712 46.35H301.303M316.712 46.35V123.6M316.712 123.6V139.05M316.712 123.6H301.303M316.712 139.05V154.5M316.712 139.05H301.303M316.712 154.5V169.95M316.712 154.5H301.303M316.712 169.95V185.4M316.712 169.95H301.303M316.712 185.4V200.85M316.712 185.4H301.303M316.712 200.85V216.3M316.712 200.85H301.303M316.712 216.3V231.75M316.712 216.3H301.303M316.712 231.75V247.2M316.712 231.75H301.303M316.712 247.2V262.65M316.712 247.2H301.303M316.712 262.65V278.1M316.712 262.65H301.303M316.712 278.1V293.55M316.712 278.1H301.303M316.712 293.55V309M316.712 293.55H301.303M316.712 309H301.303M301.303 0V15.45M301.303 0H285.894M301.303 15.45V30.9M301.303 15.45H285.894M301.303 30.9V46.35M301.303 30.9H285.894M301.303 46.35H285.894M301.303 46.35V123.6M301.303 123.6V139.05M301.303 123.6H285.894M301.303 139.05V154.5M301.303 139.05H285.894M301.303 154.5V169.95M301.303 154.5H285.894M301.303 169.95V185.4M301.303 169.95H285.894M301.303 185.4V200.85M301.303 185.4H285.894M301.303 200.85V216.3M301.303 200.85H285.894M301.303 216.3V231.75M301.303 216.3H285.894M301.303 231.75V247.2M301.303 231.75H285.894M301.303 247.2V262.65M301.303 247.2H285.894M301.303 262.65V278.1M301.303 262.65H285.894M301.303 278.1V293.55M301.303 278.1H285.894M301.303 293.55V309M301.303 293.55H285.894M301.303 309H285.894M285.894 0V15.45M285.894 0H270.485M285.894 15.45V30.9M285.894 15.45H270.485M285.894 30.9V46.35M285.894 30.9H270.485M285.894 46.35H270.485M285.894 46.35V123.6M285.894 123.6V139.05M285.894 123.6H270.485M285.894 139.05V154.5M285.894 139.05H270.485M285.894 154.5V169.95M285.894 154.5H270.485M285.894 169.95V185.4M285.894 169.95H270.485M285.894 185.4V200.85M285.894 185.4H270.485M285.894 200.85V216.3M285.894 200.85H270.485M285.894 216.3V231.75M285.894 216.3H270.485M285.894 231.75V247.2M285.894 231.75H270.485M285.894 247.2V262.65M285.894 247.2H270.485M285.894 262.65V278.1M285.894 262.65H270.485M285.894 278.1V293.55M285.894 278.1H270.485M285.894 293.55V309M285.894 293.55H270.485M285.894 309H270.485M270.485 0V15.45M270.485 0H255.076M270.485 15.45V30.9M270.485 15.45H255.076M270.485 30.9V46.35M270.485 30.9H255.076M270.485 46.35H255.076M270.485 46.35V123.6M270.485 123.6V139.05M270.485 123.6H255.076M270.485 139.05V154.5M270.485 139.05H255.076M270.485 154.5V169.95M270.485 154.5H255.076M270.485 169.95V185.4M270.485 169.95H255.076M270.485 185.4V200.85M270.485 185.4H255.076M270.485 200.85V216.3M270.485 200.85H255.076M270.485 216.3V231.75M270.485 216.3H255.076M270.485 231.75V247.2M270.485 231.75H255.076M270.485 247.2V262.65M270.485 247.2H255.076M270.485 262.65V278.1M270.485 262.65H255.076M270.485 278.1V293.55M270.485 278.1H255.076M270.485 293.55V309M270.485 293.55H255.076M270.485 309H255.076M255.076 0V15.45M255.076 0H239.667M255.076 15.45H239.667M255.076 15.45V30.9M255.076 30.9V46.35M255.076 30.9H239.667M255.076 46.35H239.667M255.076 46.35V123.6M255.076 123.6V139.05M255.076 123.6H239.667M255.076 139.05V154.5M255.076 139.05H239.667M255.076 154.5V169.95M255.076 154.5H239.667M255.076 169.95V185.4M255.076 169.95H239.667M255.076 185.4V200.85M255.076 185.4H239.667M255.076 200.85V216.3M255.076 200.85H239.667M255.076 216.3V231.75M255.076 216.3H239.667M255.076 231.75V247.2M255.076 231.75H239.667M255.076 247.2V262.65M255.076 247.2H239.667M255.076 262.65V278.1M255.076 262.65H239.667M255.076 278.1V293.55M255.076 278.1H239.667M255.076 293.55V309M255.076 293.55H239.667M255.076 309H239.667M239.667 0V15.45M239.667 0H224.257M239.667 15.45H224.257M239.667 15.45V30.9M239.667 30.9V46.35M239.667 30.9H224.257M239.667 46.35H224.257M239.667 46.35V123.6M239.667 123.6V139.05M239.667 123.6H224.257M239.667 139.05V154.5M239.667 139.05H224.257M239.667 154.5V169.95M239.667 154.5H224.257M239.667 169.95V185.4M239.667 169.95H224.257M239.667 185.4V200.85M239.667 185.4H224.257M239.667 200.85V216.3M239.667 200.85H224.257M239.667 216.3V231.75M239.667 216.3H224.257M239.667 231.75V247.2M239.667 231.75H224.257M239.667 247.2V262.65M239.667 247.2H224.257M239.667 262.65V278.1M239.667 262.65H224.257M239.667 278.1V293.55M239.667 278.1H224.257M239.667 293.55V309M239.667 293.55H224.257M239.667 309H224.257M224.257 0V15.45M224.257 0H208.848M224.257 15.45H208.848M224.257 15.45V30.9M224.257 30.9V46.35M224.257 30.9H208.848M224.257 46.35H208.848M224.257 46.35V123.6M224.257 123.6V139.05M224.257 123.6H208.848M224.257 139.05V154.5M224.257 139.05H208.848M224.257 154.5V169.95M224.257 154.5H208.848M224.257 169.95V185.4M224.257 169.95H208.848M224.257 185.4V200.85M224.257 185.4H208.848M224.257 200.85V216.3M224.257 200.85H208.848M224.257 216.3V231.75M224.257 216.3H208.848M224.257 231.75V247.2M224.257 231.75H208.848M224.257 247.2V262.65M224.257 247.2H208.848M224.257 262.65V278.1M224.257 262.65H208.848M224.257 278.1V293.55M224.257 278.1H208.848M224.257 293.55V309M224.257 293.55H208.848M224.257 309H208.848M208.848 0V15.45M208.848 0H193.439M208.848 15.45H193.439M208.848 15.45V30.9M208.848 30.9V46.35M208.848 30.9H193.439M208.848 46.35H193.439M208.848 46.35V123.6M208.848 123.6V139.05M208.848 123.6H193.439M208.848 139.05V154.5M208.848 139.05H193.439M208.848 154.5V169.95M208.848 154.5H193.439M208.848 169.95V185.4M208.848 169.95H193.439M208.848 185.4V200.85M208.848 185.4H193.439M208.848 200.85V216.3M208.848 200.85H193.439M208.848 216.3V231.75M208.848 216.3H193.439M208.848 231.75V247.2M208.848 231.75H193.439M208.848 247.2V262.65M208.848 247.2H193.439M208.848 262.65V278.1M208.848 262.65H193.439M208.848 278.1V293.55M208.848 278.1H193.439M208.848 293.55V309M208.848 293.55H193.439M208.848 309H193.439M193.439 0V15.45M193.439 0H178.03M193.439 15.45V30.9M193.439 15.45H178.03M193.439 30.9V46.35M193.439 30.9H178.03M193.439 46.35H178.03M193.439 46.35V123.6M193.439 123.6V139.05M193.439 123.6H178.03M193.439 139.05V154.5M193.439 139.05H178.03M193.439 154.5V169.95M193.439 154.5H178.03M193.439 169.95V185.4M193.439 169.95H178.03M193.439 185.4V200.85M193.439 185.4H178.03M193.439 200.85V216.3M193.439 200.85H178.03M193.439 216.3V231.75M193.439 216.3H178.03M193.439 231.75V247.2M193.439 231.75H178.03M193.439 247.2V262.65M193.439 247.2H178.03M193.439 262.65V278.1M193.439 262.65H178.03M193.439 278.1V293.55M193.439 278.1H178.03M193.439 293.55V309M193.439 293.55H178.03M193.439 309H178.03M178.03 0V15.45M178.03 0H162.621M178.03 15.45V30.9M178.03 15.45H162.621M178.03 30.9V46.35M178.03 30.9H162.621M178.03 46.35H162.621M178.03 46.35V123.6M178.03 123.6V139.05M178.03 123.6H162.621M178.03 139.05V154.5M178.03 139.05H162.621M178.03 154.5V169.95M178.03 154.5H162.621M178.03 169.95V185.4M178.03 169.95H162.621M178.03 185.4V200.85M178.03 185.4H162.621M178.03 200.85V216.3M178.03 200.85H162.621M178.03 216.3V231.75M178.03 216.3H162.621M178.03 231.75V247.2M178.03 231.75H162.621M178.03 247.2V262.65M178.03 247.2H162.621M178.03 262.65V278.1M178.03 262.65H162.621M178.03 278.1V293.55M178.03 278.1H162.621M178.03 293.55V309M178.03 293.55H162.621M178.03 309H162.621M162.621 0V15.45M162.621 0H147.212M162.621 15.45V30.9M162.621 15.45H147.212M162.621 30.9V46.35M162.621 30.9H147.212M162.621 46.35H147.212M162.621 46.35V123.6M162.621 123.6V139.05M162.621 123.6H147.212M162.621 139.05V154.5M162.621 139.05H147.212M162.621 154.5V169.95M162.621 154.5H147.212M162.621 169.95V185.4M162.621 169.95H147.212M162.621 185.4V200.85M162.621 185.4H147.212M162.621 200.85V216.3M162.621 200.85H147.212M162.621 216.3V231.75M162.621 216.3H147.212M162.621 231.75V247.2M162.621 231.75H147.212M162.621 247.2V262.65M162.621 247.2H147.212M162.621 262.65V278.1M162.621 262.65H147.212M162.621 278.1V293.55M162.621 278.1H147.212M162.621 293.55V309M162.621 293.55H147.212M162.621 309H147.212M147.212 0V15.45M147.212 0H131.803M147.212 15.45V30.9M147.212 15.45H131.803M147.212 30.9V46.35M147.212 30.9H131.803M147.212 46.35H131.803M147.212 46.35V123.6M147.212 123.6V139.05M147.212 123.6H131.803M147.212 139.05V154.5M147.212 139.05H131.803M147.212 154.5V169.95M147.212 154.5H131.803M147.212 169.95V185.4M147.212 169.95H131.803M147.212 185.4V200.85M147.212 185.4H131.803M147.212 200.85V216.3M147.212 200.85H131.803M147.212 216.3V231.75M147.212 216.3H131.803M147.212 231.75V247.2M147.212 231.75H131.803M147.212 247.2V262.65M147.212 247.2H131.803M147.212 262.65V278.1M147.212 262.65H131.803M147.212 278.1V293.55M147.212 278.1H131.803M147.212 293.55V309M147.212 293.55H131.803M147.212 309H131.803M131.803 0V15.45M131.803 0H116.394M131.803 15.45V30.9M131.803 15.45H116.394M131.803 30.9V46.35M131.803 30.9H116.394M131.803 46.35H116.394M131.803 46.35V123.6M131.803 123.6V139.05M131.803 123.6H116.394M131.803 139.05V154.5M131.803 139.05H116.394M131.803 154.5V169.95M131.803 154.5H116.394M131.803 169.95V185.4M131.803 169.95H116.394M131.803 185.4V200.85M131.803 185.4H116.394M131.803 200.85V216.3M131.803 200.85H116.394M131.803 216.3V231.75M131.803 216.3H116.394M131.803 231.75V247.2M131.803 231.75H116.394M131.803 247.2V262.65M131.803 247.2H116.394M131.803 262.65V278.1M131.803 262.65H116.394M131.803 278.1V293.55M131.803 278.1H116.394M131.803 293.55V309M131.803 293.55H116.394M131.803 309H116.394M116.394 0V15.45M116.394 0H100.985M116.394 15.45V30.9M116.394 15.45H100.985M116.394 30.9V46.35M116.394 30.9H100.985M116.394 46.35H100.985M116.394 46.35V92.7M116.394 92.7V108.15M116.394 92.7H100.985M116.394 108.15V123.6M116.394 108.15H100.985M116.394 123.6V139.05M116.394 123.6H100.985M116.394 139.05V154.5M116.394 139.05H100.985M116.394 154.5V169.95M116.394 154.5H100.985M116.394 169.95V185.4M116.394 169.95H100.985M116.394 185.4V200.85M116.394 185.4H100.985M116.394 200.85V216.3M116.394 200.85H100.985M116.394 216.3V231.75M116.394 216.3H100.985M116.394 231.75V247.2M116.394 231.75H100.985M116.394 247.2V262.65M116.394 247.2H100.985M116.394 262.65V278.1M116.394 262.65H100.985M116.394 278.1V293.55M116.394 278.1H100.985M116.394 293.55V309M116.394 293.55H100.985M116.394 309H100.985M100.985 0V15.45M100.985 0H85.5756M100.985 15.45V30.9M100.985 15.45H85.5756M100.985 30.9V46.35M100.985 30.9H85.5756M100.985 46.35H85.5756M100.985 46.35V92.7M100.985 92.7V108.15M100.985 92.7H85.5756M100.985 108.15V123.6M100.985 108.15H85.5756M100.985 123.6V139.05M100.985 123.6H85.5756M100.985 139.05V154.5M100.985 139.05H85.5756M100.985 154.5V169.95M100.985 154.5H85.5756M100.985 169.95V185.4M100.985 169.95H85.5756M100.985 185.4V200.85M100.985 185.4H85.5756M100.985 200.85V216.3M100.985 200.85H85.5756M100.985 216.3V231.75M100.985 216.3H85.5756M100.985 231.75V247.2M100.985 231.75H85.5756M100.985 247.2V262.65M100.985 247.2H85.5756M100.985 262.65V278.1M100.985 262.65H85.5756M100.985 278.1V293.55M100.985 278.1H85.5756M100.985 293.55V309M100.985 293.55H85.5756M100.985 309H85.5756M85.5756 0V15.45M85.5756 0H70.1665M85.5756 15.45V30.9M85.5756 15.45H70.1665M85.5756 30.9V46.35M85.5756 30.9H70.1665M85.5756 46.35H70.1665M85.5756 46.35V92.7M85.5756 92.7V108.15M85.5756 92.7H70.1665M85.5756 108.15V123.6M85.5756 108.15H70.1665M85.5756 123.6V139.05M85.5756 123.6H70.1665M85.5756 139.05V154.5M85.5756 139.05H70.1665M85.5756 154.5V169.95M85.5756 154.5H70.1665M85.5756 169.95V185.4M85.5756 169.95H70.1665M85.5756 185.4V200.85M85.5756 185.4H70.1665M85.5756 200.85V216.3M85.5756 200.85H70.1665M85.5756 216.3V231.75M85.5756 216.3H70.1665M85.5756 231.75V247.2M85.5756 231.75H70.1665M85.5756 247.2V262.65M85.5756 247.2H70.1665M85.5756 262.65V278.1M85.5756 262.65H70.1665M85.5756 278.1V293.55M85.5756 278.1H70.1665M85.5756 293.55V309M85.5756 293.55H70.1665M85.5756 309H70.1665M70.1665 0V15.45M70.1665 0H54.7574M70.1665 15.45V30.9M70.1665 15.45H54.7574M70.1665 30.9V46.35M70.1665 30.9H54.7574M70.1665 46.35V61.8M70.1665 46.35H54.7574M70.1665 61.8V77.25M70.1665 61.8H54.7574M70.1665 77.25V92.7M70.1665 77.25H54.7574M70.1665 92.7V108.15M70.1665 92.7H54.7574M70.1665 108.15V123.6M70.1665 108.15H54.7574M70.1665 123.6V139.05M70.1665 123.6H54.7574M70.1665 139.05V154.5M70.1665 139.05H54.7574M70.1665 154.5V169.95M70.1665 154.5H54.7574M70.1665 169.95V185.4M70.1665 169.95H54.7574M70.1665 185.4V200.85M70.1665 185.4H54.7574M70.1665 200.85V216.3M70.1665 200.85H54.7574M70.1665 216.3V231.75M70.1665 216.3H54.7574M70.1665 231.75V247.2M70.1665 231.75H54.7574M70.1665 247.2V262.65M70.1665 247.2H54.7574M70.1665 262.65V278.1M70.1665 262.65H54.7574M70.1665 278.1V293.55M70.1665 278.1H54.7574M70.1665 293.55V309M70.1665 293.55H54.7574M70.1665 309H54.7574M54.7574 0V15.45M54.7574 0H39.3483M54.7574 15.45V30.9M54.7574 15.45H39.3483M54.7574 30.9V46.35M54.7574 30.9H39.3483M54.7574 46.35V61.8M54.7574 46.35H39.3483M54.7574 61.8V77.25M54.7574 61.8H39.3483M54.7574 77.25V92.7M54.7574 77.25H39.3483M54.7574 92.7V108.15M54.7574 92.7H39.3483M54.7574 108.15V123.6M54.7574 108.15H39.3483M54.7574 123.6V139.05M54.7574 123.6H39.3483M54.7574 139.05V154.5M54.7574 139.05H39.3483M54.7574 154.5V169.95M54.7574 154.5H39.3483M54.7574 169.95V185.4M54.7574 169.95H39.3483M54.7574 185.4V200.85M54.7574 185.4H39.3483M54.7574 200.85V216.3M54.7574 200.85H39.3483M54.7574 216.3V231.75M54.7574 216.3H39.3483M54.7574 231.75V247.2M54.7574 231.75H39.3483M54.7574 247.2V262.65M54.7574 247.2H39.3483M54.7574 262.65V278.1M54.7574 262.65H39.3483M54.7574 278.1V293.55M54.7574 278.1H39.3483M54.7574 293.55V309M54.7574 293.55H39.3483M54.7574 309H39.3483M39.3483 0V15.45M39.3483 0H23.9392M39.3483 15.45V30.9M39.3483 15.45H23.9392M39.3483 30.9V46.35M39.3483 30.9H23.9392M39.3483 46.35V61.8M39.3483 46.35H23.9392M39.3483 61.8V77.25M39.3483 61.8H23.9392M39.3483 77.25V92.7M39.3483 77.25H23.9392M39.3483 92.7V108.15M39.3483 92.7H23.9392M39.3483 108.15V123.6M39.3483 108.15H23.9392M39.3483 123.6V139.05M39.3483 123.6H23.9392M39.3483 139.05V154.5M39.3483 139.05H23.9392M39.3483 154.5V169.95M39.3483 154.5H23.9392M39.3483 169.95V185.4M39.3483 169.95H23.9392M39.3483 185.4V200.85M39.3483 185.4H23.9392M39.3483 200.85V216.3M39.3483 200.85H23.9392M39.3483 216.3V231.75M39.3483 216.3H23.9392M39.3483 231.75V247.2M39.3483 231.75H23.9392M39.3483 247.2V262.65M39.3483 247.2H23.9392M39.3483 262.65V278.1M39.3483 262.65H23.9392M39.3483 278.1V293.55M39.3483 278.1H23.9392M39.3483 293.55V309M39.3483 293.55H23.9392M39.3483 309H23.9392M23.9392 0V15.45M23.9392 0H8.53015M23.9392 15.45V30.9M23.9392 15.45H8.53015M23.9392 30.9V46.35M23.9392 30.9H8.53015M23.9392 46.35V61.8M23.9392 46.35H8.53015M23.9392 61.8V77.25M23.9392 61.8H8.53015M23.9392 77.25V92.7M23.9392 77.25H8.53015M23.9392 92.7V108.15M23.9392 92.7H8.53015M23.9392 108.15V123.6M23.9392 108.15H8.53015M23.9392 123.6V139.05M23.9392 123.6H8.53015M23.9392 139.05V154.5M23.9392 139.05H8.53015M23.9392 154.5V169.95M23.9392 154.5H8.53015M23.9392 169.95V185.4M23.9392 169.95H8.53015M23.9392 185.4V200.85M23.9392 185.4H8.53015M23.9392 200.85V216.3M23.9392 200.85H8.53015M23.9392 216.3V231.75M23.9392 216.3H8.53015M23.9392 231.75V247.2M23.9392 231.75H8.53015M23.9392 247.2V262.65M23.9392 247.2H8.53015M23.9392 262.65V278.1M23.9392 262.65H8.53015M23.9392 278.1V293.55M23.9392 278.1H8.53015M23.9392 293.55V309M23.9392 293.55H8.53015M23.9392 309H8.53015M8.53015 0V15.45M8.53015 0H-6.87894M8.53015 15.45V30.9M8.53015 15.45H-6.87894M8.53015 30.9V46.35M8.53015 30.9H-6.87894M8.53015 46.35V61.8M8.53015 46.35H-6.87894M8.53015 61.8V77.25M8.53015 61.8H-6.87894M8.53015 77.25V92.7M8.53015 77.25H-6.87894M8.53015 92.7V108.15M8.53015 92.7H-6.87894M8.53015 108.15H-6.87894M8.53015 108.15V123.6M8.53015 123.6V139.05M8.53015 123.6H-6.87894M8.53015 139.05V154.5M8.53015 139.05H-6.87894M8.53015 154.5V169.95M8.53015 154.5H-6.87894M8.53015 169.95V185.4M8.53015 169.95H-6.87894M8.53015 185.4V200.85M8.53015 185.4H-6.87894M8.53015 200.85V216.3M8.53015 200.85H-6.87894M8.53015 216.3V231.75M8.53015 216.3H-6.87894M8.53015 231.75V247.2M8.53015 231.75H-6.87894M8.53015 247.2V262.65M8.53015 247.2H-6.87894M8.53015 262.65V278.1M8.53015 262.65H-6.87894M8.53015 278.1V293.55M8.53015 278.1H-6.87894M8.53015 293.55V309M8.53015 293.55H-6.87894M8.53015 309H-6.87894M-6.87894 0V15.45M-6.87894 0H-22.288M-6.87894 15.45V30.9M-6.87894 15.45H-22.288M-6.87894 30.9V46.35M-6.87894 30.9H-22.288M-6.87894 46.35V61.8M-6.87894 46.35H-22.288M-6.87894 61.8V77.25M-6.87894 61.8H-22.288M-6.87894 77.25V92.7M-6.87894 77.25H-22.288M-6.87894 92.7V108.15M-6.87894 92.7H-22.288M-6.87894 108.15V123.6M-6.87894 108.15H-22.288M-6.87894 123.6V139.05M-6.87894 123.6H-22.288M-6.87894 139.05V154.5M-6.87894 139.05H-22.288M-6.87894 154.5V169.95M-6.87894 154.5H-22.288M-6.87894 169.95V185.4M-6.87894 169.95H-22.288M-6.87894 185.4V200.85M-6.87894 185.4H-22.288M-6.87894 200.85V216.3M-6.87894 200.85H-22.288M-6.87894 216.3V231.75M-6.87894 216.3H-22.288M-6.87894 231.75V247.2M-6.87894 231.75H-22.288M-6.87894 247.2V262.65M-6.87894 247.2H-22.288M-6.87894 262.65V278.1M-6.87894 262.65H-22.288M-6.87894 278.1V293.55M-6.87894 278.1H-22.288M-6.87894 293.55V309M-6.87894 293.55H-22.288M-6.87894 309H-22.288M-22.288 0V15.45M-22.288 0H-37.6971M-22.288 15.45V30.9M-22.288 15.45H-37.6971M-22.288 30.9V46.35M-22.288 30.9H-37.6971M-22.288 46.35V61.8M-22.288 46.35H-37.6971M-22.288 61.8V77.25M-22.288 61.8H-37.6971M-22.288 77.25V92.7M-22.288 77.25H-37.6971M-22.288 92.7V108.15M-22.288 92.7H-37.6971M-22.288 108.15V123.6M-22.288 108.15H-37.6971M-22.288 123.6V139.05M-22.288 123.6H-37.6971M-22.288 139.05V154.5M-22.288 139.05H-37.6971M-22.288 154.5V169.95M-22.288 154.5H-37.6971M-22.288 169.95V185.4M-22.288 169.95H-37.6971M-22.288 185.4V200.85M-22.288 185.4H-37.6971M-22.288 200.85V216.3M-22.288 200.85H-37.6971M-22.288 216.3V231.75M-22.288 216.3H-37.6971M-22.288 231.75V247.2M-22.288 231.75H-37.6971M-22.288 247.2V262.65M-22.288 247.2H-37.6971M-22.288 262.65V278.1M-22.288 262.65H-37.6971M-22.288 278.1V293.55M-22.288 278.1H-37.6971M-22.288 293.55V309M-22.288 293.55H-37.6971M-22.288 309H-37.6971M-37.6971 0V15.45M-37.6971 0H-53.1062M-37.6971 15.45V30.9M-37.6971 15.45H-53.1062M-37.6971 30.9V46.35M-37.6971 30.9H-53.1062M-37.6971 46.35V61.8M-37.6971 46.35H-53.1062M-37.6971 61.8V77.25M-37.6971 61.8H-53.1062M-37.6971 77.25V92.7M-37.6971 77.25H-53.1062M-37.6971 92.7V108.15M-37.6971 92.7H-53.1062M-37.6971 108.15V123.6M-37.6971 108.15H-53.1062M-37.6971 123.6V139.05M-37.6971 123.6H-53.1062M-37.6971 139.05V154.5M-37.6971 139.05H-53.1062M-37.6971 154.5V169.95M-37.6971 154.5H-53.1062M-37.6971 169.95V185.4M-37.6971 169.95H-53.1062M-37.6971 185.4V200.85M-37.6971 185.4H-53.1062M-37.6971 200.85V216.3M-37.6971 200.85H-53.1062M-37.6971 216.3V231.75M-37.6971 216.3H-53.1062M-37.6971 231.75V247.2M-37.6971 231.75H-53.1062M-37.6971 247.2V262.65M-37.6971 247.2H-53.1062M-37.6971 262.65V278.1M-37.6971 262.65H-53.1062M-37.6971 278.1V293.55M-37.6971 278.1H-53.1062M-37.6971 293.55V309M-37.6971 293.55H-53.1062M-37.6971 309H-53.1062M-53.1062 0V15.45M-53.1062 0H-68.5153M-53.1062 15.45V30.9M-53.1062 15.45H-68.5153M-53.1062 30.9V46.35M-53.1062 30.9H-68.5153M-53.1062 46.35V61.8M-53.1062 46.35H-68.5153M-53.1062 61.8V77.25M-53.1062 61.8H-68.5153M-53.1062 77.25V92.7M-53.1062 77.25H-68.5153M-53.1062 92.7V108.15M-53.1062 92.7H-68.5153M-53.1062 108.15V123.6M-53.1062 108.15H-68.5153M-53.1062 123.6V139.05M-53.1062 123.6H-68.5153M-53.1062 139.05V154.5M-53.1062 139.05H-68.5153M-53.1062 154.5V169.95M-53.1062 154.5H-68.5153M-53.1062 169.95V185.4M-53.1062 169.95H-68.5153M-53.1062 185.4V200.85M-53.1062 185.4H-68.5153M-53.1062 200.85V216.3M-53.1062 200.85H-68.5153M-53.1062 216.3V231.75M-53.1062 216.3H-68.5153M-53.1062 231.75V247.2M-53.1062 231.75H-68.5153M-53.1062 247.2V262.65M-53.1062 247.2H-68.5153M-53.1062 262.65V278.1M-53.1062 262.65H-68.5153M-53.1062 278.1V293.55M-53.1062 278.1H-68.5153M-53.1062 293.55V309M-53.1062 293.55H-68.5153M-53.1062 309H-68.5153M-68.5153 0V15.45M-68.5153 0H-83.9244M-68.5153 15.45V30.9M-68.5153 15.45H-83.9244M-68.5153 30.9V46.35M-68.5153 30.9H-83.9244M-68.5153 46.35V61.8M-68.5153 46.35H-83.9244M-68.5153 61.8V77.25M-68.5153 61.8H-83.9244M-68.5153 77.25V92.7M-68.5153 77.25H-83.9244M-68.5153 92.7V108.15M-68.5153 92.7H-83.9244M-68.5153 108.15V123.6M-68.5153 108.15H-83.9244M-68.5153 123.6V139.05M-68.5153 123.6H-83.9244M-68.5153 139.05V154.5M-68.5153 139.05H-83.9244M-68.5153 154.5V169.95M-68.5153 154.5H-83.9244M-68.5153 169.95V185.4M-68.5153 169.95H-83.9244M-68.5153 185.4V200.85M-68.5153 185.4H-83.9244M-68.5153 200.85V216.3M-68.5153 200.85H-83.9244M-68.5153 216.3V231.75M-68.5153 216.3H-83.9244M-68.5153 231.75V247.2M-68.5153 231.75H-83.9244M-68.5153 247.2V262.65M-68.5153 247.2H-83.9244M-68.5153 262.65V278.1M-68.5153 262.65H-83.9244M-68.5153 278.1V293.55M-68.5153 278.1H-83.9244M-68.5153 293.55V309M-68.5153 293.55H-83.9244M-68.5153 309H-83.9244M-83.9244 0V15.45M-83.9244 0H-99.3335V15.45M-83.9244 15.45V30.9M-83.9244 15.45H-99.3335M-83.9244 30.9V46.35M-83.9244 30.9H-99.3335M-83.9244 46.35V61.8M-83.9244 46.35H-99.3335M-83.9244 61.8V77.25M-83.9244 61.8H-99.3335M-83.9244 77.25V92.7M-83.9244 77.25H-99.3335M-83.9244 92.7V108.15M-83.9244 92.7H-99.3335M-83.9244 108.15V123.6M-83.9244 108.15H-99.3335M-83.9244 123.6V139.05M-83.9244 123.6H-99.3335M-83.9244 139.05V154.5M-83.9244 139.05H-99.3335M-83.9244 154.5V169.95M-83.9244 154.5H-99.3335M-83.9244 169.95V185.4M-83.9244 169.95H-99.3335M-83.9244 185.4V200.85M-83.9244 185.4H-99.3335M-83.9244 200.85V216.3M-83.9244 200.85H-99.3335M-83.9244 216.3V231.75M-83.9244 216.3H-99.3335M-83.9244 231.75V247.2M-83.9244 231.75H-99.3335M-83.9244 247.2V262.65M-83.9244 247.2H-99.3335M-83.9244 262.65V278.1M-83.9244 262.65H-99.3335M-83.9244 278.1V293.55M-83.9244 278.1H-99.3335M-83.9244 293.55V309M-83.9244 293.55H-99.3335M-83.9244 309H-99.3335V293.55M-99.3335 15.45V30.9M-99.3335 30.9V46.35M-99.3335 46.35V61.8M-99.3335 61.8V77.25M-99.3335 77.25V92.7M-99.3335 92.7V108.15M-99.3335 108.15V123.6M-99.3335 123.6V139.05M-99.3335 139.05V154.5M-99.3335 154.5V169.95M-99.3335 169.95V185.4M-99.3335 185.4V200.85M-99.3335 200.85V216.3M-99.3335 216.3V231.75M-99.3335 231.75V247.2M-99.3335 247.2V262.65M-99.3335 262.65V278.1M-99.3335 278.1V293.55" stroke="url(#paint0_linear_54_1188)"/>
<defs>
<linearGradient id="paint0_linear_54_1188" x1="239.667" y1="91.155" x2="239.667" y2="384.898" gradientUnits="userSpaceOnUse">
<stop stop-color="#B4B9C9" stop-opacity="0.15"/>
<stop offset="1" stop-color="#B4B9C9" stop-opacity="0"/>
</linearGradient>
</defs>
</svg>
