<svg width="43" height="49" viewBox="0 0 43 49" fill="none" xmlns="http://www.w3.org/2000/svg">
<g filter="url(#filter0_dd_54_1362)">
<path d="M18.8787 40.5938C29.3051 42.1884 39.0482 35.0409 40.6406 24.6294C42.2329 14.2178 35.0716 4.48488 24.6452 2.89025C14.2188 1.29563 4.47574 8.44316 2.88338 18.8547C1.29102 29.2662 8.45239 38.9992 18.8787 40.5938Z" fill="#FFEB79"/>
<path d="M24.5796 3.3159C34.7715 4.87466 41.7712 14.3887 40.2149 24.5646C38.6584 34.7403 29.1352 41.7264 18.9435 40.1677C8.75198 38.6087 1.75294 29.0957 3.30905 18.9201C4.86534 8.74439 14.388 1.75742 24.5796 3.3159Z" stroke="#111827" stroke-width="0.86127"/>
</g>
<path d="M33.5698 22.2527C33.6793 22.2493 33.7886 22.2684 33.89 22.3096C34.0955 22.3972 34.2625 22.5575 34.3596 22.7598C34.4552 22.9591 34.4746 23.186 34.4178 23.3999C33.3813 26.208 31.4237 28.5793 28.865 30.1221C26.3026 31.667 23.292 32.2891 20.3314 31.8854C17.3708 31.4818 14.6367 30.0769 12.5818 27.9024C10.5285 25.7296 9.2761 22.9184 9.03096 19.9332C9.01834 19.7159 9.09062 19.502 9.23268 19.3377C9.37477 19.1733 9.57536 19.0718 9.79084 19.0535L9.79997 19.052L9.80992 19.0515C9.92113 19.0351 10.0345 19.0414 10.1427 19.0718C10.251 19.1022 10.3515 19.1556 10.438 19.2276C10.5246 19.2997 10.5958 19.3892 10.6457 19.4906C10.683 19.5664 10.7075 19.6477 10.7196 19.731L10.7282 19.8233L10.7291 19.8303C10.9573 22.4193 12.0549 24.854 13.8433 26.734C15.6316 28.6139 18.0046 29.8287 20.5727 30.1786C23.1408 30.5286 25.7518 29.9925 27.9783 28.6597C30.2047 27.3269 31.9143 25.2759 32.8275 22.8426L32.832 22.8324L32.8346 22.8219C32.8662 22.7154 32.92 22.6162 32.9916 22.5318C33.0633 22.4475 33.1519 22.3795 33.2515 22.3314C33.351 22.2834 33.4596 22.2561 33.5698 22.2527Z" fill="#111827" stroke="#111827" stroke-width="0.615193"/>
<path d="M18.3599 10.9676C18.8639 11.0447 19.3193 11.3171 19.6287 11.7277C19.9357 12.1354 20.0751 12.6481 20.0183 13.1595C19.9199 13.6654 19.6336 14.1138 19.2183 14.4114C18.8003 14.7108 18.2842 14.8346 17.7803 14.7575C17.2765 14.6804 16.8218 14.4081 16.5124 13.9976C16.205 13.5894 16.0649 13.0758 16.1222 12.5637C16.2209 12.0586 16.5081 11.6112 16.9229 11.3139C17.3408 11.0146 17.8561 10.8907 18.3599 10.9676Z" fill="#111827" stroke="#111827" stroke-width="0.615193"/>
<path d="M27.8729 12.4221L27.8835 12.4238C28.1393 12.4584 28.386 12.5432 28.609 12.673C28.8319 12.8028 29.0264 12.9757 29.1824 13.1806C29.3385 13.3856 29.4525 13.6193 29.5179 13.8681C29.5832 14.1167 29.5986 14.3754 29.5634 14.6299C29.4644 15.1308 29.1758 15.5747 28.7573 15.8699C28.3347 16.168 27.8122 16.2914 27.3 16.2131C26.7878 16.1347 26.3261 15.8608 26.0119 15.45C25.699 15.0409 25.5568 14.5275 25.6146 14.017C25.6573 13.7669 25.7487 13.5275 25.8834 13.3123C26.0198 13.0945 26.1982 12.9053 26.4081 12.7563C26.618 12.6073 26.8556 12.5006 27.107 12.4433C27.3582 12.3861 27.6187 12.3789 27.8729 12.4221Z" fill="#111827" stroke="#111827" stroke-width="0.615193"/>
<defs>
<filter id="filter0_dd_54_1362" x="2.66162" y="2.66772" width="41.2007" height="46.1487" filterUnits="userSpaceOnUse" color-interpolation-filters="sRGB">
<feFlood flood-opacity="0" result="BackgroundImageFix"/>
<feColorMatrix in="SourceAlpha" type="matrix" values="0 0 0 0 0 0 0 0 0 0 0 0 0 0 0 0 0 0 127 0" result="hardAlpha"/>
<feOffset dx="1.35342" dy="2.76837"/>
<feComposite in2="hardAlpha" operator="out"/>
<feColorMatrix type="matrix" values="0 0 0 0 0.0666667 0 0 0 0 0.0941176 0 0 0 0 0.152941 0 0 0 1 0"/>
<feBlend mode="normal" in2="BackgroundImageFix" result="effect1_dropShadow_54_1362"/>
<feColorMatrix in="SourceAlpha" type="matrix" values="0 0 0 0 0 0 0 0 0 0 0 0 0 0 0 0 0 0 127 0" result="hardAlpha"/>
<feOffset dx="3" dy="8"/>
<feComposite in2="hardAlpha" operator="out"/>
<feColorMatrix type="matrix" values="0 0 0 0 0.0666667 0 0 0 0 0.0941176 0 0 0 0 0.152941 0 0 0 1 0"/>
<feBlend mode="normal" in2="effect1_dropShadow_54_1362" result="effect2_dropShadow_54_1362"/>
<feBlend mode="normal" in="SourceGraphic" in2="effect2_dropShadow_54_1362" result="shape"/>
</filter>
</defs>
</svg>
