<svg width="331" height="232" viewBox="0 0 331 232" fill="none" xmlns="http://www.w3.org/2000/svg">
<rect x="151.592" y="51.5915" width="85.1765" height="85.1765" rx="8.87255" fill="white" stroke="black" stroke-width="1.18301"/>
<rect x="152.498" y="146.589" width="84.8219" height="84.8219" rx="8.83562" fill="white" stroke="black" stroke-width="1.17808"/>
<rect x="245.049" y="51.5915" width="85.1765" height="85.1765" rx="8.87255" fill="white" stroke="black" stroke-width="1.18301"/>
<rect x="245.049" y="146.232" width="85.1765" height="85.1765" rx="8.87255" fill="white" stroke="black" stroke-width="1.18301"/>
<path d="M195.105 185.76C194.227 185.76 193.37 186.02 192.64 186.507C191.911 186.995 191.342 187.688 191.006 188.498C190.67 189.309 190.583 190.201 190.754 191.061C190.925 191.922 191.347 192.712 191.968 193.333C192.588 193.953 193.379 194.376 194.239 194.547C195.1 194.718 195.992 194.63 196.802 194.295C197.613 193.959 198.306 193.39 198.793 192.661C199.281 191.931 199.541 191.073 199.541 190.196C199.541 189.019 199.074 187.891 198.242 187.059C197.41 186.227 196.281 185.76 195.105 185.76ZM195.105 192.858C194.578 192.858 194.064 192.702 193.626 192.409C193.188 192.117 192.847 191.701 192.646 191.215C192.444 190.728 192.391 190.193 192.494 189.677C192.597 189.16 192.85 188.686 193.223 188.314C193.595 187.942 194.069 187.688 194.585 187.585C195.102 187.483 195.637 187.535 196.123 187.737C196.61 187.938 197.025 188.279 197.318 188.717C197.61 189.155 197.766 189.67 197.766 190.196C197.766 190.902 197.486 191.579 196.987 192.078C196.488 192.577 195.811 192.858 195.105 192.858ZM207.526 182.211H182.683C182.448 182.211 182.222 182.304 182.056 182.471C181.889 182.637 181.796 182.863 181.796 183.098V197.294C181.796 197.529 181.889 197.755 182.056 197.921C182.222 198.088 182.448 198.181 182.683 198.181H207.526C207.762 198.181 207.987 198.088 208.154 197.921C208.32 197.755 208.414 197.529 208.414 197.294V183.098C208.414 182.863 208.32 182.637 208.154 182.471C207.987 182.304 207.762 182.211 207.526 182.211ZM202.386 196.407H187.824C187.526 195.399 186.981 194.482 186.238 193.739C185.495 192.997 184.578 192.451 183.57 192.153V188.238C184.578 187.941 185.495 187.395 186.238 186.652C186.981 185.91 187.526 184.993 187.824 183.985H202.386C202.684 184.993 203.229 185.91 203.972 186.652C204.715 187.395 205.632 187.941 206.639 188.238V192.153C205.632 192.451 204.715 192.997 203.972 193.739C203.229 194.482 202.684 195.399 202.386 196.407ZM206.639 186.355C205.575 185.898 204.727 185.049 204.269 183.985H206.639V186.355ZM185.94 183.985C185.483 185.049 184.635 185.898 183.57 186.355V183.985H185.94ZM183.57 194.037C184.635 194.494 185.483 195.343 185.94 196.407H183.57V194.037ZM204.269 196.407C204.727 195.343 205.575 194.494 206.639 194.037V196.407H204.269Z" fill="black"/>
<path d="M299.52 103.512C297.83 100.592 295.227 98.4983 292.19 97.5057C293.692 96.6112 294.86 95.2482 295.513 93.626C296.166 92.0038 296.268 90.2121 295.804 88.526C295.34 86.8399 294.336 85.3528 292.945 84.2929C291.554 83.233 289.854 82.6589 288.105 82.6589C286.356 82.6589 284.656 83.233 283.265 84.2929C281.874 85.3528 280.87 86.8399 280.406 88.526C279.942 90.2121 280.044 92.0038 280.697 93.626C281.35 95.2482 282.518 96.6112 284.02 97.5057C280.983 98.4972 278.38 100.591 276.69 103.512C276.629 103.613 276.587 103.726 276.57 103.843C276.552 103.96 276.558 104.08 276.587 104.194C276.616 104.309 276.668 104.417 276.739 104.512C276.811 104.606 276.9 104.685 277.003 104.745C277.106 104.804 277.219 104.842 277.337 104.857C277.454 104.871 277.574 104.862 277.688 104.83C277.802 104.798 277.908 104.743 278.001 104.67C278.093 104.596 278.17 104.504 278.227 104.4C280.316 100.789 284.009 98.6325 288.105 98.6325C292.201 98.6325 295.894 100.789 297.983 104.4C298.04 104.504 298.117 104.596 298.209 104.67C298.302 104.743 298.408 104.798 298.522 104.83C298.637 104.862 298.756 104.871 298.873 104.857C298.991 104.842 299.104 104.804 299.207 104.745C299.31 104.685 299.399 104.606 299.471 104.512C299.542 104.417 299.594 104.309 299.623 104.194C299.652 104.08 299.658 103.96 299.64 103.843C299.623 103.726 299.581 103.613 299.52 103.512ZM281.894 90.6472C281.894 89.4189 282.258 88.2181 282.941 87.1967C283.623 86.1754 284.593 85.3793 285.728 84.9092C286.863 84.4392 288.112 84.3162 289.317 84.5558C290.521 84.7954 291.628 85.387 292.497 86.2556C293.365 87.1242 293.957 88.2308 294.196 89.4356C294.436 90.6404 294.313 91.8891 293.843 93.024C293.373 94.1589 292.577 95.1289 291.556 95.8113C290.534 96.4938 289.333 96.858 288.105 96.858C286.458 96.8563 284.88 96.2014 283.715 95.037C282.551 93.8726 281.896 92.2939 281.894 90.6472Z" fill="black"/>
<path d="M281.48 186.827L277.672 190L281.48 193.173C281.558 193.236 281.622 193.313 281.67 193.401C281.718 193.488 281.747 193.584 281.757 193.684C281.767 193.783 281.757 193.883 281.728 193.978C281.699 194.074 281.651 194.162 281.587 194.239C281.523 194.316 281.445 194.379 281.356 194.425C281.268 194.471 281.171 194.498 281.072 194.507C280.972 194.515 280.872 194.503 280.778 194.472C280.683 194.441 280.595 194.391 280.52 194.326L276.02 190.576C275.935 190.505 275.867 190.417 275.821 190.318C275.774 190.218 275.75 190.109 275.75 190C275.75 189.89 275.774 189.781 275.821 189.681C275.867 189.582 275.935 189.494 276.02 189.423L280.52 185.673C280.673 185.546 280.87 185.485 281.068 185.503C281.266 185.521 281.449 185.617 281.576 185.77C281.704 185.923 281.765 186.12 281.747 186.318C281.729 186.516 281.633 186.699 281.48 186.827ZM297.98 189.423L293.48 185.673C293.404 185.61 293.317 185.563 293.223 185.534C293.129 185.504 293.03 185.494 292.931 185.503C292.833 185.512 292.738 185.54 292.651 185.586C292.564 185.632 292.486 185.694 292.423 185.77C292.296 185.923 292.235 186.12 292.253 186.318C292.271 186.516 292.367 186.699 292.52 186.827L296.328 190L292.52 193.173C292.442 193.236 292.377 193.313 292.33 193.401C292.282 193.488 292.252 193.584 292.242 193.684C292.232 193.783 292.242 193.883 292.271 193.978C292.301 194.074 292.348 194.162 292.412 194.239C292.476 194.316 292.555 194.379 292.643 194.425C292.732 194.471 292.828 194.498 292.928 194.507C293.027 194.515 293.127 194.503 293.222 194.472C293.317 194.441 293.404 194.391 293.48 194.326L297.98 190.576C298.064 190.505 298.132 190.417 298.179 190.318C298.225 190.218 298.25 190.109 298.25 190C298.25 189.89 298.225 189.781 298.179 189.681C298.132 189.582 298.064 189.494 297.98 189.423ZM290.256 181.045C290.163 181.011 290.065 180.996 289.966 181.001C289.868 181.005 289.771 181.029 289.682 181.071C289.593 181.112 289.513 181.171 289.446 181.244C289.38 181.316 289.328 181.402 289.295 181.494L283.295 197.994C283.261 198.087 283.246 198.185 283.25 198.284C283.254 198.382 283.278 198.479 283.32 198.568C283.362 198.657 283.42 198.738 283.493 198.804C283.566 198.871 283.651 198.922 283.744 198.956C283.826 198.985 283.913 199 284 199C284.154 199 284.304 198.953 284.43 198.864C284.556 198.776 284.652 198.651 284.705 198.506L290.705 182.006C290.738 181.913 290.753 181.815 290.749 181.717C290.745 181.618 290.721 181.522 290.679 181.432C290.638 181.343 290.579 181.263 290.506 181.197C290.433 181.13 290.348 181.079 290.256 181.045Z" fill="black"/>
<circle cx="36" cy="36" r="33.5" fill="black" stroke="black"/>
<circle cx="34" cy="34" r="33.5" fill="white" stroke="black"/>
<path d="M44.8356 27.8287L40.4959 25.6594C39.9569 24.6788 38.6134 24 37 24C34.8972 24 33.25 25.1531 33.25 26.625C33.2502 26.8331 33.2838 27.0397 33.3494 27.2372L31.5194 28.1522C30.8812 27.8804 30.1936 27.7435 29.5 27.75C27.3972 27.75 25.75 28.9031 25.75 30.375C25.7502 30.5831 25.7838 30.7897 25.8494 30.9872L23.1644 32.3287C23.0398 32.3911 22.935 32.4869 22.8618 32.6055C22.7886 32.7241 22.7499 32.8607 22.75 33V39C22.7499 39.1393 22.7886 39.2759 22.8618 39.3945C22.935 39.5131 23.0398 39.6089 23.1644 39.6713L29.1644 42.6712C29.2686 42.7234 29.3835 42.7505 29.5 42.7505C29.6165 42.7505 29.7314 42.7234 29.8356 42.6712L44.8356 35.1713C44.9602 35.1089 45.065 35.0131 45.1382 34.8945C45.2114 34.7759 45.2501 34.6393 45.25 34.5V28.5C45.2501 28.3607 45.2114 28.2241 45.1382 28.1055C45.065 27.9869 44.9602 27.8911 44.8356 27.8287ZM29.5 35.1619L25.1772 33L26.7813 32.1984C27.46 32.6944 28.42 33 29.5 33C31.6028 33 33.25 31.8469 33.25 30.375C33.2464 29.9393 33.1035 29.5161 32.8422 29.1675L34.2812 28.4484C34.96 28.9444 35.92 29.25 37 29.25C38.7231 29.25 40.1397 28.4756 40.5953 27.3863L42.8228 28.5L29.5 35.1619ZM37 25.5C38.2881 25.5 39.25 26.0944 39.25 26.625C39.25 27.1556 38.2881 27.75 37 27.75C35.7119 27.75 34.75 27.1556 34.75 26.625C34.75 26.0944 35.7119 25.5 37 25.5ZM29.5 29.25C30.7881 29.25 31.75 29.8444 31.75 30.375C31.75 30.9056 30.7881 31.5 29.5 31.5C28.5934 31.5 27.8491 31.2056 27.4872 30.8438C27.4632 30.8127 27.4369 30.7836 27.4084 30.7566C27.3136 30.6512 27.2577 30.5165 27.25 30.375C27.25 29.8444 28.2119 29.25 29.5 29.25ZM24.25 34.2131L28.75 36.4631V40.7869L24.25 38.5369V34.2131ZM30.25 40.7869V36.4631L43.75 29.7131V34.0369L30.25 40.7869Z" fill="black"/>
<circle cx="36" cy="142" r="33.5" fill="black" stroke="black"/>
<circle cx="34" cy="140" r="33.5" fill="white" stroke="black"/>
<path d="M43.75 141.75H43V132.75C43 132.153 42.7629 131.581 42.341 131.159C41.919 130.737 41.3467 130.5 40.75 130.5H27.25C26.6533 130.5 26.081 130.737 25.659 131.159C25.2371 131.581 25 132.153 25 132.75V141.75H24.25C24.0511 141.75 23.8603 141.829 23.7197 141.97C23.579 142.11 23.5 142.301 23.5 142.5V144C23.5 144.597 23.7371 145.169 24.159 145.591C24.581 146.013 25.1533 146.25 25.75 146.25H42.25C42.8467 146.25 43.419 146.013 43.841 145.591C44.2629 145.169 44.5 144.597 44.5 144V142.5C44.5 142.301 44.421 142.11 44.2803 141.97C44.1397 141.829 43.9489 141.75 43.75 141.75ZM26.5 132.75C26.5 132.551 26.579 132.36 26.7197 132.22C26.8603 132.079 27.0511 132 27.25 132H40.75C40.9489 132 41.1397 132.079 41.2803 132.22C41.421 132.36 41.5 132.551 41.5 132.75V141.75H26.5V132.75ZM43 144C43 144.199 42.921 144.39 42.7803 144.53C42.6397 144.671 42.4489 144.75 42.25 144.75H25.75C25.5511 144.75 25.3603 144.671 25.2197 144.53C25.079 144.39 25 144.199 25 144V143.25H43V144ZM36.25 134.25C36.25 134.449 36.171 134.64 36.0303 134.78C35.8897 134.921 35.6989 135 35.5 135H32.5C32.3011 135 32.1103 134.921 31.9697 134.78C31.829 134.64 31.75 134.449 31.75 134.25C31.75 134.051 31.829 133.86 31.9697 133.72C32.1103 133.579 32.3011 133.5 32.5 133.5H35.5C35.6989 133.5 35.8897 133.579 36.0303 133.72C36.171 133.86 36.25 134.051 36.25 134.25Z" fill="black"/>
<path d="M194.196 91.4218C193.45 91.422 192.729 91.6906 192.165 92.1785C191.601 92.6663 191.232 93.3409 191.124 94.0788C191.016 94.8167 191.178 95.5688 191.579 96.1974C191.98 96.8261 192.594 97.2895 193.309 97.5028V99.4071C193.309 99.6424 193.402 99.8681 193.569 100.034C193.735 100.201 193.961 100.294 194.196 100.294C194.431 100.294 194.657 100.201 194.823 100.034C194.99 99.8681 195.083 99.6424 195.083 99.4071V97.5028C195.798 97.2895 196.412 96.8261 196.813 96.1974C197.214 95.5688 197.375 94.8167 197.268 94.0788C197.16 93.3409 196.79 92.6663 196.226 92.1785C195.662 91.6906 194.942 91.422 194.196 91.4218ZM194.196 95.858C193.933 95.858 193.675 95.78 193.456 95.6337C193.238 95.4875 193.067 95.2797 192.966 95.0365C192.866 94.7933 192.839 94.5257 192.891 94.2675C192.942 94.0093 193.069 93.7722 193.255 93.5861C193.441 93.4 193.678 93.2732 193.936 93.2218C194.194 93.1705 194.462 93.1969 194.705 93.2976C194.948 93.3983 195.156 93.5689 195.302 93.7878C195.449 94.0066 195.527 94.2639 195.527 94.5272C195.527 94.8801 195.387 95.2186 195.137 95.4682C194.887 95.7178 194.549 95.858 194.196 95.858ZM203.068 87.8727H199.519V85.211C199.519 83.7991 198.959 82.445 197.96 81.4467C196.962 80.4483 195.608 79.8875 194.196 79.8875C192.784 79.8875 191.43 80.4483 190.432 81.4467C189.433 82.445 188.872 83.7991 188.872 85.211V87.8727H185.323C184.853 87.8727 184.401 88.0597 184.069 88.3925C183.736 88.7253 183.549 89.1766 183.549 89.6473V102.069C183.549 102.539 183.736 102.991 184.069 103.324C184.401 103.656 184.853 103.843 185.323 103.843H203.068C203.539 103.843 203.99 103.656 204.323 103.324C204.656 102.991 204.843 102.539 204.843 102.069V89.6473C204.843 89.1766 204.656 88.7253 204.323 88.3925C203.99 88.0597 203.539 87.8727 203.068 87.8727ZM190.647 85.211C190.647 84.2697 191.021 83.367 191.686 82.7014C192.352 82.0359 193.255 81.662 194.196 81.662C195.137 81.662 196.04 82.0359 196.705 82.7014C197.371 83.367 197.745 84.2697 197.745 85.211V87.8727H190.647V85.211ZM203.068 102.069H185.323V89.6473H203.068V102.069Z" fill="black"/>
<path d="M71 139.5C70.1667 139.5 69.5 140.167 69.5 141C69.5 141.833 70.1667 142.5 71 142.5C71.8333 142.5 72.5 141.833 72.5 141C72.5 140.167 71.8333 139.5 71 139.5Z" fill="white"/>
<path d="M72.5 141C72.5 140.167 71.8333 139.5 71 139.5C70.1667 139.5 69.5 140.167 69.5 141C69.5 141.833 70.1667 142.5 71 142.5C71.8333 142.5 72.5 141.833 72.5 141ZM72.5 141H89.5C100.546 141 109.5 132.046 109.5 121V114.18C109.5 103.134 118.454 94.1797 129.5 94.1797H148" stroke="black"/>
<path d="M71 139.5C70.1667 139.5 69.5 140.167 69.5 141C69.5 141.833 70.1667 142.5 71 142.5C71.8333 142.5 72.5 141.833 72.5 141C72.5 140.167 71.8333 139.5 71 139.5Z" fill="white"/>
<path d="M72.5 141C72.5 140.167 71.8333 139.5 71 139.5C70.1667 139.5 69.5 140.167 69.5 141C69.5 141.833 70.1667 142.5 71 142.5C71.8333 142.5 72.5 141.833 72.5 141ZM72.5 141H89.9543C101 141 109.954 149.954 109.954 161V169C109.954 180.046 118.909 189 129.954 189H148.909" stroke="black"/>
<path d="M35 68.5C34.1667 68.5 33.5 69.1667 33.5 70C33.5 70.8333 34.1667 71.5 35 71.5C35.8333 71.5 36.5 70.8333 36.5 70C36.5 69.1667 35.8333 68.5 35 68.5Z" fill="white"/>
<path d="M34.6464 106.354C34.8417 106.549 35.1583 106.549 35.3536 106.354L38.5355 103.172C38.7308 102.976 38.7308 102.66 38.5355 102.464C38.3403 102.269 38.0237 102.269 37.8284 102.464L35 105.293L32.1716 102.464C31.9763 102.269 31.6597 102.269 31.4645 102.464C31.2692 102.66 31.2692 102.976 31.4645 103.172L34.6464 106.354ZM33.5 70H34C34 69.4428 34.4428 69 35 69V68.5V68C33.8905 68 33 68.8905 33 70H33.5ZM35 68.5V69C35.5572 69 36 69.4428 36 70H36.5H37C37 68.8905 36.1095 68 35 68V68.5ZM36.5 70H36C36 70.5572 35.5572 71 35 71V71.5V72C36.1095 72 37 71.1095 37 70H36.5ZM35 71.5V71C34.4428 71 34 70.5572 34 70H33.5H33C33 71.1095 33.8905 72 35 72V71.5ZM35 71.5H34.5V106H35H35.5V71.5H35Z" fill="black"/>
</svg>
