<svg width="52" height="52" viewBox="0 0 52 52" fill="none" xmlns="http://www.w3.org/2000/svg">
<path d="M34.125 7.3125H17.875C15.0746 7.31573 12.3899 8.42959 10.4097 10.4097C8.42959 12.3899 7.31573 15.0746 7.3125 17.875V34.125C7.31573 36.9254 8.42959 39.6101 10.4097 41.5903C12.3899 43.5704 15.0746 44.6843 17.875 44.6875H27.625C27.7121 44.6877 27.7986 44.6733 27.8809 44.6448C33.0525 42.9223 42.9223 33.0525 44.6448 27.8809C44.6733 27.7986 44.6877 27.7121 44.6875 27.625V17.875C44.6843 15.0746 43.5704 12.3899 41.5903 10.4097C39.6101 8.42959 36.9254 7.31573 34.125 7.3125ZM8.9375 34.125V17.875C8.94019 15.5055 9.88268 13.2337 11.5582 11.5582C13.2337 9.88268 15.5055 8.94019 17.875 8.9375H34.125C36.4945 8.94019 38.7663 9.88268 40.4418 11.5582C42.1173 13.2337 43.0598 15.5055 43.0625 17.875V26.8125H37.375C34.5746 26.8157 31.8899 27.9296 29.9097 29.9097C27.9296 31.8899 26.8157 34.5746 26.8125 37.375V43.0625H17.875C15.5055 43.0598 13.2337 42.1173 11.5582 40.4418C9.88268 38.7663 8.94019 36.4945 8.9375 34.125ZM28.4375 42.6562V37.375C28.4402 35.0055 29.3827 32.7337 31.0582 31.0582C32.7337 29.3827 35.0055 28.4402 37.375 28.4375H42.6562C40.4016 32.953 32.953 40.4016 28.4375 42.6562Z" fill="black"/>
</svg>
