<svg width="58" height="61" viewBox="0 0 58 61" fill="none" xmlns="http://www.w3.org/2000/svg">
<path d="M22.3554 12.9713C33.2531 8.9135 45.3717 14.4465 49.4231 25.3271C53.4743 36.2075 47.9255 48.3182 37.028 52.376C26.1305 56.4338 14.0123 50.9015 9.96069 40.0212C5.90923 29.1406 11.4578 17.0291 22.3554 12.9713Z" fill="black" stroke="black" stroke-width="0.971391"/>
<path d="M20.3554 8.97127C31.2531 4.9135 43.3717 10.4465 47.4231 21.3271C51.4743 32.2075 45.9255 44.3183 35.028 48.376C24.1305 52.4338 12.0123 46.9015 7.96069 36.0212C3.90923 25.1406 9.45777 13.0291 20.3554 8.97127Z" fill="#FFEB79" stroke="#111827" stroke-width="0.971391"/>
<path d="M39.6055 22.6965C39.7108 22.6335 39.8282 22.5931 39.9499 22.5776C40.2012 22.5505 40.4545 22.6163 40.6618 22.7627C40.8664 22.9073 41.0113 23.1211 41.0723 23.3643C41.5914 26.6991 40.9631 30.1092 39.2891 33.0328C37.6123 35.9613 34.9876 38.2264 31.8491 39.4535C28.7105 40.6807 25.2453 40.7972 22.0271 39.7824C19.0101 38.8311 16.3794 36.9388 14.5132 34.3907L14.1504 33.8724C14.0218 33.6666 13.9775 33.4192 14.0266 33.1818C14.0763 32.9418 14.2174 32.7308 14.4197 32.5946L14.429 32.589L14.4377 32.5816C14.5383 32.5045 14.6544 32.4491 14.7776 32.4197C14.9009 32.3903 15.0291 32.3875 15.1536 32.4109C15.2784 32.4344 15.397 32.4841 15.5017 32.5564C15.6064 32.6289 15.6951 32.7228 15.7615 32.8317L15.7664 32.8393L15.771 32.8459C17.4167 35.2717 19.8345 37.0672 22.6284 37.9381C25.4223 38.809 28.427 38.7039 31.1496 37.6392C33.8721 36.5745 36.151 34.6134 37.6133 32.0781C39.0756 29.5429 39.6349 26.5834 39.1992 23.6846L39.1966 23.672L39.1943 23.6603C39.1669 23.5381 39.1652 23.4115 39.1894 23.2891C39.2138 23.1666 39.2637 23.0502 39.3355 22.9481C39.4072 22.8463 39.4989 22.7603 39.6055 22.6965Z" fill="#111827" stroke="#111827" stroke-width="0.693851"/>
<path d="M18.4262 19.9241C18.9649 19.7236 19.5622 19.7422 20.0923 19.9769C20.619 20.2102 21.0379 20.6394 21.2627 21.1751C21.4431 21.7273 21.4069 22.3259 21.161 22.8469C20.9135 23.3713 20.4739 23.7759 19.9351 23.9765C19.3963 24.1772 18.7984 24.1589 18.2681 23.9241C17.7415 23.6908 17.3224 23.2615 17.0977 22.7259C16.9174 22.1738 16.9537 21.575 17.1994 21.0541C17.447 20.5296 17.8874 20.1248 18.4262 19.9241Z" fill="#111827" stroke="#111827" stroke-width="0.693851"/>
<path d="M28.598 16.1375L28.609 16.1334C28.88 16.0272 29.1696 15.9744 29.4605 15.9799C29.7514 15.9854 30.0384 16.0484 30.3046 16.1647C30.5708 16.281 30.8115 16.4486 31.0124 16.6577C31.2108 16.8644 31.3661 17.1084 31.4711 17.3748C31.6521 17.9254 31.6135 18.5248 31.3617 19.0484C31.1089 19.5741 30.6617 19.9823 30.1139 20.1862C29.5662 20.3901 28.9609 20.3739 28.4258 20.1416C27.8929 19.9101 27.4707 19.4823 27.2475 18.9474C27.1524 18.6775 27.1109 18.3911 27.1256 18.105C27.1405 17.8155 27.2126 17.5315 27.3376 17.2695C27.4627 17.0075 27.639 16.772 27.8553 16.5776C28.0714 16.3835 28.3239 16.2343 28.598 16.1375Z" fill="#111827" stroke="#111827" stroke-width="0.693851"/>
</svg>
