<svg width="52" height="52" viewBox="0 0 52 52" fill="none" xmlns="http://www.w3.org/2000/svg">
<path d="M45.045 14.1497L27.17 4.36312C26.8113 4.16684 26.4089 4.06396 26 4.06396C25.5911 4.06396 25.1887 4.16684 24.83 4.36312L6.955 14.1497C6.57154 14.3595 6.25155 14.6686 6.02856 15.0445C5.80556 15.4205 5.68776 15.8495 5.6875 16.2866V35.7134C5.68776 36.1505 5.80556 36.5795 6.02856 36.9555C6.25155 37.3314 6.57154 37.6405 6.955 37.8503L24.83 47.6369C25.1884 47.8341 25.5909 47.9375 26 47.9375C26.4091 47.9375 26.8116 47.8341 27.17 47.6369L45.045 37.8503C45.4285 37.6405 45.7484 37.3314 45.9714 36.9555C46.1944 36.5795 46.3122 36.1505 46.3125 35.7134V16.2866C46.3122 15.8495 46.1944 15.4205 45.9714 15.0445C45.7484 14.6686 45.4285 14.3595 45.045 14.1497ZM25.61 5.78906C25.7292 5.72253 25.8635 5.6876 26 5.6876C26.1365 5.6876 26.2708 5.72253 26.39 5.78906L44.0111 15.4375L36.2578 19.6808C36.221 19.6503 36.1816 19.6231 36.14 19.5995L18.265 9.81297L25.61 5.78906ZM26 25.2891L7.98891 15.4375L16.5669 10.7392L34.578 20.5989L26 25.2891ZM7.735 36.4203C7.60738 36.3505 7.50085 36.2477 7.42653 36.1226C7.35221 35.9976 7.31283 35.8548 7.3125 35.7094V16.9183L25.1875 26.7008V45.9794L7.735 36.4203ZM44.265 36.4203L26.8125 45.9672V26.7008L34.9375 22.2544V30.875C34.9375 31.0905 35.0231 31.2972 35.1755 31.4495C35.3278 31.6019 35.5345 31.6875 35.75 31.6875C35.9655 31.6875 36.1722 31.6019 36.3245 31.4495C36.4769 31.2972 36.5625 31.0905 36.5625 30.875V21.3647L44.6875 16.9183V35.7134C44.6872 35.8589 44.6478 36.0016 44.5735 36.1267C44.4991 36.2517 44.3926 36.3545 44.265 36.4244V36.4203Z" fill="black"/>
</svg>
