<svg width="147" height="33" viewBox="0 0 147 33" fill="none" xmlns="http://www.w3.org/2000/svg">
<g clip-path="url(#clip0_44_4995)">
<path d="M27.142 19.978H16.62L27.83 8.746C27.9356 8.64006 28.0074 8.50527 28.0365 8.35858C28.0657 8.21189 28.0507 8.05987 27.9936 7.92165C27.9366 7.78343 27.8399 7.66518 27.7157 7.58179C27.5916 7.49839 27.4456 7.45358 27.296 7.453H9.48801V-6.65663e-07H29.022C30.4562 -0.0176814 31.866 0.372464 33.087 1.125C34.3085 1.87833 35.2918 2.96213 35.923 4.251C36.5751 5.63063 36.7847 7.17811 36.5232 8.68149C36.2616 10.1849 35.5417 11.5706 34.462 12.649L27.142 19.977V19.978Z" fill="white"/>
<path d="M9.489 11.042H20.013L8.823 22.252C8.71584 22.3599 8.64294 22.497 8.61343 22.6462C8.58392 22.7953 8.59911 22.9499 8.65711 23.0905C8.71511 23.231 8.81333 23.3513 8.93944 23.4363C9.06555 23.5212 9.21394 23.5671 9.366 23.568H27.125V31.02H7.61C6.17578 31.0377 4.76605 30.6475 3.545 29.895C2.32371 29.1413 1.34079 28.0571 0.709997 26.768C0.0582737 25.3884 -0.151061 23.8411 0.110658 22.3379C0.372377 20.8347 1.09235 19.4492 2.172 18.371L9.489 11.042ZM82.786 16.77C82.786 19.427 81.752 21.053 79.326 21.014C77.099 20.974 75.946 19.348 75.946 16.731V6.696H70.458V17.126C70.458 22.164 73.6 25.733 79.326 25.773C84.576 25.813 88.274 21.966 88.274 17.167V6.697H82.786V16.77ZM136.092 6.258C130.167 6.258 125.994 10.462 125.994 16.015C125.994 21.567 130.169 25.771 136.092 25.771C142.015 25.771 146.191 21.567 146.191 16.015C146.191 10.463 142.018 6.258 136.092 6.258ZM136.092 21.052C133.348 21.052 131.402 18.989 131.402 16.015C131.402 13.04 133.35 10.977 136.092 10.977C138.834 10.977 140.783 13.04 140.783 16.015C140.783 18.99 138.836 21.052 136.092 21.052ZM101.966 6.258C96.04 6.258 91.867 10.462 91.867 16.015C91.867 16.088 91.876 16.159 91.877 16.235H91.867V32.007H97.275V24.75C98.7434 25.4344 100.346 25.7828 101.966 25.77C107.892 25.77 112.065 21.566 112.065 16.014C112.065 10.462 107.892 6.258 101.966 6.258ZM101.966 21.052C99.222 21.052 97.276 18.989 97.276 16.015C97.276 13.04 99.224 10.977 101.966 10.977C104.708 10.977 106.657 13.04 106.657 16.015C106.657 18.99 104.71 21.052 101.966 21.052ZM49.868 11.41H60.682L49.868 19.862V25.335H67.382V20.619H56.542L67.382 12.146V6.694H49.868V11.41ZM124.369 25.335H122.538C120.565 25.3337 118.673 24.5509 117.276 23.158C116.585 22.4696 116.037 21.6518 115.662 20.7513C115.287 19.8508 115.094 18.8853 115.093 17.91V0.00499916H120.611V17.91C120.613 18.42 120.816 18.9086 121.178 19.2687C121.539 19.6288 122.028 19.831 122.538 19.831H124.369V25.335Z" fill="white"/>
</g>
<defs>
<clipPath id="clip0_44_4995">
<rect width="147" height="33" fill="white"/>
</clipPath>
</defs>
</svg>
