<svg width="757" height="270" viewBox="0 0 757 270" fill="none" xmlns="http://www.w3.org/2000/svg">
<g clip-path="url(#clip0_203_325)">
<rect width="757" height="270" rx="8" fill="#181822"/>
<g filter="url(#filter0_f_203_325)">
<circle cx="745.667" cy="338.667" r="249.667" fill="#D06DB6" fill-opacity="0.3"/>
</g>
<path d="M669.949 134.692L1039 134.692" stroke="url(#paint0_linear_203_325)" stroke-width="1.42491"/>
<g filter="url(#filter1_f_203_325)">
<circle cx="621.596" cy="271.652" r="168.596" fill="#FF02BD" fill-opacity="0.3"/>
</g>
<path d="M570.465 133.912L819.679 133.912" stroke="url(#paint1_linear_203_325)" stroke-width="0.962216"/>
<path d="M702.179 134.12H788.076C796.579 134.12 803.472 127.227 803.472 118.724V59.8386" stroke="url(#paint2_linear_203_325)" stroke-width="0.962216"/>
<path d="M688.817 133.912H708.061C716.564 133.912 723.457 140.805 723.457 149.308V259" stroke="#D06DB6" stroke-width="0.962216"/>
<path d="M723.457 184.909H684.006C675.503 184.909 668.611 191.802 668.611 200.305V243.604" stroke="url(#paint3_linear_203_325)" stroke-width="0.962216"/>
<path d="M723.788 279.305V258.911C723.788 250.408 716.896 243.515 708.393 243.515H556.994" stroke="url(#paint4_linear_203_325)" stroke-width="0.962216"/>
<path d="M672.459 59.34V133.912" stroke="url(#paint5_linear_203_325)" stroke-width="0.962216"/>
<circle cx="672.941" cy="133.431" r="4.32997" fill="#D06DB6"/>
<circle cx="722.976" cy="184.428" r="4.32997" fill="#D06DB6"/>
<rect x="745.306" y="133.981" width="8.65994" height="8.65994" rx="1.44332" transform="rotate(-45 745.306 133.981)" fill="#D06DB6" stroke="#D06DB6" stroke-width="0.962216"/>
<g clip-path="url(#clip1_203_325)">
<mask id="path-15-inside-1_203_325" fill="white">
<path d="M540 -9.99998V30.7178H837V-9.99998H540Z"/>
</mask>
<path d="M813.048 35.8074L813.26 36.0194L864.457 -15.1769L864.245 -15.3888L864.034 -15.6008L812.837 35.5965L813.048 35.8074ZM808.258 35.8074L808.47 36.0194L859.667 -15.1769L859.455 -15.3888L859.244 -15.6008L808.047 35.5965L808.258 35.8074ZM803.467 35.8074L803.679 36.0194L854.876 -15.1769L854.664 -15.3888L854.453 -15.6008L803.255 35.5965L803.467 35.8074ZM798.677 35.8074L798.889 36.0194L850.086 -15.1769L849.874 -15.3888L849.663 -15.6008L798.465 35.5965L798.677 35.8074ZM793.887 35.8074L794.099 36.0194L845.296 -15.1769L845.084 -15.3888L844.873 -15.6008L793.675 35.5965L793.887 35.8074ZM789.096 35.8074L789.308 36.0194L840.505 -15.1769L840.293 -15.3888L840.082 -15.6008L788.884 35.5965L789.096 35.8074ZM784.306 35.8074L784.518 36.0194L835.714 -15.1769L835.503 -15.3888L835.292 -15.6008L784.094 35.5965L784.306 35.8074ZM779.516 35.8074L779.728 36.0194L830.924 -15.1769L830.713 -15.3888L830.502 -15.6008L779.304 35.5965L779.516 35.8074ZM774.726 35.8074L774.938 36.0194L826.134 -15.1769L825.922 -15.3888L825.712 -15.6008L774.514 35.5965L774.726 35.8074ZM769.935 35.8074L770.147 36.0194L821.343 -15.1769L821.131 -15.3888L820.921 -15.6008L769.723 35.5965L769.935 35.8074ZM765.145 35.8074L765.357 36.0194L816.553 -15.1769L816.341 -15.3888L816.13 -15.6008L764.933 35.5965L765.145 35.8074ZM760.355 35.8074L760.567 36.0194L811.763 -15.1769L811.551 -15.3888L811.34 -15.6008L760.143 35.5965L760.355 35.8074ZM755.564 35.8074L755.776 36.0194L806.972 -15.1769L806.76 -15.3888L806.549 -15.6008L755.352 35.5965L755.564 35.8074ZM750.774 35.8074L750.986 36.0194L802.182 -15.1769L801.97 -15.3888L801.759 -15.6008L750.562 35.5965L750.774 35.8074ZM745.984 35.8074L746.196 36.0194L797.392 -15.1769L797.18 -15.3888L796.969 -15.6008L745.772 35.5965L745.984 35.8074ZM741.194 35.8074L741.406 36.0194L792.602 -15.1769L792.39 -15.3888L792.179 -15.6008L740.982 35.5965L741.194 35.8074ZM736.403 35.8074L736.615 36.0194L787.811 -15.1769L787.599 -15.3888L787.388 -15.6008L736.191 35.5965L736.403 35.8074ZM731.613 35.8074L731.825 36.0194L783.021 -15.1769L782.809 -15.3888L782.598 -15.6008L731.401 35.5965L731.613 35.8074ZM726.823 35.8074L727.035 36.0194L778.231 -15.1769L778.019 -15.3888L777.808 -15.6008L726.611 35.5965L726.823 35.8074ZM722.032 35.8074L722.244 36.0194L773.44 -15.1769L773.228 -15.3888L773.017 -15.6008L721.82 35.5965L722.032 35.8074ZM717.242 35.8074L717.454 36.0194L768.65 -15.1769L768.438 -15.3888L768.227 -15.6008L717.03 35.5965L717.242 35.8074ZM712.452 35.8074L712.664 36.0194L763.86 -15.1769L763.648 -15.3888L763.437 -15.6008L712.24 35.5965L712.452 35.8074ZM707.662 35.8074L707.874 36.0194L759.07 -15.1769L758.858 -15.3888L758.647 -15.6008L707.45 35.5965L707.662 35.8074ZM702.871 35.8074L703.083 36.0194L754.279 -15.1769L754.067 -15.3888L753.856 -15.6008L702.659 35.5965L702.871 35.8074ZM698.081 35.8074L698.293 36.0194L749.489 -15.1769L749.277 -15.3888L749.066 -15.6008L697.869 35.5965L698.081 35.8074ZM693.291 35.8074L693.503 36.0194L744.699 -15.1769L744.487 -15.3888L744.276 -15.6008L693.079 35.5965L693.291 35.8074ZM688.5 35.8074L688.712 36.0194L739.908 -15.1769L739.696 -15.3888L739.485 -15.6008L688.288 35.5965L688.5 35.8074ZM683.71 35.8074L683.922 36.0194L735.118 -15.1769L734.906 -15.3888L734.695 -15.6008L683.498 35.5965L683.71 35.8074ZM678.92 35.8074L679.131 36.0194L730.328 -15.1769L730.116 -15.3888L729.905 -15.6008L678.708 35.5965L678.92 35.8074ZM674.13 35.8074L674.341 36.0194L725.538 -15.1769L725.326 -15.3888L725.115 -15.6008L673.918 35.5965L674.13 35.8074ZM669.339 35.8074L669.55 36.0194L720.747 -15.1769L720.535 -15.3888L720.324 -15.6008L669.127 35.5965L669.339 35.8074ZM664.548 35.8074L664.76 36.0194L715.957 -15.1769L715.745 -15.3888L715.534 -15.6008L664.337 35.5965L664.548 35.8074ZM659.758 35.8074L659.97 36.0194L711.167 -15.1769L710.955 -15.3888L710.744 -15.6008L659.547 35.5965L659.758 35.8074ZM654.967 35.8074L655.179 36.0194L706.376 -15.1769L706.164 -15.3888L705.953 -15.6008L654.755 35.5965L654.967 35.8074ZM650.177 35.8074L650.389 36.0194L701.586 -15.1769L701.374 -15.3888L701.163 -15.6008L649.965 35.5965L650.177 35.8074ZM645.387 35.8074L645.599 36.0194L696.796 -15.1769L696.584 -15.3888L696.373 -15.6008L645.175 35.5965L645.387 35.8074ZM640.596 35.8074L640.808 36.0194L692.005 -15.1769L691.793 -15.3888L691.582 -15.6008L640.384 35.5965L640.596 35.8074ZM635.806 35.8074L636.018 36.0194L687.214 -15.1769L687.003 -15.3888L686.792 -15.6008L635.594 35.5965L635.806 35.8074ZM631.016 35.8074L631.228 36.0194L682.424 -15.1769L682.213 -15.3888L682.002 -15.6008L630.804 35.5965L631.016 35.8074ZM626.226 35.8074L626.438 36.0194L677.634 -15.1769L677.422 -15.3888L677.212 -15.6008L626.014 35.5965L626.226 35.8074ZM621.435 35.8074L621.647 36.0194L672.843 -15.1769L672.631 -15.3888L672.421 -15.6008L621.223 35.5965L621.435 35.8074ZM616.645 35.8074L616.857 36.0194L668.053 -15.1769L667.841 -15.3888L667.63 -15.6008L616.433 35.5965L616.645 35.8074ZM611.855 35.8074L612.067 36.0194L663.263 -15.1769L663.051 -15.3888L662.84 -15.6008L611.643 35.5965L611.855 35.8074ZM607.064 35.8074L607.276 36.0194L658.472 -15.1769L658.26 -15.3888L658.049 -15.6008L606.852 35.5965L607.064 35.8074ZM602.274 35.8074L602.486 36.0194L653.682 -15.1769L653.47 -15.3888L653.259 -15.6008L602.062 35.5965L602.274 35.8074ZM597.484 35.8074L597.696 36.0194L648.892 -15.1769L648.68 -15.3888L648.469 -15.6008L597.272 35.5965L597.484 35.8074ZM592.694 35.8074L592.906 36.0194L644.102 -15.1769L643.89 -15.3888L643.679 -15.6008L592.482 35.5965L592.694 35.8074ZM587.903 35.8074L588.115 36.0194L639.311 -15.1769L639.099 -15.3888L638.888 -15.6008L587.691 35.5965L587.903 35.8074ZM583.113 35.8074L583.325 36.0194L634.521 -15.1769L634.309 -15.3888L634.098 -15.6008L582.901 35.5965L583.113 35.8074ZM578.323 35.8074L578.535 36.0194L629.731 -15.1769L629.519 -15.3888L629.308 -15.6008L578.111 35.5965L578.323 35.8074ZM573.532 35.8074L573.744 36.0194L624.94 -15.1769L624.728 -15.3888L624.517 -15.6008L573.32 35.5965L573.532 35.8074ZM568.742 35.8074L568.954 36.0194L620.15 -15.1769L619.938 -15.3888L619.727 -15.6008L568.53 35.5965L568.742 35.8074ZM563.952 35.8074L564.164 36.0194L615.36 -15.1769L615.148 -15.3888L614.937 -15.6008L563.74 35.5965L563.952 35.8074ZM559.162 35.8074L559.374 36.0194L610.57 -15.1769L610.358 -15.3888L610.147 -15.6008L558.95 35.5965L559.162 35.8074ZM554.371 35.8074L554.583 36.0194L605.779 -15.1769L605.567 -15.3888L605.356 -15.6008L554.159 35.5965L554.371 35.8074ZM549.581 35.8074L549.793 36.0194L600.989 -15.1769L600.777 -15.3888L600.566 -15.6008L549.369 35.5965L549.581 35.8074ZM544.791 35.8074L545.003 36.0194L596.199 -15.1769L595.987 -15.3888L595.776 -15.6008L544.579 35.5965L544.791 35.8074ZM540 35.8074L540.212 36.0194L591.408 -15.1769L591.196 -15.3888L590.985 -15.6008L539.788 35.5965L540 35.8074ZM535.21 35.8074L535.422 36.0194L586.618 -15.1769L586.406 -15.3888L586.195 -15.6008L534.998 35.5965L535.21 35.8074ZM530.42 35.8074L530.631 36.0194L581.828 -15.1769L581.616 -15.3888L581.405 -15.6008L530.208 35.5965L530.42 35.8074ZM525.63 35.8074L525.841 36.0194L577.038 -15.1769L576.826 -15.3888L576.615 -15.6008L525.418 35.5965L525.63 35.8074ZM520.839 35.8074L521.05 36.0194L572.247 -15.1769L572.035 -15.3888L571.824 -15.6008L520.627 35.5965L520.839 35.8074ZM516.048 35.8074L516.26 36.0194L567.457 -15.1769L567.245 -15.3888L567.034 -15.6008L515.837 35.5965L516.048 35.8074ZM511.258 35.8074L511.47 36.0194L562.667 -15.1769L562.455 -15.3888L562.244 -15.6008L511.047 35.5965L511.258 35.8074ZM506.467 35.8074L506.679 36.0194L557.876 -15.1769L557.664 -15.3888L557.453 -15.6008L506.255 35.5965L506.467 35.8074ZM501.677 35.8074L501.889 36.0194L553.086 -15.1769L552.874 -15.3888L552.663 -15.6008L501.465 35.5965L501.677 35.8074ZM496.887 35.8074L497.099 36.0194L548.296 -15.1769L548.084 -15.3888L547.873 -15.6008L496.675 35.5965L496.887 35.8074Z" fill="url(#paint6_linear_203_325)"/>
</g>
<path d="M540 30.7178V30.119H837V30.7178V31.3165H540V30.7178Z" fill="url(#paint7_linear_203_325)" mask="url(#path-15-inside-1_203_325)"/>
<rect x="601.277" y="30.2517" width="5.45645" height="5.45645" rx="1.19758" transform="rotate(-45 601.277 30.2517)" fill="#D06DB6"/>
<path d="M37.262 202V193.236H34.168V192.06H41.56V193.236H38.466V202H37.262ZM42.4208 202V192.06H43.5968V196.218L43.4568 196.19C43.5501 195.779 43.7088 195.443 43.9328 195.182C44.1568 194.921 44.4321 194.729 44.7588 194.608C45.0854 194.477 45.4448 194.412 45.8368 194.412C46.3688 194.412 46.8168 194.533 47.1808 194.776C47.5541 195.009 47.8341 195.341 48.0208 195.77C48.2168 196.19 48.3148 196.675 48.3148 197.226V202H47.1388V197.562C47.1388 196.843 47.0081 196.311 46.7468 195.966C46.4948 195.621 46.1074 195.448 45.5848 195.448C44.9874 195.448 44.5068 195.63 44.1428 195.994C43.7788 196.358 43.5968 196.885 43.5968 197.576V202H42.4208ZM50.4188 202V194.58H51.5948V202H50.4188ZM50.3908 193.418V192.046H51.6228V193.418H50.3908ZM56.4021 202.168C55.7394 202.168 55.1747 202.061 54.7081 201.846C54.2507 201.631 53.8914 201.337 53.6301 200.964C53.3781 200.581 53.2334 200.147 53.1961 199.662L54.4281 199.578C54.5027 200.026 54.6941 200.385 55.0021 200.656C55.3101 200.917 55.7767 201.048 56.4021 201.048C56.9061 201.048 57.3074 200.969 57.6061 200.81C57.9141 200.642 58.0681 200.376 58.0681 200.012C58.0681 199.816 58.0214 199.653 57.9281 199.522C57.8347 199.391 57.6527 199.279 57.3821 199.186C57.1114 199.083 56.7101 198.985 56.1781 198.892C55.4687 198.761 54.9087 198.603 54.4981 198.416C54.0967 198.22 53.8074 197.982 53.6301 197.702C53.4621 197.413 53.3781 197.072 53.3781 196.68C53.3781 196.017 53.6207 195.476 54.1061 195.056C54.5914 194.627 55.2821 194.412 56.1781 194.412C56.7847 194.412 57.2934 194.524 57.7041 194.748C58.1241 194.963 58.4507 195.252 58.6841 195.616C58.9267 195.971 59.0854 196.363 59.1601 196.792L57.9281 196.876C57.8721 196.615 57.7694 196.386 57.6201 196.19C57.4707 195.985 57.2747 195.826 57.0321 195.714C56.7894 195.593 56.5001 195.532 56.1641 195.532C55.6321 195.532 55.2401 195.635 54.9881 195.84C54.7361 196.045 54.6101 196.307 54.6101 196.624C54.6101 196.867 54.6661 197.067 54.7781 197.226C54.8994 197.375 55.0907 197.501 55.3521 197.604C55.6134 197.697 55.9634 197.781 56.4021 197.856C57.1581 197.987 57.7461 198.145 58.1661 198.332C58.5861 198.519 58.8801 198.747 59.0481 199.018C59.2161 199.289 59.3001 199.62 59.3001 200.012C59.3001 200.469 59.1694 200.861 58.9081 201.188C58.6561 201.505 58.3107 201.748 57.8721 201.916C57.4427 202.084 56.9527 202.168 56.4021 202.168ZM64.5419 202V194.58H65.7179V202H64.5419ZM64.5139 193.418V192.046H65.7459V193.418H64.5139ZM70.5251 202.168C69.8625 202.168 69.2978 202.061 68.8311 201.846C68.3738 201.631 68.0145 201.337 67.7531 200.964C67.5011 200.581 67.3565 200.147 67.3191 199.662L68.5511 199.578C68.6258 200.026 68.8171 200.385 69.1251 200.656C69.4331 200.917 69.8998 201.048 70.5251 201.048C71.0291 201.048 71.4305 200.969 71.7291 200.81C72.0371 200.642 72.1911 200.376 72.1911 200.012C72.1911 199.816 72.1445 199.653 72.0511 199.522C71.9578 199.391 71.7758 199.279 71.5051 199.186C71.2345 199.083 70.8331 198.985 70.3011 198.892C69.5918 198.761 69.0318 198.603 68.6211 198.416C68.2198 198.22 67.9305 197.982 67.7531 197.702C67.5851 197.413 67.5011 197.072 67.5011 196.68C67.5011 196.017 67.7438 195.476 68.2291 195.056C68.7145 194.627 69.4051 194.412 70.3011 194.412C70.9078 194.412 71.4165 194.524 71.8271 194.748C72.2471 194.963 72.5738 195.252 72.8071 195.616C73.0498 195.971 73.2085 196.363 73.2831 196.792L72.0511 196.876C71.9951 196.615 71.8925 196.386 71.7431 196.19C71.5938 195.985 71.3978 195.826 71.1551 195.714C70.9125 195.593 70.6231 195.532 70.2871 195.532C69.7551 195.532 69.3631 195.635 69.1111 195.84C68.8591 196.045 68.7331 196.307 68.7331 196.624C68.7331 196.867 68.7891 197.067 68.9011 197.226C69.0225 197.375 69.2138 197.501 69.4751 197.604C69.7365 197.697 70.0865 197.781 70.5251 197.856C71.2811 197.987 71.8691 198.145 72.2891 198.332C72.7091 198.519 73.0031 198.747 73.1711 199.018C73.3391 199.289 73.4231 199.62 73.4231 200.012C73.4231 200.469 73.2925 200.861 73.0311 201.188C72.7791 201.505 72.4338 201.748 71.9951 201.916C71.5658 202.084 71.0758 202.168 70.5251 202.168ZM78.9869 204.1V203.064H79.8409C80.1023 203.064 80.2936 203.022 80.4149 202.938C80.5456 202.863 80.6436 202.737 80.7089 202.56L80.9749 201.86H80.5689L77.8529 194.58H79.1409L81.3529 200.768L83.4669 194.58H84.7549L81.7449 202.938C81.6049 203.339 81.3949 203.633 81.1149 203.82C80.8349 204.007 80.4476 204.1 79.9529 204.1H78.9869ZM88.7133 202.168C88.032 202.168 87.4346 202.009 86.9213 201.692C86.408 201.375 86.0113 200.927 85.7313 200.348C85.4513 199.76 85.3113 199.074 85.3113 198.29C85.3113 197.497 85.4513 196.811 85.7313 196.232C86.0113 195.653 86.408 195.205 86.9213 194.888C87.4346 194.571 88.032 194.412 88.7133 194.412C89.3946 194.412 89.9873 194.571 90.4913 194.888C91.0046 195.205 91.4013 195.653 91.6813 196.232C91.9613 196.811 92.1013 197.497 92.1013 198.29C92.1013 199.074 91.9613 199.76 91.6813 200.348C91.4013 200.927 91.0046 201.375 90.4913 201.692C89.9873 202.009 89.3946 202.168 88.7133 202.168ZM88.7133 201.048C89.3946 201.048 89.922 200.805 90.2953 200.32C90.678 199.825 90.8693 199.149 90.8693 198.29C90.8693 197.431 90.678 196.759 90.2953 196.274C89.922 195.779 89.3946 195.532 88.7133 195.532C88.032 195.532 87.5 195.779 87.1173 196.274C86.7346 196.759 86.5433 197.431 86.5433 198.29C86.5433 199.149 86.7346 199.825 87.1173 200.32C87.5 200.805 88.032 201.048 88.7133 201.048ZM96.14 202.168C95.4027 202.168 94.81 201.921 94.362 201.426C93.9233 200.922 93.704 200.231 93.704 199.354V194.58H94.88V199.032C94.88 199.751 95.006 200.283 95.258 200.628C95.5193 200.964 95.916 201.132 96.448 201.132C97.036 201.132 97.498 200.945 97.834 200.572C98.17 200.189 98.338 199.667 98.338 199.004V194.58H99.514V202H98.394V200.166L98.576 200.264C98.4267 200.871 98.142 201.342 97.722 201.678C97.302 202.005 96.7747 202.168 96.14 202.168ZM101.757 202V194.58H102.793L102.849 196.456L102.737 196.414C102.83 195.779 103.031 195.317 103.339 195.028C103.656 194.729 104.076 194.58 104.599 194.58H105.327V195.7H104.613C104.239 195.7 103.927 195.77 103.675 195.91C103.432 196.041 103.245 196.241 103.115 196.512C102.993 196.773 102.933 197.109 102.933 197.52V202H101.757ZM113.459 202.168C112.769 202.168 112.167 202.009 111.653 201.692C111.149 201.375 110.757 200.927 110.477 200.348C110.197 199.76 110.057 199.074 110.057 198.29C110.057 197.506 110.197 196.825 110.477 196.246C110.757 195.667 111.149 195.219 111.653 194.902C112.167 194.575 112.769 194.412 113.459 194.412C114.029 194.412 114.533 194.515 114.971 194.72C115.419 194.916 115.783 195.205 116.063 195.588C116.343 195.971 116.525 196.437 116.609 196.988L115.377 197.072C115.293 196.577 115.079 196.199 114.733 195.938C114.388 195.667 113.963 195.532 113.459 195.532C112.778 195.532 112.246 195.779 111.863 196.274C111.481 196.759 111.289 197.431 111.289 198.29C111.289 199.149 111.481 199.825 111.863 200.32C112.246 200.805 112.778 201.048 113.459 201.048C113.963 201.048 114.388 200.908 114.733 200.628C115.079 200.348 115.293 199.928 115.377 199.368L116.609 199.452C116.525 200.003 116.343 200.483 116.063 200.894C115.783 201.295 115.419 201.608 114.971 201.832C114.533 202.056 114.029 202.168 113.459 202.168ZM120.965 202.168C120.284 202.168 119.687 202.009 119.173 201.692C118.66 201.375 118.263 200.927 117.983 200.348C117.703 199.76 117.563 199.074 117.563 198.29C117.563 197.497 117.703 196.811 117.983 196.232C118.263 195.653 118.66 195.205 119.173 194.888C119.687 194.571 120.284 194.412 120.965 194.412C121.647 194.412 122.239 194.571 122.743 194.888C123.257 195.205 123.653 195.653 123.933 196.232C124.213 196.811 124.353 197.497 124.353 198.29C124.353 199.074 124.213 199.76 123.933 200.348C123.653 200.927 123.257 201.375 122.743 201.692C122.239 202.009 121.647 202.168 120.965 202.168ZM120.965 201.048C121.647 201.048 122.174 200.805 122.547 200.32C122.93 199.825 123.121 199.149 123.121 198.29C123.121 197.431 122.93 196.759 122.547 196.274C122.174 195.779 121.647 195.532 120.965 195.532C120.284 195.532 119.752 195.779 119.369 196.274C118.987 196.759 118.795 197.431 118.795 198.29C118.795 199.149 118.987 199.825 119.369 200.32C119.752 200.805 120.284 201.048 120.965 201.048ZM125.956 202V194.58H127.034L127.076 196.47L126.936 196.344C127.029 195.905 127.193 195.546 127.426 195.266C127.659 194.977 127.939 194.762 128.266 194.622C128.602 194.482 128.961 194.412 129.344 194.412C129.913 194.412 130.38 194.538 130.744 194.79C131.117 195.042 131.393 195.383 131.57 195.812C131.757 196.232 131.85 196.703 131.85 197.226V202H130.674V197.562C130.674 197.105 130.618 196.722 130.506 196.414C130.403 196.097 130.235 195.859 130.002 195.7C129.769 195.532 129.465 195.448 129.092 195.448C128.523 195.448 128.051 195.63 127.678 195.994C127.314 196.349 127.132 196.871 127.132 197.562V202H125.956ZM136.246 202C135.574 202 135.075 201.846 134.748 201.538C134.431 201.23 134.272 200.749 134.272 200.096V192.844H135.448V200.068C135.448 200.404 135.523 200.637 135.672 200.768C135.821 200.899 136.05 200.964 136.358 200.964H137.422V202H136.246ZM133.18 195.616V194.58H137.422V195.616H133.18ZM141.692 202.168C140.992 202.168 140.385 202.009 139.872 201.692C139.368 201.375 138.976 200.927 138.696 200.348C138.425 199.76 138.29 199.074 138.29 198.29C138.29 197.506 138.425 196.825 138.696 196.246C138.976 195.667 139.363 195.219 139.858 194.902C140.362 194.575 140.954 194.412 141.636 194.412C142.28 194.412 142.849 194.566 143.344 194.874C143.838 195.173 144.221 195.611 144.492 196.19C144.772 196.769 144.912 197.473 144.912 198.304V198.654H139.522C139.568 199.447 139.778 200.045 140.152 200.446C140.534 200.847 141.048 201.048 141.692 201.048C142.177 201.048 142.574 200.936 142.882 200.712C143.199 200.479 143.418 200.175 143.54 199.802L144.8 199.9C144.604 200.563 144.23 201.109 143.68 201.538C143.138 201.958 142.476 202.168 141.692 202.168ZM139.522 197.618H143.624C143.568 196.899 143.358 196.372 142.994 196.036C142.639 195.7 142.186 195.532 141.636 195.532C141.066 195.532 140.595 195.709 140.222 196.064C139.858 196.409 139.624 196.927 139.522 197.618ZM146.505 202V194.58H147.583L147.625 196.47L147.485 196.344C147.578 195.905 147.741 195.546 147.975 195.266C148.208 194.977 148.488 194.762 148.815 194.622C149.151 194.482 149.51 194.412 149.893 194.412C150.462 194.412 150.929 194.538 151.293 194.79C151.666 195.042 151.941 195.383 152.119 195.812C152.305 196.232 152.399 196.703 152.399 197.226V202H151.223V197.562C151.223 197.105 151.167 196.722 151.055 196.414C150.952 196.097 150.784 195.859 150.551 195.7C150.317 195.532 150.014 195.448 149.641 195.448C149.071 195.448 148.6 195.63 148.227 195.994C147.863 196.349 147.681 196.871 147.681 197.562V202H146.505ZM156.795 202C156.123 202 155.624 201.846 155.297 201.538C154.98 201.23 154.821 200.749 154.821 200.096V192.844H155.997V200.068C155.997 200.404 156.072 200.637 156.221 200.768C156.37 200.899 156.599 200.964 156.907 200.964H157.971V202H156.795ZM153.729 195.616V194.58H157.971V195.616H153.729ZM159.413 202V200.418H160.995V202H159.413ZM170.209 202.224C169.323 202.224 168.543 202.019 167.871 201.608C167.199 201.188 166.677 200.591 166.303 199.816C165.93 199.041 165.743 198.117 165.743 197.044C165.743 195.971 165.93 195.047 166.303 194.272C166.677 193.488 167.199 192.886 167.871 192.466C168.543 192.046 169.323 191.836 170.209 191.836C171.413 191.836 172.347 192.139 173.009 192.746C173.672 193.353 174.106 194.179 174.311 195.224L173.037 195.308C172.897 194.599 172.599 194.039 172.141 193.628C171.684 193.217 171.04 193.012 170.209 193.012C169.575 193.012 169.015 193.175 168.529 193.502C168.053 193.819 167.68 194.281 167.409 194.888C167.139 195.485 167.003 196.204 167.003 197.044C167.003 197.884 167.139 198.603 167.409 199.2C167.68 199.797 168.053 200.255 168.529 200.572C169.015 200.889 169.575 201.048 170.209 201.048C171.077 201.048 171.749 200.824 172.225 200.376C172.701 199.919 173 199.303 173.121 198.528L174.395 198.612C174.274 199.331 174.036 199.961 173.681 200.502C173.327 201.043 172.855 201.468 172.267 201.776C171.689 202.075 171.003 202.224 170.209 202.224ZM176.104 202V192.06H177.28V196.218L177.14 196.19C177.234 195.779 177.392 195.443 177.616 195.182C177.84 194.921 178.116 194.729 178.442 194.608C178.769 194.477 179.128 194.412 179.52 194.412C180.052 194.412 180.5 194.533 180.864 194.776C181.238 195.009 181.518 195.341 181.704 195.77C181.9 196.19 181.998 196.675 181.998 197.226V202H180.822V197.562C180.822 196.843 180.692 196.311 180.43 195.966C180.178 195.621 179.791 195.448 179.268 195.448C178.671 195.448 178.19 195.63 177.826 195.994C177.462 196.358 177.28 196.885 177.28 197.576V202H176.104ZM186.104 202.168C185.339 202.168 184.728 201.991 184.27 201.636C183.822 201.281 183.598 200.787 183.598 200.152C183.598 199.517 183.785 199.018 184.158 198.654C184.532 198.29 185.124 198.033 185.936 197.884L188.568 197.394C188.568 196.769 188.419 196.302 188.12 195.994C187.831 195.686 187.392 195.532 186.804 195.532C186.291 195.532 185.885 195.649 185.586 195.882C185.288 196.106 185.082 196.433 184.97 196.862L183.724 196.764C183.864 196.064 184.2 195.499 184.732 195.07C185.274 194.631 185.964 194.412 186.804 194.412C187.756 194.412 188.484 194.683 188.988 195.224C189.492 195.756 189.744 196.493 189.744 197.436V200.502C189.744 200.67 189.772 200.791 189.828 200.866C189.894 200.931 189.996 200.964 190.136 200.964H190.43V202C190.393 202.009 190.332 202.014 190.248 202.014C190.164 202.023 190.076 202.028 189.982 202.028C189.646 202.028 189.371 201.977 189.156 201.874C188.951 201.762 188.802 201.594 188.708 201.37C188.615 201.137 188.568 200.833 188.568 200.46L188.708 200.488C188.643 200.805 188.484 201.095 188.232 201.356C187.98 201.608 187.668 201.809 187.294 201.958C186.921 202.098 186.524 202.168 186.104 202.168ZM186.216 201.132C186.711 201.132 187.131 201.039 187.476 200.852C187.831 200.656 188.102 200.395 188.288 200.068C188.475 199.732 188.568 199.359 188.568 198.948V198.416L186.16 198.864C185.656 198.957 185.306 199.102 185.11 199.298C184.924 199.485 184.83 199.732 184.83 200.04C184.83 200.385 184.952 200.656 185.194 200.852C185.446 201.039 185.787 201.132 186.216 201.132ZM191.759 202V194.58H192.837L192.879 196.47L192.739 196.344C192.832 195.905 192.995 195.546 193.229 195.266C193.462 194.977 193.742 194.762 194.069 194.622C194.405 194.482 194.764 194.412 195.147 194.412C195.716 194.412 196.183 194.538 196.547 194.79C196.92 195.042 197.195 195.383 197.373 195.812C197.559 196.232 197.653 196.703 197.653 197.226V202H196.477V197.562C196.477 197.105 196.421 196.722 196.309 196.414C196.206 196.097 196.038 195.859 195.805 195.7C195.571 195.532 195.268 195.448 194.895 195.448C194.325 195.448 193.854 195.63 193.481 195.994C193.117 196.349 192.935 196.871 192.935 197.562V202H191.759ZM202.543 204.268C202.011 204.268 201.531 204.179 201.101 204.002C200.672 203.825 200.313 203.573 200.023 203.246C199.734 202.919 199.538 202.541 199.435 202.112L200.667 202.028C200.779 202.373 200.975 202.644 201.255 202.84C201.545 203.045 201.974 203.148 202.543 203.148C203.215 203.148 203.729 203.013 204.083 202.742C204.447 202.471 204.629 202.065 204.629 201.524V200.32C204.452 200.712 204.167 201.025 203.775 201.258C203.383 201.491 202.945 201.608 202.459 201.608C201.834 201.608 201.274 201.454 200.779 201.146C200.294 200.838 199.911 200.413 199.631 199.872C199.361 199.331 199.225 198.71 199.225 198.01C199.225 197.301 199.361 196.68 199.631 196.148C199.902 195.607 200.275 195.182 200.751 194.874C201.237 194.566 201.787 194.412 202.403 194.412C202.926 194.412 203.393 194.533 203.803 194.776C204.223 195.019 204.517 195.345 204.685 195.756V194.58H205.805V201.496C205.805 202.075 205.675 202.569 205.413 202.98C205.152 203.4 204.779 203.717 204.293 203.932C203.808 204.156 203.225 204.268 202.543 204.268ZM202.515 200.488C203.15 200.488 203.659 200.269 204.041 199.83C204.424 199.382 204.62 198.775 204.629 198.01C204.639 197.497 204.555 197.058 204.377 196.694C204.209 196.321 203.962 196.036 203.635 195.84C203.318 195.635 202.945 195.532 202.515 195.532C201.862 195.532 201.353 195.756 200.989 196.204C200.635 196.643 200.457 197.245 200.457 198.01C200.457 198.775 200.639 199.382 201.003 199.83C201.377 200.269 201.881 200.488 202.515 200.488ZM210.803 202.168C210.103 202.168 209.496 202.009 208.983 201.692C208.479 201.375 208.087 200.927 207.807 200.348C207.536 199.76 207.401 199.074 207.401 198.29C207.401 197.506 207.536 196.825 207.807 196.246C208.087 195.667 208.474 195.219 208.969 194.902C209.473 194.575 210.066 194.412 210.747 194.412C211.391 194.412 211.96 194.566 212.455 194.874C212.95 195.173 213.332 195.611 213.603 196.19C213.883 196.769 214.023 197.473 214.023 198.304V198.654H208.633C208.68 199.447 208.89 200.045 209.263 200.446C209.646 200.847 210.159 201.048 210.803 201.048C211.288 201.048 211.685 200.936 211.993 200.712C212.31 200.479 212.53 200.175 212.651 199.802L213.911 199.9C213.715 200.563 213.342 201.109 212.791 201.538C212.25 201.958 211.587 202.168 210.803 202.168ZM208.633 197.618H212.735C212.679 196.899 212.469 196.372 212.105 196.036C211.75 195.7 211.298 195.532 210.747 195.532C210.178 195.532 209.706 195.709 209.333 196.064C208.969 196.409 208.736 196.927 208.633 197.618ZM219.253 202V194.58H220.429V202H219.253ZM219.225 193.418V192.046H220.457V193.418H219.225ZM224.826 202C224.154 202 223.655 201.846 223.328 201.538C223.011 201.23 222.852 200.749 222.852 200.096V192.844H224.028V200.068C224.028 200.404 224.103 200.637 224.252 200.768C224.402 200.899 224.63 200.964 224.938 200.964H226.002V202H224.826ZM221.76 195.616V194.58H226.002V195.616H221.76ZM233.809 202C233.137 202 232.637 201.846 232.311 201.538C231.993 201.23 231.835 200.749 231.835 200.096V192.844H233.011V200.068C233.011 200.404 233.085 200.637 233.235 200.768C233.384 200.899 233.613 200.964 233.921 200.964H234.985V202H233.809ZM230.743 195.616V194.58H234.985V195.616H230.743ZM239.254 202.168C238.573 202.168 237.976 202.009 237.462 201.692C236.949 201.375 236.552 200.927 236.272 200.348C235.992 199.76 235.852 199.074 235.852 198.29C235.852 197.497 235.992 196.811 236.272 196.232C236.552 195.653 236.949 195.205 237.462 194.888C237.976 194.571 238.573 194.412 239.254 194.412C239.936 194.412 240.528 194.571 241.032 194.888C241.546 195.205 241.942 195.653 242.222 196.232C242.502 196.811 242.642 197.497 242.642 198.29C242.642 199.074 242.502 199.76 242.222 200.348C241.942 200.927 241.546 201.375 241.032 201.692C240.528 202.009 239.936 202.168 239.254 202.168ZM239.254 201.048C239.936 201.048 240.463 200.805 240.836 200.32C241.219 199.825 241.41 199.149 241.41 198.29C241.41 197.431 241.219 196.759 240.836 196.274C240.463 195.779 239.936 195.532 239.254 195.532C238.573 195.532 238.041 195.779 237.658 196.274C237.276 196.759 237.084 197.431 237.084 198.29C237.084 199.149 237.276 199.825 237.658 200.32C238.041 200.805 238.573 201.048 239.254 201.048ZM36.604 219L34.308 211.58H35.596L37.332 217.768L39.096 211.58H40.356L42.12 217.768L43.87 211.58H45.158L42.862 219H41.378L39.726 213.358L38.074 219H36.604ZM46.454 219V209.06H47.63V213.218L47.49 213.19C47.5833 212.779 47.742 212.443 47.966 212.182C48.19 211.921 48.4653 211.729 48.792 211.608C49.1187 211.477 49.478 211.412 49.87 211.412C50.402 211.412 50.85 211.533 51.214 211.776C51.5873 212.009 51.8673 212.341 52.054 212.77C52.25 213.19 52.348 213.675 52.348 214.226V219H51.172V214.562C51.172 213.843 51.0413 213.311 50.78 212.966C50.528 212.621 50.1407 212.448 49.618 212.448C49.0207 212.448 48.54 212.63 48.176 212.994C47.812 213.358 47.63 213.885 47.63 214.576V219H46.454ZM56.454 219.168C55.6887 219.168 55.0774 218.991 54.62 218.636C54.172 218.281 53.948 217.787 53.948 217.152C53.948 216.517 54.1347 216.018 54.508 215.654C54.8814 215.29 55.474 215.033 56.286 214.884L58.918 214.394C58.918 213.769 58.7687 213.302 58.47 212.994C58.1807 212.686 57.742 212.532 57.154 212.532C56.6407 212.532 56.2347 212.649 55.936 212.882C55.6374 213.106 55.432 213.433 55.32 213.862L54.074 213.764C54.214 213.064 54.55 212.499 55.082 212.07C55.6234 211.631 56.314 211.412 57.154 211.412C58.106 211.412 58.834 211.683 59.338 212.224C59.842 212.756 60.094 213.493 60.094 214.436V217.502C60.094 217.67 60.122 217.791 60.178 217.866C60.2434 217.931 60.346 217.964 60.486 217.964H60.78V219C60.7427 219.009 60.682 219.014 60.598 219.014C60.514 219.023 60.4254 219.028 60.332 219.028C59.996 219.028 59.7207 218.977 59.506 218.874C59.3007 218.762 59.1514 218.594 59.058 218.37C58.9647 218.137 58.918 217.833 58.918 217.46L59.058 217.488C58.9927 217.805 58.834 218.095 58.582 218.356C58.33 218.608 58.0174 218.809 57.644 218.958C57.2707 219.098 56.874 219.168 56.454 219.168ZM56.566 218.132C57.0607 218.132 57.4807 218.039 57.826 217.852C58.1807 217.656 58.4514 217.395 58.638 217.068C58.8247 216.732 58.918 216.359 58.918 215.948V215.416L56.51 215.864C56.006 215.957 55.656 216.102 55.46 216.298C55.2734 216.485 55.18 216.732 55.18 217.04C55.18 217.385 55.3014 217.656 55.544 217.852C55.796 218.039 56.1367 218.132 56.566 218.132ZM64.4551 219C63.7831 219 63.2838 218.846 62.9571 218.538C62.6398 218.23 62.4811 217.749 62.4811 217.096V209.844H63.6571V217.068C63.6571 217.404 63.7318 217.637 63.8811 217.768C64.0305 217.899 64.2591 217.964 64.5671 217.964H65.6311V219H64.4551ZM61.3891 212.616V211.58H65.6311V212.616H61.3891ZM69.9008 219.168C69.2008 219.168 68.5941 219.009 68.0808 218.692C67.5768 218.375 67.1848 217.927 66.9048 217.348C66.6341 216.76 66.4988 216.074 66.4988 215.29C66.4988 214.506 66.6341 213.825 66.9048 213.246C67.1848 212.667 67.5721 212.219 68.0668 211.902C68.5708 211.575 69.1635 211.412 69.8448 211.412C70.4888 211.412 71.0581 211.566 71.5528 211.874C72.0475 212.173 72.4301 212.611 72.7008 213.19C72.9808 213.769 73.1208 214.473 73.1208 215.304V215.654H67.7308C67.7775 216.447 67.9875 217.045 68.3608 217.446C68.7435 217.847 69.2568 218.048 69.9008 218.048C70.3861 218.048 70.7828 217.936 71.0908 217.712C71.4081 217.479 71.6275 217.175 71.7488 216.802L73.0088 216.9C72.8128 217.563 72.4395 218.109 71.8888 218.538C71.3475 218.958 70.6848 219.168 69.9008 219.168ZM67.7308 214.618H71.8328C71.7768 213.899 71.5668 213.372 71.2028 213.036C70.8481 212.7 70.3955 212.532 69.8448 212.532C69.2755 212.532 68.8041 212.709 68.4308 213.064C68.0668 213.409 67.8335 213.927 67.7308 214.618ZM76.385 219L73.683 211.58H74.971L77.127 217.796L79.283 211.58H80.571L77.869 219H76.385ZM84.5297 219.168C83.8297 219.168 83.2231 219.009 82.7097 218.692C82.2057 218.375 81.8137 217.927 81.5337 217.348C81.2631 216.76 81.1277 216.074 81.1277 215.29C81.1277 214.506 81.2631 213.825 81.5337 213.246C81.8137 212.667 82.2011 212.219 82.6957 211.902C83.1997 211.575 83.7924 211.412 84.4737 211.412C85.1177 211.412 85.6871 211.566 86.1817 211.874C86.6764 212.173 87.0591 212.611 87.3297 213.19C87.6097 213.769 87.7497 214.473 87.7497 215.304V215.654H82.3597C82.4064 216.447 82.6164 217.045 82.9897 217.446C83.3724 217.847 83.8857 218.048 84.5297 218.048C85.0151 218.048 85.4117 217.936 85.7197 217.712C86.0371 217.479 86.2564 217.175 86.3777 216.802L87.6377 216.9C87.4417 217.563 87.0684 218.109 86.5177 218.538C85.9764 218.958 85.3137 219.168 84.5297 219.168ZM82.3597 214.618H86.4617C86.4057 213.899 86.1957 213.372 85.8317 213.036C85.4771 212.7 85.0244 212.532 84.4737 212.532C83.9044 212.532 83.4331 212.709 83.0597 213.064C82.6957 213.409 82.4624 213.927 82.3597 214.618ZM89.3427 219V211.58H90.3787L90.4347 213.456L90.3227 213.414C90.416 212.779 90.6167 212.317 90.9247 212.028C91.242 211.729 91.662 211.58 92.1847 211.58H92.9127V212.7H92.1987C91.8253 212.7 91.5127 212.77 91.2607 212.91C91.018 213.041 90.8313 213.241 90.7007 213.512C90.5793 213.773 90.5187 214.109 90.5187 214.52V219H89.3427ZM98.4693 221.1V220.064H99.3233C99.5847 220.064 99.776 220.022 99.8973 219.938C100.028 219.863 100.126 219.737 100.191 219.56L100.457 218.86H100.051L97.3353 211.58H98.6233L100.835 217.768L102.949 211.58H104.237L101.227 219.938C101.087 220.339 100.877 220.633 100.597 220.82C100.317 221.007 99.93 221.1 99.4353 221.1H98.4693ZM108.196 219.168C107.514 219.168 106.917 219.009 106.404 218.692C105.89 218.375 105.494 217.927 105.214 217.348C104.934 216.76 104.794 216.074 104.794 215.29C104.794 214.497 104.934 213.811 105.214 213.232C105.494 212.653 105.89 212.205 106.404 211.888C106.917 211.571 107.514 211.412 108.196 211.412C108.877 211.412 109.47 211.571 109.974 211.888C110.487 212.205 110.884 212.653 111.164 213.232C111.444 213.811 111.584 214.497 111.584 215.29C111.584 216.074 111.444 216.76 111.164 217.348C110.884 217.927 110.487 218.375 109.974 218.692C109.47 219.009 108.877 219.168 108.196 219.168ZM108.196 218.048C108.877 218.048 109.404 217.805 109.778 217.32C110.16 216.825 110.352 216.149 110.352 215.29C110.352 214.431 110.16 213.759 109.778 213.274C109.404 212.779 108.877 212.532 108.196 212.532C107.514 212.532 106.982 212.779 106.6 213.274C106.217 213.759 106.026 214.431 106.026 215.29C106.026 216.149 106.217 216.825 106.6 217.32C106.982 217.805 107.514 218.048 108.196 218.048ZM115.622 219.168C114.885 219.168 114.292 218.921 113.844 218.426C113.406 217.922 113.186 217.231 113.186 216.354V211.58H114.362V216.032C114.362 216.751 114.488 217.283 114.74 217.628C115.002 217.964 115.398 218.132 115.93 218.132C116.518 218.132 116.98 217.945 117.316 217.572C117.652 217.189 117.82 216.667 117.82 216.004V211.58H118.996V219H117.876V217.166L118.058 217.264C117.909 217.871 117.624 218.342 117.204 218.678C116.784 219.005 116.257 219.168 115.622 219.168ZM126.223 219L123.927 211.58H125.215L126.951 217.768L128.715 211.58H129.975L131.739 217.768L133.489 211.58H134.777L132.481 219H130.997L129.345 213.358L127.693 219H126.223ZM137.897 219.168C137.132 219.168 136.521 218.991 136.063 218.636C135.615 218.281 135.391 217.787 135.391 217.152C135.391 216.517 135.578 216.018 135.951 215.654C136.325 215.29 136.917 215.033 137.729 214.884L140.361 214.394C140.361 213.769 140.212 213.302 139.913 212.994C139.624 212.686 139.185 212.532 138.597 212.532C138.084 212.532 137.678 212.649 137.379 212.882C137.081 213.106 136.875 213.433 136.763 213.862L135.517 213.764C135.657 213.064 135.993 212.499 136.525 212.07C137.067 211.631 137.757 211.412 138.597 211.412C139.549 211.412 140.277 211.683 140.781 212.224C141.285 212.756 141.537 213.493 141.537 214.436V217.502C141.537 217.67 141.565 217.791 141.621 217.866C141.687 217.931 141.789 217.964 141.929 217.964H142.223V219C142.186 219.009 142.125 219.014 142.041 219.014C141.957 219.023 141.869 219.028 141.775 219.028C141.439 219.028 141.164 218.977 140.949 218.874C140.744 218.762 140.595 218.594 140.501 218.37C140.408 218.137 140.361 217.833 140.361 217.46L140.501 217.488C140.436 217.805 140.277 218.095 140.025 218.356C139.773 218.608 139.461 218.809 139.087 218.958C138.714 219.098 138.317 219.168 137.897 219.168ZM138.009 218.132C138.504 218.132 138.924 218.039 139.269 217.852C139.624 217.656 139.895 217.395 140.081 217.068C140.268 216.732 140.361 216.359 140.361 215.948V215.416L137.953 215.864C137.449 215.957 137.099 216.102 136.903 216.298C136.717 216.485 136.623 216.732 136.623 217.04C136.623 217.385 136.745 217.656 136.987 217.852C137.239 218.039 137.58 218.132 138.009 218.132ZM143.552 219V211.58H144.63L144.672 213.47L144.532 213.344C144.625 212.905 144.788 212.546 145.022 212.266C145.255 211.977 145.535 211.762 145.862 211.622C146.198 211.482 146.557 211.412 146.94 211.412C147.509 211.412 147.976 211.538 148.34 211.79C148.713 212.042 148.988 212.383 149.166 212.812C149.352 213.232 149.446 213.703 149.446 214.226V219H148.27V214.562C148.27 214.105 148.214 213.722 148.102 213.414C147.999 213.097 147.831 212.859 147.598 212.7C147.364 212.532 147.061 212.448 146.688 212.448C146.118 212.448 145.647 212.63 145.274 212.994C144.91 213.349 144.728 213.871 144.728 214.562V219H143.552ZM153.842 219C153.17 219 152.671 218.846 152.344 218.538C152.027 218.23 151.868 217.749 151.868 217.096V209.844H153.044V217.068C153.044 217.404 153.119 217.637 153.268 217.768C153.417 217.899 153.646 217.964 153.954 217.964H155.018V219H153.842ZM150.776 212.616V211.58H155.018V212.616H150.776ZM162.824 219C162.152 219 161.653 218.846 161.326 218.538C161.009 218.23 160.85 217.749 160.85 217.096V209.844H162.026V217.068C162.026 217.404 162.101 217.637 162.25 217.768C162.4 217.899 162.628 217.964 162.936 217.964H164V219H162.824ZM159.758 212.616V211.58H164V212.616H159.758ZM168.27 219.168C167.589 219.168 166.991 219.009 166.478 218.692C165.965 218.375 165.568 217.927 165.288 217.348C165.008 216.76 164.868 216.074 164.868 215.29C164.868 214.497 165.008 213.811 165.288 213.232C165.568 212.653 165.965 212.205 166.478 211.888C166.991 211.571 167.589 211.412 168.27 211.412C168.951 211.412 169.544 211.571 170.048 211.888C170.561 212.205 170.958 212.653 171.238 213.232C171.518 213.811 171.658 214.497 171.658 215.29C171.658 216.074 171.518 216.76 171.238 217.348C170.958 217.927 170.561 218.375 170.048 218.692C169.544 219.009 168.951 219.168 168.27 219.168ZM168.27 218.048C168.951 218.048 169.479 217.805 169.852 217.32C170.235 216.825 170.426 216.149 170.426 215.29C170.426 214.431 170.235 213.759 169.852 213.274C169.479 212.779 168.951 212.532 168.27 212.532C167.589 212.532 167.057 212.779 166.674 213.274C166.291 213.759 166.1 214.431 166.1 215.29C166.1 216.149 166.291 216.825 166.674 217.32C167.057 217.805 167.589 218.048 168.27 218.048ZM176.897 221.1V211.58H177.989L178.017 213.176L177.849 213.092C178.036 212.541 178.344 212.126 178.773 211.846C179.212 211.557 179.716 211.412 180.285 211.412C181.023 211.412 181.625 211.594 182.091 211.958C182.567 212.322 182.917 212.798 183.141 213.386C183.375 213.974 183.491 214.609 183.491 215.29C183.491 215.971 183.375 216.606 183.141 217.194C182.917 217.782 182.567 218.258 182.091 218.622C181.625 218.986 181.023 219.168 180.285 219.168C179.903 219.168 179.543 219.103 179.207 218.972C178.881 218.841 178.601 218.659 178.367 218.426C178.143 218.193 177.989 217.917 177.905 217.6L178.073 217.404V221.1H176.897ZM180.173 218.048C180.817 218.048 181.326 217.805 181.699 217.32C182.073 216.835 182.259 216.158 182.259 215.29C182.259 214.422 182.073 213.745 181.699 213.26C181.326 212.775 180.817 212.532 180.173 212.532C179.744 212.532 179.371 212.635 179.053 212.84C178.745 213.045 178.503 213.353 178.325 213.764C178.157 214.175 178.073 214.683 178.073 215.29C178.073 215.897 178.157 216.405 178.325 216.816C178.493 217.227 178.736 217.535 179.053 217.74C179.371 217.945 179.744 218.048 180.173 218.048ZM185.087 219V211.58H186.123L186.179 213.456L186.067 213.414C186.16 212.779 186.361 212.317 186.669 212.028C186.986 211.729 187.406 211.58 187.929 211.58H188.657V212.7H187.943C187.569 212.7 187.257 212.77 187.005 212.91C186.762 213.041 186.575 213.241 186.445 213.512C186.323 213.773 186.263 214.109 186.263 214.52V219H185.087ZM192.729 219.168C192.029 219.168 191.422 219.009 190.909 218.692C190.405 218.375 190.013 217.927 189.733 217.348C189.462 216.76 189.327 216.074 189.327 215.29C189.327 214.506 189.462 213.825 189.733 213.246C190.013 212.667 190.4 212.219 190.895 211.902C191.399 211.575 191.992 211.412 192.673 211.412C193.317 211.412 193.886 211.566 194.381 211.874C194.876 212.173 195.258 212.611 195.529 213.19C195.809 213.769 195.949 214.473 195.949 215.304V215.654H190.559C190.606 216.447 190.816 217.045 191.189 217.446C191.572 217.847 192.085 218.048 192.729 218.048C193.214 218.048 193.611 217.936 193.919 217.712C194.236 217.479 194.456 217.175 194.577 216.802L195.837 216.9C195.641 217.563 195.268 218.109 194.717 218.538C194.176 218.958 193.513 219.168 192.729 219.168ZM190.559 214.618H194.661C194.605 213.899 194.395 213.372 194.031 213.036C193.676 212.7 193.224 212.532 192.673 212.532C192.104 212.532 191.632 212.709 191.259 213.064C190.895 213.409 190.662 213.927 190.559 214.618ZM200.244 219.168C199.581 219.168 199.017 219.061 198.55 218.846C198.093 218.631 197.733 218.337 197.472 217.964C197.22 217.581 197.075 217.147 197.038 216.662L198.27 216.578C198.345 217.026 198.536 217.385 198.844 217.656C199.152 217.917 199.619 218.048 200.244 218.048C200.748 218.048 201.149 217.969 201.448 217.81C201.756 217.642 201.91 217.376 201.91 217.012C201.91 216.816 201.863 216.653 201.77 216.522C201.677 216.391 201.495 216.279 201.224 216.186C200.953 216.083 200.552 215.985 200.02 215.892C199.311 215.761 198.751 215.603 198.34 215.416C197.939 215.22 197.649 214.982 197.472 214.702C197.304 214.413 197.22 214.072 197.22 213.68C197.22 213.017 197.463 212.476 197.948 212.056C198.433 211.627 199.124 211.412 200.02 211.412C200.627 211.412 201.135 211.524 201.546 211.748C201.966 211.963 202.293 212.252 202.526 212.616C202.769 212.971 202.927 213.363 203.002 213.792L201.77 213.876C201.714 213.615 201.611 213.386 201.462 213.19C201.313 212.985 201.117 212.826 200.874 212.714C200.631 212.593 200.342 212.532 200.006 212.532C199.474 212.532 199.082 212.635 198.83 212.84C198.578 213.045 198.452 213.307 198.452 213.624C198.452 213.867 198.508 214.067 198.62 214.226C198.741 214.375 198.933 214.501 199.194 214.604C199.455 214.697 199.805 214.781 200.244 214.856C201 214.987 201.588 215.145 202.008 215.332C202.428 215.519 202.722 215.747 202.89 216.018C203.058 216.289 203.142 216.62 203.142 217.012C203.142 217.469 203.011 217.861 202.75 218.188C202.498 218.505 202.153 218.748 201.714 218.916C201.285 219.084 200.795 219.168 200.244 219.168ZM207.645 219.168C206.945 219.168 206.338 219.009 205.825 218.692C205.321 218.375 204.929 217.927 204.649 217.348C204.378 216.76 204.243 216.074 204.243 215.29C204.243 214.506 204.378 213.825 204.649 213.246C204.929 212.667 205.316 212.219 205.811 211.902C206.315 211.575 206.908 211.412 207.589 211.412C208.233 211.412 208.802 211.566 209.297 211.874C209.792 212.173 210.174 212.611 210.445 213.19C210.725 213.769 210.865 214.473 210.865 215.304V215.654H205.475C205.522 216.447 205.732 217.045 206.105 217.446C206.488 217.847 207.001 218.048 207.645 218.048C208.13 218.048 208.527 217.936 208.835 217.712C209.152 217.479 209.372 217.175 209.493 216.802L210.753 216.9C210.557 217.563 210.184 218.109 209.633 218.538C209.092 218.958 208.429 219.168 207.645 219.168ZM205.475 214.618H209.577C209.521 213.899 209.311 213.372 208.947 213.036C208.592 212.7 208.14 212.532 207.589 212.532C207.02 212.532 206.548 212.709 206.175 213.064C205.811 213.409 205.578 213.927 205.475 214.618ZM212.458 219V211.58H213.536L213.578 213.47L213.438 213.344C213.531 212.905 213.695 212.546 213.928 212.266C214.161 211.977 214.441 211.762 214.768 211.622C215.104 211.482 215.463 211.412 215.846 211.412C216.415 211.412 216.882 211.538 217.246 211.79C217.619 212.042 217.895 212.383 218.072 212.812C218.259 213.232 218.352 213.703 218.352 214.226V219H217.176V214.562C217.176 214.105 217.12 213.722 217.008 213.414C216.905 213.097 216.737 212.859 216.504 212.7C216.271 212.532 215.967 212.448 215.594 212.448C215.025 212.448 214.553 212.63 214.18 212.994C213.816 213.349 213.634 213.871 213.634 214.562V219H212.458ZM222.748 219C222.076 219 221.577 218.846 221.25 218.538C220.933 218.23 220.774 217.749 220.774 217.096V209.844H221.95V217.068C221.95 217.404 222.025 217.637 222.174 217.768C222.323 217.899 222.552 217.964 222.86 217.964H223.924V219H222.748ZM219.682 212.616V211.58H223.924V212.616H219.682ZM231.913 219.168C231.231 219.168 230.634 219.009 230.121 218.692C229.607 218.375 229.211 217.927 228.931 217.348C228.651 216.76 228.511 216.074 228.511 215.29C228.511 214.497 228.651 213.811 228.931 213.232C229.211 212.653 229.607 212.205 230.121 211.888C230.634 211.571 231.231 211.412 231.913 211.412C232.594 211.412 233.187 211.571 233.691 211.888C234.204 212.205 234.601 212.653 234.881 213.232C235.161 213.811 235.301 214.497 235.301 215.29C235.301 216.074 235.161 216.76 234.881 217.348C234.601 217.927 234.204 218.375 233.691 218.692C233.187 219.009 232.594 219.168 231.913 219.168ZM231.913 218.048C232.594 218.048 233.121 217.805 233.495 217.32C233.877 216.825 234.069 216.149 234.069 215.29C234.069 214.431 233.877 213.759 233.495 213.274C233.121 212.779 232.594 212.532 231.913 212.532C231.231 212.532 230.699 212.779 230.317 213.274C229.934 213.759 229.743 214.431 229.743 215.29C229.743 216.149 229.934 216.825 230.317 217.32C230.699 217.805 231.231 218.048 231.913 218.048ZM236.903 219V211.58H237.981L238.023 213.47L237.883 213.344C237.977 212.905 238.14 212.546 238.373 212.266C238.607 211.977 238.887 211.762 239.213 211.622C239.549 211.482 239.909 211.412 240.291 211.412C240.861 211.412 241.327 211.538 241.691 211.79C242.065 212.042 242.34 212.383 242.517 212.812C242.704 213.232 242.797 213.703 242.797 214.226V219H241.621V214.562C241.621 214.105 241.565 213.722 241.453 213.414C241.351 213.097 241.183 212.859 240.949 212.7C240.716 212.532 240.413 212.448 240.039 212.448C239.47 212.448 238.999 212.63 238.625 212.994C238.261 213.349 238.079 213.871 238.079 214.562V219H236.903ZM35.442 238.1V237.064H36.296C36.5573 237.064 36.7487 237.022 36.87 236.938C37.0007 236.863 37.0987 236.737 37.164 236.56L37.43 235.86H37.024L34.308 228.58H35.596L37.808 234.768L39.922 228.58H41.21L38.2 236.938C38.06 237.339 37.85 237.633 37.57 237.82C37.29 238.007 36.9027 238.1 36.408 238.1H35.442ZM45.1684 236.168C44.4871 236.168 43.8897 236.009 43.3764 235.692C42.8631 235.375 42.4664 234.927 42.1864 234.348C41.9064 233.76 41.7664 233.074 41.7664 232.29C41.7664 231.497 41.9064 230.811 42.1864 230.232C42.4664 229.653 42.8631 229.205 43.3764 228.888C43.8897 228.571 44.4871 228.412 45.1684 228.412C45.8497 228.412 46.4424 228.571 46.9464 228.888C47.4597 229.205 47.8564 229.653 48.1364 230.232C48.4164 230.811 48.5564 231.497 48.5564 232.29C48.5564 233.074 48.4164 233.76 48.1364 234.348C47.8564 234.927 47.4597 235.375 46.9464 235.692C46.4424 236.009 45.8497 236.168 45.1684 236.168ZM45.1684 235.048C45.8497 235.048 46.3771 234.805 46.7504 234.32C47.1331 233.825 47.3244 233.149 47.3244 232.29C47.3244 231.431 47.1331 230.759 46.7504 230.274C46.3771 229.779 45.8497 229.532 45.1684 229.532C44.4871 229.532 43.9551 229.779 43.5724 230.274C43.1897 230.759 42.9984 231.431 42.9984 232.29C42.9984 233.149 43.1897 233.825 43.5724 234.32C43.9551 234.805 44.4871 235.048 45.1684 235.048ZM52.5951 236.168C51.8577 236.168 51.2651 235.921 50.8171 235.426C50.3784 234.922 50.1591 234.231 50.1591 233.354V228.58H51.3351V233.032C51.3351 233.751 51.4611 234.283 51.7131 234.628C51.9744 234.964 52.3711 235.132 52.9031 235.132C53.4911 235.132 53.9531 234.945 54.2891 234.572C54.6251 234.189 54.7931 233.667 54.7931 233.004V228.58H55.9691V236H54.8491V234.166L55.0311 234.264C54.8817 234.871 54.5971 235.342 54.1771 235.678C53.7571 236.005 53.2297 236.168 52.5951 236.168ZM58.2118 236V228.58H59.2478L59.3038 230.456L59.1918 230.414C59.2851 229.779 59.4858 229.317 59.7938 229.028C60.1111 228.729 60.5311 228.58 61.0538 228.58H61.7818V229.7H61.0678C60.6945 229.7 60.3818 229.77 60.1298 229.91C59.8871 230.041 59.7005 230.241 59.5698 230.512C59.4485 230.773 59.3878 231.109 59.3878 231.52V236H58.2118ZM67.1845 236V226.06H70.2645C71.7952 226.06 72.9712 226.494 73.7925 227.362C74.6232 228.221 75.0385 229.448 75.0385 231.044C75.0385 232.631 74.6325 233.853 73.8205 234.712C73.0085 235.571 71.8512 236 70.3485 236H67.1845ZM68.3885 234.824H70.2645C71.4312 234.824 72.3085 234.511 72.8965 233.886C73.4845 233.251 73.7785 232.304 73.7785 231.044C73.7785 229.765 73.4845 228.813 72.8965 228.188C72.3085 227.553 71.4312 227.236 70.2645 227.236H68.3885V234.824ZM79.8813 236.168C79.1999 236.168 78.6026 236.009 78.0893 235.692C77.5759 235.375 77.1793 234.927 76.8993 234.348C76.6193 233.76 76.4793 233.074 76.4793 232.29C76.4793 231.497 76.6193 230.811 76.8993 230.232C77.1793 229.653 77.5759 229.205 78.0893 228.888C78.6026 228.571 79.1999 228.412 79.8813 228.412C80.5626 228.412 81.1553 228.571 81.6593 228.888C82.1726 229.205 82.5693 229.653 82.8493 230.232C83.1293 230.811 83.2693 231.497 83.2693 232.29C83.2693 233.074 83.1293 233.76 82.8493 234.348C82.5693 234.927 82.1726 235.375 81.6593 235.692C81.1553 236.009 80.5626 236.168 79.8813 236.168ZM79.8813 235.048C80.5626 235.048 81.0899 234.805 81.4633 234.32C81.8459 233.825 82.0373 233.149 82.0373 232.29C82.0373 231.431 81.8459 230.759 81.4633 230.274C81.0899 229.779 80.5626 229.532 79.8813 229.532C79.1999 229.532 78.6679 229.779 78.2853 230.274C77.9026 230.759 77.7113 231.431 77.7113 232.29C77.7113 233.149 77.9026 233.825 78.2853 234.32C78.6679 234.805 79.1999 235.048 79.8813 235.048ZM87.77 236.168C87.0793 236.168 86.4773 236.009 85.964 235.692C85.46 235.375 85.068 234.927 84.788 234.348C84.508 233.76 84.368 233.074 84.368 232.29C84.368 231.506 84.508 230.825 84.788 230.246C85.068 229.667 85.46 229.219 85.964 228.902C86.4773 228.575 87.0793 228.412 87.77 228.412C88.3393 228.412 88.8433 228.515 89.282 228.72C89.73 228.916 90.094 229.205 90.374 229.588C90.654 229.971 90.836 230.437 90.92 230.988L89.688 231.072C89.604 230.577 89.3893 230.199 89.044 229.938C88.6986 229.667 88.274 229.532 87.77 229.532C87.0886 229.532 86.5566 229.779 86.174 230.274C85.7913 230.759 85.6 231.431 85.6 232.29C85.6 233.149 85.7913 233.825 86.174 234.32C86.5566 234.805 87.0886 235.048 87.77 235.048C88.274 235.048 88.6986 234.908 89.044 234.628C89.3893 234.348 89.604 233.928 89.688 233.368L90.92 233.452C90.836 234.003 90.654 234.483 90.374 234.894C90.094 235.295 89.73 235.608 89.282 235.832C88.8433 236.056 88.3393 236.168 87.77 236.168ZM94.8138 236.168C94.0765 236.168 93.4838 235.921 93.0358 235.426C92.5971 234.922 92.3778 234.231 92.3778 233.354V228.58H93.5538V233.032C93.5538 233.751 93.6798 234.283 93.9318 234.628C94.1931 234.964 94.5898 235.132 95.1218 235.132C95.7098 235.132 96.1718 234.945 96.5078 234.572C96.8438 234.189 97.0118 233.667 97.0118 233.004V228.58H98.1878V236H97.0678V234.166L97.2498 234.264C97.1005 234.871 96.8158 235.342 96.3958 235.678C95.9758 236.005 95.4485 236.168 94.8138 236.168ZM100.431 236V228.58H101.509L101.551 230.456L101.383 230.4C101.467 229.989 101.611 229.639 101.817 229.35C102.031 229.051 102.293 228.823 102.601 228.664C102.909 228.496 103.249 228.412 103.623 228.412C104.267 228.412 104.789 228.589 105.191 228.944C105.601 229.299 105.858 229.793 105.961 230.428L105.737 230.414C105.811 229.985 105.947 229.625 106.143 229.336C106.348 229.037 106.609 228.809 106.927 228.65C107.244 228.491 107.608 228.412 108.019 228.412C108.551 228.412 108.999 228.524 109.363 228.748C109.727 228.963 110.002 229.28 110.189 229.7C110.375 230.12 110.469 230.629 110.469 231.226V236H109.293V231.478C109.293 230.806 109.162 230.302 108.901 229.966C108.639 229.621 108.252 229.448 107.739 229.448C107.393 229.448 107.09 229.532 106.829 229.7C106.577 229.868 106.381 230.111 106.241 230.428C106.101 230.736 106.031 231.114 106.031 231.562V236H104.855V231.562C104.855 230.899 104.738 230.381 104.505 230.008C104.271 229.635 103.879 229.448 103.329 229.448C102.983 229.448 102.68 229.532 102.419 229.7C102.167 229.868 101.966 230.111 101.817 230.428C101.677 230.745 101.607 231.123 101.607 231.562V236H100.431ZM115.442 236.168C114.742 236.168 114.135 236.009 113.622 235.692C113.118 235.375 112.726 234.927 112.446 234.348C112.175 233.76 112.04 233.074 112.04 232.29C112.04 231.506 112.175 230.825 112.446 230.246C112.726 229.667 113.113 229.219 113.608 228.902C114.112 228.575 114.704 228.412 115.386 228.412C116.03 228.412 116.599 228.566 117.094 228.874C117.588 229.173 117.971 229.611 118.242 230.19C118.522 230.769 118.662 231.473 118.662 232.304V232.654H113.272C113.318 233.447 113.528 234.045 113.902 234.446C114.284 234.847 114.798 235.048 115.442 235.048C115.927 235.048 116.324 234.936 116.632 234.712C116.949 234.479 117.168 234.175 117.29 233.802L118.55 233.9C118.354 234.563 117.98 235.109 117.43 235.538C116.888 235.958 116.226 236.168 115.442 236.168ZM113.272 231.618H117.374C117.318 230.899 117.108 230.372 116.744 230.036C116.389 229.7 115.936 229.532 115.386 229.532C114.816 229.532 114.345 229.709 113.972 230.064C113.608 230.409 113.374 230.927 113.272 231.618ZM120.255 236V228.58H121.333L121.375 230.47L121.235 230.344C121.328 229.905 121.491 229.546 121.725 229.266C121.958 228.977 122.238 228.762 122.565 228.622C122.901 228.482 123.26 228.412 123.643 228.412C124.212 228.412 124.679 228.538 125.043 228.79C125.416 229.042 125.691 229.383 125.869 229.812C126.055 230.232 126.149 230.703 126.149 231.226V236H124.973V231.562C124.973 231.105 124.917 230.722 124.805 230.414C124.702 230.097 124.534 229.859 124.301 229.7C124.067 229.532 123.764 229.448 123.391 229.448C122.821 229.448 122.35 229.63 121.977 229.994C121.613 230.349 121.431 230.871 121.431 231.562V236H120.255ZM130.545 236C129.873 236 129.374 235.846 129.047 235.538C128.73 235.23 128.571 234.749 128.571 234.096V226.844H129.747V234.068C129.747 234.404 129.822 234.637 129.971 234.768C130.12 234.899 130.349 234.964 130.657 234.964H131.721V236H130.545ZM127.479 229.616V228.58H131.721V229.616H127.479ZM135.177 236.168C134.411 236.168 133.8 235.991 133.343 235.636C132.895 235.281 132.671 234.787 132.671 234.152C132.671 233.517 132.857 233.018 133.231 232.654C133.604 232.29 134.197 232.033 135.009 231.884L137.641 231.394C137.641 230.769 137.491 230.302 137.193 229.994C136.903 229.686 136.465 229.532 135.877 229.532C135.363 229.532 134.957 229.649 134.659 229.882C134.36 230.106 134.155 230.433 134.043 230.862L132.797 230.764C132.937 230.064 133.273 229.499 133.805 229.07C134.346 228.631 135.037 228.412 135.877 228.412C136.829 228.412 137.557 228.683 138.061 229.224C138.565 229.756 138.817 230.493 138.817 231.436V234.502C138.817 234.67 138.845 234.791 138.901 234.866C138.966 234.931 139.069 234.964 139.209 234.964H139.503V236C139.465 236.009 139.405 236.014 139.321 236.014C139.237 236.023 139.148 236.028 139.055 236.028C138.719 236.028 138.443 235.977 138.229 235.874C138.023 235.762 137.874 235.594 137.781 235.37C137.687 235.137 137.641 234.833 137.641 234.46L137.781 234.488C137.715 234.805 137.557 235.095 137.305 235.356C137.053 235.608 136.74 235.809 136.367 235.958C135.993 236.098 135.597 236.168 135.177 236.168ZM135.289 235.132C135.783 235.132 136.203 235.039 136.549 234.852C136.903 234.656 137.174 234.395 137.361 234.068C137.547 233.732 137.641 233.359 137.641 232.948V232.416L135.233 232.864C134.729 232.957 134.379 233.102 134.183 233.298C133.996 233.485 133.903 233.732 133.903 234.04C133.903 234.385 134.024 234.656 134.267 234.852C134.519 235.039 134.859 235.132 135.289 235.132ZM143.178 236C142.506 236 142.006 235.846 141.68 235.538C141.362 235.23 141.204 234.749 141.204 234.096V226.844H142.38V234.068C142.38 234.404 142.454 234.637 142.604 234.768C142.753 234.899 142.982 234.964 143.29 234.964H144.354V236H143.178ZM140.112 229.616V228.58H144.354V229.616H140.112ZM145.862 236V228.58H147.038V236H145.862ZM145.834 227.418V226.046H147.066V227.418H145.834ZM152.041 236.168C151.36 236.168 150.763 236.009 150.249 235.692C149.736 235.375 149.339 234.927 149.059 234.348C148.779 233.76 148.639 233.074 148.639 232.29C148.639 231.497 148.779 230.811 149.059 230.232C149.339 229.653 149.736 229.205 150.249 228.888C150.763 228.571 151.36 228.412 152.041 228.412C152.723 228.412 153.315 228.571 153.819 228.888C154.333 229.205 154.729 229.653 155.009 230.232C155.289 230.811 155.429 231.497 155.429 232.29C155.429 233.074 155.289 233.76 155.009 234.348C154.729 234.927 154.333 235.375 153.819 235.692C153.315 236.009 152.723 236.168 152.041 236.168ZM152.041 235.048C152.723 235.048 153.25 234.805 153.623 234.32C154.006 233.825 154.197 233.149 154.197 232.29C154.197 231.431 154.006 230.759 153.623 230.274C153.25 229.779 152.723 229.532 152.041 229.532C151.36 229.532 150.828 229.779 150.445 230.274C150.063 230.759 149.871 231.431 149.871 232.29C149.871 233.149 150.063 233.825 150.445 234.32C150.828 234.805 151.36 235.048 152.041 235.048ZM157.032 236V228.58H158.11L158.152 230.47L158.012 230.344C158.105 229.905 158.269 229.546 158.502 229.266C158.735 228.977 159.015 228.762 159.342 228.622C159.678 228.482 160.037 228.412 160.42 228.412C160.989 228.412 161.456 228.538 161.82 228.79C162.193 229.042 162.469 229.383 162.646 229.812C162.833 230.232 162.926 230.703 162.926 231.226V236H161.75V231.562C161.75 231.105 161.694 230.722 161.582 230.414C161.479 230.097 161.311 229.859 161.078 229.7C160.845 229.532 160.541 229.448 160.168 229.448C159.599 229.448 159.127 229.63 158.754 229.994C158.39 230.349 158.208 230.871 158.208 231.562V236H157.032ZM164.663 236V234.418H166.245V236H164.663Z" fill="white"/>
<path d="M35.1 86.76H42.052L47.42 108.76L52.876 86.76H58.728L64.14 108.76L69.464 86.76H76.504L68.056 118H60.884L55.78 98.024L50.676 118H43.504L35.1 86.76ZM88.2015 118.528C85.8255 118.528 83.7281 118.029 81.9095 117.032C80.1201 116.005 78.7415 114.568 77.7735 112.72C76.8055 110.843 76.3215 108.672 76.3215 106.208C76.3215 103.744 76.8055 101.588 77.7735 99.74C78.7415 97.8627 80.1201 96.4253 81.9095 95.428C83.6988 94.4013 85.7815 93.888 88.1575 93.888C90.4748 93.888 92.4988 94.4013 94.2295 95.428C95.9895 96.4547 97.3388 97.936 98.2775 99.872C99.2161 101.779 99.6855 104.037 99.6855 106.648V107.968H83.1415C83.2001 109.787 83.6841 111.165 84.5935 112.104C85.5028 113.043 86.7495 113.512 88.3335 113.512C89.4481 113.512 90.3721 113.277 91.1055 112.808C91.8681 112.339 92.4108 111.62 92.7335 110.652L99.3775 111.048C98.7321 113.395 97.4121 115.228 95.4175 116.548C93.4521 117.868 91.0468 118.528 88.2015 118.528ZM92.9535 103.92C92.8655 102.248 92.3961 100.972 91.5455 100.092C90.6948 99.212 89.5655 98.772 88.1575 98.772C86.7495 98.772 85.6055 99.2267 84.7255 100.136C83.8455 101.045 83.3175 102.307 83.1415 103.92H92.9535ZM110.267 118C108.272 118 106.747 117.501 105.691 116.504C104.635 115.507 104.107 113.952 104.107 111.84V86.76H110.707V111.136C110.707 111.84 110.868 112.339 111.191 112.632C111.514 112.925 111.983 113.072 112.599 113.072H114.183V118H110.267ZM128.981 118.528C126.605 118.528 124.508 118.029 122.689 117.032C120.87 116.005 119.462 114.568 118.465 112.72C117.497 110.843 117.013 108.672 117.013 106.208C117.013 103.744 117.497 101.588 118.465 99.74C119.462 97.8627 120.87 96.4253 122.689 95.428C124.508 94.4013 126.605 93.888 128.981 93.888C131.064 93.888 132.926 94.2547 134.569 94.988C136.241 95.7213 137.59 96.792 138.617 98.2C139.644 99.5787 140.274 101.221 140.509 103.128L133.689 103.436C133.484 101.999 132.97 100.899 132.149 100.136C131.328 99.3733 130.272 98.992 128.981 98.992C127.338 98.992 126.062 99.6227 125.153 100.884C124.244 102.145 123.789 103.92 123.789 106.208C123.789 108.525 124.244 110.315 125.153 111.576C126.062 112.837 127.338 113.468 128.981 113.468C130.272 113.468 131.328 113.072 132.149 112.28C133 111.488 133.513 110.315 133.689 108.76L140.509 109.024C140.274 110.931 139.644 112.603 138.617 114.04C137.62 115.477 136.285 116.592 134.613 117.384C132.97 118.147 131.093 118.528 128.981 118.528ZM155.106 118.528C152.701 118.528 150.589 118.029 148.77 117.032C146.981 116.005 145.587 114.568 144.59 112.72C143.622 110.843 143.138 108.672 143.138 106.208C143.138 103.744 143.622 101.588 144.59 99.74C145.587 97.8627 146.981 96.4253 148.77 95.428C150.589 94.4013 152.701 93.888 155.106 93.888C157.482 93.888 159.565 94.4013 161.354 95.428C163.173 96.4253 164.581 97.8627 165.578 99.74C166.575 101.588 167.074 103.744 167.074 106.208C167.074 108.672 166.575 110.843 165.578 112.72C164.581 114.568 163.173 116.005 161.354 117.032C159.565 118.029 157.482 118.528 155.106 118.528ZM155.106 113.468C156.749 113.468 158.01 112.837 158.89 111.576C159.799 110.285 160.254 108.496 160.254 106.208C160.254 103.92 159.799 102.145 158.89 100.884C158.01 99.5933 156.749 98.948 155.106 98.948C153.463 98.948 152.187 99.5933 151.278 100.884C150.369 102.145 149.914 103.92 149.914 106.208C149.914 108.525 150.369 110.315 151.278 111.576C152.187 112.837 153.463 113.468 155.106 113.468ZM171.31 94.416H177.25L177.47 100.092L176.854 99.828C177.177 98.596 177.661 97.54 178.306 96.66C178.981 95.7507 179.788 95.0613 180.726 94.592C181.665 94.1227 182.692 93.888 183.806 93.888C185.742 93.888 187.326 94.46 188.558 95.604C189.79 96.7187 190.582 98.2587 190.934 100.224L190.098 100.268C190.509 98.2147 191.33 96.6453 192.562 95.56C193.824 94.4453 195.364 93.888 197.182 93.888C198.796 93.888 200.204 94.2253 201.406 94.9C202.609 95.5747 203.518 96.5867 204.134 97.936C204.78 99.2853 205.102 100.913 205.102 102.82V118H198.502V104.668C198.502 102.791 198.209 101.397 197.622 100.488C197.065 99.5787 196.17 99.124 194.938 99.124C194.146 99.124 193.472 99.344 192.914 99.784C192.357 100.224 191.917 100.869 191.594 101.72C191.301 102.571 191.154 103.583 191.154 104.756V118H185.214V104.756C185.214 102.879 184.936 101.471 184.378 100.532C183.85 99.5933 182.956 99.124 181.694 99.124C180.902 99.124 180.213 99.344 179.626 99.784C179.069 100.224 178.644 100.869 178.35 101.72C178.057 102.571 177.91 103.583 177.91 104.756V118H171.31V94.416ZM221.018 118.528C218.642 118.528 216.545 118.029 214.726 117.032C212.937 116.005 211.558 114.568 210.59 112.72C209.622 110.843 209.138 108.672 209.138 106.208C209.138 103.744 209.622 101.588 210.59 99.74C211.558 97.8627 212.937 96.4253 214.726 95.428C216.515 94.4013 218.598 93.888 220.974 93.888C223.291 93.888 225.315 94.4013 227.046 95.428C228.806 96.4547 230.155 97.936 231.094 99.872C232.033 101.779 232.502 104.037 232.502 106.648V107.968H215.958C216.017 109.787 216.501 111.165 217.41 112.104C218.319 113.043 219.566 113.512 221.15 113.512C222.265 113.512 223.189 113.277 223.922 112.808C224.685 112.339 225.227 111.62 225.55 110.652L232.194 111.048C231.549 113.395 230.229 115.228 228.234 116.548C226.269 117.868 223.863 118.528 221.018 118.528ZM225.77 103.92C225.682 102.248 225.213 100.972 224.362 100.092C223.511 99.212 222.382 98.772 220.974 98.772C219.566 98.772 218.422 99.2267 217.542 100.136C216.662 101.045 216.134 102.307 215.958 103.92H225.77ZM254.806 92.392H245.434V86.76H270.866V92.392H261.538V118H254.806V92.392ZM282.508 118.528C280.103 118.528 277.991 118.029 276.172 117.032C274.383 116.005 272.99 114.568 271.992 112.72C271.024 110.843 270.54 108.672 270.54 106.208C270.54 103.744 271.024 101.588 271.992 99.74C272.99 97.8627 274.383 96.4253 276.172 95.428C277.991 94.4013 280.103 93.888 282.508 93.888C284.884 93.888 286.967 94.4013 288.756 95.428C290.575 96.4253 291.983 97.8627 292.98 99.74C293.978 101.588 294.476 103.744 294.476 106.208C294.476 108.672 293.978 110.843 292.98 112.72C291.983 114.568 290.575 116.005 288.756 117.032C286.967 118.029 284.884 118.528 282.508 118.528ZM282.508 113.468C284.151 113.468 285.412 112.837 286.292 111.576C287.202 110.285 287.656 108.496 287.656 106.208C287.656 103.92 287.202 102.145 286.292 100.884C285.412 99.5933 284.151 98.948 282.508 98.948C280.866 98.948 279.59 99.5933 278.68 100.884C277.771 102.145 277.316 103.92 277.316 106.208C277.316 108.525 277.771 110.315 278.68 111.576C279.59 112.837 280.866 113.468 282.508 113.468Z" fill="white"/>
<path d="M45.924 155.856L35.1 136.76H42.492L49.312 149.344L56.088 136.76H63.48L52.656 155.856V168H45.924V155.856ZM73.9379 168.528C71.5326 168.528 69.4206 168.029 67.6019 167.032C65.8126 166.005 64.4192 164.568 63.4219 162.72C62.4539 160.843 61.9699 158.672 61.9699 156.208C61.9699 153.744 62.4539 151.588 63.4219 149.74C64.4192 147.863 65.8126 146.425 67.6019 145.428C69.4206 144.401 71.5326 143.888 73.9379 143.888C76.3139 143.888 78.3966 144.401 80.1859 145.428C82.0046 146.425 83.4126 147.863 84.4099 149.74C85.4072 151.588 85.9059 153.744 85.9059 156.208C85.9059 158.672 85.4072 160.843 84.4099 162.72C83.4126 164.568 82.0046 166.005 80.1859 167.032C78.3966 168.029 76.3139 168.528 73.9379 168.528ZM73.9379 163.468C75.5806 163.468 76.8419 162.837 77.7219 161.576C78.6312 160.285 79.0859 158.496 79.0859 156.208C79.0859 153.92 78.6312 152.145 77.7219 150.884C76.8419 149.593 75.5806 148.948 73.9379 148.948C72.2952 148.948 71.0192 149.593 70.1099 150.884C69.2006 152.145 68.7459 153.92 68.7459 156.208C68.7459 158.525 69.2006 160.315 70.1099 161.576C71.0192 162.837 72.2952 163.468 73.9379 163.468ZM97.7574 168.528C95.3227 168.528 93.416 167.751 92.0374 166.196C90.688 164.641 90.0134 162.441 90.0134 159.596V144.416H96.6134V158.056C96.6134 159.875 96.892 161.209 97.4494 162.06C98.0067 162.881 98.8867 163.292 100.089 163.292C101.439 163.292 102.48 162.823 103.213 161.884C103.976 160.945 104.357 159.567 104.357 157.748V144.416H110.957V168H104.929L104.753 161.224L105.589 161.4C105.237 163.747 104.401 165.521 103.081 166.724C101.761 167.927 99.9867 168.528 97.7574 168.528ZM116.74 144.416H122.988L123.208 151.28L122.724 151.148C123.105 148.772 123.78 147.056 124.748 146C125.716 144.944 127.051 144.416 128.752 144.416H130.908V149.872H128.752C127.491 149.872 126.464 150.048 125.672 150.4C124.88 150.723 124.293 151.236 123.912 151.94C123.531 152.644 123.34 153.583 123.34 154.756V168H116.74V144.416ZM145.881 136.76H153.273L165.681 158.32V136.76H172.369V168H164.889L152.569 147.188V168H145.881V136.76ZM189.049 168.528C186.673 168.528 184.576 168.029 182.757 167.032C180.968 166.005 179.589 164.568 178.621 162.72C177.653 160.843 177.169 158.672 177.169 156.208C177.169 153.744 177.653 151.588 178.621 149.74C179.589 147.863 180.968 146.425 182.757 145.428C184.546 144.401 186.629 143.888 189.005 143.888C191.322 143.888 193.346 144.401 195.077 145.428C196.837 146.455 198.186 147.936 199.125 149.872C200.064 151.779 200.533 154.037 200.533 156.648V157.968H183.989C184.048 159.787 184.532 161.165 185.441 162.104C186.35 163.043 187.597 163.512 189.181 163.512C190.296 163.512 191.22 163.277 191.953 162.808C192.716 162.339 193.258 161.62 193.581 160.652L200.225 161.048C199.58 163.395 198.26 165.228 196.265 166.548C194.3 167.868 191.894 168.528 189.049 168.528ZM193.801 153.92C193.713 152.248 193.244 150.972 192.393 150.092C191.542 149.212 190.413 148.772 189.005 148.772C187.597 148.772 186.453 149.227 185.573 150.136C184.693 151.045 184.165 152.307 183.989 153.92H193.801ZM201.901 144.416H208.545L212.637 160.388L216.949 144.416H222.361L226.717 160.388L230.809 144.416H237.453L230.457 168H224.033L219.677 153.26L215.321 168H208.941L201.901 144.416ZM251.627 136.76H262.407C267.452 136.76 271.339 138.124 274.067 140.852C276.824 143.551 278.203 147.408 278.203 152.424C278.203 157.411 276.854 161.253 274.155 163.952C271.486 166.651 267.658 168 262.671 168H251.627V136.76ZM262.407 162.368C265.399 162.368 267.628 161.561 269.095 159.948C270.562 158.305 271.295 155.783 271.295 152.38C271.295 149.007 270.562 146.499 269.095 144.856C267.628 143.213 265.399 142.392 262.407 142.392H258.315V162.368H262.407ZM293.637 168.528C291.232 168.528 289.12 168.029 287.301 167.032C285.512 166.005 284.118 164.568 283.121 162.72C282.153 160.843 281.669 158.672 281.669 156.208C281.669 153.744 282.153 151.588 283.121 149.74C284.118 147.863 285.512 146.425 287.301 145.428C289.12 144.401 291.232 143.888 293.637 143.888C296.013 143.888 298.096 144.401 299.885 145.428C301.704 146.425 303.112 147.863 304.109 149.74C305.106 151.588 305.605 153.744 305.605 156.208C305.605 158.672 305.106 160.843 304.109 162.72C303.112 164.568 301.704 166.005 299.885 167.032C298.096 168.029 296.013 168.528 293.637 168.528ZM293.637 163.468C295.28 163.468 296.541 162.837 297.421 161.576C298.33 160.285 298.785 158.496 298.785 156.208C298.785 153.92 298.33 152.145 297.421 150.884C296.541 149.593 295.28 148.948 293.637 148.948C291.994 148.948 290.718 149.593 289.809 150.884C288.9 152.145 288.445 153.92 288.445 156.208C288.445 158.525 288.9 160.315 289.809 161.576C290.718 162.837 291.994 163.468 293.637 163.468ZM320.664 168.528C318.288 168.528 316.191 168.029 314.372 167.032C312.554 166.005 311.146 164.568 310.148 162.72C309.18 160.843 308.696 158.672 308.696 156.208C308.696 153.744 309.18 151.588 310.148 149.74C311.146 147.863 312.554 146.425 314.372 145.428C316.191 144.401 318.288 143.888 320.664 143.888C322.747 143.888 324.61 144.255 326.252 144.988C327.924 145.721 329.274 146.792 330.3 148.2C331.327 149.579 331.958 151.221 332.192 153.128L325.372 153.436C325.167 151.999 324.654 150.899 323.832 150.136C323.011 149.373 321.955 148.992 320.664 148.992C319.022 148.992 317.746 149.623 316.836 150.884C315.927 152.145 315.472 153.92 315.472 156.208C315.472 158.525 315.927 160.315 316.836 161.576C317.746 162.837 319.022 163.468 320.664 163.468C321.955 163.468 323.011 163.072 323.832 162.28C324.683 161.488 325.196 160.315 325.372 158.76L332.192 159.024C331.958 160.931 331.327 162.603 330.3 164.04C329.303 165.477 327.968 166.592 326.296 167.384C324.654 168.147 322.776 168.528 320.664 168.528ZM346.129 168.528C343.783 168.528 341.773 168.191 340.101 167.516C338.429 166.841 337.153 165.917 336.273 164.744C335.423 163.541 334.939 162.148 334.821 160.564L341.509 160.344C341.715 161.488 342.184 162.368 342.917 162.984C343.68 163.571 344.765 163.864 346.173 163.864C347.376 163.864 348.3 163.673 348.945 163.292C349.591 162.881 349.913 162.295 349.913 161.532C349.913 161.004 349.781 160.579 349.517 160.256C349.283 159.933 348.813 159.655 348.109 159.42C347.435 159.156 346.437 158.921 345.117 158.716C342.624 158.305 340.673 157.807 339.265 157.22C337.857 156.604 336.86 155.841 336.273 154.932C335.687 153.993 335.393 152.835 335.393 151.456C335.393 149.139 336.288 147.305 338.077 145.956C339.867 144.577 342.463 143.888 345.865 143.888C349.063 143.888 351.556 144.621 353.345 146.088C355.164 147.555 356.22 149.52 356.513 151.984L349.913 152.248C349.767 151.104 349.327 150.209 348.593 149.564C347.889 148.889 346.951 148.552 345.777 148.552C344.633 148.552 343.739 148.801 343.093 149.3C342.477 149.769 342.169 150.4 342.169 151.192C342.169 151.779 342.301 152.263 342.565 152.644C342.859 152.996 343.313 153.289 343.929 153.524C344.575 153.759 345.455 153.949 346.569 154.096C349.092 154.477 351.087 154.976 352.553 155.592C354.02 156.179 355.076 156.941 355.721 157.88C356.367 158.819 356.689 159.992 356.689 161.4C356.689 163.659 355.736 165.419 353.829 166.68C351.952 167.912 349.385 168.528 346.129 168.528Z" fill="black"/>
<path d="M45.924 155.856L35.1 136.76H42.492L49.312 149.344L56.088 136.76H63.48L52.656 155.856V168H45.924V155.856ZM73.9379 168.528C71.5326 168.528 69.4206 168.029 67.6019 167.032C65.8126 166.005 64.4192 164.568 63.4219 162.72C62.4539 160.843 61.9699 158.672 61.9699 156.208C61.9699 153.744 62.4539 151.588 63.4219 149.74C64.4192 147.863 65.8126 146.425 67.6019 145.428C69.4206 144.401 71.5326 143.888 73.9379 143.888C76.3139 143.888 78.3966 144.401 80.1859 145.428C82.0046 146.425 83.4126 147.863 84.4099 149.74C85.4072 151.588 85.9059 153.744 85.9059 156.208C85.9059 158.672 85.4072 160.843 84.4099 162.72C83.4126 164.568 82.0046 166.005 80.1859 167.032C78.3966 168.029 76.3139 168.528 73.9379 168.528ZM73.9379 163.468C75.5806 163.468 76.8419 162.837 77.7219 161.576C78.6312 160.285 79.0859 158.496 79.0859 156.208C79.0859 153.92 78.6312 152.145 77.7219 150.884C76.8419 149.593 75.5806 148.948 73.9379 148.948C72.2952 148.948 71.0192 149.593 70.1099 150.884C69.2006 152.145 68.7459 153.92 68.7459 156.208C68.7459 158.525 69.2006 160.315 70.1099 161.576C71.0192 162.837 72.2952 163.468 73.9379 163.468ZM97.7574 168.528C95.3227 168.528 93.416 167.751 92.0374 166.196C90.688 164.641 90.0134 162.441 90.0134 159.596V144.416H96.6134V158.056C96.6134 159.875 96.892 161.209 97.4494 162.06C98.0067 162.881 98.8867 163.292 100.089 163.292C101.439 163.292 102.48 162.823 103.213 161.884C103.976 160.945 104.357 159.567 104.357 157.748V144.416H110.957V168H104.929L104.753 161.224L105.589 161.4C105.237 163.747 104.401 165.521 103.081 166.724C101.761 167.927 99.9867 168.528 97.7574 168.528ZM116.74 144.416H122.988L123.208 151.28L122.724 151.148C123.105 148.772 123.78 147.056 124.748 146C125.716 144.944 127.051 144.416 128.752 144.416H130.908V149.872H128.752C127.491 149.872 126.464 150.048 125.672 150.4C124.88 150.723 124.293 151.236 123.912 151.94C123.531 152.644 123.34 153.583 123.34 154.756V168H116.74V144.416ZM145.881 136.76H153.273L165.681 158.32V136.76H172.369V168H164.889L152.569 147.188V168H145.881V136.76ZM189.049 168.528C186.673 168.528 184.576 168.029 182.757 167.032C180.968 166.005 179.589 164.568 178.621 162.72C177.653 160.843 177.169 158.672 177.169 156.208C177.169 153.744 177.653 151.588 178.621 149.74C179.589 147.863 180.968 146.425 182.757 145.428C184.546 144.401 186.629 143.888 189.005 143.888C191.322 143.888 193.346 144.401 195.077 145.428C196.837 146.455 198.186 147.936 199.125 149.872C200.064 151.779 200.533 154.037 200.533 156.648V157.968H183.989C184.048 159.787 184.532 161.165 185.441 162.104C186.35 163.043 187.597 163.512 189.181 163.512C190.296 163.512 191.22 163.277 191.953 162.808C192.716 162.339 193.258 161.62 193.581 160.652L200.225 161.048C199.58 163.395 198.26 165.228 196.265 166.548C194.3 167.868 191.894 168.528 189.049 168.528ZM193.801 153.92C193.713 152.248 193.244 150.972 192.393 150.092C191.542 149.212 190.413 148.772 189.005 148.772C187.597 148.772 186.453 149.227 185.573 150.136C184.693 151.045 184.165 152.307 183.989 153.92H193.801ZM201.901 144.416H208.545L212.637 160.388L216.949 144.416H222.361L226.717 160.388L230.809 144.416H237.453L230.457 168H224.033L219.677 153.26L215.321 168H208.941L201.901 144.416ZM251.627 136.76H262.407C267.452 136.76 271.339 138.124 274.067 140.852C276.824 143.551 278.203 147.408 278.203 152.424C278.203 157.411 276.854 161.253 274.155 163.952C271.486 166.651 267.658 168 262.671 168H251.627V136.76ZM262.407 162.368C265.399 162.368 267.628 161.561 269.095 159.948C270.562 158.305 271.295 155.783 271.295 152.38C271.295 149.007 270.562 146.499 269.095 144.856C267.628 143.213 265.399 142.392 262.407 142.392H258.315V162.368H262.407ZM293.637 168.528C291.232 168.528 289.12 168.029 287.301 167.032C285.512 166.005 284.118 164.568 283.121 162.72C282.153 160.843 281.669 158.672 281.669 156.208C281.669 153.744 282.153 151.588 283.121 149.74C284.118 147.863 285.512 146.425 287.301 145.428C289.12 144.401 291.232 143.888 293.637 143.888C296.013 143.888 298.096 144.401 299.885 145.428C301.704 146.425 303.112 147.863 304.109 149.74C305.106 151.588 305.605 153.744 305.605 156.208C305.605 158.672 305.106 160.843 304.109 162.72C303.112 164.568 301.704 166.005 299.885 167.032C298.096 168.029 296.013 168.528 293.637 168.528ZM293.637 163.468C295.28 163.468 296.541 162.837 297.421 161.576C298.33 160.285 298.785 158.496 298.785 156.208C298.785 153.92 298.33 152.145 297.421 150.884C296.541 149.593 295.28 148.948 293.637 148.948C291.994 148.948 290.718 149.593 289.809 150.884C288.9 152.145 288.445 153.92 288.445 156.208C288.445 158.525 288.9 160.315 289.809 161.576C290.718 162.837 291.994 163.468 293.637 163.468ZM320.664 168.528C318.288 168.528 316.191 168.029 314.372 167.032C312.554 166.005 311.146 164.568 310.148 162.72C309.18 160.843 308.696 158.672 308.696 156.208C308.696 153.744 309.18 151.588 310.148 149.74C311.146 147.863 312.554 146.425 314.372 145.428C316.191 144.401 318.288 143.888 320.664 143.888C322.747 143.888 324.61 144.255 326.252 144.988C327.924 145.721 329.274 146.792 330.3 148.2C331.327 149.579 331.958 151.221 332.192 153.128L325.372 153.436C325.167 151.999 324.654 150.899 323.832 150.136C323.011 149.373 321.955 148.992 320.664 148.992C319.022 148.992 317.746 149.623 316.836 150.884C315.927 152.145 315.472 153.92 315.472 156.208C315.472 158.525 315.927 160.315 316.836 161.576C317.746 162.837 319.022 163.468 320.664 163.468C321.955 163.468 323.011 163.072 323.832 162.28C324.683 161.488 325.196 160.315 325.372 158.76L332.192 159.024C331.958 160.931 331.327 162.603 330.3 164.04C329.303 165.477 327.968 166.592 326.296 167.384C324.654 168.147 322.776 168.528 320.664 168.528ZM346.129 168.528C343.783 168.528 341.773 168.191 340.101 167.516C338.429 166.841 337.153 165.917 336.273 164.744C335.423 163.541 334.939 162.148 334.821 160.564L341.509 160.344C341.715 161.488 342.184 162.368 342.917 162.984C343.68 163.571 344.765 163.864 346.173 163.864C347.376 163.864 348.3 163.673 348.945 163.292C349.591 162.881 349.913 162.295 349.913 161.532C349.913 161.004 349.781 160.579 349.517 160.256C349.283 159.933 348.813 159.655 348.109 159.42C347.435 159.156 346.437 158.921 345.117 158.716C342.624 158.305 340.673 157.807 339.265 157.22C337.857 156.604 336.86 155.841 336.273 154.932C335.687 153.993 335.393 152.835 335.393 151.456C335.393 149.139 336.288 147.305 338.077 145.956C339.867 144.577 342.463 143.888 345.865 143.888C349.063 143.888 351.556 144.621 353.345 146.088C355.164 147.555 356.22 149.52 356.513 151.984L349.913 152.248C349.767 151.104 349.327 150.209 348.593 149.564C347.889 148.889 346.951 148.552 345.777 148.552C344.633 148.552 343.739 148.801 343.093 149.3C342.477 149.769 342.169 150.4 342.169 151.192C342.169 151.779 342.301 152.263 342.565 152.644C342.859 152.996 343.313 153.289 343.929 153.524C344.575 153.759 345.455 153.949 346.569 154.096C349.092 154.477 351.087 154.976 352.553 155.592C354.02 156.179 355.076 156.941 355.721 157.88C356.367 158.819 356.689 159.992 356.689 161.4C356.689 163.659 355.736 165.419 353.829 166.68C351.952 167.912 349.385 168.528 346.129 168.528Z" fill="url(#paint8_linear_203_325)"/>
<g clip-path="url(#clip2_203_325)">
<mask id="mask0_203_325" style="mask-type:luminance" maskUnits="userSpaceOnUse" x="34" y="34" width="27" height="27">
<path d="M61 34H34V61H61V34Z" fill="white"/>
</mask>
<g mask="url(#mask0_203_325)">
<path fill-rule="evenodd" clip-rule="evenodd" d="M34 47.5L34 34H47.5H61V47.5C53.5453 47.5 47.5018 41.4576 47.5 34.0032C47.4982 41.4576 41.4548 47.5 34 47.5ZM47.5 61C47.5 53.5441 53.5442 47.5 61 47.5V61H47.5ZM47.5 61C47.5 53.5441 41.4558 47.5 34 47.5V61H47.5Z" fill="white"/>
</g>
</g>
</g>
<rect x="0.5" y="0.5" width="756" height="269" rx="7.5" stroke="#262434"/>
<defs>
<filter id="filter0_f_203_325" x="236.606" y="-170.394" width="1018.12" height="1018.12" filterUnits="userSpaceOnUse" color-interpolation-filters="sRGB">
<feFlood flood-opacity="0" result="BackgroundImageFix"/>
<feBlend mode="normal" in="SourceGraphic" in2="BackgroundImageFix" result="shape"/>
<feGaussianBlur stdDeviation="129.697" result="effect1_foregroundBlur_203_325"/>
</filter>
<filter id="filter1_f_203_325" x="277.836" y="-72.1076" width="687.52" height="687.52" filterUnits="userSpaceOnUse" color-interpolation-filters="sRGB">
<feFlood flood-opacity="0" result="BackgroundImageFix"/>
<feBlend mode="normal" in="SourceGraphic" in2="BackgroundImageFix" result="shape"/>
<feGaussianBlur stdDeviation="87.5821" result="effect1_foregroundBlur_203_325"/>
</filter>
<linearGradient id="paint0_linear_203_325" x1="669.949" y1="135.192" x2="1039" y2="135.192" gradientUnits="userSpaceOnUse">
<stop stop-color="#D06DB6" stop-opacity="0"/>
<stop offset="1" stop-color="#D06DB6"/>
</linearGradient>
<linearGradient id="paint1_linear_203_325" x1="570.465" y1="134.412" x2="819.679" y2="134.412" gradientUnits="userSpaceOnUse">
<stop stop-color="#D06DB6" stop-opacity="0"/>
<stop offset="1" stop-color="#D06DB6"/>
</linearGradient>
<linearGradient id="paint2_linear_203_325" x1="803.472" y1="140.246" x2="803.472" y2="55.2439" gradientUnits="userSpaceOnUse">
<stop stop-color="#D06DB6"/>
<stop offset="1" stop-color="#D06DB6" stop-opacity="0"/>
</linearGradient>
<linearGradient id="paint3_linear_203_325" x1="668.611" y1="180.068" x2="668.611" y2="247.235" gradientUnits="userSpaceOnUse">
<stop stop-color="#D06DB6"/>
<stop offset="1" stop-color="#D06DB6" stop-opacity="0"/>
</linearGradient>
<linearGradient id="paint4_linear_203_325" x1="640.391" y1="243.515" x2="556.994" y2="243.515" gradientUnits="userSpaceOnUse">
<stop stop-color="#D06DB6"/>
<stop offset="1" stop-color="#D06DB6" stop-opacity="0"/>
</linearGradient>
<linearGradient id="paint5_linear_203_325" x1="672.959" y1="59.34" x2="672.959" y2="133.912" gradientUnits="userSpaceOnUse">
<stop stop-color="#D06DB6" stop-opacity="0"/>
<stop offset="1" stop-color="#D06DB6"/>
</linearGradient>
<linearGradient id="paint6_linear_203_325" x1="496.675" y1="10.2092" x2="823.527" y2="10.2092" gradientUnits="userSpaceOnUse">
<stop stop-color="#D06DB6"/>
<stop offset="1" stop-color="#D06DB6" stop-opacity="0"/>
</linearGradient>
<linearGradient id="paint7_linear_203_325" x1="540" y1="10.3589" x2="837" y2="10.3589" gradientUnits="userSpaceOnUse">
<stop stop-color="#D06DB6"/>
<stop offset="1" stop-color="#D06DB6"/>
</linearGradient>
<linearGradient id="paint8_linear_203_325" x1="34" y1="128" x2="416" y2="128" gradientUnits="userSpaceOnUse">
<stop stop-color="#8D83FF"/>
<stop offset="0.5" stop-color="#FF02BD"/>
<stop offset="1" stop-color="#8D83FF"/>
</linearGradient>
<clipPath id="clip0_203_325">
<rect width="757" height="270" rx="8" fill="white"/>
</clipPath>
<clipPath id="clip1_203_325">
<path d="M540 -9.99998V30.7178H837V-9.99998H540Z" fill="white"/>
</clipPath>
<clipPath id="clip2_203_325">
<rect width="27" height="27" fill="white" transform="translate(34 34)"/>
</clipPath>
</defs>
</svg>
