<svg width="41" height="40" viewBox="0 0 41 40" fill="none" xmlns="http://www.w3.org/2000/svg">
  <rect x="0.863922" y="0.443481" width="39.272" height="39.272" rx="5" fill="#0C0C0C"/>
  <circle cx="8.99997" cy="17.5795" r="3" fill="#FF00BD"/>
  <circle cx="31.9999" cy="22.5795" r="3" fill="#FF00BD"/>
  <path d="M31.5 28.254C31.7761 28.254 32 28.4779 32 28.754V33.0581C32 33.3424 31.7673 33.5698 31.4832 33.5587C28.5371 33.443 13.8469 32.9035 9.61057 33.4728C9.29138 33.5157 8.99997 33.2714 8.99997 32.9493V28.9629C8.99997 28.8488 9.03899 28.7381 9.11057 28.6493L21.9413 12.7185C22.2048 12.3914 21.972 11.9049 21.5519 11.9049H10.1353C9.85919 11.9049 9.63533 11.6811 9.63533 11.4049V7.13801C9.63533 6.84004 9.89302 6.60617 10.1899 6.63137C12.1192 6.79512 19.0689 7.25308 30.8312 6.60924C31.1181 6.59353 31.3646 6.82141 31.3646 7.10872V11.1804C31.3646 11.304 31.32 11.4219 31.2374 11.5139C30.4687 12.3701 26.3969 16.9205 24 19.8965C21.984 22.3995 19.4363 25.9201 18.3268 27.4697C18.0907 27.7995 18.328 28.254 18.7336 28.254H31.5Z" fill="white"/>
</svg>
