<svg xmlns="http://www.w3.org/2000/svg" width="130" height="130" fill="none" viewBox="0 0 130 130"><rect width="130" height="130" fill="#0C0C0C" rx="20"/><path fill="#fff" fill-rule="evenodd" d="M76.221 27.968A4.666 4.666 0 0 1 80.581 25h23.667c6.325 0 10.835 6.134 8.948 12.171l-7.549 24.159a4.688 4.688 0 0 1-4.474 3.289H72.429c-4.103 0-6.19 3.714-7.429 7.429-.992 2.974-8.336 21.83-11.221 29.222a4.666 4.666 0 0 1-4.36 2.968H25.753c-6.325 0-10.835-6.134-8.948-12.171l7.549-24.159a4.688 4.688 0 0 1 4.474-3.289h28.744c4.103 0 6.19-3.714 7.429-7.428.992-2.975 8.335-21.83 11.221-29.223Z" clip-rule="evenodd"/><path fill="#fff" d="M79.195 70.81a6.19 6.19 0 0 0-5.797 4.016l-9.446 25.19c-.766 2.043.745 4.222 2.926 4.222h26.448a12.5 12.5 0 0 0 11.704-8.11l5.535-14.763c1.916-5.107-1.86-10.555-7.315-10.555H79.195ZM37.913 25a12.5 12.5 0 0 0-11.705 8.111l-5.535 14.762c-1.916 5.107 1.86 10.556 7.315 10.556h24.055c2.58 0 4.89-1.601 5.797-4.017l9.446-25.19C68.052 27.18 66.542 25 64.36 25H37.913Z"/></svg>
