<svg width="92" height="96" viewBox="0 0 92 96" fill="none" xmlns="http://www.w3.org/2000/svg">
<rect x="4.5707" y="16.0615" width="75" height="80" rx="7.5" transform="rotate(-8.81303 4.5707 16.0615)" fill="black" stroke="black"/>
<rect x="0.570702" y="12.0615" width="75" height="80" rx="7.5" transform="rotate(-8.81303 0.570702 12.0615)" fill="#FEA9FC" stroke="black"/>
<path d="M51.7085 46.7675L48.8154 47.2774L47.9996 42.6486L50.8926 42.1387C51.9226 41.9571 52.8756 41.4743 53.6311 40.7511C54.3866 40.028 54.9107 39.0971 55.1372 38.076C55.3636 37.055 55.2822 35.9898 54.9032 35.0151C54.5242 34.0403 53.8647 33.1999 53.0081 32.5999C52.1514 32 51.1361 31.6676 50.0906 31.6447C49.045 31.6218 48.0161 31.9095 47.1341 32.4713C46.252 33.0332 45.5563 33.844 45.135 34.8012C44.7138 35.7584 44.5858 36.819 44.7673 37.849L45.2772 40.742L40.6484 41.5579L40.1385 38.6648C39.9569 37.6349 39.4741 36.6819 38.7509 35.9264C38.0278 35.1709 37.0969 34.6468 36.0758 34.4203C35.0548 34.1939 33.9896 34.2753 33.0149 34.6543C32.0401 35.0332 31.1996 35.6927 30.5997 36.5494C29.9998 37.406 29.6674 38.4213 29.6445 39.4669C29.6216 40.5125 29.9093 41.5413 30.4711 42.4234C31.033 43.3055 31.8438 44.0012 32.801 44.4224C33.7582 44.8437 34.8188 44.9717 35.8488 44.7901L38.7418 44.2802L39.5577 48.9091L36.6646 49.419C35.6347 49.6005 34.6817 50.0834 33.9262 50.8065C33.1707 51.5297 32.6466 52.4606 32.4201 53.4816C32.1937 54.5026 32.2751 55.5679 32.6541 56.5426C33.033 57.5174 33.6925 58.3578 34.5492 58.9577C35.4058 59.5577 36.4211 59.8901 37.4667 59.913C38.5123 59.9359 39.5411 59.6482 40.4232 59.0864C41.3053 58.5245 42.0009 57.7137 42.4222 56.7565C42.8435 55.7993 42.9715 54.7386 42.7899 53.7087L42.28 50.8156L46.9089 49.9998L47.4188 52.8928C47.6003 53.9228 48.0832 54.8758 48.8063 55.6313C49.5295 56.3868 50.4604 56.9109 51.4814 57.1374C52.5024 57.3638 53.5677 57.2824 54.5424 56.9034C55.5172 56.5244 56.3576 55.8649 56.9575 55.0083C57.5575 54.1516 57.8899 53.1363 57.9128 52.0908C57.9357 51.0452 57.648 50.0163 57.0862 49.1343C56.5243 48.2522 55.7135 47.5565 54.7563 47.1352C53.7991 46.714 52.7384 46.586 51.7085 46.7675ZM47.0818 37.4411C46.9809 36.8689 47.052 36.2796 47.2861 35.7478C47.5201 35.2161 47.9066 34.7656 48.3966 34.4535C48.8867 34.1413 49.4583 33.9815 50.0391 33.9942C50.62 34.007 51.1841 34.1916 51.66 34.5249C52.1359 34.8582 52.5023 35.3251 52.7128 35.8667C52.9234 36.4082 52.9686 37 52.8428 37.5672C52.717 38.1344 52.4258 38.6516 52.0061 39.0534C51.5864 39.4551 51.0569 39.7234 50.4847 39.8242L47.5917 40.3341L47.0818 37.4411ZM32.0379 40.0925C31.9027 39.3253 32.0778 38.5357 32.5247 37.8975C32.9717 37.2593 33.6538 36.8248 34.4211 36.6896C35.1884 36.5544 35.9779 36.7295 36.6161 37.1764C37.2543 37.6233 37.6888 38.3055 37.824 39.0727L38.3339 41.9658L35.4409 42.4757C34.6736 42.6109 33.884 42.4358 33.2458 41.9889C32.6077 41.542 32.1732 40.8598 32.0379 40.0925ZM40.4755 54.1166C40.5763 54.6888 40.5052 55.278 40.2712 55.8098C40.0372 56.3416 39.6507 56.7921 39.1606 57.1042C38.6706 57.4163 38.099 57.5762 37.5181 57.5634C36.9373 57.5507 36.3732 57.366 35.8973 57.0327C35.4214 56.6995 35.055 56.2325 34.8445 55.691C34.6339 55.1495 34.5887 54.5577 34.7145 53.9905C34.8403 53.4232 35.1315 52.906 35.5512 52.5043C35.9709 52.1026 36.5004 51.8343 37.0725 51.7334L39.9656 51.2236L40.4755 54.1166ZM41.0563 43.8723L45.6852 43.0565L46.501 47.6854L41.8721 48.5012L41.0563 43.8723ZM53.1362 54.8681C52.3689 55.0033 51.5793 54.8282 50.9412 54.3813C50.303 53.9343 49.8685 53.2522 49.7332 52.4849L49.2234 49.5919L52.1164 49.082C52.8837 48.9467 53.6733 49.1219 54.3114 49.5688C54.9496 50.0157 55.3841 50.6978 55.5193 51.4651C55.6546 52.2324 55.4795 53.022 55.0325 53.6602C54.5856 54.2983 53.9035 54.7328 53.1362 54.8681Z" fill="black"/>
</svg>
