<svg width="275" height="92" viewBox="0 0 275 92" fill="none" xmlns="http://www.w3.org/2000/svg">
<rect x="5.02686" y="7.5" width="268.807" height="84" rx="42" fill="black" stroke="black"/>
<rect x="0.5" y="0.5" width="268.807" height="84" rx="42" fill="white" stroke="black"/>
<g clip-path="url(#clip0_54_1190)">
<path d="M53.6008 52.842L47.6455 46.8879C49.3715 44.8156 50.2323 42.1576 50.0486 39.4669C49.8649 36.7762 48.6509 34.2599 46.6591 32.4414C44.6674 30.6229 42.0513 29.6424 39.355 29.7036C36.6587 29.7649 34.0898 30.8633 32.1827 32.7704C30.2757 34.6775 29.1773 37.2463 29.116 39.9426C29.0547 42.6389 30.0353 45.2551 31.8537 47.2468C33.6722 49.2385 36.1885 50.4525 38.8793 50.6362C41.57 50.8199 44.228 49.9592 46.3002 48.2331L52.2544 54.1884C52.3428 54.2768 52.4477 54.347 52.5632 54.3948C52.6788 54.4427 52.8026 54.4673 52.9276 54.4673C53.0526 54.4673 53.1764 54.4427 53.2919 54.3948C53.4074 54.347 53.5124 54.2768 53.6008 54.1884C53.6892 54.1 53.7593 53.9951 53.8072 53.8796C53.855 53.7641 53.8796 53.6403 53.8796 53.5152C53.8796 53.3902 53.855 53.2664 53.8072 53.1509C53.7593 53.0354 53.6892 52.9304 53.6008 52.842ZM31.0426 40.1939C31.0426 38.5002 31.5449 36.8445 32.4859 35.4362C33.4268 34.0279 34.7643 32.9303 36.3291 32.2821C37.8939 31.634 39.6158 31.4644 41.277 31.7948C42.9382 32.1252 44.4641 32.9409 45.6617 34.1385C46.8594 35.3362 47.675 36.8621 48.0054 38.5233C48.3359 40.1844 48.1663 41.9063 47.5181 43.4711C46.8699 45.0359 45.7723 46.3734 44.364 47.3144C42.9557 48.2554 41.3 48.7576 39.6063 48.7576C37.3358 48.7551 35.1591 47.8521 33.5536 46.2466C31.9482 44.6411 31.0451 42.4644 31.0426 40.1939Z" fill="black"/>
</g>
<path d="M78.8286 51.384C77.4686 51.384 76.2846 51.136 75.2766 50.64C74.2846 50.144 73.5006 49.456 72.9246 48.576C72.3486 47.696 72.0126 46.672 71.9166 45.504L74.5806 45.336C74.6926 46.136 74.9246 46.816 75.2766 47.376C75.6286 47.92 76.1006 48.336 76.6926 48.624C77.3006 48.896 78.0286 49.032 78.8766 49.032C79.6126 49.032 80.2366 48.944 80.7486 48.768C81.2766 48.576 81.6766 48.296 81.9486 47.928C82.2206 47.56 82.3566 47.112 82.3566 46.584C82.3566 46.104 82.2366 45.68 81.9966 45.312C81.7726 44.928 81.3326 44.584 80.6766 44.28C80.0366 43.96 79.0926 43.648 77.8446 43.344C76.4846 43.008 75.3966 42.64 74.5806 42.24C73.7646 41.84 73.1726 41.344 72.8046 40.752C72.4526 40.144 72.2766 39.4 72.2766 38.52C72.2766 37.544 72.5086 36.688 72.9726 35.952C73.4526 35.2 74.1326 34.616 75.0126 34.2C75.8926 33.784 76.9486 33.576 78.1806 33.576C79.4766 33.576 80.5806 33.816 81.4926 34.296C82.4206 34.776 83.1486 35.432 83.6766 36.264C84.2206 37.096 84.5566 38.048 84.6846 39.12L82.0206 39.264C81.9406 38.608 81.7406 38.032 81.4206 37.536C81.1006 37.024 80.6686 36.632 80.1246 36.36C79.5806 36.072 78.9166 35.928 78.1326 35.928C77.1406 35.928 76.3566 36.16 75.7806 36.624C75.2206 37.072 74.9406 37.672 74.9406 38.424C74.9406 38.904 75.0526 39.312 75.2766 39.648C75.5166 39.968 75.9326 40.248 76.5246 40.488C77.1326 40.728 77.9886 40.984 79.0926 41.256C80.5646 41.592 81.7326 42.008 82.5966 42.504C83.4766 42.984 84.1006 43.552 84.4686 44.208C84.8366 44.864 85.0206 45.608 85.0206 46.44C85.0206 47.448 84.7566 48.328 84.2286 49.08C83.7166 49.816 82.9966 50.384 82.0686 50.784C81.1406 51.184 80.0606 51.384 78.8286 51.384ZM93.661 51.288C92.413 51.288 91.333 51.016 90.421 50.472C89.525 49.928 88.829 49.152 88.333 48.144C87.853 47.136 87.613 45.96 87.613 44.616C87.613 43.272 87.853 42.104 88.333 41.112C88.829 40.104 89.525 39.328 90.421 38.784C91.317 38.224 92.373 37.944 93.589 37.944C94.741 37.944 95.757 38.216 96.637 38.76C97.517 39.288 98.197 40.056 98.677 41.064C99.173 42.072 99.421 43.288 99.421 44.712V45.36H90.253C90.317 46.608 90.645 47.544 91.237 48.168C91.845 48.792 92.661 49.104 93.685 49.104C94.437 49.104 95.061 48.928 95.557 48.576C96.053 48.224 96.397 47.752 96.589 47.16L99.229 47.328C98.893 48.512 98.229 49.472 97.237 50.208C96.261 50.928 95.069 51.288 93.661 51.288ZM90.253 43.44H96.733C96.653 42.304 96.325 41.464 95.749 40.92C95.189 40.376 94.469 40.104 93.589 40.104C92.677 40.104 91.925 40.392 91.333 40.968C90.757 41.528 90.397 42.352 90.253 43.44ZM105.833 51.288C104.505 51.288 103.441 50.984 102.641 50.376C101.857 49.768 101.465 48.912 101.465 47.808C101.465 46.704 101.793 45.848 102.449 45.24C103.121 44.616 104.153 44.168 105.545 43.896L109.937 43.056C109.937 42.064 109.705 41.328 109.241 40.848C108.777 40.352 108.089 40.104 107.177 40.104C106.361 40.104 105.721 40.288 105.257 40.656C104.793 41.008 104.473 41.536 104.297 42.24L101.681 42.072C101.921 40.792 102.513 39.784 103.457 39.048C104.417 38.312 105.657 37.944 107.177 37.944C108.905 37.944 110.217 38.408 111.113 39.336C112.025 40.248 112.481 41.536 112.481 43.2V48.168C112.481 48.472 112.529 48.688 112.625 48.816C112.737 48.928 112.913 48.984 113.153 48.984H113.609V51C113.529 51.016 113.401 51.032 113.225 51.048C113.049 51.064 112.865 51.072 112.673 51.072C112.129 51.072 111.657 50.984 111.257 50.808C110.873 50.632 110.585 50.344 110.393 49.944C110.201 49.528 110.105 48.976 110.105 48.288L110.369 48.408C110.241 48.968 109.961 49.464 109.529 49.896C109.113 50.328 108.577 50.672 107.921 50.928C107.281 51.168 106.585 51.288 105.833 51.288ZM106.241 49.272C107.009 49.272 107.665 49.128 108.209 48.84C108.753 48.536 109.177 48.12 109.481 47.592C109.785 47.064 109.937 46.464 109.937 45.792V44.976L106.193 45.696C105.425 45.84 104.881 46.072 104.561 46.392C104.257 46.696 104.105 47.088 104.105 47.568C104.105 48.112 104.289 48.536 104.657 48.84C105.041 49.128 105.569 49.272 106.241 49.272ZM115.757 51V38.232H118.085L118.181 41.616L117.965 41.544C118.141 40.392 118.493 39.552 119.021 39.024C119.565 38.496 120.293 38.232 121.205 38.232H122.429V40.512H121.205C120.565 40.512 120.029 40.616 119.597 40.824C119.165 41.032 118.837 41.352 118.613 41.784C118.405 42.216 118.301 42.776 118.301 43.464V51H115.757ZM129.497 51.288C128.281 51.288 127.217 51.016 126.305 50.472C125.393 49.928 124.689 49.152 124.193 48.144C123.697 47.136 123.449 45.96 123.449 44.616C123.449 43.272 123.697 42.104 124.193 41.112C124.689 40.104 125.393 39.328 126.305 38.784C127.217 38.224 128.281 37.944 129.497 37.944C130.537 37.944 131.457 38.128 132.257 38.496C133.073 38.848 133.729 39.368 134.225 40.056C134.737 40.744 135.065 41.584 135.209 42.576L132.545 42.72C132.417 41.888 132.081 41.256 131.537 40.824C130.993 40.376 130.313 40.152 129.497 40.152C128.425 40.152 127.585 40.552 126.977 41.352C126.385 42.136 126.089 43.224 126.089 44.616C126.089 46.008 126.385 47.104 126.977 47.904C127.585 48.688 128.425 49.08 129.497 49.08C130.313 49.08 130.993 48.856 131.537 48.408C132.081 47.944 132.417 47.248 132.545 46.32L135.209 46.464C135.065 47.44 134.737 48.288 134.225 49.008C133.729 49.728 133.073 50.288 132.257 50.688C131.457 51.088 130.537 51.288 129.497 51.288ZM137.53 51V33.96H140.074V41.112L139.762 41.064C139.906 40.344 140.17 39.76 140.554 39.312C140.938 38.848 141.41 38.504 141.97 38.28C142.53 38.056 143.146 37.944 143.818 37.944C144.746 37.944 145.53 38.152 146.17 38.568C146.81 38.968 147.29 39.536 147.61 40.272C147.946 41.008 148.114 41.848 148.114 42.792V51H145.57V43.464C145.57 42.312 145.37 41.464 144.97 40.92C144.586 40.36 143.978 40.08 143.146 40.08C142.218 40.08 141.474 40.376 140.914 40.968C140.354 41.544 140.074 42.392 140.074 43.512V51H137.53Z" fill="#B4B9C9"/>
<defs>
<clipPath id="clip0_54_1190">
<rect width="30.4487" height="30.4487" fill="white" transform="translate(29.1396 28.7756)"/>
</clipPath>
</defs>
</svg>
