<svg xmlns="http://www.w3.org/2000/svg" width="120" height="24" fill="none" viewBox="0 0 120 24"><g fill="#fff"><path fill-rule="evenodd" d="M19.064 1.116A1.754 1.754 0 0 1 20.7 0h6.018c2.372 0 4.063 2.3 3.356 4.564l-1.939 6.203A1.758 1.758 0 0 1 26.459 12H18c-1.243 0-1.875 1.125-2.25 2.25-.291.873-2.39 6.265-3.314 8.634A1.754 1.754 0 0 1 10.8 24H4.782c-2.372 0-4.063-2.3-3.356-4.564l1.939-6.203A1.758 1.758 0 0 1 5.042 12H13.5c1.243 0 1.875-1.125 2.25-2.25.291-.873 2.39-6.265 3.314-8.634Z" clip-rule="evenodd"/><path d="M20.05 13.875c-.782 0-1.481.485-1.756 1.217l-2.747 7.325A1.172 1.172 0 0 0 16.645 24h7.06a4.688 4.688 0 0 0 4.39-3.042l1.171-3.125c.718-1.915-.697-3.958-2.743-3.958H20.05ZM8.17 0a4.688 4.688 0 0 0-4.389 3.042L2.61 6.167c-.718 1.915.698 3.958 2.743 3.958h6.473c.782 0 1.482-.485 1.756-1.217l2.747-7.325A1.172 1.172 0 0 0 15.231 0H8.17ZM37.2 18.436v-3.03l5.793-6.518-.027-.027c-.536.054-.59.054-1.153.054h-4.506V5.83h10.058v3.03l-5.82 6.518.027.026c.536-.053.616-.053 1.18-.053h4.666v3.084H37.2ZM55.222 18.731c-3.863-.027-5.981-2.44-5.981-5.847V5.831h3.7v6.785c0 1.77.779 2.87 2.28 2.897 1.637.027 2.334-1.073 2.334-2.87V5.83h3.701v7.08c0 3.245-2.494 5.847-6.034 5.82ZM85.19 18.731c-3.997 0-6.813-2.843-6.813-6.598s2.816-6.597 6.812-6.597c3.996 0 6.813 2.842 6.813 6.597 0 3.755-2.817 6.598-6.813 6.598Zm0-3.192c1.85 0 3.164-1.394 3.164-3.406 0-2.011-1.314-3.406-3.165-3.406-1.85 0-3.165 1.395-3.165 3.406 0 2.012 1.315 3.407 3.165 3.407ZM101.626 18.436l-4.292-6.92v6.92h-3.7V.145h3.7v10.54l4.023-4.854h4.292l-4.533 5.203 4.801 7.402h-4.291ZM113.02 18.731c-3.862-.027-5.981-2.44-5.981-5.847V5.831h3.702v6.785c0 1.77.777 2.87 2.279 2.897 1.636.027 2.334-1.073 2.334-2.87V5.83h3.701v7.08c0 3.245-2.494 5.847-6.035 5.82Z"/><path fill-rule="evenodd" d="M76.74.12h-3.922v5.975a7.44 7.44 0 0 0-2.891-.56c-3.996 0-6.813 2.843-6.813 6.598s2.817 6.598 6.813 6.598c3.958 0 6.759-2.79 6.811-6.492h.001V.12Zm-3.648 12.013c0 2.012-1.314 3.407-3.165 3.407-1.85 0-3.165-1.395-3.165-3.407 0-2.011 1.314-3.406 3.165-3.406 1.85 0 3.165 1.395 3.165 3.406Z" clip-rule="evenodd"/></g></svg>
