<svg width="98" height="26" viewBox="0 0 98 26" fill="none" xmlns="http://www.w3.org/2000/svg">
<path d="M25.316 25.16L25.112 24.16C23.8435 24.938 23.5707 25.16 22.5475 25.16C21.0475 25.16 20.9769 25.16 20.0475 25.16C18.5062 25.16 16.9067 24.9787 16.068 23.936C15.2293 22.8707 14.81 21.386 14.81 19.482V7.922H18.72V19.006C18.72 20.91 19.4227 21.862 20.828 21.862C21.3947 21.862 22.0067 21.726 22.664 21.454C23.344 21.182 24.16 20.6607 25.112 19.89V7.922H29.022V25.16H25.316Z" fill="white"/>
<path d="M93.316 25.16L93.112 24.16C91.8435 24.938 91.5707 25.16 90.5475 25.16C89.0475 25.16 88.9769 25.16 88.0475 25.16C86.5062 25.16 84.9067 24.9787 84.068 23.936C83.2293 22.8707 82.81 21.386 82.81 19.482V7.922H86.72V19.006C86.72 20.91 87.4227 21.862 88.828 21.862C89.3947 21.862 90.0067 21.726 90.664 21.454C91.344 21.182 92.16 20.6607 93.112 19.89V7.922H97.022V25.16H93.316Z" fill="white"/>
<path d="M76.5168 25.16L72.2668 17.986C71.5868 18.666 70.8728 19.346 70.1248 20.026V25.16H66.2148V0H70.1248V15.708C71.4168 14.3933 72.5275 13.1353 73.4568 11.934C74.4088 10.71 76.5 7.922 76.5 7.922H80.5628C79.8148 9.282 78.9988 10.574 78.1148 11.798C77.2308 13.022 76.2561 14.2573 75.1908 15.504L81.2428 25.16H76.5168Z" fill="white"/>
<path d="M63.8306 15.504V17.544C63.8306 19.9467 63.1733 21.8733 61.8586 23.324C60.5439 24.7747 58.6853 25.5 56.2826 25.5C53.88 25.5 52.0213 24.7747 50.7066 23.324C49.392 21.8733 48.7346 19.9467 48.7346 17.544V15.504C48.7346 13.1013 49.3806 11.186 50.6726 9.758C51.9873 8.30733 53.8573 7.582 56.2826 7.582C58.708 7.582 60.5666 8.30733 61.8586 9.758C63.1733 11.186 63.8306 13.1013 63.8306 15.504ZM59.8186 15.504C59.8186 14.1213 59.5126 13.0447 58.9006 12.274C58.2886 11.4807 57.416 11.084 56.2826 11.084C55.1493 11.084 54.2766 11.4807 53.6646 12.274C53.0526 13.0447 52.7466 14.1213 52.7466 15.504V17.544C52.7466 18.9267 53.0526 20.0147 53.6646 20.808C54.2766 21.6013 55.1493 21.998 56.2826 21.998C57.416 21.998 58.2886 21.6013 58.9006 20.808C59.5126 20.0147 59.8186 18.9267 59.8186 17.544V15.504Z" fill="white"/>
<path d="M42.6272 25.16V23.16C41.31 24.16 40.6779 24.5707 39.9072 24.956C39.1592 25.3187 38.3772 25.5 37.5612 25.5C35.7025 25.5 34.2519 24.7973 33.2092 23.392C32.1892 21.9867 31.6792 20.0147 31.6792 17.476V15.64C31.6792 13.1693 32.3025 11.2087 33.5492 9.758C34.7959 8.30733 36.5979 7.582 38.9552 7.582C39.5445 7.582 40.1225 7.63867 40.6892 7.752C41.2785 7.86533 41.8565 8.024 42.4232 8.228V0H46.3332V25.16H42.6272ZM35.6912 17.476C35.6912 18.9947 35.9405 20.1053 36.4392 20.808C36.9605 21.5107 37.6859 21.862 38.6152 21.862C39.1365 21.862 39.6919 21.7147 40.2812 21.42C40.8705 21.1027 41.5845 20.5133 42.4232 19.652V11.764C41.3125 11.3107 40.2925 11.084 39.3632 11.084C38.0485 11.084 37.1079 11.492 36.5412 12.308C35.9745 13.124 35.6912 14.2347 35.6912 15.64V17.476Z" fill="white"/>
<path d="M12.308 21.76V25.16H2C0.895428 25.16 0 24.2646 0 23.16V22.1L7.276 11.322H0.34V7.922H9.968C11.0726 7.922 11.968 8.81743 11.968 9.922V10.982L4.692 21.76H12.308Z" fill="white"/>
</svg>
