<svg width="129" height="131" viewBox="0 0 129 131" fill="none" xmlns="http://www.w3.org/2000/svg">
<mask id="path-1-inside-1_54_1388" fill="white">
<path d="M102.173 109.348L120.648 104.199C122.505 103.681 124.088 102.418 125.049 100.686C126.01 98.9546 126.271 96.8969 125.773 94.9658L121.358 77.8314C121.201 77.2352 120.906 76.6882 120.498 76.2387C120.09 75.7892 119.582 75.4509 119.019 75.2537C118.455 75.0565 117.854 75.0064 117.268 75.1078C116.681 75.2092 116.128 75.4591 115.656 75.8353C114.553 76.7139 113.294 77.3581 111.952 77.7311C106.163 79.3446 100.148 75.6065 98.5497 69.4036C96.9513 63.2006 100.363 56.8356 106.152 55.2221C107.494 54.8469 108.894 54.7501 110.272 54.9373C110.864 55.0183 111.466 54.9457 112.025 54.726C112.584 54.5064 113.082 54.1464 113.475 53.6783C113.867 53.2101 114.143 52.6482 114.276 52.0426C114.41 51.437 114.397 50.8065 114.24 50.2071L109.825 33.0727C109.327 31.1415 108.112 29.495 106.447 28.4954C104.783 27.4958 102.804 27.225 100.947 27.7425L85.0976 32.1598C85.007 31.5372 84.8825 30.9205 84.7248 30.3126C83.6051 25.9674 80.8716 22.2628 77.1256 20.0137C73.3796 17.7646 68.9279 17.1552 64.7498 18.3196C60.5718 19.484 57.0097 22.3269 54.847 26.2227C52.6844 30.1186 52.0985 34.7484 53.2181 39.0935C53.3738 39.702 53.5626 40.3008 53.7835 40.8871L37.9339 45.3044C36.077 45.8219 34.4938 47.0854 33.5326 48.8169C32.5715 50.5484 32.3111 52.6061 32.8087 54.5372L36.587 69.2004C35.9884 69.2947 35.3954 69.4241 34.8108 69.5881C30.6328 70.7526 27.0707 73.5954 24.908 77.4913C22.7454 81.3871 22.1595 86.0169 23.2791 90.3621C24.3988 94.7072 27.1323 98.4119 30.8783 100.661C34.6243 102.91 39.076 103.519 43.2541 102.355C43.8391 102.193 44.4149 101.997 44.9786 101.767L48.757 116.43C49.2546 118.361 50.4695 120.008 52.1344 121.008C53.7993 122.007 55.7778 122.278 57.6347 121.761L76.1099 116.611"/>
</mask>
<path d="M102.173 109.348L120.648 104.199C122.505 103.681 124.088 102.418 125.049 100.686C126.01 98.9546 126.271 96.8969 125.773 94.9658L121.358 77.8314C121.201 77.2352 120.906 76.6882 120.498 76.2387C120.09 75.7892 119.582 75.4509 119.019 75.2537C118.455 75.0565 117.854 75.0064 117.268 75.1078C116.681 75.2092 116.128 75.4591 115.656 75.8353C114.553 76.7139 113.294 77.3581 111.952 77.7311C106.163 79.3446 100.148 75.6065 98.5497 69.4036C96.9513 63.2006 100.363 56.8356 106.152 55.2221C107.494 54.8469 108.894 54.7501 110.272 54.9373C110.864 55.0183 111.466 54.9457 112.025 54.726C112.584 54.5064 113.082 54.1464 113.475 53.6783C113.867 53.2101 114.143 52.6482 114.276 52.0426C114.41 51.437 114.397 50.8065 114.24 50.2071L109.825 33.0727C109.327 31.1415 108.112 29.495 106.447 28.4954C104.783 27.4958 102.804 27.225 100.947 27.7425L85.0976 32.1598C85.007 31.5372 84.8825 30.9205 84.7248 30.3126C83.6051 25.9674 80.8716 22.2628 77.1256 20.0137C73.3796 17.7646 68.9279 17.1552 64.7498 18.3196C60.5718 19.484 57.0097 22.3269 54.847 26.2227C52.6844 30.1186 52.0985 34.7484 53.2181 39.0935C53.3738 39.702 53.5626 40.3008 53.7835 40.8871L37.9339 45.3044C36.077 45.8219 34.4938 47.0854 33.5326 48.8169C32.5715 50.5484 32.3111 52.6061 32.8087 54.5372L36.587 69.2004C35.9884 69.2947 35.3954 69.4241 34.8108 69.5881C30.6328 70.7526 27.0707 73.5954 24.908 77.4913C22.7454 81.3871 22.1595 86.0169 23.2791 90.3621C24.3988 94.7072 27.1323 98.4119 30.8783 100.661C34.6243 102.91 39.076 103.519 43.2541 102.355C43.8391 102.193 44.4149 101.997 44.9786 101.767L48.757 116.43C49.2546 118.361 50.4695 120.008 52.1344 121.008C53.7993 122.007 55.7778 122.278 57.6347 121.761L76.1099 116.611" fill="black"/>
<path d="M121.358 77.8314L122.321 77.5629L122.32 77.5581L121.358 77.8314ZM115.656 75.8353L116.264 76.6203L116.265 76.6198L115.656 75.8353ZM111.952 77.7311L111.703 76.7625L111.702 76.7628L111.952 77.7311ZM106.152 55.2221L106.401 56.1904L106.402 56.1902L106.152 55.2221ZM110.272 54.9373L110.421 53.9414L110.421 53.9413L110.272 54.9373ZM114.24 50.2071L113.277 50.4756L113.278 50.48L114.24 50.2071ZM100.947 27.7425L100.698 26.7741L100.947 27.7425ZM85.0976 32.1598L84.113 32.3224L84.2738 33.4273L85.3471 33.1282L85.0976 32.1598ZM84.7248 30.3126L83.7615 30.5811L83.7619 30.5827L84.7248 30.3126ZM64.7498 18.3196L64.5003 17.3512L64.7498 18.3196ZM53.2181 39.0935L54.1818 38.8267L54.1814 38.8251L53.2181 39.0935ZM53.7835 40.8871L54.033 41.8555L55.1063 41.5563L54.7143 40.5159L53.7835 40.8871ZM37.9339 45.3044L37.6844 44.336L37.9339 45.3044ZM32.8087 54.5372L31.8454 54.8057L32.8087 54.5372ZM36.587 69.2004L36.7239 70.1933L37.8304 70.0191L37.5503 68.932L36.587 69.2004ZM34.8108 69.5881L35.0604 70.5565L35.0621 70.556L34.8108 69.5881ZM23.2791 90.3621L22.3158 90.6305L23.2791 90.3621ZM43.2541 102.355L43.0063 101.386L43.0045 101.387L43.2541 102.355ZM44.9786 101.767L45.9419 101.499L45.6618 100.411L44.6198 100.836L44.9786 101.767ZM48.757 116.43L47.7937 116.699L48.757 116.43ZM102.173 109.348L102.422 110.316L120.898 105.167L120.648 104.199L120.398 103.23L101.923 108.379L102.173 109.348ZM120.648 104.199L120.898 105.167C123.021 104.575 124.824 103.132 125.915 101.166L125.049 100.686L124.183 100.206C123.352 101.703 121.989 102.787 120.398 103.23L120.648 104.199ZM125.049 100.686L125.915 101.166C127.006 99.2014 127.298 96.8749 126.736 94.6973L125.773 94.9658L124.81 95.2342C125.244 96.919 125.015 98.7079 124.183 100.206L125.049 100.686ZM125.773 94.9658L126.736 94.6973L122.321 77.5629L121.358 77.8314L120.395 78.0999L124.81 95.2342L125.773 94.9658ZM121.358 77.8314L122.32 77.5581C122.123 76.809 121.752 76.1203 121.237 75.5529L120.498 76.2387L119.759 76.9245C120.06 77.2561 120.279 77.6613 120.396 78.1047L121.358 77.8314ZM120.498 76.2387L121.237 75.5529C120.722 74.9854 120.077 74.5552 119.359 74.3036L119.019 75.2537L118.678 76.2038C119.086 76.3466 119.458 76.593 119.759 76.9245L120.498 76.2387ZM119.019 75.2537L119.359 74.3036C118.64 74.052 117.869 73.9871 117.116 74.1174L117.268 75.1078L117.419 76.0982C117.839 76.0257 118.271 76.061 118.678 76.2038L119.019 75.2537ZM117.268 75.1078L117.116 74.1174C116.362 74.2478 115.652 74.5689 115.048 75.0508L115.656 75.8353L116.265 76.6198C116.604 76.3493 117 76.1707 117.419 76.0982L117.268 75.1078ZM115.656 75.8353L115.048 75.0503C114.051 75.8445 112.915 76.426 111.703 76.7625L111.952 77.7311L112.201 78.6997C113.674 78.2903 115.055 77.5834 116.264 76.6203L115.656 75.8353ZM111.952 77.7311L111.702 76.7628C106.502 78.2121 100.989 74.8626 99.513 69.1351L98.5497 69.4036L97.5864 69.672C99.3073 76.3505 105.823 80.4772 112.201 78.6995L111.952 77.7311ZM98.5497 69.4036L99.513 69.1351C98.0372 63.4077 101.201 57.6397 106.401 56.1904L106.152 55.2221L105.902 54.2537C99.5239 56.0314 95.8655 62.9936 97.5864 69.672L98.5497 69.4036ZM106.152 55.2221L106.402 56.1902C107.613 55.8517 108.877 55.7641 110.122 55.9333L110.272 54.9373L110.421 53.9413C108.91 53.7362 107.375 53.8421 105.902 54.2539L106.152 55.2221ZM110.272 54.9373L110.122 55.9332C110.88 56.0369 111.654 55.944 112.372 55.6617L112.025 54.726L111.678 53.7904C111.279 53.9474 110.847 53.9996 110.421 53.9414L110.272 54.9373ZM112.025 54.726L112.372 55.6617C113.09 55.3794 113.728 54.9177 114.229 54.3202L113.475 53.6783L112.72 53.0363C112.436 53.3752 112.077 53.6333 111.678 53.7904L112.025 54.726ZM113.475 53.6783L114.229 54.3202C114.73 53.723 115.079 53.0096 115.248 52.2451L114.276 52.0426L113.305 51.8401C113.207 52.2868 113.005 52.6972 112.72 53.0363L113.475 53.6783ZM114.276 52.0426L115.248 52.2451C115.416 51.4807 115.4 50.6871 115.202 49.9341L114.24 50.2071L113.278 50.48C113.395 50.9258 113.404 51.3933 113.305 51.8401L114.276 52.0426ZM114.24 50.2071L115.203 49.9386L110.788 32.8043L109.825 33.0727L108.862 33.3412L113.277 50.4756L114.24 50.2071ZM109.825 33.0727L110.788 32.8043C110.227 30.6267 108.856 28.7636 106.967 27.6294L106.447 28.4954L105.928 29.3615C107.369 30.2264 108.427 31.6564 108.862 33.3412L109.825 33.0727ZM106.447 28.4954L106.967 27.6294C105.076 26.4943 102.821 26.1824 100.698 26.7741L100.947 27.7425L101.197 28.7109C102.787 28.2676 104.489 28.4973 105.928 29.3615L106.447 28.4954ZM100.947 27.7425L100.698 26.7741L84.848 31.1914L85.0976 32.1598L85.3471 33.1282L101.197 28.7109L100.947 27.7425ZM85.0976 32.1598L86.0821 31.9972C85.9863 31.3384 85.8545 30.6858 85.6876 30.0425L84.7248 30.3126L83.7619 30.5827C83.9105 31.1552 84.0277 31.7361 84.113 32.3224L85.0976 32.1598ZM84.7248 30.3126L85.6881 30.0441C84.5049 25.4525 81.6151 21.5314 77.6448 19.1476L77.1256 20.0137L76.6064 20.8797C80.1282 22.9942 82.7053 26.4823 83.7615 30.5811L84.7248 30.3126ZM77.1256 20.0137L77.6448 19.1476C73.6731 16.7631 68.9446 16.1126 64.5003 17.3512L64.7498 18.3196L64.9994 19.288C68.9112 18.1978 73.086 18.7661 76.6064 20.8797L77.1256 20.0137ZM64.7498 18.3196L64.5003 17.3512C60.056 18.5899 56.2739 21.6123 53.981 25.7428L54.847 26.2227L55.7131 26.7027C57.7454 23.0415 61.0876 20.3782 64.9994 19.288L64.7498 18.3196ZM54.847 26.2227L53.981 25.7428C51.6889 29.8719 51.0717 34.7704 52.2548 39.362L53.2181 39.0935L54.1814 38.8251C53.1253 34.7263 53.6799 30.3654 55.7131 26.7027L54.847 26.2227ZM53.2181 39.0935L52.2544 39.3604C52.4192 40.0043 52.6189 40.6379 52.8527 41.2583L53.7835 40.8871L54.7143 40.5159C54.5063 39.9637 54.3285 39.3998 54.1818 38.8267L53.2181 39.0935ZM53.7835 40.8871L53.5339 39.9187L37.6844 44.336L37.9339 45.3044L38.1834 46.2728L54.033 41.8555L53.7835 40.8871ZM37.9339 45.3044L37.6844 44.336C35.5612 44.9277 33.758 46.3708 32.6666 48.3369L33.5326 48.8169L34.3987 49.2969C35.2296 47.8 36.5927 46.7161 38.1834 46.2728L37.9339 45.3044ZM33.5326 48.8169L32.6666 48.3369C31.576 50.3016 31.2843 52.6281 31.8454 54.8057L32.8087 54.5372L33.772 54.2688C33.3378 52.584 33.567 50.7952 34.3987 49.2969L33.5326 48.8169ZM32.8087 54.5372L31.8454 54.8057L35.6237 69.4689L36.587 69.2004L37.5503 68.932L33.772 54.2688L32.8087 54.5372ZM36.587 69.2004L36.4501 68.2076C35.813 68.3079 35.1818 68.4456 34.5596 68.6203L34.8108 69.5881L35.0621 70.556C35.609 70.4026 36.1638 70.2814 36.7239 70.1933L36.587 69.2004ZM34.8108 69.5881L34.5613 68.6198C30.117 69.8584 26.3349 72.8808 24.042 77.0113L24.908 77.4913L25.7741 77.9713C27.8064 74.31 31.1486 71.6467 35.0604 70.5565L34.8108 69.5881ZM24.908 77.4913L24.042 77.0113C21.7499 81.1404 21.1327 86.039 22.3158 90.6305L23.2791 90.3621L24.2424 90.0936C23.1863 85.9949 23.7409 81.6339 25.7741 77.9713L24.908 77.4913ZM23.2791 90.3621L22.3158 90.6305C23.499 95.2221 26.3888 99.1433 30.3591 101.527L30.8783 100.661L31.3975 99.7949C27.8757 97.6805 25.2986 94.1923 24.2424 90.0936L23.2791 90.3621ZM30.8783 100.661L30.3591 101.527C34.3307 103.912 39.0593 104.562 43.5036 103.323L43.2541 102.355L43.0045 101.387C39.0927 102.477 34.9179 101.909 31.3975 99.7949L30.8783 100.661ZM43.2541 102.355L43.5019 103.324C44.1246 103.152 44.7375 102.943 45.3374 102.698L44.9786 101.767L44.6198 100.836C44.0924 101.051 43.5536 101.235 43.0063 101.386L43.2541 102.355ZM44.9786 101.767L44.0153 102.036L47.7937 116.699L48.757 116.43L49.7202 116.162L45.9419 101.499L44.9786 101.767ZM48.757 116.43L47.7937 116.699C48.3548 118.876 49.726 120.739 51.6152 121.874L52.1344 121.008L52.6536 120.142C51.2129 119.277 50.1544 117.847 49.7202 116.162L48.757 116.43ZM52.1344 121.008L51.6152 121.874C53.5057 123.009 55.7611 123.321 57.8842 122.729L57.6347 121.761L57.3852 120.792C55.7945 121.235 54.0928 121.006 52.6536 120.142L52.1344 121.008ZM57.6347 121.761L57.8842 122.729L76.3594 117.58L76.1099 116.611L75.8603 115.643L57.3852 120.792L57.6347 121.761Z" fill="black" mask="url(#path-1-inside-1_54_1388)"/>
<path d="M57.5597 13.5955C61.6045 12.4682 65.9177 13.0571 69.5509 15.2384C73.1847 17.4202 75.8402 21.017 76.9281 25.2389L76.9284 25.2399C77.0814 25.8298 77.2025 26.4282 77.2904 27.0324L77.3705 27.5858L93.7567 23.0189C95.4805 22.5385 97.3209 22.7886 98.873 23.7205C100.426 24.6527 101.562 26.1906 102.028 27.9983L106.444 45.1358C106.564 45.5928 106.587 46.07 106.513 46.5345L106.476 46.7335C106.36 47.2594 106.121 47.7455 105.783 48.149C105.444 48.5525 105.016 48.8613 104.537 49.0497C104.057 49.238 103.541 49.3005 103.032 49.2309L103.031 49.2312C101.587 49.0352 100.12 49.1363 98.7125 49.5295L98.7116 49.5298C92.628 51.2257 89.094 57.8889 90.7535 64.3294C92.4131 70.7701 98.6781 74.7024 104.762 73.0068L104.762 73.0059C106.169 72.6147 107.489 71.9401 108.645 71.0195L108.646 71.0192C109.051 70.6959 109.526 70.4816 110.029 70.3947C110.531 70.3077 111.048 70.3508 111.533 70.5207C112.019 70.6906 112.459 70.9826 112.813 71.373C113.168 71.7636 113.425 72.24 113.562 72.7598L117.976 89.8916C118.442 91.6996 118.198 93.623 117.301 95.2379C116.405 96.8521 114.932 98.0258 113.208 98.5062L50.1954 116.068C48.4716 116.548 46.6312 116.298 45.0791 115.366C43.5263 114.434 42.3896 112.896 41.9237 111.088L38.0054 95.8812L37.4844 96.0933C36.9388 96.3156 36.3812 96.5052 35.815 96.6619L35.8141 96.6622C31.7692 97.7895 27.456 97.2007 23.8229 95.0193C20.1891 92.8376 17.5338 89.2415 16.4459 85.0197C15.358 80.7978 15.9282 76.302 18.0261 72.5227C20.1235 68.7443 23.5757 65.9913 27.6204 64.864L27.6214 64.8637C28.1871 64.7049 28.7613 64.5801 29.3407 64.4889L29.8939 64.4016L25.9754 49.1943C25.5097 47.3865 25.7546 45.4636 26.6508 43.8489C27.5469 42.2347 29.0204 41.061 30.7441 40.5806L47.1304 36.0137L46.9337 35.4928C46.7193 34.9239 46.5365 34.3427 46.3853 33.7523L46.3851 33.7513C45.2972 29.5294 45.8674 25.0336 47.9653 21.2543C50.0628 17.4759 53.5148 14.7228 57.5597 13.5955Z" fill="#FEA9FC" stroke="black"/>
</svg>
