<svg width="123" height="130" viewBox="0 0 123 130" fill="none" xmlns="http://www.w3.org/2000/svg">
<mask id="path-1-inside-1_54_1397" fill="white">
<path d="M12.5628 56.4039L7.91562 37.1079C7.44854 35.1685 7.74138 33.1155 8.72974 31.4007C9.71809 29.6858 11.321 28.4495 13.1858 27.9637L29.7314 23.6538C30.3087 23.5067 30.9119 23.5096 31.4879 23.6621C32.0639 23.8146 32.595 24.1121 33.0343 24.5284C33.4737 24.9447 33.8079 25.4669 34.0075 26.0492C34.2071 26.6314 34.2659 27.2558 34.1788 27.8672C33.9762 29.297 34.0463 30.7542 34.385 32.1558C35.8412 38.2024 41.9046 41.854 47.8945 40.2937C53.8843 38.7334 57.5768 32.5405 56.1205 26.4939C55.784 25.0918 55.1853 23.7723 54.3587 22.6106C54.0029 22.1115 53.7712 21.5286 53.6844 20.9139C53.5975 20.2992 53.6581 19.6717 53.8608 19.0872C54.0635 18.5027 54.402 17.9794 54.8461 17.5638C55.2902 17.1483 55.8262 16.8533 56.4065 16.7053L72.952 12.3953C74.8169 11.9096 76.7909 12.2141 78.4398 13.242C80.0887 14.2699 81.2774 15.9369 81.7445 17.8763L85.7312 34.4302C86.2985 34.2101 86.8773 34.0237 87.4649 33.8717C91.6607 32.7788 96.1022 33.464 99.8122 35.7768C103.522 38.0895 106.197 41.8403 107.248 46.204C108.299 50.5677 107.64 55.1868 105.416 59.0453C103.192 62.9037 99.5858 65.6854 95.3899 66.7783C94.8029 66.9324 94.2079 67.0517 93.6079 67.1357L97.5947 83.6895C98.0617 85.6289 97.7689 87.6819 96.7805 89.3967C95.7922 91.1116 94.1893 92.3479 92.3245 92.8337L78.1651 96.522C78.3767 97.112 78.556 97.7139 78.7021 98.325C79.753 102.689 79.0941 107.308 76.8703 111.166C74.6465 115.025 71.04 117.806 66.8442 118.899C62.6483 119.992 58.2068 119.307 54.4968 116.994C50.7868 114.682 48.1121 110.931 47.0612 106.567C46.913 105.957 46.7983 105.338 46.7176 104.714L32.5582 108.402C30.6934 108.888 28.7194 108.583 27.0705 107.555C25.4216 106.527 24.2329 104.86 23.7658 102.921L19.1186 83.625"/>
</mask>
<path d="M12.5628 56.4039L7.91562 37.1079C7.44854 35.1685 7.74138 33.1155 8.72974 31.4007C9.71809 29.6858 11.321 28.4495 13.1858 27.9637L29.7314 23.6538C30.3087 23.5067 30.9119 23.5096 31.4879 23.6621C32.0639 23.8146 32.595 24.1121 33.0343 24.5284C33.4737 24.9447 33.8079 25.4669 34.0075 26.0492C34.2071 26.6314 34.2659 27.2558 34.1788 27.8672C33.9762 29.297 34.0463 30.7542 34.385 32.1558C35.8412 38.2024 41.9046 41.854 47.8945 40.2937C53.8843 38.7334 57.5768 32.5405 56.1205 26.4939C55.784 25.0918 55.1853 23.7723 54.3587 22.6106C54.0029 22.1115 53.7712 21.5286 53.6844 20.9139C53.5975 20.2992 53.6581 19.6717 53.8608 19.0872C54.0635 18.5027 54.402 17.9794 54.8461 17.5638C55.2902 17.1483 55.8262 16.8533 56.4065 16.7053L72.952 12.3953C74.8169 11.9096 76.7909 12.2141 78.4398 13.242C80.0887 14.2699 81.2774 15.9369 81.7445 17.8763L85.7312 34.4302C86.2985 34.2101 86.8773 34.0237 87.4649 33.8717C91.6607 32.7788 96.1022 33.464 99.8122 35.7768C103.522 38.0895 106.197 41.8403 107.248 46.204C108.299 50.5677 107.64 55.1868 105.416 59.0453C103.192 62.9037 99.5858 65.6854 95.3899 66.7783C94.8029 66.9324 94.2079 67.0517 93.6079 67.1357L97.5947 83.6895C98.0617 85.6289 97.7689 87.6819 96.7805 89.3967C95.7922 91.1116 94.1893 92.3479 92.3245 92.8337L78.1651 96.522C78.3767 97.112 78.556 97.7139 78.7021 98.325C79.753 102.689 79.0941 107.308 76.8703 111.166C74.6465 115.025 71.04 117.806 66.8442 118.899C62.6483 119.992 58.2068 119.307 54.4968 116.994C50.7868 114.682 48.1121 110.931 47.0612 106.567C46.913 105.957 46.7983 105.338 46.7176 104.714L32.5582 108.402C30.6934 108.888 28.7194 108.583 27.0705 107.555C25.4216 106.527 24.2329 104.86 23.7658 102.921L19.1186 83.625" fill="black"/>
<path d="M29.7314 23.6538L29.4972 22.6816L29.5024 22.6803L29.7314 23.6538ZM34.1788 27.8672L33.1932 27.7411L33.1933 27.7403L34.1788 27.8672ZM34.385 32.1558L35.3525 31.903L35.3527 31.9037L34.385 32.1558ZM56.1205 26.4939L55.1528 26.746L55.1527 26.7453L56.1205 26.4939ZM54.3587 22.6106L55.1702 22.0156L55.1707 22.0162L54.3587 22.6106ZM56.4065 16.7053L56.6406 17.6775L56.6358 17.6787L56.4065 16.7053ZM81.7445 17.8763L82.7122 17.6243L81.7445 17.8763ZM85.7312 34.4302L86.0754 35.3669L85.0264 35.7738L84.7635 34.6823L85.7312 34.4302ZM87.4649 33.8717L87.699 34.844L87.6973 34.8444L87.4649 33.8717ZM107.248 46.204L108.216 45.9519L107.248 46.204ZM95.3899 66.7783L95.1541 65.8066L95.1558 65.8061L95.3899 66.7783ZM93.6079 67.1357L92.6402 67.3878L92.3773 66.2962L93.4869 66.1409L93.6079 67.1357ZM97.5947 83.6895L98.5624 83.4374L97.5947 83.6895ZM92.3245 92.8337L92.5586 93.8059L92.3245 92.8337ZM78.1651 96.522L77.2283 96.8773L76.8529 95.8306L77.931 95.5498L78.1651 96.522ZM78.7021 98.325L77.7344 98.577L77.734 98.5754L78.7021 98.325ZM66.8442 118.899L67.0783 119.871L66.8442 118.899ZM47.0612 106.567L48.0285 106.313L48.0289 106.315L47.0612 106.567ZM46.7176 104.714L46.4834 103.742L47.5616 103.461L47.7048 104.568L46.7176 104.714ZM32.5582 108.402L32.7924 109.374L32.5582 108.402ZM12.5628 56.4039L11.5951 56.656L6.94791 37.36L7.91562 37.1079L8.88332 36.8558L13.5305 56.1519L12.5628 56.4039ZM7.91562 37.1079L6.94791 37.36C6.42129 35.1733 6.74959 32.8523 7.87106 30.9065L8.72974 31.4007L9.58841 31.8948C8.73317 33.3787 8.47578 35.1636 8.88332 36.8558L7.91562 37.1079ZM8.72974 31.4007L7.87106 30.9065C8.99335 28.9592 10.8192 27.547 12.9517 26.9915L13.1858 27.9637L13.4199 28.9359C11.8228 29.352 10.4428 30.4124 9.58841 31.8948L8.72974 31.4007ZM13.1858 27.9637L12.9517 26.9915L29.4972 22.6816L29.7314 23.6538L29.9655 24.626L13.4199 28.9359L13.1858 27.9637ZM29.7314 23.6538L29.5024 22.6803C30.2447 22.4912 31.0187 22.4954 31.7553 22.6904L31.4879 23.6621L31.2205 24.6338C30.8051 24.5238 30.3726 24.5223 29.9603 24.6274L29.7314 23.6538ZM31.4879 23.6621L31.7553 22.6904C32.4916 22.8854 33.1665 23.2646 33.7222 23.7911L33.0343 24.5284L32.3465 25.2657C32.0234 24.9597 31.6361 24.7439 31.2205 24.6338L31.4879 23.6621ZM33.0343 24.5284L33.7222 23.7911C34.2778 24.3174 34.6983 24.9757 34.949 25.7072L34.0075 26.0492L33.0659 26.3911C32.9175 25.9582 32.6697 25.5719 32.3465 25.2657L33.0343 24.5284ZM34.0075 26.0492L34.949 25.7072C35.1998 26.4387 35.274 27.2238 35.1642 27.9942L34.1788 27.8672L33.1933 27.7403C33.2578 27.2878 33.2144 26.8242 33.0659 26.3911L34.0075 26.0492ZM34.1788 27.8672L35.1643 27.9934C34.9798 29.2958 35.0435 30.6244 35.3525 31.903L34.385 32.1558L33.4174 32.4086C33.049 30.884 32.9726 29.2982 33.1932 27.7411L34.1788 27.8672ZM34.385 32.1558L35.3527 31.9037C36.6806 37.4175 42.2091 40.7415 47.6603 39.3215L47.8945 40.2937L48.1286 41.2659C41.6002 42.9665 35.0018 38.9872 33.4173 32.4078L34.385 32.1558ZM47.8945 40.2937L47.6603 39.3215C53.1115 37.9015 56.4808 32.2598 55.1528 26.746L56.1205 26.4939L57.0882 26.2418C58.6728 32.8212 54.657 39.5653 48.1286 41.2659L47.8945 40.2937ZM56.1205 26.4939L55.1527 26.7453C54.8456 25.4662 54.2996 24.2632 53.5466 23.205L54.3587 22.6106L55.1707 22.0162C56.071 23.2813 56.7223 24.7174 57.0884 26.2426L56.1205 26.4939ZM54.3587 22.6106L53.5471 23.2057C53.0988 22.5768 52.8078 21.8438 52.6987 21.0715L53.6844 20.9139L54.6701 20.7563C54.7347 21.2135 54.907 21.6462 55.1702 22.0156L54.3587 22.6106ZM53.6844 20.9139L52.6987 21.0715C52.5895 20.2992 52.6653 19.5085 52.9216 18.7694L53.8608 19.0872L54.8 19.405C54.651 19.8348 54.6055 20.2992 54.6701 20.7563L53.6844 20.9139ZM53.8608 19.0872L52.9216 18.7694C53.178 18.0301 53.6076 17.364 54.1754 16.8327L54.8461 17.5638L55.5167 18.295C55.1963 18.5948 54.949 18.9753 54.8 19.405L53.8608 19.0872ZM54.8461 17.5638L54.1754 16.8327C54.7435 16.3011 55.4311 15.9222 56.1771 15.7318L56.4065 16.7053L56.6358 17.6787C56.2214 17.7845 55.837 17.9954 55.5167 18.295L54.8461 17.5638ZM56.4065 16.7053L56.1723 15.7331L72.7179 11.4231L72.952 12.3953L73.1862 13.3675L56.6406 17.6775L56.4065 16.7053ZM72.952 12.3953L72.7179 11.4231C74.8504 10.8677 77.1007 11.2181 78.9731 12.3853L78.4398 13.242L77.9064 14.0988C76.481 13.2102 74.7833 12.9515 73.1862 13.3675L72.952 12.3953ZM78.4398 13.242L78.9731 12.3853C80.8441 13.5516 82.1856 15.4377 82.7122 17.6243L81.7445 17.8763L80.7768 18.1284C80.3692 16.4362 79.3333 14.9882 77.9064 14.0988L78.4398 13.242ZM81.7445 17.8763L82.7122 17.6243L86.699 34.1781L85.7312 34.4302L84.7635 34.6823L80.7768 18.1284L81.7445 17.8763ZM85.7312 34.4302L85.3871 33.4935C85.9909 33.2593 86.607 33.0608 87.2325 32.8991L87.4649 33.8717L87.6973 34.8444C87.1476 34.9865 86.6061 35.161 86.0754 35.3669L85.7312 34.4302ZM87.4649 33.8717L87.2307 32.8995C91.6942 31.7369 96.4121 32.468 100.346 34.92L99.8122 35.7768L99.2789 36.6335C95.7923 34.4601 91.6272 33.8207 87.699 34.844L87.4649 33.8717ZM99.8122 35.7768L100.346 34.92C104.278 37.3712 107.105 41.341 108.216 45.9519L107.248 46.204L106.28 46.4561C105.289 42.3396 102.767 38.8079 99.2789 36.6335L99.8122 35.7768ZM107.248 46.204L108.216 45.9519C109.326 50.5628 108.632 55.45 106.275 59.5394L105.416 59.0453L104.557 58.5511C106.648 54.9236 107.272 50.5726 106.28 46.4561L107.248 46.204ZM105.416 59.0453L106.275 59.5394C103.917 63.6302 100.088 66.5878 95.6241 67.7505L95.3899 66.7783L95.1558 65.8061C99.084 64.7829 102.468 62.1771 104.557 58.5511L105.416 59.0453ZM95.3899 66.7783L95.6258 67.7501C95.0009 67.9141 94.3676 68.041 93.7289 68.1305L93.6079 67.1357L93.4869 66.1409C94.0482 66.0623 94.6049 65.9507 95.1541 65.8066L95.3899 66.7783ZM93.6079 67.1357L94.5756 66.8836L98.5624 83.4374L97.5947 83.6895L96.6269 83.9416L92.6402 67.3878L93.6079 67.1357ZM97.5947 83.6895L98.5624 83.4374C99.089 85.6241 98.7607 87.9451 97.6392 89.8909L96.7805 89.3967L95.9219 88.9026C96.7771 87.4187 97.0345 85.6338 96.6269 83.9416L97.5947 83.6895ZM96.7805 89.3967L97.6392 89.8909C96.5169 91.8382 94.6911 93.2504 92.5586 93.8059L92.3245 92.8337L92.0903 91.8615C93.6875 91.4454 95.0674 90.385 95.9219 88.9026L96.7805 89.3967ZM92.3245 92.8337L92.5586 93.8059L78.3993 97.4942L78.1651 96.522L77.931 95.5498L92.0903 91.8615L92.3245 92.8337ZM78.1651 96.522L79.102 96.1667C79.3259 96.791 79.5156 97.428 79.6702 98.0745L78.7021 98.325L77.734 98.5754C77.5964 97.9999 77.4276 97.4329 77.2283 96.8773L78.1651 96.522ZM78.7021 98.325L79.6698 98.0729C80.7803 102.684 80.0859 107.571 77.729 111.66L76.8703 111.166L76.0117 110.672C78.1023 107.045 78.7258 102.694 77.7344 98.577L78.7021 98.325ZM76.8703 111.166L77.729 111.66C75.3713 115.751 71.5418 118.709 67.0783 119.871L66.8442 118.899L66.61 117.927C70.5382 116.904 73.9218 114.298 76.0117 110.672L76.8703 111.166ZM66.8442 118.899L67.0783 119.871C62.6148 121.034 57.897 120.303 53.9635 117.851L54.4968 116.994L55.0301 116.137C58.5167 118.311 62.6818 118.95 66.61 117.927L66.8442 118.899ZM54.4968 116.994L53.9635 117.851C50.0314 115.4 47.2039 111.43 46.0935 106.819L47.0612 106.567L48.0289 106.315C49.0203 110.431 51.5422 113.963 55.0301 116.137L54.4968 116.994ZM47.0612 106.567L46.0938 106.821C45.9371 106.175 45.8157 105.52 45.7303 104.86L46.7176 104.714L47.7048 104.568C47.7809 105.155 47.889 105.738 48.0285 106.313L47.0612 106.567ZM46.7176 104.714L46.9517 105.686L32.7924 109.374L32.5582 108.402L32.3241 107.43L46.4834 103.742L46.7176 104.714ZM32.5582 108.402L32.7924 109.374C30.6599 109.93 28.4096 109.579 26.5372 108.412L27.0705 107.555L27.6038 106.699C29.0293 107.587 30.7269 107.846 32.3241 107.43L32.5582 108.402ZM27.0705 107.555L26.5372 108.412C24.6662 107.246 23.3247 105.36 22.7981 103.173L23.7658 102.921L24.7335 102.669C25.141 104.361 26.177 105.809 27.6038 106.699L27.0705 107.555ZM23.7658 102.921L22.7981 103.173L18.1509 83.8771L19.1186 83.625L20.0863 83.3729L24.7335 102.669L23.7658 102.921Z" fill="black" mask="url(#path-1-inside-1_54_1397)"/>
<path d="M102.194 42.1505C101.173 37.9104 98.5742 34.2687 94.9752 32.0251C91.377 29.7823 87.0738 29.1202 83.012 30.1783L83.011 30.1785C82.4425 30.3255 81.8822 30.5055 81.3333 30.7185L80.8088 30.9217L76.6907 13.8227C76.2534 12.0069 75.1414 10.4488 73.6035 9.49015C72.0664 8.53194 70.2305 8.25099 68.4996 8.70183L51.9512 13.0125C51.454 13.1394 50.9934 13.3924 50.6113 13.75C50.2292 14.1076 49.9361 14.5595 49.7603 15.0664C49.5845 15.5734 49.5319 16.1192 49.6076 16.6549C49.6738 17.1238 49.8363 17.5715 50.0832 17.9668L50.1947 18.1335L50.5069 18.596C51.2098 19.6925 51.7273 20.907 52.0347 22.1876L52.035 22.1885C53.5549 28.5012 49.7008 34.9697 43.442 36.6002C37.1829 38.2306 30.8518 34.4145 29.3314 28.1015L29.3324 28.1012C29.0231 26.8212 28.9272 25.4968 29.0501 24.1853L29.1159 23.6243C29.1916 23.0925 29.1413 22.548 28.9674 22.0405C28.7935 21.533 28.5017 21.0786 28.1205 20.7174C27.7393 20.3563 27.2798 20.0991 26.784 19.9678C26.3504 19.853 25.8999 19.8373 25.4627 19.9195L25.2759 19.9611L8.73322 24.2702C7.00228 24.7211 5.51054 25.869 4.58915 27.4676C3.66736 29.0669 3.39279 30.9862 3.8301 32.802L19.6801 98.6146C20.1174 100.43 21.2295 101.988 22.7673 102.947C24.3045 103.905 26.1405 104.187 27.8715 103.736L42.5695 99.9078L42.6415 100.461C42.7199 101.067 42.8316 101.667 42.9753 102.26L42.9756 102.261C43.9967 106.501 46.5946 110.142 50.1935 112.386C53.7917 114.629 58.095 115.291 62.1569 114.233C66.219 113.175 69.7146 110.481 71.8714 106.739C74.0284 102.996 74.6694 98.5109 73.6483 94.271L73.6481 94.2701C73.5063 93.6769 73.3325 93.0926 73.1271 92.52L72.9389 91.9969L87.6379 88.168C89.3688 87.7171 90.8603 86.5683 91.7817 84.9697C92.7034 83.3704 92.9781 81.4511 92.5408 79.6353L88.4227 62.5363L88.9774 62.4584C89.558 62.3771 90.1338 62.2612 90.7018 62.1121L90.7027 62.1119C94.7646 61.0538 98.2596 58.3605 100.416 54.6184C102.574 50.8756 103.215 46.3905 102.194 42.1505Z" fill="#7362EF" stroke="black"/>
</svg>
