<svg width="126" height="126" viewBox="0 0 126 126" fill="none" xmlns="http://www.w3.org/2000/svg">
<mask id="path-1-inside-1_54_1394" fill="white">
<path d="M55.3261 118.11L36.7722 122.943C34.9074 123.429 32.9334 123.124 31.2845 122.096C29.6356 121.068 28.4468 119.401 27.9798 117.462L23.8356 100.254C23.6942 99.654 23.6969 99.0266 23.8436 98.4276C23.9902 97.8286 24.2763 97.2763 24.6766 96.8193C25.0768 96.3623 25.579 96.0148 26.1388 95.8072C26.6987 95.5997 27.299 95.5385 27.887 95.6291C29.2617 95.8397 30.6629 95.7669 32.0106 95.4146C37.8246 93.9002 41.3358 87.5942 39.8355 81.3648C38.3352 75.1354 32.3805 71.2952 26.5665 72.8096C25.2183 73.1597 23.9495 73.7823 22.8325 74.642C22.3526 75.012 21.7922 75.2529 21.2011 75.3432C20.61 75.4336 20.0066 75.3705 19.4446 75.1598C18.8826 74.949 18.3795 74.597 17.9799 74.1351C17.5803 73.6732 17.2967 73.1157 17.1543 72.5123L13.0102 55.3049C12.5431 53.3655 12.8359 51.3125 13.8243 49.5977C14.8126 47.8828 16.4155 46.6465 18.2804 46.1607L34.1975 42.0145C33.9859 41.4246 33.8066 40.8226 33.6605 40.2116C32.6096 35.8479 33.2685 31.2287 35.4923 27.3703C37.7161 23.5119 41.3226 20.7302 45.5185 19.6372C49.7143 18.5443 54.1558 19.2295 57.8658 21.5423C61.5759 23.855 64.2506 27.6058 65.3015 31.9695C65.4496 32.58 65.5643 33.1988 65.6451 33.8228L81.5622 29.6766C83.4271 29.1908 85.4011 29.4954 87.05 30.5233C88.6989 31.5511 89.8876 33.2182 90.3547 35.1576L93.9012 49.8833C94.4684 49.6632 95.0472 49.4767 95.6348 49.3248C99.8306 48.2319 104.272 48.9171 107.982 51.2299C111.692 53.5426 114.367 57.2934 115.418 61.6571C116.469 66.0208 115.81 70.6399 113.586 74.4983C111.362 78.3568 107.756 81.1384 103.56 82.2314C102.973 82.3854 102.378 82.5048 101.778 82.5888L105.324 97.3145C105.791 99.2539 105.499 101.307 104.51 103.022C103.522 104.737 101.919 105.973 100.054 106.459L81.5002 111.292"/>
</mask>
<path d="M55.3261 118.11L36.7722 122.943C34.9074 123.429 32.9334 123.124 31.2845 122.096C29.6356 121.068 28.4468 119.401 27.9798 117.462L23.8356 100.254C23.6942 99.654 23.6969 99.0266 23.8436 98.4276C23.9902 97.8286 24.2763 97.2763 24.6766 96.8193C25.0768 96.3623 25.579 96.0148 26.1388 95.8072C26.6987 95.5997 27.299 95.5385 27.887 95.6291C29.2617 95.8397 30.6629 95.7669 32.0106 95.4146C37.8246 93.9002 41.3358 87.5942 39.8355 81.3648C38.3352 75.1354 32.3805 71.2952 26.5665 72.8096C25.2183 73.1597 23.9495 73.7823 22.8325 74.642C22.3526 75.012 21.7922 75.2529 21.2011 75.3432C20.61 75.4336 20.0066 75.3705 19.4446 75.1598C18.8826 74.949 18.3795 74.597 17.9799 74.1351C17.5803 73.6732 17.2967 73.1157 17.1543 72.5123L13.0102 55.3049C12.5431 53.3655 12.8359 51.3125 13.8243 49.5977C14.8126 47.8828 16.4155 46.6465 18.2804 46.1607L34.1975 42.0145C33.9859 41.4246 33.8066 40.8226 33.6605 40.2116C32.6096 35.8479 33.2685 31.2287 35.4923 27.3703C37.7161 23.5119 41.3226 20.7302 45.5185 19.6372C49.7143 18.5443 54.1558 19.2295 57.8658 21.5423C61.5759 23.855 64.2506 27.6058 65.3015 31.9695C65.4496 32.58 65.5643 33.1988 65.6451 33.8228L81.5622 29.6766C83.4271 29.1908 85.4011 29.4954 87.05 30.5233C88.6989 31.5511 89.8876 33.2182 90.3547 35.1576L93.9012 49.8833C94.4684 49.6632 95.0472 49.4767 95.6348 49.3248C99.8306 48.2319 104.272 48.9171 107.982 51.2299C111.692 53.5426 114.367 57.2934 115.418 61.6571C116.469 66.0208 115.81 70.6399 113.586 74.4983C111.362 78.3568 107.756 81.1384 103.56 82.2314C102.973 82.3854 102.378 82.5048 101.778 82.5888L105.324 97.3145C105.791 99.2539 105.499 101.307 104.51 103.022C103.522 104.737 101.919 105.973 100.054 106.459L81.5002 111.292" fill="black"/>
<path d="M23.8356 100.254L22.8679 100.506L22.8667 100.502L23.8356 100.254ZM27.887 95.6291L27.7218 96.6221L27.721 96.622L27.887 95.6291ZM32.0106 95.4146L31.7756 94.4426L31.7764 94.4424L32.0106 95.4146ZM26.5665 72.8096L26.8006 73.7819L26.7998 73.7821L26.5665 72.8096ZM22.8325 74.642L22.2361 73.8477L22.2368 73.8472L22.8325 74.642ZM17.1543 72.5123L18.122 72.2602L18.1231 72.2647L17.1543 72.5123ZM18.2804 46.1607L18.0462 45.1885L18.2804 46.1607ZM34.1975 42.0145L35.1344 41.6592L35.5098 42.7059L34.4316 42.9867L34.1975 42.0145ZM33.6605 40.2116L34.6283 39.9595L34.6286 39.9611L33.6605 40.2116ZM45.5185 19.6372L45.2843 18.665L45.5185 19.6372ZM65.3015 31.9695L64.3342 32.2232L64.3338 32.2215L65.3015 31.9695ZM65.6451 33.8228L65.8792 34.795L64.8011 35.0758L64.6578 33.9688L65.6451 33.8228ZM81.5622 29.6766L81.3281 28.7044L81.5622 29.6766ZM90.3547 35.1576L91.3224 34.9055L90.3547 35.1576ZM93.9012 49.8833L94.2453 50.8199L93.1963 51.2269L92.9335 50.1353L93.9012 49.8833ZM95.6348 49.3248L95.8689 50.297L95.8672 50.2975L95.6348 49.3248ZM115.418 61.6571L116.386 61.405L115.418 61.6571ZM103.56 82.2314L103.324 81.2597L103.326 81.2592L103.56 82.2314ZM101.778 82.5888L100.81 82.8408L100.547 81.7493L101.657 81.594L101.778 82.5888ZM105.324 97.3145L106.292 97.0624L105.324 97.3145ZM55.3261 118.11L55.5603 119.082L37.0064 123.915L36.7722 122.943L36.5381 121.971L55.092 117.138L55.3261 118.11ZM36.7722 122.943L37.0064 123.915C34.8739 124.47 32.6235 124.12 30.7512 122.953L31.2845 122.096L31.8178 121.239C33.2433 122.128 34.9409 122.387 36.5381 121.971L36.7722 122.943ZM31.2845 122.096L30.7512 122.953C28.8802 121.787 27.5387 119.9 27.0121 117.714L27.9798 117.462L28.9475 117.21C29.355 118.902 30.391 120.35 31.8178 121.239L31.2845 122.096ZM27.9798 117.462L27.0121 117.714L22.8679 100.506L23.8356 100.254L24.8033 100.002L28.9475 117.21L27.9798 117.462ZM23.8356 100.254L22.8667 100.502C22.6891 99.7474 22.6921 98.9579 22.8772 98.2019L23.8436 98.4276L24.81 98.6534C24.7018 99.0954 24.6993 99.5606 24.8045 100.007L23.8356 100.254ZM23.8436 98.4276L22.8772 98.2019C23.0623 97.4456 23.4245 96.7442 23.9352 96.1612L24.6766 96.8193L25.4179 97.4774C25.1281 97.8083 24.9181 98.2116 24.81 98.6534L23.8436 98.4276ZM24.6766 96.8193L23.9352 96.1612C24.446 95.578 25.0892 95.132 25.8089 94.8652L26.1388 95.8072L26.4688 96.7493C26.0688 96.8976 25.7076 97.1467 25.4179 97.4774L24.6766 96.8193ZM26.1388 95.8072L25.8089 94.8652C26.5286 94.5984 27.2996 94.5201 28.053 94.6362L27.887 95.6291L27.721 96.622C27.2984 96.5569 26.8688 96.601 26.4688 96.7493L26.1388 95.8072ZM27.887 95.6291L28.0522 94.6361C29.2947 94.8264 30.5597 94.7604 31.7756 94.4426L32.0106 95.4146L32.2455 96.3866C30.7661 96.7733 29.2288 96.853 27.7218 96.6221L27.887 95.6291ZM32.0106 95.4146L31.7764 94.4424C36.998 93.0823 40.2532 87.3695 38.8678 81.6169L39.8355 81.3648L40.8032 81.1127C42.4183 87.8189 38.6511 94.718 32.2447 96.3868L32.0106 95.4146ZM39.8355 81.3648L38.8678 81.6169C37.4824 75.8643 32.0222 72.4217 26.8006 73.7819L26.5665 72.8096L26.3323 71.8374C32.7388 70.1686 39.1881 74.4065 40.8032 81.1127L39.8355 81.3648ZM26.5665 72.8096L26.7998 73.7821C25.5834 74.0979 24.4378 74.6598 23.4283 75.4368L22.8325 74.642L22.2368 73.8472C23.4612 72.9048 24.8531 72.2215 26.3331 71.8372L26.5665 72.8096ZM22.8325 74.642L23.4289 75.4363C22.814 75.9104 22.0944 76.2201 21.3345 76.3362L21.2011 75.3432L21.0677 74.3503C21.49 74.2857 21.8912 74.1136 22.2361 73.8477L22.8325 74.642ZM21.2011 75.3432L21.3345 76.3362C20.5747 76.4523 19.8016 76.3709 19.0844 76.1019L19.4446 75.1598L19.8049 74.2177C20.2117 74.3702 20.6453 74.4148 21.0677 74.3503L21.2011 75.3432ZM19.4446 75.1598L19.0844 76.1019C18.3674 75.833 17.7295 75.3855 17.2251 74.8024L17.9799 74.1351L18.7346 73.4677C19.0294 73.8085 19.3979 74.065 19.8049 74.2177L19.4446 75.1598ZM17.9799 74.1351L17.2251 74.8024C16.7208 74.2195 16.3644 73.5178 16.1855 72.7599L17.1543 72.5123L18.1231 72.2647C18.229 72.7136 18.4397 73.1269 18.7346 73.4677L17.9799 74.1351ZM17.1543 72.5123L16.1866 72.7644L12.0425 55.557L13.0102 55.3049L13.9779 55.0528L18.122 72.2602L17.1543 72.5123ZM13.0102 55.3049L12.0425 55.557C11.5158 53.3704 11.8441 51.0493 12.9656 49.1035L13.8243 49.5977L14.683 50.0918C13.8277 51.5757 13.5703 53.3606 13.9779 55.0528L13.0102 55.3049ZM13.8243 49.5977L12.9656 49.1035C14.0879 47.1562 15.9137 45.744 18.0462 45.1885L18.2804 46.1607L18.5145 47.1329C16.9173 47.549 15.5374 48.6094 14.683 50.0918L13.8243 49.5977ZM18.2804 46.1607L18.0462 45.1885L33.9634 41.0423L34.1975 42.0145L34.4316 42.9867L18.5145 47.1329L18.2804 46.1607ZM34.1975 42.0145L33.2606 42.3698C33.0367 41.7455 32.847 41.1086 32.6924 40.462L33.6605 40.2116L34.6286 39.9611C34.7662 40.5367 34.9351 41.1036 35.1344 41.6592L34.1975 42.0145ZM33.6605 40.2116L32.6928 40.4636C31.5824 35.8527 32.2767 30.9655 34.6336 26.8761L35.4923 27.3703L36.351 27.8645C34.2603 31.4919 33.6369 35.843 34.6283 39.9595L33.6605 40.2116ZM35.4923 27.3703L34.6336 26.8761C36.9914 22.7853 40.8208 19.8277 45.2843 18.665L45.5185 19.6372L45.7526 20.6094C41.8244 21.6327 38.4408 24.2384 36.351 27.8645L35.4923 27.3703ZM45.5185 19.6372L45.2843 18.665C49.7478 17.5023 54.4657 18.2335 58.3992 20.6855L57.8658 21.5423L57.3325 22.399C53.8459 20.2256 49.6808 19.5862 45.7526 20.6094L45.5185 19.6372ZM57.8658 21.5423L58.3992 20.6855C62.3313 23.1367 65.1587 27.1065 66.2692 31.7174L65.3015 31.9695L64.3338 32.2215C63.3424 28.1051 60.8205 24.5733 57.3325 22.399L57.8658 21.5423ZM65.3015 31.9695L66.2688 31.7158C66.4255 32.3618 66.5469 33.0165 66.6324 33.6768L65.6451 33.8228L64.6578 33.9688C64.5817 33.381 64.4737 32.7982 64.3342 32.2232L65.3015 31.9695ZM65.6451 33.8228L65.4109 32.8506L81.3281 28.7044L81.5622 29.6766L81.7964 30.6488L65.8792 34.795L65.6451 33.8228ZM81.5622 29.6766L81.3281 28.7044C83.4606 28.1489 85.7109 28.4993 87.5833 29.6665L87.05 30.5233L86.5166 31.38C85.0912 30.4914 83.3935 30.2327 81.7964 30.6488L81.5622 29.6766ZM87.05 30.5233L87.5833 29.6665C89.4543 30.8328 90.7958 32.7189 91.3224 34.9055L90.3547 35.1576L89.387 35.4096C88.9794 33.7174 87.9435 32.2695 86.5166 31.38L87.05 30.5233ZM90.3547 35.1576L91.3224 34.9055L94.8689 49.6312L93.9012 49.8833L92.9335 50.1353L89.387 35.4096L90.3547 35.1576ZM93.9012 49.8833L93.5571 48.9466C94.1608 48.7124 94.7769 48.5139 95.4024 48.3522L95.6348 49.3248L95.8672 50.2975C95.3175 50.4396 94.776 50.614 94.2453 50.8199L93.9012 49.8833ZM95.6348 49.3248L95.4006 48.3526C99.8642 47.1899 104.582 47.9211 108.515 50.3731L107.982 51.2299L107.449 52.0866C103.962 49.9132 99.7971 49.2738 95.8689 50.297L95.6348 49.3248ZM107.982 51.2299L108.515 50.3731C112.448 52.8243 115.275 56.7941 116.386 61.405L115.418 61.6571L114.45 61.9091C113.459 57.7927 110.937 54.2609 107.449 52.0866L107.982 51.2299ZM115.418 61.6571L116.386 61.405C117.496 66.0159 116.802 70.9031 114.445 74.9925L113.586 74.4983L112.727 74.0042C114.818 70.3767 115.441 66.0256 114.45 61.9091L115.418 61.6571ZM113.586 74.4983L114.445 74.9925C112.087 79.0833 108.258 82.0409 103.794 83.2036L103.56 82.2314L103.326 81.2592C107.254 80.236 110.637 77.6302 112.727 74.0042L113.586 74.4983ZM103.56 82.2314L103.796 83.2032C103.171 83.3671 102.538 83.4941 101.899 83.5835L101.778 82.5888L101.657 81.594C102.218 81.5154 102.775 81.4038 103.324 81.2597L103.56 82.2314ZM101.778 82.5888L102.746 82.3367L106.292 97.0624L105.324 97.3145L104.357 97.5665L100.81 82.8408L101.778 82.5888ZM105.324 97.3145L106.292 97.0624C106.819 99.249 106.49 101.57 105.369 103.516L104.51 103.022L103.652 102.528C104.507 101.044 104.764 99.2587 104.357 97.5665L105.324 97.3145ZM104.51 103.022L105.369 103.516C104.247 105.463 102.421 106.875 100.288 107.431L100.054 106.459L99.82 105.486C101.417 105.07 102.797 104.01 103.652 102.528L104.51 103.022ZM100.054 106.459L100.288 107.431L81.7343 112.264L81.5002 111.292L81.2661 110.319L99.82 105.486L100.054 106.459Z" fill="black" mask="url(#path-1-inside-1_54_1394)"/>
<path d="M40.6543 16.1234C36.5924 17.1815 33.0976 19.8757 30.9408 23.6178C28.7837 27.3607 28.1428 31.8455 29.1639 36.0855L29.1642 36.0864C29.306 36.6796 29.4797 37.2639 29.6851 37.8365L29.8724 38.3598L13.4166 42.6464C11.6857 43.0973 10.1942 44.246 9.27277 45.8446C8.35097 47.444 8.07546 49.3635 8.51277 51.1793L12.6573 68.3884C12.7815 68.9146 13.029 69.4 13.3763 69.8014C13.7234 70.2027 14.1591 70.5074 14.6436 70.6891C15.128 70.8708 15.6471 70.9241 16.1538 70.8466C16.5969 70.7789 17.0201 70.6122 17.3952 70.3588L17.5536 70.2449C18.5779 69.4565 19.7245 68.8575 20.9425 68.4742L21.4685 68.3231C27.5786 66.7316 33.7803 70.771 35.3381 77.2387C36.8714 83.6054 33.3694 90.1031 27.4314 91.8228L27.1469 91.9009C25.7334 92.2703 24.2641 92.3469 22.8233 92.1261L22.8231 92.1252C22.318 92.0473 21.803 92.1 21.3232 92.2777C20.8435 92.4556 20.4114 92.7543 20.0665 93.1479C19.7215 93.5419 19.4728 94.0201 19.3454 94.5405C19.2339 94.996 19.2189 95.4713 19.2993 95.9338L19.3388 96.1313L23.4823 113.336C23.9196 115.152 25.0325 116.709 26.5704 117.668C28.1075 118.626 29.9435 118.907 31.6744 118.456L94.9562 101.972C96.6871 101.521 98.1789 100.373 99.1003 98.7748C100.022 97.1755 100.297 95.2562 99.8593 93.4404L96.1814 78.169L96.7361 78.0911C97.3167 78.0099 97.8927 77.8949 98.4607 77.7458L98.4617 77.7456C102.524 76.6875 106.018 73.9933 108.175 70.2512C110.332 66.5082 110.974 62.0233 109.953 57.7832C108.932 53.5432 106.333 49.9024 102.734 47.6588C99.1359 45.4157 94.8327 44.7529 90.7707 45.811L90.7697 45.8113C90.2012 45.9583 89.6409 46.1383 89.092 46.3512L88.5677 46.5554L84.8898 31.284C84.4525 29.4682 83.3404 27.9102 81.8026 26.9515C80.2655 25.9933 78.4294 25.7114 76.6984 26.1622L60.2417 30.449L60.1707 29.8954C60.0923 29.2897 59.9807 28.6892 59.8369 28.0966L59.8367 28.0956C58.8156 23.8557 56.2175 20.2145 52.6188 17.971C49.0205 15.7279 44.7163 15.0653 40.6543 16.1234Z" fill="#FFEB79" stroke="black"/>
</svg>
