<svg width="125" height="126" viewBox="0 0 125 126" fill="none" xmlns="http://www.w3.org/2000/svg">
<mask id="path-1-inside-1_54_1391" fill="white">
<path d="M53.3574 12.13L34.8035 7.29697C32.9386 6.81121 30.9647 7.11577 29.3158 8.14366C27.6668 9.17154 26.4781 10.8386 26.011 12.778L21.8669 29.9854C21.7254 30.5858 21.7282 31.2131 21.8748 31.8121C22.0215 32.4112 22.3075 32.9635 22.7078 33.4204C23.1081 33.8774 23.6102 34.225 24.1701 34.4325C24.73 34.6401 25.3303 34.7013 25.9182 34.6107C27.293 34.4 28.6941 34.4729 30.0418 34.8251C35.8558 36.3396 39.367 42.6456 37.8667 48.875C36.3665 55.1044 30.4117 58.9446 24.5977 57.4301C23.2495 57.0801 21.9808 56.4575 20.8638 55.5977C20.3839 55.2277 19.8234 54.9868 19.2323 54.8965C18.6413 54.8062 18.0379 54.8692 17.4759 55.08C16.9139 55.2908 16.4107 55.6428 16.0111 56.1047C15.6115 56.5666 15.3279 57.124 15.1856 57.7275L11.0414 74.9349C10.5743 76.8743 10.8672 78.9272 11.8555 80.6421C12.8439 82.3569 14.4468 83.5932 16.3116 84.079L32.2288 88.2252C32.0172 88.8152 31.8379 89.4171 31.6918 90.0282C30.6409 94.3919 31.2998 99.011 33.5236 102.869C35.7474 106.728 39.3539 109.51 43.5497 110.603C47.7456 111.695 52.1871 111.01 55.8971 108.697C59.6071 106.385 62.2818 102.634 63.3327 98.2703C63.4809 97.6598 63.5956 97.041 63.6763 96.4169L79.5935 100.563C81.4583 101.049 83.4323 100.744 85.0812 99.7165C86.7301 98.6886 87.9189 97.0216 88.3859 95.0822L91.9324 80.3565C92.4997 80.5765 93.0785 80.763 93.666 80.9149C97.8619 82.0079 102.303 81.3226 106.013 79.0099C109.723 76.6971 112.398 72.9464 113.449 68.5827C114.5 64.219 113.841 59.5998 111.617 55.7414C109.393 51.883 105.787 49.1013 101.591 48.0083C101.004 47.8543 100.409 47.735 99.8091 47.651L103.356 32.9253C103.823 30.9859 103.53 28.9329 102.541 27.2181C101.553 25.5032 99.9502 24.2669 98.0854 23.7811L79.5315 18.9481"/>
</mask>
<path d="M53.3574 12.13L34.8035 7.29697C32.9386 6.81121 30.9647 7.11577 29.3158 8.14366C27.6668 9.17154 26.4781 10.8386 26.011 12.778L21.8669 29.9854C21.7254 30.5858 21.7282 31.2131 21.8748 31.8121C22.0215 32.4112 22.3075 32.9635 22.7078 33.4204C23.1081 33.8774 23.6102 34.225 24.1701 34.4325C24.73 34.6401 25.3303 34.7013 25.9182 34.6107C27.293 34.4 28.6941 34.4729 30.0418 34.8251C35.8558 36.3396 39.367 42.6456 37.8667 48.875C36.3665 55.1044 30.4117 58.9446 24.5977 57.4301C23.2495 57.0801 21.9808 56.4575 20.8638 55.5977C20.3839 55.2277 19.8234 54.9868 19.2323 54.8965C18.6413 54.8062 18.0379 54.8692 17.4759 55.08C16.9139 55.2908 16.4107 55.6428 16.0111 56.1047C15.6115 56.5666 15.3279 57.124 15.1856 57.7275L11.0414 74.9349C10.5743 76.8743 10.8672 78.9272 11.8555 80.6421C12.8439 82.3569 14.4468 83.5932 16.3116 84.079L32.2288 88.2252C32.0172 88.8152 31.8379 89.4171 31.6918 90.0282C30.6409 94.3919 31.2998 99.011 33.5236 102.869C35.7474 106.728 39.3539 109.51 43.5497 110.603C47.7456 111.695 52.1871 111.01 55.8971 108.697C59.6071 106.385 62.2818 102.634 63.3327 98.2703C63.4809 97.6598 63.5956 97.041 63.6763 96.4169L79.5935 100.563C81.4583 101.049 83.4323 100.744 85.0812 99.7165C86.7301 98.6886 87.9189 97.0216 88.3859 95.0822L91.9324 80.3565C92.4997 80.5765 93.0785 80.763 93.666 80.9149C97.8619 82.0079 102.303 81.3226 106.013 79.0099C109.723 76.6971 112.398 72.9464 113.449 68.5827C114.5 64.219 113.841 59.5998 111.617 55.7414C109.393 51.883 105.787 49.1013 101.591 48.0083C101.004 47.8543 100.409 47.735 99.8091 47.651L103.356 32.9253C103.823 30.9859 103.53 28.9329 102.541 27.2181C101.553 25.5032 99.9502 24.2669 98.0854 23.7811L79.5315 18.9481" fill="black"/>
<path d="M21.8669 29.9854L20.8991 29.7333L20.898 29.7382L21.8669 29.9854ZM25.9182 34.6107L25.7531 33.6176L25.7523 33.6178L25.9182 34.6107ZM30.0418 34.8251L29.8069 35.7971L29.8077 35.7973L30.0418 34.8251ZM24.5977 57.4301L24.8319 56.4579L24.8311 56.4577L24.5977 57.4301ZM20.8638 55.5977L20.2674 56.392L20.2681 56.3926L20.8638 55.5977ZM15.1856 57.7275L16.1533 57.9795L16.1544 57.975L15.1856 57.7275ZM16.3116 84.079L16.0775 85.0512L16.3116 84.079ZM32.2288 88.2252L33.1656 88.5805L33.541 87.5339L32.4629 87.253L32.2288 88.2252ZM31.6918 90.0282L32.6595 90.2803L32.6599 90.2786L31.6918 90.0282ZM43.5497 110.603L43.3156 111.575L43.5497 110.603ZM63.3327 98.2703L62.3654 98.0166L62.365 98.0182L63.3327 98.2703ZM63.6763 96.4169L63.9105 95.4447L62.8323 95.1639L62.689 96.271L63.6763 96.4169ZM79.5935 100.563L79.3594 101.535L79.5935 100.563ZM88.3859 95.0822L89.3537 95.3343L88.3859 95.0822ZM91.9324 80.3565L92.2765 79.4198L91.2276 79.0129L90.9647 80.1044L91.9324 80.3565ZM93.666 80.9149L93.9002 79.9427L93.8984 79.9423L93.666 80.9149ZM113.449 68.5827L114.417 68.8348L113.449 68.5827ZM101.591 48.0083L101.355 48.9801L101.357 48.9805L101.591 48.0083ZM99.8091 47.651L98.8414 47.3989L98.5785 48.4904L99.688 48.6458L99.8091 47.651ZM103.356 32.9253L104.323 33.1774L103.356 32.9253ZM53.3574 12.13L53.5915 11.1578L35.0376 6.32477L34.8035 7.29697L34.5693 8.26918L53.1232 13.1022L53.3574 12.13ZM34.8035 7.29697L35.0376 6.32477C32.9051 5.76928 30.6548 6.11971 28.7824 7.28689L29.3158 8.14366L29.8491 9.00042C31.2745 8.11183 32.9722 7.85313 34.5693 8.26918L34.8035 7.29697ZM29.3158 8.14366L28.7824 7.28689C26.9114 8.45322 25.5699 10.3393 25.0433 12.5259L26.011 12.778L26.9787 13.03C27.3863 11.3378 28.4222 9.88987 29.8491 9.00042L29.3158 8.14366ZM26.011 12.778L25.0433 12.5259L20.8992 29.7333L21.8669 29.9854L22.8346 30.2374L26.9787 13.03L26.011 12.778ZM21.8669 29.9854L20.898 29.7382C20.7204 30.4923 20.7234 31.2818 20.9085 32.0379L21.8748 31.8121L22.8412 31.5864C22.733 31.1444 22.7305 30.6792 22.8357 30.2326L21.8669 29.9854ZM21.8748 31.8121L20.9085 32.0379C21.0936 32.7941 21.4557 33.4955 21.9664 34.0785L22.7078 33.4204L23.4492 32.7623C23.1593 32.4314 22.9494 32.0282 22.8412 31.5864L21.8748 31.8121ZM22.7078 33.4204L21.9664 34.0785C22.4773 34.6618 23.1205 35.1078 23.8401 35.3746L24.1701 34.4325L24.5001 33.4905C24.1 33.3422 23.7388 33.093 23.4492 32.7623L22.7078 33.4204ZM24.1701 34.4325L23.8401 35.3746C24.5599 35.6414 25.3309 35.7196 26.0842 35.6036L25.9182 34.6107L25.7523 33.6178C25.3297 33.6829 24.9 33.6388 24.5001 33.4905L24.1701 34.4325ZM25.9182 34.6107L26.0834 35.6037C27.3259 35.4133 28.5909 35.4793 29.8069 35.7971L30.0418 34.8251L30.2767 33.8531C28.7973 33.4665 27.2601 33.3867 25.7531 33.6176L25.9182 34.6107ZM30.0418 34.8251L29.8077 35.7973C35.0293 37.1575 38.2845 42.8703 36.899 48.6229L37.8667 48.875L38.8345 49.127C40.4495 42.4208 36.6824 35.5217 30.276 33.8529L30.0418 34.8251ZM37.8667 48.875L36.899 48.6229C35.5136 54.3755 30.0535 57.8181 24.8319 56.4579L24.5977 57.4301L24.3636 58.4023C30.77 60.0711 37.2194 55.8332 38.8345 49.127L37.8667 48.875ZM24.5977 57.4301L24.8311 56.4577C23.6146 56.1419 22.4691 55.5799 21.4595 54.8029L20.8638 55.5977L20.2681 56.3926C21.4925 57.335 22.8844 58.0183 24.3644 58.4025L24.5977 57.4301ZM20.8638 55.5977L21.4602 54.8034C20.8453 54.3293 20.1256 54.0197 19.3658 53.9035L19.2323 54.8965L19.0989 55.8895C19.5212 55.954 19.9225 56.1261 20.2674 56.392L20.8638 55.5977ZM19.2323 54.8965L19.3658 53.9035C18.606 53.7874 17.8328 53.8689 17.1156 54.1379L17.4759 55.08L17.8362 56.0221C18.2429 55.8695 18.6766 55.8249 19.0989 55.8895L19.2323 54.8965ZM17.4759 55.08L17.1156 54.1379C16.3986 54.4068 15.7607 54.8543 15.2564 55.4373L16.0111 56.1047L16.7659 56.772C17.0607 56.4312 17.4291 56.1747 17.8362 56.0221L17.4759 55.08ZM16.0111 56.1047L15.2564 55.4373C14.7521 56.0202 14.3956 56.7219 14.2168 57.4799L15.1856 57.7275L16.1544 57.975C16.2603 57.5261 16.471 57.1129 16.7659 56.772L16.0111 56.1047ZM15.1856 57.7275L14.2179 57.4754L10.0737 74.6828L11.0414 74.9349L12.0091 75.1869L16.1533 57.9795L15.1856 57.7275ZM11.0414 74.9349L10.0737 74.6828C9.54709 76.8694 9.87539 79.1904 10.9969 81.1362L11.8555 80.6421L12.7142 80.1479C11.859 78.664 11.6016 76.8791 12.0091 75.1869L11.0414 74.9349ZM11.8555 80.6421L10.9969 81.1362C12.1191 83.0835 13.945 84.4957 16.0775 85.0512L16.3116 84.079L16.5457 83.1068C14.9486 82.6908 13.5686 81.6304 12.7142 80.1479L11.8555 80.6421ZM16.3116 84.079L16.0775 85.0512L31.9946 89.1974L32.2288 88.2252L32.4629 87.253L16.5457 83.1068L16.3116 84.079ZM32.2288 88.2252L31.2919 87.87C31.068 88.4942 30.8783 89.1312 30.7237 89.7777L31.6918 90.0282L32.6599 90.2786C32.7975 89.7031 32.9663 89.1361 33.1656 88.5805L32.2288 88.2252ZM31.6918 90.0282L30.7241 89.7761C29.6136 94.387 30.308 99.2742 32.6649 103.364L33.5236 102.869L34.3822 102.375C32.2916 98.7478 31.6681 94.3967 32.6595 90.2803L31.6918 90.0282ZM33.5236 102.869L32.6649 103.364C35.0226 107.454 38.8521 110.412 43.3156 111.575L43.5497 110.603L43.7839 109.63C39.8557 108.607 36.4721 106.001 34.3822 102.375L33.5236 102.869ZM43.5497 110.603L43.3156 111.575C47.7791 112.737 52.4969 112.006 56.4304 109.554L55.8971 108.697L55.3638 107.841C51.8772 110.014 47.712 110.654 43.7839 109.63L43.5497 110.603ZM55.8971 108.697L56.4304 109.554C60.3625 107.103 63.19 103.133 64.3004 98.5224L63.3327 98.2703L62.365 98.0182C61.3736 102.135 58.8517 105.666 55.3638 107.841L55.8971 108.697ZM63.3327 98.2703L64.3001 98.524C64.4568 97.878 64.5782 97.2232 64.6636 96.5629L63.6763 96.4169L62.689 96.271C62.613 96.8587 62.5049 97.4415 62.3654 98.0166L63.3327 98.2703ZM63.6763 96.4169L63.4422 97.3892L79.3594 101.535L79.5935 100.563L79.8276 99.591L63.9105 95.4447L63.6763 96.4169ZM79.5935 100.563L79.3594 101.535C81.4918 102.091 83.7422 101.74 85.6145 100.573L85.0812 99.7165L84.5479 98.8597C83.1224 99.7483 81.4248 100.007 79.8276 99.591L79.5935 100.563ZM85.0812 99.7165L85.6145 100.573C87.4855 99.4069 88.827 97.5209 89.3537 95.3343L88.3859 95.0822L87.4182 94.8301C87.0107 96.5223 85.9747 97.9703 84.5479 98.8597L85.0812 99.7165ZM88.3859 95.0822L89.3537 95.3343L92.9001 80.6086L91.9324 80.3565L90.9647 80.1044L87.4182 94.8301L88.3859 95.0822ZM91.9324 80.3565L91.5883 81.2932C92.1921 81.5274 92.8082 81.7259 93.4336 81.8876L93.666 80.9149L93.8984 79.9423C93.3488 79.8001 92.8073 79.6257 92.2765 79.4198L91.9324 80.3565ZM93.666 80.9149L93.4319 81.8871C97.8954 83.0498 102.613 82.3187 106.547 79.8666L106.013 79.0099L105.48 78.1531C101.993 80.3266 97.8284 80.966 93.9002 79.9427L93.666 80.9149ZM106.013 79.0099L106.547 79.8666C110.479 77.4155 113.306 73.4456 114.417 68.8348L113.449 68.5827L112.481 68.3306C111.49 72.4471 108.968 75.9788 105.48 78.1531L106.013 79.0099ZM113.449 68.5827L114.417 68.8348C115.527 64.2239 114.833 59.3367 112.476 55.2472L111.617 55.7414L110.759 56.2356C112.849 59.8631 113.473 64.2141 112.481 68.3306L113.449 68.5827ZM111.617 55.7414L112.476 55.2472C110.118 51.1564 106.289 48.1988 101.825 47.0361L101.591 48.0083L101.357 48.9805C105.285 50.0038 108.669 52.6095 110.759 56.2356L111.617 55.7414ZM101.591 48.0083L101.827 47.0366C101.202 46.8726 100.569 46.7456 99.9301 46.6562L99.8091 47.651L99.688 48.6458C100.249 48.7244 100.806 48.836 101.355 48.9801L101.591 48.0083ZM99.8091 47.651L100.777 47.9031L104.323 33.1774L103.356 32.9253L102.388 32.6732L98.8414 47.3989L99.8091 47.651ZM103.356 32.9253L104.323 33.1774C104.85 30.9908 104.522 28.6697 103.4 26.7239L102.541 27.2181L101.683 27.7122C102.538 29.1961 102.795 30.981 102.388 32.6732L103.356 32.9253ZM102.541 27.2181L103.4 26.7239C102.278 24.7767 100.452 23.3644 98.3195 22.8089L98.0854 23.7811L97.8512 24.7534C99.4484 25.1694 100.828 26.2298 101.683 27.7122L102.541 27.2181ZM98.0854 23.7811L98.3195 22.8089L79.7656 17.9759L79.5315 18.9481L79.2973 19.9203L97.8512 24.7534L98.0854 23.7811Z" fill="black" mask="url(#path-1-inside-1_54_1391)"/>
<path d="M40.897 105.364C36.8351 104.306 33.3402 101.612 31.1835 97.87C29.0264 94.1271 28.3855 89.6423 29.4066 85.4023L29.4068 85.4013C29.5486 84.8082 29.7224 84.2239 29.9277 83.6513L30.115 83.128L13.6593 78.8414C11.9283 78.3905 10.4368 77.2418 9.51544 75.6432C8.59365 74.0438 8.31813 72.1243 8.75545 70.3085L12.9 53.0993C13.0242 52.5732 13.2717 52.0878 13.6189 51.6864C13.9661 51.2851 14.4018 50.9804 14.8863 50.7987C15.3707 50.617 15.8898 50.5637 16.3965 50.6412C16.8396 50.7089 17.2628 50.8756 17.6379 51.129L17.7962 51.2429C18.8206 52.0313 19.9672 52.6303 21.1852 53.0136L21.7112 53.1647C27.8213 54.7562 34.023 50.7168 35.5807 44.2491C37.1141 37.8823 33.6121 31.3847 27.674 29.665L27.3896 29.5869C25.9761 29.2175 24.5068 29.1409 23.066 29.3617L23.0658 29.3626C22.5607 29.4405 22.0457 29.3878 21.5659 29.2101C21.0861 29.0322 20.6541 28.7335 20.3092 28.3399C19.9642 27.9459 19.7154 27.4677 19.588 26.9473C19.4765 26.4918 19.4615 26.0165 19.542 25.554L19.5815 25.3564L23.7249 8.15207C24.1622 6.33625 25.2752 4.77845 26.8131 3.81978C28.3502 2.86169 30.1862 2.58058 31.917 3.03146L95.1989 19.5156C96.9298 19.9666 98.4216 21.1144 99.3429 22.7129C100.265 24.3123 100.539 26.2316 100.102 28.0474L96.4241 43.3187L96.9788 43.3966C97.5594 43.4779 98.1354 43.5929 98.7034 43.742L98.7044 43.7422C102.766 44.8003 106.261 47.4945 108.418 51.2366C110.575 54.9796 111.217 59.4645 110.196 63.7046C109.175 67.9446 106.576 71.5854 102.977 73.829C99.3785 76.0721 95.0754 76.7349 91.0134 75.6768L91.0124 75.6765C90.4439 75.5295 89.8836 75.3495 89.3347 75.1366L88.8104 74.9324L85.1325 90.2038C84.6952 92.0195 83.5831 93.5776 82.0453 94.5363C80.5082 95.4945 78.6721 95.7764 76.9411 95.3256L60.4844 91.0388L60.4134 91.5924C60.335 92.1981 60.2233 92.7986 60.0796 93.3912L60.0793 93.3922C59.0582 97.6321 56.4602 101.273 52.8614 103.517C49.2631 105.76 44.959 106.423 40.897 105.364Z" fill="#C9B6FE" stroke="black"/>
</svg>
