<svg width="50" height="50" viewBox="0 0 50 50" fill="none" xmlns="http://www.w3.org/2000/svg">
<g clip-path="url(#clip0_54_1149)">
<path d="M37.6469 43.1533L33.7871 37.2164C33.6657 37.0305 33.4855 36.8905 33.2753 36.8189C33.0651 36.7473 32.8369 36.7481 32.6273 36.8213C30.5783 37.532 28.3741 37.6699 26.2525 37.2201C24.1309 36.7703 22.1723 35.7498 20.5881 34.2687C20.4255 34.1178 20.2175 34.0252 19.9966 34.0054C19.7757 33.9856 19.5545 34.0396 19.3677 34.1592L13.4308 38.0189C13.2456 38.1358 13.1039 38.3102 13.0273 38.5154C12.9508 38.7206 12.9436 38.9453 13.0069 39.1549C13.05 39.2946 13.1235 39.423 13.2221 39.531C16.1714 42.8052 20.0819 45.0611 24.3927 45.9751C28.7035 46.8891 33.193 46.4142 37.2172 44.6185C37.3506 44.5597 37.4696 44.4726 37.5661 44.3633C37.6625 44.254 37.7342 44.1251 37.776 43.9855C37.8162 43.8457 37.8255 43.6989 37.8032 43.5551C37.7809 43.4114 37.7276 43.2743 37.6469 43.1533ZM44.0193 13.1147L38.0845 16.9731C37.8982 17.0951 37.6761 17.1506 37.4543 17.1306C37.2325 17.1107 37.024 17.0165 36.8624 16.8632C34.6517 14.7983 31.7384 13.6513 28.7133 13.6549C25.6882 13.6585 22.7776 14.8124 20.5718 16.8826C18.8966 18.4587 17.7128 20.4857 17.1633 22.7192C16.6118 24.9523 16.718 27.2973 17.4692 29.4714C17.5419 29.6807 17.5427 29.9083 17.4715 30.1181C17.4003 30.328 17.2612 30.5081 17.0761 30.6299L11.1396 34.488C11.0203 34.5674 10.8851 34.6199 10.7434 34.6418C10.6017 34.6636 10.457 34.6543 10.3193 34.6144C10.1816 34.5746 10.0543 34.5052 9.94614 34.411C9.83803 34.3169 9.75175 34.2003 9.69334 34.0694C7.5192 29.2028 7.29201 23.6883 9.05847 18.6594C10.8249 13.6305 14.4508 9.46935 19.1907 7.03143C23.2838 4.9235 27.9598 4.2304 32.4884 5.0604C37.017 5.89039 41.1432 8.19674 44.2227 11.6193C44.3188 11.7259 44.3904 11.8522 44.4325 11.9894C44.4746 12.1266 44.4862 12.2714 44.4664 12.4136C44.4472 12.5559 44.3972 12.6923 44.32 12.8133C44.2428 12.9344 44.1402 13.0372 44.0193 13.1147ZM27.4973 31.395C28.2625 31.5573 29.0521 31.5672 29.8211 31.4243C30.5901 31.2813 31.3234 30.9883 31.9792 30.562C32.635 30.1357 33.2003 29.5844 33.643 28.9395C34.0857 28.2947 34.3971 27.569 34.5593 26.8038C34.7216 26.0386 34.7315 25.249 34.5886 24.48C34.4456 23.711 34.1526 22.9777 33.7263 22.3219C33.3 21.6662 32.7486 21.1008 32.1038 20.6581C31.459 20.2154 30.7332 19.904 29.9681 19.7418C28.4228 19.4142 26.8106 19.7138 25.4862 20.5748C24.1618 21.4359 23.2337 22.7877 22.9061 24.333C22.5784 25.8784 22.8781 27.4905 23.7391 28.8149C24.6001 30.1393 25.952 31.0674 27.4973 31.395Z" fill="white"/>
</g>
<defs>
<clipPath id="clip0_54_1149">
<rect width="41.7121" height="41.7121" fill="white" transform="translate(8.65186) rotate(11.9708)"/>
</clipPath>
</defs>
</svg>
