<svg width="49" height="46" viewBox="0 0 49 46" fill="none" xmlns="http://www.w3.org/2000/svg">
<path d="M26.9669 0.612361L20.082 4.85485L23.5324 40.6728C20.7509 40.5829 18.205 40.1222 15.8947 39.2909C13.5843 38.4595 11.729 37.3458 10.3286 35.9495C8.92831 34.5533 8.14273 32.9686 7.97192 31.1955C7.8125 29.5405 8.22898 27.9195 9.22139 26.3326C10.2138 24.7456 11.666 23.3431 13.578 22.1249C15.49 20.9067 17.6793 19.9601 20.1459 19.285L19.7075 14.7338C15.8872 15.5393 12.4944 16.8206 9.5292 18.5777C6.56403 20.3348 4.30798 22.3617 2.76107 24.6583C1.17813 26.9981 0.506236 29.4092 0.745375 31.8916C0.992105 34.4529 2.19914 36.7625 4.36647 38.8206C6.44658 40.8075 9.20826 42.3609 12.6515 43.4808C16.0948 44.6007 19.8641 45.1424 23.9594 45.1058L30.8614 41.0406L26.9669 0.612361ZM29.5022 13.7903L29.9406 18.3414C32.8131 18.542 35.3832 19.1494 37.6509 20.1638L33.9795 22.7247L48.2452 24.3928L46.2449 14.2653L42.7413 16.6907C38.9093 14.8726 34.4963 13.9058 29.5022 13.7903Z" fill="white"/>
</svg>
