<svg width="41" height="46" viewBox="0 0 41 46" fill="none" xmlns="http://www.w3.org/2000/svg">
<path fill-rule="evenodd" clip-rule="evenodd" d="M3.62565 16.5782L3.6246 16.5823L2.52713 16.4842C1.84109 16.4228 1.3728 15.7646 1.543 15.0976L4.41161 3.85486C4.80048 2.33078 6.07399 1.1911 7.63009 0.975216C10.7769 0.539169 16.3411 0.0546156 21.8669 1.01612C22.5749 1.13999 22.75 1.99415 22.5128 2.51888L21.2382 5.86539C18.2286 12.7307 11.0991 17.2272 3.62565 16.5782ZM24.6968 6.7464L24.6937 6.74125L25.1769 3.19281C25.2313 2.63161 25.7885 1.95412 26.4679 2.18426C31.7802 3.98812 36.4362 7.08041 38.9853 8.96977C40.2467 9.90891 40.8195 11.5153 40.4306 13.0394L37.562 24.2821C37.3918 24.9491 36.6644 25.3066 36.0338 25.0278L35.0235 24.588C28.1528 21.577 24.0478 14.2198 24.6968 6.7464ZM34.2169 27.7322C34.9394 27.8335 36.6534 27.6434 36.2943 28.8853C32.7381 38.5491 20.7978 43.9495 15.5168 45.84C14.9157 46.0506 14.409 45.4685 14.567 44.8493C17.7136 32.5172 23.9259 27.165 34.2169 27.7322ZM2.82482 19.7282C12.1296 24.1609 15.0167 31.8349 11.8705 44.1656C11.7125 44.7848 10.9899 45.0547 10.5632 44.5818C6.83218 40.392 -1.05971 29.9313 0.448884 19.7451C0.728714 18.4829 2.14212 19.471 2.82482 19.7282Z" fill="white"/>
</svg>
