<svg width="104" height="80" viewBox="0 0 104 80" fill="none" xmlns="http://www.w3.org/2000/svg">
  <path fill-rule="evenodd" clip-rule="evenodd" d="M63.2213 2.96782C63.923 1.17033 65.6507 0 67.5803 0H91.2482C97.573 0 102.083 6.13447 100.196 12.1713L92.647 36.3297C92.0354 38.2866 90.2231 39.619 88.1728 39.619H59.4286C55.3259 39.619 53.2381 43.3333 52 47.0476C51.0085 50.0222 43.6645 68.8778 40.7787 76.2703C40.077 78.0678 38.3493 79.2381 36.4197 79.2381H12.7518C6.42704 79.2381 1.91702 73.1036 3.80354 67.0668L11.353 42.9084C11.9646 40.9515 13.7769 39.619 15.8272 39.619H44.5714C48.6741 39.619 50.7619 35.9048 52 32.1905C52.9915 29.2159 60.3355 10.3603 63.2213 2.96782Z" fill="white"/>
  <path d="M66.1948 45.8095C63.6143 45.8095 61.3045 47.4102 60.3984 49.8264L50.9524 75.0158C50.1863 77.0588 51.6965 79.2381 53.8784 79.2381H80.3256C85.5361 79.2381 90.2002 76.0059 92.0297 71.1271L97.5654 56.3652C99.4807 51.2577 95.7051 45.8095 90.2504 45.8095H66.1948Z" fill="white"/>
  <path d="M24.9125 0C19.7019 0 15.0379 3.23216 13.2084 8.11095L7.67265 22.8729C5.75736 27.9803 9.53298 33.4286 14.9877 33.4286H39.0433C41.6238 33.4286 43.9336 31.8279 44.8396 29.4117L54.2857 4.22226C55.0518 2.17929 53.5416 0 51.3597 0H24.9125Z" fill="white"/>
</svg>
