<svg width="30" height="30" viewBox="0 0 30 30" fill="none" xmlns="http://www.w3.org/2000/svg">
<circle cx="3.33252" cy="13.6829" r="3" fill="#FF00BD"/>
<circle cx="26.3325" cy="18.6829" r="3" fill="#FF00BD"/>
<path d="M25.8325 24.3575C26.1087 24.3575 26.3325 24.5814 26.3325 24.8575V29.1615C26.3325 29.4459 26.0999 29.6733 25.8157 29.6622C22.8697 29.5465 8.17948 29.0069 3.94312 29.5763C3.62393 29.6192 3.33252 29.3748 3.33252 29.0528V25.0664C3.33252 24.9522 3.37154 24.8416 3.44312 24.7527L16.2739 8.82201C16.5374 8.4949 16.3045 8.00838 15.8845 8.00838H4.46788C4.19174 8.00838 3.96788 7.78452 3.96788 7.50838V3.24148C3.96788 2.9435 4.22557 2.70964 4.52247 2.73484C6.45176 2.89859 13.4014 3.35655 25.1638 2.71271C25.4506 2.697 25.6972 2.92488 25.6972 3.21219V7.28383C25.6972 7.40743 25.6525 7.52538 25.57 7.61736C24.8012 8.47361 20.7294 13.024 18.3325 16C16.3166 18.503 13.7689 22.0236 12.6593 23.5732C12.4232 23.9029 12.6606 24.3575 13.0661 24.3575H25.8325Z" fill="white"/>
</svg>
