<svg width="62" height="74" viewBox="0 0 62 74" fill="none" xmlns="http://www.w3.org/2000/svg">
<path d="M42.5708 9.00073H59.0923L61.4425 11.3509V63.0539L59.0923 65.404H36.578L37.7178 63.6414H58.3638L59.6799 62.3254V12.0794L58.3638 10.7633H44.1219L42.4416 19.4471H40.6437L42.2536 10.6811L42.5826 9.00073H42.5708ZM2.68901 65.404L0.338867 63.0539V11.3509L2.68901 9.00073H26.0729L24.8978 10.7633H3.41755L2.10147 12.0794V62.3254L3.41755 63.6414H20.4325L20.1505 65.404H2.68901ZM6.21421 59.5287H16.2023L15.8498 61.2913H5.03914L4.45161 60.7038V50.1281L6.21421 53.6534V59.5287ZM46.1666 59.5287L47.9292 61.2913H39.1161L40.2912 59.5287H46.1666Z" fill="black"/>
<path d="M26.9771 44.2527H10.9139L8.96331 40.5865L35.9899 0.634155L40.2436 2.39676L34.9088 30.1519H50.8663L52.8404 33.7829L26.9889 73.7352L22.6881 72.0901L26.9771 44.2527ZM6.80118 17.2261C6.33371 17.2261 5.88538 17.0404 5.55483 16.7099C5.22428 16.3793 5.03857 15.931 5.03857 15.4635C5.03857 14.9961 5.22428 14.5477 5.55483 14.2172C5.88538 13.8866 6.33371 13.7009 6.80118 13.7009C7.26865 13.7009 7.71697 13.8866 8.04753 14.2172C8.37808 14.5477 8.56378 14.9961 8.56378 15.4635C8.56378 15.931 8.37808 16.3793 8.04753 16.7099C7.71697 17.0404 7.26865 17.2261 6.80118 17.2261ZM11.5015 17.2261C11.034 17.2261 10.5857 17.0404 10.2551 16.7099C9.92455 16.3793 9.73885 15.931 9.73885 15.4635C9.73885 14.9961 9.92455 14.5477 10.2551 14.2172C10.5857 13.8866 11.034 13.7009 11.5015 13.7009C11.9689 13.7009 12.4173 13.8866 12.7478 14.2172C13.0784 14.5477 13.2641 14.9961 13.2641 15.4635C13.2641 15.931 13.0784 16.3793 12.7478 16.7099C12.4173 17.0404 11.9689 17.2261 11.5015 17.2261ZM16.2017 17.2261C15.7343 17.2261 15.2859 17.0404 14.9554 16.7099C14.6248 16.3793 14.4391 15.931 14.4391 15.4635C14.4391 14.9961 14.6248 14.5477 14.9554 14.2172C15.2859 13.8866 15.7343 13.7009 16.2017 13.7009C16.6692 13.7009 17.1175 13.8866 17.4481 14.2172C17.7786 14.5477 17.9643 14.9961 17.9643 15.4635C17.9643 15.931 17.7786 16.3793 17.4481 16.7099C17.1175 17.0404 16.6692 17.2261 16.2017 17.2261Z" fill="black"/>
</svg>
