<svg width="201" height="53" viewBox="0 0 201 53" fill="none" xmlns="http://www.w3.org/2000/svg">
<path fill-rule="evenodd" clip-rule="evenodd" d="M73.2 16.958L73.3684 19.8769C75.2894 17.6193 77.8108 16.4908 80.932 16.4908C86.3411 16.4908 89.0944 19.5027 89.1903 25.5261V42.2157H83.3581V25.8527C83.3581 24.25 83.0025 23.0641 82.29 22.2925C81.5781 21.5224 80.4136 21.1374 78.7964 21.1374C76.4433 21.1374 74.6895 22.1729 73.5395 24.2418V42.2157H67.7051V16.958H73.2028H73.2ZM106.574 42.6834C102.878 42.6834 99.8791 41.5516 97.5835 39.2875C95.2862 37.0234 94.1378 34.0077 94.1378 30.242V29.5417C94.1378 27.0213 94.6373 24.768 95.6379 22.784C96.6375 20.8 98.0434 19.2556 99.8518 18.1493C101.66 17.0456 103.677 16.4935 105.903 16.4935C109.439 16.4935 112.173 17.5901 114.101 19.7839C116.031 21.9794 116.994 25.0827 116.994 29.0983V31.3862H100.019C100.197 33.4713 100.912 35.1206 102.168 36.3345C103.425 37.548 105.006 38.1552 106.91 38.1552C109.583 38.1552 111.76 37.1056 113.441 35.0038L116.585 37.9227C115.545 39.4314 114.157 40.6026 112.421 41.4348C110.683 42.2676 108.736 42.6834 106.575 42.6834H106.574ZM105.879 21.0455C104.276 21.0455 102.986 21.59 102.001 22.6791C101.016 23.7681 100.389 25.286 100.116 27.2311H111.232V26.8104C111.104 24.9113 110.584 23.4772 109.672 22.5039C108.759 21.5316 107.495 21.0455 105.879 21.0455ZM128.83 10.8205V16.9596H133.416V21.1612H128.83V35.2601C128.83 36.2242 129.027 36.9202 129.419 37.349C129.81 37.7767 130.511 37.9903 131.52 37.9903C132.207 37.9887 132.891 37.9103 133.559 37.7567V42.1454C132.232 42.5039 130.952 42.6818 129.719 42.6818C125.238 42.6818 122.997 40.2782 122.997 35.4699V21.1596H118.72V16.958H122.994V10.8189H128.827L128.83 10.8205ZM144.077 42.2173H138.242V6.36263H144.077V42.2173ZM156.633 42.2173H150.798V16.9596H156.633V42.2173ZM150.438 10.3993C150.438 9.52977 150.722 8.80572 151.29 8.22983C151.859 7.65447 152.671 7.36625 153.726 7.36625C154.783 7.36625 155.599 7.65447 156.177 8.22983C156.752 8.80572 157.039 9.52978 157.039 10.4009C157.039 11.2558 156.752 11.968 156.177 12.5363C155.599 13.1046 154.783 13.3885 153.726 13.3885C152.671 13.3885 151.859 13.1046 151.29 12.5363C150.722 11.9691 150.438 11.2558 150.438 10.4009V10.3993ZM165.036 42.2173V21.1596H161.074V16.958H165.036V14.6474C165.036 11.8458 165.836 9.68388 167.436 8.1579C169.038 6.63354 171.277 5.87109 174.158 5.87109C175.183 5.87109 176.271 6.0106 177.424 6.2907L177.28 10.7259C176.544 10.5934 175.796 10.5312 175.048 10.5404C172.261 10.5404 170.869 11.9318 170.869 14.7177V16.958H176.151V21.1596H170.869V42.2157H165.036V42.2173ZM189.5 34.0942L194.782 16.9596H201L190.677 46.0458C189.092 50.2939 186.403 52.4185 182.61 52.4185C181.761 52.4185 180.825 52.2779 179.801 51.9978V47.6085L180.905 47.6788C182.377 47.6788 183.486 47.4187 184.231 46.8969C184.974 46.3762 185.563 45.5012 185.996 44.2716L186.835 42.1005L177.712 16.9596H184.002L189.5 34.0942Z" fill="black"/>
<path d="M38.3347 18.5705L38.3151 18.5622C38.3038 18.5583 38.2931 18.5539 38.2836 18.5446C38.2515 18.511 38.2369 18.4642 38.2448 18.4191L39.3121 12.0299L44.3182 16.9316L39.1119 19.1C39.0973 19.1061 39.0821 19.1089 39.0664 19.1083H39.0456C39.0388 19.1045 39.0321 19.099 39.018 19.0852C38.8246 18.8743 38.5929 18.6998 38.3347 18.5705ZM45.5959 18.1807L50.949 23.421C52.0602 24.5104 52.6169 25.0543 52.8199 25.6841C52.8503 25.7772 52.8751 25.8707 52.8947 25.9665L40.1022 20.6629C40.0955 20.6602 40.0882 20.6574 40.0814 20.6552C40.0303 20.6349 39.9712 20.6117 39.9712 20.5605C39.9712 20.5088 40.0319 20.4846 40.0831 20.4642L40.0994 20.4576L45.5959 18.1807ZM52.6765 27.6483C52.4004 28.157 51.8617 28.6838 50.9501 29.5779L44.9149 35.4842L37.1094 33.8927L37.0683 33.885C36.9991 33.874 36.926 33.8619 36.926 33.8013C36.8659 33.1644 36.538 32.5798 36.0212 32.1884C35.9897 32.157 35.9976 32.1085 36.0077 32.0639C36.0077 32.0573 36.0077 32.0502 36.01 32.0447L37.4783 23.2222L37.4839 23.1925C37.4918 23.1248 37.5047 23.0466 37.5666 23.0466C38.202 22.969 38.7796 22.6448 39.1687 22.1477C39.1811 22.1339 39.1895 22.119 39.2058 22.1108C39.2503 22.091 39.3026 22.1108 39.3481 22.13L52.6749 27.6483H52.6765ZM43.527 36.8429L33.6031 46.5577L35.302 36.3375L35.3048 36.3238C35.3059 36.31 35.3087 36.2968 35.3126 36.2847C35.3267 36.2522 35.3627 36.2384 35.397 36.2252L35.4139 36.2181C35.7856 36.0628 36.1146 35.8234 36.3732 35.5195C36.4064 35.4815 36.4464 35.4451 36.4975 35.438C36.511 35.4363 36.5245 35.4363 36.538 35.438L43.5259 36.844L43.527 36.8429ZM31.5027 48.6138L30.3841 49.7093L18.0168 32.2126C18.0123 32.206 18.0078 32.1999 18.0033 32.1939C17.9836 32.168 17.9628 32.1421 17.9673 32.1124C17.9673 32.0909 17.9825 32.0722 17.9977 32.0557L18.0112 32.0381C18.0488 31.9841 18.0803 31.9302 18.1146 31.8718L18.1428 31.8245L18.1467 31.8206C18.1658 31.7881 18.1838 31.7568 18.217 31.7391C18.2462 31.7259 18.2862 31.7314 18.3177 31.738L32.0189 34.5043C32.0572 34.5098 32.0937 34.5253 32.1241 34.5489C32.1421 34.566 32.146 34.5853 32.1505 34.6067C32.344 35.324 32.8698 35.912 33.5699 36.1955C33.6087 36.2142 33.5918 36.256 33.5738 36.3006C33.5654 36.3205 33.5581 36.3408 33.5536 36.3617C33.3809 37.389 31.9003 46.2279 31.5027 48.6138ZM29.1661 50.9001C28.3411 51.6994 27.8552 52.1222 27.3058 52.2929C26.7637 52.4602 26.1822 52.4602 25.6401 52.2929C24.9968 52.0925 24.44 51.5491 23.3283 50.4597L10.9086 38.3017L14.1528 33.3763C14.168 33.3521 14.1832 33.3307 14.2079 33.313C14.2423 33.2888 14.2923 33.2993 14.3339 33.313C15.0779 33.5327 15.8776 33.4931 16.5957 33.2007C16.6328 33.1875 16.6705 33.1776 16.6992 33.2035C16.7138 33.2167 16.7267 33.231 16.738 33.247L29.1661 50.9017V50.9001ZM9.71134 37.1297L6.86244 34.3403L12.4888 31.9907C12.5029 31.9847 12.5186 31.9814 12.5344 31.9814C12.5811 31.9814 12.6086 32.0276 12.6333 32.0694C12.6901 32.1542 12.7503 32.2374 12.8133 32.3183L12.8313 32.3397C12.8476 32.3629 12.8364 32.3854 12.82 32.4075L9.71247 37.1297H9.71134ZM5.60164 33.106L1.99693 29.5779C1.38396 28.9772 0.939138 28.5424 0.629841 28.1675L11.5896 30.3926C11.6031 30.3954 11.6172 30.3976 11.6312 30.3998C11.6987 30.4102 11.7735 30.4229 11.7735 30.4845C11.7735 30.5523 11.692 30.5836 11.6228 30.609L11.5907 30.6227L5.60164 33.106ZM0 26.3535C0.0123719 26.1262 0.0539866 25.901 0.124281 25.6841C0.328417 25.0543 0.884027 24.5104 1.99693 23.421L6.60938 18.9057C8.7334 21.923 10.863 24.9365 12.9983 27.9461C13.0354 27.9946 13.077 28.0485 13.0343 28.0893C12.8324 28.3067 12.6311 28.5445 12.4888 28.8027C12.4731 28.8363 12.4495 28.8649 12.4197 28.887C12.4017 28.8974 12.3825 28.8936 12.3617 28.8897H12.3589L0 26.3519V26.3535ZM7.84432 17.6968L14.0437 11.6253C14.628 11.8757 16.7504 12.7527 18.6466 13.5372C20.0829 14.1317 21.3921 14.6729 21.8037 14.8485C21.8453 14.8645 21.8824 14.881 21.9004 14.9217C21.9111 14.9459 21.9061 14.9768 21.9004 15.0026C21.7008 15.8917 21.973 16.8221 22.6225 17.4739C22.6641 17.5146 22.6225 17.5724 22.5865 17.6225L22.5674 17.6511L16.2701 27.1997C16.2532 27.2266 16.2381 27.2498 16.2105 27.2674C16.1773 27.2877 16.1301 27.2778 16.0918 27.2685C15.8467 27.2057 15.5947 27.1721 15.3417 27.1683C15.1156 27.1683 14.8693 27.209 14.6207 27.2536H14.6196C14.592 27.258 14.5673 27.263 14.5448 27.247C14.5206 27.2272 14.4998 27.2041 14.4829 27.1782L7.84263 17.6968H7.84432ZM15.2989 10.3993L23.3283 2.53915C24.44 1.4508 24.9968 0.905792 25.6401 0.707059C26.1822 0.539704 26.7637 0.539704 27.3058 0.707059C27.9491 0.905792 28.5059 1.4508 29.6177 2.53915L31.3576 4.24241L25.6469 12.9002C25.6328 12.9256 25.6137 12.9476 25.5906 12.9652C25.5557 12.9883 25.5074 12.979 25.4663 12.9652C24.5531 12.6938 23.5594 12.8815 22.8143 13.4656C22.7771 13.503 22.722 13.4816 22.6748 13.4612C21.9291 13.1436 16.129 10.7439 15.2989 10.3993ZM32.57 5.42986L37.8427 10.5914L36.5723 18.2947V18.315C36.5712 18.3321 36.5673 18.3497 36.5611 18.3662C36.5476 18.3932 36.52 18.3987 36.4925 18.407C36.2203 18.4873 35.9644 18.6123 35.7355 18.7758C35.7254 18.7824 35.7164 18.7901 35.708 18.7989C35.6928 18.8149 35.6776 18.8298 35.6523 18.8325C35.6321 18.8331 35.6124 18.8297 35.5933 18.8231L27.5583 15.481L27.5431 15.4744C27.4919 15.454 27.4312 15.4298 27.4312 15.3786C27.384 14.9399 27.2378 14.5176 27.0033 14.1416C26.9645 14.0794 26.9217 14.0145 26.9549 13.9506L32.57 5.42986ZM27.1399 17.0643L34.6721 20.1873C34.7132 20.206 34.7587 20.2236 34.7767 20.2655C34.784 20.2908 34.784 20.3172 34.7767 20.3425C34.7548 20.451 34.7357 20.5738 34.7357 20.6982V20.9052C34.7357 20.9564 34.6817 20.9778 34.6322 20.9982L34.617 21.0037C33.4237 21.5025 17.865 27.9973 17.8413 27.9973C17.8177 27.9973 17.793 27.9973 17.7699 27.9742C17.7283 27.9335 17.7699 27.8768 17.807 27.8256C17.8138 27.8168 17.82 27.8074 17.8262 27.7986L24.016 18.4163L24.0273 18.3998C24.0627 18.3431 24.1043 18.2798 24.1707 18.2798L24.2331 18.2892C24.3737 18.3079 24.498 18.3255 24.6239 18.3255C25.5625 18.3255 26.433 17.8779 26.9577 17.1127C26.9701 17.0923 26.9858 17.0742 27.0044 17.0588C27.0421 17.0318 27.0972 17.0456 27.1399 17.0643ZM18.5139 29.4815L35.4729 22.4014C35.4729 22.4014 35.4977 22.4014 35.5213 22.4246C35.6141 22.5154 35.6928 22.576 35.7687 22.6327L35.8058 22.6558C35.8401 22.6745 35.875 22.6965 35.8778 22.7317C35.8778 22.745 35.8778 22.7532 35.875 22.7653L34.4219 31.5013L34.4162 31.5366C34.4067 31.6043 34.3971 31.6813 34.3325 31.6813C33.5468 31.7331 32.836 32.1625 32.4362 32.8264L32.4294 32.8374C32.4098 32.8682 32.3918 32.898 32.3603 32.9145C32.331 32.9277 32.2939 32.9222 32.2635 32.9156L18.7389 30.1845C18.7254 30.1818 18.5291 29.4832 18.5139 29.4815Z" fill="black"/>
</svg>
