<svg width="209" height="47" viewBox="0 0 209 47" fill="none" xmlns="http://www.w3.org/2000/svg">
<path d="M104.263 11.75C96.1021 11.75 90.2177 17.0375 90.2177 24.9688C90.2177 32.9 96.8414 38.1875 105.003 38.1875C109.933 38.1875 114.28 36.2487 116.971 32.9808L111.316 29.7348C109.823 31.3578 107.553 32.3052 105.003 32.3052C101.462 32.3052 98.453 30.4692 97.3367 27.5317H118.05C118.213 26.7092 118.309 25.8573 118.309 24.9614C118.309 17.0375 112.425 11.75 104.263 11.75ZM97.2702 22.3984C98.1942 19.4683 100.722 17.625 104.256 17.625C107.797 17.625 110.325 19.4683 111.242 22.3984H97.2702ZM183.866 11.75C175.704 11.75 169.82 17.0375 169.82 24.9688C169.82 32.9 176.444 38.1875 184.605 38.1875C189.536 38.1875 193.882 36.2487 196.573 32.9808L190.918 29.7348C189.425 31.3578 187.155 32.3052 184.605 32.3052C181.064 32.3052 178.055 30.4692 176.939 27.5317H197.653C197.815 26.7092 197.911 25.8573 197.911 24.9614C197.911 17.0375 192.027 11.75 183.866 11.75ZM176.88 22.3984C177.804 19.4683 180.332 17.625 183.866 17.625C187.407 17.625 189.935 19.4683 190.851 22.3984H176.88ZM148.027 24.9688C148.027 29.375 150.925 32.3125 155.419 32.3125C158.465 32.3125 160.749 30.9392 161.925 28.6994L167.602 31.9527C165.251 35.8448 160.845 38.1875 155.419 38.1875C147.251 38.1875 141.374 32.9 141.374 24.9688C141.374 17.0375 147.258 11.75 155.419 11.75C160.845 11.75 165.244 14.0927 167.602 17.9848L161.925 21.2381C160.749 18.9983 158.465 17.625 155.419 17.625C150.932 17.625 148.027 20.5625 148.027 24.9688ZM209 3.67188V37.4531H202.347V3.67188H209ZM27.3152 0L54.6304 47H0L27.3152 0ZM95.6069 3.67188L75.1223 38.9219L54.6378 3.67188H62.3186L75.1223 25.7031L87.9261 3.67188H95.6069ZM139.156 12.4844V19.6005C138.417 19.3875 137.633 19.2406 136.79 19.2406C132.495 19.2406 129.398 22.1781 129.398 26.5844V37.4531H122.745V12.4844H129.398V19.2406C129.398 15.51 133.767 12.4844 139.156 12.4844Z" fill="black"/>
</svg>
