<svg width="195" height="55" viewBox="0 0 195 55" fill="none" xmlns="http://www.w3.org/2000/svg">
<path d="M36.4763 32.8997H22.4703L37.3934 17.7445C37.5341 17.6015 37.6298 17.4194 37.6686 17.2212C37.7074 17.023 37.6876 16.8175 37.6114 16.6308C37.5353 16.444 37.4063 16.2844 37.2409 16.1721C37.0754 16.0598 36.8809 15.9999 36.6819 15.9998H12.9811V5.94485H38.9776C40.886 5.92126 42.7618 6.44769 44.3875 7.46311C46.0132 8.47854 47.3221 9.9413 48.1622 11.6817C49.0296 13.543 49.3084 15.6315 48.9602 17.6602C48.612 19.6889 47.654 21.5583 46.2176 23.0118L36.4763 32.8997Z" fill="black"/>
<path d="M12.9812 20.8428H26.9879L12.0948 35.9674C11.9518 36.1129 11.8544 36.2982 11.8149 36.4998C11.7755 36.7015 11.7958 36.9105 11.8733 37.1004C11.9507 37.2904 12.0818 37.4527 12.25 37.567C12.4183 37.6813 12.6162 37.7425 12.8187 37.7427H36.4526V47.7976H10.4813C8.5729 47.821 6.69721 47.2945 5.07155 46.2791C3.44589 45.2637 2.13693 43.8009 1.29668 42.0607C0.429326 40.1993 0.150671 38.1108 0.498994 36.0821C0.847317 34.0534 1.80562 32.184 3.24213 30.7305L12.9812 20.8428Z" fill="black"/>
<path d="M110.532 28.5705C110.532 32.1556 109.155 34.3499 105.927 34.2965C102.963 34.243 101.428 32.0486 101.428 28.5178V14.9787H94.1243V29.0517C94.1243 35.8483 98.3056 40.6646 105.927 40.7181C112.914 40.7716 117.836 35.581 117.836 29.1059V14.9787H110.532V28.5705Z" fill="black"/>
<path d="M181.476 14.3877C173.59 14.3877 168.036 20.0602 168.036 27.5519C168.036 35.0436 173.593 40.7159 181.476 40.7159C189.359 40.7159 194.916 35.0436 194.916 27.5519C194.916 20.0602 189.362 14.3877 181.476 14.3877ZM181.476 34.3478C177.824 34.3478 175.233 31.5654 175.233 27.5519C175.233 23.5383 177.827 20.7551 181.476 20.7551C185.125 20.7551 187.719 23.5383 187.719 27.5519C187.719 31.5654 185.128 34.3478 181.476 34.3478Z" fill="black"/>
<path d="M136.058 14.3876C128.171 14.3876 122.617 20.0601 122.617 27.5518C122.617 27.6513 122.629 27.747 122.631 27.8487H122.617V49.1291H129.815V39.3377C131.769 40.2606 133.901 40.7309 136.058 40.7144C143.944 40.7144 149.498 35.0419 149.498 27.5502C149.498 20.0585 143.944 14.3876 136.058 14.3876ZM136.058 34.3477C132.405 34.3477 129.815 31.5653 129.815 27.5518C129.815 23.5382 132.408 20.7551 136.058 20.7551C139.707 20.7551 142.3 23.5382 142.3 27.5518C142.3 31.5653 139.71 34.3477 136.058 34.3477Z" fill="black"/>
<path d="M66.7217 21.3395H81.1138L66.7217 32.7423V40.127H90.0306V33.764H75.604L90.0306 22.3323V14.9765H66.7217V21.3395Z" fill="black"/>
<path d="M165.873 40.127H163.436C160.809 40.1241 158.291 39.0676 156.433 37.1896C154.576 35.3115 153.531 32.7651 153.528 30.1091V5.95129H160.872V30.1091C160.874 30.7961 161.145 31.4544 161.625 31.9401C162.106 32.4259 162.757 32.6996 163.436 32.7014H165.873V40.127Z" fill="black"/>
</svg>
