<svg width="143" height="30" viewBox="0 0 143 30" fill="none" xmlns="http://www.w3.org/2000/svg">
  <circle cx="3.33252" cy="13.6829" r="3" fill="#FF00BD"/>
  <circle cx="26.3325" cy="18.6829" r="3" fill="#FF00BD"/>
  <path d="M25.8325 24.3575C26.1087 24.3575 26.3325 24.5814 26.3325 24.8575V29.1615C26.3325 29.4459 26.0999 29.6733 25.8157 29.6622C22.8697 29.5465 8.17948 29.0069 3.94312 29.5763C3.62393 29.6192 3.33252 29.3748 3.33252 29.0528V25.0664C3.33252 24.9522 3.37154 24.8416 3.44312 24.7527L16.2739 8.82201C16.5374 8.4949 16.3045 8.00838 15.8845 8.00838H4.46788C4.19174 8.00838 3.96788 7.78452 3.96788 7.50838V3.24148C3.96788 2.9435 4.22557 2.70964 4.52247 2.73484C6.45176 2.89859 13.4014 3.35655 25.1638 2.71271C25.4506 2.697 25.6972 2.92488 25.6972 3.21219V7.28383C25.6972 7.40743 25.6525 7.52538 25.57 7.61736C24.8012 8.47361 20.7294 13.024 18.3325 16C16.3166 18.503 13.7689 22.0236 12.6593 23.5732C12.4232 23.9029 12.6606 24.3575 13.0661 24.3575H25.8325Z" fill="white"/>
  <path d="M138.911 25.16L138.707 24.16C137.439 24.938 137.166 25.16 136.143 25.16C134.643 25.16 134.572 25.16 133.643 25.16C132.101 25.16 130.502 24.9787 129.663 23.936C128.824 22.8707 128.405 21.386 128.405 19.482V7.922H132.315V19.006C132.315 20.91 133.018 21.862 134.423 21.862C134.99 21.862 135.602 21.726 136.259 21.454C136.939 21.182 137.755 20.6607 138.707 19.89V7.922H142.617V25.16H138.911Z" fill="white"/>
  <path d="M71.6486 25.16L71.4446 24.16C70.1761 24.938 69.9033 25.16 68.8801 25.16C67.3801 25.16 67.3095 25.16 66.3801 25.16C64.8388 25.16 63.2392 24.9787 62.4006 23.936C61.5619 22.8707 61.1426 21.386 61.1426 19.482V7.922H65.0526V19.006C65.0526 20.91 65.7552 21.862 67.1606 21.862C67.7273 21.862 68.3392 21.726 68.9966 21.454C69.6766 21.182 70.4926 20.6607 71.4446 19.89V7.922H75.3546V25.16H71.6486Z" fill="white"/>
  <path d="M122.849 25.16L118.599 17.986C117.919 18.666 117.205 19.346 116.457 20.026V25.16H112.547V0H116.457V15.708C117.749 14.3933 118.86 13.1353 119.789 11.934C120.741 10.71 121.614 9.37267 122.407 7.922H126.895C126.147 9.282 125.331 10.574 124.447 11.798C123.563 13.022 122.589 14.2573 121.523 15.504L127.575 25.16H122.849Z" fill="white"/>
  <path d="M110.163 15.504V17.544C110.163 19.9467 109.506 21.8733 108.191 23.324C106.876 24.7747 105.018 25.5 102.615 25.5C100.212 25.5 98.3538 24.7747 97.0391 23.324C95.7245 21.8733 95.0671 19.9467 95.0671 17.544V15.504C95.0671 13.1013 95.7131 11.186 97.0051 9.758C98.3198 8.30733 100.19 7.582 102.615 7.582C105.04 7.582 106.899 8.30733 108.191 9.758C109.506 11.186 110.163 13.1013 110.163 15.504ZM106.151 15.504C106.151 14.1213 105.845 13.0447 105.233 12.274C104.621 11.4807 103.748 11.084 102.615 11.084C101.482 11.084 100.609 11.4807 99.9971 12.274C99.3851 13.0447 99.0791 14.1213 99.0791 15.504V17.544C99.0791 18.9267 99.3851 20.0147 99.9971 20.808C100.609 21.6013 101.482 21.998 102.615 21.998C103.748 21.998 104.621 21.6013 105.233 20.808C105.845 20.0147 106.151 18.9267 106.151 17.544V15.504Z" fill="white"/>
  <path d="M88.9597 25.16V23.16C87.6425 24.16 87.0104 24.5707 86.2397 24.956C85.4917 25.3187 84.7097 25.5 83.8937 25.5C82.0351 25.5 80.5844 24.7973 79.5417 23.392C78.5217 21.9867 78.0117 20.0147 78.0117 17.476V15.64C78.0117 13.1693 78.6351 11.2087 79.8817 9.758C81.1284 8.30733 82.9304 7.582 85.2877 7.582C85.8771 7.582 86.4551 7.63867 87.0217 7.752C87.6111 7.86533 88.1891 8.024 88.7557 8.228V0H92.6657V25.16H88.9597ZM82.0237 17.476C82.0237 18.9947 82.2731 20.1053 82.7717 20.808C83.2931 21.5107 84.0184 21.862 84.9477 21.862C85.4691 21.862 86.0244 21.7147 86.6137 21.42C87.2031 21.1027 87.9171 20.5133 88.7557 19.652V11.764C87.6451 11.3107 86.6251 11.084 85.6957 11.084C84.3811 11.084 83.4404 11.492 82.8737 12.308C82.3071 13.124 82.0237 14.2347 82.0237 15.64V17.476Z" fill="white"/>
  <path d="M58.6405 21.76V25.16H48.3325C47.2279 25.16 46.3325 24.2646 46.3325 23.16V22.1L53.6085 11.322H46.6725V7.922H56.3005C57.4051 7.922 58.3005 8.81743 58.3005 9.922V10.982L51.0245 21.76H58.6405Z" fill="white"/>
</svg>
