<svg width="143" height="30" viewBox="0 0 143 30" fill="none" xmlns="http://www.w3.org/2000/svg">
  <circle cx="3.33252" cy="13.8857" r="3" fill="#FF00BD"/>
  <circle cx="26.3325" cy="18.8857" r="3" fill="#FF00BD"/>
  <path d="M25.8325 24.5602C26.1087 24.5602 26.3325 24.7841 26.3325 25.0602V29.3643C26.3325 29.6486 26.0999 29.8761 25.8157 29.8649C22.8697 29.7492 8.17948 29.2097 3.94312 29.7791C3.62393 29.822 3.33252 29.5776 3.33252 29.2555V25.2691C3.33252 25.155 3.37154 25.0443 3.44312 24.9555L16.2739 9.02476C16.5374 8.69764 16.3045 8.21112 15.8845 8.21112H4.46788C4.19174 8.21112 3.96788 7.98727 3.96788 7.71112V3.44422C3.96788 3.14625 4.22557 2.91238 4.52247 2.93758C6.45176 3.10133 13.4014 3.55929 25.1638 2.91545C25.4506 2.89975 25.6972 3.12762 25.6972 3.41493V7.48657C25.6972 7.61018 25.6525 7.72813 25.57 7.82011C24.8012 8.67636 20.7294 13.2267 18.3325 16.2027C16.3166 18.7057 13.7689 22.2263 12.6593 23.7759C12.4232 24.1057 12.6606 24.5602 13.0661 24.5602H25.8325Z" fill="#212121"/>
  <path d="M138.911 25.3627L138.707 24.3627C137.439 25.1407 137.166 25.3627 136.143 25.3627C134.643 25.3627 134.572 25.3627 133.643 25.3627C132.101 25.3627 130.502 25.1814 129.663 24.1387C128.824 23.0734 128.405 21.5887 128.405 19.6847V8.12473H132.315V19.2087C132.315 21.1127 133.018 22.0647 134.423 22.0647C134.99 22.0647 135.602 21.9287 136.259 21.6567C136.939 21.3847 137.755 20.8634 138.707 20.0927V8.12473H142.617V25.3627H138.911Z" fill="#212121"/>
  <path d="M71.6486 25.3627L71.4446 24.3627C70.1761 25.1407 69.9033 25.3627 68.8801 25.3627C67.3801 25.3627 67.3095 25.3627 66.3801 25.3627C64.8388 25.3627 63.2392 25.1814 62.4006 24.1387C61.5619 23.0734 61.1426 21.5887 61.1426 19.6847V8.12473H65.0526V19.2087C65.0526 21.1127 65.7552 22.0647 67.1606 22.0647C67.7273 22.0647 68.3392 21.9287 68.9966 21.6567C69.6766 21.3847 70.4926 20.8634 71.4446 20.0927V8.12473H75.3546V25.3627H71.6486Z" fill="#212121"/>
  <path d="M122.849 25.3627L118.599 18.1887C117.919 18.8687 117.205 19.5487 116.457 20.2287V25.3627H112.547V0.202736H116.457V15.9107C117.749 14.5961 118.86 13.3381 119.789 12.1367C120.741 10.9127 121.614 9.5754 122.407 8.12474H126.895C126.147 9.48474 125.331 10.7767 124.447 12.0007C123.563 13.2247 122.589 14.4601 121.523 15.7067L127.575 25.3627H122.849Z" fill="#212121"/>
  <path d="M110.163 15.7067V17.7467C110.163 20.1494 109.506 22.0761 108.191 23.5267C106.876 24.9774 105.018 25.7027 102.615 25.7027C100.212 25.7027 98.3538 24.9774 97.0391 23.5267C95.7245 22.0761 95.0671 20.1494 95.0671 17.7467V15.7067C95.0671 13.3041 95.7131 11.3887 97.0051 9.96074C98.3198 8.51007 100.19 7.78474 102.615 7.78474C105.04 7.78474 106.899 8.51007 108.191 9.96074C109.506 11.3887 110.163 13.3041 110.163 15.7067ZM106.151 15.7067C106.151 14.3241 105.845 13.2474 105.233 12.4767C104.621 11.6834 103.748 11.2867 102.615 11.2867C101.482 11.2867 100.609 11.6834 99.9971 12.4767C99.3851 13.2474 99.0791 14.3241 99.0791 15.7067V17.7467C99.0791 19.1294 99.3851 20.2174 99.9971 21.0107C100.609 21.8041 101.482 22.2007 102.615 22.2007C103.748 22.2007 104.621 21.8041 105.233 21.0107C105.845 20.2174 106.151 19.1294 106.151 17.7467V15.7067Z" fill="#212121"/>
  <path d="M88.9597 25.3627V23.3627C87.6425 24.3627 87.0104 24.7734 86.2397 25.1587C85.4917 25.5214 84.7097 25.7027 83.8937 25.7027C82.0351 25.7027 80.5844 25.0001 79.5417 23.5947C78.5217 22.1894 78.0117 20.2174 78.0117 17.6787V15.8427C78.0117 13.3721 78.6351 11.4114 79.8817 9.96074C81.1284 8.51007 82.9304 7.78474 85.2877 7.78474C85.8771 7.78474 86.4551 7.8414 87.0217 7.95474C87.6111 8.06807 88.1891 8.22673 88.7557 8.43073V0.202736H92.6657V25.3627H88.9597ZM82.0237 17.6787C82.0237 19.1974 82.2731 20.3081 82.7717 21.0107C83.2931 21.7134 84.0184 22.0647 84.9477 22.0647C85.4691 22.0647 86.0244 21.9174 86.6137 21.6227C87.2031 21.3054 87.9171 20.7161 88.7557 19.8547V11.9667C87.6451 11.5134 86.6251 11.2867 85.6957 11.2867C84.3811 11.2867 83.4404 11.6947 82.8737 12.5107C82.3071 13.3267 82.0237 14.4374 82.0237 15.8427V17.6787Z" fill="#212121"/>
  <path d="M58.6405 21.9627V25.3627H48.3325C47.2279 25.3627 46.3325 24.4673 46.3325 23.3627V22.3027L53.6085 11.5247H46.6725V8.12473H56.3005C57.4051 8.12473 58.3005 9.02016 58.3005 10.1247V11.1847L51.0245 21.9627H58.6405Z" fill="#212121"/>
</svg>
