<svg width="765" height="278" viewBox="0 0 765 278" fill="none" xmlns="http://www.w3.org/2000/svg">
<g filter="url(#filter0_d_162_322)">
<g clip-path="url(#clip0_162_322)">
<rect x="4" y="2" width="757" height="270" rx="8" fill="#181822"/>
<g filter="url(#filter1_f_162_322)">
<circle cx="749.667" cy="340.667" r="249.667" fill="#D06DB6" fill-opacity="0.3"/>
</g>
<path d="M673.949 136.692L1043 136.692" stroke="url(#paint0_linear_162_322)" stroke-width="1.42491"/>
<g filter="url(#filter2_f_162_322)">
<circle cx="505.667" cy="285.667" r="249.667" fill="#FF02BD" fill-opacity="0.3"/>
</g>
<path d="M429.949 81.6924L799 81.6924" stroke="url(#paint1_linear_162_322)" stroke-width="1.42491"/>
<path d="M625 82H752.201C764.793 82 775 71.7927 775 59.2015V-28" stroke="url(#paint2_linear_162_322)" stroke-width="1.42491"/>
<path d="M605.212 81.6926H633.711C646.302 81.6926 656.509 91.8998 656.509 104.491V266.931" stroke="#D06DB6" stroke-width="1.42491"/>
<path d="M656.509 157.212H598.088C585.497 157.212 575.289 167.42 575.289 180.011V244.132" stroke="url(#paint3_linear_162_322)" stroke-width="1.42491"/>
<path d="M657 297V266.799C657 254.207 646.793 244 634.201 244H410" stroke="url(#paint4_linear_162_322)" stroke-width="1.42491"/>
<path d="M580.989 -28.7383V81.6921" stroke="url(#paint5_linear_162_322)" stroke-width="1.42491"/>
<circle cx="581.701" cy="80.98" r="6.41209" fill="#D06DB6"/>
<circle cx="655.797" cy="156.5" r="6.41209" fill="#D06DB6"/>
<rect x="688.865" y="81.7939" width="12.8242" height="12.8242" rx="2.13736" transform="rotate(-45 688.865 81.7939)" fill="#D06DB6" stroke="#D06DB6" stroke-width="1.42491"/>
<g clip-path="url(#clip1_162_322)">
<mask id="path-15-inside-1_162_322" fill="white">
<path d="M348 -37.9999V30.0001H844V-37.9999H348Z"/>
</mask>
<path d="M804.354 38.8536L889.854 -46.6464L889.146 -47.3534L803.646 38.1466L804.354 38.8536ZM796.354 38.8536L881.854 -46.6464L881.146 -47.3534L795.646 38.1466L796.354 38.8536ZM788.354 38.8536L873.854 -46.6464L873.146 -47.3534L787.646 38.1466L788.354 38.8536ZM780.354 38.8536L865.854 -46.6464L865.146 -47.3534L779.646 38.1466L780.354 38.8536ZM772.354 38.8536L857.854 -46.6464L857.146 -47.3534L771.646 38.1466L772.354 38.8536ZM764.354 38.8536L849.854 -46.6464L849.146 -47.3534L763.646 38.1466L764.354 38.8536ZM756.354 38.8536L841.854 -46.6464L841.146 -47.3534L755.646 38.1466L756.354 38.8536ZM748.354 38.8536L833.854 -46.6464L833.146 -47.3534L747.646 38.1466L748.354 38.8536ZM740.354 38.8536L825.854 -46.6464L825.146 -47.3534L739.646 38.1466L740.354 38.8536ZM732.354 38.8536L817.854 -46.6464L817.146 -47.3534L731.646 38.1466L732.354 38.8536ZM724.354 38.8536L809.854 -46.6464L809.146 -47.3534L723.646 38.1466L724.354 38.8536ZM716.354 38.8536L801.854 -46.6464L801.146 -47.3534L715.646 38.1466L716.354 38.8536ZM708.354 38.8536L793.854 -46.6464L793.146 -47.3534L707.646 38.1466L708.354 38.8536ZM700.354 38.8536L785.854 -46.6464L785.146 -47.3534L699.646 38.1466L700.354 38.8536ZM692.354 38.8536L777.854 -46.6464L777.146 -47.3534L691.646 38.1466L692.354 38.8536ZM684.354 38.8536L769.854 -46.6464L769.146 -47.3534L683.646 38.1466L684.354 38.8536ZM676.354 38.8536L761.854 -46.6464L761.146 -47.3534L675.646 38.1466L676.354 38.8536ZM668.354 38.8536L753.854 -46.6464L753.146 -47.3534L667.646 38.1466L668.354 38.8536ZM660.354 38.8536L745.854 -46.6464L745.146 -47.3534L659.646 38.1466L660.354 38.8536ZM652.354 38.8536L737.854 -46.6464L737.146 -47.3534L651.646 38.1466L652.354 38.8536ZM644.354 38.8536L729.854 -46.6464L729.146 -47.3534L643.646 38.1466L644.354 38.8536ZM636.354 38.8536L721.854 -46.6464L721.146 -47.3534L635.646 38.1466L636.354 38.8536ZM628.354 38.8536L713.854 -46.6464L713.146 -47.3534L627.646 38.1466L628.354 38.8536ZM620.354 38.8536L705.854 -46.6464L705.146 -47.3534L619.646 38.1466L620.354 38.8536ZM612.354 38.8536L697.854 -46.6464L697.146 -47.3534L611.646 38.1466L612.354 38.8536ZM604.354 38.8536L689.854 -46.6464L689.146 -47.3534L603.646 38.1466L604.354 38.8536ZM596.354 38.8536L681.854 -46.6464L681.146 -47.3534L595.646 38.1466L596.354 38.8536ZM588.354 38.8536L673.854 -46.6464L673.146 -47.3534L587.646 38.1466L588.354 38.8536ZM580.354 38.8536L665.854 -46.6464L665.146 -47.3534L579.646 38.1466L580.354 38.8536ZM572.354 38.8536L657.854 -46.6464L657.146 -47.3534L571.646 38.1466L572.354 38.8536ZM564.354 38.8536L649.854 -46.6464L649.146 -47.3534L563.646 38.1466L564.354 38.8536ZM556.354 38.8536L641.854 -46.6464L641.146 -47.3534L555.646 38.1466L556.354 38.8536ZM548.354 38.8536L633.854 -46.6464L633.146 -47.3534L547.646 38.1466L548.354 38.8536ZM540.354 38.8536L625.854 -46.6464L625.146 -47.3534L539.646 38.1466L540.354 38.8536ZM532.354 38.8536L617.854 -46.6464L617.146 -47.3534L531.646 38.1466L532.354 38.8536ZM524.354 38.8536L609.854 -46.6464L609.146 -47.3534L523.646 38.1466L524.354 38.8536ZM516.354 38.8536L601.854 -46.6464L601.146 -47.3534L515.646 38.1466L516.354 38.8536ZM508.354 38.8536L593.854 -46.6464L593.146 -47.3534L507.646 38.1466L508.354 38.8536ZM500.354 38.8536L585.854 -46.6464L585.146 -47.3534L499.646 38.1466L500.354 38.8536ZM492.354 38.8536L577.854 -46.6464L577.146 -47.3534L491.646 38.1466L492.354 38.8536ZM484.354 38.8536L569.854 -46.6464L569.146 -47.3534L483.646 38.1466L484.354 38.8536ZM476.354 38.8536L561.854 -46.6464L561.146 -47.3534L475.646 38.1466L476.354 38.8536ZM468.354 38.8536L553.854 -46.6464L553.146 -47.3534L467.646 38.1466L468.354 38.8536ZM460.354 38.8536L545.854 -46.6464L545.146 -47.3534L459.646 38.1466L460.354 38.8536ZM452.354 38.8536L537.854 -46.6464L537.146 -47.3534L451.646 38.1466L452.354 38.8536ZM444.354 38.8536L529.854 -46.6464L529.146 -47.3534L443.646 38.1466L444.354 38.8536ZM436.354 38.8536L521.854 -46.6464L521.146 -47.3534L435.646 38.1466L436.354 38.8536ZM428.354 38.8536L513.854 -46.6464L513.146 -47.3534L427.646 38.1466L428.354 38.8536ZM420.354 38.8536L505.854 -46.6464L505.146 -47.3534L419.646 38.1466L420.354 38.8536ZM412.354 38.8536L497.854 -46.6464L497.146 -47.3534L411.646 38.1466L412.354 38.8536ZM404.354 38.8536L489.854 -46.6464L489.146 -47.3534L403.646 38.1466L404.354 38.8536ZM396.354 38.8536L481.854 -46.6464L481.146 -47.3534L395.646 38.1466L396.354 38.8536ZM388.354 38.8536L473.854 -46.6464L473.146 -47.3534L387.646 38.1466L388.354 38.8536ZM380.354 38.8536L465.854 -46.6464L465.146 -47.3534L379.646 38.1466L380.354 38.8536ZM372.354 38.8536L457.854 -46.6464L457.146 -47.3534L371.646 38.1466L372.354 38.8536ZM364.354 38.8536L449.854 -46.6464L449.146 -47.3534L363.646 38.1466L364.354 38.8536ZM356.354 38.8536L441.854 -46.6464L441.146 -47.3534L355.646 38.1466L356.354 38.8536ZM348.354 38.8536L433.854 -46.6464L433.146 -47.3534L347.646 38.1466L348.354 38.8536ZM340.354 38.8536L425.854 -46.6464L425.146 -47.3534L339.646 38.1466L340.354 38.8536ZM332.354 38.8536L417.854 -46.6464L417.146 -47.3534L331.646 38.1466L332.354 38.8536ZM324.354 38.8536L409.854 -46.6464L409.146 -47.3534L323.646 38.1466L324.354 38.8536ZM316.354 38.8536L401.854 -46.6464L401.146 -47.3534L315.646 38.1466L316.354 38.8536ZM308.354 38.8536L393.854 -46.6464L393.146 -47.3534L307.646 38.1466L308.354 38.8536ZM300.354 38.8536L385.854 -46.6464L385.146 -47.3534L299.646 38.1466L300.354 38.8536ZM292.354 38.8536L377.854 -46.6464L377.146 -47.3534L291.646 38.1466L292.354 38.8536ZM284.354 38.8536L369.854 -46.6464L369.146 -47.3534L283.646 38.1466L284.354 38.8536ZM276.354 38.8536L361.854 -46.6464L361.146 -47.3534L275.646 38.1466L276.354 38.8536Z" fill="url(#paint6_linear_162_322)"/>
</g>
<path d="M348 30.0001V29.0001H844V30.0001V31.0001H348V30.0001Z" fill="url(#paint7_linear_162_322)" mask="url(#path-15-inside-1_162_322)"/>
<rect x="450.335" y="29.2218" width="9.11246" height="9.11246" rx="2" transform="rotate(-45 450.335 29.2218)" fill="#D06DB6"/>
<path d="M41.262 204V195.236H38.168V194.06H45.56V195.236H42.466V204H41.262ZM46.4208 204V194.06H47.5968V198.218L47.4568 198.19C47.5501 197.779 47.7088 197.443 47.9328 197.182C48.1568 196.921 48.4321 196.729 48.7588 196.608C49.0854 196.477 49.4448 196.412 49.8368 196.412C50.3688 196.412 50.8168 196.533 51.1808 196.776C51.5541 197.009 51.8341 197.341 52.0208 197.77C52.2168 198.19 52.3148 198.675 52.3148 199.226V204H51.1388V199.562C51.1388 198.843 51.0081 198.311 50.7468 197.966C50.4948 197.621 50.1074 197.448 49.5848 197.448C48.9874 197.448 48.5068 197.63 48.1428 197.994C47.7788 198.358 47.5968 198.885 47.5968 199.576V204H46.4208ZM54.4188 204V196.58H55.5948V204H54.4188ZM54.3908 195.418V194.046H55.6228V195.418H54.3908ZM60.4021 204.168C59.7394 204.168 59.1747 204.061 58.7081 203.846C58.2507 203.631 57.8914 203.337 57.6301 202.964C57.3781 202.581 57.2334 202.147 57.1961 201.662L58.4281 201.578C58.5027 202.026 58.6941 202.385 59.0021 202.656C59.3101 202.917 59.7767 203.048 60.4021 203.048C60.9061 203.048 61.3074 202.969 61.6061 202.81C61.9141 202.642 62.0681 202.376 62.0681 202.012C62.0681 201.816 62.0214 201.653 61.9281 201.522C61.8347 201.391 61.6527 201.279 61.3821 201.186C61.1114 201.083 60.7101 200.985 60.1781 200.892C59.4687 200.761 58.9087 200.603 58.4981 200.416C58.0967 200.22 57.8074 199.982 57.6301 199.702C57.4621 199.413 57.3781 199.072 57.3781 198.68C57.3781 198.017 57.6207 197.476 58.1061 197.056C58.5914 196.627 59.2821 196.412 60.1781 196.412C60.7847 196.412 61.2934 196.524 61.7041 196.748C62.1241 196.963 62.4507 197.252 62.6841 197.616C62.9267 197.971 63.0854 198.363 63.1601 198.792L61.9281 198.876C61.8721 198.615 61.7694 198.386 61.6201 198.19C61.4707 197.985 61.2747 197.826 61.0321 197.714C60.7894 197.593 60.5001 197.532 60.1641 197.532C59.6321 197.532 59.2401 197.635 58.9881 197.84C58.7361 198.045 58.6101 198.307 58.6101 198.624C58.6101 198.867 58.6661 199.067 58.7781 199.226C58.8994 199.375 59.0907 199.501 59.3521 199.604C59.6134 199.697 59.9634 199.781 60.4021 199.856C61.1581 199.987 61.7461 200.145 62.1661 200.332C62.5861 200.519 62.8801 200.747 63.0481 201.018C63.2161 201.289 63.3001 201.62 63.3001 202.012C63.3001 202.469 63.1694 202.861 62.9081 203.188C62.6561 203.505 62.3107 203.748 61.8721 203.916C61.4427 204.084 60.9527 204.168 60.4021 204.168ZM68.5419 204V196.58H69.7179V204H68.5419ZM68.5139 195.418V194.046H69.7459V195.418H68.5139ZM74.5251 204.168C73.8625 204.168 73.2978 204.061 72.8311 203.846C72.3738 203.631 72.0145 203.337 71.7531 202.964C71.5011 202.581 71.3565 202.147 71.3191 201.662L72.5511 201.578C72.6258 202.026 72.8171 202.385 73.1251 202.656C73.4331 202.917 73.8998 203.048 74.5251 203.048C75.0291 203.048 75.4305 202.969 75.7291 202.81C76.0371 202.642 76.1911 202.376 76.1911 202.012C76.1911 201.816 76.1445 201.653 76.0511 201.522C75.9578 201.391 75.7758 201.279 75.5051 201.186C75.2345 201.083 74.8331 200.985 74.3011 200.892C73.5918 200.761 73.0318 200.603 72.6211 200.416C72.2198 200.22 71.9305 199.982 71.7531 199.702C71.5851 199.413 71.5011 199.072 71.5011 198.68C71.5011 198.017 71.7438 197.476 72.2291 197.056C72.7145 196.627 73.4051 196.412 74.3011 196.412C74.9078 196.412 75.4165 196.524 75.8271 196.748C76.2471 196.963 76.5738 197.252 76.8071 197.616C77.0498 197.971 77.2085 198.363 77.2831 198.792L76.0511 198.876C75.9951 198.615 75.8925 198.386 75.7431 198.19C75.5938 197.985 75.3978 197.826 75.1551 197.714C74.9125 197.593 74.6231 197.532 74.2871 197.532C73.7551 197.532 73.3631 197.635 73.1111 197.84C72.8591 198.045 72.7331 198.307 72.7331 198.624C72.7331 198.867 72.7891 199.067 72.9011 199.226C73.0225 199.375 73.2138 199.501 73.4751 199.604C73.7365 199.697 74.0865 199.781 74.5251 199.856C75.2811 199.987 75.8691 200.145 76.2891 200.332C76.7091 200.519 77.0031 200.747 77.1711 201.018C77.3391 201.289 77.4231 201.62 77.4231 202.012C77.4231 202.469 77.2925 202.861 77.0311 203.188C76.7791 203.505 76.4338 203.748 75.9951 203.916C75.5658 204.084 75.0758 204.168 74.5251 204.168ZM82.9869 206.1V205.064H83.8409C84.1023 205.064 84.2936 205.022 84.4149 204.938C84.5456 204.863 84.6436 204.737 84.7089 204.56L84.9749 203.86H84.5689L81.8529 196.58H83.1409L85.3529 202.768L87.4669 196.58H88.7549L85.7449 204.938C85.6049 205.339 85.3949 205.633 85.1149 205.82C84.8349 206.007 84.4476 206.1 83.9529 206.1H82.9869ZM92.7133 204.168C92.032 204.168 91.4346 204.009 90.9213 203.692C90.408 203.375 90.0113 202.927 89.7313 202.348C89.4513 201.76 89.3113 201.074 89.3113 200.29C89.3113 199.497 89.4513 198.811 89.7313 198.232C90.0113 197.653 90.408 197.205 90.9213 196.888C91.4346 196.571 92.032 196.412 92.7133 196.412C93.3946 196.412 93.9873 196.571 94.4913 196.888C95.0046 197.205 95.4013 197.653 95.6813 198.232C95.9613 198.811 96.1013 199.497 96.1013 200.29C96.1013 201.074 95.9613 201.76 95.6813 202.348C95.4013 202.927 95.0046 203.375 94.4913 203.692C93.9873 204.009 93.3946 204.168 92.7133 204.168ZM92.7133 203.048C93.3946 203.048 93.922 202.805 94.2953 202.32C94.678 201.825 94.8693 201.149 94.8693 200.29C94.8693 199.431 94.678 198.759 94.2953 198.274C93.922 197.779 93.3946 197.532 92.7133 197.532C92.032 197.532 91.5 197.779 91.1173 198.274C90.7346 198.759 90.5433 199.431 90.5433 200.29C90.5433 201.149 90.7346 201.825 91.1173 202.32C91.5 202.805 92.032 203.048 92.7133 203.048ZM100.14 204.168C99.4027 204.168 98.81 203.921 98.362 203.426C97.9233 202.922 97.704 202.231 97.704 201.354V196.58H98.88V201.032C98.88 201.751 99.006 202.283 99.258 202.628C99.5193 202.964 99.916 203.132 100.448 203.132C101.036 203.132 101.498 202.945 101.834 202.572C102.17 202.189 102.338 201.667 102.338 201.004V196.58H103.514V204H102.394V202.166L102.576 202.264C102.427 202.871 102.142 203.342 101.722 203.678C101.302 204.005 100.775 204.168 100.14 204.168ZM105.757 204V196.58H106.793L106.849 198.456L106.737 198.414C106.83 197.779 107.031 197.317 107.339 197.028C107.656 196.729 108.076 196.58 108.599 196.58H109.327V197.7H108.613C108.239 197.7 107.927 197.77 107.675 197.91C107.432 198.041 107.245 198.241 107.115 198.512C106.993 198.773 106.933 199.109 106.933 199.52V204H105.757ZM117.459 204.168C116.769 204.168 116.167 204.009 115.653 203.692C115.149 203.375 114.757 202.927 114.477 202.348C114.197 201.76 114.057 201.074 114.057 200.29C114.057 199.506 114.197 198.825 114.477 198.246C114.757 197.667 115.149 197.219 115.653 196.902C116.167 196.575 116.769 196.412 117.459 196.412C118.029 196.412 118.533 196.515 118.971 196.72C119.419 196.916 119.783 197.205 120.063 197.588C120.343 197.971 120.525 198.437 120.609 198.988L119.377 199.072C119.293 198.577 119.079 198.199 118.733 197.938C118.388 197.667 117.963 197.532 117.459 197.532C116.778 197.532 116.246 197.779 115.863 198.274C115.481 198.759 115.289 199.431 115.289 200.29C115.289 201.149 115.481 201.825 115.863 202.32C116.246 202.805 116.778 203.048 117.459 203.048C117.963 203.048 118.388 202.908 118.733 202.628C119.079 202.348 119.293 201.928 119.377 201.368L120.609 201.452C120.525 202.003 120.343 202.483 120.063 202.894C119.783 203.295 119.419 203.608 118.971 203.832C118.533 204.056 118.029 204.168 117.459 204.168ZM124.965 204.168C124.284 204.168 123.687 204.009 123.173 203.692C122.66 203.375 122.263 202.927 121.983 202.348C121.703 201.76 121.563 201.074 121.563 200.29C121.563 199.497 121.703 198.811 121.983 198.232C122.263 197.653 122.66 197.205 123.173 196.888C123.687 196.571 124.284 196.412 124.965 196.412C125.647 196.412 126.239 196.571 126.743 196.888C127.257 197.205 127.653 197.653 127.933 198.232C128.213 198.811 128.353 199.497 128.353 200.29C128.353 201.074 128.213 201.76 127.933 202.348C127.653 202.927 127.257 203.375 126.743 203.692C126.239 204.009 125.647 204.168 124.965 204.168ZM124.965 203.048C125.647 203.048 126.174 202.805 126.547 202.32C126.93 201.825 127.121 201.149 127.121 200.29C127.121 199.431 126.93 198.759 126.547 198.274C126.174 197.779 125.647 197.532 124.965 197.532C124.284 197.532 123.752 197.779 123.369 198.274C122.987 198.759 122.795 199.431 122.795 200.29C122.795 201.149 122.987 201.825 123.369 202.32C123.752 202.805 124.284 203.048 124.965 203.048ZM129.956 204V196.58H131.034L131.076 198.47L130.936 198.344C131.029 197.905 131.193 197.546 131.426 197.266C131.659 196.977 131.939 196.762 132.266 196.622C132.602 196.482 132.961 196.412 133.344 196.412C133.913 196.412 134.38 196.538 134.744 196.79C135.117 197.042 135.393 197.383 135.57 197.812C135.757 198.232 135.85 198.703 135.85 199.226V204H134.674V199.562C134.674 199.105 134.618 198.722 134.506 198.414C134.403 198.097 134.235 197.859 134.002 197.7C133.769 197.532 133.465 197.448 133.092 197.448C132.523 197.448 132.051 197.63 131.678 197.994C131.314 198.349 131.132 198.871 131.132 199.562V204H129.956ZM140.246 204C139.574 204 139.075 203.846 138.748 203.538C138.431 203.23 138.272 202.749 138.272 202.096V194.844H139.448V202.068C139.448 202.404 139.523 202.637 139.672 202.768C139.821 202.899 140.05 202.964 140.358 202.964H141.422V204H140.246ZM137.18 197.616V196.58H141.422V197.616H137.18ZM145.692 204.168C144.992 204.168 144.385 204.009 143.872 203.692C143.368 203.375 142.976 202.927 142.696 202.348C142.425 201.76 142.29 201.074 142.29 200.29C142.29 199.506 142.425 198.825 142.696 198.246C142.976 197.667 143.363 197.219 143.858 196.902C144.362 196.575 144.954 196.412 145.636 196.412C146.28 196.412 146.849 196.566 147.344 196.874C147.838 197.173 148.221 197.611 148.492 198.19C148.772 198.769 148.912 199.473 148.912 200.304V200.654H143.522C143.568 201.447 143.778 202.045 144.152 202.446C144.534 202.847 145.048 203.048 145.692 203.048C146.177 203.048 146.574 202.936 146.882 202.712C147.199 202.479 147.418 202.175 147.54 201.802L148.8 201.9C148.604 202.563 148.23 203.109 147.68 203.538C147.138 203.958 146.476 204.168 145.692 204.168ZM143.522 199.618H147.624C147.568 198.899 147.358 198.372 146.994 198.036C146.639 197.7 146.186 197.532 145.636 197.532C145.066 197.532 144.595 197.709 144.222 198.064C143.858 198.409 143.624 198.927 143.522 199.618ZM150.505 204V196.58H151.583L151.625 198.47L151.485 198.344C151.578 197.905 151.741 197.546 151.975 197.266C152.208 196.977 152.488 196.762 152.815 196.622C153.151 196.482 153.51 196.412 153.893 196.412C154.462 196.412 154.929 196.538 155.293 196.79C155.666 197.042 155.941 197.383 156.119 197.812C156.305 198.232 156.399 198.703 156.399 199.226V204H155.223V199.562C155.223 199.105 155.167 198.722 155.055 198.414C154.952 198.097 154.784 197.859 154.551 197.7C154.317 197.532 154.014 197.448 153.641 197.448C153.071 197.448 152.6 197.63 152.227 197.994C151.863 198.349 151.681 198.871 151.681 199.562V204H150.505ZM160.795 204C160.123 204 159.624 203.846 159.297 203.538C158.98 203.23 158.821 202.749 158.821 202.096V194.844H159.997V202.068C159.997 202.404 160.072 202.637 160.221 202.768C160.37 202.899 160.599 202.964 160.907 202.964H161.971V204H160.795ZM157.729 197.616V196.58H161.971V197.616H157.729ZM163.413 204V202.418H164.995V204H163.413ZM174.209 204.224C173.323 204.224 172.543 204.019 171.871 203.608C171.199 203.188 170.677 202.591 170.303 201.816C169.93 201.041 169.743 200.117 169.743 199.044C169.743 197.971 169.93 197.047 170.303 196.272C170.677 195.488 171.199 194.886 171.871 194.466C172.543 194.046 173.323 193.836 174.209 193.836C175.413 193.836 176.347 194.139 177.009 194.746C177.672 195.353 178.106 196.179 178.311 197.224L177.037 197.308C176.897 196.599 176.599 196.039 176.141 195.628C175.684 195.217 175.04 195.012 174.209 195.012C173.575 195.012 173.015 195.175 172.529 195.502C172.053 195.819 171.68 196.281 171.409 196.888C171.139 197.485 171.003 198.204 171.003 199.044C171.003 199.884 171.139 200.603 171.409 201.2C171.68 201.797 172.053 202.255 172.529 202.572C173.015 202.889 173.575 203.048 174.209 203.048C175.077 203.048 175.749 202.824 176.225 202.376C176.701 201.919 177 201.303 177.121 200.528L178.395 200.612C178.274 201.331 178.036 201.961 177.681 202.502C177.327 203.043 176.855 203.468 176.267 203.776C175.689 204.075 175.003 204.224 174.209 204.224ZM180.104 204V194.06H181.28V198.218L181.14 198.19C181.234 197.779 181.392 197.443 181.616 197.182C181.84 196.921 182.116 196.729 182.442 196.608C182.769 196.477 183.128 196.412 183.52 196.412C184.052 196.412 184.5 196.533 184.864 196.776C185.238 197.009 185.518 197.341 185.704 197.77C185.9 198.19 185.998 198.675 185.998 199.226V204H184.822V199.562C184.822 198.843 184.692 198.311 184.43 197.966C184.178 197.621 183.791 197.448 183.268 197.448C182.671 197.448 182.19 197.63 181.826 197.994C181.462 198.358 181.28 198.885 181.28 199.576V204H180.104ZM190.104 204.168C189.339 204.168 188.728 203.991 188.27 203.636C187.822 203.281 187.598 202.787 187.598 202.152C187.598 201.517 187.785 201.018 188.158 200.654C188.532 200.29 189.124 200.033 189.936 199.884L192.568 199.394C192.568 198.769 192.419 198.302 192.12 197.994C191.831 197.686 191.392 197.532 190.804 197.532C190.291 197.532 189.885 197.649 189.586 197.882C189.288 198.106 189.082 198.433 188.97 198.862L187.724 198.764C187.864 198.064 188.2 197.499 188.732 197.07C189.274 196.631 189.964 196.412 190.804 196.412C191.756 196.412 192.484 196.683 192.988 197.224C193.492 197.756 193.744 198.493 193.744 199.436V202.502C193.744 202.67 193.772 202.791 193.828 202.866C193.894 202.931 193.996 202.964 194.136 202.964H194.43V204C194.393 204.009 194.332 204.014 194.248 204.014C194.164 204.023 194.076 204.028 193.982 204.028C193.646 204.028 193.371 203.977 193.156 203.874C192.951 203.762 192.802 203.594 192.708 203.37C192.615 203.137 192.568 202.833 192.568 202.46L192.708 202.488C192.643 202.805 192.484 203.095 192.232 203.356C191.98 203.608 191.668 203.809 191.294 203.958C190.921 204.098 190.524 204.168 190.104 204.168ZM190.216 203.132C190.711 203.132 191.131 203.039 191.476 202.852C191.831 202.656 192.102 202.395 192.288 202.068C192.475 201.732 192.568 201.359 192.568 200.948V200.416L190.16 200.864C189.656 200.957 189.306 201.102 189.11 201.298C188.924 201.485 188.83 201.732 188.83 202.04C188.83 202.385 188.952 202.656 189.194 202.852C189.446 203.039 189.787 203.132 190.216 203.132ZM195.759 204V196.58H196.837L196.879 198.47L196.739 198.344C196.832 197.905 196.995 197.546 197.229 197.266C197.462 196.977 197.742 196.762 198.069 196.622C198.405 196.482 198.764 196.412 199.147 196.412C199.716 196.412 200.183 196.538 200.547 196.79C200.92 197.042 201.195 197.383 201.373 197.812C201.559 198.232 201.653 198.703 201.653 199.226V204H200.477V199.562C200.477 199.105 200.421 198.722 200.309 198.414C200.206 198.097 200.038 197.859 199.805 197.7C199.571 197.532 199.268 197.448 198.895 197.448C198.325 197.448 197.854 197.63 197.481 197.994C197.117 198.349 196.935 198.871 196.935 199.562V204H195.759ZM206.543 206.268C206.011 206.268 205.531 206.179 205.101 206.002C204.672 205.825 204.313 205.573 204.023 205.246C203.734 204.919 203.538 204.541 203.435 204.112L204.667 204.028C204.779 204.373 204.975 204.644 205.255 204.84C205.545 205.045 205.974 205.148 206.543 205.148C207.215 205.148 207.729 205.013 208.083 204.742C208.447 204.471 208.629 204.065 208.629 203.524V202.32C208.452 202.712 208.167 203.025 207.775 203.258C207.383 203.491 206.945 203.608 206.459 203.608C205.834 203.608 205.274 203.454 204.779 203.146C204.294 202.838 203.911 202.413 203.631 201.872C203.361 201.331 203.225 200.71 203.225 200.01C203.225 199.301 203.361 198.68 203.631 198.148C203.902 197.607 204.275 197.182 204.751 196.874C205.237 196.566 205.787 196.412 206.403 196.412C206.926 196.412 207.393 196.533 207.803 196.776C208.223 197.019 208.517 197.345 208.685 197.756V196.58H209.805V203.496C209.805 204.075 209.675 204.569 209.413 204.98C209.152 205.4 208.779 205.717 208.293 205.932C207.808 206.156 207.225 206.268 206.543 206.268ZM206.515 202.488C207.15 202.488 207.659 202.269 208.041 201.83C208.424 201.382 208.62 200.775 208.629 200.01C208.639 199.497 208.555 199.058 208.377 198.694C208.209 198.321 207.962 198.036 207.635 197.84C207.318 197.635 206.945 197.532 206.515 197.532C205.862 197.532 205.353 197.756 204.989 198.204C204.635 198.643 204.457 199.245 204.457 200.01C204.457 200.775 204.639 201.382 205.003 201.83C205.377 202.269 205.881 202.488 206.515 202.488ZM214.803 204.168C214.103 204.168 213.496 204.009 212.983 203.692C212.479 203.375 212.087 202.927 211.807 202.348C211.536 201.76 211.401 201.074 211.401 200.29C211.401 199.506 211.536 198.825 211.807 198.246C212.087 197.667 212.474 197.219 212.969 196.902C213.473 196.575 214.066 196.412 214.747 196.412C215.391 196.412 215.96 196.566 216.455 196.874C216.95 197.173 217.332 197.611 217.603 198.19C217.883 198.769 218.023 199.473 218.023 200.304V200.654H212.633C212.68 201.447 212.89 202.045 213.263 202.446C213.646 202.847 214.159 203.048 214.803 203.048C215.288 203.048 215.685 202.936 215.993 202.712C216.31 202.479 216.53 202.175 216.651 201.802L217.911 201.9C217.715 202.563 217.342 203.109 216.791 203.538C216.25 203.958 215.587 204.168 214.803 204.168ZM212.633 199.618H216.735C216.679 198.899 216.469 198.372 216.105 198.036C215.75 197.7 215.298 197.532 214.747 197.532C214.178 197.532 213.706 197.709 213.333 198.064C212.969 198.409 212.736 198.927 212.633 199.618ZM223.253 204V196.58H224.429V204H223.253ZM223.225 195.418V194.046H224.457V195.418H223.225ZM228.826 204C228.154 204 227.655 203.846 227.328 203.538C227.011 203.23 226.852 202.749 226.852 202.096V194.844H228.028V202.068C228.028 202.404 228.103 202.637 228.252 202.768C228.402 202.899 228.63 202.964 228.938 202.964H230.002V204H228.826ZM225.76 197.616V196.58H230.002V197.616H225.76ZM237.809 204C237.137 204 236.637 203.846 236.311 203.538C235.993 203.23 235.835 202.749 235.835 202.096V194.844H237.011V202.068C237.011 202.404 237.085 202.637 237.235 202.768C237.384 202.899 237.613 202.964 237.921 202.964H238.985V204H237.809ZM234.743 197.616V196.58H238.985V197.616H234.743ZM243.254 204.168C242.573 204.168 241.976 204.009 241.462 203.692C240.949 203.375 240.552 202.927 240.272 202.348C239.992 201.76 239.852 201.074 239.852 200.29C239.852 199.497 239.992 198.811 240.272 198.232C240.552 197.653 240.949 197.205 241.462 196.888C241.976 196.571 242.573 196.412 243.254 196.412C243.936 196.412 244.528 196.571 245.032 196.888C245.546 197.205 245.942 197.653 246.222 198.232C246.502 198.811 246.642 199.497 246.642 200.29C246.642 201.074 246.502 201.76 246.222 202.348C245.942 202.927 245.546 203.375 245.032 203.692C244.528 204.009 243.936 204.168 243.254 204.168ZM243.254 203.048C243.936 203.048 244.463 202.805 244.836 202.32C245.219 201.825 245.41 201.149 245.41 200.29C245.41 199.431 245.219 198.759 244.836 198.274C244.463 197.779 243.936 197.532 243.254 197.532C242.573 197.532 242.041 197.779 241.658 198.274C241.276 198.759 241.084 199.431 241.084 200.29C241.084 201.149 241.276 201.825 241.658 202.32C242.041 202.805 242.573 203.048 243.254 203.048ZM40.604 221L38.308 213.58H39.596L41.332 219.768L43.096 213.58H44.356L46.12 219.768L47.87 213.58H49.158L46.862 221H45.378L43.726 215.358L42.074 221H40.604ZM50.454 221V211.06H51.63V215.218L51.49 215.19C51.5833 214.779 51.742 214.443 51.966 214.182C52.19 213.921 52.4653 213.729 52.792 213.608C53.1187 213.477 53.478 213.412 53.87 213.412C54.402 213.412 54.85 213.533 55.214 213.776C55.5873 214.009 55.8673 214.341 56.054 214.77C56.25 215.19 56.348 215.675 56.348 216.226V221H55.172V216.562C55.172 215.843 55.0413 215.311 54.78 214.966C54.528 214.621 54.1407 214.448 53.618 214.448C53.0207 214.448 52.54 214.63 52.176 214.994C51.812 215.358 51.63 215.885 51.63 216.576V221H50.454ZM60.454 221.168C59.6887 221.168 59.0774 220.991 58.62 220.636C58.172 220.281 57.948 219.787 57.948 219.152C57.948 218.517 58.1347 218.018 58.508 217.654C58.8814 217.29 59.474 217.033 60.286 216.884L62.918 216.394C62.918 215.769 62.7687 215.302 62.47 214.994C62.1807 214.686 61.742 214.532 61.154 214.532C60.6407 214.532 60.2347 214.649 59.936 214.882C59.6374 215.106 59.432 215.433 59.32 215.862L58.074 215.764C58.214 215.064 58.55 214.499 59.082 214.07C59.6234 213.631 60.314 213.412 61.154 213.412C62.106 213.412 62.834 213.683 63.338 214.224C63.842 214.756 64.094 215.493 64.094 216.436V219.502C64.094 219.67 64.122 219.791 64.178 219.866C64.2434 219.931 64.346 219.964 64.486 219.964H64.78V221C64.7427 221.009 64.682 221.014 64.598 221.014C64.514 221.023 64.4254 221.028 64.332 221.028C63.996 221.028 63.7207 220.977 63.506 220.874C63.3007 220.762 63.1514 220.594 63.058 220.37C62.9647 220.137 62.918 219.833 62.918 219.46L63.058 219.488C62.9927 219.805 62.834 220.095 62.582 220.356C62.33 220.608 62.0174 220.809 61.644 220.958C61.2707 221.098 60.874 221.168 60.454 221.168ZM60.566 220.132C61.0607 220.132 61.4807 220.039 61.826 219.852C62.1807 219.656 62.4514 219.395 62.638 219.068C62.8247 218.732 62.918 218.359 62.918 217.948V217.416L60.51 217.864C60.006 217.957 59.656 218.102 59.46 218.298C59.2734 218.485 59.18 218.732 59.18 219.04C59.18 219.385 59.3014 219.656 59.544 219.852C59.796 220.039 60.1367 220.132 60.566 220.132ZM68.4551 221C67.7831 221 67.2838 220.846 66.9571 220.538C66.6398 220.23 66.4811 219.749 66.4811 219.096V211.844H67.6571V219.068C67.6571 219.404 67.7318 219.637 67.8811 219.768C68.0305 219.899 68.2591 219.964 68.5671 219.964H69.6311V221H68.4551ZM65.3891 214.616V213.58H69.6311V214.616H65.3891ZM73.9008 221.168C73.2008 221.168 72.5941 221.009 72.0808 220.692C71.5768 220.375 71.1848 219.927 70.9048 219.348C70.6341 218.76 70.4988 218.074 70.4988 217.29C70.4988 216.506 70.6341 215.825 70.9048 215.246C71.1848 214.667 71.5721 214.219 72.0668 213.902C72.5708 213.575 73.1635 213.412 73.8448 213.412C74.4888 213.412 75.0581 213.566 75.5528 213.874C76.0475 214.173 76.4301 214.611 76.7008 215.19C76.9808 215.769 77.1208 216.473 77.1208 217.304V217.654H71.7308C71.7775 218.447 71.9875 219.045 72.3608 219.446C72.7435 219.847 73.2568 220.048 73.9008 220.048C74.3861 220.048 74.7828 219.936 75.0908 219.712C75.4081 219.479 75.6275 219.175 75.7488 218.802L77.0088 218.9C76.8128 219.563 76.4395 220.109 75.8888 220.538C75.3475 220.958 74.6848 221.168 73.9008 221.168ZM71.7308 216.618H75.8328C75.7768 215.899 75.5668 215.372 75.2028 215.036C74.8481 214.7 74.3955 214.532 73.8448 214.532C73.2755 214.532 72.8041 214.709 72.4308 215.064C72.0668 215.409 71.8335 215.927 71.7308 216.618ZM80.385 221L77.683 213.58H78.971L81.127 219.796L83.283 213.58H84.571L81.869 221H80.385ZM88.5297 221.168C87.8297 221.168 87.2231 221.009 86.7097 220.692C86.2057 220.375 85.8137 219.927 85.5337 219.348C85.2631 218.76 85.1277 218.074 85.1277 217.29C85.1277 216.506 85.2631 215.825 85.5337 215.246C85.8137 214.667 86.2011 214.219 86.6957 213.902C87.1997 213.575 87.7924 213.412 88.4737 213.412C89.1177 213.412 89.6871 213.566 90.1817 213.874C90.6764 214.173 91.0591 214.611 91.3297 215.19C91.6097 215.769 91.7497 216.473 91.7497 217.304V217.654H86.3597C86.4064 218.447 86.6164 219.045 86.9897 219.446C87.3724 219.847 87.8857 220.048 88.5297 220.048C89.0151 220.048 89.4117 219.936 89.7197 219.712C90.0371 219.479 90.2564 219.175 90.3777 218.802L91.6377 218.9C91.4417 219.563 91.0684 220.109 90.5177 220.538C89.9764 220.958 89.3137 221.168 88.5297 221.168ZM86.3597 216.618H90.4617C90.4057 215.899 90.1957 215.372 89.8317 215.036C89.4771 214.7 89.0244 214.532 88.4737 214.532C87.9044 214.532 87.4331 214.709 87.0597 215.064C86.6957 215.409 86.4624 215.927 86.3597 216.618ZM93.3427 221V213.58H94.3787L94.4347 215.456L94.3227 215.414C94.416 214.779 94.6167 214.317 94.9247 214.028C95.242 213.729 95.662 213.58 96.1847 213.58H96.9127V214.7H96.1987C95.8253 214.7 95.5127 214.77 95.2607 214.91C95.018 215.041 94.8313 215.241 94.7007 215.512C94.5793 215.773 94.5187 216.109 94.5187 216.52V221H93.3427ZM102.469 223.1V222.064H103.323C103.585 222.064 103.776 222.022 103.897 221.938C104.028 221.863 104.126 221.737 104.191 221.56L104.457 220.86H104.051L101.335 213.58H102.623L104.835 219.768L106.949 213.58H108.237L105.227 221.938C105.087 222.339 104.877 222.633 104.597 222.82C104.317 223.007 103.93 223.1 103.435 223.1H102.469ZM112.196 221.168C111.514 221.168 110.917 221.009 110.404 220.692C109.89 220.375 109.494 219.927 109.214 219.348C108.934 218.76 108.794 218.074 108.794 217.29C108.794 216.497 108.934 215.811 109.214 215.232C109.494 214.653 109.89 214.205 110.404 213.888C110.917 213.571 111.514 213.412 112.196 213.412C112.877 213.412 113.47 213.571 113.974 213.888C114.487 214.205 114.884 214.653 115.164 215.232C115.444 215.811 115.584 216.497 115.584 217.29C115.584 218.074 115.444 218.76 115.164 219.348C114.884 219.927 114.487 220.375 113.974 220.692C113.47 221.009 112.877 221.168 112.196 221.168ZM112.196 220.048C112.877 220.048 113.404 219.805 113.778 219.32C114.16 218.825 114.352 218.149 114.352 217.29C114.352 216.431 114.16 215.759 113.778 215.274C113.404 214.779 112.877 214.532 112.196 214.532C111.514 214.532 110.982 214.779 110.6 215.274C110.217 215.759 110.026 216.431 110.026 217.29C110.026 218.149 110.217 218.825 110.6 219.32C110.982 219.805 111.514 220.048 112.196 220.048ZM119.622 221.168C118.885 221.168 118.292 220.921 117.844 220.426C117.406 219.922 117.186 219.231 117.186 218.354V213.58H118.362V218.032C118.362 218.751 118.488 219.283 118.74 219.628C119.002 219.964 119.398 220.132 119.93 220.132C120.518 220.132 120.98 219.945 121.316 219.572C121.652 219.189 121.82 218.667 121.82 218.004V213.58H122.996V221H121.876V219.166L122.058 219.264C121.909 219.871 121.624 220.342 121.204 220.678C120.784 221.005 120.257 221.168 119.622 221.168ZM130.223 221L127.927 213.58H129.215L130.951 219.768L132.715 213.58H133.975L135.739 219.768L137.489 213.58H138.777L136.481 221H134.997L133.345 215.358L131.693 221H130.223ZM141.897 221.168C141.132 221.168 140.521 220.991 140.063 220.636C139.615 220.281 139.391 219.787 139.391 219.152C139.391 218.517 139.578 218.018 139.951 217.654C140.325 217.29 140.917 217.033 141.729 216.884L144.361 216.394C144.361 215.769 144.212 215.302 143.913 214.994C143.624 214.686 143.185 214.532 142.597 214.532C142.084 214.532 141.678 214.649 141.379 214.882C141.081 215.106 140.875 215.433 140.763 215.862L139.517 215.764C139.657 215.064 139.993 214.499 140.525 214.07C141.067 213.631 141.757 213.412 142.597 213.412C143.549 213.412 144.277 213.683 144.781 214.224C145.285 214.756 145.537 215.493 145.537 216.436V219.502C145.537 219.67 145.565 219.791 145.621 219.866C145.687 219.931 145.789 219.964 145.929 219.964H146.223V221C146.186 221.009 146.125 221.014 146.041 221.014C145.957 221.023 145.869 221.028 145.775 221.028C145.439 221.028 145.164 220.977 144.949 220.874C144.744 220.762 144.595 220.594 144.501 220.37C144.408 220.137 144.361 219.833 144.361 219.46L144.501 219.488C144.436 219.805 144.277 220.095 144.025 220.356C143.773 220.608 143.461 220.809 143.087 220.958C142.714 221.098 142.317 221.168 141.897 221.168ZM142.009 220.132C142.504 220.132 142.924 220.039 143.269 219.852C143.624 219.656 143.895 219.395 144.081 219.068C144.268 218.732 144.361 218.359 144.361 217.948V217.416L141.953 217.864C141.449 217.957 141.099 218.102 140.903 218.298C140.717 218.485 140.623 218.732 140.623 219.04C140.623 219.385 140.745 219.656 140.987 219.852C141.239 220.039 141.58 220.132 142.009 220.132ZM147.552 221V213.58H148.63L148.672 215.47L148.532 215.344C148.625 214.905 148.788 214.546 149.022 214.266C149.255 213.977 149.535 213.762 149.862 213.622C150.198 213.482 150.557 213.412 150.94 213.412C151.509 213.412 151.976 213.538 152.34 213.79C152.713 214.042 152.988 214.383 153.166 214.812C153.352 215.232 153.446 215.703 153.446 216.226V221H152.27V216.562C152.27 216.105 152.214 215.722 152.102 215.414C151.999 215.097 151.831 214.859 151.598 214.7C151.364 214.532 151.061 214.448 150.688 214.448C150.118 214.448 149.647 214.63 149.274 214.994C148.91 215.349 148.728 215.871 148.728 216.562V221H147.552ZM157.842 221C157.17 221 156.671 220.846 156.344 220.538C156.027 220.23 155.868 219.749 155.868 219.096V211.844H157.044V219.068C157.044 219.404 157.119 219.637 157.268 219.768C157.417 219.899 157.646 219.964 157.954 219.964H159.018V221H157.842ZM154.776 214.616V213.58H159.018V214.616H154.776ZM166.824 221C166.152 221 165.653 220.846 165.326 220.538C165.009 220.23 164.85 219.749 164.85 219.096V211.844H166.026V219.068C166.026 219.404 166.101 219.637 166.25 219.768C166.4 219.899 166.628 219.964 166.936 219.964H168V221H166.824ZM163.758 214.616V213.58H168V214.616H163.758ZM172.27 221.168C171.589 221.168 170.991 221.009 170.478 220.692C169.965 220.375 169.568 219.927 169.288 219.348C169.008 218.76 168.868 218.074 168.868 217.29C168.868 216.497 169.008 215.811 169.288 215.232C169.568 214.653 169.965 214.205 170.478 213.888C170.991 213.571 171.589 213.412 172.27 213.412C172.951 213.412 173.544 213.571 174.048 213.888C174.561 214.205 174.958 214.653 175.238 215.232C175.518 215.811 175.658 216.497 175.658 217.29C175.658 218.074 175.518 218.76 175.238 219.348C174.958 219.927 174.561 220.375 174.048 220.692C173.544 221.009 172.951 221.168 172.27 221.168ZM172.27 220.048C172.951 220.048 173.479 219.805 173.852 219.32C174.235 218.825 174.426 218.149 174.426 217.29C174.426 216.431 174.235 215.759 173.852 215.274C173.479 214.779 172.951 214.532 172.27 214.532C171.589 214.532 171.057 214.779 170.674 215.274C170.291 215.759 170.1 216.431 170.1 217.29C170.1 218.149 170.291 218.825 170.674 219.32C171.057 219.805 171.589 220.048 172.27 220.048ZM180.897 223.1V213.58H181.989L182.017 215.176L181.849 215.092C182.036 214.541 182.344 214.126 182.773 213.846C183.212 213.557 183.716 213.412 184.285 213.412C185.023 213.412 185.625 213.594 186.091 213.958C186.567 214.322 186.917 214.798 187.141 215.386C187.375 215.974 187.491 216.609 187.491 217.29C187.491 217.971 187.375 218.606 187.141 219.194C186.917 219.782 186.567 220.258 186.091 220.622C185.625 220.986 185.023 221.168 184.285 221.168C183.903 221.168 183.543 221.103 183.207 220.972C182.881 220.841 182.601 220.659 182.367 220.426C182.143 220.193 181.989 219.917 181.905 219.6L182.073 219.404V223.1H180.897ZM184.173 220.048C184.817 220.048 185.326 219.805 185.699 219.32C186.073 218.835 186.259 218.158 186.259 217.29C186.259 216.422 186.073 215.745 185.699 215.26C185.326 214.775 184.817 214.532 184.173 214.532C183.744 214.532 183.371 214.635 183.053 214.84C182.745 215.045 182.503 215.353 182.325 215.764C182.157 216.175 182.073 216.683 182.073 217.29C182.073 217.897 182.157 218.405 182.325 218.816C182.493 219.227 182.736 219.535 183.053 219.74C183.371 219.945 183.744 220.048 184.173 220.048ZM189.087 221V213.58H190.123L190.179 215.456L190.067 215.414C190.16 214.779 190.361 214.317 190.669 214.028C190.986 213.729 191.406 213.58 191.929 213.58H192.657V214.7H191.943C191.569 214.7 191.257 214.77 191.005 214.91C190.762 215.041 190.575 215.241 190.445 215.512C190.323 215.773 190.263 216.109 190.263 216.52V221H189.087ZM196.729 221.168C196.029 221.168 195.422 221.009 194.909 220.692C194.405 220.375 194.013 219.927 193.733 219.348C193.462 218.76 193.327 218.074 193.327 217.29C193.327 216.506 193.462 215.825 193.733 215.246C194.013 214.667 194.4 214.219 194.895 213.902C195.399 213.575 195.992 213.412 196.673 213.412C197.317 213.412 197.886 213.566 198.381 213.874C198.876 214.173 199.258 214.611 199.529 215.19C199.809 215.769 199.949 216.473 199.949 217.304V217.654H194.559C194.606 218.447 194.816 219.045 195.189 219.446C195.572 219.847 196.085 220.048 196.729 220.048C197.214 220.048 197.611 219.936 197.919 219.712C198.236 219.479 198.456 219.175 198.577 218.802L199.837 218.9C199.641 219.563 199.268 220.109 198.717 220.538C198.176 220.958 197.513 221.168 196.729 221.168ZM194.559 216.618H198.661C198.605 215.899 198.395 215.372 198.031 215.036C197.676 214.7 197.224 214.532 196.673 214.532C196.104 214.532 195.632 214.709 195.259 215.064C194.895 215.409 194.662 215.927 194.559 216.618ZM204.244 221.168C203.581 221.168 203.017 221.061 202.55 220.846C202.093 220.631 201.733 220.337 201.472 219.964C201.22 219.581 201.075 219.147 201.038 218.662L202.27 218.578C202.345 219.026 202.536 219.385 202.844 219.656C203.152 219.917 203.619 220.048 204.244 220.048C204.748 220.048 205.149 219.969 205.448 219.81C205.756 219.642 205.91 219.376 205.91 219.012C205.91 218.816 205.863 218.653 205.77 218.522C205.677 218.391 205.495 218.279 205.224 218.186C204.953 218.083 204.552 217.985 204.02 217.892C203.311 217.761 202.751 217.603 202.34 217.416C201.939 217.22 201.649 216.982 201.472 216.702C201.304 216.413 201.22 216.072 201.22 215.68C201.22 215.017 201.463 214.476 201.948 214.056C202.433 213.627 203.124 213.412 204.02 213.412C204.627 213.412 205.135 213.524 205.546 213.748C205.966 213.963 206.293 214.252 206.526 214.616C206.769 214.971 206.927 215.363 207.002 215.792L205.77 215.876C205.714 215.615 205.611 215.386 205.462 215.19C205.313 214.985 205.117 214.826 204.874 214.714C204.631 214.593 204.342 214.532 204.006 214.532C203.474 214.532 203.082 214.635 202.83 214.84C202.578 215.045 202.452 215.307 202.452 215.624C202.452 215.867 202.508 216.067 202.62 216.226C202.741 216.375 202.933 216.501 203.194 216.604C203.455 216.697 203.805 216.781 204.244 216.856C205 216.987 205.588 217.145 206.008 217.332C206.428 217.519 206.722 217.747 206.89 218.018C207.058 218.289 207.142 218.62 207.142 219.012C207.142 219.469 207.011 219.861 206.75 220.188C206.498 220.505 206.153 220.748 205.714 220.916C205.285 221.084 204.795 221.168 204.244 221.168ZM211.645 221.168C210.945 221.168 210.338 221.009 209.825 220.692C209.321 220.375 208.929 219.927 208.649 219.348C208.378 218.76 208.243 218.074 208.243 217.29C208.243 216.506 208.378 215.825 208.649 215.246C208.929 214.667 209.316 214.219 209.811 213.902C210.315 213.575 210.908 213.412 211.589 213.412C212.233 213.412 212.802 213.566 213.297 213.874C213.792 214.173 214.174 214.611 214.445 215.19C214.725 215.769 214.865 216.473 214.865 217.304V217.654H209.475C209.522 218.447 209.732 219.045 210.105 219.446C210.488 219.847 211.001 220.048 211.645 220.048C212.13 220.048 212.527 219.936 212.835 219.712C213.152 219.479 213.372 219.175 213.493 218.802L214.753 218.9C214.557 219.563 214.184 220.109 213.633 220.538C213.092 220.958 212.429 221.168 211.645 221.168ZM209.475 216.618H213.577C213.521 215.899 213.311 215.372 212.947 215.036C212.592 214.7 212.14 214.532 211.589 214.532C211.02 214.532 210.548 214.709 210.175 215.064C209.811 215.409 209.578 215.927 209.475 216.618ZM216.458 221V213.58H217.536L217.578 215.47L217.438 215.344C217.531 214.905 217.695 214.546 217.928 214.266C218.161 213.977 218.441 213.762 218.768 213.622C219.104 213.482 219.463 213.412 219.846 213.412C220.415 213.412 220.882 213.538 221.246 213.79C221.619 214.042 221.895 214.383 222.072 214.812C222.259 215.232 222.352 215.703 222.352 216.226V221H221.176V216.562C221.176 216.105 221.12 215.722 221.008 215.414C220.905 215.097 220.737 214.859 220.504 214.7C220.271 214.532 219.967 214.448 219.594 214.448C219.025 214.448 218.553 214.63 218.18 214.994C217.816 215.349 217.634 215.871 217.634 216.562V221H216.458ZM226.748 221C226.076 221 225.577 220.846 225.25 220.538C224.933 220.23 224.774 219.749 224.774 219.096V211.844H225.95V219.068C225.95 219.404 226.025 219.637 226.174 219.768C226.323 219.899 226.552 219.964 226.86 219.964H227.924V221H226.748ZM223.682 214.616V213.58H227.924V214.616H223.682ZM235.913 221.168C235.231 221.168 234.634 221.009 234.121 220.692C233.607 220.375 233.211 219.927 232.931 219.348C232.651 218.76 232.511 218.074 232.511 217.29C232.511 216.497 232.651 215.811 232.931 215.232C233.211 214.653 233.607 214.205 234.121 213.888C234.634 213.571 235.231 213.412 235.913 213.412C236.594 213.412 237.187 213.571 237.691 213.888C238.204 214.205 238.601 214.653 238.881 215.232C239.161 215.811 239.301 216.497 239.301 217.29C239.301 218.074 239.161 218.76 238.881 219.348C238.601 219.927 238.204 220.375 237.691 220.692C237.187 221.009 236.594 221.168 235.913 221.168ZM235.913 220.048C236.594 220.048 237.121 219.805 237.495 219.32C237.877 218.825 238.069 218.149 238.069 217.29C238.069 216.431 237.877 215.759 237.495 215.274C237.121 214.779 236.594 214.532 235.913 214.532C235.231 214.532 234.699 214.779 234.317 215.274C233.934 215.759 233.743 216.431 233.743 217.29C233.743 218.149 233.934 218.825 234.317 219.32C234.699 219.805 235.231 220.048 235.913 220.048ZM240.903 221V213.58H241.981L242.023 215.47L241.883 215.344C241.977 214.905 242.14 214.546 242.373 214.266C242.607 213.977 242.887 213.762 243.213 213.622C243.549 213.482 243.909 213.412 244.291 213.412C244.861 213.412 245.327 213.538 245.691 213.79C246.065 214.042 246.34 214.383 246.517 214.812C246.704 215.232 246.797 215.703 246.797 216.226V221H245.621V216.562C245.621 216.105 245.565 215.722 245.453 215.414C245.351 215.097 245.183 214.859 244.949 214.7C244.716 214.532 244.413 214.448 244.039 214.448C243.47 214.448 242.999 214.63 242.625 214.994C242.261 215.349 242.079 215.871 242.079 216.562V221H240.903ZM39.442 240.1V239.064H40.296C40.5573 239.064 40.7487 239.022 40.87 238.938C41.0007 238.863 41.0987 238.737 41.164 238.56L41.43 237.86H41.024L38.308 230.58H39.596L41.808 236.768L43.922 230.58H45.21L42.2 238.938C42.06 239.339 41.85 239.633 41.57 239.82C41.29 240.007 40.9027 240.1 40.408 240.1H39.442ZM49.1684 238.168C48.4871 238.168 47.8897 238.009 47.3764 237.692C46.8631 237.375 46.4664 236.927 46.1864 236.348C45.9064 235.76 45.7664 235.074 45.7664 234.29C45.7664 233.497 45.9064 232.811 46.1864 232.232C46.4664 231.653 46.8631 231.205 47.3764 230.888C47.8897 230.571 48.4871 230.412 49.1684 230.412C49.8497 230.412 50.4424 230.571 50.9464 230.888C51.4597 231.205 51.8564 231.653 52.1364 232.232C52.4164 232.811 52.5564 233.497 52.5564 234.29C52.5564 235.074 52.4164 235.76 52.1364 236.348C51.8564 236.927 51.4597 237.375 50.9464 237.692C50.4424 238.009 49.8497 238.168 49.1684 238.168ZM49.1684 237.048C49.8497 237.048 50.3771 236.805 50.7504 236.32C51.1331 235.825 51.3244 235.149 51.3244 234.29C51.3244 233.431 51.1331 232.759 50.7504 232.274C50.3771 231.779 49.8497 231.532 49.1684 231.532C48.4871 231.532 47.9551 231.779 47.5724 232.274C47.1897 232.759 46.9984 233.431 46.9984 234.29C46.9984 235.149 47.1897 235.825 47.5724 236.32C47.9551 236.805 48.4871 237.048 49.1684 237.048ZM56.5951 238.168C55.8577 238.168 55.2651 237.921 54.8171 237.426C54.3784 236.922 54.1591 236.231 54.1591 235.354V230.58H55.3351V235.032C55.3351 235.751 55.4611 236.283 55.7131 236.628C55.9744 236.964 56.3711 237.132 56.9031 237.132C57.4911 237.132 57.9531 236.945 58.2891 236.572C58.6251 236.189 58.7931 235.667 58.7931 235.004V230.58H59.9691V238H58.8491V236.166L59.0311 236.264C58.8817 236.871 58.5971 237.342 58.1771 237.678C57.7571 238.005 57.2297 238.168 56.5951 238.168ZM62.2118 238V230.58H63.2478L63.3038 232.456L63.1918 232.414C63.2851 231.779 63.4858 231.317 63.7938 231.028C64.1111 230.729 64.5311 230.58 65.0538 230.58H65.7818V231.7H65.0678C64.6945 231.7 64.3818 231.77 64.1298 231.91C63.8871 232.041 63.7005 232.241 63.5698 232.512C63.4485 232.773 63.3878 233.109 63.3878 233.52V238H62.2118ZM71.1845 238V228.06H74.2645C75.7952 228.06 76.9712 228.494 77.7925 229.362C78.6232 230.221 79.0385 231.448 79.0385 233.044C79.0385 234.631 78.6325 235.853 77.8205 236.712C77.0085 237.571 75.8512 238 74.3485 238H71.1845ZM72.3885 236.824H74.2645C75.4312 236.824 76.3085 236.511 76.8965 235.886C77.4845 235.251 77.7785 234.304 77.7785 233.044C77.7785 231.765 77.4845 230.813 76.8965 230.188C76.3085 229.553 75.4312 229.236 74.2645 229.236H72.3885V236.824ZM83.8813 238.168C83.1999 238.168 82.6026 238.009 82.0893 237.692C81.5759 237.375 81.1793 236.927 80.8993 236.348C80.6193 235.76 80.4793 235.074 80.4793 234.29C80.4793 233.497 80.6193 232.811 80.8993 232.232C81.1793 231.653 81.5759 231.205 82.0893 230.888C82.6026 230.571 83.1999 230.412 83.8813 230.412C84.5626 230.412 85.1553 230.571 85.6593 230.888C86.1726 231.205 86.5693 231.653 86.8493 232.232C87.1293 232.811 87.2693 233.497 87.2693 234.29C87.2693 235.074 87.1293 235.76 86.8493 236.348C86.5693 236.927 86.1726 237.375 85.6593 237.692C85.1553 238.009 84.5626 238.168 83.8813 238.168ZM83.8813 237.048C84.5626 237.048 85.0899 236.805 85.4633 236.32C85.8459 235.825 86.0373 235.149 86.0373 234.29C86.0373 233.431 85.8459 232.759 85.4633 232.274C85.0899 231.779 84.5626 231.532 83.8813 231.532C83.1999 231.532 82.6679 231.779 82.2853 232.274C81.9026 232.759 81.7113 233.431 81.7113 234.29C81.7113 235.149 81.9026 235.825 82.2853 236.32C82.6679 236.805 83.1999 237.048 83.8813 237.048ZM91.77 238.168C91.0793 238.168 90.4773 238.009 89.964 237.692C89.46 237.375 89.068 236.927 88.788 236.348C88.508 235.76 88.368 235.074 88.368 234.29C88.368 233.506 88.508 232.825 88.788 232.246C89.068 231.667 89.46 231.219 89.964 230.902C90.4773 230.575 91.0793 230.412 91.77 230.412C92.3393 230.412 92.8433 230.515 93.282 230.72C93.73 230.916 94.094 231.205 94.374 231.588C94.654 231.971 94.836 232.437 94.92 232.988L93.688 233.072C93.604 232.577 93.3893 232.199 93.044 231.938C92.6986 231.667 92.274 231.532 91.77 231.532C91.0886 231.532 90.5566 231.779 90.174 232.274C89.7913 232.759 89.6 233.431 89.6 234.29C89.6 235.149 89.7913 235.825 90.174 236.32C90.5566 236.805 91.0886 237.048 91.77 237.048C92.274 237.048 92.6986 236.908 93.044 236.628C93.3893 236.348 93.604 235.928 93.688 235.368L94.92 235.452C94.836 236.003 94.654 236.483 94.374 236.894C94.094 237.295 93.73 237.608 93.282 237.832C92.8433 238.056 92.3393 238.168 91.77 238.168ZM98.8138 238.168C98.0765 238.168 97.4838 237.921 97.0358 237.426C96.5971 236.922 96.3778 236.231 96.3778 235.354V230.58H97.5538V235.032C97.5538 235.751 97.6798 236.283 97.9318 236.628C98.1931 236.964 98.5898 237.132 99.1218 237.132C99.7098 237.132 100.172 236.945 100.508 236.572C100.844 236.189 101.012 235.667 101.012 235.004V230.58H102.188V238H101.068V236.166L101.25 236.264C101.1 236.871 100.816 237.342 100.396 237.678C99.9758 238.005 99.4485 238.168 98.8138 238.168ZM104.431 238V230.58H105.509L105.551 232.456L105.383 232.4C105.467 231.989 105.611 231.639 105.817 231.35C106.031 231.051 106.293 230.823 106.601 230.664C106.909 230.496 107.249 230.412 107.623 230.412C108.267 230.412 108.789 230.589 109.191 230.944C109.601 231.299 109.858 231.793 109.961 232.428L109.737 232.414C109.811 231.985 109.947 231.625 110.143 231.336C110.348 231.037 110.609 230.809 110.927 230.65C111.244 230.491 111.608 230.412 112.019 230.412C112.551 230.412 112.999 230.524 113.363 230.748C113.727 230.963 114.002 231.28 114.189 231.7C114.375 232.12 114.469 232.629 114.469 233.226V238H113.293V233.478C113.293 232.806 113.162 232.302 112.901 231.966C112.639 231.621 112.252 231.448 111.739 231.448C111.393 231.448 111.09 231.532 110.829 231.7C110.577 231.868 110.381 232.111 110.241 232.428C110.101 232.736 110.031 233.114 110.031 233.562V238H108.855V233.562C108.855 232.899 108.738 232.381 108.505 232.008C108.271 231.635 107.879 231.448 107.329 231.448C106.983 231.448 106.68 231.532 106.419 231.7C106.167 231.868 105.966 232.111 105.817 232.428C105.677 232.745 105.607 233.123 105.607 233.562V238H104.431ZM119.442 238.168C118.742 238.168 118.135 238.009 117.622 237.692C117.118 237.375 116.726 236.927 116.446 236.348C116.175 235.76 116.04 235.074 116.04 234.29C116.04 233.506 116.175 232.825 116.446 232.246C116.726 231.667 117.113 231.219 117.608 230.902C118.112 230.575 118.704 230.412 119.386 230.412C120.03 230.412 120.599 230.566 121.094 230.874C121.588 231.173 121.971 231.611 122.242 232.19C122.522 232.769 122.662 233.473 122.662 234.304V234.654H117.272C117.318 235.447 117.528 236.045 117.902 236.446C118.284 236.847 118.798 237.048 119.442 237.048C119.927 237.048 120.324 236.936 120.632 236.712C120.949 236.479 121.168 236.175 121.29 235.802L122.55 235.9C122.354 236.563 121.98 237.109 121.43 237.538C120.888 237.958 120.226 238.168 119.442 238.168ZM117.272 233.618H121.374C121.318 232.899 121.108 232.372 120.744 232.036C120.389 231.7 119.936 231.532 119.386 231.532C118.816 231.532 118.345 231.709 117.972 232.064C117.608 232.409 117.374 232.927 117.272 233.618ZM124.255 238V230.58H125.333L125.375 232.47L125.235 232.344C125.328 231.905 125.491 231.546 125.725 231.266C125.958 230.977 126.238 230.762 126.565 230.622C126.901 230.482 127.26 230.412 127.643 230.412C128.212 230.412 128.679 230.538 129.043 230.79C129.416 231.042 129.691 231.383 129.869 231.812C130.055 232.232 130.149 232.703 130.149 233.226V238H128.973V233.562C128.973 233.105 128.917 232.722 128.805 232.414C128.702 232.097 128.534 231.859 128.301 231.7C128.067 231.532 127.764 231.448 127.391 231.448C126.821 231.448 126.35 231.63 125.977 231.994C125.613 232.349 125.431 232.871 125.431 233.562V238H124.255ZM134.545 238C133.873 238 133.374 237.846 133.047 237.538C132.73 237.23 132.571 236.749 132.571 236.096V228.844H133.747V236.068C133.747 236.404 133.822 236.637 133.971 236.768C134.12 236.899 134.349 236.964 134.657 236.964H135.721V238H134.545ZM131.479 231.616V230.58H135.721V231.616H131.479ZM139.177 238.168C138.411 238.168 137.8 237.991 137.343 237.636C136.895 237.281 136.671 236.787 136.671 236.152C136.671 235.517 136.857 235.018 137.231 234.654C137.604 234.29 138.197 234.033 139.009 233.884L141.641 233.394C141.641 232.769 141.491 232.302 141.193 231.994C140.903 231.686 140.465 231.532 139.877 231.532C139.363 231.532 138.957 231.649 138.659 231.882C138.36 232.106 138.155 232.433 138.043 232.862L136.797 232.764C136.937 232.064 137.273 231.499 137.805 231.07C138.346 230.631 139.037 230.412 139.877 230.412C140.829 230.412 141.557 230.683 142.061 231.224C142.565 231.756 142.817 232.493 142.817 233.436V236.502C142.817 236.67 142.845 236.791 142.901 236.866C142.966 236.931 143.069 236.964 143.209 236.964H143.503V238C143.465 238.009 143.405 238.014 143.321 238.014C143.237 238.023 143.148 238.028 143.055 238.028C142.719 238.028 142.443 237.977 142.229 237.874C142.023 237.762 141.874 237.594 141.781 237.37C141.687 237.137 141.641 236.833 141.641 236.46L141.781 236.488C141.715 236.805 141.557 237.095 141.305 237.356C141.053 237.608 140.74 237.809 140.367 237.958C139.993 238.098 139.597 238.168 139.177 238.168ZM139.289 237.132C139.783 237.132 140.203 237.039 140.549 236.852C140.903 236.656 141.174 236.395 141.361 236.068C141.547 235.732 141.641 235.359 141.641 234.948V234.416L139.233 234.864C138.729 234.957 138.379 235.102 138.183 235.298C137.996 235.485 137.903 235.732 137.903 236.04C137.903 236.385 138.024 236.656 138.267 236.852C138.519 237.039 138.859 237.132 139.289 237.132ZM147.178 238C146.506 238 146.006 237.846 145.68 237.538C145.362 237.23 145.204 236.749 145.204 236.096V228.844H146.38V236.068C146.38 236.404 146.454 236.637 146.604 236.768C146.753 236.899 146.982 236.964 147.29 236.964H148.354V238H147.178ZM144.112 231.616V230.58H148.354V231.616H144.112ZM149.862 238V230.58H151.038V238H149.862ZM149.834 229.418V228.046H151.066V229.418H149.834ZM156.041 238.168C155.36 238.168 154.763 238.009 154.249 237.692C153.736 237.375 153.339 236.927 153.059 236.348C152.779 235.76 152.639 235.074 152.639 234.29C152.639 233.497 152.779 232.811 153.059 232.232C153.339 231.653 153.736 231.205 154.249 230.888C154.763 230.571 155.36 230.412 156.041 230.412C156.723 230.412 157.315 230.571 157.819 230.888C158.333 231.205 158.729 231.653 159.009 232.232C159.289 232.811 159.429 233.497 159.429 234.29C159.429 235.074 159.289 235.76 159.009 236.348C158.729 236.927 158.333 237.375 157.819 237.692C157.315 238.009 156.723 238.168 156.041 238.168ZM156.041 237.048C156.723 237.048 157.25 236.805 157.623 236.32C158.006 235.825 158.197 235.149 158.197 234.29C158.197 233.431 158.006 232.759 157.623 232.274C157.25 231.779 156.723 231.532 156.041 231.532C155.36 231.532 154.828 231.779 154.445 232.274C154.063 232.759 153.871 233.431 153.871 234.29C153.871 235.149 154.063 235.825 154.445 236.32C154.828 236.805 155.36 237.048 156.041 237.048ZM161.032 238V230.58H162.11L162.152 232.47L162.012 232.344C162.105 231.905 162.269 231.546 162.502 231.266C162.735 230.977 163.015 230.762 163.342 230.622C163.678 230.482 164.037 230.412 164.42 230.412C164.989 230.412 165.456 230.538 165.82 230.79C166.193 231.042 166.469 231.383 166.646 231.812C166.833 232.232 166.926 232.703 166.926 233.226V238H165.75V233.562C165.75 233.105 165.694 232.722 165.582 232.414C165.479 232.097 165.311 231.859 165.078 231.7C164.845 231.532 164.541 231.448 164.168 231.448C163.599 231.448 163.127 231.63 162.754 231.994C162.39 232.349 162.208 232.871 162.208 233.562V238H161.032ZM168.663 238V236.418H170.245V238H168.663Z" fill="white"/>
<path d="M48.56 121V108.856L37.692 89.76H45.084L51.904 102.344L58.68 89.76H66.072L55.248 108.856V121H48.56ZM76.2601 121.528C73.8547 121.528 71.7574 121.029 69.9681 120.032C68.1787 119.005 66.7854 117.568 65.7881 115.72C64.7907 113.872 64.2921 111.701 64.2921 109.208C64.2921 106.715 64.7907 104.559 65.7881 102.74C66.7854 100.892 68.1787 99.4547 69.9681 98.428C71.7574 97.4013 73.8547 96.888 76.2601 96.888C78.6654 96.888 80.7627 97.4013 82.5521 98.428C84.3414 99.4547 85.7347 100.892 86.7321 102.74C87.7294 104.559 88.2281 106.715 88.2281 109.208C88.2281 111.701 87.7294 113.872 86.7321 115.72C85.7347 117.568 84.3414 119.005 82.5521 120.032C80.7627 121.029 78.6654 121.528 76.2601 121.528ZM76.2601 116.468C77.9027 116.468 79.1787 115.837 80.0881 114.576C80.9974 113.285 81.4521 111.496 81.4521 109.208C81.4521 106.92 80.9974 105.145 80.0881 103.884C79.1787 102.593 77.9027 101.948 76.2601 101.948C74.6174 101.948 73.3414 102.593 72.4321 103.884C71.5227 105.145 71.0681 106.92 71.0681 109.208C71.0681 111.496 71.5227 113.285 72.4321 114.576C73.3414 115.837 74.6174 116.468 76.2601 116.468ZM100.082 121.528C97.6469 121.528 95.7403 120.751 94.3616 119.196C93.0123 117.612 92.3376 115.412 92.3376 112.596V97.416H98.9376V111.056C98.9376 112.875 99.2163 114.209 99.7736 115.06C100.331 115.881 101.211 116.292 102.414 116.292C103.763 116.292 104.804 115.837 105.538 114.928C106.3 113.989 106.682 112.596 106.682 110.748V97.416H113.282V121H107.254L107.078 114.224L107.914 114.4C107.562 116.747 106.726 118.521 105.406 119.724C104.086 120.927 102.311 121.528 100.082 121.528ZM119.064 121V97.416H125.312L125.532 104.28L125.048 104.148C125.429 101.772 126.104 100.056 127.072 99C128.04 97.944 129.375 97.416 131.076 97.416H133.232V102.872H131.076C129.844 102.872 128.832 103.033 128.04 103.356C127.248 103.679 126.647 104.192 126.236 104.896C125.855 105.6 125.664 106.553 125.664 107.756V121H119.064ZM148.119 121V89.76H155.511L167.919 111.32V89.76H174.607V121H167.127L154.807 100.188V121H148.119ZM190.942 121.528C188.536 121.528 186.439 121.029 184.65 120.032C182.89 119.005 181.511 117.568 180.514 115.72C179.546 113.872 179.062 111.701 179.062 109.208C179.062 106.715 179.546 104.559 180.514 102.74C181.511 100.892 182.89 99.4547 184.65 98.428C186.41 97.4013 188.492 96.888 190.898 96.888C193.244 96.888 195.283 97.4013 197.014 98.428C198.744 99.4547 200.079 100.921 201.018 102.828C201.986 104.735 202.47 107.008 202.47 109.648V110.968H185.882C185.97 112.845 186.468 114.239 187.378 115.148C188.316 116.057 189.548 116.512 191.074 116.512C192.188 116.512 193.112 116.277 193.846 115.808C194.608 115.339 195.151 114.62 195.474 113.652L202.118 114.048C201.502 116.395 200.196 118.228 198.202 119.548C196.207 120.868 193.787 121.528 190.942 121.528ZM185.882 106.92H195.694C195.606 105.189 195.122 103.899 194.242 103.048C193.391 102.197 192.276 101.772 190.898 101.772C189.519 101.772 188.375 102.227 187.466 103.136C186.586 104.016 186.058 105.277 185.882 106.92ZM210.705 121L203.709 97.416H210.353L214.401 113.388L218.757 97.416H224.125L228.481 113.388L232.573 97.416H239.217L232.221 121H225.797L221.441 106.26L217.085 121H210.705Z" fill="white"/>
<path d="M41.256 171V139.76H52.036C57.1107 139.76 61.012 141.124 63.74 143.852C66.468 146.551 67.832 150.408 67.832 155.424C67.832 160.411 66.4827 164.253 63.784 166.952C61.1147 169.651 57.2867 171 52.3 171H41.256ZM47.944 165.368H52.036C55.0573 165.368 57.2867 164.561 58.724 162.948C60.1907 161.305 60.924 158.783 60.924 155.38C60.924 151.977 60.1907 149.469 58.724 147.856C57.2867 146.213 55.0573 145.392 52.036 145.392H47.944V165.368ZM83.4768 171.528C81.0714 171.528 78.9741 171.029 77.1848 170.032C75.4248 169.005 74.0461 167.568 73.0488 165.72C72.0808 163.872 71.5968 161.701 71.5968 159.208C71.5968 156.715 72.0808 154.559 73.0488 152.74C74.0461 150.892 75.4248 149.455 77.1848 148.428C78.9448 147.401 81.0274 146.888 83.4328 146.888C85.7794 146.888 87.8181 147.401 89.5488 148.428C91.2794 149.455 92.6141 150.921 93.5528 152.828C94.5208 154.735 95.0048 157.008 95.0048 159.648V160.968H78.4168C78.5048 162.845 79.0034 164.239 79.9128 165.148C80.8514 166.057 82.0834 166.512 83.6088 166.512C84.7234 166.512 85.6474 166.277 86.3808 165.808C87.1434 165.339 87.6861 164.62 88.0088 163.652L94.6528 164.048C94.0368 166.395 92.7314 168.228 90.7368 169.548C88.7421 170.868 86.3221 171.528 83.4768 171.528ZM78.4168 156.92H88.2288C88.1408 155.189 87.6568 153.899 86.7768 153.048C85.9261 152.197 84.8114 151.772 83.4328 151.772C82.0541 151.772 80.9101 152.227 80.0008 153.136C79.1208 154.016 78.5928 155.277 78.4168 156.92ZM104.868 171L96.2443 147.416H103.152L108.74 164.356L114.284 147.416H121.192L112.524 171H104.868ZM135.401 171V139.76H147.897C151.651 139.76 154.585 140.669 156.697 142.488C158.838 144.307 159.909 146.8 159.909 149.968C159.909 152.051 159.425 153.869 158.457 155.424C157.518 156.949 156.139 158.137 154.321 158.988C152.531 159.809 150.39 160.22 147.897 160.22H142.089V171H135.401ZM142.089 154.588H147.501C149.261 154.588 150.625 154.207 151.593 153.444C152.561 152.652 153.045 151.493 153.045 149.968C153.045 148.472 152.561 147.343 151.593 146.58C150.654 145.788 149.29 145.392 147.501 145.392H142.089V154.588ZM174.057 171.528C171.652 171.528 169.554 171.029 167.765 170.032C165.976 169.005 164.582 167.568 163.585 165.72C162.588 163.872 162.089 161.701 162.089 159.208C162.089 156.715 162.588 154.559 163.585 152.74C164.582 150.892 165.976 149.455 167.765 148.428C169.554 147.401 171.652 146.888 174.057 146.888C176.462 146.888 178.56 147.401 180.349 148.428C182.138 149.455 183.532 150.892 184.529 152.74C185.526 154.559 186.025 156.715 186.025 159.208C186.025 161.701 185.526 163.872 184.529 165.72C183.532 167.568 182.138 169.005 180.349 170.032C178.56 171.029 176.462 171.528 174.057 171.528ZM174.057 166.468C175.7 166.468 176.976 165.837 177.885 164.576C178.794 163.285 179.249 161.496 179.249 159.208C179.249 156.92 178.794 155.145 177.885 153.884C176.976 152.593 175.7 151.948 174.057 151.948C172.414 151.948 171.138 152.593 170.229 153.884C169.32 155.145 168.865 156.92 168.865 159.208C168.865 161.496 169.32 163.285 170.229 164.576C171.138 165.837 172.414 166.468 174.057 166.468ZM190.134 171V147.416H196.382L196.602 154.28L196.118 154.148C196.5 151.772 197.174 150.056 198.142 149C199.11 147.944 200.445 147.416 202.146 147.416H204.302V152.872H202.146C200.914 152.872 199.902 153.033 199.11 153.356C198.318 153.679 197.717 154.192 197.306 154.896C196.925 155.6 196.734 156.553 196.734 157.756V171H190.134ZM217.176 171C214.741 171 212.952 170.443 211.808 169.328C210.664 168.184 210.092 166.38 210.092 163.916V141.872H216.692V163.124C216.692 164.268 216.927 165.045 217.396 165.456C217.895 165.867 218.628 166.072 219.596 166.072H222.896V171H217.176ZM206.308 152.344V147.416H222.896V152.344H206.308ZM233.654 171.528C231.219 171.528 229.225 170.971 227.67 169.856C226.145 168.712 225.382 167.128 225.382 165.104C225.382 163.021 226.027 161.423 227.318 160.308C228.638 159.164 230.574 158.328 233.126 157.8L240.738 156.304C240.738 154.779 240.386 153.635 239.682 152.872C239.007 152.08 238.025 151.684 236.734 151.684C235.473 151.684 234.49 151.977 233.786 152.564C233.082 153.121 232.627 153.957 232.422 155.072L225.778 154.764C226.218 152.183 227.377 150.232 229.254 148.912C231.161 147.563 233.654 146.888 236.734 146.888C240.254 146.888 242.894 147.724 244.654 149.396C246.443 151.068 247.338 153.517 247.338 156.744V164.796C247.338 165.471 247.441 165.925 247.646 166.16C247.881 166.365 248.218 166.468 248.658 166.468H249.318V171C249.113 171.059 248.775 171.117 248.306 171.176C247.866 171.235 247.426 171.264 246.986 171.264C246.047 171.264 245.167 171.103 244.346 170.78C243.554 170.457 242.909 169.915 242.41 169.152C241.911 168.36 241.662 167.245 241.662 165.808L242.234 166.248C241.941 167.304 241.413 168.228 240.65 169.02C239.917 169.812 238.949 170.428 237.746 170.868C236.573 171.308 235.209 171.528 233.654 171.528ZM235.238 166.996C236.323 166.996 237.277 166.791 238.098 166.38C238.919 165.94 239.565 165.309 240.034 164.488C240.503 163.667 240.738 162.699 240.738 161.584V160.44L235.37 161.584C234.314 161.789 233.507 162.141 232.95 162.64C232.422 163.109 232.158 163.725 232.158 164.488C232.158 165.28 232.422 165.896 232.95 166.336C233.478 166.776 234.241 166.996 235.238 166.996ZM258.513 171C256.577 171 255.067 170.516 253.981 169.548C252.896 168.58 252.353 167.011 252.353 164.84V139.76H258.953V164.136C258.953 164.84 259.115 165.339 259.437 165.632C259.76 165.925 260.229 166.072 260.845 166.072H262.429V171H258.513Z" fill="black"/>
<path d="M41.256 171V139.76H52.036C57.1107 139.76 61.012 141.124 63.74 143.852C66.468 146.551 67.832 150.408 67.832 155.424C67.832 160.411 66.4827 164.253 63.784 166.952C61.1147 169.651 57.2867 171 52.3 171H41.256ZM47.944 165.368H52.036C55.0573 165.368 57.2867 164.561 58.724 162.948C60.1907 161.305 60.924 158.783 60.924 155.38C60.924 151.977 60.1907 149.469 58.724 147.856C57.2867 146.213 55.0573 145.392 52.036 145.392H47.944V165.368ZM83.4768 171.528C81.0714 171.528 78.9741 171.029 77.1848 170.032C75.4248 169.005 74.0461 167.568 73.0488 165.72C72.0808 163.872 71.5968 161.701 71.5968 159.208C71.5968 156.715 72.0808 154.559 73.0488 152.74C74.0461 150.892 75.4248 149.455 77.1848 148.428C78.9448 147.401 81.0274 146.888 83.4328 146.888C85.7794 146.888 87.8181 147.401 89.5488 148.428C91.2794 149.455 92.6141 150.921 93.5528 152.828C94.5208 154.735 95.0048 157.008 95.0048 159.648V160.968H78.4168C78.5048 162.845 79.0034 164.239 79.9128 165.148C80.8514 166.057 82.0834 166.512 83.6088 166.512C84.7234 166.512 85.6474 166.277 86.3808 165.808C87.1434 165.339 87.6861 164.62 88.0088 163.652L94.6528 164.048C94.0368 166.395 92.7314 168.228 90.7368 169.548C88.7421 170.868 86.3221 171.528 83.4768 171.528ZM78.4168 156.92H88.2288C88.1408 155.189 87.6568 153.899 86.7768 153.048C85.9261 152.197 84.8114 151.772 83.4328 151.772C82.0541 151.772 80.9101 152.227 80.0008 153.136C79.1208 154.016 78.5928 155.277 78.4168 156.92ZM104.868 171L96.2443 147.416H103.152L108.74 164.356L114.284 147.416H121.192L112.524 171H104.868ZM135.401 171V139.76H147.897C151.651 139.76 154.585 140.669 156.697 142.488C158.838 144.307 159.909 146.8 159.909 149.968C159.909 152.051 159.425 153.869 158.457 155.424C157.518 156.949 156.139 158.137 154.321 158.988C152.531 159.809 150.39 160.22 147.897 160.22H142.089V171H135.401ZM142.089 154.588H147.501C149.261 154.588 150.625 154.207 151.593 153.444C152.561 152.652 153.045 151.493 153.045 149.968C153.045 148.472 152.561 147.343 151.593 146.58C150.654 145.788 149.29 145.392 147.501 145.392H142.089V154.588ZM174.057 171.528C171.652 171.528 169.554 171.029 167.765 170.032C165.976 169.005 164.582 167.568 163.585 165.72C162.588 163.872 162.089 161.701 162.089 159.208C162.089 156.715 162.588 154.559 163.585 152.74C164.582 150.892 165.976 149.455 167.765 148.428C169.554 147.401 171.652 146.888 174.057 146.888C176.462 146.888 178.56 147.401 180.349 148.428C182.138 149.455 183.532 150.892 184.529 152.74C185.526 154.559 186.025 156.715 186.025 159.208C186.025 161.701 185.526 163.872 184.529 165.72C183.532 167.568 182.138 169.005 180.349 170.032C178.56 171.029 176.462 171.528 174.057 171.528ZM174.057 166.468C175.7 166.468 176.976 165.837 177.885 164.576C178.794 163.285 179.249 161.496 179.249 159.208C179.249 156.92 178.794 155.145 177.885 153.884C176.976 152.593 175.7 151.948 174.057 151.948C172.414 151.948 171.138 152.593 170.229 153.884C169.32 155.145 168.865 156.92 168.865 159.208C168.865 161.496 169.32 163.285 170.229 164.576C171.138 165.837 172.414 166.468 174.057 166.468ZM190.134 171V147.416H196.382L196.602 154.28L196.118 154.148C196.5 151.772 197.174 150.056 198.142 149C199.11 147.944 200.445 147.416 202.146 147.416H204.302V152.872H202.146C200.914 152.872 199.902 153.033 199.11 153.356C198.318 153.679 197.717 154.192 197.306 154.896C196.925 155.6 196.734 156.553 196.734 157.756V171H190.134ZM217.176 171C214.741 171 212.952 170.443 211.808 169.328C210.664 168.184 210.092 166.38 210.092 163.916V141.872H216.692V163.124C216.692 164.268 216.927 165.045 217.396 165.456C217.895 165.867 218.628 166.072 219.596 166.072H222.896V171H217.176ZM206.308 152.344V147.416H222.896V152.344H206.308ZM233.654 171.528C231.219 171.528 229.225 170.971 227.67 169.856C226.145 168.712 225.382 167.128 225.382 165.104C225.382 163.021 226.027 161.423 227.318 160.308C228.638 159.164 230.574 158.328 233.126 157.8L240.738 156.304C240.738 154.779 240.386 153.635 239.682 152.872C239.007 152.08 238.025 151.684 236.734 151.684C235.473 151.684 234.49 151.977 233.786 152.564C233.082 153.121 232.627 153.957 232.422 155.072L225.778 154.764C226.218 152.183 227.377 150.232 229.254 148.912C231.161 147.563 233.654 146.888 236.734 146.888C240.254 146.888 242.894 147.724 244.654 149.396C246.443 151.068 247.338 153.517 247.338 156.744V164.796C247.338 165.471 247.441 165.925 247.646 166.16C247.881 166.365 248.218 166.468 248.658 166.468H249.318V171C249.113 171.059 248.775 171.117 248.306 171.176C247.866 171.235 247.426 171.264 246.986 171.264C246.047 171.264 245.167 171.103 244.346 170.78C243.554 170.457 242.909 169.915 242.41 169.152C241.911 168.36 241.662 167.245 241.662 165.808L242.234 166.248C241.941 167.304 241.413 168.228 240.65 169.02C239.917 169.812 238.949 170.428 237.746 170.868C236.573 171.308 235.209 171.528 233.654 171.528ZM235.238 166.996C236.323 166.996 237.277 166.791 238.098 166.38C238.919 165.94 239.565 165.309 240.034 164.488C240.503 163.667 240.738 162.699 240.738 161.584V160.44L235.37 161.584C234.314 161.789 233.507 162.141 232.95 162.64C232.422 163.109 232.158 163.725 232.158 164.488C232.158 165.28 232.422 165.896 232.95 166.336C233.478 166.776 234.241 166.996 235.238 166.996ZM258.513 171C256.577 171 255.067 170.516 253.981 169.548C252.896 168.58 252.353 167.011 252.353 164.84V139.76H258.953V164.136C258.953 164.84 259.115 165.339 259.437 165.632C259.76 165.925 260.229 166.072 260.845 166.072H262.429V171H258.513Z" fill="url(#paint8_linear_162_322)"/>
<g clip-path="url(#clip2_162_322)">
<mask id="mask0_162_322" style="mask-type:luminance" maskUnits="userSpaceOnUse" x="38" y="36" width="27" height="27">
<path d="M65 36H38V63H65V36Z" fill="white"/>
</mask>
<g mask="url(#mask0_162_322)">
<path fill-rule="evenodd" clip-rule="evenodd" d="M38 49.5L38 36H51.5H65V49.5C57.5453 49.5 51.5018 43.4576 51.5 36.0032C51.4982 43.4576 45.4548 49.5 38 49.5ZM51.5 63C51.5 55.5441 57.5442 49.5 65 49.5V63H51.5ZM51.5 63C51.5 55.5441 45.4558 49.5 38 49.5V63H51.5Z" fill="white"/>
</g>
</g>
</g>
<rect x="4.5" y="2.5" width="756" height="269" rx="7.5" stroke="#262434"/>
</g>
<defs>
<filter id="filter0_d_162_322" x="0" y="0" width="765" height="278" filterUnits="userSpaceOnUse" color-interpolation-filters="sRGB">
<feFlood flood-opacity="0" result="BackgroundImageFix"/>
<feColorMatrix in="SourceAlpha" type="matrix" values="0 0 0 0 0 0 0 0 0 0 0 0 0 0 0 0 0 0 127 0" result="hardAlpha"/>
<feOffset dy="2"/>
<feGaussianBlur stdDeviation="2"/>
<feComposite in2="hardAlpha" operator="out"/>
<feColorMatrix type="matrix" values="0 0 0 0 0 0 0 0 0 0 0 0 0 0 0 0 0 0 0.15 0"/>
<feBlend mode="normal" in2="BackgroundImageFix" result="effect1_dropShadow_162_322"/>
<feBlend mode="normal" in="SourceGraphic" in2="effect1_dropShadow_162_322" result="shape"/>
</filter>
<filter id="filter1_f_162_322" x="240.606" y="-168.394" width="1018.12" height="1018.12" filterUnits="userSpaceOnUse" color-interpolation-filters="sRGB">
<feFlood flood-opacity="0" result="BackgroundImageFix"/>
<feBlend mode="normal" in="SourceGraphic" in2="BackgroundImageFix" result="shape"/>
<feGaussianBlur stdDeviation="129.697" result="effect1_foregroundBlur_162_322"/>
</filter>
<filter id="filter2_f_162_322" x="-3.39392" y="-223.394" width="1018.12" height="1018.12" filterUnits="userSpaceOnUse" color-interpolation-filters="sRGB">
<feFlood flood-opacity="0" result="BackgroundImageFix"/>
<feBlend mode="normal" in="SourceGraphic" in2="BackgroundImageFix" result="shape"/>
<feGaussianBlur stdDeviation="129.697" result="effect1_foregroundBlur_162_322"/>
</filter>
<linearGradient id="paint0_linear_162_322" x1="673.949" y1="137.192" x2="1043" y2="137.192" gradientUnits="userSpaceOnUse">
<stop stop-color="#D06DB6" stop-opacity="0"/>
<stop offset="1" stop-color="#D06DB6"/>
</linearGradient>
<linearGradient id="paint1_linear_162_322" x1="429.949" y1="82.1924" x2="799" y2="82.1924" gradientUnits="userSpaceOnUse">
<stop stop-color="#D06DB6" stop-opacity="0"/>
<stop offset="1" stop-color="#D06DB6"/>
</linearGradient>
<linearGradient id="paint2_linear_162_322" x1="775" y1="91.0722" x2="775" y2="-34.8041" gradientUnits="userSpaceOnUse">
<stop stop-color="#D06DB6"/>
<stop offset="1" stop-color="#D06DB6" stop-opacity="0"/>
</linearGradient>
<linearGradient id="paint3_linear_162_322" x1="575.289" y1="150.044" x2="575.289" y2="249.508" gradientUnits="userSpaceOnUse">
<stop stop-color="#D06DB6"/>
<stop offset="1" stop-color="#D06DB6" stop-opacity="0"/>
</linearGradient>
<linearGradient id="paint4_linear_162_322" x1="533.5" y1="244" x2="410" y2="244" gradientUnits="userSpaceOnUse">
<stop stop-color="#D06DB6"/>
<stop offset="1" stop-color="#D06DB6" stop-opacity="0"/>
</linearGradient>
<linearGradient id="paint5_linear_162_322" x1="581.489" y1="-28.7383" x2="581.489" y2="81.6921" gradientUnits="userSpaceOnUse">
<stop stop-color="#D06DB6" stop-opacity="0"/>
<stop offset="1" stop-color="#D06DB6"/>
</linearGradient>
<linearGradient id="paint6_linear_162_322" x1="275.646" y1="-4.24988" x2="821.5" y2="-4.24988" gradientUnits="userSpaceOnUse">
<stop stop-color="#D06DB6"/>
<stop offset="1" stop-color="#D06DB6" stop-opacity="0"/>
</linearGradient>
<linearGradient id="paint7_linear_162_322" x1="348" y1="-3.99988" x2="844" y2="-3.99988" gradientUnits="userSpaceOnUse">
<stop stop-color="#D06DB6"/>
<stop offset="1" stop-color="#D06DB6"/>
</linearGradient>
<linearGradient id="paint8_linear_162_322" x1="38" y1="130" x2="420" y2="130" gradientUnits="userSpaceOnUse">
<stop stop-color="#8D83FF"/>
<stop offset="0.5" stop-color="#FF02BD"/>
<stop offset="1" stop-color="#8D83FF"/>
</linearGradient>
<clipPath id="clip0_162_322">
<rect x="4" y="2" width="757" height="270" rx="8" fill="white"/>
</clipPath>
<clipPath id="clip1_162_322">
<path d="M348 -37.9999V30.0001H844V-37.9999H348Z" fill="white"/>
</clipPath>
<clipPath id="clip2_162_322">
<rect width="27" height="27" fill="white" transform="translate(38 36)"/>
</clipPath>
</defs>
</svg>
