<svg xmlns="http://www.w3.org/2000/svg" width="527" height="201" fill="none" viewBox="0 0 527 201"><rect width="526" height="200" x=".5" y=".733" fill="url(#a)" rx="8"/><rect width="526" height="200" x=".5" y=".733" fill="url(#b)" rx="8"/><path fill="#fff" d="M198.318 124.733h-2.957v-8.727h3.017c.866 0 1.611.175 2.233.524a3.502 3.502 0 0 1 1.44 1.496c.335.651.503 1.429.503 2.335 0 .909-.169 1.691-.507 2.344a3.505 3.505 0 0 1-1.453 1.504c-.631.35-1.389.524-2.276.524Zm-1.376-1.368h1.3c.607 0 1.115-.11 1.521-.332.406-.224.711-.558.916-1.001.205-.446.307-1.003.307-1.671 0-.667-.102-1.221-.307-1.662a2.095 2.095 0 0 0-.908-.993c-.397-.221-.892-.332-1.483-.332h-1.346v5.991Zm9.901 1.496c-.639 0-1.193-.14-1.662-.422a2.862 2.862 0 0 1-1.091-1.18c-.255-.506-.383-1.097-.383-1.773 0-.676.128-1.268.383-1.777a2.86 2.86 0 0 1 1.091-1.184c.469-.282 1.023-.422 1.662-.422s1.193.14 1.662.422c.469.281.831.676 1.087 1.184.258.509.387 1.101.387 1.777 0 .676-.129 1.267-.387 1.773a2.833 2.833 0 0 1-1.087 1.18c-.469.282-1.023.422-1.662.422Zm.009-1.236c.346 0 .636-.095.869-.285.233-.193.406-.452.52-.776a3.19 3.19 0 0 0 .175-1.082c0-.401-.059-.763-.175-1.087a1.731 1.731 0 0 0-.52-.78c-.233-.193-.523-.289-.869-.289-.355 0-.651.096-.887.289a1.762 1.762 0 0 0-.524.78c-.114.324-.17.686-.17 1.087 0 .398.056.758.17 1.082.117.324.291.583.524.776.236.19.532.285.887.285Zm7.292 1.236c-.654 0-1.215-.143-1.683-.43a2.866 2.866 0 0 1-1.078-1.189c-.25-.509-.375-1.094-.375-1.756 0-.665.127-1.251.383-1.76a2.87 2.87 0 0 1 1.082-1.193c.469-.287 1.023-.43 1.662-.43.532 0 1.002.098 1.411.294.412.193.74.467.984.822.245.352.384.764.418 1.236h-1.475a1.402 1.402 0 0 0-.426-.788c-.221-.213-.518-.32-.89-.32-.316 0-.593.085-.831.256a1.637 1.637 0 0 0-.559.724c-.13.315-.196.693-.196 1.134 0 .446.066.829.196 1.15.131.318.314.564.55.737.239.171.519.256.84.256.227 0 .43-.043.609-.128a1.22 1.22 0 0 0 .456-.379c.122-.165.206-.365.251-.601h1.475a2.571 2.571 0 0 1-.409 1.232 2.428 2.428 0 0 1-.963.835c-.407.199-.884.298-1.432.298Zm9.244-4.943-1.406.153a1.14 1.14 0 0 0-.209-.4 1.042 1.042 0 0 0-.392-.303 1.441 1.441 0 0 0-.605-.115c-.321 0-.591.07-.81.209-.216.139-.322.32-.32.541a.57.57 0 0 0 .209.465c.145.119.384.217.716.294l1.117.238c.619.134 1.079.346 1.38.635.304.29.458.669.46 1.138a1.772 1.772 0 0 1-.362 1.091c-.236.313-.564.557-.984.733-.421.176-.904.264-1.449.264-.801 0-1.446-.167-1.935-.503a2.023 2.023 0 0 1-.873-1.41l1.504-.145c.068.295.213.518.435.669.221.151.51.226.865.226.366 0 .66-.075.882-.226.224-.151.337-.337.337-.558a.582.582 0 0 0-.218-.465c-.142-.122-.363-.216-.665-.281l-1.116-.234c-.628-.131-1.092-.351-1.394-.661-.301-.312-.45-.707-.447-1.185a1.68 1.68 0 0 1 .328-1.048c.225-.298.536-.528.933-.69.401-.165.863-.247 1.385-.247.767 0 1.371.163 1.811.49.444.326.718.768.823 1.325Zm6.997 4.943c-.597 0-1.109-.108-1.538-.324a2.45 2.45 0 0 1-.993-.873 2.316 2.316 0 0 1-.345-1.249c0-.349.071-.659.213-.929.145-.27.343-.52.596-.75.256-.23.551-.459.887-.686l1.546-1.052c.228-.148.4-.304.516-.469a.965.965 0 0 0 .179-.58c0-.187-.079-.365-.239-.532-.156-.168-.372-.252-.647-.252a.921.921 0 0 0-.818.469.902.902 0 0 0-.116.443c0 .19.053.384.158.58.108.196.247.399.418.609l.554.669 4.095 4.798h-1.671l-3.4-3.895a54.996 54.996 0 0 1-.733-.873 4.6 4.6 0 0 1-.575-.895 2.342 2.342 0 0 1-.222-1.014c0-.412.095-.78.286-1.104.19-.327.456-.584.796-.771.344-.188.746-.281 1.206-.281.461 0 .856.09 1.185.272.33.182.584.424.763.725.179.301.268.629.268.984 0 .412-.102.781-.306 1.108a3.24 3.24 0 0 1-.853.882l-1.764 1.291c-.29.211-.497.424-.622.64-.125.213-.188.394-.188.545 0 .23.059.439.175.626.117.188.28.338.49.452.213.111.462.166.746.166.312 0 .621-.069.925-.209.304-.142.581-.343.831-.605.25-.261.448-.573.596-.937a3.23 3.23 0 0 0 .222-1.219h1.325c0 .551-.061 1.031-.183 1.44-.122.407-.28.75-.473 1.032a3.018 3.018 0 0 1-.614.669 5.245 5.245 0 0 0-.196.145 7.166 7.166 0 0 1-.196.145 2.886 2.886 0 0 1-1.078.613 3.939 3.939 0 0 1-1.206.196Zm11.351-.128h-2.957v-8.727h3.017c.866 0 1.611.175 2.233.524a3.502 3.502 0 0 1 1.44 1.496c.335.651.503 1.429.503 2.335 0 .909-.169 1.691-.507 2.344a3.505 3.505 0 0 1-1.453 1.504c-.631.35-1.389.524-2.276.524Zm-1.376-1.368h1.3c.607 0 1.115-.11 1.521-.332.406-.224.711-.558.916-1.001.205-.446.307-1.003.307-1.671 0-.667-.102-1.221-.307-1.662a2.095 2.095 0 0 0-.908-.993c-.397-.221-.892-.332-1.483-.332h-1.346v5.991Zm9.944 1.496c-.657 0-1.223-.136-1.701-.409a2.772 2.772 0 0 1-1.095-1.168c-.255-.505-.383-1.1-.383-1.785 0-.673.128-1.264.383-1.773.259-.511.62-.909 1.083-1.193.463-.287 1.007-.43 1.632-.43.403 0 .784.065 1.142.196.361.128.679.326.954.596.279.27.497.614.657 1.032.159.414.238.909.238 1.482v.473h-5.365v-1.039h3.887a1.662 1.662 0 0 0-.192-.789 1.391 1.391 0 0 0-.524-.549 1.473 1.473 0 0 0-.776-.201c-.315 0-.592.077-.831.23-.239.151-.425.35-.558.597a1.702 1.702 0 0 0-.2.805v.908c0 .381.069.708.208.98.14.27.334.478.584.622.25.142.543.213.878.213.224 0 .428-.031.609-.093.182-.066.34-.161.473-.286.134-.125.235-.28.303-.464l1.44.162c-.091.38-.264.713-.52.997-.252.281-.576.5-.971.656-.395.153-.847.23-1.355.23Zm9.874-6.673-2.331 6.545h-1.704l-2.331-6.545h1.645l1.504 4.862h.068l1.509-4.862h1.64Zm3.743 6.673c-.656 0-1.223-.136-1.7-.409a2.768 2.768 0 0 1-1.096-1.168c-.255-.505-.383-1.1-.383-1.785 0-.673.128-1.264.383-1.773.259-.511.62-.909 1.083-1.193.463-.287 1.007-.43 1.632-.43.403 0 .784.065 1.142.196.361.128.679.326.954.596.279.27.498.614.657 1.032.159.414.238.909.238 1.482v.473h-5.365v-1.039h3.887a1.662 1.662 0 0 0-.192-.789 1.391 1.391 0 0 0-.524-.549 1.47 1.47 0 0 0-.776-.201c-.315 0-.592.077-.831.23a1.6 1.6 0 0 0-.558.597 1.714 1.714 0 0 0-.2.805v.908c0 .381.069.708.209.98.139.27.333.478.583.622.25.142.543.213.878.213.225 0 .428-.031.61-.093.181-.066.339-.161.473-.286.133-.125.234-.28.302-.464l1.44.162c-.09.38-.264.713-.519.997-.253.281-.577.5-.972.656-.395.153-.847.23-1.355.23Zm5.758-8.855v8.727h-1.543v-8.727h1.543Zm4.441 8.855c-.639 0-1.193-.14-1.661-.422a2.855 2.855 0 0 1-1.091-1.18c-.256-.506-.384-1.097-.384-1.773 0-.676.128-1.268.384-1.777a2.854 2.854 0 0 1 1.091-1.184c.468-.282 1.022-.422 1.661-.422.64 0 1.194.14 1.662.422.469.281.831.676 1.087 1.184.259.509.388 1.101.388 1.777 0 .676-.129 1.267-.388 1.773a2.833 2.833 0 0 1-1.087 1.18c-.468.282-1.022.422-1.662.422Zm.009-1.236c.347 0 .636-.095.869-.285.233-.193.407-.452.52-.776.117-.324.175-.684.175-1.082 0-.401-.058-.763-.175-1.087a1.723 1.723 0 0 0-.52-.78c-.233-.193-.522-.289-.869-.289-.355 0-.651.096-.886.289a1.764 1.764 0 0 0-.525.78c-.113.324-.17.686-.17 1.087 0 .398.057.758.17 1.082.117.324.292.583.525.776.235.19.531.285.886.285Zm4.437 3.563v-9h1.517v1.082h.09c.079-.159.191-.328.336-.507.145-.182.341-.336.588-.464.248-.131.563-.196.946-.196.506 0 .962.129 1.368.387.409.256.733.635.972 1.138.241.5.362 1.114.362 1.841 0 .719-.118 1.33-.354 1.833-.235.502-.556.886-.963 1.15a2.476 2.476 0 0 1-1.38.396c-.375 0-.686-.062-.934-.187a1.894 1.894 0 0 1-.596-.452 2.89 2.89 0 0 1-.345-.507h-.064v3.486h-1.543Zm1.513-5.727c0 .423.06.794.179 1.112.122.318.297.567.524.746.23.176.509.264.835.264.341 0 .627-.091.857-.273.23-.185.403-.436.52-.754.119-.321.179-.686.179-1.095 0-.407-.059-.767-.175-1.083a1.63 1.63 0 0 0-.52-.741c-.23-.179-.517-.269-.861-.269-.329 0-.609.087-.839.26-.23.174-.405.416-.524.729-.117.312-.175.68-.175 1.104Zm8.885 3.4c-.656 0-1.223-.136-1.7-.409a2.768 2.768 0 0 1-1.096-1.168c-.255-.505-.383-1.1-.383-1.785 0-.673.128-1.264.383-1.773.259-.511.62-.909 1.083-1.193.463-.287 1.007-.43 1.632-.43.403 0 .784.065 1.142.196.361.128.679.326.954.596.279.27.498.614.657 1.032.159.414.238.909.238 1.482v.473h-5.365v-1.039h3.887a1.662 1.662 0 0 0-.192-.789 1.391 1.391 0 0 0-.524-.549 1.47 1.47 0 0 0-.776-.201c-.315 0-.592.077-.831.23-.238.151-.425.35-.558.597a1.714 1.714 0 0 0-.2.805v.908c0 .381.069.708.208.98.14.27.334.478.584.622.25.142.543.213.878.213.225 0 .428-.031.61-.093.181-.066.339-.161.473-.286.133-.125.234-.28.302-.464l1.44.162c-.09.38-.264.713-.519.997-.253.281-.577.5-.972.656-.395.153-.847.23-1.355.23Zm4.215-.128v-6.545h1.496v1.091h.068c.12-.378.324-.669.614-.874a1.691 1.691 0 0 1 1.001-.311c.086 0 .181.004.286.013.108.006.197.016.268.03v1.419a1.586 1.586 0 0 0-.311-.06 2.843 2.843 0 0 0-.405-.03 1.55 1.55 0 0 0-.758.184 1.336 1.336 0 0 0-.524.498 1.404 1.404 0 0 0-.192.737v3.848h-1.543Zm7.803 0v-8.727h3.273c.67 0 1.233.125 1.687.375.458.25.803.594 1.036 1.031.235.435.353.929.353 1.483 0 .56-.118 1.057-.353 1.492a2.533 2.533 0 0 1-1.044 1.027c-.461.247-1.027.37-1.701.37h-2.169v-1.299h1.956c.392 0 .713-.068.963-.205a1.29 1.29 0 0 0 .554-.562c.123-.239.184-.513.184-.823 0-.309-.061-.582-.184-.818a1.243 1.243 0 0 0-.558-.55c-.25-.133-.572-.2-.967-.2h-1.449v7.406h-1.581Zm10.416.128c-.639 0-1.193-.14-1.662-.422a2.855 2.855 0 0 1-1.091-1.18c-.256-.506-.384-1.097-.384-1.773 0-.676.128-1.268.384-1.777a2.854 2.854 0 0 1 1.091-1.184c.469-.282 1.023-.422 1.662-.422s1.193.14 1.662.422a2.83 2.83 0 0 1 1.086 1.184c.259.509.388 1.101.388 1.777 0 .676-.129 1.267-.388 1.773a2.831 2.831 0 0 1-1.086 1.18c-.469.282-1.023.422-1.662.422Zm.008-1.236c.347 0 .637-.095.87-.285.233-.193.406-.452.52-.776a3.19 3.19 0 0 0 .174-1.082c0-.401-.058-.763-.174-1.087a1.731 1.731 0 0 0-.52-.78c-.233-.193-.523-.289-.87-.289-.355 0-.65.096-.886.289a1.754 1.754 0 0 0-.524.78 3.258 3.258 0 0 0-.171 1.087c0 .398.057.758.171 1.082.116.324.291.583.524.776.236.19.531.285.886.285Zm4.437 1.108v-6.545h1.496v1.091h.068c.12-.378.324-.669.614-.874a1.691 1.691 0 0 1 1.001-.311c.086 0 .181.004.286.013.108.006.197.016.268.03v1.419a1.586 1.586 0 0 0-.311-.06 2.84 2.84 0 0 0-.404-.03 1.55 1.55 0 0 0-.759.184 1.336 1.336 0 0 0-.524.498 1.404 1.404 0 0 0-.192.737v3.848h-1.543Zm8.378-6.545v1.193h-3.762v-1.193h3.762Zm-2.834-1.568h1.543v6.145c0 .207.031.366.094.477.065.108.15.182.256.221.105.04.221.06.349.06a1.946 1.946 0 0 0 .452-.06l.26 1.206a2.928 2.928 0 0 1-.908.154 2.52 2.52 0 0 1-1.044-.175 1.623 1.623 0 0 1-.737-.605c-.179-.273-.267-.614-.265-1.023v-6.4Zm6.008 8.245c-.415 0-.788-.073-1.121-.221a1.832 1.832 0 0 1-.784-.665c-.19-.293-.285-.653-.285-1.082 0-.37.068-.675.204-.917.137-.241.323-.434.558-.579.236-.145.502-.254.797-.328.299-.077.607-.132.925-.166.384-.04.695-.076.933-.107.239-.034.412-.085.52-.153.111-.071.166-.181.166-.328v-.026c0-.321-.095-.57-.285-.746-.191-.176-.465-.264-.823-.264-.377 0-.677.082-.899.247a1.23 1.23 0 0 0-.443.584l-1.44-.205a2.3 2.3 0 0 1 .562-.997c.262-.27.581-.471.959-.605a3.676 3.676 0 0 1 1.253-.204c.315 0 .629.037.942.11.312.074.598.196.856.367.259.168.466.396.622.686.159.29.239.652.239 1.087v4.38h-1.483v-.899h-.051a1.91 1.91 0 0 1-.396.512c-.168.156-.38.282-.635.379-.253.094-.55.14-.891.14Zm.401-1.133c.309 0 .578-.061.805-.183.227-.125.402-.29.524-.495.125-.204.188-.427.188-.669v-.771a.727.727 0 0 1-.248.111 3.356 3.356 0 0 1-.383.089 9.467 9.467 0 0 1-.422.068l-.362.052c-.23.031-.436.082-.618.153a1.03 1.03 0 0 0-.431.298.73.73 0 0 0-.157.486c0 .284.104.499.311.644.207.144.471.217.793.217Zm6.149-7.726v8.727h-1.543v-8.727h1.543Z"/><circle cx="194.5" cy="87.075" r="3" fill="#FF00BD"/><circle cx="217.5" cy="92.075" r="3" fill="#FF00BD"/><path fill="#fff" d="M217 97.75a.5.5 0 0 1 .5.5v4.303a.498.498 0 0 1-.517.501c-2.946-.116-17.636-.655-21.872-.086a.535.535 0 0 1-.611-.523v-3.987c0-.114.039-.224.111-.313l12.83-15.931a.5.5 0 0 0-.389-.814h-11.417a.5.5 0 0 1-.5-.5v-4.267c0-.298.258-.531.555-.506 1.929.163 8.879.621 20.641-.022a.505.505 0 0 1 .534.5v4.07a.496.496 0 0 1-.128.334c-.768.856-4.84 5.407-7.237 8.383-2.016 2.503-4.564 6.023-5.673 7.573a.496.496 0 0 0 .407.784H217ZM330.079 98.985l-.204-1c-1.269.778-1.542 1-2.565 1h-2.5c-1.541 0-3.141-.181-3.979-1.224-.839-1.066-1.258-2.55-1.258-4.454v-11.56h3.91V92.83c0 1.904.702 2.856 2.108 2.856.566 0 1.178-.136 1.836-.408.68-.272 1.496-.793 2.448-1.564V81.747h3.91v17.238h-3.706ZM262.816 98.985l-.204-1c-1.268.778-1.541 1-2.564 1h-2.5c-1.542 0-3.141-.181-3.98-1.224-.839-1.066-1.258-2.55-1.258-4.454v-11.56h3.91V92.83c0 1.904.703 2.856 2.108 2.856.567 0 1.179-.136 1.836-.408.68-.272 1.496-.793 2.448-1.564V81.747h3.91v17.238h-3.706ZM314.017 98.985l-4.25-7.174c-.68.68-1.394 1.36-2.142 2.04v5.134h-3.91v-25.16h3.91v15.708c1.292-1.315 2.403-2.573 3.332-3.774a29.802 29.802 0 0 0 2.618-4.012h4.488a37.373 37.373 0 0 1-2.448 3.876 57.987 57.987 0 0 1-2.924 3.706l6.052 9.656h-4.726ZM301.331 89.329v2.04c0 2.403-.658 4.33-1.972 5.78-1.315 1.45-3.174 2.176-5.576 2.176-2.403 0-4.262-.725-5.576-2.176-1.315-1.45-1.972-3.377-1.972-5.78v-2.04c0-2.403.646-4.318 1.938-5.746 1.314-1.45 3.184-2.176 5.61-2.176 2.425 0 4.284.725 5.576 2.176 1.314 1.428 1.972 3.343 1.972 5.746Zm-4.012 0c0-1.383-.306-2.46-.918-3.23-.612-.794-1.485-1.19-2.618-1.19-1.134 0-2.006.396-2.618 1.19-.612.77-.918 1.847-.918 3.23v2.04c0 1.382.306 2.47.918 3.264.612.793 1.484 1.19 2.618 1.19 1.133 0 2.006-.397 2.618-1.19.612-.793.918-1.882.918-3.264v-2.04ZM280.127 98.985v-2c-1.317 1-1.949 1.41-2.72 1.796a5.313 5.313 0 0 1-2.346.544c-1.858 0-3.309-.703-4.352-2.108-1.02-1.406-1.53-3.377-1.53-5.916v-1.836c0-2.47.624-4.431 1.87-5.882 1.247-1.45 3.049-2.176 5.406-2.176.59 0 1.168.056 1.734.17.59.113 1.168.272 1.734.476v-8.228h3.91v25.16h-3.706Zm-6.936-7.684c0 1.519.25 2.63.748 3.332.522.703 1.247 1.054 2.176 1.054.522 0 1.077-.147 1.666-.442.59-.318 1.304-.907 2.142-1.768v-7.888c-1.11-.454-2.13-.68-3.06-.68-1.314 0-2.255.408-2.822 1.224-.566.816-.85 1.927-.85 3.332V91.3ZM249.808 95.585v3.4H239.5a2 2 0 0 1-2-2v-1.06l7.276-10.778h-6.936v-3.4h9.628a2 2 0 0 1 2 2v1.06l-7.276 10.778h7.616Z"/><defs><linearGradient id="a" x1="607.407" x2="474.877" y1="34.107" y2="316.825" gradientUnits="userSpaceOnUse"><stop stop-color="#1E1E1E"/><stop offset="1" stop-color="#292929"/></linearGradient><linearGradient id="b" x1="607.407" x2="474.877" y1="34.107" y2="316.825" gradientUnits="userSpaceOnUse"><stop stop-color="#1E1E1E"/><stop offset="1" stop-color="#292929"/></linearGradient></defs></svg>
