<svg xmlns="http://www.w3.org/2000/svg" width="527" height="201" fill="none" viewBox="0 0 527 201"><rect width="526" height="200" x=".5" y=".591" fill="url(#a)" rx="8"/><circle cx="194.5" cy="86.933" r="3" fill="#FF00BD"/><circle cx="217.5" cy="91.933" r="3" fill="#FF00BD"/><path fill="#212121" d="M217 97.607a.5.5 0 0 1 .5.5v4.304a.499.499 0 0 1-.517.501c-2.946-.116-17.636-.656-21.872-.086a.536.536 0 0 1-.611-.524v-3.986c0-.114.039-.225.111-.314l12.83-15.93a.5.5 0 0 0-.389-.814h-11.417a.5.5 0 0 1-.5-.5V76.49c0-.298.258-.532.555-.507 1.929.164 8.879.622 20.641-.022a.505.505 0 0 1 .534.5v4.071a.496.496 0 0 1-.128.334c-.768.856-4.84 5.406-7.237 8.382-2.016 2.504-4.564 6.024-5.673 7.574a.496.496 0 0 0 .407.784H217ZM330.078 99.843l-.204-1c-1.268.778-1.541 1-2.564 1h-2.5c-1.541 0-3.141-.182-3.98-1.225-.838-1.065-1.258-2.55-1.258-4.453v-11.56h3.91v11.084c0 1.904.703 2.856 2.108 2.856.567 0 1.179-.136 1.836-.409.68-.271 1.496-.793 2.448-1.563V82.605h3.91v17.237h-3.706ZM262.816 99.843l-.204-1c-1.269.778-1.541 1-2.565 1h-2.5c-1.541 0-3.14-.182-3.979-1.225-.839-1.065-1.258-2.55-1.258-4.453v-11.56h3.91v11.084c0 1.904.703 2.856 2.108 2.856.567 0 1.179-.136 1.836-.409.68-.271 1.496-.793 2.448-1.563V82.605h3.91v17.237h-3.706ZM314.017 99.843l-4.25-7.175c-.68.68-1.394 1.36-2.142 2.04v5.135h-3.91v-25.16h3.91V90.39c1.292-1.314 2.402-2.572 3.332-3.773a29.899 29.899 0 0 0 2.618-4.013h4.488a37.373 37.373 0 0 1-2.448 3.877 58.015 58.015 0 0 1-2.924 3.706l6.052 9.656h-4.726ZM301.331 90.186v2.04c0 2.403-.658 4.33-1.972 5.78-1.315 1.451-3.174 2.176-5.576 2.176-2.403 0-4.262-.725-5.576-2.175-1.315-1.451-1.972-3.378-1.972-5.78v-2.04c0-2.403.646-4.319 1.938-5.746 1.314-1.451 3.184-2.177 5.61-2.177 2.425 0 4.284.726 5.576 2.177 1.314 1.427 1.972 3.343 1.972 5.745Zm-4.012 0c0-1.382-.306-2.459-.918-3.23-.612-.793-1.485-1.19-2.618-1.19-1.134 0-2.006.397-2.618 1.19-.612.771-.918 1.848-.918 3.23v2.04c0 1.383.306 2.471.918 3.264.612.794 1.484 1.19 2.618 1.19 1.133 0 2.006-.396 2.618-1.19.612-.793.918-1.88.918-3.263v-2.04ZM280.127 99.843v-2c-1.317 1-1.949 1.41-2.72 1.795a5.315 5.315 0 0 1-2.346.544c-1.859 0-3.309-.702-4.352-2.108-1.02-1.405-1.53-3.377-1.53-5.915v-1.837c0-2.47.623-4.43 1.87-5.882 1.247-1.45 3.049-2.175 5.406-2.175.589 0 1.167.056 1.734.17a11.57 11.57 0 0 1 1.734.475v-8.227h3.91v25.16h-3.706Zm-6.936-7.684c0 1.518.249 2.629.748 3.331.521.703 1.247 1.055 2.176 1.055.521 0 1.077-.148 1.666-.442.589-.318 1.303-.907 2.142-1.768v-7.888c-1.111-.454-2.131-.68-3.06-.68-1.315 0-2.255.407-2.822 1.224-.567.816-.85 1.926-.85 3.332v1.836ZM249.808 96.442v3.4H239.5a2 2 0 0 1-2-2v-1.06l7.276-10.778h-6.936v-3.4h9.628a2 2 0 0 1 2 2v1.06l-7.276 10.778h7.616ZM198.318 124.591h-2.957v-8.727h3.017c.866 0 1.611.174 2.233.524a3.497 3.497 0 0 1 1.44 1.496c.335.65.503 1.429.503 2.335 0 .909-.169 1.69-.507 2.344a3.51 3.51 0 0 1-1.453 1.504c-.631.349-1.39.524-2.276.524Zm-1.376-1.368h1.299c.608 0 1.115-.111 1.522-.332.406-.225.711-.559.916-1.002.204-.446.307-1.003.307-1.67 0-.668-.103-1.222-.307-1.662a2.095 2.095 0 0 0-.908-.993c-.397-.222-.892-.332-1.483-.332h-1.346v5.991Zm9.901 1.496c-.639 0-1.193-.141-1.662-.422a2.868 2.868 0 0 1-1.091-1.18c-.256-.506-.383-1.097-.383-1.773 0-.676.127-1.269.383-1.777a2.857 2.857 0 0 1 1.091-1.185c.469-.281 1.023-.422 1.662-.422s1.193.141 1.662.422c.469.281.831.676 1.087 1.185.258.508.387 1.101.387 1.777 0 .676-.129 1.267-.387 1.773a2.84 2.84 0 0 1-1.087 1.18c-.469.281-1.023.422-1.662.422Zm.009-1.236c.346 0 .636-.095.869-.285.233-.194.406-.452.52-.776.116-.324.174-.685.174-1.082 0-.401-.058-.763-.174-1.087a1.72 1.72 0 0 0-.52-.78c-.233-.193-.523-.29-.869-.29-.356 0-.651.097-.887.29a1.743 1.743 0 0 0-.524.78c-.114.324-.17.686-.17 1.087 0 .397.056.758.17 1.082.116.324.291.582.524.776.236.19.531.285.887.285Zm7.292 1.236c-.654 0-1.215-.144-1.683-.431a2.873 2.873 0 0 1-1.079-1.188c-.25-.509-.375-1.094-.375-1.756 0-.665.128-1.252.384-1.76a2.864 2.864 0 0 1 1.082-1.193c.469-.287 1.023-.431 1.662-.431.531 0 1.002.098 1.411.294.412.194.74.468.984.823.244.352.384.764.418 1.236h-1.475a1.401 1.401 0 0 0-.426-.789c-.221-.213-.518-.319-.89-.319-.316 0-.593.085-.831.255a1.64 1.64 0 0 0-.559.725c-.13.315-.196.693-.196 1.133 0 .446.066.83.196 1.151.131.318.314.564.55.737.239.171.519.256.84.256.227 0 .43-.043.609-.128.182-.088.334-.215.456-.379.122-.165.206-.365.251-.601h1.475a2.578 2.578 0 0 1-.409 1.231 2.43 2.43 0 0 1-.963.836c-.407.198-.884.298-1.432.298Zm9.244-4.943-1.407.153a1.12 1.12 0 0 0-.208-.4 1.05 1.05 0 0 0-.392-.303 1.426 1.426 0 0 0-.605-.115c-.322 0-.591.069-.81.209-.216.139-.323.319-.32.541a.565.565 0 0 0 .209.464c.145.12.384.218.716.294l1.116.239c.62.134 1.08.345 1.381.635.304.29.458.669.46 1.138a1.774 1.774 0 0 1-.362 1.091c-.236.312-.564.557-.984.733-.421.176-.904.264-1.449.264-.801 0-1.446-.168-1.935-.503a2.02 2.02 0 0 1-.873-1.411l1.504-.144c.068.295.213.518.435.669.221.15.51.225.865.225.366 0 .66-.075.882-.225.224-.151.336-.337.336-.559a.58.58 0 0 0-.217-.464c-.142-.122-.364-.216-.665-.281l-1.116-.235c-.628-.13-1.093-.351-1.394-.66-.301-.313-.45-.708-.447-1.185a1.673 1.673 0 0 1 .328-1.048c.224-.298.536-.529.933-.691.401-.164.862-.247 1.385-.247.767 0 1.371.164 1.811.49.443.327.718.769.823 1.326Zm6.997 4.943c-.597 0-1.109-.108-1.538-.324a2.446 2.446 0 0 1-.993-.874 2.311 2.311 0 0 1-.346-1.248c0-.35.071-.659.214-.929.144-.27.343-.52.596-.75.256-.23.551-.459.886-.686l1.547-1.053c.228-.148.4-.304.516-.469a.96.96 0 0 0 .179-.579c0-.188-.08-.365-.239-.533-.156-.167-.372-.251-.647-.251a.924.924 0 0 0-.819.469.912.912 0 0 0-.115.443c0 .19.053.383.158.579.108.196.247.399.418.61l.554.669 4.095 4.798h-1.671l-3.4-3.895a59.884 59.884 0 0 1-.733-.873 4.63 4.63 0 0 1-.575-.895 2.343 2.343 0 0 1-.222-1.015c0-.411.095-.779.285-1.103.191-.327.456-.584.797-.772.344-.187.746-.281 1.206-.281.461 0 .855.091 1.185.273.329.182.584.423.763.724.179.301.268.63.268.985 0 .412-.102.781-.307 1.108a3.222 3.222 0 0 1-.852.882l-1.764 1.291c-.29.21-.497.423-.622.639-.125.213-.188.395-.188.546 0 .23.058.439.175.626.116.188.28.338.49.452.213.111.462.166.746.166.312 0 .62-.07.924-.209.304-.142.581-.344.831-.605s.449-.574.597-.937a3.23 3.23 0 0 0 .222-1.219h1.325c0 .551-.061 1.031-.183 1.44-.122.406-.28.75-.473 1.031a2.997 2.997 0 0 1-.614.669 7.166 7.166 0 0 0-.196.145 5.245 5.245 0 0 1-.196.145 2.875 2.875 0 0 1-1.078.614 3.939 3.939 0 0 1-1.206.196Zm11.351-.128h-2.957v-8.727h3.017c.866 0 1.611.174 2.233.524a3.497 3.497 0 0 1 1.44 1.496c.335.65.503 1.429.503 2.335 0 .909-.169 1.69-.507 2.344a3.51 3.51 0 0 1-1.453 1.504c-.631.349-1.39.524-2.276.524Zm-1.376-1.368h1.299c.608 0 1.115-.111 1.522-.332.406-.225.711-.559.916-1.002.204-.446.307-1.003.307-1.67 0-.668-.103-1.222-.307-1.662a2.095 2.095 0 0 0-.908-.993c-.398-.222-.892-.332-1.483-.332h-1.346v5.991Zm9.944 1.496c-.657 0-1.223-.137-1.701-.409a2.777 2.777 0 0 1-1.095-1.168c-.256-.506-.383-1.101-.383-1.785 0-.674.127-1.265.383-1.773a2.904 2.904 0 0 1 1.082-1.193c.464-.287 1.008-.431 1.633-.431.403 0 .784.066 1.142.196.36.128.679.327.954.597.279.27.497.614.656 1.031.16.415.239.909.239 1.483v.473h-5.365v-1.04h3.886a1.649 1.649 0 0 0-.191-.788 1.396 1.396 0 0 0-.525-.55c-.221-.133-.48-.2-.775-.2-.315 0-.592.077-.831.23-.239.151-.425.35-.558.597a1.715 1.715 0 0 0-.201.805v.908c0 .38.07.707.209.98.139.27.334.477.584.622.25.142.543.213.878.213.224 0 .427-.031.609-.094.182-.065.34-.16.473-.285.134-.125.235-.28.303-.465l1.44.162a2.24 2.24 0 0 1-.52.997c-.253.282-.576.5-.971.657-.395.153-.847.23-1.355.23Zm9.874-6.673-2.331 6.545h-1.704l-2.331-6.545h1.645l1.504 4.862h.068l1.509-4.862h1.64Zm3.743 6.673c-.657 0-1.223-.137-1.701-.409a2.777 2.777 0 0 1-1.095-1.168c-.255-.506-.383-1.101-.383-1.785 0-.674.128-1.265.383-1.773.259-.511.62-.909 1.083-1.193.463-.287 1.007-.431 1.632-.431.403 0 .784.066 1.142.196.361.128.679.327.954.597.279.27.498.614.657 1.031.159.415.238.909.238 1.483v.473h-5.365v-1.04h3.887a1.66 1.66 0 0 0-.192-.788 1.4 1.4 0 0 0-.524-.55 1.48 1.48 0 0 0-.776-.2c-.315 0-.592.077-.831.23-.239.151-.425.35-.558.597a1.702 1.702 0 0 0-.2.805v.908c0 .38.069.707.208.98.14.27.334.477.584.622.25.142.543.213.878.213.224 0 .428-.031.609-.094.182-.065.34-.16.473-.285.134-.125.235-.28.303-.465l1.44.162a2.24 2.24 0 0 1-.52.997c-.252.282-.576.5-.971.657-.395.153-.847.23-1.355.23Zm5.758-8.855v8.727h-1.543v-8.727h1.543Zm4.441 8.855c-.639 0-1.193-.141-1.662-.422a2.875 2.875 0 0 1-1.091-1.18c-.255-.506-.383-1.097-.383-1.773 0-.676.128-1.269.383-1.777a2.864 2.864 0 0 1 1.091-1.185c.469-.281 1.023-.422 1.662-.422.64 0 1.194.141 1.662.422.469.281.831.676 1.087 1.185.258.508.388 1.101.388 1.777 0 .676-.13 1.267-.388 1.773a2.84 2.84 0 0 1-1.087 1.18c-.468.281-1.022.422-1.662.422Zm.009-1.236c.346 0 .636-.095.869-.285.233-.194.406-.452.52-.776.117-.324.175-.685.175-1.082 0-.401-.058-.763-.175-1.087a1.72 1.72 0 0 0-.52-.78c-.233-.193-.523-.29-.869-.29-.355 0-.651.097-.887.29a1.759 1.759 0 0 0-.524.78c-.113.324-.17.686-.17 1.087 0 .397.057.758.17 1.082.117.324.292.582.524.776.236.19.532.285.887.285Zm4.437 3.563v-9h1.517v1.082h.09c.079-.159.191-.328.336-.507a1.79 1.79 0 0 1 .588-.465c.247-.13.563-.196.946-.196.506 0 .962.13 1.368.388.409.256.733.635.972 1.138.241.5.362 1.114.362 1.841 0 .719-.118 1.329-.354 1.832-.236.503-.557.887-.963 1.151a2.476 2.476 0 0 1-1.38.396c-.375 0-.687-.062-.934-.187a1.894 1.894 0 0 1-.596-.452 2.89 2.89 0 0 1-.345-.507h-.064v3.486h-1.543Zm1.513-5.728c0 .424.059.794.179 1.112.122.319.297.567.524.746.23.176.508.264.835.264.341 0 .627-.09.857-.272.23-.185.403-.436.52-.755.119-.321.179-.686.179-1.095a3.12 3.12 0 0 0-.175-1.082 1.634 1.634 0 0 0-.52-.742c-.23-.179-.517-.268-.861-.268-.329 0-.609.087-.839.26-.23.173-.405.416-.525.729-.116.312-.174.68-.174 1.103Zm8.885 3.401c-.657 0-1.223-.137-1.701-.409a2.777 2.777 0 0 1-1.095-1.168c-.255-.506-.383-1.101-.383-1.785 0-.674.128-1.265.383-1.773.259-.511.62-.909 1.083-1.193.463-.287 1.007-.431 1.632-.431.403 0 .784.066 1.142.196.361.128.679.327.954.597.279.27.498.614.657 1.031.159.415.238.909.238 1.483v.473h-5.365v-1.04h3.887a1.66 1.66 0 0 0-.192-.788 1.4 1.4 0 0 0-.524-.55 1.48 1.48 0 0 0-.776-.2c-.315 0-.592.077-.831.23-.239.151-.425.35-.558.597a1.702 1.702 0 0 0-.2.805v.908c0 .38.069.707.208.98.14.27.334.477.584.622.25.142.543.213.878.213.224 0 .428-.031.609-.094.182-.065.34-.16.473-.285.134-.125.235-.28.303-.465l1.44.162a2.24 2.24 0 0 1-.52.997c-.252.282-.576.5-.971.657-.395.153-.847.23-1.355.23Zm4.215-.128v-6.545h1.496v1.09h.068c.12-.377.324-.669.614-.873a1.682 1.682 0 0 1 1.001-.311c.085 0 .181.004.286.013.108.005.197.015.268.029v1.419a1.683 1.683 0 0 0-.311-.059 2.843 2.843 0 0 0-.405-.03 1.56 1.56 0 0 0-.758.183c-.222.12-.397.286-.524.499a1.404 1.404 0 0 0-.192.737v3.848h-1.543Zm7.803 0v-8.727h3.273c.67 0 1.233.125 1.687.375.457.25.803.593 1.036 1.031.235.435.353.929.353 1.483 0 .56-.118 1.057-.353 1.491a2.528 2.528 0 0 1-1.044 1.027c-.461.248-1.027.371-1.701.371h-2.169v-1.3h1.956c.392 0 .713-.068.963-.204.25-.136.435-.324.554-.563.122-.238.183-.512.183-.822 0-.31-.061-.582-.183-.818a1.243 1.243 0 0 0-.558-.55c-.25-.133-.572-.2-.967-.2h-1.449v7.406h-1.581Zm10.416.128c-.64 0-1.194-.141-1.662-.422a2.862 2.862 0 0 1-1.091-1.18c-.256-.506-.384-1.097-.384-1.773 0-.676.128-1.269.384-1.777a2.85 2.85 0 0 1 1.091-1.185c.468-.281 1.022-.422 1.662-.422.639 0 1.193.141 1.662.422.468.281.831.676 1.086 1.185.259.508.388 1.101.388 1.777 0 .676-.129 1.267-.388 1.773a2.837 2.837 0 0 1-1.086 1.18c-.469.281-1.023.422-1.662.422Zm.008-1.236c.347 0 .637-.095.87-.285.232-.194.406-.452.519-.776.117-.324.175-.685.175-1.082 0-.401-.058-.763-.175-1.087a1.719 1.719 0 0 0-.519-.78c-.233-.193-.523-.29-.87-.29-.355 0-.65.097-.886.29a1.743 1.743 0 0 0-.524.78 3.258 3.258 0 0 0-.171 1.087c0 .397.057.758.171 1.082.116.324.291.582.524.776.236.19.531.285.886.285Zm4.437 1.108v-6.545h1.496v1.09h.068c.12-.377.324-.669.614-.873a1.684 1.684 0 0 1 1.001-.311c.086 0 .181.004.286.013.108.005.197.015.268.029v1.419a1.683 1.683 0 0 0-.311-.059 2.843 2.843 0 0 0-.405-.03 1.56 1.56 0 0 0-.758.183c-.222.12-.396.286-.524.499a1.404 1.404 0 0 0-.192.737v3.848h-1.543Zm8.378-6.545v1.193h-3.763v-1.193h3.763Zm-2.834-1.569h1.543v6.145c0 .208.031.367.094.478.065.107.15.181.255.221.106.04.222.06.35.06.096 0 .185-.007.264-.022.082-.014.145-.027.188-.038l.259 1.206c-.082.028-.2.06-.353.094a2.856 2.856 0 0 1-.554.059 2.499 2.499 0 0 1-1.044-.174 1.624 1.624 0 0 1-.737-.605c-.179-.273-.267-.614-.265-1.023v-6.401Zm6.008 8.246c-.415 0-.789-.074-1.121-.221a1.839 1.839 0 0 1-.784-.665c-.19-.293-.286-.654-.286-1.083 0-.369.069-.674.205-.916a1.58 1.58 0 0 1 .558-.579c.236-.145.502-.255.797-.329.298-.076.607-.132.925-.166.383-.039.694-.075.933-.106.239-.034.412-.085.52-.154.111-.071.166-.18.166-.328v-.025c0-.321-.095-.57-.285-.746-.191-.176-.465-.264-.823-.264-.378 0-.677.082-.899.247a1.225 1.225 0 0 0-.443.584l-1.44-.205c.113-.398.301-.73.562-.997.261-.27.581-.472.959-.605a3.676 3.676 0 0 1 1.253-.205c.315 0 .629.037.941.111.313.074.598.196.857.367.259.167.466.396.622.686.159.289.239.652.239 1.086v4.381h-1.483v-.899h-.051a1.875 1.875 0 0 1-1.032.89 2.546 2.546 0 0 1-.89.141Zm.4-1.133c.31 0 .579-.061.806-.184.227-.125.402-.289.524-.494a1.26 1.26 0 0 0 .187-.669v-.771a.732.732 0 0 1-.247.11 3.346 3.346 0 0 1-.383.09c-.142.026-.283.048-.422.068l-.362.051c-.23.032-.436.083-.618.154s-.326.17-.431.298a.73.73 0 0 0-.157.486c0 .284.103.498.311.643.207.145.471.218.792.218Zm6.15-7.726v8.727h-1.543v-8.727h1.543Z"/><defs><linearGradient id="a" x1="607.407" x2="474.877" y1="33.965" y2="316.683" gradientUnits="userSpaceOnUse"><stop stop-color="#E8E8E8"/><stop offset="1" stop-color="#fff"/></linearGradient></defs></svg>
