<svg xmlns="http://www.w3.org/2000/svg" width="1090" height="604" fill="none" viewBox="0 0 1090 604"><rect width="1089" height="603" x=".5" y=".5" fill="#fff" stroke="#000" rx="19.5"/><path fill="#111827" d="M71.7183 32.4789c-.1569 1.7775-1.1279 3.2084-2.6647 3.925-1.5368.7167-3.2567.5415-4.7204-.4813a.6936.6936 0 0 1-.1874-.1958.69406.69406 0 0 1-.0982-.2526.69444.69444 0 0 1 .0059-.271.69693.69693 0 0 1 .1092-.2482.6953.6953 0 0 1 .4485-.2856.6964.6964 0 0 1 .271.0059.69569.69569 0 0 1 .2481.1092c1.0608.7422 2.2448.8693 3.3362.3604 1.0914-.509 1.7547-1.4985 1.8692-2.7877a.69445.69445 0 0 1 .0681-.2697.69295.69295 0 0 1 .1685-.2214.6942.6942 0 0 1 .2418-.1375.69414.69414 0 0 1 .2764-.0316c.0933.0082.184.0352.2666.0794a.69622.69622 0 0 1 .2141.1776.69611.69611 0 0 1 .1272.2474.6933.6933 0 0 1 .0199.2775Zm3.4643-4.2978c.3804.8148.6374 1.6816.7625 2.5721a.69442.69442 0 0 1-.0359.3338l-2.6697 7.335a.68739.68739 0 0 1-.1863.2785 9.03011 9.03011 0 0 1-10.5236 1.1451 9.03005 9.03005 0 0 1-3.7503-4.1095 9.03019 9.03019 0 0 1 2.1002-10.3753 9.03045 9.03045 0 0 1 5.0532-2.3274 9.03032 9.03032 0 0 1 5.4584 1.0763 9.0302 9.0302 0 0 1 3.7915 4.0714Zm-1.2591.5871a7.63063 7.63063 0 0 0-3.1873-3.4267 7.63162 7.63162 0 0 0-4.5882-.9218 7.63165 7.63165 0 0 0-4.2635 1.9298 7.63184 7.63184 0 0 0-2.3353 4.0555 7.63182 7.63182 0 0 0 .4712 4.6561 7.63063 7.63063 0 0 0 3.1004 3.5055 7.63126 7.63126 0 0 0 4.5636 1.0366c1.5922-.141 3.1-.7784 4.3105-1.8223l2.5488-7.0027a7.64186 7.64186 0 0 0-.6202-2.01Zm-10.0512 3.9205a1.0416 1.0416 0 0 0 .4504-.4038 1.0418 1.0418 0 0 0-.5344-1.5195 1.04154 1.04154 0 0 0-.604-.033 1.0423 1.0423 0 0 0-.5205.3081c-.1392.152-.2302.3418-.2616.5454-.0313.2037-.0016.4121.0855.5989.1168.2504.3283.4442.5879.5387.2597.0945.5463.082.7967-.0348Zm4.7851-4.5305a1.0416 1.0416 0 0 0-.4504.4038 1.0418 1.0418 0 0 0 .5344 1.5195c.1936.0705.4038.082.604.033a1.0423 1.0423 0 0 0 .5205-.3081c.1392-.152.2302-.3418.2616-.5454a1.04247 1.04247 0 0 0-.0855-.5989 1.04213 1.04213 0 0 0-.5879-.5387 1.0419 1.0419 0 0 0-.7967.0348Z"/><path fill="#000" d="M83.3351 27.5399H85.99l2.8039 6.8409h.1194l2.8039-6.8409h2.6549v10.1818H92.284v-6.6272h-.0845l-2.635 6.5775h-1.4218l-2.635-6.6023h-.0845v6.652h-2.0881V27.5399Zm14.0783 13.0454c-.2684 0-.5203-.0215-.7556-.0646-.232-.0398-.4243-.0912-.5767-.1541l.4772-1.581c.2486.0762.4723.1177.6712.1243.2022.0066.3762-.0398.522-.1392.1492-.0994.2701-.2685.3629-.5071l.1243-.3232-2.7393-7.8551h2.2273l1.5809 5.608h.0796l1.5958-5.608h2.242l-2.968 8.4617c-.142.4109-.3362.7689-.5815 1.0738-.2419.3083-.5485.5452-.9197.711-.3712.169-.8187.2535-1.3424.2535Zm12.9496-2.7393c-.58 0-1.105-.1492-1.576-.4475-.467-.3016-.838-.7441-1.113-1.3274-.272-.5866-.408-1.3059-.408-2.1577 0-.875.141-1.6025.422-2.1825.282-.5833.657-1.0192 1.124-1.3075.471-.2917.986-.4375 1.546-.4375.428 0 .784.0729 1.069.2187.288.1426.52.3215.696.537.179.2121.315.4209.408.6264h.064v-3.8281h2.113v10.1818h-2.088v-1.223h-.089c-.1.2121-.24.4226-.423.6314-.179.2055-.412.3761-.701.512-.285.1359-.633.2039-1.044.2039Zm.671-1.6854c.342 0 .63-.0928.865-.2784.239-.1889.421-.4524.547-.7905.13-.3381.194-.7341.194-1.1882 0-.4541-.063-.8485-.189-1.1832-.126-.3348-.308-.5933-.547-.7756-.238-.1823-.528-.2734-.87-.2734-.348 0-.641.0944-.88.2833-.238.189-.419.4508-.542.7855-.122.3348-.183.7226-.183 1.1634 0 .4441.061.8369.183 1.1783.126.338.307.6032.542.7954.239.1889.532.2834.88.2834Zm8.896 1.7102c-.786 0-1.462-.1591-2.029-.4772-.563-.3215-.997-.7756-1.302-1.3623-.305-.5899-.458-1.2876-.458-2.093 0-.7855.153-1.4749.458-2.0682.305-.5933.734-1.0556 1.287-1.3871.557-.3314 1.21-.4971 1.959-.4971.504 0 .973.0812 1.407.2436.438.1591.819.3994 1.144.7209.328.3215.583.7258.765 1.213.183.4839.274 1.0507.274 1.7003v.5817h-6.448v-1.3125h4.454c0-.3049-.066-.575-.199-.8104-.132-.2353-.316-.4192-.552-.5518-.232-.1359-.502-.2038-.81-.2038-.321 0-.606.0745-.855.2237-.245.1458-.438.343-.577.5916-.139.2453-.21.5187-.214.8203v1.2479c0 .3778.07.7043.209.9794.143.2751.343.4872.602.6363.258.1492.565.2238.92.2238.235 0 .45-.0332.646-.0995.195-.0663.363-.1657.502-.2983.139-.1325.245-.2949.318-.4872l1.959.1293c-.099.4706-.303.8816-.612 1.2329-.304.348-.699.6198-1.183.8154-.48.1922-1.035.2883-1.665.2883Zm11.801-7.7855-2.67 7.6364h-2.386l-2.67-7.6364h2.237l1.586 5.4638h.08l1.581-5.4638h2.242Zm4.364 7.6364V27.5399h4.017c.772 0 1.43.1475 1.974.4424.543.2917.958.6977 1.243 1.2181.288.517.432 1.1136.432 1.7897 0 .6762-.146 1.2728-.437 1.7898-.292.5171-.715.9198-1.268 1.2081-.55.2884-1.217.4325-1.999.4325h-2.56v-1.7251h2.212c.415 0 .756-.0713 1.024-.2138.272-.1458.474-.3463.607-.6015.136-.2586.204-.5552.204-.89 0-.338-.068-.633-.204-.8849-.133-.2552-.335-.4524-.607-.5916-.271-.1425-.616-.2138-1.034-.2138h-1.451v8.4219h-2.153Zm12.352.1491c-.772 0-1.44-.164-2.004-.4922-.56-.3314-.992-.7921-1.297-1.3821-.305-.5932-.458-1.281-.458-2.0632 0-.7888.153-1.4782.458-2.0682.305-.5932.737-1.0539 1.297-1.3821.564-.3314 1.232-.4971 2.004-.4971s1.438.1657 1.998.4971c.564.3282.998.7889 1.303 1.3821.305.59.457 1.2794.457 2.0682 0 .7822-.152 1.47-.457 2.0632-.305.59-.739 1.0507-1.303 1.3821-.56.3282-1.226.4922-1.998.4922Zm.01-1.6406c.351 0 .644-.0994.88-.2983.235-.2022.412-.4773.532-.8253.122-.348.184-.7441.184-1.1882 0-.4441-.062-.8402-.184-1.1882-.12-.348-.297-.6231-.532-.8253-.236-.2022-.529-.3032-.88-.3032-.355 0-.653.101-.895.3032-.239.2022-.419.4773-.542.8253-.119.348-.179.7441-.179 1.1882 0 .4441.06.8402.179 1.1882.123.348.303.6231.542.8253.242.1989.54.2983.895.2983Zm5.125 1.4915v-7.6364h2.054v1.3324h.079c.139-.474.373-.8319.701-1.0739.328-.2452.706-.3679 1.134-.3679.106 0 .22.0067.343.0199.122.0133.23.0315.323.0547v1.8793c-.099-.0299-.237-.0564-.413-.0796-.175-.0232-.336-.0348-.482-.0348-.311 0-.59.068-.835.2039-.242.1325-.434.3181-.577.5568-.139.2386-.209.5137-.209.8253v4.3203h-2.118Zm10.174-7.6364v1.5909h-4.599v-1.5909h4.599Zm-3.555-1.8295h2.118v7.1193c0 .1955.03.348.089.4574.06.106.143.1806.249.2237.109.0431.235.0646.378.0646.099 0 .199-.0083.298-.0248.099-.0199.176-.0348.229-.0448l.333 1.576c-.106.0332-.255.0713-.448.1144-.192.0464-.426.0745-.701.0845-.51.0199-.957-.0481-1.342-.2039-.381-.1557-.678-.3977-.89-.7258-.212-.3281-.316-.7424-.313-1.2429v-7.3977Zm7.112 9.6101c-.487 0-.922-.0846-1.303-.2536-.381-.1723-.683-.4259-.905-.7606-.218-.3381-.328-.759-.328-1.2628 0-.4243.078-.7806.234-1.0689.156-.2884.368-.5204.636-.696.269-.1757.574-.3083.915-.3978.345-.0895.706-.1524 1.084-.1889.444-.0464.802-.0895 1.074-.1293.272-.043.469-.106.591-.1889.123-.0828.184-.2055.184-.3679v-.0298c0-.3149-.099-.5585-.298-.7308-.196-.1724-.474-.2586-.835-.2586-.381 0-.685.0846-.91.2536-.225.1657-.375.3745-.447.6264l-1.959-.1591c.099-.464.295-.865.586-1.2031.292-.3414.668-.6032 1.129-.7855.464-.1856 1.001-.2784 1.611-.2784.424 0 .83.0497 1.218.1491.391.0995.737.2536 1.039.4624.305.2088.545.4773.721.8054.175.3248.263.7142.263 1.1683v5.1506h-2.008v-1.059h-.06c-.123.2387-.287.4491-.492.6314-.206.179-.453.3199-.741.4226-.288.0994-.621.1492-.999.1492Zm.606-1.4617c.312 0 .587-.0613.826-.1839.238-.126.425-.295.561-.5071.136-.2122.204-.4525.204-.7209v-.8104c-.066.0431-.157.0829-.273.1193-.113.0332-.241.0647-.383.0945-.143.0265-.285.0514-.428.0746-.142.0198-.271.0381-.387.0546-.249.0365-.466.0945-.652.1741-.185.0795-.329.1872-.432.3231-.103.1326-.154.2983-.154.4972 0 .2883.104.5087.313.6612.212.1491.48.2237.805.2237Zm7.455-8.8643v10.1818h-2.118V27.5399h2.118Z"/><rect width="141.8" height="34.8" x="47.6" y="14.6" stroke="#CACAD7" stroke-dasharray="5 5" stroke-linecap="round" stroke-linejoin="round" stroke-width="1.2" rx="5.4"/><path fill="#000" d="M48.376 97V85.64h1.728v5.472l-.832-.608h6.912l-.832.608V85.64h1.728V97h-1.728v-5.536l.832.608h-6.912l.832-.608V97h-1.728Zm14.6249.192c-.8107 0-1.52-.1813-2.128-.544-.608-.3627-1.0774-.88-1.408-1.552-.3307-.672-.496-1.456-.496-2.352 0-.9067.1653-1.6907.496-2.352.3306-.6613.8-1.1733 1.408-1.536.608-.3733 1.3173-.56 2.128-.56.8106 0 1.52.1867 2.128.56.608.3627 1.0773.8747 1.408 1.536.3306.6613.496 1.4453.496 2.352 0 .896-.1654 1.68-.496 2.352-.3307.672-.8 1.1893-1.408 1.552-.608.3627-1.3174.544-2.128.544Zm0-1.472c.7253 0 1.2853-.2613 1.68-.784.3946-.5333.592-1.264.592-2.192 0-.928-.1974-1.6533-.592-2.176-.3947-.5333-.9547-.8-1.68-.8-.7147 0-1.2747.2667-1.68.8-.3947.5227-.592 1.248-.592 2.176 0 .928.1973 1.6587.592 2.192.4053.5227.9653.784 1.68.784Zm5.746 1.28v-8.512h1.552l.048 2.112-.192-.064c.096-.4693.2613-.8693.496-1.2.2453-.3307.544-.5867.896-.768.352-.1813.736-.272 1.152-.272.7253 0 1.3173.208 1.776.624.4586.4053.7466.9653.864 1.68h-.272c.096-.5013.256-.9173.48-1.248.2346-.3413.5333-.6027.896-.784.3626-.1813.7733-.272 1.232-.272.5973 0 1.104.128 1.52.384.4266.2453.7466.608.96 1.088.224.48.336 1.0667.336 1.76V97h-1.696v-5.056c0-.736-.1334-1.2907-.4-1.664-.2667-.3733-.672-.56-1.216-.56-.352 0-.6614.0907-.928.272-.2667.1813-.4747.4427-.624.784-.1387.3413-.208.752-.208 1.232V97h-1.616v-4.992c0-.7253-.1227-1.2853-.368-1.68-.2347-.4053-.64-.608-1.216-.608-.3627 0-.6774.0907-.944.272-.256.1813-.4587.448-.608.8-.1494.3413-.224.7467-.224 1.216V97h-1.696Zm17.4727.192c-.832 0-1.552-.1813-2.16-.544-.5973-.3627-1.0613-.88-1.392-1.552-.32-.672-.48-1.456-.48-2.352 0-.896.16-1.6747.48-2.336.3307-.672.7947-1.1893 1.392-1.552.5974-.3733 1.3014-.56 2.112-.56.768 0 1.4454.1813 2.032.544.5867.352 1.04.864 1.36 1.536.3307.672.496 1.4827.496 2.432v.432h-6.112c.0427.832.2614 1.456.656 1.872.4054.416.9494.624 1.632.624.5014 0 .9174-.1173 1.248-.352.3307-.2347.56-.5493.688-.944l1.76.112c-.224.7893-.6666 1.4293-1.328 1.92-.6506.48-1.4453.72-2.384.72Zm-2.272-5.232h4.32c-.0533-.7573-.272-1.3173-.656-1.68-.3733-.3627-.8533-.544-1.44-.544-.608 0-1.1093.192-1.504.576-.384.3733-.624.9227-.72 1.648ZM146.376 97V85.64h3.648c1.781 0 3.152.496 4.112 1.488.96.9813 1.44 2.384 1.44 4.208 0 1.8133-.475 3.2107-1.424 4.192-.939.9813-2.283 1.472-4.032 1.472h-3.744Zm1.728-1.584h1.92c1.259 0 2.197-.336 2.816-1.008.629-.6827.944-1.7067.944-3.072 0-1.3867-.315-2.416-.944-3.088-.619-.6827-1.557-1.024-2.816-1.024h-1.92v8.192Zm13.069 1.776c-.811 0-1.52-.1813-2.128-.544-.608-.3627-1.078-.88-1.408-1.552-.331-.672-.496-1.456-.496-2.352 0-.9067.165-1.6907.496-2.352.33-.6613.8-1.1733 1.408-1.536.608-.3733 1.317-.56 2.128-.56.81 0 1.52.1867 2.128.56.608.3627 1.077.8747 1.408 1.536.33.6613.496 1.4453.496 2.352 0 .896-.166 1.68-.496 2.352-.331.672-.8 1.1893-1.408 1.552-.608.3627-1.318.544-2.128.544Zm0-1.472c.725 0 1.285-.2613 1.68-.784.394-.5333.592-1.264.592-2.192 0-.928-.198-1.6533-.592-2.176-.395-.5333-.955-.8-1.68-.8-.715 0-1.275.2667-1.68.8-.395.5227-.592 1.248-.592 2.176 0 .928.197 1.6587.592 2.192.405.5227.965.784 1.68.784Zm9.25 1.472c-.811 0-1.52-.1813-2.128-.544-.608-.3627-1.078-.88-1.408-1.552-.331-.672-.496-1.456-.496-2.352 0-.896.165-1.6747.496-2.336.33-.672.8-1.1893 1.408-1.552.608-.3733 1.317-.56 2.128-.56.693 0 1.306.1227 1.84.368.544.2347.981.5813 1.312 1.04.341.4587.56 1.0187.656 1.68l-1.776.096c-.086-.5547-.31-.976-.672-1.264-.363-.2987-.816-.448-1.36-.448-.715 0-1.275.2667-1.68.8-.395.5227-.592 1.248-.592 2.176 0 .928.197 1.6587.592 2.192.405.5227.965.784 1.68.784.544 0 .997-.1493 1.36-.448.362-.3093.586-.7733.672-1.392l1.776.096c-.096.6507-.315 1.216-.656 1.696-.331.48-.768.8533-1.312 1.12-.534.2667-1.147.4-1.84.4Zm8.155 0c-.853 0-1.536-.2827-2.048-.848-.501-.576-.752-1.3707-.752-2.384v-5.472h1.696v5.04c0 .768.133 1.3333.4 1.696s.672.544 1.216.544c.619 0 1.099-.1973 1.44-.592.352-.4053.528-.9707.528-1.696v-4.992h1.696V97h-1.584l-.032-2.224.24.096c-.149.7467-.464 1.3227-.944 1.728-.48.3947-1.099.592-1.856.592Zm6.575-.192v-8.512h1.552l.048 2.112-.192-.064c.096-.4693.261-.8693.496-1.2.245-.3307.544-.5867.896-.768.352-.1813.736-.272 1.152-.272.725 0 1.317.208 1.776.624.459.4053.747.9653.864 1.68h-.272c.096-.5013.256-.9173.48-1.248.235-.3413.533-.6027.896-.784.363-.1813.773-.272 1.232-.272.597 0 1.104.128 1.52.384.427.2453.747.608.96 1.088.224.48.336 1.0667.336 1.76V97h-1.696v-5.056c0-.736-.133-1.2907-.4-1.664-.267-.3733-.672-.56-1.216-.56-.352 0-.661.0907-.928.272-.267.1813-.475.4427-.624.784-.139.3413-.208.752-.208 1.232V97h-1.616v-4.992c0-.7253-.123-1.2853-.368-1.68-.235-.4053-.64-.608-1.216-.608-.363 0-.677.0907-.944.272-.256.1813-.459.448-.608.8-.149.3413-.224.7467-.224 1.216V97h-1.696Zm17.473.192c-.832 0-1.552-.1813-2.16-.544-.597-.3627-1.061-.88-1.392-1.552-.32-.672-.48-1.456-.48-2.352 0-.896.16-1.6747.48-2.336.331-.672.795-1.1893 1.392-1.552.597-.3733 1.301-.56 2.112-.56.768 0 1.445.1813 2.032.544.587.352 1.04.864 1.36 1.536.331.672.496 1.4827.496 2.432v.432h-6.112c.043.832.261 1.456.656 1.872.405.416.949.624 1.632.624.501 0 .917-.1173 1.248-.352.331-.2347.56-.5493.688-.944l1.76.112c-.224.7893-.667 1.4293-1.328 1.92-.651.48-1.445.72-2.384.72Zm-2.272-5.232h4.32c-.053-.7573-.272-1.3173-.656-1.68-.373-.3627-.853-.544-1.44-.544-.608 0-1.109.192-1.504.576-.384.3733-.624.9227-.72 1.648Zm7.83 5.04v-8.512h1.552l.064 2.272-.208-.112c.096-.5547.278-1.0027.544-1.344.267-.3413.592-.592.976-.752.384-.1707.8-.256 1.248-.256.64 0 1.168.144 1.584.432.427.2773.747.6613.96 1.152.224.48.336 1.0293.336 1.648V97h-1.696v-4.96c0-.5013-.053-.9227-.16-1.264-.106-.3413-.282-.6027-.528-.784-.245-.1813-.565-.272-.96-.272-.597 0-1.082.1973-1.456.592-.373.3947-.56.9707-.56 1.728V97h-1.696Zm12.108 0c-.811 0-1.408-.1867-1.792-.56-.384-.3733-.576-.9547-.576-1.744v-8.208h1.696v8.08c0 .3947.085.6667.256.816.171.1493.432.224.784.224h1.216V97h-1.584Zm-3.664-7.12v-1.392h5.248v1.392h-5.248Zm9.206 7.312c-.885 0-1.595-.2027-2.128-.608-.523-.4053-.784-.976-.784-1.712s.219-1.3067.656-1.712c.448-.416 1.136-.7147 2.064-.896l2.928-.56c0-.6613-.155-1.152-.464-1.472-.309-.3307-.768-.496-1.376-.496-.544 0-.971.1227-1.28.368-.309.2347-.523.5867-.64 1.056l-1.744-.112c.16-.8533.555-1.5253 1.184-2.016.64-.4907 1.467-.736 2.48-.736 1.152 0 2.027.3093 2.624.928.608.608.912 1.4667.912 2.576v3.312c0 .2027.032.3467.096.432.075.0747.192.112.352.112h.304V97c-.053.0107-.139.0213-.256.032-.117.0107-.24.016-.368.016-.363 0-.677-.0587-.944-.176-.256-.1173-.448-.3093-.576-.576-.128-.2773-.192-.6453-.192-1.104l.176.08c-.085.3733-.272.704-.56.992-.277.288-.635.5173-1.072.688-.427.16-.891.24-1.392.24Zm.272-1.344c.512 0 .949-.096 1.312-.288.363-.2027.645-.48.848-.832.203-.352.304-.752.304-1.2v-.544l-2.496.48c-.512.096-.875.2507-1.088.464-.203.2027-.304.464-.304.784 0 .3627.123.6453.368.848.256.192.608.288 1.056.288ZM235.277 97c-.811 0-1.408-.1867-1.792-.56-.384-.3733-.576-.9547-.576-1.744v-8.208h1.696v8.08c0 .3947.085.6667.256.816.17.1493.432.224.784.224h1.216V97h-1.584Zm-3.664-7.12v-1.392h5.248v1.392h-5.248Zm6.868 7.12v-8.512h1.696V97h-1.696Zm-.032-9.744V85.56h1.76v1.696h-1.76Zm7.474 9.936c-.811 0-1.52-.1813-2.128-.544-.608-.3627-1.078-.88-1.408-1.552-.331-.672-.496-1.456-.496-2.352 0-.9067.165-1.6907.496-2.352.33-.6613.8-1.1733 1.408-1.536.608-.3733 1.317-.56 2.128-.56.81 0 1.52.1867 2.128.56.608.3627 1.077.8747 1.408 1.536.33.6613.496 1.4453.496 2.352 0 .896-.166 1.68-.496 2.352-.331.672-.8 1.1893-1.408 1.552-.608.3627-1.318.544-2.128.544Zm0-1.472c.725 0 1.285-.2613 1.68-.784.394-.5333.592-1.264.592-2.192 0-.928-.198-1.6533-.592-2.176-.395-.5333-.955-.8-1.68-.8-.715 0-1.275.2667-1.68.8-.395.5227-.592 1.248-.592 2.176 0 .928.197 1.6587.592 2.192.405.5227.965.784 1.68.784Zm5.746 1.28v-8.512h1.552l.064 2.272-.208-.112c.096-.5547.277-1.0027.544-1.344.266-.3413.592-.592.976-.752.384-.1707.8-.256 1.248-.256.64 0 1.168.144 1.584.432.426.2773.746.6613.96 1.152.224.48.336 1.0293.336 1.648V97h-1.696v-4.96c0-.5013-.054-.9227-.16-1.264-.107-.3413-.283-.6027-.528-.784-.246-.1813-.566-.272-.96-.272-.598 0-1.083.1973-1.456.592-.374.3947-.56.9707-.56 1.728V97h-1.696ZM314.32 97l4.096-11.36h2.192L324.704 97h-1.84l-1.04-2.96h-4.64L316.16 97h-1.84Zm3.408-4.528h3.568l-1.792-5.184-1.776 5.184ZM326.064 97V85.64h4.24c1.301 0 2.314.3147 3.04.944.725.6187 1.088 1.4827 1.088 2.592 0 .736-.166 1.376-.496 1.92-.331.5333-.806.944-1.424 1.232-.608.2773-1.344.416-2.208.416h-2.512V97h-1.728Zm1.728-5.824h2.464c.778 0 1.37-.1653 1.776-.496.405-.3413.608-.8427.608-1.504 0-.6507-.203-1.136-.608-1.456-.406-.3307-.998-.496-1.776-.496h-2.464v3.952ZM336.267 97V85.64h1.728V97h-1.728Zm8.375 0V85.64h4.528c.81 0 1.509.1387 2.096.416.586.2773 1.04.672 1.36 1.184.32.512.48 1.12.48 1.824 0 .512-.118.9707-.352 1.376-.224.4053-.528.7307-.912.976-.374.2347-.774.368-1.2.4l-.08-.144c.714 0 1.269.1653 1.664.496.394.32.624.8267.688 1.52l.304 3.312h-1.744l-.272-3.088c-.032-.4587-.187-.7947-.464-1.008-.278-.224-.731-.336-1.36-.336h-3.008V97h-1.728Zm1.728-6.016h2.832c.65 0 1.162-.16 1.536-.48.384-.3307.576-.7947.576-1.392 0-.608-.192-1.072-.576-1.392-.384-.3307-.944-.496-1.68-.496h-2.688v3.76Zm12.256 6.208c-.832 0-1.552-.1813-2.16-.544-.597-.3627-1.061-.88-1.392-1.552-.32-.672-.48-1.456-.48-2.352 0-.896.16-1.6747.48-2.336.331-.672.795-1.1893 1.392-1.552.597-.3733 1.301-.56 2.112-.56.768 0 1.445.1813 2.032.544.587.352 1.04.864 1.36 1.536.331.672.496 1.4827.496 2.432v.432h-6.112c.043.832.261 1.456.656 1.872.405.416.949.624 1.632.624.501 0 .917-.1173 1.248-.352.331-.2347.56-.5493.688-.944l1.76.112c-.224.7893-.667 1.4293-1.328 1.92-.651.48-1.445.72-2.384.72Zm-2.272-5.232h4.32c-.053-.7573-.272-1.3173-.656-1.68-.373-.3627-.853-.544-1.44-.544-.608 0-1.109.192-1.504.576-.384.3733-.624.9227-.72 1.648ZM364.72 97v-9.056c0-.704.198-1.264.592-1.68.395-.416 1.014-.624 1.856-.624h1.504v1.392h-1.28c-.33 0-.576.0907-.736.272-.16.1707-.24.416-.24.736V97h-1.696Zm-1.184-7.024V88.6h5.008v1.376h-5.008Zm9.746 7.216c-.832 0-1.552-.1813-2.16-.544-.597-.3627-1.061-.88-1.392-1.552-.32-.672-.48-1.456-.48-2.352 0-.896.16-1.6747.48-2.336.331-.672.795-1.1893 1.392-1.552.597-.3733 1.301-.56 2.112-.56.768 0 1.445.1813 2.032.544.587.352 1.04.864 1.36 1.536.331.672.496 1.4827.496 2.432v.432h-6.112c.043.832.261 1.456.656 1.872.405.416.949.624 1.632.624.501 0 .917-.1173 1.248-.352.331-.2347.56-.5493.688-.944l1.76.112c-.224.7893-.667 1.4293-1.328 1.92-.651.48-1.445.72-2.384.72Zm-2.272-5.232h4.32c-.053-.7573-.272-1.3173-.656-1.68-.373-.3627-.853-.544-1.44-.544-.608 0-1.109.192-1.504.576-.384.3733-.624.9227-.72 1.648Zm7.831 5.04v-8.512h1.552l.064 2.256-.144-.048c.117-.768.352-1.328.704-1.68.362-.352.848-.528 1.456-.528h.816v1.52h-.816c-.427 0-.784.0693-1.072.208-.288.1387-.507.352-.656.64-.139.288-.208.6613-.208 1.12V97h-1.696Zm9.16.192c-.832 0-1.552-.1813-2.16-.544-.597-.3627-1.061-.88-1.392-1.552-.32-.672-.48-1.456-.48-2.352 0-.896.16-1.6747.48-2.336.331-.672.795-1.1893 1.392-1.552.597-.3733 1.301-.56 2.112-.56.768 0 1.445.1813 2.032.544.587.352 1.04.864 1.36 1.536.331.672.496 1.4827.496 2.432v.432h-6.112c.043.832.261 1.456.656 1.872.405.416.949.624 1.632.624.501 0 .917-.1173 1.248-.352.331-.2347.56-.5493.688-.944l1.76.112c-.224.7893-.667 1.4293-1.328 1.92-.651.48-1.445.72-2.384.72Zm-2.272-5.232h4.32c-.053-.7573-.272-1.3173-.656-1.68-.373-.3627-.853-.544-1.44-.544-.608 0-1.109.192-1.504.576-.384.3733-.624.9227-.72 1.648Zm7.83 5.04v-8.512h1.552l.064 2.272-.208-.112c.096-.5547.278-1.0027.544-1.344.267-.3413.592-.592.976-.752.384-.1707.8-.256 1.248-.256.64 0 1.168.144 1.584.432.427.2773.747.6613.96 1.152.224.48.336 1.0293.336 1.648V97h-1.696v-4.96c0-.5013-.053-.9227-.16-1.264-.106-.3413-.282-.6027-.528-.784-.245-.1813-.565-.272-.96-.272-.597 0-1.082.1973-1.456.592-.373.3947-.56.9707-.56 1.728V97h-1.696Zm12.77.192c-.811 0-1.52-.1813-2.128-.544-.608-.3627-1.077-.88-1.408-1.552-.331-.672-.496-1.456-.496-2.352 0-.896.165-1.6747.496-2.336.331-.672.8-1.1893 1.408-1.552.608-.3733 1.317-.56 2.128-.56.693 0 1.307.1227 1.84.368.544.2347.981.5813 1.312 1.04.341.4587.56 1.0187.656 1.68l-1.776.096c-.085-.5547-.309-.976-.672-1.264-.363-.2987-.816-.448-1.36-.448-.715 0-1.275.2667-1.68.8-.395.5227-.592 1.248-.592 2.176 0 .928.197 1.6587.592 2.192.405.5227.965.784 1.68.784.544 0 .997-.1493 1.36-.448.363-.3093.587-.7733.672-1.392l1.776.096c-.096.6507-.315 1.216-.656 1.696-.331.48-.768.8533-1.312 1.12-.533.2667-1.147.4-1.84.4Zm8.859 0c-.832 0-1.552-.1813-2.16-.544-.597-.3627-1.061-.88-1.392-1.552-.32-.672-.48-1.456-.48-2.352 0-.896.16-1.6747.48-2.336.331-.672.795-1.1893 1.392-1.552.598-.3733 1.302-.56 2.112-.56.768 0 1.446.1813 2.032.544.587.352 1.04.864 1.36 1.536.331.672.496 1.4827.496 2.432v.432h-6.112c.043.832.262 1.456.656 1.872.406.416.95.624 1.632.624.502 0 .918-.1173 1.248-.352.331-.2347.56-.5493.688-.944l1.76.112c-.224.7893-.666 1.4293-1.328 1.92-.65.48-1.445.72-2.384.72Zm-2.272-5.232h4.32c-.053-.7573-.272-1.3173-.656-1.68-.373-.3627-.853-.544-1.44-.544-.608 0-1.109.192-1.504.576-.384.3733-.624.9227-.72 1.648Z"/><path stroke="#E4E4E7" d="M1089 117H2M1089 66H1"/><path stroke="#000" stroke-width="2" d="m1 117 126 .009"/><rect width="223" height="31" x="556.5" y="16.5" fill="#fff" stroke="#E4E4E7" rx="7.5"/><path fill="#B4B9C9" d="m581.354 37.6463-3.13-3.1288c.907-1.0889 1.36-2.4856 1.263-3.8995-.096-1.4139-.734-2.7362-1.781-3.6917-1.047-.9556-2.421-1.4709-3.838-1.4387-1.417.0322-2.767.6094-3.769 1.6115-1.002 1.0021-1.579 2.352-1.611 3.7689-.033 1.4168.483 2.7915 1.438 3.8381.956 1.0466 2.278 1.6845 3.692 1.7811 1.414.0965 2.81-.3558 3.899-1.2628l3.129 3.1294c.047.0464.102.0833.162.1084.061.0252.126.0381.192.0381s.131-.0129.191-.0381c.061-.0251.116-.062.163-.1084.046-.0465.083-.1016.108-.1623A.50313.50313 0 0 0 581.5 38c0-.0657-.013-.1307-.038-.1914-.025-.0607-.062-.1159-.108-.1623ZM569.5 31c0-.89.264-1.76.758-2.5a4.50499 4.50499 0 0 1 2.02-1.6574c.822-.3406 1.727-.4297 2.6-.2561.873.1736 1.675.6022 2.304 1.2315.629.6294 1.058 1.4312 1.231 2.3041.174.8729.085 1.7777-.256 2.6-.34.8223-.917 1.5251-1.657 2.0195-.74.4945-1.61.7584-2.5.7584-1.193-.0013-2.337-.4758-3.181-1.3195-.843-.8436-1.318-1.9874-1.319-3.1805ZM598.704 37.224c-.765 0-1.433-.1447-2.002-.434-.569-.2893-1.022-.686-1.358-1.19-.327-.5133-.518-1.106-.574-1.778l1.26-.084c.065.4947.21.9147.434 1.26.224.3453.523.6067.896.784.383.1773.84.266 1.372.266.467 0 .863-.0607 1.19-.182.327-.1213.574-.2987.742-.532.177-.2333.266-.518.266-.854 0-.308-.075-.5787-.224-.812-.14-.2427-.415-.462-.826-.658-.401-.2053-.999-.406-1.792-.602-.765-.196-1.377-.4107-1.834-.644-.448-.2333-.775-.518-.98-.854-.196-.336-.294-.7513-.294-1.246 0-.56.131-1.05.392-1.47.271-.4293.653-.7607 1.148-.994.495-.2427 1.083-.364 1.764-.364.728 0 1.353.14 1.876.42.523.2707.938.644 1.246 1.12.308.476.499 1.0173.574 1.624l-1.26.084c-.056-.4013-.187-.756-.392-1.064-.196-.3173-.467-.5647-.812-.742-.345-.1773-.765-.266-1.26-.266-.616 0-1.106.1493-1.47.448-.364.2893-.546.672-.546 1.148 0 .308.07.5647.21.77.149.196.411.3733.784.532.373.1493.91.3127 1.61.49.831.2053 1.489.4527 1.974.742.495.28.845.6067 1.05.98.215.3733.322.798.322 1.274 0 .5787-.149 1.0827-.448 1.512-.299.42-.709.7467-1.232.98-.523.224-1.125.336-1.806.336Zm8.46-.056c-.7 0-1.306-.1587-1.82-.476-.504-.3173-.896-.7653-1.176-1.344-.27-.588-.406-1.274-.406-2.058 0-.784.136-1.4653.406-2.044.28-.5787.668-1.0267 1.162-1.344.504-.3267 1.097-.49 1.778-.49.644 0 1.214.154 1.708.462.495.2987.878.7373 1.148 1.316.28.5787.42 1.2833.42 2.114v.35h-5.39c.047.7933.257 1.3907.63 1.792.383.4013.896.602 1.54.602.486 0 .882-.112 1.19-.336.318-.2333.537-.5367.658-.91l1.26.098c-.196.6627-.569 1.2087-1.12 1.638-.541.42-1.204.63-1.988.63Zm-2.17-4.55h4.102c-.056-.7187-.266-1.246-.63-1.582-.354-.336-.807-.504-1.358-.504-.569 0-1.04.1773-1.414.532-.364.3453-.597.8633-.7 1.554Zm9.177 4.55c-.766 0-1.377-.1773-1.834-.532-.448-.3547-.672-.8493-.672-1.484 0-.6347.186-1.134.56-1.498.373-.364.966-.6207 1.778-.77l2.632-.49c0-.6253-.15-1.092-.448-1.4-.29-.308-.728-.462-1.316-.462-.514 0-.92.1167-1.218.35-.299.224-.504.5507-.616.98l-1.246-.098c.14-.7.476-1.2647 1.008-1.694.541-.4387 1.232-.658 2.072-.658.952 0 1.68.2707 2.184.812.504.532.756 1.2693.756 2.212v3.066c0 .168.028.2893.084.364.065.0653.168.098.308.098h.294V37c-.038.0093-.098.014-.182.014-.084.0093-.173.014-.266.014-.336 0-.612-.0513-.826-.154-.206-.112-.355-.28-.448-.504-.094-.2333-.14-.5367-.14-.91l.14.028c-.066.3173-.224.6067-.476.868-.252.252-.565.4527-.938.602-.374.14-.77.21-1.19.21Zm.112-1.036c.494 0 .914-.0933 1.26-.28.354-.196.625-.4573.812-.784.186-.336.28-.7093.28-1.12v-.532l-2.408.448c-.504.0933-.854.238-1.05.434-.187.1867-.28.434-.28.742 0 .3453.121.616.364.812.252.1867.592.28 1.022.28Zm5.542.868v-7.42h1.036l.056 1.876-.112-.042c.093-.6347.294-1.0967.602-1.386.317-.2987.737-.448 1.26-.448h.728v1.12h-.714c-.373 0-.686.07-.938.21-.243.1307-.429.3313-.56.602-.121.2613-.182.5973-.182 1.008V37h-1.176Zm7.642.168c-.69 0-1.292-.1587-1.806-.476-.504-.3173-.896-.7653-1.176-1.344-.28-.588-.42-1.274-.42-2.058 0-.784.14-1.4653.42-2.044.28-.5787.672-1.0267 1.176-1.344.514-.3267 1.116-.49 1.806-.49.57 0 1.074.1027 1.512.308.448.196.812.4853 1.092.868s.462.8493.546 1.4l-1.232.084c-.084-.4947-.298-.8727-.644-1.134-.345-.2707-.77-.406-1.274-.406-.681 0-1.213.2473-1.596.742-.382.4853-.574 1.1573-.574 2.016s.192 1.5353.574 2.03c.383.4853.915.728 1.596.728.504 0 .929-.14 1.274-.42.346-.28.56-.7.644-1.26l1.232.084c-.084.5507-.266 1.0313-.546 1.442-.28.4013-.644.714-1.092.938-.438.224-.942.336-1.512.336Zm4.608-.168v-9.94h1.176v4.158l-.14-.028c.093-.4107.252-.7467.476-1.008.224-.2613.499-.4527.826-.574.327-.1307.686-.196 1.078-.196.532 0 .98.1213 1.344.364.373.2333.653.5647.84.994.196.42.294.9053.294 1.456V37h-1.176v-4.438c0-.7187-.131-1.2507-.392-1.596-.252-.3453-.639-.518-1.162-.518-.597 0-1.078.182-1.442.546-.364.364-.546.8913-.546 1.582V37h-1.176Z"/><rect width="38.1875" height="17.0625" x="734.406" y="23.4062" fill="#B4B9C9" fill-opacity=".2" stroke="#B4B9C9" stroke-width=".8125" rx="2.84375"/><path fill="#B4B9C9" d="M753.98 34.8005v-5.4373h.887v5.4373h-.887Zm-2.275-2.275v-.8873h5.437v.8873h-5.437Zm9.778 2.912v-8.0763h.978v4.0154l3.629-4.0154h1.24l-3.162 3.5035 3.378 4.5728h-1.194l-2.844-3.8448-1.047 1.1489v2.6959h-.978ZM745.756 32.7614h-1.108v-1.7728h1.108c.394 0 .78-.1169 1.108-.3361.328-.2191.583-.5306.734-.895.151-.3644.191-.7654.114-1.1523a1.99446 1.99446 0 0 0-.546-1.0211 1.99418 1.99418 0 0 0-1.021-.5458 1.99796 1.99796 0 0 0-1.153.1135c-.364.151-.675.4066-.895.7345-.219.328-.336.7136-.336 1.108v1.108h-1.772v-1.108c0-.3944-.117-.78-.336-1.108-.22-.3279-.531-.5835-.895-.7345a1.99796 1.99796 0 0 0-1.153-.1135c-.387.077-.742.2669-1.021.5458-.279.2789-.469.6343-.546 1.0211-.077.3869-.037.7879.114 1.1523.151.3644.406.6759.734.895.328.2192.714.3361 1.108.3361h1.108v1.7728h-1.108c-.394 0-.78.1169-1.108.3361-.328.2191-.583.5306-.734.895-.151.3644-.191.7654-.114 1.1523.077.3868.267.7422.546 1.0211.279.2789.634.4688 1.021.5458.387.0769.788.0374 1.153-.1135.364-.151.675-.4066.895-.7345.219-.328.336-.7136.336-1.108v-1.108h1.772v1.108c0 .3944.117.78.336 1.108.22.3279.531.5835.895.7345.365.1509.766.1904 1.153.1135.387-.077.742-.2669 1.021-.5458.279-.2789.469-.6343.546-1.0211.077-.3869.037-.7879-.114-1.1523-.151-.3644-.406-.6759-.734-.895a1.99503 1.99503 0 0 0-1.108-.3361Zm-1.108-3.7671c0-.2191.065-.4333.186-.6155.122-.1822.295-.3242.498-.4081.202-.0839.425-.1058.64-.063.215.0427.412.1482.567.3032.155.1549.261.3523.303.5673.043.2149.021.4377-.063.6401-.084.2025-.226.3755-.408.4972-.182.1218-.396.1868-.615.1868h-1.108v-1.108Zm-5.762 0c0-.2938.117-.5756.325-.7834.208-.2078.489-.3245.783-.3245.294 0 .576.1167.784.3245.208.2078.324.4896.324.7834v1.108h-1.108c-.294 0-.575-.1168-.783-.3245-.208-.2078-.325-.4896-.325-.7835Zm2.216 5.7614c0 .2191-.065.4333-.186.6155-.122.1822-.295.3242-.498.4081-.202.0839-.425.1058-.64.063-.215-.0427-.412-.1482-.567-.3032-.155-.1549-.261-.3523-.303-.5673-.043-.2149-.021-.4377.063-.6401.084-.2025.226-.3755.408-.4972.182-.1218.396-.1868.615-.1868h1.108v1.108Zm.887-3.7671h1.772v1.7728h-1.772v-1.7728Zm3.767 4.875c-.294 0-.576-.1167-.784-.3245-.208-.2078-.324-.4896-.324-.7834v-1.108h1.108c.294 0 .575.1168.783.3245.208.2078.325.4896.325.7835 0 .2938-.117.5756-.325.7834-.208.2078-.489.3245-.783.3245Z"/><rect width="202" height="58" x="245" y="448" fill="#000" rx="8"/><rect width="201" height="57" x="35.5" y="448.5" fill="#fff" stroke="#C4C7CE" rx="7.5"/><path fill="url(#a)" d="M53 468h154v18H53z"/><path fill="#000" d="M35.7521 173.636h10.8843l9.2329 22.515h.4262l9.2329-22.515h10.8842V210h-8.5582v-22.337h-.3018l-8.7358 22.106H53.348l-8.7358-22.23h-.3018V210h-8.5583v-36.364Zm58.8912 36.879c-2.8528 0-5.3149-.562-7.3864-1.687-2.0596-1.136-3.6458-2.752-4.7585-4.847-1.1009-2.107-1.6513-4.611-1.6513-7.511 0-2.817.5564-5.279 1.6691-7.386 1.1126-2.119 2.6811-3.764 4.7052-4.936 2.0242-1.184 4.4093-1.776 7.1556-1.776 1.9412 0 3.7168.302 5.3267.906 1.6103.603 3.0003 1.497 4.1723 2.681 1.172 1.184 2.084 2.645 2.735 4.385.651 1.729.976 3.711.976 5.949v2.166H83.8833v-5.043h15.625c-.0118-.923-.2308-1.746-.6569-2.468-.4262-.722-1.0121-1.284-1.7578-1.687-.7339-.414-1.5803-.621-2.5391-.621-.9706 0-1.8407.219-2.6101.657-.7694.426-1.379 1.012-1.8288 1.758-.4498.734-.6866 1.568-.7102 2.503v5.132c0 1.112.2189 2.089.6569 2.929.438.829 1.0594 1.474 1.8644 1.936.8049.461 1.7637.692 2.8764.692.7694 0 1.4678-.106 2.0952-.319.6273-.214 1.1659-.527 1.6157-.941.4498-.415.7872-.924 1.0121-1.527l7.9719.23c-.331 1.788-1.059 3.344-2.184 4.67-1.112 1.314-2.574 2.338-4.385 3.072-1.8113.722-3.9064 1.083-6.2857 1.083Zm30.1267 0c-2.853 0-5.315-.562-7.386-1.687-2.06-1.136-3.646-2.752-4.759-4.847-1.1-2.107-1.651-4.611-1.651-7.511 0-2.817.556-5.279 1.669-7.386 1.113-2.119 2.681-3.764 4.705-4.936 2.025-1.184 4.41-1.776 7.156-1.776 1.941 0 3.717.302 5.327.906 1.609.603 3 1.497 4.172 2.681 1.172 1.184 2.084 2.645 2.735 4.385.651 1.729.976 3.711.976 5.949v2.166H114.01v-5.043h15.625c-.012-.923-.231-1.746-.657-2.468-.426-.722-1.012-1.284-1.757-1.687-.734-.414-1.581-.621-2.54-.621-.97 0-1.84.219-2.61.657-.769.426-1.379 1.012-1.828 1.758-.45.734-.687 1.568-.711 2.503v5.132c0 1.112.219 2.089.657 2.929.438.829 1.06 1.474 1.865 1.936.805.461 1.763.692 2.876.692.769 0 1.468-.106 2.095-.319.628-.214 1.166-.527 1.616-.941.45-.415.787-.924 1.012-1.527l7.972.23c-.331 1.788-1.059 3.344-2.184 4.67-1.112 1.314-2.574 2.338-4.385 3.072-1.811.722-3.906 1.083-6.286 1.083Zm32.773-27.788v6.392h-17.205v-6.392h17.205Zm-13.601-6.534h8.682v25.231c0 .533.083.965.249 1.296.178.32.432.551.764.693.331.13.728.195 1.189.195.332 0 .681-.03 1.048-.089.379-.071.663-.13.852-.177l1.314 6.267c-.414.119-1 .267-1.758.444-.746.178-1.639.29-2.681.338-2.036.094-3.782-.142-5.238-.711-1.444-.58-2.551-1.479-3.32-2.698-.758-1.22-1.125-2.753-1.101-4.599v-26.19Zm36.461 34.269c-1.74 0-3.285-.29-4.634-.87-1.338-.592-2.397-1.48-3.178-2.664-.77-1.195-1.154-2.693-1.154-4.492 0-1.515.266-2.793.799-3.835.532-1.042 1.266-1.888 2.201-2.539.935-.651 2.013-1.142 3.232-1.474 1.219-.343 2.521-.574 3.906-.692 1.551-.142 2.8-.29 3.747-.444.947-.166 1.633-.397 2.059-.693.438-.308.657-.74.657-1.296v-.089c0-.911-.314-1.615-.941-2.113-.627-.497-1.474-.745-2.539-.745-1.148 0-2.071.248-2.77.745-.698.498-1.142 1.184-1.332 2.06l-8.007-.284c.236-1.657.846-3.137 1.829-4.439.994-1.314 2.355-2.344 4.083-3.089 1.74-.758 3.83-1.137 6.268-1.137 1.74 0 3.344.207 4.812.622 1.468.402 2.746.994 3.835 1.775 1.089.77 1.93 1.717 2.521 2.841.604 1.125.906 2.409.906 3.853V210h-8.168v-3.8h-.213c-.485.924-1.107 1.705-1.864 2.344-.746.639-1.628 1.119-2.646 1.438-1.006.32-2.142.48-3.409.48Zm2.681-5.682c.935 0 1.776-.19 2.522-.568.757-.379 1.361-.9 1.811-1.563.45-.675.674-1.456.674-2.344v-2.592c-.248.13-.55.249-.905.355-.343.107-.722.207-1.136.302-.415.095-.841.178-1.279.249-.438.071-.858.136-1.261.195-.816.13-1.515.331-2.095.604-.568.272-1.006.627-1.314 1.065-.296.426-.444.935-.444 1.527 0 .9.32 1.586.959 2.06.651.473 1.474.71 2.468.71Zm27.61-10.334V210h-8.682v-27.273h8.256v5.007h.302c.604-1.669 1.634-2.977 3.09-3.924 1.456-.958 3.19-1.438 5.202-1.438 1.918 0 3.581.432 4.989 1.296 1.421.853 2.522 2.048 3.303 3.587.793 1.527 1.184 3.314 1.172 5.362V210h-8.683v-15.678c.012-1.515-.373-2.699-1.154-3.551-.769-.853-1.841-1.279-3.214-1.279-.911 0-1.716.201-2.414.604-.687.391-1.22.953-1.598 1.687-.367.734-.557 1.621-.569 2.663Zm46.498 16.069c-2.853 0-5.315-.562-7.386-1.687-2.06-1.136-3.646-2.752-4.759-4.847-1.101-2.107-1.651-4.611-1.651-7.511 0-2.817.556-5.279 1.669-7.386 1.113-2.119 2.681-3.764 4.705-4.936 2.024-1.184 4.41-1.776 7.156-1.776 1.941 0 3.717.302 5.326.906 1.61.603 3.001 1.497 4.173 2.681 1.172 1.184 2.083 2.645 2.734 4.385.651 1.729.977 3.711.977 5.949v2.166h-23.704v-5.043h15.625c-.012-.923-.231-1.746-.657-2.468-.426-.722-1.012-1.284-1.758-1.687-.734-.414-1.58-.621-2.539-.621-.97 0-1.84.219-2.61.657-.769.426-1.379 1.012-1.829 1.758-.449.734-.686 1.568-.71 2.503v5.132c0 1.112.219 2.089.657 2.929.438.829 1.06 1.474 1.864 1.936.805.461 1.764.692 2.877.692.769 0 1.468-.106 2.095-.319.627-.214 1.166-.527 1.616-.941.45-.415.787-.924 1.012-1.527l7.972.23c-.331 1.788-1.059 3.344-2.184 4.67-1.112 1.314-2.574 2.338-4.385 3.072-1.811.722-3.907 1.083-6.286 1.083Zm26.061-16.069V210h-8.683v-27.273h8.257v5.007h.302c.603-1.669 1.633-2.977 3.089-3.924 1.456-.958 3.19-1.438 5.203-1.438 1.917 0 3.58.432 4.989 1.296 1.42.853 2.521 2.048 3.303 3.587.793 1.527 1.183 3.314 1.171 5.362V210h-8.682v-15.678c.012-1.515-.373-2.699-1.154-3.551-.77-.853-1.841-1.279-3.214-1.279-.911 0-1.716.201-2.415.604-.686.391-1.219.953-1.598 1.687-.367.734-.556 1.621-.568 2.663Zm31.689 0V210h-8.682v-36.364h8.398v14.098h.302c.616-1.68 1.622-2.994 3.019-3.941 1.408-.947 3.131-1.421 5.167-1.421 1.917 0 3.586.426 5.007 1.279 1.42.84 2.521 2.03 3.302 3.568.793 1.539 1.184 3.339 1.172 5.398V210h-8.682v-15.678c.011-1.515-.367-2.699-1.137-3.551-.769-.853-1.852-1.279-3.249-1.279-.912 0-1.716.201-2.415.604-.686.391-1.225.953-1.616 1.687-.378.734-.574 1.621-.586 2.663Zm30.793 16.016c-1.74 0-3.285-.29-4.634-.87-1.338-.592-2.397-1.48-3.178-2.664-.77-1.195-1.154-2.693-1.154-4.492 0-1.515.266-2.793.799-3.835.532-1.042 1.266-1.888 2.201-2.539.935-.651 2.013-1.142 3.232-1.474 1.219-.343 2.521-.574 3.906-.692 1.551-.142 2.8-.29 3.747-.444.947-.166 1.633-.397 2.059-.693.438-.308.657-.74.657-1.296v-.089c0-.911-.313-1.615-.941-2.113-.627-.497-1.474-.745-2.539-.745-1.148 0-2.071.248-2.77.745-.698.498-1.142 1.184-1.331 2.06l-8.008-.284c.236-1.657.846-3.137 1.829-4.439.994-1.314 2.355-2.344 4.083-3.089 1.74-.758 3.83-1.137 6.268-1.137 1.74 0 3.344.207 4.812.622 1.468.402 2.746.994 3.835 1.775 1.089.77 1.93 1.717 2.521 2.841.604 1.125.906 2.409.906 3.853V210h-8.168v-3.8h-.213c-.485.924-1.106 1.705-1.864 2.344-.746.639-1.628 1.119-2.646 1.438-1.006.32-2.142.48-3.409.48Zm2.681-5.682c.936 0 1.776-.19 2.522-.568.757-.379 1.361-.9 1.811-1.563.45-.675.674-1.456.674-2.344v-2.592c-.248.13-.55.249-.905.355-.343.107-.722.207-1.136.302-.415.095-.841.178-1.279.249-.438.071-.858.136-1.26.195-.817.13-1.516.331-2.096.604-.568.272-1.006.627-1.314 1.065-.296.426-.443.935-.443 1.527 0 .9.319 1.586.958 2.06.651.473 1.474.71 2.468.71Zm27.61-10.334V210h-8.682v-27.273h8.256v5.007h.302c.604-1.669 1.634-2.977 3.09-3.924 1.456-.958 3.19-1.438 5.202-1.438 1.918 0 3.581.432 4.989 1.296 1.421.853 2.522 2.048 3.303 3.587.793 1.527 1.184 3.314 1.172 5.362V210h-8.683v-15.678c.012-1.515-.373-2.699-1.154-3.551-.769-.853-1.84-1.279-3.214-1.279-.911 0-1.716.201-2.414.604-.687.391-1.22.953-1.598 1.687-.367.734-.557 1.621-.569 2.663Zm35.738 16.069c-2.876 0-5.344-.592-7.404-1.776-2.048-1.183-3.622-2.829-4.723-4.936-1.101-2.119-1.651-4.569-1.651-7.351 0-2.793.55-5.243 1.651-7.35 1.113-2.119 2.693-3.771 4.741-4.954 2.06-1.184 4.516-1.776 7.368-1.776 2.522 0 4.718.456 6.588 1.367 1.882.912 3.35 2.202 4.403 3.871 1.066 1.657 1.628 3.604 1.687 5.842h-8.114c-.166-1.397-.64-2.492-1.421-3.285-.769-.793-1.775-1.19-3.018-1.19-1.006 0-1.888.284-2.646.853-.757.556-1.349 1.384-1.775 2.485-.415 1.089-.622 2.439-.622 4.049 0 1.609.207 2.971.622 4.083.426 1.101 1.018 1.936 1.775 2.504.758.556 1.64.835 2.646.835.805 0 1.515-.172 2.13-.515.628-.344 1.143-.847 1.545-1.51.403-.674.657-1.491.764-2.45h8.114c-.083 2.249-.645 4.214-1.687 5.895-1.03 1.681-2.48 2.989-4.35 3.924-1.858.923-4.066 1.385-6.623 1.385Zm29.852 0c-2.853 0-5.315-.562-7.386-1.687-2.06-1.136-3.646-2.752-4.759-4.847-1.101-2.107-1.651-4.611-1.651-7.511 0-2.817.556-5.279 1.669-7.386 1.113-2.119 2.681-3.764 4.705-4.936 2.024-1.184 4.409-1.776 7.156-1.776 1.941 0 3.716.302 5.326.906 1.61.603 3.001 1.497 4.173 2.681 1.172 1.184 2.083 2.645 2.734 4.385.651 1.729.977 3.711.977 5.949v2.166h-23.704v-5.043h15.625c-.012-.923-.231-1.746-.657-2.468-.426-.722-1.012-1.284-1.758-1.687-.734-.414-1.58-.621-2.539-.621-.97 0-1.841.219-2.61.657-.769.426-1.379 1.012-1.829 1.758-.45.734-.686 1.568-.71 2.503v5.132c0 1.112.219 2.089.657 2.929.438.829 1.059 1.474 1.864 1.936.805.461 1.764.692 2.877.692.769 0 1.468-.106 2.095-.319.627-.214 1.166-.527 1.616-.941.449-.415.787-.924 1.012-1.527l7.972.23c-.331 1.788-1.059 3.344-2.184 4.67-1.113 1.314-2.574 2.338-4.386 3.072-1.811.722-3.906 1.083-6.285 1.083Zm27.339-.124c-2.012 0-3.841-.521-5.486-1.563-1.646-1.042-2.96-2.604-3.942-4.687-.982-2.084-1.474-4.67-1.474-7.76 0-3.207.509-5.847 1.527-7.919 1.018-2.071 2.35-3.604 3.995-4.598 1.657-.995 3.439-1.492 5.345-1.492 1.432 0 2.657.249 3.675.746 1.018.485 1.859 1.113 2.521 1.882.663.769 1.166 1.568 1.51 2.397h.177v-13.761h8.683V210h-8.594v-4.421h-.266c-.367.84-.888 1.627-1.563 2.361-.675.734-1.521 1.326-2.539 1.776-1.006.45-2.196.675-3.569.675Zm3.019-6.765c1.053 0 1.953-.296 2.699-.888.745-.604 1.319-1.45 1.722-2.539.402-1.089.604-2.368.604-3.835 0-1.492-.202-2.776-.604-3.853-.391-1.078-.965-1.906-1.722-2.486-.746-.58-1.646-.87-2.699-.87-1.077 0-1.989.296-2.735.888-.745.591-1.314 1.426-1.704 2.503-.379 1.077-.568 2.35-.568 3.818 0 1.467.195 2.746.586 3.835.39 1.089.952 1.935 1.686 2.539.746.592 1.658.888 2.735.888ZM45.7131 264.391c-2.0123 0-3.8412-.521-5.4865-1.563-1.6454-1.042-2.9593-2.604-3.9418-4.687-.9825-2.084-1.4737-4.67-1.4737-7.76 0-3.207.509-5.847 1.527-7.919 1.018-2.071 2.3496-3.604 3.995-4.598 1.6572-.995 3.4387-1.492 5.3445-1.492 1.4322 0 2.6574.249 3.6754.746 1.018.485 1.8584 1.113 2.5213 1.882.6629.769 1.1659 1.568 1.5092 2.397h.1776v-13.761h8.6825V264h-8.5937v-4.421h-.2664c-.3669.84-.8878 1.627-1.5625 2.361-.6747.734-1.521 1.326-2.539 1.776-1.0062.45-2.1958.675-3.5689.675Zm3.0184-6.765c1.0535 0 1.9532-.296 2.6989-.888.7457-.604 1.3198-1.45 1.7223-2.539.4025-1.089.6037-2.368.6037-3.835 0-1.492-.2012-2.776-.6037-3.853-.3906-1.078-.9647-1.906-1.7223-2.486-.7457-.58-1.6454-.87-2.6989-.87-1.0771 0-1.9886.296-2.7343.888-.7458.591-1.314 1.426-1.7046 2.503-.3788 1.077-.5682 2.35-.5682 3.818 0 1.467.1953 2.746.586 3.835.3906 1.089.9529 1.935 1.6868 2.539.7457.592 1.6572.888 2.7343.888Zm31.7516 6.889c-2.8527 0-5.3148-.562-7.3863-1.687-2.0597-1.136-3.6459-2.752-4.7586-4.847-1.1008-2.107-1.6512-4.611-1.6512-7.511 0-2.817.5563-5.279 1.669-7.386 1.1127-2.119 2.6811-3.764 4.7053-4.936 2.0241-1.184 4.4093-1.776 7.1555-1.776 1.9413 0 3.7169.302 5.3267.906 1.6099.603 3.0007 1.497 4.1726 2.681s2.0833 2.645 2.7344 4.385c.651 1.729.9765 3.711.9765 5.949v2.166H69.7232v-5.043h15.625c-.0118-.923-.2308-1.746-.657-2.468-.4261-.722-1.012-1.284-1.7578-1.687-.7339-.414-1.5802-.621-2.539-.621-.9707 0-1.8407.219-2.6101.657-.7694.426-1.3791 1.012-1.8289 1.758-.4498.734-.6865 1.568-.7102 2.503v5.132c0 1.112.219 2.089.657 2.929.4379.829 1.0594 1.474 1.8643 1.936.8049.461 1.7637.692 2.8764.692.7694 0 1.4678-.106 2.0952-.319.6274-.214 1.166-.527 1.6158-.941.4498-.415.7871-.924 1.012-1.527l7.9723.23c-.3314 1.788-1.0594 3.344-2.1839 4.67-1.1127 1.314-2.5746 2.338-4.3857 3.072-1.811.722-3.9062 1.083-6.2855 1.083Zm43.1019-27.788L114.228 264h-9.943l-9.3399-27.273h9.1439l5.025 18.786h.284l5.043-18.786h9.144Zm26.82 27.788c-2.853 0-5.315-.562-7.386-1.687-2.06-1.136-3.646-2.752-4.759-4.847-1.101-2.107-1.651-4.611-1.651-7.511 0-2.817.556-5.279 1.669-7.386 1.113-2.119 2.681-3.764 4.705-4.936 2.024-1.184 4.409-1.776 7.156-1.776 1.941 0 3.717.302 5.326.906 1.61.603 3.001 1.497 4.173 2.681 1.172 1.184 2.083 2.645 2.734 4.385.651 1.729.977 3.711.977 5.949v2.166h-23.704v-5.043h15.625c-.012-.923-.231-1.746-.657-2.468-.426-.722-1.012-1.284-1.758-1.687-.734-.414-1.58-.621-2.539-.621-.97 0-1.84.219-2.61.657-.769.426-1.379 1.012-1.829 1.758-.45.734-.686 1.568-.71 2.503v5.132c0 1.112.219 2.089.657 2.929.438.829 1.059 1.474 1.864 1.936.805.461 1.764.692 2.877.692.769 0 1.468-.106 2.095-.319.627-.214 1.166-.527 1.616-.941.45-.415.787-.924 1.012-1.527l7.972.23c-.331 1.788-1.059 3.344-2.184 4.67-1.113 1.314-2.574 2.338-4.385 3.072-1.812.722-3.907 1.083-6.286 1.083Zm24.374-27.788 4.492 8.985 4.652-8.985h8.754l-7.617 13.637L192.961 264h-8.683l-5.007-9.055-4.883 9.055h-8.806l7.919-13.636-7.529-13.637h8.807Zm21.862 37.5v-37.5h8.594v4.67h.266c.355-.829.858-1.628 1.509-2.397.663-.769 1.503-1.397 2.521-1.882 1.03-.497 2.261-.746 3.694-.746 1.894 0 3.663.497 5.309 1.492 1.657.994 2.994 2.527 4.012 4.598 1.018 2.072 1.527 4.712 1.527 7.919 0 3.09-.491 5.676-1.473 7.76-.971 2.083-2.285 3.645-3.942 4.687-1.646 1.042-3.474 1.563-5.487 1.563-1.373 0-2.562-.225-3.569-.675-1.006-.45-1.852-1.042-2.539-1.776-.674-.734-1.195-1.521-1.562-2.361h-.178v14.648h-8.682Zm8.505-23.863c0 1.467.195 2.746.586 3.835.402 1.089.976 1.935 1.722 2.539.758.592 1.663.888 2.717.888 1.065 0 1.971-.296 2.716-.888.746-.604 1.308-1.45 1.687-2.539.391-1.089.586-2.368.586-3.835 0-1.468-.195-2.741-.586-3.818-.379-1.077-.941-1.912-1.687-2.503-.734-.592-1.639-.888-2.716-.888-1.066 0-1.971.29-2.717.87-.746.58-1.32 1.408-1.722 2.486-.391 1.077-.586 2.361-.586 3.853Zm36.226 14.151c-2.853 0-5.315-.562-7.387-1.687-2.059-1.136-3.645-2.752-4.758-4.847-1.101-2.107-1.651-4.611-1.651-7.511 0-2.817.556-5.279 1.669-7.386 1.112-2.119 2.681-3.764 4.705-4.936 2.024-1.184 4.409-1.776 7.155-1.776 1.942 0 3.717.302 5.327.906 1.61.603 3.001 1.497 4.173 2.681 1.172 1.184 2.083 2.645 2.734 4.385.651 1.729.977 3.711.977 5.949v2.166h-23.704v-5.043h15.625c-.012-.923-.231-1.746-.657-2.468-.426-.722-1.012-1.284-1.758-1.687-.734-.414-1.58-.621-2.539-.621-.971 0-1.841.219-2.61.657-.769.426-1.379 1.012-1.829 1.758-.45.734-.686 1.568-.71 2.503v5.132c0 1.112.219 2.089.657 2.929.438.829 1.059 1.474 1.864 1.936.805.461 1.764.692 2.877.692.769 0 1.467-.106 2.095-.319.627-.214 1.166-.527 1.616-.941.449-.415.787-.924 1.012-1.527l7.972.23c-.332 1.788-1.06 3.344-2.184 4.67-1.113 1.314-2.575 2.338-4.386 3.072-1.811.722-3.906 1.083-6.285 1.083ZM258.75 264v-27.273h8.434v4.972h.284c.497-1.799 1.308-3.137 2.433-4.013 1.124-.888 2.432-1.332 3.924-1.332.402 0 .817.03 1.243.089.426.048.822.124 1.189.231v7.546c-.414-.142-.959-.254-1.633-.337-.663-.083-1.255-.124-1.776-.124-1.03 0-1.959.23-2.787.692-.817.45-1.462 1.083-1.936 1.9-.461.805-.692 1.752-.692 2.841V264h-8.683Zm21.045 0v-27.273h8.683V264h-8.683Zm4.35-30.451c-1.219 0-2.267-.402-3.143-1.207-.875-.817-1.313-1.8-1.313-2.948 0-1.136.438-2.107 1.313-2.912.876-.817 1.924-1.225 3.143-1.225 1.231 0 2.279.408 3.143 1.225.876.805 1.314 1.776 1.314 2.912 0 1.148-.438 2.131-1.314 2.948-.864.805-1.912 1.207-3.143 1.207Zm22.608 30.966c-2.853 0-5.315-.562-7.387-1.687-2.059-1.136-3.646-2.752-4.758-4.847-1.101-2.107-1.652-4.611-1.652-7.511 0-2.817.557-5.279 1.67-7.386 1.112-2.119 2.681-3.764 4.705-4.936 2.024-1.184 4.409-1.776 7.155-1.776 1.942 0 3.717.302 5.327.906 1.61.603 3.001 1.497 4.173 2.681 1.171 1.184 2.083 2.645 2.734 4.385.651 1.729.977 3.711.977 5.949v2.166h-23.704v-5.043h15.625c-.012-.923-.231-1.746-.657-2.468-.426-.722-1.012-1.284-1.758-1.687-.734-.414-1.58-.621-2.539-.621-.971 0-1.841.219-2.61.657-.77.426-1.379 1.012-1.829 1.758-.45.734-.687 1.568-.71 2.503v5.132c0 1.112.219 2.089.657 2.929.438.829 1.059 1.474 1.864 1.936.805.461 1.764.692 2.876.692.77 0 1.468-.106 2.096-.319.627-.214 1.166-.527 1.615-.941.45-.415.788-.924 1.012-1.527l7.973.23c-.332 1.788-1.06 3.344-2.184 4.67-1.113 1.314-2.575 2.338-4.386 3.072-1.811.722-3.906 1.083-6.285 1.083Zm26.061-16.069V264h-8.683v-27.273h8.256v5.007h.302c.604-1.669 1.634-2.977 3.09-3.924 1.456-.958 3.19-1.438 5.202-1.438 1.918 0 3.581.432 4.99 1.296 1.42.853 2.521 2.048 3.302 3.587.793 1.527 1.184 3.314 1.172 5.362V264h-8.683v-15.678c.012-1.515-.372-2.699-1.154-3.551-.769-.853-1.84-1.279-3.213-1.279-.912 0-1.717.201-2.415.604-.687.391-1.219.953-1.598 1.687-.367.734-.557 1.621-.568 2.663Zm35.737 16.069c-2.876 0-5.344-.592-7.404-1.776-2.048-1.183-3.622-2.829-4.723-4.936-1.101-2.119-1.651-4.569-1.651-7.351 0-2.793.55-5.243 1.651-7.35 1.113-2.119 2.693-3.771 4.741-4.954 2.06-1.184 4.516-1.776 7.369-1.776 2.521 0 4.717.456 6.587 1.367 1.882.912 3.35 2.202 4.403 3.871 1.066 1.657 1.628 3.604 1.687 5.842h-8.114c-.166-1.397-.639-2.492-1.421-3.285-.769-.793-1.775-1.19-3.018-1.19-1.006 0-1.888.284-2.646.853-.757.556-1.349 1.384-1.775 2.485-.415 1.089-.622 2.439-.622 4.049 0 1.609.207 2.971.622 4.083.426 1.101 1.018 1.936 1.775 2.504.758.556 1.64.835 2.646.835.805 0 1.515-.172 2.131-.515.627-.344 1.142-.847 1.544-1.51.403-.674.657-1.491.764-2.45h8.114c-.083 2.249-.645 4.214-1.687 5.895-1.03 1.681-2.48 2.989-4.35 3.924-1.858.923-4.066 1.385-6.623 1.385Zm29.852 0c-2.853 0-5.315-.562-7.386-1.687-2.06-1.136-3.646-2.752-4.759-4.847-1.101-2.107-1.651-4.611-1.651-7.511 0-2.817.556-5.279 1.669-7.386 1.113-2.119 2.681-3.764 4.705-4.936 2.024-1.184 4.41-1.776 7.156-1.776 1.941 0 3.717.302 5.326.906 1.61.603 3.001 1.497 4.173 2.681 1.172 1.184 2.083 2.645 2.734 4.385.651 1.729.977 3.711.977 5.949v2.166h-23.704v-5.043h15.625c-.012-.923-.231-1.746-.657-2.468-.426-.722-1.012-1.284-1.758-1.687-.734-.414-1.58-.621-2.539-.621-.97 0-1.84.219-2.61.657-.769.426-1.379 1.012-1.829 1.758-.449.734-.686 1.568-.71 2.503v5.132c0 1.112.219 2.089.657 2.929.438.829 1.06 1.474 1.864 1.936.805.461 1.764.692 2.877.692.769 0 1.468-.106 2.095-.319.627-.214 1.166-.527 1.616-.941.45-.415.787-.924 1.012-1.527l7.972.23c-.331 1.788-1.059 3.344-2.184 4.67-1.112 1.314-2.574 2.338-4.385 3.072-1.812.722-3.907 1.083-6.286 1.083Z"/><path fill="#E4E4E7" d="M784.395 212.331c-1.703-.953-2.726-2.097-2.081-3.974.369-1.073 1.321-1.383 2.392-1.284 1.12.103 1.838.729 1.935 1.848.063.71.111 1.617-.258 2.118-.457.618-1.354.907-1.988 1.292ZM827.725 212.376c-2.393-2.026-2.866-3.42-1.715-4.653.823-.882 2.495-.902 3.345-.04 1.181 1.195.731 2.603-1.63 4.693ZM676.886 191.326c-2.387-2.005-2.868-3.413-1.721-4.648.824-.887 2.49-.907 3.343-.04 1.186 1.204.736 2.621-1.622 4.688ZM743.935 251.536c-.053 1.208-1.166 2.198-2.472 2.199-1.381.001-2.649-1.301-2.49-2.558.158-1.262 1.232-2.073 2.66-2.01 1.26.057 2.354 1.181 2.302 2.369ZM717.859 188.384c.081-1.381.842-2.327 1.889-2.346 1.156-.021 2.694 1.536 2.645 2.679-.049 1.179-1.661 2.632-2.79 2.516-1.159-.119-1.837-1.228-1.744-2.849ZM738.824 188.299c.808-1.31 1.517-2.516 3.157-2.178 1.011.208 1.994 1.905 1.689 2.892-.325 1.053-.778 2.206-2.111 2.21-1.942.006-1.992-1.787-2.735-2.924ZM765.062 188.671c-.012 1.586-.862 2.663-2.035 2.579-1.018-.074-2.401-1.426-2.499-2.445-.108-1.127 1.365-2.726 2.55-2.768 1.155-.041 1.996 1.075 1.984 2.634ZM786.708 188.733c-.034 1.609-.898 2.644-2.096 2.509-1.047-.118-2.389-1.486-2.451-2.498-.068-1.135 1.454-2.709 2.621-2.711 1.149-.003 1.958 1.132 1.926 2.7ZM806.179 191.307c-2.472-1.916-2.987-3.247-1.887-4.557.77-.918 2.438-1.01 3.344-.184 1.246 1.136.836 2.608-1.457 4.741ZM676.982 212.355c-2.479-1.935-2.99-3.25-1.894-4.555.766-.913 2.44-1.01 3.345-.195 1.249 1.125.844 2.588-1.451 4.75ZM848.794 186.059c1.13-.124 2.739 1.316 2.797 2.505.049.962-1.204 2.43-2.267 2.658-1.18.253-2.164-.749-2.266-2.31-.108-1.614.568-2.724 1.736-2.853ZM655.318 212.355c-2.447-1.953-2.954-3.292-1.856-4.574.775-.904 2.446-.982 3.344-.156 1.243 1.146.83 2.594-1.488 4.73ZM698.752 212.255c-1.728-.348-2.772-1.128-2.542-3.04.158-1.305.782-2.01 2.11-2.153 1.28-.137 1.735.713 2.156 1.644.869 1.928-.611 2.645-1.724 3.549ZM805.953 212.361c-2.314-2.144-2.728-3.586-1.492-4.733.894-.831 2.564-.755 3.343.151 1.109 1.29.608 2.621-1.851 4.582ZM655.114 191.355c-1.178-1.025-2.803-1.68-1.891-3.567.475-.982 1.319-2.01 2.565-1.652.659.189 1.21 1.033 1.626 1.698.222.356.109.967.045 1.449-.045.344-.17.787-.417.971-.571.425-1.238.719-1.928 1.101ZM698.772 191.189c-1.617-.293-2.752-.94-2.569-2.878.103-1.091.484-1.909 1.57-2.214.937-.264 2.478.721 2.839 1.884.526 1.692-.759 2.403-1.84 3.208ZM828.026 191.265c-2.098-.52-2.908-1.519-2.597-3.31.191-1.096.836-2.077 1.873-1.832.933.221 2.035 1.027 2.451 1.878.791 1.622-.805 2.307-1.727 3.264ZM762.508 212.275c-1.125-.924-2.588-1.708-1.748-3.296.442-.833 1.555-1.604 2.487-1.794 1.057-.214 1.637.805 1.808 1.894.286 1.823-.608 2.752-2.547 3.196ZM738.888 293.726c.491-1.619 1.196-3.026 2.717-2.747.969.178 1.747 1.405 2.572 2.128-2.367 3.509-2.664 3.532-5.289.619ZM720.481 212.312c-2.115-.526-2.906-1.538-2.606-3.318.186-1.1.838-2.069 1.874-1.82.931.223 2.024 1.03 2.44 1.881.795 1.623-.817 2.298-1.708 3.257ZM743.958 272.731c-.793 1.404-1.86 2.567-3.513 1.883-.687-.285-1.402-1.515-1.373-2.289.036-.988.586-2.058 2.044-2.152 1.934-.126 2.566.964 2.842 2.558ZM700.767 230.491c-.044 1.415-.928 2.236-2.359 2.192-1.428-.045-2.23-.913-2.184-2.364.046-1.435.898-2.224 2.36-2.186 1.443.036 2.229.885 2.183 2.358ZM848.813 290.877c1.08-.092 2.593 1.038 2.749 2.054.171 1.12-1.188 2.74-2.409 2.87-1.064.114-1.94-.773-2.092-2.117-.171-1.49.591-2.708 1.752-2.807ZM655.258 291.241c1.413.012 2.258.896 2.231 2.328-.028 1.431-.891 2.273-2.312 2.253-1.428-.018-2.25-.875-2.234-2.327.017-1.424.882-2.267 2.315-2.254ZM676.903 291.24c1.408.024 2.254.915 2.225 2.342-.028 1.428-.895 2.265-2.323 2.244-1.426-.024-2.242-.883-2.224-2.343.017-1.427.887-2.268 2.322-2.243ZM827.741 270.205c1.413.025 2.251.904 2.227 2.34-.023 1.428-.883 2.256-2.322 2.237-1.431-.02-2.246-.874-2.228-2.336.018-1.422.89-2.265 2.323-2.241ZM655.165 228.133c1.444-.022 2.297.793 2.327 2.224.031 1.447-.786 2.299-2.226 2.322-1.44.022-2.301-.802-2.325-2.225-.025-1.461.779-2.3 2.224-2.321ZM851.595 209.699c.01.999-1.391 2.311-2.532 2.369-.964.048-1.956-1.045-2.006-2.211-.069-1.602.658-2.699 1.829-2.761 1.169-.063 2.697 1.406 2.709 2.603ZM679.132 230.331c.036 1.454-.772 2.316-2.204 2.348-1.443.033-2.315-.785-2.346-2.201-.031-1.463.763-2.309 2.203-2.345 1.443-.038 2.311.776 2.347 2.198ZM806.234 291.24c1.376.094 2.19 1.056 2.094 2.474-.094 1.391-1.042 2.207-2.453 2.113-1.365-.092-2.185-1.061-2.098-2.478.084-1.369 1.058-2.205 2.457-2.109ZM827.728 291.239c1.408.026 2.258.912 2.24 2.335-.018 1.432-.878 2.27-2.312 2.253-1.418-.016-2.247-.881-2.238-2.335.009-1.43.88-2.278 2.31-2.253ZM806.224 270.205c1.375.085 2.196 1.044 2.107 2.46-.087 1.389-1.027 2.205-2.443 2.118-1.368-.084-2.194-1.044-2.111-2.457.081-1.376 1.04-2.207 2.447-2.121ZM657.493 251.513c-.033 1.419-.901 2.24-2.338 2.209-1.443-.03-2.24-.871-2.211-2.332.028-1.431.884-2.242 2.334-2.213 1.437.03 2.249.885 2.215 2.336ZM786.695 272.531c-.026 1.432-.888 2.269-2.314 2.249-1.431-.019-2.256-.876-2.237-2.324.019-1.421.893-2.272 2.316-2.254 1.414.018 2.261.902 2.235 2.329ZM738.861 209.231c.868-1.256 1.595-2.601 3.287-1.975 1.154.427 1.764 1.622 1.49 2.691-.203.794-1.163 1.824-1.92 1.953-1.908.325-2.312-1.347-2.857-2.669ZM700.767 272.429c.033 1.455-.778 2.319-2.207 2.35-1.431.033-2.294-.788-2.337-2.221-.043-1.43.791-2.32 2.205-2.353 1.425-.034 2.308.805 2.339 2.224ZM679.13 272.427c.03 1.456-.782 2.321-2.208 2.352-1.431.031-2.302-.794-2.341-2.217-.039-1.434.791-2.32 2.207-2.355 1.425-.036 2.313.806 2.342 2.22ZM657.491 272.427c.029 1.457-.782 2.321-2.208 2.351-1.443.031-2.304-.784-2.34-2.214-.035-1.438.791-2.319 2.206-2.356 1.43-.036 2.315.802 2.342 2.219ZM829.969 251.304c.075 1.454-.71 2.347-2.127 2.418-1.434.072-2.347-.728-2.424-2.123-.078-1.426.732-2.347 2.131-2.423 1.431-.077 2.348.729 2.42 2.128ZM808.333 251.522c-.034 1.414-.907 2.234-2.346 2.201-1.441-.032-2.24-.88-2.208-2.342.031-1.418.904-2.239 2.346-2.205 1.433.033 2.242.892 2.208 2.346ZM784.365 249.176c1.441-.022 2.306.802 2.329 2.221.024 1.458-.781 2.301-2.224 2.326-1.446.026-2.3-.789-2.326-2.218-.026-1.457.784-2.306 2.221-2.329ZM808.333 230.466c-.029 1.413-.904 2.243-2.339 2.214-1.438-.028-2.248-.883-2.214-2.337.034-1.426.896-2.242 2.337-2.213 1.445.029 2.245.873 2.216 2.336ZM698.553 249.178c1.44.025 2.242.87 2.214 2.331-.027 1.426-.886 2.242-2.33 2.214-1.442-.027-2.242-.869-2.217-2.332.025-1.429.879-2.239 2.333-2.213ZM679.133 251.385c.033 1.462-.769 2.309-2.211 2.338-1.445.029-2.309-.784-2.341-2.204-.032-1.454.775-2.31 2.209-2.343 1.438-.032 2.311.79 2.343 2.209ZM847.441 232.461c-.462-3.42-.036-4.326 1.887-4.325 1.12.001 2.145 1.122 2.249 2.459.117 1.519-1.007 2.06-4.136 1.866ZM829.969 230.217c.096 1.435-.698 2.371-2.088 2.464-1.428.094-2.374-.707-2.464-2.086-.092-1.42.713-2.367 2.094-2.464 1.427-.1 2.365.696 2.458 2.086ZM786.698 230.593c-.085 1.376-1.032 2.179-2.462 2.088-1.389-.09-2.181-1.021-2.091-2.461.088-1.393 1.02-2.187 2.454-2.088 1.377.095 2.186 1.043 2.099 2.461ZM764.779 232.352c-3.097.344-4.276-.139-4.262-1.617.014-1.424 1.257-2.72 2.495-2.602 1.743.167 2.05.851 1.767 4.219ZM738.888 230.235c2.486-2.804 2.661-2.804 5.084-.055-.36 1.123-.462 2.373-2.142 2.532-1.731.163-2.445-.758-2.942-2.477ZM847.474 270.331c.85-.048 1.473-.194 2.054-.095 1.175.199 2.254 1.604 1.893 2.597-.309.846-.577 1.901-1.874 1.956-1.386.06-2.357-.605-2.455-2.064-.052-.786.244-1.595.382-2.394ZM722.337 293.711c-.666 1.163-1.389 2.34-3.031 2.018-1.024-.201-2.096-1.943-1.673-2.872.3-.658 1.038-1.362 1.715-1.548 1.458-.401 1.791-.03 2.989 2.402ZM764.799 291.619c.232 3.045-.305 4.255-1.741 4.194-1.15-.049-2.584-1.58-2.538-2.709.058-1.443 1.272-1.9 4.279-1.485ZM718.134 232.35c-.294-3.359.175-4.255 2.065-4.214 1.094.024 2.218 1.356 2.1 2.489-.158 1.529-1.319 2.047-4.165 1.725ZM718.045 270.381c.958-.08 1.562-.224 2.141-.157 1.14.133 2.359 1.509 2.068 2.471-.263.87-.527 1.917-1.758 2.084-1.332.182-2.37-.487-2.591-1.911-.108-.692.069-1.428.14-2.487ZM765.048 251.384c.032 1.486-.786 2.332-2.256 2.339-1.284.006-2.28-.84-2.275-1.931.005-1.2 1.118-2.555 2.138-2.607 1.484-.075 2.364.733 2.393 2.199ZM698.074 295.808c-1.053-.04-1.863-1.06-1.851-2.331.015-1.436.876-2.267 2.32-2.236 1.227.026 2.236.927 2.213 1.977-.026 1.173-1.539 2.634-2.682 2.59ZM784.263 291.24c1.42-.085 2.362.739 2.433 2.131.064 1.267-.693 2.315-1.752 2.424-1.128.115-2.671-1.257-2.777-2.473-.094-1.073.847-2.007 2.096-2.082ZM760.611 272.593c-.061-1.185 1.098-2.413 2.251-2.385 1.272.031 2.067.759 2.187 2.002.138 1.414-.645 2.422-1.998 2.574-1.134.127-2.379-.991-2.44-2.191ZM722.3 251.351c.056 1.191-1.091 2.395-2.245 2.371-1.307-.026-2.038-.691-2.186-1.989-.162-1.421.615-2.407 1.989-2.559 1.147-.126 2.385.978 2.442 2.177ZM849.234 253.72c-1.431-.043-2.219-.903-2.173-2.37.044-1.439.91-2.229 2.374-2.167.942.04 2.018 1.18 2.06 2.182.05 1.199-1.094 2.391-2.261 2.355ZM948.402 450.845c-1.706-.95-2.731-2.088-2.084-3.955.37-1.069 1.323-1.377 2.397-1.278 1.122.102 1.841.725 1.939 1.838.062.707.111 1.61-.259 2.108-.458.616-1.357.903-1.993 1.287ZM991.822 450.889c-2.399-2.016-2.873-3.404-1.719-4.631.825-.877 2.499-.897 3.352-.04 1.183 1.189.732 2.591-1.633 4.671ZM840.675 429.94c-2.392-1.995-2.874-3.397-1.725-4.625.826-.883 2.495-.903 3.35-.04 1.188 1.198.737 2.609-1.625 4.665ZM907.86 489.86c-.053 1.202-1.168 2.188-2.477 2.189-1.384 0-2.654-1.295-2.495-2.546.159-1.255 1.235-2.063 2.666-2 1.262.056 2.358 1.175 2.306 2.357ZM881.732 427.013c.08-1.375.843-2.316 1.892-2.335 1.158-.021 2.699 1.528 2.651 2.666-.05 1.173-1.665 2.619-2.797 2.503-1.16-.118-1.84-1.221-1.746-2.834ZM902.739 426.927c.809-1.303 1.52-2.503 3.163-2.167 1.013.207 1.998 1.896 1.693 2.878-.326 1.048-.78 2.195-2.116 2.2-1.945.006-1.996-1.779-2.74-2.911ZM929.031 427.298c-.013 1.578-.864 2.65-2.039 2.567-1.02-.074-2.407-1.42-2.505-2.433-.109-1.122 1.368-2.713 2.555-2.755 1.158-.041 2 1.069 1.989 2.621ZM950.72 427.359c-.033 1.602-.899 2.632-2.099 2.498-1.049-.118-2.395-1.479-2.456-2.486-.069-1.129 1.456-2.696 2.626-2.698 1.151-.003 1.961 1.126 1.929 2.686ZM970.231 429.921c-2.477-1.906-2.992-3.231-1.89-4.534.771-.914 2.442-1.006 3.351-.184 1.248 1.131.837 2.596-1.461 4.718ZM840.771 450.868c-2.484-1.925-2.996-3.235-1.898-4.533.767-.909 2.445-1.006 3.352-.194 1.251 1.119.845 2.576-1.454 4.727ZM1012.93 424.699c1.14-.124 2.75 1.31 2.81 2.493.04.957-1.21 2.418-2.28 2.645-1.18.251-2.16-.745-2.27-2.299-.1-1.606.57-2.711 1.74-2.839ZM819.063 450.868c-2.453-1.944-2.961-3.276-1.86-4.552.776-.9 2.451-.977 3.35-.155 1.246 1.14.832 2.581-1.49 4.707ZM862.585 450.768c-1.731-.346-2.777-1.122-2.547-3.025.158-1.298.784-2 2.114-2.142 1.283-.137 1.739.709 2.16 1.635.872 1.919-.611 2.633-1.727 3.532ZM970.005 450.874c-2.319-2.134-2.733-3.569-1.496-4.711.896-.826 2.57-.75 3.35.151 1.112 1.284.61 2.609-1.854 4.56ZM818.858 429.969c-1.18-1.02-2.808-1.672-1.894-3.55.476-.977 1.321-2 2.569-1.644.661.189 1.213 1.028 1.63 1.69.223.354.109.962.046 1.442-.046.342-.171.784-.419.967-.572.423-1.24.715-1.932 1.095ZM862.605 429.804c-1.62-.291-2.757-.936-2.574-2.864.103-1.086.485-1.9 1.574-2.204.938-.262 2.482.718 2.844 1.876.527 1.683-.76 2.391-1.844 3.192ZM992.123 429.88c-2.102-.518-2.914-1.512-2.602-3.295.191-1.09.837-2.067 1.876-1.823.935.22 2.039 1.023 2.456 1.87.793 1.613-.806 2.295-1.73 3.248ZM926.472 450.788c-1.128-.919-2.594-1.7-1.752-3.28.442-.828 1.558-1.596 2.492-1.785 1.059-.214 1.64.801 1.811 1.885.287 1.814-.608 2.738-2.551 3.18ZM902.803 531.847c.492-1.611 1.199-3.012 2.722-2.733.971.177 1.751 1.398 2.578 2.118-2.372 3.491-2.669 3.514-5.3.615ZM884.359 450.825c-2.12-.523-2.913-1.53-2.612-3.302.186-1.094.84-2.059 1.879-1.811.932.222 2.027 1.025 2.444 1.871.797 1.616-.818 2.287-1.711 3.242ZM907.883 510.953c-.795 1.397-1.863 2.555-3.52 1.874-.688-.283-1.405-1.508-1.375-2.278.036-.983.587-2.048 2.047-2.141 1.938-.126 2.572.959 2.848 2.545ZM864.605 468.917c-.045 1.408-.93 2.225-2.364 2.181-1.431-.044-2.235-.908-2.189-2.352.046-1.429.9-2.213 2.365-2.176 1.446.036 2.234.88 2.188 2.347ZM1012.95 529.012c1.08-.092 2.6 1.033 2.76 2.044.17 1.115-1.19 2.727-2.42 2.857-1.06.113-1.94-.77-2.09-2.107-.17-1.484.59-2.696 1.75-2.794ZM819.002 529.374c1.416.012 2.264.892 2.236 2.317-.028 1.424-.893 2.262-2.316 2.243-1.431-.019-2.255-.872-2.239-2.317.017-1.417.884-2.255 2.319-2.243ZM840.691 529.373c1.411.024 2.259.911 2.231 2.331-.029 1.421-.898 2.254-2.328 2.233-1.429-.023-2.247-.878-2.229-2.331.017-1.42.889-2.257 2.326-2.233ZM991.837 508.44c1.416.025 2.255.899 2.232 2.328-.024 1.421-.885 2.245-2.327 2.226-1.433-.019-2.25-.869-2.233-2.324.018-1.415.893-2.254 2.328-2.23ZM818.909 466.57c1.447-.022 2.302.79 2.332 2.213.031 1.441-.787 2.288-2.23 2.311-1.444.022-2.306-.798-2.331-2.214-.024-1.454.781-2.289 2.229-2.31ZM1015.74 448.225c.01.994-1.39 2.299-2.54 2.357-.96.048-1.96-1.04-2.01-2.2-.07-1.594.66-2.686 1.84-2.748 1.17-.062 2.7 1.399 2.71 2.591ZM842.925 468.757c.036 1.448-.773 2.305-2.208 2.338-1.446.032-2.32-.782-2.351-2.191-.032-1.457.764-2.298 2.208-2.334 1.446-.037 2.315.772 2.351 2.187ZM970.286 529.373c1.379.094 2.195 1.052 2.099 2.462-.095 1.385-1.045 2.197-2.458 2.103-1.368-.092-2.19-1.056-2.103-2.466.085-1.362 1.061-2.194 2.462-2.099ZM991.824 529.372c1.411.027 2.263.907 2.244 2.324-.017 1.425-.879 2.259-2.316 2.242-1.421-.016-2.251-.877-2.243-2.324.009-1.422.882-2.267 2.315-2.242ZM970.276 508.44c1.379.084 2.201 1.038 2.112 2.448-.087 1.382-1.03 2.194-2.448 2.108-1.371-.084-2.198-1.04-2.115-2.446.08-1.369 1.041-2.196 2.451-2.11ZM821.242 489.838c-.033 1.411-.903 2.228-2.342 2.198-1.446-.03-2.245-.867-2.216-2.321.028-1.424.886-2.231 2.339-2.202 1.439.029 2.253.881 2.219 2.325ZM950.708 510.755c-.026 1.424-.89 2.258-2.319 2.238-1.434-.02-2.261-.873-2.241-2.313.018-1.415.894-2.262 2.32-2.244 1.417.019 2.266.898 2.24 2.319ZM902.776 447.759c.869-1.25 1.598-2.589 3.294-1.966 1.156.426 1.767 1.614 1.493 2.679-.204.789-1.165 1.815-1.924 1.943-1.912.323-2.317-1.34-2.863-2.656ZM864.605 510.653c.033 1.448-.78 2.307-2.212 2.339-1.434.032-2.299-.785-2.342-2.21-.043-1.424.792-2.31 2.209-2.343 1.429-.033 2.313.802 2.345 2.214ZM842.923 510.651c.031 1.449-.783 2.31-2.212 2.341-1.434.031-2.307-.79-2.346-2.207-.04-1.427.792-2.309 2.212-2.344 1.427-.035 2.317.803 2.346 2.21ZM821.24 510.651c.029 1.45-.784 2.31-2.212 2.34-1.446.031-2.309-.781-2.345-2.204-.035-1.431.792-2.308 2.211-2.344 1.433-.036 2.319.798 2.346 2.208ZM994.07 489.629c.075 1.447-.712 2.337-2.131 2.407-1.437.072-2.353-.725-2.43-2.113-.077-1.419.734-2.335 2.136-2.411 1.434-.077 2.353.726 2.425 2.117ZM972.389 489.846c-.034 1.408-.908 2.223-2.35 2.191-1.444-.032-2.245-.876-2.213-2.331.032-1.411.906-2.228 2.351-2.195 1.436.033 2.247.889 2.212 2.335ZM948.372 487.512c1.445-.022 2.311.798 2.335 2.21.024 1.451-.783 2.29-2.229 2.315-1.449.025-2.305-.786-2.331-2.208-.026-1.449.786-2.295 2.225-2.317ZM972.389 468.892c-.028 1.406-.905 2.232-2.343 2.203-1.441-.028-2.253-.879-2.218-2.325.034-1.42.897-2.232 2.341-2.203 1.448.029 2.25.869 2.22 2.325ZM862.386 487.514c1.442.025 2.246.866 2.219 2.32-.027 1.419-.888 2.231-2.336 2.203-1.444-.027-2.246-.865-2.221-2.321.025-1.422.88-2.228 2.338-2.202ZM842.926 489.71c.033 1.455-.77 2.298-2.215 2.327-1.448.028-2.314-.781-2.346-2.193-.033-1.447.776-2.3 2.213-2.332 1.442-.032 2.316.786 2.348 2.198ZM1011.58 470.878c-.47-3.404-.04-4.306 1.89-4.305 1.12.001 2.15 1.117 2.25 2.448.12 1.511-1.01 2.049-4.14 1.857ZM994.069 468.644c.097 1.428-.699 2.36-2.092 2.452-1.431.094-2.378-.703-2.468-2.075-.093-1.414.713-2.356 2.097-2.453 1.43-.1 2.37.692 2.463 2.076ZM950.71 469.018c-.085 1.37-1.034 2.169-2.466 2.078-1.392-.089-2.186-1.016-2.096-2.449.088-1.387 1.023-2.177 2.459-2.078 1.38.095 2.191 1.038 2.103 2.449ZM928.747 470.768c-3.104.343-4.285-.137-4.271-1.608.014-1.417 1.259-2.707 2.5-2.59 1.746.166 2.054.847 1.771 4.198ZM902.803 468.662c2.491-2.79 2.666-2.791 5.094-.055-.36 1.118-.462 2.361-2.145 2.52-1.736.162-2.45-.755-2.949-2.465ZM1011.61 508.565c.85-.048 1.48-.193 2.06-.094 1.18.197 2.26 1.596 1.9 2.584-.31.842-.58 1.891-1.88 1.947-1.39.059-2.36-.603-2.46-2.055-.05-.782.24-1.587.38-2.382ZM886.218 531.833c-.667 1.157-1.392 2.328-3.037 2.007-1.026-.2-2.1-1.933-1.676-2.857.3-.656 1.04-1.356 1.718-1.541 1.461-.4 1.795-.03 2.995 2.391ZM928.767 529.75c.232 3.03-.306 4.235-1.745 4.174-1.152-.048-2.589-1.572-2.543-2.695.059-1.437 1.275-1.891 4.288-1.479ZM882.007 470.767c-.295-3.343.175-4.235 2.069-4.194 1.096.024 2.222 1.35 2.104 2.478-.158 1.521-1.321 2.037-4.173 1.716ZM881.918 508.614c.96-.079 1.564-.223 2.144-.156 1.143.133 2.364 1.502 2.073 2.46-.263.865-.528 1.908-1.762 2.074-1.334.181-2.374-.485-2.596-1.903-.108-.688.069-1.421.141-2.475ZM929.017 489.709c.031 1.479-.788 2.321-2.262 2.328-1.286.005-2.284-.836-2.279-1.922.006-1.194 1.12-2.543 2.142-2.594 1.487-.075 2.369.729 2.399 2.188ZM861.906 533.92c-1.055-.04-1.867-1.056-1.854-2.321.014-1.429.877-2.256 2.323-2.225 1.23.026 2.241.923 2.218 1.968-.026 1.167-1.541 2.621-2.687 2.578ZM948.271 529.373c1.423-.085 2.366.736 2.437 2.121.065 1.261-.693 2.303-1.755 2.412-1.131.115-2.677-1.251-2.783-2.461-.094-1.067.849-1.997 2.101-2.072ZM924.57 510.816c-.061-1.179 1.101-2.401 2.255-2.374 1.275.032 2.072.756 2.193 1.993.137 1.407-.647 2.411-2.003 2.561-1.136.127-2.383-.986-2.445-2.18ZM886.181 489.676c.057 1.186-1.093 2.383-2.249 2.36-1.31-.026-2.043-.688-2.191-1.98-.163-1.414.616-2.395 1.994-2.546 1.149-.126 2.389.973 2.446 2.166ZM1013.37 492.034c-1.43-.043-2.22-.899-2.17-2.359.04-1.431.91-2.218 2.38-2.156.94.039 2.02 1.174 2.06 2.171.05 1.193-1.1 2.379-2.27 2.344Z"/><rect width="369.443" height="297.453" x="648.755" y="199.538" fill="#F2F4FF" rx="11"/><rect width="187.61" height="154.765" x="882.921" y="337.179" fill="#fff" stroke="#000" rx="9.5" transform="rotate(20.616 882.921 337.179)"/><rect width="187.61" height="154.765" x="595.69" y="268.169" fill="#fff" stroke="#000" rx="9.5" transform="rotate(-15 595.69 268.169)"/><path fill="#000" fill-rule="evenodd" d="m925.316 399.677 15.278 6.201-6.2 15.278-15.277-6.2 6.199-15.279Zm24.356 27.679-15.278-6.2-6.199 15.279-15.278-6.2-6.199 15.279 15.277 6.2-6.199 15.279 15.277 6.2 6.2-15.279 15.277 6.2-6.199 15.279 15.277 6.2 6.2-15.279-15.278-6.2 6.2-15.279 15.277 6.2 6.2-15.278-15.278-6.201 6.2-15.278-15.278-6.2-6.199 15.278Zm-6.2 15.279 15.278 6.2 6.199-15.279-15.277-6.2-6.2 15.279Zm0 0-6.199 15.279-15.278-6.2 6.2-15.279 15.277 6.2ZM709.072 278.86h-5.492v24.316l-9.108-22.546-5.091 2.058 9.344 23.129-17.638-17.639-3.883 3.883 16.905 16.906-21.907-9.572-2.199 5.032 23.181 10.129h-25.297v5.492h25.297l-23.181 10.128 2.199 5.033 21.907-9.573-16.905 16.907 3.883 3.883 17.638-17.639-9.344 23.129 5.091 2.057 9.108-22.545v24.316h5.492v-24.316l9.108 22.545 5.091-2.057-9.344-23.129 17.638 17.639 3.883-3.883-16.905-16.907 21.908 9.573 2.198-5.033-23.181-10.128h25.297v-5.492h-25.297l23.181-10.129-2.198-5.032-21.908 9.572 16.905-16.906-3.883-3.883-17.638 17.639 9.344-23.129-5.091-2.058-9.108 22.546V278.86Z" clip-rule="evenodd"/><path fill="url(#b)" d="M35 318h451v24H35v-24Z"/><path fill="url(#c)" d="M35 354h329v24H35v-24Z"/><path fill="url(#d)" d="M35 390h329v24H35v-24Z"/><path fill="url(#e)" d="M264 468h154v18H264z"/><defs><linearGradient id="a" x1="53" x2="207" y1="477" y2="477" gradientUnits="userSpaceOnUse"><stop stop-color="#B4B9C9"/><stop offset="1" stop-color="#B4B9C9" stop-opacity="0"/></linearGradient><linearGradient id="b" x1="35" x2="486" y1="330" y2="330" gradientUnits="userSpaceOnUse"><stop stop-color="#B4B9C9"/><stop offset="1" stop-color="#B4B9C9" stop-opacity="0"/></linearGradient><linearGradient id="c" x1="35" x2="364" y1="366" y2="366" gradientUnits="userSpaceOnUse"><stop stop-color="#B4B9C9"/><stop offset="1" stop-color="#B4B9C9" stop-opacity="0"/></linearGradient><linearGradient id="d" x1="35" x2="364" y1="402" y2="402" gradientUnits="userSpaceOnUse"><stop stop-color="#B4B9C9"/><stop offset="1" stop-color="#B4B9C9" stop-opacity="0"/></linearGradient><linearGradient id="e" x1="264" x2="418" y1="477" y2="477" gradientUnits="userSpaceOnUse"><stop stop-color="#B4B9C9"/><stop offset="1" stop-color="#B4B9C9" stop-opacity="0"/></linearGradient></defs></svg>
