<?xml version="1.0" encoding="UTF-8"?>
<svg width="44px" height="44px" viewBox="0 0 44 44" version="1.1" xmlns="http://www.w3.org/2000/svg" xmlns:xlink="http://www.w3.org/1999/xlink">
    <title>zudoku-logomark</title>
    <g id="Page-1" stroke="none" stroke-width="1" fill="none" fill-rule="evenodd">
        <g id="zudoku-logomark">
            <g id="r" transform="translate(12.6267, 6.6672)" fill="#000000" fill-rule="nonzero">
                <polygon id="Path" points="5.23449851 28.3327618 0 28.3327618 0 0 5.23449851 0"></polygon>
            </g>
            <path d="M24.2934588,15.35 L31.8077996,15.35 L18.9824528,28.8595642 C18.9071444,28.9351529 18.8558488,29.0313906 18.8351063,29.136131 C18.8143638,29.2408713 18.8250153,29.349349 18.8658463,29.4480161 C18.9065838,29.5466832 18.9756321,29.6309613 19.0642082,29.6903858 C19.1527844,29.7497169 19.2569641,29.7814847 19.3635731,29.7815781 L31.8077996,29.7815781 L31.8077996,35.0038322 L18.1328508,35.0038322 C17.1280537,35.0160722 16.1404486,34.7425887 15.284493,34.2151497 C14.4284439,33.687804 13.7392693,32.9280862 13.2968559,32.024292 C12.8401469,31.0575228 12.6934544,29.972839 12.8768667,28.9191755 C13.0602791,27.865512 13.5648267,26.8945383 14.3211809,26.1396791 L24.2934588,15.35 Z" id="Path" fill="#FF00BD" fill-rule="nonzero"></path>
            <rect id="Rectangle" fill-opacity="0.4" fill="#000000" x="12.63" y="21" width="5.225" height="14"></rect>
            <rect id="Rectangle" x="0" y="0" width="44" height="44"></rect>
        </g>
    </g>
</svg>