<svg xmlns="http://www.w3.org/2000/svg" width="76" height="24" fill="currentcolor" viewBox="0 0 76 24"><path d="M43.9022 20.0061h2.5477c-.1852-.9686-.2799-1.89-.2799-3.0003v-4.6305c0-3.11843-1.7807-4.65403-4.9757-4.65403-2.894 0-4.8619 1.51197-5.1166 4.08703h2.8477c.0927-1.1103.8798-1.84269 2.1763-1.84269 1.3429 0 2.2226.70869 2.2226 2.17349v.567l-3.5191.4016c-2.3846.2835-4.2368 1.2757-4.2368 3.6854 0 2.1735 1.6669 3.4728 3.959 3.4728 1.8753 0 3.4571-.7796 4.1127-2.1498.0288.8209.2621 1.89.2621 1.89Zm-3.5645-1.8427c-1.1807 0-1.829-.5907-1.829-1.5356 0-1.2521.9492-1.5356 2.1995-1.701l2.6161-.3071v.7323c0 1.89-1.4585 2.8114-2.9866 2.8114Zm15.9211 1.8427h2.9172V3h-2.9635v6.96561c-.5556-1.20486-1.8984-2.24434-3.7274-2.24434-3.1793 0-5.3861 2.57503-5.3861 6.28413 0 3.7327 2.2068 6.2842 5.3861 6.2842 1.7827 0 3.1949-.9923 3.7737-2.1971v1.9136Zm.0232-5.7881c0 2.3389-1.0882 3.8509-2.9635 3.8509-1.9216 0-3.1329-1.5829-3.1329-4.0635 0-2.4569 1.2113-4.06342 3.1329-4.06342 1.8753 0 2.9635 1.51202 2.9635 3.85082v.4252Zm4.6246-8.24496h3.1487V3.01996h-3.1487v2.95308Zm.0926 14.03306h2.9635V8.00476h-2.9635V20.0061Zm6.6646 0 2.9403-4.1107 2.9171 4.1107h3.4034l-4.561-6.2842 4.1906-5.71714h-3.1719l-2.6162 3.70904-2.593-3.70904h-3.4034l4.2369 5.85894-4.5147 6.1424h3.1719Z"/><path fill-rule="evenodd" d="M24.9132 20v-5.9832h3.8854L32.4513 20h3.2493l-4.0112-6.4314c1.8151-.5826 3.4061-2.0616 3.4061-4.54899C35.0955 5.7479 32.7994 4 28.9571 4H22v16h2.9132Zm0-13.64706v5.33336h3.9078c2.2185 0 3.3389-.9188 3.3389-2.66669 0-1.7479-1.2204-2.66667-3.5389-2.66667h-3.7078Z" clip-rule="evenodd"/><path d="M7 23c-3.86599 0-7-3.3578-7-7.5S3.13401 8 7 8v15ZM7 0H0v7h7V0ZM11.5 7C13.433 7 15 5.433 15 3.5S13.433 0 11.5 0C9.56704 0 8 1.567 8 3.5S9.56704 7 11.5 7Z"/></svg>