<svg width="161" height="49" viewBox="0 0 161 49" fill="none" xmlns="http://www.w3.org/2000/svg">
<path d="M91.9014 42.0164H97.2334C96.8448 39.9891 96.647 38.0617 96.647 35.7389V26.0498C96.647 19.5245 92.9219 16.3107 86.2352 16.3107C80.1804 16.3107 76.062 19.4745 75.5279 24.8634H81.4872C81.6804 22.5405 83.3282 21.0064 86.042 21.0064C88.7558 21.0064 90.6922 22.4883 90.6922 25.5543V26.7407L83.3282 27.5817C78.3394 28.1749 74.4619 30.25 74.4619 35.2934C74.4619 39.8413 77.9507 42.5596 82.7464 42.5596C86.6716 42.5596 89.9808 40.9277 91.3513 38.0617C91.4127 39.78 91.8991 42.0164 91.8991 42.0164H91.9014ZM84.4419 38.1617C81.9713 38.1617 80.6145 36.9253 80.6145 34.9479C80.6145 32.3273 82.6009 31.7341 85.217 31.3887L90.6922 30.7454V32.2773C90.6922 36.2321 87.6398 38.1594 84.4419 38.1594V38.1617ZM117.757 42.0164H123.862V6.43069H117.662V21.0064C116.498 18.4858 113.689 16.3107 109.861 16.3107C103.209 16.3107 98.5903 21.6996 98.5903 29.4613C98.5903 37.223 103.209 42.6119 109.861 42.6119C113.591 42.6119 116.546 40.5345 117.757 38.014V42.0187V42.0164ZM117.807 29.9045C117.807 34.7979 115.53 37.9617 111.607 37.9617C107.684 37.9617 105.052 34.6502 105.052 29.459C105.052 24.2679 107.586 20.9564 111.607 20.9564C115.627 20.9564 117.807 24.1201 117.807 29.0135V29.9022V29.9045ZM127.483 12.6537H134.071V6.47388H127.483V12.6537ZM127.678 42.0164H133.878V16.9039H127.678V42.0164ZM141.622 42.0164L147.774 33.4137L153.879 42.0164H161L151.456 28.8658L160.225 16.9016H153.588L148.113 24.6633L142.688 16.9016H135.567L144.433 29.1613L134.985 42.0141H141.622V42.0164Z" fill="#B4B9C9"/>
<path fill-rule="evenodd" clip-rule="evenodd" d="M52.1657 42.0051V29.484H60.2956L67.9392 42.0051H74.7395L66.3459 28.5476C70.1438 27.3294 73.4735 24.2338 73.4735 19.029C73.4735 12.1832 68.6688 8.52625 60.6298 8.52625H46.0723V42.0073H52.168L52.1657 42.0051ZM52.1657 13.4469V24.6065H60.3434C64.9845 24.6065 67.3301 22.6837 67.3301 19.0267C67.3301 15.3697 64.7754 13.4469 59.9252 13.4469H52.1657Z" fill="#B4B9C9"/>
<path d="M14.6826 48.2826C6.59357 48.2826 0.0341797 41.2573 0.0341797 32.5887C0.0341797 23.9201 6.5913 16.8948 14.6826 16.8948V48.2826Z" fill="#B4B9C9"/>
<path d="M14.6821 0.153168H0.0336914V14.8016H14.6821V0.153168Z" fill="#B4B9C9"/>
<path d="M24.0989 14.8015C28.1446 14.8015 31.422 11.5218 31.422 7.47846C31.422 3.43509 28.1423 0.155396 24.0989 0.155396C20.0556 0.155396 16.7759 3.43509 16.7759 7.47846C16.7759 11.5218 20.0556 14.8015 24.0989 14.8015Z" fill="#B4B9C9"/>
</svg>
