<svg width="76" height="86" viewBox="0 0 76 86" fill="none" xmlns="http://www.w3.org/2000/svg">
<g clip-path="url(#clip0_54_1057)">
<path d="M75.6834 43.0076C75.6834 38.0869 69.4324 33.4236 59.8485 30.5317C62.0601 20.9022 61.0772 13.241 56.746 10.7883C55.7476 10.2129 54.5804 9.94037 53.3056 9.94037V13.3167C54.0121 13.3167 54.5804 13.453 55.0565 13.7104C57.1453 14.8914 58.0515 19.3882 57.345 25.1719C57.176 26.5951 56.8996 28.0941 56.5617 29.6233C53.5513 28.8965 50.2645 28.3363 46.8088 27.9729C44.7354 25.1719 42.5851 22.6283 40.4195 20.4026C45.4265 15.815 50.1263 13.3016 53.321 13.3016V9.92523C49.0973 9.92523 43.5681 12.8928 37.9775 18.0406C32.3869 12.9231 26.8577 9.98579 22.634 9.98579V13.3622C25.8133 13.3622 30.5285 15.8604 35.5354 20.4177C33.3852 22.6434 31.235 25.1719 29.1922 27.9729C25.7211 28.3363 22.4344 28.8965 19.424 29.6384C19.0708 28.1243 18.8097 26.6557 18.6254 25.2476C17.9035 19.4639 18.7943 14.9671 20.8678 13.771C21.3285 13.4984 21.9275 13.3773 22.634 13.3773V10.0009C21.3439 10.0009 20.1766 10.2735 19.1629 10.8488C14.8471 13.3016 13.8795 20.9477 16.1065 30.5468C6.55333 33.4539 0.333008 38.1021 0.333008 43.0076C0.333008 47.9284 6.58405 52.5917 16.168 55.4836C13.9563 65.113 14.9393 72.7742 19.2704 75.227C20.2688 75.8024 21.436 76.0749 22.7262 76.0749C26.9499 76.0749 32.479 73.1073 38.0696 67.9595C43.6603 73.077 49.1894 76.0143 53.4131 76.0143C54.7032 76.0143 55.8705 75.7418 56.8842 75.1665C61.2 72.7137 62.1676 65.0676 59.9406 55.4684C69.4631 52.5765 75.6834 47.9132 75.6834 43.0076ZM55.6862 32.9088C55.1179 34.8619 54.4114 36.8757 53.6128 38.8894C52.9831 37.6781 52.3226 36.4669 51.6008 35.2556C50.8943 34.0443 50.1417 32.8634 49.3891 31.7127C51.5701 32.0306 53.6742 32.4243 55.6862 32.9088ZM48.6519 49.0336C47.4539 51.0776 46.2252 53.0156 44.9504 54.8174C42.6619 55.0142 40.3427 55.1202 38.0082 55.1202C35.689 55.1202 33.3698 55.0142 31.0967 54.8325C29.822 53.0308 28.5779 51.1079 27.3799 49.079C26.2126 47.0956 25.1529 45.0819 24.1853 43.0531C25.1375 41.0242 26.2126 38.9953 27.3645 37.0119C28.5625 34.9679 29.7912 33.0299 31.066 31.2282C33.3545 31.0313 35.6737 30.9254 38.0082 30.9254C40.3274 30.9254 42.6466 31.0314 44.9197 31.213C46.1945 33.0148 47.4385 34.9376 48.6365 36.9665C49.8038 38.9499 50.8635 40.9636 51.8311 42.9925C50.8635 45.0213 49.8038 47.0502 48.6519 49.0336ZM53.6128 47.0653C54.4421 49.0942 55.1487 51.123 55.7323 53.0913C53.7203 53.5758 51.6008 53.9846 49.4045 54.3026C50.157 53.1368 50.9096 51.9406 51.6161 50.7142C52.3226 49.503 52.9831 48.2766 53.6128 47.0653ZM38.0389 63.2205C36.6106 61.7669 35.1822 60.1469 33.7692 58.3754C35.1515 58.436 36.5645 58.4814 37.9928 58.4814C39.4366 58.4814 40.8649 58.4511 42.2626 58.3754C40.8803 60.1469 39.4519 61.7669 38.0389 63.2205ZM26.612 54.3026C24.431 53.9846 22.3268 53.591 20.3148 53.1065C20.8831 51.1533 21.5896 49.1396 22.3883 47.1259C23.018 48.3372 23.6784 49.5484 24.4003 50.7597C25.1222 51.9709 25.8594 53.1519 26.612 54.3026ZM37.9621 22.7948C39.3905 24.2483 40.8189 25.8684 42.2319 27.6398C40.8496 27.5793 39.4366 27.5339 38.0082 27.5339C36.5645 27.5339 35.1361 27.5641 33.7385 27.6398C35.1208 25.8684 36.5491 24.2483 37.9621 22.7948ZM26.5966 31.7127C25.844 32.8785 25.0914 34.0746 24.3849 35.301C23.6784 36.5123 23.018 37.7235 22.3883 38.9348C21.5589 36.9059 20.8524 34.8771 20.2688 32.9088C22.2808 32.4394 24.4003 32.0306 26.5966 31.7127ZM12.6969 50.6688C7.25984 48.3826 3.74267 45.3847 3.74267 43.0076C3.74267 40.6305 7.25984 37.6175 12.6969 35.3464C14.0177 34.7862 15.4614 34.2866 16.9513 33.8172C17.8267 36.7848 18.9786 39.8735 20.407 43.0379C18.994 46.1872 17.8574 49.2607 16.9973 52.2132C15.4768 51.7438 14.0331 51.229 12.6969 50.6688ZM20.9599 72.3049C18.8711 71.1239 17.9649 66.6271 18.6714 60.8434C18.8404 59.4201 19.1169 57.9212 19.4547 56.392C22.4651 57.1188 25.7519 57.679 29.2076 58.0423C31.281 60.8434 33.4313 63.387 35.5969 65.6127C30.5899 70.2003 25.8901 72.7137 22.6955 72.7137C22.0043 72.6985 21.4207 72.5623 20.9599 72.3049ZM57.391 60.7677C58.1129 66.5514 57.2221 71.0482 55.1486 72.2443C54.6879 72.5168 54.0889 72.638 53.3824 72.638C50.2031 72.638 45.488 70.1397 40.481 65.5824C42.6312 63.3567 44.7814 60.8282 46.8242 58.0272C50.2953 57.6638 53.5821 57.1036 56.5924 56.3617C56.9456 57.8909 57.2221 59.3596 57.391 60.7677ZM63.3042 50.6688C61.9833 51.229 60.5396 51.7287 59.0498 52.198C58.1743 49.2305 57.0224 46.1418 55.5941 42.9773C57.0071 39.8281 58.1436 36.7545 59.0037 33.8021C60.5242 34.2715 61.968 34.7862 63.3195 35.3464C68.7566 37.6327 72.2737 40.6305 72.2737 43.0076C72.2584 45.3847 68.7412 48.3977 63.3042 50.6688Z" fill="#B4B9C9"/>
<path d="M37.9931 49.9269C41.8696 49.9269 45.0121 46.829 45.0121 43.0076C45.0121 39.1862 41.8696 36.0883 37.9931 36.0883C34.1166 36.0883 30.9741 39.1862 30.9741 43.0076C30.9741 46.829 34.1166 49.9269 37.9931 49.9269Z" fill="#B4B9C9"/>
</g>
<defs>
<clipPath id="clip0_54_1057">
<rect width="75.3504" height="84.6402" fill="white" transform="translate(0.333008 0.679932)"/>
</clipPath>
</defs>
</svg>
