<svg width="261" height="30" viewBox="0 0 261 30" fill="none" xmlns="http://www.w3.org/2000/svg">
<g clip-path="url(#clip0_54_1054)">
<path d="M80.7088 12.7282H76.0278V20.864C76.0278 23.0334 77.6152 22.9983 80.7088 22.8636V26.1513C74.4437 26.8305 71.9507 25.2701 71.9507 20.864V12.7282H68.4773V9.20038H71.9507V4.64792L76.0278 3.5647V9.20038H80.7088V12.7282ZM98.5561 9.20038H102.633V26.1513H98.5561V23.7097C97.1213 25.5073 94.8912 26.5934 91.947 26.5934C86.8148 26.5934 82.5494 22.6938 82.5494 17.6759C82.5494 12.6257 86.8148 8.76124 91.947 8.76124C94.8912 8.76124 97.1213 9.84446 98.5561 11.6069V9.20038ZM92.5897 23.1007C95.9884 23.1007 98.5561 20.8289 98.5561 17.6759C98.5561 14.5228 95.9884 12.251 92.5897 12.251C89.191 12.251 86.6265 14.5228 86.6265 17.6759C86.6265 20.8289 89.191 23.1007 92.5897 23.1007ZM109.427 6.6592C107.993 6.6592 106.821 5.57305 106.821 4.32003C106.824 4.01263 106.892 3.70816 107.022 3.42418C107.153 3.14023 107.345 2.88239 107.587 2.66538C107.829 2.44837 108.115 2.27645 108.431 2.15944C108.746 2.04234 109.087 1.98086 109.427 1.98086C109.768 1.98086 110.106 2.04234 110.424 2.15944C110.739 2.27655 111.025 2.44928 111.268 2.66592C111.508 2.88549 111.7 3.14312 111.833 3.42418C111.963 3.70816 112.031 4.01263 112.031 4.32003C112.031 5.57305 110.862 6.6592 109.427 6.6592ZM107.389 26.1513V9.20038H111.466V26.1513H107.389ZM116.186 26.1513V1.40411H120.263V26.1513H116.186ZM146.726 9.20038H151.03L145.103 26.1513H141.1L137.176 14.7277L133.212 26.1513H129.21L123.282 9.20038H127.586L131.248 20.8962L135.212 9.20038H139.101L143.025 20.8962L146.726 9.20038ZM156.088 6.6592C154.653 6.6592 153.484 5.57305 153.484 4.32003C153.484 4.01263 153.552 3.70816 153.682 3.42418C153.815 3.14312 154.007 2.88549 154.247 2.66592C154.491 2.44928 154.776 2.27655 155.091 2.15944C155.409 2.04234 155.747 1.98086 156.088 1.98086C156.777 1.981 157.439 2.22728 157.928 2.66592C158.172 2.88549 158.363 3.14312 158.493 3.42418C158.626 3.70816 158.694 4.01263 158.694 4.32003C158.694 5.57305 157.522 6.6592 156.088 6.6592ZM154.049 26.1513V9.20038H158.126V26.1513H154.049ZM180.025 15.7436V26.1513H175.948V16.1184C175.948 13.5391 174.286 12.1836 171.718 12.1836C169.037 12.1836 166.923 13.6094 166.923 17.0669V26.1513H162.846V9.20038H166.923V11.3698C168.17 9.60732 170.208 8.76124 172.776 8.76124C177.003 8.76124 180.025 11.3375 180.025 15.7436ZM199.352 2.42H203.43V26.1513H199.352V23.7097C197.918 25.5073 195.691 26.5934 192.746 26.5934C187.611 26.5934 183.346 22.6938 183.346 17.6759C183.346 12.6257 187.611 8.76124 192.746 8.76124C195.691 8.76124 197.918 9.84446 199.352 11.6069V2.42ZM193.389 23.1007C196.785 23.1007 199.352 20.8289 199.352 17.6759C199.352 14.5228 196.785 12.251 193.389 12.251C189.99 12.251 187.423 14.5228 187.423 17.6759C187.423 20.8289 189.99 23.1007 193.389 23.1007ZM207.13 17.6759C207.13 12.6257 211.396 8.76124 217.096 8.76124C220.796 8.76124 224.004 10.4885 225.513 13.1351L222.004 14.9649C221.173 13.3722 219.323 12.3534 217.057 12.3534C213.736 12.3534 211.207 14.6253 211.207 17.6759C211.207 20.7264 213.736 22.9983 217.057 22.9983C219.323 22.9983 221.173 21.9473 222.079 20.3898L225.591 22.1844C224.004 24.8632 220.796 26.5934 217.096 26.5934C211.396 26.5934 207.13 22.6938 207.13 17.6759ZM242.465 21.3705C242.465 24.7607 239.179 26.5934 235.102 26.5934C231.327 26.5934 228.61 25.0652 227.402 22.6265L230.911 20.7938C231.519 22.322 233.028 23.2354 235.102 23.2354C236.917 23.2354 238.313 22.6938 238.313 21.3383C238.313 18.3199 228.159 20.015 228.159 13.9461C228.159 10.7608 231.217 8.76124 235.067 8.76124C238.16 8.76124 240.728 10.0494 242.049 12.2861L238.615 14.0163C237.936 12.693 236.615 12.0841 235.067 12.0841C233.593 12.0841 232.311 12.6579 232.311 13.8787C232.311 16.9644 242.465 15.0995 242.465 21.3705ZM259.87 21.3705C259.87 24.7607 256.585 26.5934 252.508 26.5934C248.733 26.5934 246.013 25.0652 244.805 22.6265L248.317 20.7938C248.921 22.322 250.431 23.2354 252.508 23.2354C254.319 23.2354 255.715 22.6938 255.715 21.3383C255.715 18.3199 245.561 20.015 245.561 13.9461C245.561 10.7608 248.619 8.76124 252.469 8.76124C255.566 8.76124 258.134 10.0494 259.455 12.2861L256.017 14.0163C255.339 12.693 254.018 12.0841 252.469 12.0841C250.999 12.0841 249.713 12.6579 249.713 13.8787C249.713 16.9644 259.87 15.0995 259.87 21.3705Z" fill="#B4B9C9"/>
<path d="M27.0661 0.549255C19.9148 0.549255 15.4416 3.76086 13.653 10.1841C16.3376 6.97247 19.4669 5.76628 23.0441 6.56845C25.0827 7.02809 26.5402 8.35723 28.1568 9.82983C30.7862 12.2246 33.8311 15 40.4792 15C47.6305 15 52.1004 11.7884 53.8891 5.3652C51.2077 8.57681 48.0785 9.78006 44.5012 8.97789C42.4626 8.52118 41.0018 7.18911 39.3885 5.71944C36.7591 3.32172 33.7142 0.549255 27.0661 0.549255ZM13.653 15C6.50174 15 2.03179 18.2116 0.243164 24.6348C2.92449 21.4232 6.05378 20.22 9.63103 21.0221C11.6729 21.4789 13.1304 22.8109 14.7437 24.2806C17.3731 26.6783 20.418 29.4508 27.0661 29.4508C34.2206 29.4508 38.6906 26.2392 40.4792 19.816C37.7946 23.0276 34.6654 24.2337 31.0913 23.4316C29.0495 22.9719 27.592 21.6428 25.9754 20.1702C23.346 17.7754 20.3011 15 13.653 15Z" fill="#B4B9C9"/>
</g>
<defs>
<clipPath id="clip0_54_1054">
<rect width="260.114" height="28.9015" fill="white" transform="translate(0 0.549255)"/>
</clipPath>
</defs>
</svg>
