<svg width="197" height="46" viewBox="0 0 197 46" fill="none" xmlns="http://www.w3.org/2000/svg">
<path fill-rule="evenodd" clip-rule="evenodd" d="M99.3154 33.2109V30.5668C101.73 32.0955 104.175 32.8597 106.652 32.8597C109.286 32.8597 111.285 32.3178 112.649 31.2337C114.012 30.1496 114.694 28.6328 114.694 26.683C114.694 24.9673 114.236 23.5986 113.319 22.5769C112.434 21.5918 110.555 20.2624 107.681 18.5881L107.358 18.4008C103.94 16.4197 101.777 14.7624 100.867 13.4289C99.9582 12.0952 99.5036 10.555 99.5036 8.80801C99.5036 6.43718 100.428 4.4251 102.278 2.77171C104.128 1.11835 106.597 0.291687 109.686 0.291687C111.692 0.291687 113.699 0.627035 115.705 1.29773V3.73101C113.73 2.84191 111.622 2.39739 109.38 2.39739C107.091 2.39739 105.277 2.97449 103.936 4.12876C102.596 5.28299 101.926 6.74916 101.926 8.52735C101.926 10.243 102.384 11.6078 103.301 12.6216C104.218 13.6354 106.198 15.016 109.239 16.763C112.39 18.541 114.487 20.1204 115.529 21.5007C116.572 22.8813 117.093 24.4683 117.093 26.2618C117.093 28.8356 116.195 30.9335 114.4 32.5556C112.605 34.1779 110.07 34.9889 106.793 34.9889C105.633 34.9889 104.297 34.8094 102.784 34.4507C101.271 34.0921 100.115 33.6786 99.3154 33.2109ZM15.7406 5.58456H25.3834V0.8559H0.55127V5.58456H10.1706V34.4247H15.7406V5.58456ZM34.2722 38.2629L45.1362 10.447H39.6337L33.6138 27.9138C33.4711 28.4492 33.359 28.885 33.278 29.2216L33.1906 29.5996H33.0729C32.9476 29.0644 32.8477 28.6464 32.7735 28.3457L32.6496 27.867L26.912 10.447H20.8685L30.4393 34.3759L28.8167 38.3097C27.8133 40.3074 26.2926 41.3066 24.2547 41.3066C23.5492 41.3066 22.7653 41.1661 21.9033 40.8852V45.404C22.6714 45.6068 23.6277 45.7084 24.7719 45.7084C28.8481 45.7084 32.0147 43.2265 34.2722 38.2629ZM54.0665 30.8721H53.9725V45.4263H48.5224V10.4445H53.9725V14.6564H54.0665C55.93 11.4738 58.6551 9.88281 62.2416 9.88281C65.2954 9.88281 67.6759 10.9514 69.3831 13.0885C71.09 15.2256 71.9436 18.0959 71.9436 21.6993C71.9436 25.6929 70.9806 28.8907 69.0541 31.2932C67.1279 33.6955 64.4968 34.8967 61.1609 34.8967C58.0913 34.8967 55.7266 33.555 54.0665 30.8721ZM53.8839 24.5202V21.5645C53.8839 19.5165 54.4745 17.8098 55.656 16.4442C56.8373 15.0789 58.398 14.3963 60.3383 14.3963C62.1691 14.3963 63.6204 15.0595 64.6921 16.3861C65.7641 17.7128 66.3 19.5475 66.3 21.8903C66.3 24.6833 65.7249 26.8593 64.575 28.4184C63.4248 29.9778 61.8406 30.7575 59.8219 30.7575C58.1009 30.7575 56.6809 30.1525 55.5621 28.9423C54.4432 27.7321 53.8839 26.2579 53.8839 24.5202ZM96.4936 23.9112H80.2381C80.3005 26.1284 80.9797 27.8379 82.2761 29.0402C83.5724 30.2424 85.3538 30.8436 87.6206 30.8436C90.167 30.8436 92.5035 30.0785 94.6306 28.5485V32.9279C92.457 34.302 89.5846 34.9889 86.0139 34.9889C82.5049 34.9889 79.7531 33.8998 77.758 31.7217C75.763 29.5437 74.7655 26.4796 74.7655 22.5295C74.7655 18.798 75.864 15.7574 78.0608 13.4075C80.2576 11.0577 82.9863 9.88281 86.2467 9.88281C89.507 9.88281 92.03 10.9367 93.8154 13.0445C95.6008 15.1523 96.4936 18.0798 96.4936 21.8268V23.9112ZM90.0446 15.466C90.9422 16.5551 91.3988 18.0792 91.4143 20.0381H80.4091C80.6569 18.1887 81.3186 16.6922 82.3943 15.548C83.47 14.4042 84.7819 13.8321 86.3296 13.8321C87.9084 13.8321 89.1467 14.3768 90.0446 15.466ZM130.894 34.9889C133.381 34.9889 135.521 34.4433 137.316 33.3525V31.1085C135.521 32.3863 133.412 33.0253 130.988 33.0253C128.344 33.0253 126.215 32.0825 124.602 30.1967C122.988 28.311 122.181 25.8176 122.181 22.7163C122.181 19.5061 123.063 16.8919 124.826 14.8736C126.589 12.8555 128.887 11.8464 131.72 11.8464C133.782 11.8464 135.679 12.3762 137.41 13.436V11.005C135.679 10.2569 133.892 9.88281 132.051 9.88281C128.493 9.88281 125.581 11.0944 123.315 13.5178C121.048 15.9413 119.915 19.0542 119.915 22.8567C119.915 26.4723 120.922 29.3981 122.937 31.6343C124.952 33.8707 127.604 34.9889 130.894 34.9889ZM151.519 12.6098C150.803 12.0924 149.961 11.834 148.995 11.834C147.11 11.834 145.529 12.8135 144.251 14.7723C142.974 16.7314 142.335 19.5131 142.335 23.1177V34.4247H140.232V10.3531H142.335V15.6891H142.429C142.974 13.8555 143.839 12.4295 145.023 11.4109C146.207 10.3923 147.578 9.88281 149.136 9.88281C150.024 9.88281 150.818 10.0239 151.519 10.3059L151.519 12.6098ZM154.889 3.9923C155.254 4.34616 155.675 4.52308 156.152 4.52308C156.66 4.52308 157.096 4.33811 157.462 3.96818C157.827 3.59824 158.01 3.15593 158.01 2.64122C158.01 2.09436 157.823 1.66011 157.45 1.33841C157.077 1.01675 156.644 0.8559 156.152 0.8559C155.691 0.8559 155.274 1.02076 154.901 1.35049C154.528 1.68023 154.341 2.11047 154.341 2.64122C154.341 3.18812 154.524 3.63845 154.889 3.9923ZM154.906 34.4247V10.447H157.163V34.4247H154.906ZM164.394 30.1567H164.487C166.202 33.3835 168.852 34.9971 172.438 34.9971C175.649 34.9971 178.233 33.7615 180.189 31.2907C182.146 28.8199 183.124 25.5812 183.124 21.5746C183.124 17.9737 182.27 15.1246 180.563 13.0278C178.857 10.9311 176.483 9.88281 173.443 9.88281C171.526 9.88281 169.768 10.3621 168.17 11.3209C166.572 12.2797 165.345 13.6397 164.487 15.4014H164.394V10.4673H162.242V45.4263H164.394L164.394 30.1567ZM164.5 21.2449V24.2573C164.5 26.6548 165.263 28.7135 166.791 30.434C168.318 32.1542 170.325 33.0143 172.812 33.0143C175.284 33.0143 177.292 31.9674 178.835 29.8735C180.377 27.7795 181.149 25.028 181.149 21.6186C181.149 18.6296 180.44 16.2555 179.023 14.4961C177.606 12.737 175.717 11.8574 173.356 11.8574C170.537 11.8574 168.357 12.7915 166.814 14.6597C165.271 16.5277 164.5 18.723 164.5 21.2449ZM193.529 34.9889C194.506 34.9889 195.552 34.7243 196.669 34.1951V32.1869C195.646 32.7629 194.692 33.0509 193.808 33.0509C192.568 33.0509 191.688 32.6811 191.168 31.9418C190.649 31.2024 190.389 30.0077 190.389 28.3575V12.5731H196.669V10.6117H190.389V3.67682C190.048 3.80136 189.692 3.91809 189.32 4.02706C188.947 4.1516 188.591 4.27614 188.25 4.40066V10.6117H183.97V12.5731H188.25V28.6376C188.25 32.8718 190.009 34.9889 193.529 34.9889Z" fill="#B4B9C9"/>
</svg>
