<svg width="70" height="70" viewBox="0 0 70 70" fill="none" xmlns="http://www.w3.org/2000/svg">
<path d="M69.2895 10.6987L36.6686 68.7631C35.9951 69.9619 34.2647 69.9689 33.5811 68.7759L0.313372 10.7043C-0.431391 9.40421 0.685414 7.82949 2.16541 8.09281L34.8212 13.9031C35.0295 13.9402 35.2428 13.9398 35.4511 13.902L67.4241 8.10114C68.8991 7.83353 70.0212 9.39606 69.2895 10.6987Z" fill="#B4B9C9"/>
<path d="M50.6606 0.240172L26.8851 4.89482C26.4943 4.97132 26.205 5.3022 26.1814 5.69928L24.7189 30.3786C24.6845 30.9599 25.2188 31.411 25.7866 31.2802L32.406 29.7539C33.0254 29.6112 33.585 30.1562 33.4577 30.7784L31.4911 40.4003C31.3587 41.0479 31.9672 41.6016 32.6002 41.4095L36.6887 40.1684C37.3225 39.9762 37.9315 40.5315 37.7974 41.1796L34.6721 56.2933C34.4766 57.2387 35.7351 57.7542 36.26 56.9437L36.6106 56.4023L55.9842 17.7727C56.3087 17.1259 55.7492 16.3884 55.0382 16.5255L48.2246 17.8393C47.5843 17.9627 47.0395 17.3669 47.2202 16.741L51.6674 1.33794C51.8483 0.710986 51.3016 0.114699 50.6606 0.240172Z" fill="#E4E4E7"/>
</svg>
